M48
METRIC,LZ,000.000
;FILE_FORMAT=3:3
;TYPE=PLATED
;Layer: PTH_Through_Via
;EasyEDA v6.5.51, 2026-04-03 00:14:50
;a4df5f88f84b4b4294378062c1a919bc,c4e0d51c5373445db20b00b071a3b2d8,10
;Gerber Generator version 0.2
;Holesize 1 = 0.305 mm
T01C0.305
%
G05
G90
T01
X032953Y128638
X013196Y104171
X058591Y114577
X045629Y119071
X018414Y113769
X012079Y116389
X053463Y096691
X059025Y109333
X022274Y105363
X031369Y105455
X042543Y116628
X030173Y131884
X017242Y123912
X036453Y129069
X040368Y120349
X047223Y117089
X021343Y097896
X031071Y131681
X026337Y124961
X040358Y128503
X037094Y099498
X045828Y109982
X021228Y130320
X027162Y130165
X033657Y131698
X035723Y112373
X055866Y131089
X058822Y099822
X025115Y111648
X020138Y107990
X019351Y108033
X025132Y112685
X025498Y125199
X019125Y124515
X043021Y118152
X058932Y112940
X049379Y110804
X012142Y101036
X015512Y102224
M30
