G04 Layer: TopSilkscreenLayer*
G04 EasyEDA v6.5.51, 2026-04-03 00:14:50*
G04 a4df5f88f84b4b4294378062c1a919bc,c4e0d51c5373445db20b00b071a3b2d8,10*
G04 Gerber Generator version 0.2*
G04 Scale: 100 percent, Rotated: No, Reflected: No *
G04 Dimensions in millimeters *
G04 leading zeros omitted , absolute positions ,4 integer and 5 decimal *
%FSLAX45Y45*%
%MOMM*%

%ADD10C,0.1524*%
%ADD11C,0.1500*%
%ADD12C,0.2540*%
%ADD13C,0.1520*%
%ADD14C,0.3000*%
%ADD15C,0.0110*%

%LPD*%
D10*
X5570895Y12754343D02*
G01*
X5570895Y12863309D01*
X5570895Y12754343D02*
G01*
X5503331Y12754343D01*
X5570895Y12806159D02*
G01*
X5529239Y12806159D01*
X5469041Y12754343D02*
G01*
X5469041Y12863309D01*
X5469041Y12754343D02*
G01*
X5422305Y12754343D01*
X5406811Y12759423D01*
X5401477Y12764757D01*
X5396397Y12775171D01*
X5396397Y12790665D01*
X5401477Y12801079D01*
X5406811Y12806159D01*
X5422305Y12811493D01*
X5469041Y12811493D01*
X5284129Y12780251D02*
G01*
X5289209Y12769837D01*
X5299623Y12759423D01*
X5310037Y12754343D01*
X5330865Y12754343D01*
X5341279Y12759423D01*
X5351693Y12769837D01*
X5356773Y12780251D01*
X5362107Y12795999D01*
X5362107Y12821907D01*
X5356773Y12837401D01*
X5351693Y12847815D01*
X5341279Y12858229D01*
X5330865Y12863309D01*
X5310037Y12863309D01*
X5299623Y12858229D01*
X5289209Y12847815D01*
X5284129Y12837401D01*
X5249839Y12775171D02*
G01*
X5239425Y12769837D01*
X5223931Y12754343D01*
X5223931Y12863309D01*
X3687711Y12841986D02*
G01*
X3687711Y12950952D01*
X3687711Y12841986D02*
G01*
X3620147Y12841986D01*
X3687711Y12893802D02*
G01*
X3646055Y12893802D01*
X3585857Y12841986D02*
G01*
X3585857Y12950952D01*
X3585857Y12841986D02*
G01*
X3539121Y12841986D01*
X3523627Y12847065D01*
X3518293Y12852400D01*
X3513213Y12862813D01*
X3513213Y12878308D01*
X3518293Y12888721D01*
X3523627Y12893802D01*
X3539121Y12899136D01*
X3585857Y12899136D01*
X3400945Y12867894D02*
G01*
X3406025Y12857479D01*
X3416439Y12847065D01*
X3426853Y12841986D01*
X3447681Y12841986D01*
X3458095Y12847065D01*
X3468509Y12857479D01*
X3473589Y12867894D01*
X3478923Y12883642D01*
X3478923Y12909550D01*
X3473589Y12925044D01*
X3468509Y12935458D01*
X3458095Y12945871D01*
X3447681Y12950952D01*
X3426853Y12950952D01*
X3416439Y12945871D01*
X3406025Y12935458D01*
X3400945Y12925044D01*
X3361321Y12867894D02*
G01*
X3361321Y12862813D01*
X3356241Y12852400D01*
X3351161Y12847065D01*
X3340747Y12841986D01*
X3319919Y12841986D01*
X3309505Y12847065D01*
X3304171Y12852400D01*
X3299091Y12862813D01*
X3299091Y12873228D01*
X3304171Y12883642D01*
X3314585Y12899136D01*
X3366655Y12950952D01*
X3294011Y12950952D01*
X3670300Y10262615D02*
G01*
X3670300Y10153650D01*
X3670300Y10262615D02*
G01*
X3717036Y10262615D01*
X3732529Y10257536D01*
X3737863Y10252202D01*
X3742943Y10241787D01*
X3742943Y10231374D01*
X3737863Y10220960D01*
X3732529Y10215879D01*
X3717036Y10210800D01*
X3670300Y10210800D01*
X3706622Y10210800D02*
G01*
X3742943Y10153650D01*
X3777234Y10241787D02*
G01*
X3787647Y10247121D01*
X3803395Y10262615D01*
X3803395Y10153650D01*
X557784Y11544300D02*
G01*
X635762Y11544300D01*
X651255Y11549379D01*
X661670Y11559794D01*
X666750Y11575542D01*
X666750Y11585955D01*
X661670Y11601450D01*
X651255Y11611863D01*
X635762Y11616944D01*
X557784Y11616944D01*
X578612Y11651234D02*
G01*
X573278Y11661647D01*
X557784Y11677395D01*
X666750Y11677395D01*
D11*
X2211905Y9796462D02*
G01*
X2211905Y9891966D01*
X2211905Y9796462D02*
G01*
X2180155Y9796462D01*
X2166439Y9801034D01*
X2157295Y9809924D01*
X2152723Y9819068D01*
X2148151Y9832784D01*
X2148151Y9855390D01*
X2152723Y9869106D01*
X2157295Y9878250D01*
X2166439Y9887394D01*
X2180155Y9891966D01*
X2211905Y9891966D01*
X2118179Y9814496D02*
G01*
X2109289Y9809924D01*
X2095573Y9796462D01*
X2095573Y9891966D01*
X2056457Y9796462D02*
G01*
X2006419Y9796462D01*
X2033597Y9832784D01*
X2020135Y9832784D01*
X2010991Y9837356D01*
X2006419Y9841928D01*
X2001847Y9855390D01*
X2001847Y9864534D01*
X2006419Y9878250D01*
X2015563Y9887394D01*
X2029279Y9891966D01*
X2042741Y9891966D01*
X2056457Y9887394D01*
X2061029Y9882822D01*
X2065601Y9873678D01*
X2202766Y10050457D02*
G01*
X2152728Y10050457D01*
X2180160Y10086779D01*
X2166444Y10086779D01*
X2157300Y10091351D01*
X2152728Y10095923D01*
X2148156Y10109385D01*
X2148156Y10118529D01*
X2152728Y10132245D01*
X2161872Y10141389D01*
X2175588Y10145961D01*
X2189304Y10145961D01*
X2202766Y10141389D01*
X2207338Y10136817D01*
X2211910Y10127673D01*
X2118184Y10050457D02*
G01*
X2081862Y10145961D01*
X2045540Y10050457D02*
G01*
X2081862Y10145961D01*
X2006424Y10050457D02*
G01*
X1956386Y10050457D01*
X1983818Y10086779D01*
X1970102Y10086779D01*
X1960958Y10091351D01*
X1956386Y10095923D01*
X1951814Y10109385D01*
X1951814Y10118529D01*
X1956386Y10132245D01*
X1965530Y10141389D01*
X1979246Y10145961D01*
X1992708Y10145961D01*
X2006424Y10141389D01*
X2010996Y10136817D01*
X2015568Y10127673D01*
X2211910Y10304457D02*
G01*
X2211910Y10399961D01*
X2211910Y10304457D02*
G01*
X2171016Y10304457D01*
X2157300Y10309029D01*
X2152728Y10313601D01*
X2148156Y10322491D01*
X2148156Y10331635D01*
X2152728Y10340779D01*
X2157300Y10345351D01*
X2171016Y10349923D01*
X2211910Y10349923D01*
X2180160Y10349923D02*
G01*
X2148156Y10399961D01*
X2118184Y10304457D02*
G01*
X2118184Y10399961D01*
X2118184Y10304457D02*
G01*
X2059256Y10304457D01*
X2118184Y10349923D02*
G01*
X2081862Y10349923D01*
X2118184Y10399961D02*
G01*
X2059256Y10399961D01*
X2029284Y10304457D02*
G01*
X2029284Y10399961D01*
X2029284Y10304457D02*
G01*
X1970102Y10304457D01*
X2029284Y10349923D02*
G01*
X1992708Y10349923D01*
X2175586Y10558459D02*
G01*
X2211908Y10653963D01*
X2175586Y10558459D02*
G01*
X2139264Y10653963D01*
X2198192Y10621959D02*
G01*
X2152726Y10621959D01*
X2081860Y10558459D02*
G01*
X2095576Y10563031D01*
X2104720Y10576493D01*
X2109292Y10599353D01*
X2109292Y10612815D01*
X2104720Y10635675D01*
X2095576Y10649391D01*
X2081860Y10653963D01*
X2072716Y10653963D01*
X2059254Y10649391D01*
X2050110Y10635675D01*
X2045538Y10612815D01*
X2045538Y10599353D01*
X2050110Y10576493D01*
X2059254Y10563031D01*
X2072716Y10558459D01*
X2081860Y10558459D01*
X2175588Y10812457D02*
G01*
X2211910Y10907961D01*
X2175588Y10812457D02*
G01*
X2139266Y10907961D01*
X2198194Y10875957D02*
G01*
X2152728Y10875957D01*
X2109294Y10830491D02*
G01*
X2100150Y10825919D01*
X2086434Y10812457D01*
X2086434Y10907961D01*
X2175586Y11066459D02*
G01*
X2211908Y11161963D01*
X2175586Y11066459D02*
G01*
X2139264Y11161963D01*
X2198192Y11129959D02*
G01*
X2152726Y11129959D01*
X2104720Y11089065D02*
G01*
X2104720Y11084493D01*
X2100148Y11075603D01*
X2095576Y11071031D01*
X2086432Y11066459D01*
X2068398Y11066459D01*
X2059254Y11071031D01*
X2054682Y11075603D01*
X2050110Y11084493D01*
X2050110Y11093637D01*
X2054682Y11102781D01*
X2063826Y11116497D01*
X2109292Y11161963D01*
X2045538Y11161963D01*
X2175586Y11320459D02*
G01*
X2211908Y11415963D01*
X2175586Y11320459D02*
G01*
X2139264Y11415963D01*
X2198192Y11383959D02*
G01*
X2152726Y11383959D01*
X2100148Y11320459D02*
G01*
X2050110Y11320459D01*
X2077288Y11356781D01*
X2063826Y11356781D01*
X2054682Y11361353D01*
X2050110Y11365925D01*
X2045538Y11379387D01*
X2045538Y11388531D01*
X2050110Y11402247D01*
X2059254Y11411391D01*
X2072716Y11415963D01*
X2086432Y11415963D01*
X2100148Y11411391D01*
X2104720Y11406819D01*
X2109292Y11397675D01*
X2175583Y11574462D02*
G01*
X2211905Y11669966D01*
X2175583Y11574462D02*
G01*
X2139261Y11669966D01*
X2198189Y11637962D02*
G01*
X2152723Y11637962D01*
X2063823Y11574462D02*
G01*
X2109289Y11637962D01*
X2040963Y11637962D01*
X2063823Y11574462D02*
G01*
X2063823Y11669966D01*
X2175586Y11828459D02*
G01*
X2211908Y11923963D01*
X2175586Y11828459D02*
G01*
X2139264Y11923963D01*
X2198192Y11891959D02*
G01*
X2152726Y11891959D01*
X2054682Y11828459D02*
G01*
X2100148Y11828459D01*
X2104720Y11869353D01*
X2100148Y11864781D01*
X2086432Y11860209D01*
X2072716Y11860209D01*
X2059254Y11864781D01*
X2050110Y11873925D01*
X2045538Y11887387D01*
X2045538Y11896531D01*
X2050110Y11910247D01*
X2059254Y11919391D01*
X2072716Y11923963D01*
X2086432Y11923963D01*
X2100148Y11919391D01*
X2104720Y11914819D01*
X2109292Y11905675D01*
X2175583Y12082462D02*
G01*
X2211905Y12177966D01*
X2175583Y12082462D02*
G01*
X2139261Y12177966D01*
X2198189Y12145962D02*
G01*
X2152723Y12145962D01*
X2054679Y12095924D02*
G01*
X2059251Y12087034D01*
X2072713Y12082462D01*
X2081857Y12082462D01*
X2095573Y12087034D01*
X2104717Y12100496D01*
X2109289Y12123356D01*
X2109289Y12145962D01*
X2104717Y12164250D01*
X2095573Y12173394D01*
X2081857Y12177966D01*
X2077285Y12177966D01*
X2063823Y12173394D01*
X2054679Y12164250D01*
X2050107Y12150534D01*
X2050107Y12145962D01*
X2054679Y12132500D01*
X2063823Y12123356D01*
X2077285Y12118784D01*
X2081857Y12118784D01*
X2095573Y12123356D01*
X2104717Y12132500D01*
X2109289Y12145962D01*
X2175586Y12336459D02*
G01*
X2211908Y12431963D01*
X2175586Y12336459D02*
G01*
X2139264Y12431963D01*
X2198192Y12399959D02*
G01*
X2152726Y12399959D01*
X2045538Y12336459D02*
G01*
X2091004Y12431963D01*
X2109292Y12336459D02*
G01*
X2045538Y12336459D01*
X2157298Y12590459D02*
G01*
X2202764Y12590459D01*
X2207336Y12631353D01*
X2202764Y12626781D01*
X2189302Y12622209D01*
X2175586Y12622209D01*
X2161870Y12626781D01*
X2152726Y12635925D01*
X2148154Y12649387D01*
X2148154Y12658531D01*
X2152726Y12672247D01*
X2161870Y12681391D01*
X2175586Y12685963D01*
X2189302Y12685963D01*
X2202764Y12681391D01*
X2207336Y12676819D01*
X2211908Y12667675D01*
X2118182Y12590459D02*
G01*
X2081860Y12685963D01*
X2045538Y12590459D02*
G01*
X2081860Y12685963D01*
X2211910Y12844457D02*
G01*
X2211910Y12939961D01*
X2211910Y12844457D02*
G01*
X2171016Y12844457D01*
X2157300Y12849029D01*
X2152728Y12853601D01*
X2148156Y12862491D01*
X2148156Y12871635D01*
X2152728Y12880779D01*
X2157300Y12885351D01*
X2171016Y12889923D01*
X2211910Y12889923D01*
X2180160Y12889923D02*
G01*
X2148156Y12939961D01*
X2054684Y12857919D02*
G01*
X2063828Y12849029D01*
X2077290Y12844457D01*
X2095578Y12844457D01*
X2109294Y12849029D01*
X2118184Y12857919D01*
X2118184Y12867063D01*
X2113612Y12876207D01*
X2109294Y12880779D01*
X2100150Y12885351D01*
X2072718Y12894495D01*
X2063828Y12898813D01*
X2059256Y12903385D01*
X2054684Y12912529D01*
X2054684Y12926245D01*
X2063828Y12935389D01*
X2077290Y12939961D01*
X2095578Y12939961D01*
X2109294Y12935389D01*
X2118184Y12926245D01*
X1992708Y12844457D02*
G01*
X1992708Y12939961D01*
X2024712Y12844457D02*
G01*
X1960958Y12844457D01*
X2143836Y13121065D02*
G01*
X2148154Y13111921D01*
X2157298Y13103031D01*
X2166442Y13098459D01*
X2184730Y13098459D01*
X2193620Y13103031D01*
X2202764Y13111921D01*
X2207336Y13121065D01*
X2211908Y13134781D01*
X2211908Y13157387D01*
X2207336Y13171103D01*
X2202764Y13180247D01*
X2193620Y13189391D01*
X2184730Y13193963D01*
X2166442Y13193963D01*
X2157298Y13189391D01*
X2148154Y13180247D01*
X2143836Y13171103D01*
X2143836Y13157387D01*
X2166442Y13157387D02*
G01*
X2143836Y13157387D01*
X2113610Y13098459D02*
G01*
X2113610Y13193963D01*
X2113610Y13098459D02*
G01*
X2050110Y13193963D01*
X2050110Y13098459D02*
G01*
X2050110Y13193963D01*
X2020138Y13098459D02*
G01*
X2020138Y13193963D01*
X2020138Y13098459D02*
G01*
X1988388Y13098459D01*
X1974672Y13103031D01*
X1965528Y13111921D01*
X1960956Y13121065D01*
X1956384Y13134781D01*
X1956384Y13157387D01*
X1960956Y13171103D01*
X1965528Y13180247D01*
X1974672Y13189391D01*
X1988388Y13193963D01*
X2020138Y13193963D01*
X2211905Y13352462D02*
G01*
X2175583Y13447966D01*
X2139261Y13352462D02*
G01*
X2175583Y13447966D01*
X2109289Y13352462D02*
G01*
X2109289Y13447966D01*
X2079063Y13352462D02*
G01*
X2079063Y13447966D01*
X2079063Y13352462D02*
G01*
X2015563Y13447966D01*
X2015563Y13352462D02*
G01*
X2015563Y13447966D01*
X1223007Y9794458D02*
G01*
X1223007Y9889962D01*
X1223007Y9794458D02*
G01*
X1191257Y9794458D01*
X1177541Y9799030D01*
X1168397Y9807920D01*
X1163825Y9817064D01*
X1159253Y9830780D01*
X1159253Y9853386D01*
X1163825Y9867102D01*
X1168397Y9876246D01*
X1177541Y9885390D01*
X1191257Y9889962D01*
X1223007Y9889962D01*
X1129281Y9812492D02*
G01*
X1120391Y9807920D01*
X1106675Y9794458D01*
X1106675Y9889962D01*
X1072131Y9817064D02*
G01*
X1072131Y9812492D01*
X1067559Y9803602D01*
X1062987Y9799030D01*
X1053843Y9794458D01*
X1035809Y9794458D01*
X1026665Y9799030D01*
X1022093Y9803602D01*
X1017521Y9812492D01*
X1017521Y9821636D01*
X1022093Y9830780D01*
X1031237Y9844496D01*
X1076703Y9889962D01*
X1012949Y9889962D01*
X1182113Y10048455D02*
G01*
X1182113Y10143959D01*
X1182113Y10048455D02*
G01*
X1150363Y10048455D01*
X1136647Y10053027D01*
X1127503Y10061917D01*
X1122931Y10071061D01*
X1118359Y10084777D01*
X1118359Y10107383D01*
X1122931Y10121099D01*
X1127503Y10130243D01*
X1136647Y10139387D01*
X1150363Y10143959D01*
X1182113Y10143959D01*
X1088387Y10066489D02*
G01*
X1079497Y10061917D01*
X1065781Y10048455D01*
X1065781Y10143959D01*
X1035809Y10066489D02*
G01*
X1026665Y10061917D01*
X1012949Y10048455D01*
X1012949Y10143959D01*
X1223007Y10302458D02*
G01*
X1223007Y10397962D01*
X1223007Y10302458D02*
G01*
X1191257Y10302458D01*
X1177541Y10307030D01*
X1168397Y10315920D01*
X1163825Y10325064D01*
X1159253Y10338780D01*
X1159253Y10361386D01*
X1163825Y10375102D01*
X1168397Y10384246D01*
X1177541Y10393390D01*
X1191257Y10397962D01*
X1223007Y10397962D01*
X1129281Y10320492D02*
G01*
X1120391Y10315920D01*
X1106675Y10302458D01*
X1106675Y10397962D01*
X1049271Y10302458D02*
G01*
X1062987Y10307030D01*
X1072131Y10320492D01*
X1076703Y10343352D01*
X1076703Y10356814D01*
X1072131Y10379674D01*
X1062987Y10393390D01*
X1049271Y10397962D01*
X1040381Y10397962D01*
X1026665Y10393390D01*
X1017521Y10379674D01*
X1012949Y10356814D01*
X1012949Y10343352D01*
X1017521Y10320492D01*
X1026665Y10307030D01*
X1040381Y10302458D01*
X1049271Y10302458D01*
X1165603Y10556458D02*
G01*
X1165603Y10651962D01*
X1165603Y10556458D02*
G01*
X1133853Y10556458D01*
X1120137Y10561030D01*
X1110993Y10569920D01*
X1106421Y10579064D01*
X1101849Y10592780D01*
X1101849Y10615386D01*
X1106421Y10629102D01*
X1110993Y10638246D01*
X1120137Y10647390D01*
X1133853Y10651962D01*
X1165603Y10651962D01*
X1012949Y10588208D02*
G01*
X1017521Y10601924D01*
X1026411Y10610814D01*
X1040127Y10615386D01*
X1044699Y10615386D01*
X1058415Y10610814D01*
X1067305Y10601924D01*
X1071877Y10588208D01*
X1071877Y10583636D01*
X1067305Y10569920D01*
X1058415Y10561030D01*
X1044699Y10556458D01*
X1040127Y10556458D01*
X1026411Y10561030D01*
X1017521Y10569920D01*
X1012949Y10588208D01*
X1012949Y10610814D01*
X1017521Y10633674D01*
X1026411Y10647390D01*
X1040127Y10651962D01*
X1049271Y10651962D01*
X1062987Y10647390D01*
X1067305Y10638246D01*
X1170175Y10810455D02*
G01*
X1170175Y10905959D01*
X1170175Y10810455D02*
G01*
X1138425Y10810455D01*
X1124709Y10815027D01*
X1115565Y10823917D01*
X1110993Y10833061D01*
X1106421Y10846777D01*
X1106421Y10869383D01*
X1110993Y10883099D01*
X1115565Y10892243D01*
X1124709Y10901387D01*
X1138425Y10905959D01*
X1170175Y10905959D01*
X1053843Y10810455D02*
G01*
X1067559Y10815027D01*
X1071877Y10823917D01*
X1071877Y10833061D01*
X1067559Y10842205D01*
X1058415Y10846777D01*
X1040127Y10851349D01*
X1026665Y10855921D01*
X1017521Y10864811D01*
X1012949Y10873955D01*
X1012949Y10887671D01*
X1017521Y10896815D01*
X1022093Y10901387D01*
X1035555Y10905959D01*
X1053843Y10905959D01*
X1067559Y10901387D01*
X1071877Y10896815D01*
X1076449Y10887671D01*
X1076449Y10873955D01*
X1071877Y10864811D01*
X1062987Y10855921D01*
X1049271Y10851349D01*
X1030983Y10846777D01*
X1022093Y10842205D01*
X1017521Y10833061D01*
X1017521Y10823917D01*
X1022093Y10815027D01*
X1035555Y10810455D01*
X1053843Y10810455D01*
X1170175Y11064458D02*
G01*
X1170175Y11159962D01*
X1170175Y11064458D02*
G01*
X1138425Y11064458D01*
X1124709Y11069030D01*
X1115565Y11077920D01*
X1110993Y11087064D01*
X1106421Y11100780D01*
X1106421Y11123386D01*
X1110993Y11137102D01*
X1115565Y11146246D01*
X1124709Y11155390D01*
X1138425Y11159962D01*
X1170175Y11159962D01*
X1012949Y11064458D02*
G01*
X1058415Y11159962D01*
X1076449Y11064458D02*
G01*
X1012949Y11064458D01*
X1165603Y11318458D02*
G01*
X1165603Y11413962D01*
X1165603Y11318458D02*
G01*
X1133853Y11318458D01*
X1120137Y11323030D01*
X1110993Y11331920D01*
X1106421Y11341064D01*
X1101849Y11354780D01*
X1101849Y11377386D01*
X1106421Y11391102D01*
X1110993Y11400246D01*
X1120137Y11409390D01*
X1133853Y11413962D01*
X1165603Y11413962D01*
X1017521Y11331920D02*
G01*
X1022093Y11323030D01*
X1035555Y11318458D01*
X1044699Y11318458D01*
X1058415Y11323030D01*
X1067305Y11336492D01*
X1071877Y11359352D01*
X1071877Y11381958D01*
X1067305Y11400246D01*
X1058415Y11409390D01*
X1044699Y11413962D01*
X1040127Y11413962D01*
X1026411Y11409390D01*
X1017521Y11400246D01*
X1012949Y11386530D01*
X1012949Y11381958D01*
X1017521Y11368496D01*
X1026411Y11359352D01*
X1040127Y11354780D01*
X1044699Y11354780D01*
X1058415Y11359352D01*
X1067305Y11368496D01*
X1071877Y11381958D01*
X1170175Y11572455D02*
G01*
X1170175Y11667959D01*
X1170175Y11572455D02*
G01*
X1138425Y11572455D01*
X1124709Y11577027D01*
X1115565Y11585917D01*
X1110993Y11595061D01*
X1106421Y11608777D01*
X1106421Y11631383D01*
X1110993Y11645099D01*
X1115565Y11654243D01*
X1124709Y11663387D01*
X1138425Y11667959D01*
X1170175Y11667959D01*
X1022093Y11572455D02*
G01*
X1067559Y11572455D01*
X1071877Y11613349D01*
X1067559Y11608777D01*
X1053843Y11604205D01*
X1040127Y11604205D01*
X1026665Y11608777D01*
X1017521Y11617921D01*
X1012949Y11631383D01*
X1012949Y11640527D01*
X1017521Y11654243D01*
X1026665Y11663387D01*
X1040127Y11667959D01*
X1053843Y11667959D01*
X1067559Y11663387D01*
X1071877Y11658815D01*
X1076449Y11649671D01*
X1174747Y11826458D02*
G01*
X1174747Y11921962D01*
X1174747Y11826458D02*
G01*
X1142997Y11826458D01*
X1129281Y11831030D01*
X1120137Y11839920D01*
X1115565Y11849064D01*
X1110993Y11862780D01*
X1110993Y11885386D01*
X1115565Y11899102D01*
X1120137Y11908246D01*
X1129281Y11917390D01*
X1142997Y11921962D01*
X1174747Y11921962D01*
X1035555Y11826458D02*
G01*
X1081021Y11889958D01*
X1012949Y11889958D01*
X1035555Y11826458D02*
G01*
X1035555Y11921962D01*
X1170175Y12080458D02*
G01*
X1170175Y12175962D01*
X1170175Y12080458D02*
G01*
X1138425Y12080458D01*
X1124709Y12085030D01*
X1115565Y12093920D01*
X1110993Y12103064D01*
X1106421Y12116780D01*
X1106421Y12139386D01*
X1110993Y12153102D01*
X1115565Y12162246D01*
X1124709Y12171390D01*
X1138425Y12175962D01*
X1170175Y12175962D01*
X1067559Y12080458D02*
G01*
X1017521Y12080458D01*
X1044699Y12116780D01*
X1030983Y12116780D01*
X1022093Y12121352D01*
X1017521Y12125924D01*
X1012949Y12139386D01*
X1012949Y12148530D01*
X1017521Y12162246D01*
X1026665Y12171390D01*
X1040127Y12175962D01*
X1053843Y12175962D01*
X1067559Y12171390D01*
X1071877Y12166818D01*
X1076449Y12157674D01*
X1170175Y12334455D02*
G01*
X1170175Y12429959D01*
X1170175Y12334455D02*
G01*
X1138425Y12334455D01*
X1124709Y12339027D01*
X1115565Y12347917D01*
X1110993Y12357061D01*
X1106421Y12370777D01*
X1106421Y12393383D01*
X1110993Y12407099D01*
X1115565Y12416243D01*
X1124709Y12425387D01*
X1138425Y12429959D01*
X1170175Y12429959D01*
X1071877Y12357061D02*
G01*
X1071877Y12352489D01*
X1067559Y12343599D01*
X1062987Y12339027D01*
X1053843Y12334455D01*
X1035555Y12334455D01*
X1026665Y12339027D01*
X1022093Y12343599D01*
X1017521Y12352489D01*
X1017521Y12361633D01*
X1022093Y12370777D01*
X1030983Y12384493D01*
X1076449Y12429959D01*
X1012949Y12429959D01*
X1200401Y12611064D02*
G01*
X1204719Y12601920D01*
X1213863Y12593030D01*
X1223007Y12588458D01*
X1241295Y12588458D01*
X1250185Y12593030D01*
X1259329Y12601920D01*
X1263901Y12611064D01*
X1268473Y12624780D01*
X1268473Y12647386D01*
X1263901Y12661102D01*
X1259329Y12670246D01*
X1250185Y12679390D01*
X1241295Y12683962D01*
X1223007Y12683962D01*
X1213863Y12679390D01*
X1204719Y12670246D01*
X1200401Y12661102D01*
X1200401Y12647386D01*
X1223007Y12647386D02*
G01*
X1200401Y12647386D01*
X1170175Y12588458D02*
G01*
X1170175Y12683962D01*
X1170175Y12588458D02*
G01*
X1106675Y12683962D01*
X1106675Y12588458D02*
G01*
X1106675Y12683962D01*
X1076703Y12588458D02*
G01*
X1076703Y12683962D01*
X1076703Y12588458D02*
G01*
X1044953Y12588458D01*
X1031237Y12593030D01*
X1022093Y12601920D01*
X1017521Y12611064D01*
X1012949Y12624780D01*
X1012949Y12647386D01*
X1017521Y12661102D01*
X1022093Y12670246D01*
X1031237Y12679390D01*
X1044953Y12683962D01*
X1076703Y12683962D01*
X1263901Y12842458D02*
G01*
X1263901Y12937962D01*
X1263901Y12842458D02*
G01*
X1223007Y12842458D01*
X1209291Y12847030D01*
X1204719Y12851602D01*
X1200147Y12860492D01*
X1200147Y12869636D01*
X1204719Y12878780D01*
X1209291Y12883352D01*
X1223007Y12887924D01*
X1263901Y12887924D01*
X1232151Y12887924D02*
G01*
X1200147Y12937962D01*
X1106675Y12855920D02*
G01*
X1115819Y12847030D01*
X1129281Y12842458D01*
X1147569Y12842458D01*
X1161285Y12847030D01*
X1170175Y12855920D01*
X1170175Y12865064D01*
X1165603Y12874208D01*
X1161285Y12878780D01*
X1152141Y12883352D01*
X1124709Y12892496D01*
X1115819Y12896814D01*
X1111247Y12901386D01*
X1106675Y12910530D01*
X1106675Y12924246D01*
X1115819Y12933390D01*
X1129281Y12937962D01*
X1147569Y12937962D01*
X1161285Y12933390D01*
X1170175Y12924246D01*
X1044699Y12842458D02*
G01*
X1044699Y12937962D01*
X1076703Y12842458D02*
G01*
X1012949Y12842458D01*
X1263901Y13096455D02*
G01*
X1263901Y13191959D01*
X1263901Y13096455D02*
G01*
X1223007Y13096455D01*
X1209291Y13101027D01*
X1204719Y13105599D01*
X1200147Y13114489D01*
X1200147Y13123633D01*
X1204719Y13132777D01*
X1209291Y13137349D01*
X1223007Y13141921D01*
X1263901Y13141921D01*
X1232151Y13141921D02*
G01*
X1200147Y13191959D01*
X1170175Y13096455D02*
G01*
X1106675Y13191959D01*
X1106675Y13096455D02*
G01*
X1170175Y13191959D01*
X1076703Y13096455D02*
G01*
X1076703Y13191959D01*
X1076703Y13096455D02*
G01*
X1044699Y13096455D01*
X1031237Y13101027D01*
X1022093Y13109917D01*
X1017521Y13119061D01*
X1012949Y13132777D01*
X1012949Y13155383D01*
X1017521Y13169099D01*
X1022093Y13178243D01*
X1031237Y13187387D01*
X1044699Y13191959D01*
X1076703Y13191959D01*
X1232151Y13350458D02*
G01*
X1232151Y13445962D01*
X1263901Y13350458D02*
G01*
X1200147Y13350458D01*
X1170175Y13350458D02*
G01*
X1106675Y13445962D01*
X1106675Y13350458D02*
G01*
X1170175Y13445962D01*
X1076703Y13350458D02*
G01*
X1076703Y13445962D01*
X1076703Y13350458D02*
G01*
X1044699Y13350458D01*
X1031237Y13355030D01*
X1022093Y13363920D01*
X1017521Y13373064D01*
X1012949Y13386780D01*
X1012949Y13409386D01*
X1017521Y13423102D01*
X1022093Y13432246D01*
X1031237Y13441390D01*
X1044699Y13445962D01*
X1076703Y13445962D01*
D10*
X4483100Y11238484D02*
G01*
X4483100Y11316462D01*
X4478020Y11331955D01*
X4467606Y11342370D01*
X4451858Y11347450D01*
X4441443Y11347450D01*
X4425950Y11342370D01*
X4415536Y11331955D01*
X4410456Y11316462D01*
X4410456Y11238484D01*
X4370831Y11264392D02*
G01*
X4370831Y11259312D01*
X4365752Y11248897D01*
X4360418Y11243563D01*
X4350004Y11238484D01*
X4329429Y11238484D01*
X4319015Y11243563D01*
X4313681Y11248897D01*
X4308602Y11259312D01*
X4308602Y11269726D01*
X4313681Y11280139D01*
X4324095Y11295634D01*
X4376165Y11347450D01*
X4303268Y11347450D01*
X3225800Y10120884D02*
G01*
X3225800Y10198862D01*
X3220720Y10214355D01*
X3210306Y10224770D01*
X3194558Y10229850D01*
X3184143Y10229850D01*
X3168650Y10224770D01*
X3158236Y10214355D01*
X3153156Y10198862D01*
X3153156Y10120884D01*
X3108452Y10120884D02*
G01*
X3051302Y10120884D01*
X3082290Y10162539D01*
X3066795Y10162539D01*
X3056381Y10167620D01*
X3051302Y10172700D01*
X3045968Y10188447D01*
X3045968Y10198862D01*
X3051302Y10214355D01*
X3061715Y10224770D01*
X3077209Y10229850D01*
X3092704Y10229850D01*
X3108452Y10224770D01*
X3113531Y10219689D01*
X3118865Y10209276D01*
X1651000Y9663684D02*
G01*
X1651000Y9741662D01*
X1645920Y9757155D01*
X1635505Y9767570D01*
X1619757Y9772650D01*
X1609344Y9772650D01*
X1593850Y9767570D01*
X1583436Y9757155D01*
X1578355Y9741662D01*
X1578355Y9663684D01*
X1491995Y9663684D02*
G01*
X1544065Y9736328D01*
X1466087Y9736328D01*
X1491995Y9663684D02*
G01*
X1491995Y9772650D01*
X1612900Y11238484D02*
G01*
X1612900Y11316462D01*
X1607820Y11331955D01*
X1597405Y11342370D01*
X1581657Y11347450D01*
X1571244Y11347450D01*
X1555750Y11342370D01*
X1545336Y11331955D01*
X1540255Y11316462D01*
X1540255Y11238484D01*
X1443481Y11238484D02*
G01*
X1495552Y11238484D01*
X1500631Y11285220D01*
X1495552Y11280139D01*
X1479804Y11274805D01*
X1464310Y11274805D01*
X1448815Y11280139D01*
X1438402Y11290300D01*
X1433068Y11306047D01*
X1433068Y11316462D01*
X1438402Y11331955D01*
X1448815Y11342370D01*
X1464310Y11347450D01*
X1479804Y11347450D01*
X1495552Y11342370D01*
X1500631Y11337289D01*
X1505965Y11326876D01*
X4824984Y10528300D02*
G01*
X4902961Y10528300D01*
X4918456Y10533379D01*
X4928870Y10543794D01*
X4933950Y10559542D01*
X4933950Y10569955D01*
X4928870Y10585450D01*
X4918456Y10595863D01*
X4902961Y10600944D01*
X4824984Y10600944D01*
X4840477Y10697718D02*
G01*
X4830063Y10692384D01*
X4824984Y10676889D01*
X4824984Y10666476D01*
X4830063Y10650981D01*
X4845811Y10640568D01*
X4871720Y10635234D01*
X4897627Y10635234D01*
X4918456Y10640568D01*
X4928870Y10650981D01*
X4933950Y10666476D01*
X4933950Y10671810D01*
X4928870Y10687304D01*
X4918456Y10697718D01*
X4902961Y10702797D01*
X4897627Y10702797D01*
X4882134Y10697718D01*
X4871720Y10687304D01*
X4866640Y10671810D01*
X4866640Y10666476D01*
X4871720Y10650981D01*
X4882134Y10640568D01*
X4897627Y10635234D01*
G36*
X5958636Y13019125D02*
G01*
X6008674Y12919100D01*
X6058662Y13019125D01*
G37*
D12*
X6224902Y13405970D02*
G01*
X4874895Y13405970D01*
X4874895Y13031612D02*
G01*
X5134279Y13031612D01*
X6224902Y13565362D02*
G01*
X4874900Y13565350D01*
X4874895Y13561601D02*
G01*
X4874895Y13409719D01*
X4874895Y13031612D02*
G01*
X4874895Y13063491D01*
X6224902Y13035361D02*
G01*
X6224902Y13059742D01*
X6224902Y13405970D02*
G01*
X6224902Y13565360D01*
X6224902Y13035361D02*
G01*
X5965510Y13035361D01*
X4675306Y13490488D02*
G01*
X4520308Y13490488D01*
X4520308Y13560303D01*
X4675306Y13443417D02*
G01*
X4675306Y13490488D01*
X4675306Y13217184D02*
G01*
X4675306Y13060301D01*
X4483425Y13060301D01*
X4520308Y13560303D02*
G01*
X2820306Y13560303D01*
X2820306Y13560303D02*
G01*
X2820306Y13487400D01*
X2669270Y13487400D01*
X2669270Y13487400D02*
G01*
X2669270Y13443417D01*
X2669270Y13217184D02*
G01*
X2669270Y13060301D01*
X2669270Y13060301D02*
G01*
X2857192Y13060301D01*
X4464951Y13560303D02*
G01*
X4420308Y13420303D01*
X4375012Y13560303D01*
D10*
X3765420Y9886990D02*
G01*
X3901412Y9886990D01*
X3901412Y10102809D01*
X3765420Y10102809D01*
X3575179Y9886990D02*
G01*
X3439187Y9886990D01*
X3439187Y10102809D01*
X3575179Y10102809D01*
D13*
X2501839Y11937959D02*
G01*
X2438339Y12001459D01*
X2501839Y12064959D01*
X2247851Y9778974D02*
G01*
X2311351Y9715474D01*
X2438351Y9715474D01*
X2501851Y9778974D01*
X2247851Y10032974D02*
G01*
X2311351Y9969474D01*
X2247851Y9905974D01*
X2247851Y10286974D02*
G01*
X2311351Y10223474D01*
X2247851Y10159974D01*
X2247851Y10540928D02*
G01*
X2311351Y10477451D01*
X2247851Y10413951D01*
X2247851Y10794923D02*
G01*
X2311351Y10731423D01*
X2247851Y10667923D01*
X2247851Y11048923D02*
G01*
X2311351Y10985423D01*
X2247851Y10921923D01*
X2247851Y11302923D02*
G01*
X2311351Y11239423D01*
X2247851Y11175923D01*
X2247851Y11556923D02*
G01*
X2311351Y11493423D01*
X2247851Y11429923D01*
X2247851Y11810923D02*
G01*
X2311351Y11747423D01*
X2247851Y11683923D01*
X2247851Y12064923D02*
G01*
X2311351Y12001423D01*
X2247851Y11937923D01*
X2247851Y12318923D02*
G01*
X2311351Y12255423D01*
X2247851Y12191923D01*
X2247851Y12572923D02*
G01*
X2311351Y12509423D01*
X2247851Y12445923D01*
X2247851Y12826951D02*
G01*
X2311351Y12763428D01*
X2247851Y12699923D01*
X2247851Y13080959D02*
G01*
X2311351Y13017459D01*
X2247851Y12953959D01*
X2247851Y13334959D02*
G01*
X2311351Y13271459D01*
X2247851Y13207959D01*
X2501851Y13461959D02*
G01*
X2438351Y13525459D01*
X2311351Y13525459D01*
X2247851Y13461959D01*
X2501851Y13207959D02*
G01*
X2438351Y13271459D01*
X2501851Y13334959D01*
X2501851Y12953959D02*
G01*
X2438351Y13017459D01*
X2501851Y13080959D01*
X2501851Y12699923D02*
G01*
X2438351Y12763428D01*
X2501851Y12826951D01*
X2501851Y10413951D02*
G01*
X2438351Y10477451D01*
X2501851Y10540928D01*
X2501851Y9905974D02*
G01*
X2438351Y9969474D01*
X2501851Y10032974D01*
X2501851Y10159974D02*
G01*
X2438351Y10223474D01*
X2501851Y10286974D01*
X2501851Y10667923D02*
G01*
X2438351Y10731423D01*
X2501851Y10794923D01*
X2501851Y10921923D02*
G01*
X2438351Y10985423D01*
X2501851Y11048923D01*
X2501851Y11175923D02*
G01*
X2438351Y11239423D01*
X2501851Y11302923D01*
X2501851Y11429923D02*
G01*
X2438351Y11493423D01*
X2501851Y11556923D01*
X2501851Y11683923D02*
G01*
X2438351Y11747423D01*
X2501851Y11810923D01*
X2501851Y12191923D02*
G01*
X2438351Y12255423D01*
X2501851Y12318923D01*
X2501851Y12445923D02*
G01*
X2438351Y12509423D01*
X2501851Y12572923D01*
X2501851Y12699923D02*
G01*
X2438351Y12763428D01*
X2501851Y12826951D01*
X2501851Y12953959D01*
X2438351Y13017459D01*
X2501851Y13080959D01*
X2501851Y13207959D01*
X2438351Y13271459D01*
X2501851Y13334959D01*
X2501851Y13461959D01*
X2438351Y13525459D01*
X2311351Y13525459D01*
X2247851Y13461959D01*
X2247851Y13334959D01*
X2311351Y13271459D01*
X2247851Y13207959D01*
X2247851Y13080959D01*
X2311351Y13017459D01*
X2247851Y12953959D01*
X2247851Y12826951D01*
X2311351Y12763428D01*
X2247851Y12699923D01*
X2247851Y12572923D01*
X2311351Y12509423D01*
X2247851Y12445923D01*
X2247851Y12318923D01*
X2311351Y12255423D01*
X2247851Y12191923D01*
X2247851Y12064923D01*
X2311351Y12001423D01*
X2247851Y11937923D01*
X2247851Y11810923D01*
X2311351Y11747423D01*
X2247851Y11683923D01*
X2247851Y11556923D01*
X2311351Y11493423D01*
X2247851Y11429923D01*
X2247851Y11302923D01*
X2311351Y11239423D01*
X2247851Y11175923D01*
X2247851Y11048923D01*
X2311351Y10985423D01*
X2247851Y10921923D01*
X2247851Y10794923D01*
X2311351Y10731423D01*
X2247851Y10667923D01*
X2247851Y10540928D01*
X2311351Y10477451D01*
X2247851Y10413951D01*
X2247851Y10286974D01*
X2311351Y10223474D01*
X2247851Y10159974D01*
X2247851Y10032974D01*
X2311351Y9969474D01*
X2247851Y9905974D01*
X2247851Y9778974D01*
X2311351Y9715474D01*
X2438351Y9715474D01*
X2501851Y9778974D01*
X723943Y11303025D02*
G01*
X787443Y11239525D01*
X723943Y11176025D01*
X723933Y10541066D02*
G01*
X787433Y10477563D01*
X723933Y10414038D01*
X723933Y10287025D01*
X787433Y10223525D01*
X723933Y10160025D01*
X723933Y10033025D01*
X787433Y9969525D01*
X723933Y9906025D01*
X723933Y9779025D01*
X787433Y9715525D01*
X914433Y9715525D01*
X977933Y9779025D01*
X977933Y9906025D01*
X914433Y9969525D01*
X977933Y10033025D01*
X977933Y10160025D01*
X914433Y10223525D01*
X977933Y10287025D01*
X977933Y10414038D01*
X914433Y10477563D01*
X977933Y10541066D01*
X977933Y10668066D01*
X914433Y10731566D01*
X977933Y10795066D01*
X977933Y10922066D01*
X914433Y10985566D01*
X977933Y11049066D01*
X977933Y11176066D01*
X914433Y11239566D01*
X977933Y11303066D01*
X977933Y11430066D01*
X914433Y11493566D01*
X977933Y11557066D01*
X977933Y11684066D01*
X914433Y11747566D01*
X977933Y11811066D01*
X977933Y11938066D01*
X914433Y12001566D01*
X977933Y12065066D01*
X977933Y12192066D01*
X914433Y12255566D01*
X977933Y12319066D01*
X977933Y12446066D01*
X914433Y12509566D01*
X977933Y12573066D01*
X977933Y12700060D01*
X914433Y12763538D01*
X977933Y12827038D01*
X977933Y12954015D01*
X914433Y13017515D01*
X977933Y13081015D01*
X977933Y13208015D01*
X914433Y13271515D01*
X977933Y13335015D01*
X977933Y13462015D01*
X914433Y13525515D01*
X787433Y13525515D01*
X723933Y13462015D01*
X723933Y12827038D02*
G01*
X787433Y12763538D01*
X723933Y12700060D01*
X723933Y13335015D02*
G01*
X787433Y13271515D01*
X723933Y13208015D01*
X723933Y13081015D02*
G01*
X787433Y13017515D01*
X723933Y12954015D01*
X723933Y12573066D02*
G01*
X787433Y12509566D01*
X723933Y12446066D01*
X723933Y12319066D02*
G01*
X787433Y12255566D01*
X723933Y12192066D01*
X723933Y12065066D02*
G01*
X787433Y12001566D01*
X723933Y11938066D01*
X723933Y11811066D02*
G01*
X787433Y11747566D01*
X723933Y11684066D01*
X723933Y11557066D02*
G01*
X787433Y11493566D01*
X723933Y11430066D01*
X723933Y11049066D02*
G01*
X787433Y10985566D01*
X723933Y10922066D01*
X723933Y10795066D02*
G01*
X787433Y10731566D01*
X723933Y10668066D01*
X1333500Y9850120D02*
G01*
X1358889Y9850120D01*
X1333500Y9461500D02*
G01*
X1333500Y9309100D01*
X1892300Y9309100D01*
X1892300Y9850120D01*
X1871395Y9850120D01*
X1333500Y9461500D02*
G01*
X1333500Y9850120D01*
X1358889Y9850120D02*
G01*
X1866900Y9850120D01*
D10*
X716282Y9453879D02*
G01*
X716282Y13787112D01*
X2509520Y13787112D01*
X2509520Y9453879D01*
X716282Y9453879D01*
X4975318Y12083940D02*
G01*
X4975318Y11639659D01*
X3940081Y11639659D01*
X3940081Y12083940D01*
X4975318Y12083940D01*
X3718018Y10966340D02*
G01*
X3718018Y10522059D01*
X2682781Y10522059D01*
X2682781Y10966340D01*
X3718018Y10966340D01*
X2143218Y10509140D02*
G01*
X2143218Y10064859D01*
X1107981Y10064859D01*
X1107981Y10509140D01*
X2143218Y10509140D01*
X2105118Y12083940D02*
G01*
X2105118Y11639659D01*
X1069881Y11639659D01*
X1069881Y12083940D01*
X2105118Y12083940D01*
X5907440Y9776079D02*
G01*
X5243159Y9776079D01*
X5243159Y11331320D01*
X5907440Y11331320D01*
X5907440Y9776079D01*
D14*
G75*
G01
X4917211Y12008714D02*
G03X4917211Y12008714I-15011J0D01*
G75*
G01
X4993411Y12217400D02*
G03X4993411Y12217400I-15011J0D01*
G75*
G01
X3659911Y10891114D02*
G03X3659911Y10891114I-15011J0D01*
G75*
G01
X3736111Y11099800D02*
G03X3736111Y11099800I-15011J0D01*
G75*
G01
X2085111Y10433914D02*
G03X2085111Y10433914I-15011J0D01*
G75*
G01
X2161311Y10642600D02*
G03X2161311Y10642600I-15011J0D01*
G75*
G01
X2047011Y12008714D02*
G03X2047011Y12008714I-15011J0D01*
G75*
G01
X2123211Y12217400D02*
G03X2123211Y12217400I-15011J0D01*
G75*
G01
X5847207Y9855200D02*
G03X5847207Y9855200I-15011J0D01*
G75*
G01
X6064707Y9781261D02*
G03X6064707Y9781261I-15011J0D01*
M02*
