G04 Layer: BottomSilkscreenLayer*
G04 EasyEDA v6.5.51, 2026-04-03 00:14:50*
G04 a4df5f88f84b4b4294378062c1a919bc,c4e0d51c5373445db20b00b071a3b2d8,10*
G04 Gerber Generator version 0.2*
G04 Scale: 100 percent, Rotated: No, Reflected: No *
G04 Dimensions in millimeters *
G04 leading zeros omitted , absolute positions ,4 integer and 5 decimal *
%FSLAX45Y45*%
%MOMM*%

%ADD10C,0.1500*%
%ADD11C,0.0124*%

%LPD*%
D10*
X6178481Y10413309D02*
G01*
X6178481Y10317853D01*
X6210300Y10413309D02*
G01*
X6146662Y10413309D01*
X6062118Y10381490D02*
G01*
X6062118Y10317853D01*
X6062118Y10367853D02*
G01*
X6071209Y10376946D01*
X6080300Y10381490D01*
X6093937Y10381490D01*
X6103028Y10376946D01*
X6112118Y10367853D01*
X6116662Y10354218D01*
X6116662Y10345127D01*
X6112118Y10331490D01*
X6103028Y10322399D01*
X6093937Y10317853D01*
X6080300Y10317853D01*
X6071209Y10322399D01*
X6062118Y10331490D01*
X5977572Y10367853D02*
G01*
X5986663Y10376946D01*
X5995753Y10381490D01*
X6009391Y10381490D01*
X6018481Y10376946D01*
X6027572Y10367853D01*
X6032118Y10354218D01*
X6032118Y10345127D01*
X6027572Y10331490D01*
X6018481Y10322399D01*
X6009391Y10317853D01*
X5995753Y10317853D01*
X5986663Y10322399D01*
X5977572Y10331490D01*
X5933937Y10413309D02*
G01*
X5933937Y10336037D01*
X5929391Y10322399D01*
X5920300Y10317853D01*
X5911209Y10317853D01*
X5947572Y10381490D02*
G01*
X5915753Y10381490D01*
X5881209Y10413309D02*
G01*
X5876663Y10408762D01*
X5872119Y10413309D01*
X5876663Y10417853D01*
X5881209Y10413309D01*
X5876663Y10381490D02*
G01*
X5876663Y10317853D01*
X5842119Y10413309D02*
G01*
X5842119Y10317853D01*
X5812119Y10354218D02*
G01*
X5757572Y10354218D01*
X5757572Y10363309D01*
X5762119Y10372399D01*
X5766663Y10376946D01*
X5775754Y10381490D01*
X5789391Y10381490D01*
X5798482Y10376946D01*
X5807572Y10367853D01*
X5812119Y10354218D01*
X5812119Y10345127D01*
X5807572Y10331490D01*
X5798482Y10322399D01*
X5789391Y10317853D01*
X5775754Y10317853D01*
X5766663Y10322399D01*
X5757572Y10331490D01*
X5657573Y10413309D02*
G01*
X5657573Y10317853D01*
X5657573Y10413309D02*
G01*
X5616663Y10413309D01*
X5603029Y10408762D01*
X5598482Y10404218D01*
X5593938Y10395127D01*
X5593938Y10386037D01*
X5598482Y10376946D01*
X5603029Y10372399D01*
X5616663Y10367853D01*
X5657573Y10367853D01*
X5625754Y10367853D02*
G01*
X5593938Y10317853D01*
X5563938Y10354218D02*
G01*
X5509392Y10354218D01*
X5509392Y10363309D01*
X5513938Y10372399D01*
X5518482Y10376946D01*
X5527573Y10381490D01*
X5541210Y10381490D01*
X5550301Y10376946D01*
X5559391Y10367853D01*
X5563938Y10354218D01*
X5563938Y10345127D01*
X5559391Y10331490D01*
X5550301Y10322399D01*
X5541210Y10317853D01*
X5527573Y10317853D01*
X5518482Y10322399D01*
X5509392Y10331490D01*
X5424848Y10381490D02*
G01*
X5424848Y10317853D01*
X5424848Y10367853D02*
G01*
X5433938Y10376946D01*
X5443029Y10381490D01*
X5456664Y10381490D01*
X5465754Y10376946D01*
X5474848Y10367853D01*
X5479392Y10354218D01*
X5479392Y10345127D01*
X5474848Y10331490D01*
X5465754Y10322399D01*
X5456664Y10317853D01*
X5443029Y10317853D01*
X5433938Y10322399D01*
X5424848Y10331490D01*
X5340301Y10413309D02*
G01*
X5340301Y10317853D01*
X5340301Y10367853D02*
G01*
X5349392Y10376946D01*
X5358483Y10381490D01*
X5372120Y10381490D01*
X5381210Y10376946D01*
X5390301Y10367853D01*
X5394848Y10354218D01*
X5394848Y10345127D01*
X5390301Y10331490D01*
X5381210Y10322399D01*
X5372120Y10317853D01*
X5358483Y10317853D01*
X5349392Y10322399D01*
X5340301Y10331490D01*
X5310301Y10413309D02*
G01*
X5305755Y10408762D01*
X5301211Y10413309D01*
X5305755Y10417853D01*
X5310301Y10413309D01*
X5305755Y10381490D02*
G01*
X5305755Y10317853D01*
X5271211Y10381490D02*
G01*
X5271211Y10317853D01*
X5271211Y10363309D02*
G01*
X5257573Y10376946D01*
X5248483Y10381490D01*
X5234848Y10381490D01*
X5225755Y10376946D01*
X5221211Y10363309D01*
X5221211Y10317853D01*
X5136664Y10381490D02*
G01*
X5136664Y10308762D01*
X5141211Y10295128D01*
X5145755Y10290581D01*
X5154848Y10286037D01*
X5168483Y10286037D01*
X5177574Y10290581D01*
X5136664Y10367853D02*
G01*
X5145755Y10376946D01*
X5154848Y10381490D01*
X5168483Y10381490D01*
X5177574Y10376946D01*
X5186664Y10367853D01*
X5191211Y10354218D01*
X5191211Y10345127D01*
X5186664Y10331490D01*
X5177574Y10322399D01*
X5168483Y10317853D01*
X5154848Y10317853D01*
X5145755Y10322399D01*
X5136664Y10331490D01*
X5036665Y10413309D02*
G01*
X5036665Y10317853D01*
X5036665Y10413309D02*
G01*
X4995755Y10413309D01*
X4982121Y10408762D01*
X4977574Y10404218D01*
X4973030Y10395127D01*
X4973030Y10386037D01*
X4977574Y10376946D01*
X4982121Y10372399D01*
X4995755Y10367853D01*
X5036665Y10367853D02*
G01*
X4995755Y10367853D01*
X4982121Y10363309D01*
X4977574Y10358762D01*
X4973030Y10349671D01*
X4973030Y10336037D01*
X4977574Y10326946D01*
X4982121Y10322399D01*
X4995755Y10317853D01*
X5036665Y10317853D01*
X4920302Y10381490D02*
G01*
X4929393Y10376946D01*
X4938483Y10367853D01*
X4943030Y10354218D01*
X4943030Y10345127D01*
X4938483Y10331490D01*
X4929393Y10322399D01*
X4920302Y10317853D01*
X4906665Y10317853D01*
X4897574Y10322399D01*
X4888484Y10331490D01*
X4883939Y10345127D01*
X4883939Y10354218D01*
X4888484Y10367853D01*
X4897574Y10376946D01*
X4906665Y10381490D01*
X4920302Y10381490D01*
X4799393Y10381490D02*
G01*
X4799393Y10317853D01*
X4799393Y10367853D02*
G01*
X4808484Y10376946D01*
X4817574Y10381490D01*
X4831212Y10381490D01*
X4840302Y10376946D01*
X4849393Y10367853D01*
X4853940Y10354218D01*
X4853940Y10345127D01*
X4849393Y10331490D01*
X4840302Y10322399D01*
X4831212Y10317853D01*
X4817574Y10317853D01*
X4808484Y10322399D01*
X4799393Y10331490D01*
X4769393Y10381490D02*
G01*
X4769393Y10317853D01*
X4769393Y10354218D02*
G01*
X4764849Y10367853D01*
X4755756Y10376946D01*
X4746665Y10381490D01*
X4733030Y10381490D01*
X4648484Y10413309D02*
G01*
X4648484Y10317853D01*
X4648484Y10367853D02*
G01*
X4657575Y10376946D01*
X4666665Y10381490D01*
X4680303Y10381490D01*
X4689393Y10376946D01*
X4698484Y10367853D01*
X4703030Y10354218D01*
X4703030Y10345127D01*
X4698484Y10331490D01*
X4689393Y10322399D01*
X4680303Y10317853D01*
X4666665Y10317853D01*
X4657575Y10322399D01*
X4648484Y10331490D01*
X4539394Y10413309D02*
G01*
X4489394Y10413309D01*
X4516666Y10376946D01*
X4503031Y10376946D01*
X4493940Y10372399D01*
X4489394Y10367853D01*
X4484850Y10354218D01*
X4484850Y10345127D01*
X4489394Y10331490D01*
X4498484Y10322399D01*
X4512122Y10317853D01*
X4525756Y10317853D01*
X4539394Y10322399D01*
X4543940Y10326946D01*
X4548484Y10336037D01*
X4450303Y10390581D02*
G01*
X4450303Y10395127D01*
X4445756Y10404218D01*
X4441212Y10408762D01*
X4432122Y10413309D01*
X4413940Y10413309D01*
X4404850Y10408762D01*
X4400303Y10404218D01*
X4395757Y10395127D01*
X4395757Y10386037D01*
X4400303Y10376946D01*
X4409394Y10363309D01*
X4454850Y10317853D01*
X4391212Y10317853D01*
X4361213Y10381490D02*
G01*
X4311213Y10317853D01*
X4311213Y10381490D02*
G01*
X4361213Y10317853D01*
X4281213Y10395127D02*
G01*
X4272122Y10399671D01*
X4258485Y10413309D01*
X4258485Y10317853D01*
X4173941Y10399671D02*
G01*
X4178485Y10408762D01*
X4192122Y10413309D01*
X4201213Y10413309D01*
X4214850Y10408762D01*
X4223941Y10395127D01*
X4228485Y10372399D01*
X4228485Y10349671D01*
X4223941Y10331490D01*
X4214850Y10322399D01*
X4201213Y10317853D01*
X4196666Y10317853D01*
X4183032Y10322399D01*
X4173941Y10331490D01*
X4169394Y10345127D01*
X4169394Y10349671D01*
X4173941Y10363309D01*
X4183032Y10372399D01*
X4196666Y10376946D01*
X4201213Y10376946D01*
X4214850Y10372399D01*
X4223941Y10363309D01*
X4228485Y10349671D01*
X4069394Y10381490D02*
G01*
X4042122Y10317853D01*
X4014850Y10381490D02*
G01*
X4042122Y10317853D01*
X3984851Y10358762D02*
G01*
X3903032Y10358762D01*
X3873032Y10395127D02*
G01*
X3863941Y10399671D01*
X3850304Y10413309D01*
X3850304Y10317853D01*
X3815758Y10340581D02*
G01*
X3820304Y10336037D01*
X3815758Y10331490D01*
X3811214Y10336037D01*
X3815758Y10340581D01*
X3753942Y10413309D02*
G01*
X3767576Y10408762D01*
X3776667Y10395127D01*
X3781214Y10372399D01*
X3781214Y10358762D01*
X3776667Y10336037D01*
X3767576Y10322399D01*
X3753942Y10317853D01*
X3744851Y10317853D01*
X3731214Y10322399D01*
X3722123Y10336037D01*
X3717577Y10358762D01*
X3717577Y10372399D01*
X3722123Y10395127D01*
X3731214Y10408762D01*
X3744851Y10413309D01*
X3753942Y10413309D01*
X6210300Y10211709D02*
G01*
X6210300Y10116253D01*
X6210300Y10211709D02*
G01*
X6178481Y10211709D01*
X6164846Y10207162D01*
X6155753Y10198072D01*
X6151209Y10188981D01*
X6146662Y10175346D01*
X6146662Y10152618D01*
X6151209Y10138981D01*
X6155753Y10129890D01*
X6164846Y10120800D01*
X6178481Y10116253D01*
X6210300Y10116253D01*
X6116662Y10152618D02*
G01*
X6062118Y10152618D01*
X6062118Y10161709D01*
X6066663Y10170800D01*
X6071209Y10175346D01*
X6080300Y10179890D01*
X6093937Y10179890D01*
X6103028Y10175346D01*
X6112118Y10166253D01*
X6116662Y10152618D01*
X6116662Y10143528D01*
X6112118Y10129890D01*
X6103028Y10120800D01*
X6093937Y10116253D01*
X6080300Y10116253D01*
X6071209Y10120800D01*
X6062118Y10129890D01*
X5982119Y10166253D02*
G01*
X5986663Y10175346D01*
X6000300Y10179890D01*
X6013937Y10179890D01*
X6027572Y10175346D01*
X6032118Y10166253D01*
X6027572Y10157162D01*
X6018481Y10152618D01*
X5995753Y10148072D01*
X5986663Y10143528D01*
X5982119Y10134437D01*
X5982119Y10129890D01*
X5986663Y10120800D01*
X6000300Y10116253D01*
X6013937Y10116253D01*
X6027572Y10120800D01*
X6032118Y10129890D01*
X5952119Y10211709D02*
G01*
X5947572Y10207162D01*
X5943028Y10211709D01*
X5947572Y10216253D01*
X5952119Y10211709D01*
X5947572Y10179890D02*
G01*
X5947572Y10116253D01*
X5858482Y10179890D02*
G01*
X5858482Y10107162D01*
X5863028Y10093528D01*
X5867572Y10088981D01*
X5876663Y10084437D01*
X5890300Y10084437D01*
X5899391Y10088981D01*
X5858482Y10166253D02*
G01*
X5867572Y10175346D01*
X5876663Y10179890D01*
X5890300Y10179890D01*
X5899391Y10175346D01*
X5908481Y10166253D01*
X5913028Y10152618D01*
X5913028Y10143528D01*
X5908481Y10129890D01*
X5899391Y10120800D01*
X5890300Y10116253D01*
X5876663Y10116253D01*
X5867572Y10120800D01*
X5858482Y10129890D01*
X5828482Y10179890D02*
G01*
X5828482Y10116253D01*
X5828482Y10161709D02*
G01*
X5814847Y10175346D01*
X5805754Y10179890D01*
X5792119Y10179890D01*
X5783028Y10175346D01*
X5778482Y10161709D01*
X5778482Y10116253D01*
X5748482Y10152618D02*
G01*
X5693938Y10152618D01*
X5693938Y10161709D01*
X5698482Y10170800D01*
X5703028Y10175346D01*
X5712119Y10179890D01*
X5725754Y10179890D01*
X5734847Y10175346D01*
X5743938Y10166253D01*
X5748482Y10152618D01*
X5748482Y10143528D01*
X5743938Y10129890D01*
X5734847Y10120800D01*
X5725754Y10116253D01*
X5712119Y10116253D01*
X5703028Y10120800D01*
X5693938Y10129890D01*
X5609391Y10211709D02*
G01*
X5609391Y10116253D01*
X5609391Y10166253D02*
G01*
X5618482Y10175346D01*
X5627573Y10179890D01*
X5641210Y10179890D01*
X5650301Y10175346D01*
X5659391Y10166253D01*
X5663938Y10152618D01*
X5663938Y10143528D01*
X5659391Y10129890D01*
X5650301Y10120800D01*
X5641210Y10116253D01*
X5627573Y10116253D01*
X5618482Y10120800D01*
X5609391Y10129890D01*
X5509392Y10211709D02*
G01*
X5509392Y10116253D01*
X5509392Y10166253D02*
G01*
X5500301Y10175346D01*
X5491210Y10179890D01*
X5477573Y10179890D01*
X5468482Y10175346D01*
X5459392Y10166253D01*
X5454848Y10152618D01*
X5454848Y10143528D01*
X5459392Y10129890D01*
X5468482Y10120800D01*
X5477573Y10116253D01*
X5491210Y10116253D01*
X5500301Y10120800D01*
X5509392Y10129890D01*
X5420301Y10179890D02*
G01*
X5393029Y10116253D01*
X5365755Y10179890D02*
G01*
X5393029Y10116253D01*
X5402120Y10098072D01*
X5411210Y10088981D01*
X5420301Y10084437D01*
X5424848Y10084437D01*
X5331211Y10170800D02*
G01*
X5335755Y10166253D01*
X5331211Y10161709D01*
X5326664Y10166253D01*
X5331211Y10170800D01*
X5331211Y10138981D02*
G01*
X5335755Y10134437D01*
X5331211Y10129890D01*
X5326664Y10134437D01*
X5331211Y10138981D01*
X5226664Y10211709D02*
G01*
X5226664Y10116253D01*
X5226664Y10211709D02*
G01*
X5185755Y10211709D01*
X5172120Y10207162D01*
X5167574Y10202618D01*
X5163030Y10193528D01*
X5163030Y10184437D01*
X5167574Y10175346D01*
X5172120Y10170800D01*
X5185755Y10166253D01*
X5226664Y10166253D02*
G01*
X5185755Y10166253D01*
X5172120Y10161709D01*
X5167574Y10157162D01*
X5163030Y10148072D01*
X5163030Y10134437D01*
X5167574Y10125346D01*
X5172120Y10120800D01*
X5185755Y10116253D01*
X5226664Y10116253D01*
X5133030Y10211709D02*
G01*
X5128483Y10207162D01*
X5123939Y10211709D01*
X5128483Y10216253D01*
X5133030Y10211709D01*
X5128483Y10179890D02*
G01*
X5128483Y10116253D01*
X5093939Y10179890D02*
G01*
X5093939Y10116253D01*
X5093939Y10161709D02*
G01*
X5080302Y10175346D01*
X5071211Y10179890D01*
X5057574Y10179890D01*
X5048483Y10175346D01*
X5043939Y10161709D01*
X5043939Y10116253D01*
X4959393Y10179890D02*
G01*
X4959393Y10107162D01*
X4963939Y10093528D01*
X4968483Y10088981D01*
X4977574Y10084437D01*
X4991211Y10084437D01*
X5000302Y10088981D01*
X4959393Y10166253D02*
G01*
X4968483Y10175346D01*
X4977574Y10179890D01*
X4991211Y10179890D01*
X5000302Y10175346D01*
X5009393Y10166253D01*
X5013939Y10152618D01*
X5013939Y10143528D01*
X5009393Y10129890D01*
X5000302Y10120800D01*
X4991211Y10116253D01*
X4977574Y10116253D01*
X4968483Y10120800D01*
X4959393Y10129890D01*
X4929393Y10211709D02*
G01*
X4929393Y10116253D01*
X4929393Y10161709D02*
G01*
X4915755Y10175346D01*
X4906665Y10179890D01*
X4893030Y10179890D01*
X4883939Y10175346D01*
X4879393Y10161709D01*
X4879393Y10116253D01*
X4794849Y10179890D02*
G01*
X4794849Y10116253D01*
X4794849Y10166253D02*
G01*
X4803940Y10175346D01*
X4813030Y10179890D01*
X4826665Y10179890D01*
X4835756Y10175346D01*
X4844849Y10166253D01*
X4849393Y10152618D01*
X4849393Y10143528D01*
X4844849Y10129890D01*
X4835756Y10120800D01*
X4826665Y10116253D01*
X4813030Y10116253D01*
X4803940Y10120800D01*
X4794849Y10129890D01*
X4742121Y10179890D02*
G01*
X4751212Y10175346D01*
X4760302Y10166253D01*
X4764849Y10152618D01*
X4764849Y10143528D01*
X4760302Y10129890D01*
X4751212Y10120800D01*
X4742121Y10116253D01*
X4728484Y10116253D01*
X4719393Y10120800D01*
X4710302Y10129890D01*
X4705756Y10143528D01*
X4705756Y10152618D01*
X4710302Y10166253D01*
X4719393Y10175346D01*
X4728484Y10179890D01*
X4742121Y10179890D01*
X4605756Y10211709D02*
G01*
X4605756Y10116253D01*
X4542121Y10211709D02*
G01*
X4542121Y10116253D01*
X4605756Y10166253D02*
G01*
X4542121Y10166253D01*
X4512122Y10179890D02*
G01*
X4512122Y10134437D01*
X4507575Y10120800D01*
X4498484Y10116253D01*
X4484850Y10116253D01*
X4475756Y10120800D01*
X4462122Y10134437D01*
X4462122Y10179890D02*
G01*
X4462122Y10116253D01*
X4377575Y10179890D02*
G01*
X4377575Y10116253D01*
X4377575Y10166253D02*
G01*
X4386666Y10175346D01*
X4395757Y10179890D01*
X4409394Y10179890D01*
X4418484Y10175346D01*
X4427575Y10166253D01*
X4432122Y10152618D01*
X4432122Y10143528D01*
X4427575Y10129890D01*
X4418484Y10120800D01*
X4409394Y10116253D01*
X4395757Y10116253D01*
X4386666Y10120800D01*
X4377575Y10129890D01*
X4347575Y10179890D02*
G01*
X4347575Y10116253D01*
X4347575Y10161709D02*
G01*
X4333941Y10175346D01*
X4324850Y10179890D01*
X4311213Y10179890D01*
X4302122Y10175346D01*
X4297575Y10161709D01*
X4297575Y10116253D01*
X4213031Y10179890D02*
G01*
X4213031Y10107162D01*
X4217576Y10093528D01*
X4222122Y10088981D01*
X4231213Y10084437D01*
X4244850Y10084437D01*
X4253941Y10088981D01*
X4213031Y10166253D02*
G01*
X4222122Y10175346D01*
X4231213Y10179890D01*
X4244850Y10179890D01*
X4253941Y10175346D01*
X4263031Y10166253D01*
X4267575Y10152618D01*
X4267575Y10143528D01*
X4263031Y10129890D01*
X4253941Y10120800D01*
X4244850Y10116253D01*
X4231213Y10116253D01*
X4222122Y10120800D01*
X4213031Y10129890D01*
X6142118Y9987381D02*
G01*
X6146662Y9996472D01*
X6155753Y10005562D01*
X6164846Y10010109D01*
X6183028Y10010109D01*
X6192118Y10005562D01*
X6201209Y9996472D01*
X6205753Y9987381D01*
X6210300Y9973746D01*
X6210300Y9951018D01*
X6205753Y9937381D01*
X6201209Y9928291D01*
X6192118Y9919200D01*
X6183028Y9914653D01*
X6164846Y9914653D01*
X6155753Y9919200D01*
X6146662Y9928291D01*
X6142118Y9937381D01*
X6089390Y9978290D02*
G01*
X6098481Y9973746D01*
X6107572Y9964653D01*
X6112118Y9951018D01*
X6112118Y9941928D01*
X6107572Y9928291D01*
X6098481Y9919200D01*
X6089390Y9914653D01*
X6075753Y9914653D01*
X6066663Y9919200D01*
X6057572Y9928291D01*
X6053028Y9941928D01*
X6053028Y9951018D01*
X6057572Y9964653D01*
X6066663Y9973746D01*
X6075753Y9978290D01*
X6089390Y9978290D01*
X6023028Y10010109D02*
G01*
X6023028Y9914653D01*
X5993028Y9978290D02*
G01*
X5993028Y9932837D01*
X5988481Y9919200D01*
X5979391Y9914653D01*
X5965753Y9914653D01*
X5956663Y9919200D01*
X5943028Y9932837D01*
X5943028Y9978290D02*
G01*
X5943028Y9914653D01*
X5913028Y9978290D02*
G01*
X5913028Y9914653D01*
X5913028Y9960109D02*
G01*
X5899391Y9973746D01*
X5890300Y9978290D01*
X5876663Y9978290D01*
X5867572Y9973746D01*
X5863028Y9960109D01*
X5863028Y9914653D01*
X5863028Y9960109D02*
G01*
X5849391Y9973746D01*
X5840300Y9978290D01*
X5826663Y9978290D01*
X5817572Y9973746D01*
X5813028Y9960109D01*
X5813028Y9914653D01*
X5783028Y10010109D02*
G01*
X5783028Y9914653D01*
X5783028Y9964653D02*
G01*
X5773938Y9973746D01*
X5764847Y9978290D01*
X5751210Y9978290D01*
X5742119Y9973746D01*
X5733028Y9964653D01*
X5728482Y9951018D01*
X5728482Y9941928D01*
X5733028Y9928291D01*
X5742119Y9919200D01*
X5751210Y9914653D01*
X5764847Y9914653D01*
X5773938Y9919200D01*
X5783028Y9928291D01*
X5698482Y10010109D02*
G01*
X5693938Y10005562D01*
X5689391Y10010109D01*
X5693938Y10014653D01*
X5698482Y10010109D01*
X5693938Y9978290D02*
G01*
X5693938Y9914653D01*
X5604847Y9978290D02*
G01*
X5604847Y9914653D01*
X5604847Y9964653D02*
G01*
X5613938Y9973746D01*
X5623029Y9978290D01*
X5636663Y9978290D01*
X5645754Y9973746D01*
X5654847Y9964653D01*
X5659391Y9951018D01*
X5659391Y9941928D01*
X5654847Y9928291D01*
X5645754Y9919200D01*
X5636663Y9914653D01*
X5623029Y9914653D01*
X5613938Y9919200D01*
X5604847Y9928291D01*
X5504848Y10010109D02*
G01*
X5504848Y9941928D01*
X5500301Y9928291D01*
X5491210Y9919200D01*
X5477573Y9914653D01*
X5468482Y9914653D01*
X5454848Y9919200D01*
X5445754Y9928291D01*
X5441210Y9941928D01*
X5441210Y10010109D01*
X5411210Y9978290D02*
G01*
X5411210Y9914653D01*
X5411210Y9960109D02*
G01*
X5397573Y9973746D01*
X5388483Y9978290D01*
X5374848Y9978290D01*
X5365755Y9973746D01*
X5361211Y9960109D01*
X5361211Y9914653D01*
X5331211Y10010109D02*
G01*
X5326664Y10005562D01*
X5322120Y10010109D01*
X5326664Y10014653D01*
X5331211Y10010109D01*
X5326664Y9978290D02*
G01*
X5326664Y9914653D01*
X5292120Y9978290D02*
G01*
X5264848Y9914653D01*
X5237573Y9978290D02*
G01*
X5264848Y9914653D01*
X5207574Y9951018D02*
G01*
X5153030Y9951018D01*
X5153030Y9960109D01*
X5157574Y9969200D01*
X5162120Y9973746D01*
X5171211Y9978290D01*
X5184848Y9978290D01*
X5193939Y9973746D01*
X5203029Y9964653D01*
X5207574Y9951018D01*
X5207574Y9941928D01*
X5203029Y9928291D01*
X5193939Y9919200D01*
X5184848Y9914653D01*
X5171211Y9914653D01*
X5162120Y9919200D01*
X5153030Y9928291D01*
X5123030Y9978290D02*
G01*
X5123030Y9914653D01*
X5123030Y9951018D02*
G01*
X5118483Y9964653D01*
X5109392Y9973746D01*
X5100302Y9978290D01*
X5086664Y9978290D01*
X5006665Y9964653D02*
G01*
X5011211Y9973746D01*
X5024848Y9978290D01*
X5038483Y9978290D01*
X5052120Y9973746D01*
X5056665Y9964653D01*
X5052120Y9955563D01*
X5043030Y9951018D01*
X5020302Y9946472D01*
X5011211Y9941928D01*
X5006665Y9932837D01*
X5006665Y9928291D01*
X5011211Y9919200D01*
X5024848Y9914653D01*
X5038483Y9914653D01*
X5052120Y9919200D01*
X5056665Y9928291D01*
X4976665Y10010109D02*
G01*
X4972121Y10005562D01*
X4967574Y10010109D01*
X4972121Y10014653D01*
X4976665Y10010109D01*
X4972121Y9978290D02*
G01*
X4972121Y9914653D01*
X4923939Y10010109D02*
G01*
X4923939Y9932837D01*
X4919393Y9919200D01*
X4910302Y9914653D01*
X4901211Y9914653D01*
X4937574Y9978290D02*
G01*
X4905756Y9978290D01*
X4866665Y9978290D02*
G01*
X4839393Y9914653D01*
X4812121Y9978290D02*
G01*
X4839393Y9914653D01*
X4848484Y9896472D01*
X4857574Y9887381D01*
X4866665Y9882837D01*
X4871211Y9882837D01*
M02*
