M48
; DRILL file KiCad 10.0.5 date 2026-08-06T13:53:08
; FORMAT={-:-/ absolute / metric / decimal}
; #@! TF.CreationDate,2026-08-06T13:53:08-04:00
; #@! TF.GenerationSoftware,Kicad,Pcbnew,10.0.5
; #@! TF.FileFunction,Plated,1,4,PTH
FMAT,2
METRIC
; #@! TA.AperFunction,Plated,PTH,ViaDrill
T1C0.300
; #@! TA.AperFunction,Plated,PTH,ComponentDrill
T2C1.000
%
G90
G05
T1
X101.9Y-128.225
X102.225Y-124.0
X102.45Y-108.45
X102.45Y-114.45
X102.45Y-120.45
X102.45Y-138.45
X102.56Y-134.417
X103.775Y-124.0
X103.85Y-144.4
X104.198Y-111.617
X104.198Y-119.617
X106.175Y-124.0
X108.45Y-102.45
X108.825Y-123.0
X110.287Y-124.325
X110.948Y-122.683
X110.948Y-123.333
X110.948Y-125.317
X111.44Y-126.583
X111.44Y-134.417
X111.802Y-106.383
X111.802Y-114.383
X112.162Y-108.675
X112.162Y-110.625
X112.162Y-116.675
X112.162Y-118.625
X113.15Y-144.4
X113.225Y-122.0
X114.19Y-108.567
X114.19Y-110.117
X114.19Y-116.567
X114.19Y-118.117
X114.25Y-112.175
X114.25Y-113.825
X114.45Y-102.45
X114.512Y-123.675
X114.512Y-124.325
X114.698Y-119.617
X114.775Y-122.0
X115.15Y-144.4
X115.56Y-126.583
X115.56Y-134.417
X115.637Y-112.275
X117.052Y-122.683
X117.052Y-125.317
X119.675Y-124.0
X120.45Y-102.45
X121.325Y-124.0
X122.302Y-106.383
X122.302Y-114.383
X122.662Y-108.675
X122.662Y-110.625
X122.662Y-116.675
X122.662Y-118.625
X123.15Y-144.4
X124.44Y-126.583
X125.1Y-132.775
X125.725Y-131.0
X126.0Y-108.225
X126.0Y-109.775
X126.0Y-112.225
X126.0Y-113.775
X126.0Y-116.225
X126.0Y-117.775
X126.45Y-102.45
X127.275Y-131.0
X127.766Y-122.418
X127.94Y-119.883
X128.85Y-144.4
X132.45Y-102.45
X138.15Y-144.4
X138.45Y-102.45
X140.15Y-144.4
X144.45Y-102.45
X148.15Y-144.4
T2
X130.11Y-108.38
X130.11Y-110.92
X130.11Y-113.46
X130.11Y-116.0
X130.11Y-118.54
X130.11Y-121.08
X130.11Y-123.62
X147.89Y-108.38
X147.89Y-110.92
X147.89Y-113.46
X147.89Y-116.0
X147.89Y-118.54
X147.89Y-121.08
X147.89Y-123.62
M30
