%TF.GenerationSoftware,KiCad,Pcbnew,10.0.5*%
%TF.CreationDate,2026-08-06T13:52:57-04:00*%
%TF.ProjectId,Flexitac 2.0,466c6578-6974-4616-9320-322e302e6b69,rev?*%
%TF.SameCoordinates,Original*%
%TF.FileFunction,Legend,Bot*%
%TF.FilePolarity,Positive*%
%FSLAX46Y46*%
G04 Gerber Fmt 4.6, Leading zero omitted, Abs format (unit mm)*
G04 Created by KiCad (PCBNEW 10.0.5) date 2026-08-06 13:52:57*
%MOMM*%
%LPD*%
G01*
G04 APERTURE LIST*
%ADD10C,0.150000*%
%ADD11C,0.224999*%
G04 APERTURE END LIST*
D10*
X124547620Y-131731009D02*
X124880953Y-131731009D01*
X124880953Y-132254819D02*
X124880953Y-131254819D01*
X124880953Y-131254819D02*
X124404763Y-131254819D01*
X123880953Y-132254819D02*
X123976191Y-132207200D01*
X123976191Y-132207200D02*
X124023810Y-132111961D01*
X124023810Y-132111961D02*
X124023810Y-131254819D01*
X123119048Y-132207200D02*
X123214286Y-132254819D01*
X123214286Y-132254819D02*
X123404762Y-132254819D01*
X123404762Y-132254819D02*
X123500000Y-132207200D01*
X123500000Y-132207200D02*
X123547619Y-132111961D01*
X123547619Y-132111961D02*
X123547619Y-131731009D01*
X123547619Y-131731009D02*
X123500000Y-131635771D01*
X123500000Y-131635771D02*
X123404762Y-131588152D01*
X123404762Y-131588152D02*
X123214286Y-131588152D01*
X123214286Y-131588152D02*
X123119048Y-131635771D01*
X123119048Y-131635771D02*
X123071429Y-131731009D01*
X123071429Y-131731009D02*
X123071429Y-131826247D01*
X123071429Y-131826247D02*
X123547619Y-131921485D01*
X122738095Y-132254819D02*
X122214286Y-131588152D01*
X122738095Y-131588152D02*
X122214286Y-132254819D01*
X121833333Y-132254819D02*
X121833333Y-131588152D01*
X121833333Y-131254819D02*
X121880952Y-131302438D01*
X121880952Y-131302438D02*
X121833333Y-131350057D01*
X121833333Y-131350057D02*
X121785714Y-131302438D01*
X121785714Y-131302438D02*
X121833333Y-131254819D01*
X121833333Y-131254819D02*
X121833333Y-131350057D01*
X121500000Y-131254819D02*
X120928572Y-131254819D01*
X121214286Y-132254819D02*
X121214286Y-131254819D01*
X120166667Y-132254819D02*
X120166667Y-131731009D01*
X120166667Y-131731009D02*
X120214286Y-131635771D01*
X120214286Y-131635771D02*
X120309524Y-131588152D01*
X120309524Y-131588152D02*
X120500000Y-131588152D01*
X120500000Y-131588152D02*
X120595238Y-131635771D01*
X120166667Y-132207200D02*
X120261905Y-132254819D01*
X120261905Y-132254819D02*
X120500000Y-132254819D01*
X120500000Y-132254819D02*
X120595238Y-132207200D01*
X120595238Y-132207200D02*
X120642857Y-132111961D01*
X120642857Y-132111961D02*
X120642857Y-132016723D01*
X120642857Y-132016723D02*
X120595238Y-131921485D01*
X120595238Y-131921485D02*
X120500000Y-131873866D01*
X120500000Y-131873866D02*
X120261905Y-131873866D01*
X120261905Y-131873866D02*
X120166667Y-131826247D01*
X119261905Y-132207200D02*
X119357143Y-132254819D01*
X119357143Y-132254819D02*
X119547619Y-132254819D01*
X119547619Y-132254819D02*
X119642857Y-132207200D01*
X119642857Y-132207200D02*
X119690476Y-132159580D01*
X119690476Y-132159580D02*
X119738095Y-132064342D01*
X119738095Y-132064342D02*
X119738095Y-131778628D01*
X119738095Y-131778628D02*
X119690476Y-131683390D01*
X119690476Y-131683390D02*
X119642857Y-131635771D01*
X119642857Y-131635771D02*
X119547619Y-131588152D01*
X119547619Y-131588152D02*
X119357143Y-131588152D01*
X119357143Y-131588152D02*
X119261905Y-131635771D01*
X118071428Y-132254819D02*
X118071428Y-131254819D01*
X118071428Y-131254819D02*
X117738095Y-131969104D01*
X117738095Y-131969104D02*
X117404762Y-131254819D01*
X117404762Y-131254819D02*
X117404762Y-132254819D01*
X116500000Y-132254819D02*
X116500000Y-131731009D01*
X116500000Y-131731009D02*
X116547619Y-131635771D01*
X116547619Y-131635771D02*
X116642857Y-131588152D01*
X116642857Y-131588152D02*
X116833333Y-131588152D01*
X116833333Y-131588152D02*
X116928571Y-131635771D01*
X116500000Y-132207200D02*
X116595238Y-132254819D01*
X116595238Y-132254819D02*
X116833333Y-132254819D01*
X116833333Y-132254819D02*
X116928571Y-132207200D01*
X116928571Y-132207200D02*
X116976190Y-132111961D01*
X116976190Y-132111961D02*
X116976190Y-132016723D01*
X116976190Y-132016723D02*
X116928571Y-131921485D01*
X116928571Y-131921485D02*
X116833333Y-131873866D01*
X116833333Y-131873866D02*
X116595238Y-131873866D01*
X116595238Y-131873866D02*
X116500000Y-131826247D01*
X116166666Y-131588152D02*
X115785714Y-131588152D01*
X116023809Y-131254819D02*
X116023809Y-132111961D01*
X116023809Y-132111961D02*
X115976190Y-132207200D01*
X115976190Y-132207200D02*
X115880952Y-132254819D01*
X115880952Y-132254819D02*
X115785714Y-132254819D01*
X115452380Y-132254819D02*
X115452380Y-131588152D01*
X115452380Y-131778628D02*
X115404761Y-131683390D01*
X115404761Y-131683390D02*
X115357142Y-131635771D01*
X115357142Y-131635771D02*
X115261904Y-131588152D01*
X115261904Y-131588152D02*
X115166666Y-131588152D01*
X114833332Y-132254819D02*
X114833332Y-131588152D01*
X114833332Y-131254819D02*
X114880951Y-131302438D01*
X114880951Y-131302438D02*
X114833332Y-131350057D01*
X114833332Y-131350057D02*
X114785713Y-131302438D01*
X114785713Y-131302438D02*
X114833332Y-131254819D01*
X114833332Y-131254819D02*
X114833332Y-131350057D01*
X114452380Y-132254819D02*
X113928571Y-131588152D01*
X114452380Y-131588152D02*
X113928571Y-132254819D01*
X112833332Y-132207200D02*
X112690475Y-132254819D01*
X112690475Y-132254819D02*
X112452380Y-132254819D01*
X112452380Y-132254819D02*
X112357142Y-132207200D01*
X112357142Y-132207200D02*
X112309523Y-132159580D01*
X112309523Y-132159580D02*
X112261904Y-132064342D01*
X112261904Y-132064342D02*
X112261904Y-131969104D01*
X112261904Y-131969104D02*
X112309523Y-131873866D01*
X112309523Y-131873866D02*
X112357142Y-131826247D01*
X112357142Y-131826247D02*
X112452380Y-131778628D01*
X112452380Y-131778628D02*
X112642856Y-131731009D01*
X112642856Y-131731009D02*
X112738094Y-131683390D01*
X112738094Y-131683390D02*
X112785713Y-131635771D01*
X112785713Y-131635771D02*
X112833332Y-131540533D01*
X112833332Y-131540533D02*
X112833332Y-131445295D01*
X112833332Y-131445295D02*
X112785713Y-131350057D01*
X112785713Y-131350057D02*
X112738094Y-131302438D01*
X112738094Y-131302438D02*
X112642856Y-131254819D01*
X112642856Y-131254819D02*
X112404761Y-131254819D01*
X112404761Y-131254819D02*
X112261904Y-131302438D01*
X111404761Y-132207200D02*
X111499999Y-132254819D01*
X111499999Y-132254819D02*
X111690475Y-132254819D01*
X111690475Y-132254819D02*
X111785713Y-132207200D01*
X111785713Y-132207200D02*
X111833332Y-132159580D01*
X111833332Y-132159580D02*
X111880951Y-132064342D01*
X111880951Y-132064342D02*
X111880951Y-131778628D01*
X111880951Y-131778628D02*
X111833332Y-131683390D01*
X111833332Y-131683390D02*
X111785713Y-131635771D01*
X111785713Y-131635771D02*
X111690475Y-131588152D01*
X111690475Y-131588152D02*
X111499999Y-131588152D01*
X111499999Y-131588152D02*
X111404761Y-131635771D01*
X110547618Y-132254819D02*
X110547618Y-131731009D01*
X110547618Y-131731009D02*
X110595237Y-131635771D01*
X110595237Y-131635771D02*
X110690475Y-131588152D01*
X110690475Y-131588152D02*
X110880951Y-131588152D01*
X110880951Y-131588152D02*
X110976189Y-131635771D01*
X110547618Y-132207200D02*
X110642856Y-132254819D01*
X110642856Y-132254819D02*
X110880951Y-132254819D01*
X110880951Y-132254819D02*
X110976189Y-132207200D01*
X110976189Y-132207200D02*
X111023808Y-132111961D01*
X111023808Y-132111961D02*
X111023808Y-132016723D01*
X111023808Y-132016723D02*
X110976189Y-131921485D01*
X110976189Y-131921485D02*
X110880951Y-131873866D01*
X110880951Y-131873866D02*
X110642856Y-131873866D01*
X110642856Y-131873866D02*
X110547618Y-131826247D01*
X110071427Y-131588152D02*
X110071427Y-132254819D01*
X110071427Y-131683390D02*
X110023808Y-131635771D01*
X110023808Y-131635771D02*
X109928570Y-131588152D01*
X109928570Y-131588152D02*
X109785713Y-131588152D01*
X109785713Y-131588152D02*
X109690475Y-131635771D01*
X109690475Y-131635771D02*
X109642856Y-131731009D01*
X109642856Y-131731009D02*
X109642856Y-132254819D01*
X109166665Y-131588152D02*
X109166665Y-132254819D01*
X109166665Y-131683390D02*
X109119046Y-131635771D01*
X109119046Y-131635771D02*
X109023808Y-131588152D01*
X109023808Y-131588152D02*
X108880951Y-131588152D01*
X108880951Y-131588152D02*
X108785713Y-131635771D01*
X108785713Y-131635771D02*
X108738094Y-131731009D01*
X108738094Y-131731009D02*
X108738094Y-132254819D01*
X107880951Y-132207200D02*
X107976189Y-132254819D01*
X107976189Y-132254819D02*
X108166665Y-132254819D01*
X108166665Y-132254819D02*
X108261903Y-132207200D01*
X108261903Y-132207200D02*
X108309522Y-132111961D01*
X108309522Y-132111961D02*
X108309522Y-131731009D01*
X108309522Y-131731009D02*
X108261903Y-131635771D01*
X108261903Y-131635771D02*
X108166665Y-131588152D01*
X108166665Y-131588152D02*
X107976189Y-131588152D01*
X107976189Y-131588152D02*
X107880951Y-131635771D01*
X107880951Y-131635771D02*
X107833332Y-131731009D01*
X107833332Y-131731009D02*
X107833332Y-131826247D01*
X107833332Y-131826247D02*
X108309522Y-131921485D01*
X107404760Y-132254819D02*
X107404760Y-131588152D01*
X107404760Y-131778628D02*
X107357141Y-131683390D01*
X107357141Y-131683390D02*
X107309522Y-131635771D01*
X107309522Y-131635771D02*
X107214284Y-131588152D01*
X107214284Y-131588152D02*
X107119046Y-131588152D01*
X105357140Y-131254819D02*
X104738093Y-131254819D01*
X104738093Y-131254819D02*
X105071426Y-131635771D01*
X105071426Y-131635771D02*
X104928569Y-131635771D01*
X104928569Y-131635771D02*
X104833331Y-131683390D01*
X104833331Y-131683390D02*
X104785712Y-131731009D01*
X104785712Y-131731009D02*
X104738093Y-131826247D01*
X104738093Y-131826247D02*
X104738093Y-132064342D01*
X104738093Y-132064342D02*
X104785712Y-132159580D01*
X104785712Y-132159580D02*
X104833331Y-132207200D01*
X104833331Y-132207200D02*
X104928569Y-132254819D01*
X104928569Y-132254819D02*
X105214283Y-132254819D01*
X105214283Y-132254819D02*
X105309521Y-132207200D01*
X105309521Y-132207200D02*
X105357140Y-132159580D01*
X104357140Y-131350057D02*
X104309521Y-131302438D01*
X104309521Y-131302438D02*
X104214283Y-131254819D01*
X104214283Y-131254819D02*
X103976188Y-131254819D01*
X103976188Y-131254819D02*
X103880950Y-131302438D01*
X103880950Y-131302438D02*
X103833331Y-131350057D01*
X103833331Y-131350057D02*
X103785712Y-131445295D01*
X103785712Y-131445295D02*
X103785712Y-131540533D01*
X103785712Y-131540533D02*
X103833331Y-131683390D01*
X103833331Y-131683390D02*
X104404759Y-132254819D01*
X104404759Y-132254819D02*
X103785712Y-132254819D01*
X103452378Y-132254819D02*
X102928569Y-131588152D01*
X103452378Y-131588152D02*
X102928569Y-132254819D01*
X102642854Y-131254819D02*
X102023807Y-131254819D01*
X102023807Y-131254819D02*
X102357140Y-131635771D01*
X102357140Y-131635771D02*
X102214283Y-131635771D01*
X102214283Y-131635771D02*
X102119045Y-131683390D01*
X102119045Y-131683390D02*
X102071426Y-131731009D01*
X102071426Y-131731009D02*
X102023807Y-131826247D01*
X102023807Y-131826247D02*
X102023807Y-132064342D01*
X102023807Y-132064342D02*
X102071426Y-132159580D01*
X102071426Y-132159580D02*
X102119045Y-132207200D01*
X102119045Y-132207200D02*
X102214283Y-132254819D01*
X102214283Y-132254819D02*
X102499997Y-132254819D01*
X102499997Y-132254819D02*
X102595235Y-132207200D01*
X102595235Y-132207200D02*
X102642854Y-132159580D01*
X101642854Y-131350057D02*
X101595235Y-131302438D01*
X101595235Y-131302438D02*
X101499997Y-131254819D01*
X101499997Y-131254819D02*
X101261902Y-131254819D01*
X101261902Y-131254819D02*
X101166664Y-131302438D01*
X101166664Y-131302438D02*
X101119045Y-131350057D01*
X101119045Y-131350057D02*
X101071426Y-131445295D01*
X101071426Y-131445295D02*
X101071426Y-131540533D01*
X101071426Y-131540533D02*
X101119045Y-131683390D01*
X101119045Y-131683390D02*
X101690473Y-132254819D01*
X101690473Y-132254819D02*
X101071426Y-132254819D01*
D11*
X120571428Y-126682228D02*
X120571428Y-125182228D01*
X120571428Y-125182228D02*
X120071428Y-126253657D01*
X120071428Y-126253657D02*
X119571428Y-125182228D01*
X119571428Y-125182228D02*
X119571428Y-126682228D01*
X118214285Y-126682228D02*
X118214285Y-125896514D01*
X118214285Y-125896514D02*
X118285713Y-125753657D01*
X118285713Y-125753657D02*
X118428570Y-125682228D01*
X118428570Y-125682228D02*
X118714285Y-125682228D01*
X118714285Y-125682228D02*
X118857142Y-125753657D01*
X118214285Y-126610800D02*
X118357142Y-126682228D01*
X118357142Y-126682228D02*
X118714285Y-126682228D01*
X118714285Y-126682228D02*
X118857142Y-126610800D01*
X118857142Y-126610800D02*
X118928570Y-126467942D01*
X118928570Y-126467942D02*
X118928570Y-126325085D01*
X118928570Y-126325085D02*
X118857142Y-126182228D01*
X118857142Y-126182228D02*
X118714285Y-126110800D01*
X118714285Y-126110800D02*
X118357142Y-126110800D01*
X118357142Y-126110800D02*
X118214285Y-126039371D01*
X117499999Y-126682228D02*
X117499999Y-125682228D01*
X117499999Y-125967942D02*
X117428570Y-125825085D01*
X117428570Y-125825085D02*
X117357142Y-125753657D01*
X117357142Y-125753657D02*
X117214284Y-125682228D01*
X117214284Y-125682228D02*
X117071427Y-125682228D01*
X116571428Y-126682228D02*
X116571428Y-125182228D01*
X116428571Y-126110800D02*
X115999999Y-126682228D01*
X115999999Y-125682228D02*
X116571428Y-126253657D01*
X113499999Y-126682228D02*
X114214285Y-126682228D01*
X114214285Y-126682228D02*
X114214285Y-125182228D01*
X112428570Y-126610800D02*
X112571427Y-126682228D01*
X112571427Y-126682228D02*
X112857142Y-126682228D01*
X112857142Y-126682228D02*
X112999999Y-126610800D01*
X112999999Y-126610800D02*
X113071427Y-126467942D01*
X113071427Y-126467942D02*
X113071427Y-125896514D01*
X113071427Y-125896514D02*
X112999999Y-125753657D01*
X112999999Y-125753657D02*
X112857142Y-125682228D01*
X112857142Y-125682228D02*
X112571427Y-125682228D01*
X112571427Y-125682228D02*
X112428570Y-125753657D01*
X112428570Y-125753657D02*
X112357142Y-125896514D01*
X112357142Y-125896514D02*
X112357142Y-126039371D01*
X112357142Y-126039371D02*
X113071427Y-126182228D01*
X111071428Y-125682228D02*
X111071428Y-126896514D01*
X111071428Y-126896514D02*
X111142856Y-127039371D01*
X111142856Y-127039371D02*
X111214285Y-127110800D01*
X111214285Y-127110800D02*
X111357142Y-127182228D01*
X111357142Y-127182228D02*
X111571428Y-127182228D01*
X111571428Y-127182228D02*
X111714285Y-127110800D01*
X111071428Y-126610800D02*
X111214285Y-126682228D01*
X111214285Y-126682228D02*
X111499999Y-126682228D01*
X111499999Y-126682228D02*
X111642856Y-126610800D01*
X111642856Y-126610800D02*
X111714285Y-126539371D01*
X111714285Y-126539371D02*
X111785713Y-126396514D01*
X111785713Y-126396514D02*
X111785713Y-125967942D01*
X111785713Y-125967942D02*
X111714285Y-125825085D01*
X111714285Y-125825085D02*
X111642856Y-125753657D01*
X111642856Y-125753657D02*
X111499999Y-125682228D01*
X111499999Y-125682228D02*
X111214285Y-125682228D01*
X111214285Y-125682228D02*
X111071428Y-125753657D01*
X109714285Y-125682228D02*
X109714285Y-126896514D01*
X109714285Y-126896514D02*
X109785713Y-127039371D01*
X109785713Y-127039371D02*
X109857142Y-127110800D01*
X109857142Y-127110800D02*
X109999999Y-127182228D01*
X109999999Y-127182228D02*
X110214285Y-127182228D01*
X110214285Y-127182228D02*
X110357142Y-127110800D01*
X109714285Y-126610800D02*
X109857142Y-126682228D01*
X109857142Y-126682228D02*
X110142856Y-126682228D01*
X110142856Y-126682228D02*
X110285713Y-126610800D01*
X110285713Y-126610800D02*
X110357142Y-126539371D01*
X110357142Y-126539371D02*
X110428570Y-126396514D01*
X110428570Y-126396514D02*
X110428570Y-125967942D01*
X110428570Y-125967942D02*
X110357142Y-125825085D01*
X110357142Y-125825085D02*
X110285713Y-125753657D01*
X110285713Y-125753657D02*
X110142856Y-125682228D01*
X110142856Y-125682228D02*
X109857142Y-125682228D01*
X109857142Y-125682228D02*
X109714285Y-125753657D01*
X108999999Y-126682228D02*
X108999999Y-125682228D01*
X108999999Y-125182228D02*
X109071427Y-125253657D01*
X109071427Y-125253657D02*
X108999999Y-125325085D01*
X108999999Y-125325085D02*
X108928570Y-125253657D01*
X108928570Y-125253657D02*
X108999999Y-125182228D01*
X108999999Y-125182228D02*
X108999999Y-125325085D01*
X107714284Y-126610800D02*
X107857141Y-126682228D01*
X107857141Y-126682228D02*
X108142856Y-126682228D01*
X108142856Y-126682228D02*
X108285713Y-126610800D01*
X108285713Y-126610800D02*
X108357141Y-126467942D01*
X108357141Y-126467942D02*
X108357141Y-125896514D01*
X108357141Y-125896514D02*
X108285713Y-125753657D01*
X108285713Y-125753657D02*
X108142856Y-125682228D01*
X108142856Y-125682228D02*
X107857141Y-125682228D01*
X107857141Y-125682228D02*
X107714284Y-125753657D01*
X107714284Y-125753657D02*
X107642856Y-125896514D01*
X107642856Y-125896514D02*
X107642856Y-126039371D01*
X107642856Y-126039371D02*
X108357141Y-126182228D01*
X106999999Y-126682228D02*
X106999999Y-125682228D01*
X106999999Y-125967942D02*
X106928570Y-125825085D01*
X106928570Y-125825085D02*
X106857142Y-125753657D01*
X106857142Y-125753657D02*
X106714284Y-125682228D01*
X106714284Y-125682228D02*
X106571427Y-125682228D01*
X105857142Y-126682228D02*
X105999999Y-126610800D01*
X105999999Y-126610800D02*
X106071428Y-126539371D01*
X106071428Y-126539371D02*
X106142856Y-126396514D01*
X106142856Y-126396514D02*
X106142856Y-125967942D01*
X106142856Y-125967942D02*
X106071428Y-125825085D01*
X106071428Y-125825085D02*
X105999999Y-125753657D01*
X105999999Y-125753657D02*
X105857142Y-125682228D01*
X105857142Y-125682228D02*
X105642856Y-125682228D01*
X105642856Y-125682228D02*
X105499999Y-125753657D01*
X105499999Y-125753657D02*
X105428571Y-125825085D01*
X105428571Y-125825085D02*
X105357142Y-125967942D01*
X105357142Y-125967942D02*
X105357142Y-126396514D01*
X105357142Y-126396514D02*
X105428571Y-126539371D01*
X105428571Y-126539371D02*
X105499999Y-126610800D01*
X105499999Y-126610800D02*
X105642856Y-126682228D01*
X105642856Y-126682228D02*
X105857142Y-126682228D01*
X120999999Y-129282228D02*
X121714285Y-129282228D01*
X121714285Y-129282228D02*
X121714285Y-127782228D01*
X120499999Y-129282228D02*
X120499999Y-127782228D01*
X119785713Y-129282228D02*
X119785713Y-127782228D01*
X119785713Y-127782228D02*
X119428570Y-127782228D01*
X119428570Y-127782228D02*
X119214284Y-127853657D01*
X119214284Y-127853657D02*
X119071427Y-127996514D01*
X119071427Y-127996514D02*
X118999998Y-128139371D01*
X118999998Y-128139371D02*
X118928570Y-128425085D01*
X118928570Y-128425085D02*
X118928570Y-128639371D01*
X118928570Y-128639371D02*
X118999998Y-128925085D01*
X118999998Y-128925085D02*
X119071427Y-129067942D01*
X119071427Y-129067942D02*
X119214284Y-129210800D01*
X119214284Y-129210800D02*
X119428570Y-129282228D01*
X119428570Y-129282228D02*
X119785713Y-129282228D01*
X118357141Y-128853657D02*
X117642856Y-128853657D01*
X118499998Y-129282228D02*
X117999998Y-127782228D01*
X117999998Y-127782228D02*
X117499998Y-129282228D01*
X116142856Y-129282228D02*
X116642856Y-128567942D01*
X116999999Y-129282228D02*
X116999999Y-127782228D01*
X116999999Y-127782228D02*
X116428570Y-127782228D01*
X116428570Y-127782228D02*
X116285713Y-127853657D01*
X116285713Y-127853657D02*
X116214284Y-127925085D01*
X116214284Y-127925085D02*
X116142856Y-128067942D01*
X116142856Y-128067942D02*
X116142856Y-128282228D01*
X116142856Y-128282228D02*
X116214284Y-128425085D01*
X116214284Y-128425085D02*
X116285713Y-128496514D01*
X116285713Y-128496514D02*
X116428570Y-128567942D01*
X116428570Y-128567942D02*
X116999999Y-128567942D01*
X113642856Y-129282228D02*
X114357142Y-129282228D01*
X114357142Y-129282228D02*
X114357142Y-127782228D01*
X112499999Y-129282228D02*
X112499999Y-128496514D01*
X112499999Y-128496514D02*
X112571427Y-128353657D01*
X112571427Y-128353657D02*
X112714284Y-128282228D01*
X112714284Y-128282228D02*
X112999999Y-128282228D01*
X112999999Y-128282228D02*
X113142856Y-128353657D01*
X112499999Y-129210800D02*
X112642856Y-129282228D01*
X112642856Y-129282228D02*
X112999999Y-129282228D01*
X112999999Y-129282228D02*
X113142856Y-129210800D01*
X113142856Y-129210800D02*
X113214284Y-129067942D01*
X113214284Y-129067942D02*
X113214284Y-128925085D01*
X113214284Y-128925085D02*
X113142856Y-128782228D01*
X113142856Y-128782228D02*
X112999999Y-128710800D01*
X112999999Y-128710800D02*
X112642856Y-128710800D01*
X112642856Y-128710800D02*
X112499999Y-128639371D01*
X111785713Y-129282228D02*
X111785713Y-127782228D01*
X111785713Y-128353657D02*
X111642856Y-128282228D01*
X111642856Y-128282228D02*
X111357141Y-128282228D01*
X111357141Y-128282228D02*
X111214284Y-128353657D01*
X111214284Y-128353657D02*
X111142856Y-128425085D01*
X111142856Y-128425085D02*
X111071427Y-128567942D01*
X111071427Y-128567942D02*
X111071427Y-128996514D01*
X111071427Y-128996514D02*
X111142856Y-129139371D01*
X111142856Y-129139371D02*
X111214284Y-129210800D01*
X111214284Y-129210800D02*
X111357141Y-129282228D01*
X111357141Y-129282228D02*
X111642856Y-129282228D01*
X111642856Y-129282228D02*
X111785713Y-129210800D01*
X108357141Y-128567942D02*
X108428570Y-128496514D01*
X108428570Y-128496514D02*
X108571427Y-128425085D01*
X108571427Y-128425085D02*
X108714284Y-128425085D01*
X108714284Y-128425085D02*
X108857141Y-128496514D01*
X108857141Y-128496514D02*
X108928570Y-128567942D01*
X108928570Y-128567942D02*
X108999998Y-128710800D01*
X108999998Y-128710800D02*
X108999998Y-128853657D01*
X108999998Y-128853657D02*
X108928570Y-128996514D01*
X108928570Y-128996514D02*
X108857141Y-129067942D01*
X108857141Y-129067942D02*
X108714284Y-129139371D01*
X108714284Y-129139371D02*
X108571427Y-129139371D01*
X108571427Y-129139371D02*
X108428570Y-129067942D01*
X108428570Y-129067942D02*
X108357141Y-128996514D01*
X108357141Y-128425085D02*
X108357141Y-128996514D01*
X108357141Y-128996514D02*
X108285713Y-129067942D01*
X108285713Y-129067942D02*
X108214284Y-129067942D01*
X108214284Y-129067942D02*
X108071427Y-128996514D01*
X108071427Y-128996514D02*
X107999998Y-128853657D01*
X107999998Y-128853657D02*
X107999998Y-128496514D01*
X107999998Y-128496514D02*
X108142856Y-128282228D01*
X108142856Y-128282228D02*
X108357141Y-128139371D01*
X108357141Y-128139371D02*
X108642856Y-128067942D01*
X108642856Y-128067942D02*
X108928570Y-128139371D01*
X108928570Y-128139371D02*
X109142856Y-128282228D01*
X109142856Y-128282228D02*
X109285713Y-128496514D01*
X109285713Y-128496514D02*
X109357141Y-128782228D01*
X109357141Y-128782228D02*
X109285713Y-129067942D01*
X109285713Y-129067942D02*
X109142856Y-129282228D01*
X109142856Y-129282228D02*
X108928570Y-129425085D01*
X108928570Y-129425085D02*
X108642856Y-129496514D01*
X108642856Y-129496514D02*
X108357141Y-129425085D01*
X108357141Y-129425085D02*
X108142856Y-129282228D01*
X105428570Y-127853657D02*
X105571428Y-127782228D01*
X105571428Y-127782228D02*
X105785713Y-127782228D01*
X105785713Y-127782228D02*
X105999999Y-127853657D01*
X105999999Y-127853657D02*
X106142856Y-127996514D01*
X106142856Y-127996514D02*
X106214285Y-128139371D01*
X106214285Y-128139371D02*
X106285713Y-128425085D01*
X106285713Y-128425085D02*
X106285713Y-128639371D01*
X106285713Y-128639371D02*
X106214285Y-128925085D01*
X106214285Y-128925085D02*
X106142856Y-129067942D01*
X106142856Y-129067942D02*
X105999999Y-129210800D01*
X105999999Y-129210800D02*
X105785713Y-129282228D01*
X105785713Y-129282228D02*
X105642856Y-129282228D01*
X105642856Y-129282228D02*
X105428570Y-129210800D01*
X105428570Y-129210800D02*
X105357142Y-129139371D01*
X105357142Y-129139371D02*
X105357142Y-128639371D01*
X105357142Y-128639371D02*
X105642856Y-128639371D01*
X104928570Y-127782228D02*
X104071428Y-127782228D01*
X104499999Y-129282228D02*
X104499999Y-127782228D01*
M02*
