%TF.GenerationSoftware,KiCad,Pcbnew,10.0.5*%
%TF.CreationDate,2026-08-06T17:51:34-04:00*%
%TF.ProjectId,FlexiTac_Fork_Adapter,466c6578-6954-4616-935f-466f726b5f41,rev?*%
%TF.SameCoordinates,Original*%
%TF.FileFunction,Drillmap*%
%TF.FilePolarity,Positive*%
%FSLAX45Y45*%
G04 Gerber Fmt 4.5, Leading zero omitted, Abs format (unit mm)*
G04 Created by KiCad (PCBNEW 10.0.5) date 2026-08-06 17:51:34*
%MOMM*%
%LPD*%
G01*
G04 APERTURE LIST*
%ADD10C,0.100000*%
%ADD11C,0.200000*%
%ADD12C,0.220000*%
G04 APERTURE END LIST*
D10*
X10040500Y-10345500D02*
X13260500Y-10345500D01*
X10040500Y-13594500D02*
X10040500Y-10345500D01*
X13260500Y-10345500D02*
X13260500Y-13594500D01*
X13260500Y-13594500D02*
X10040500Y-13594500D01*
D11*
D12*
X10330500Y-13234500D02*
X10550500Y-13454500D01*
X10550500Y-13234500D02*
X10330500Y-13454500D01*
X12750500Y-13234500D02*
X12970500Y-13454500D01*
X12970500Y-13234500D02*
X12750500Y-13454500D01*
D11*
X10296277Y-13910984D02*
X10296277Y-13710984D01*
X10296277Y-13710984D02*
X10343896Y-13710984D01*
X10343896Y-13710984D02*
X10372467Y-13720508D01*
X10372467Y-13720508D02*
X10391515Y-13739555D01*
X10391515Y-13739555D02*
X10401039Y-13758603D01*
X10401039Y-13758603D02*
X10410563Y-13796698D01*
X10410563Y-13796698D02*
X10410563Y-13825269D01*
X10410563Y-13825269D02*
X10401039Y-13863365D01*
X10401039Y-13863365D02*
X10391515Y-13882412D01*
X10391515Y-13882412D02*
X10372467Y-13901460D01*
X10372467Y-13901460D02*
X10343896Y-13910984D01*
X10343896Y-13910984D02*
X10296277Y-13910984D01*
X10496277Y-13910984D02*
X10496277Y-13777650D01*
X10496277Y-13815746D02*
X10505801Y-13796698D01*
X10505801Y-13796698D02*
X10515324Y-13787174D01*
X10515324Y-13787174D02*
X10534372Y-13777650D01*
X10534372Y-13777650D02*
X10553420Y-13777650D01*
X10620086Y-13910984D02*
X10620086Y-13777650D01*
X10620086Y-13710984D02*
X10610563Y-13720508D01*
X10610563Y-13720508D02*
X10620086Y-13730031D01*
X10620086Y-13730031D02*
X10629610Y-13720508D01*
X10629610Y-13720508D02*
X10620086Y-13710984D01*
X10620086Y-13710984D02*
X10620086Y-13730031D01*
X10743896Y-13910984D02*
X10724848Y-13901460D01*
X10724848Y-13901460D02*
X10715324Y-13882412D01*
X10715324Y-13882412D02*
X10715324Y-13710984D01*
X10848658Y-13910984D02*
X10829610Y-13901460D01*
X10829610Y-13901460D02*
X10820086Y-13882412D01*
X10820086Y-13882412D02*
X10820086Y-13710984D01*
X11077229Y-13910984D02*
X11077229Y-13710984D01*
X11077229Y-13710984D02*
X11143896Y-13853841D01*
X11143896Y-13853841D02*
X11210562Y-13710984D01*
X11210562Y-13710984D02*
X11210562Y-13910984D01*
X11391515Y-13910984D02*
X11391515Y-13806222D01*
X11391515Y-13806222D02*
X11381991Y-13787174D01*
X11381991Y-13787174D02*
X11362943Y-13777650D01*
X11362943Y-13777650D02*
X11324848Y-13777650D01*
X11324848Y-13777650D02*
X11305801Y-13787174D01*
X11391515Y-13901460D02*
X11372467Y-13910984D01*
X11372467Y-13910984D02*
X11324848Y-13910984D01*
X11324848Y-13910984D02*
X11305801Y-13901460D01*
X11305801Y-13901460D02*
X11296277Y-13882412D01*
X11296277Y-13882412D02*
X11296277Y-13863365D01*
X11296277Y-13863365D02*
X11305801Y-13844317D01*
X11305801Y-13844317D02*
X11324848Y-13834793D01*
X11324848Y-13834793D02*
X11372467Y-13834793D01*
X11372467Y-13834793D02*
X11391515Y-13825269D01*
X11486753Y-13777650D02*
X11486753Y-13977650D01*
X11486753Y-13787174D02*
X11505801Y-13777650D01*
X11505801Y-13777650D02*
X11543896Y-13777650D01*
X11543896Y-13777650D02*
X11562943Y-13787174D01*
X11562943Y-13787174D02*
X11572467Y-13796698D01*
X11572467Y-13796698D02*
X11581991Y-13815746D01*
X11581991Y-13815746D02*
X11581991Y-13872888D01*
X11581991Y-13872888D02*
X11572467Y-13891936D01*
X11572467Y-13891936D02*
X11562943Y-13901460D01*
X11562943Y-13901460D02*
X11543896Y-13910984D01*
X11543896Y-13910984D02*
X11505801Y-13910984D01*
X11505801Y-13910984D02*
X11486753Y-13901460D01*
X11667705Y-13891936D02*
X11677229Y-13901460D01*
X11677229Y-13901460D02*
X11667705Y-13910984D01*
X11667705Y-13910984D02*
X11658182Y-13901460D01*
X11658182Y-13901460D02*
X11667705Y-13891936D01*
X11667705Y-13891936D02*
X11667705Y-13910984D01*
X11667705Y-13787174D02*
X11677229Y-13796698D01*
X11677229Y-13796698D02*
X11667705Y-13806222D01*
X11667705Y-13806222D02*
X11658182Y-13796698D01*
X11658182Y-13796698D02*
X11667705Y-13787174D01*
X11667705Y-13787174D02*
X11667705Y-13806222D01*
X9835500Y-14139500D02*
X10035500Y-14339500D01*
X10035500Y-14139500D02*
X9835500Y-14339500D01*
X10286753Y-14150031D02*
X10296277Y-14140508D01*
X10296277Y-14140508D02*
X10315324Y-14130984D01*
X10315324Y-14130984D02*
X10362944Y-14130984D01*
X10362944Y-14130984D02*
X10381991Y-14140508D01*
X10381991Y-14140508D02*
X10391515Y-14150031D01*
X10391515Y-14150031D02*
X10401039Y-14169079D01*
X10401039Y-14169079D02*
X10401039Y-14188127D01*
X10401039Y-14188127D02*
X10391515Y-14216698D01*
X10391515Y-14216698D02*
X10277229Y-14330984D01*
X10277229Y-14330984D02*
X10401039Y-14330984D01*
X10486753Y-14311936D02*
X10496277Y-14321460D01*
X10496277Y-14321460D02*
X10486753Y-14330984D01*
X10486753Y-14330984D02*
X10477229Y-14321460D01*
X10477229Y-14321460D02*
X10486753Y-14311936D01*
X10486753Y-14311936D02*
X10486753Y-14330984D01*
X10572467Y-14150031D02*
X10581991Y-14140508D01*
X10581991Y-14140508D02*
X10601039Y-14130984D01*
X10601039Y-14130984D02*
X10648658Y-14130984D01*
X10648658Y-14130984D02*
X10667705Y-14140508D01*
X10667705Y-14140508D02*
X10677229Y-14150031D01*
X10677229Y-14150031D02*
X10686753Y-14169079D01*
X10686753Y-14169079D02*
X10686753Y-14188127D01*
X10686753Y-14188127D02*
X10677229Y-14216698D01*
X10677229Y-14216698D02*
X10562944Y-14330984D01*
X10562944Y-14330984D02*
X10686753Y-14330984D01*
X10810563Y-14130984D02*
X10829610Y-14130984D01*
X10829610Y-14130984D02*
X10848658Y-14140508D01*
X10848658Y-14140508D02*
X10858182Y-14150031D01*
X10858182Y-14150031D02*
X10867705Y-14169079D01*
X10867705Y-14169079D02*
X10877229Y-14207174D01*
X10877229Y-14207174D02*
X10877229Y-14254793D01*
X10877229Y-14254793D02*
X10867705Y-14292888D01*
X10867705Y-14292888D02*
X10858182Y-14311936D01*
X10858182Y-14311936D02*
X10848658Y-14321460D01*
X10848658Y-14321460D02*
X10829610Y-14330984D01*
X10829610Y-14330984D02*
X10810563Y-14330984D01*
X10810563Y-14330984D02*
X10791515Y-14321460D01*
X10791515Y-14321460D02*
X10781991Y-14311936D01*
X10781991Y-14311936D02*
X10772467Y-14292888D01*
X10772467Y-14292888D02*
X10762944Y-14254793D01*
X10762944Y-14254793D02*
X10762944Y-14207174D01*
X10762944Y-14207174D02*
X10772467Y-14169079D01*
X10772467Y-14169079D02*
X10781991Y-14150031D01*
X10781991Y-14150031D02*
X10791515Y-14140508D01*
X10791515Y-14140508D02*
X10810563Y-14130984D01*
X11001039Y-14130984D02*
X11020086Y-14130984D01*
X11020086Y-14130984D02*
X11039134Y-14140508D01*
X11039134Y-14140508D02*
X11048658Y-14150031D01*
X11048658Y-14150031D02*
X11058182Y-14169079D01*
X11058182Y-14169079D02*
X11067705Y-14207174D01*
X11067705Y-14207174D02*
X11067705Y-14254793D01*
X11067705Y-14254793D02*
X11058182Y-14292888D01*
X11058182Y-14292888D02*
X11048658Y-14311936D01*
X11048658Y-14311936D02*
X11039134Y-14321460D01*
X11039134Y-14321460D02*
X11020086Y-14330984D01*
X11020086Y-14330984D02*
X11001039Y-14330984D01*
X11001039Y-14330984D02*
X10981991Y-14321460D01*
X10981991Y-14321460D02*
X10972467Y-14311936D01*
X10972467Y-14311936D02*
X10962944Y-14292888D01*
X10962944Y-14292888D02*
X10953420Y-14254793D01*
X10953420Y-14254793D02*
X10953420Y-14207174D01*
X10953420Y-14207174D02*
X10962944Y-14169079D01*
X10962944Y-14169079D02*
X10972467Y-14150031D01*
X10972467Y-14150031D02*
X10981991Y-14140508D01*
X10981991Y-14140508D02*
X11001039Y-14130984D01*
X11153420Y-14330984D02*
X11153420Y-14197650D01*
X11153420Y-14216698D02*
X11162944Y-14207174D01*
X11162944Y-14207174D02*
X11181991Y-14197650D01*
X11181991Y-14197650D02*
X11210563Y-14197650D01*
X11210563Y-14197650D02*
X11229610Y-14207174D01*
X11229610Y-14207174D02*
X11239134Y-14226222D01*
X11239134Y-14226222D02*
X11239134Y-14330984D01*
X11239134Y-14226222D02*
X11248658Y-14207174D01*
X11248658Y-14207174D02*
X11267705Y-14197650D01*
X11267705Y-14197650D02*
X11296277Y-14197650D01*
X11296277Y-14197650D02*
X11315324Y-14207174D01*
X11315324Y-14207174D02*
X11324848Y-14226222D01*
X11324848Y-14226222D02*
X11324848Y-14330984D01*
X11420086Y-14330984D02*
X11420086Y-14197650D01*
X11420086Y-14216698D02*
X11429610Y-14207174D01*
X11429610Y-14207174D02*
X11448658Y-14197650D01*
X11448658Y-14197650D02*
X11477229Y-14197650D01*
X11477229Y-14197650D02*
X11496277Y-14207174D01*
X11496277Y-14207174D02*
X11505801Y-14226222D01*
X11505801Y-14226222D02*
X11505801Y-14330984D01*
X11505801Y-14226222D02*
X11515324Y-14207174D01*
X11515324Y-14207174D02*
X11534372Y-14197650D01*
X11534372Y-14197650D02*
X11562943Y-14197650D01*
X11562943Y-14197650D02*
X11581991Y-14207174D01*
X11581991Y-14207174D02*
X11591515Y-14226222D01*
X11591515Y-14226222D02*
X11591515Y-14330984D01*
X11981991Y-14121460D02*
X11810563Y-14378603D01*
X12239134Y-14130984D02*
X12258182Y-14130984D01*
X12258182Y-14130984D02*
X12277229Y-14140508D01*
X12277229Y-14140508D02*
X12286753Y-14150031D01*
X12286753Y-14150031D02*
X12296277Y-14169079D01*
X12296277Y-14169079D02*
X12305801Y-14207174D01*
X12305801Y-14207174D02*
X12305801Y-14254793D01*
X12305801Y-14254793D02*
X12296277Y-14292888D01*
X12296277Y-14292888D02*
X12286753Y-14311936D01*
X12286753Y-14311936D02*
X12277229Y-14321460D01*
X12277229Y-14321460D02*
X12258182Y-14330984D01*
X12258182Y-14330984D02*
X12239134Y-14330984D01*
X12239134Y-14330984D02*
X12220086Y-14321460D01*
X12220086Y-14321460D02*
X12210563Y-14311936D01*
X12210563Y-14311936D02*
X12201039Y-14292888D01*
X12201039Y-14292888D02*
X12191515Y-14254793D01*
X12191515Y-14254793D02*
X12191515Y-14207174D01*
X12191515Y-14207174D02*
X12201039Y-14169079D01*
X12201039Y-14169079D02*
X12210563Y-14150031D01*
X12210563Y-14150031D02*
X12220086Y-14140508D01*
X12220086Y-14140508D02*
X12239134Y-14130984D01*
X12391515Y-14311936D02*
X12401039Y-14321460D01*
X12401039Y-14321460D02*
X12391515Y-14330984D01*
X12391515Y-14330984D02*
X12381991Y-14321460D01*
X12381991Y-14321460D02*
X12391515Y-14311936D01*
X12391515Y-14311936D02*
X12391515Y-14330984D01*
X12524848Y-14130984D02*
X12543896Y-14130984D01*
X12543896Y-14130984D02*
X12562944Y-14140508D01*
X12562944Y-14140508D02*
X12572467Y-14150031D01*
X12572467Y-14150031D02*
X12581991Y-14169079D01*
X12581991Y-14169079D02*
X12591515Y-14207174D01*
X12591515Y-14207174D02*
X12591515Y-14254793D01*
X12591515Y-14254793D02*
X12581991Y-14292888D01*
X12581991Y-14292888D02*
X12572467Y-14311936D01*
X12572467Y-14311936D02*
X12562944Y-14321460D01*
X12562944Y-14321460D02*
X12543896Y-14330984D01*
X12543896Y-14330984D02*
X12524848Y-14330984D01*
X12524848Y-14330984D02*
X12505801Y-14321460D01*
X12505801Y-14321460D02*
X12496277Y-14311936D01*
X12496277Y-14311936D02*
X12486753Y-14292888D01*
X12486753Y-14292888D02*
X12477229Y-14254793D01*
X12477229Y-14254793D02*
X12477229Y-14207174D01*
X12477229Y-14207174D02*
X12486753Y-14169079D01*
X12486753Y-14169079D02*
X12496277Y-14150031D01*
X12496277Y-14150031D02*
X12505801Y-14140508D01*
X12505801Y-14140508D02*
X12524848Y-14130984D01*
X12705801Y-14216698D02*
X12686753Y-14207174D01*
X12686753Y-14207174D02*
X12677229Y-14197650D01*
X12677229Y-14197650D02*
X12667706Y-14178603D01*
X12667706Y-14178603D02*
X12667706Y-14169079D01*
X12667706Y-14169079D02*
X12677229Y-14150031D01*
X12677229Y-14150031D02*
X12686753Y-14140508D01*
X12686753Y-14140508D02*
X12705801Y-14130984D01*
X12705801Y-14130984D02*
X12743896Y-14130984D01*
X12743896Y-14130984D02*
X12762944Y-14140508D01*
X12762944Y-14140508D02*
X12772467Y-14150031D01*
X12772467Y-14150031D02*
X12781991Y-14169079D01*
X12781991Y-14169079D02*
X12781991Y-14178603D01*
X12781991Y-14178603D02*
X12772467Y-14197650D01*
X12772467Y-14197650D02*
X12762944Y-14207174D01*
X12762944Y-14207174D02*
X12743896Y-14216698D01*
X12743896Y-14216698D02*
X12705801Y-14216698D01*
X12705801Y-14216698D02*
X12686753Y-14226222D01*
X12686753Y-14226222D02*
X12677229Y-14235746D01*
X12677229Y-14235746D02*
X12667706Y-14254793D01*
X12667706Y-14254793D02*
X12667706Y-14292888D01*
X12667706Y-14292888D02*
X12677229Y-14311936D01*
X12677229Y-14311936D02*
X12686753Y-14321460D01*
X12686753Y-14321460D02*
X12705801Y-14330984D01*
X12705801Y-14330984D02*
X12743896Y-14330984D01*
X12743896Y-14330984D02*
X12762944Y-14321460D01*
X12762944Y-14321460D02*
X12772467Y-14311936D01*
X12772467Y-14311936D02*
X12781991Y-14292888D01*
X12781991Y-14292888D02*
X12781991Y-14254793D01*
X12781991Y-14254793D02*
X12772467Y-14235746D01*
X12772467Y-14235746D02*
X12762944Y-14226222D01*
X12762944Y-14226222D02*
X12743896Y-14216698D01*
X12953420Y-14130984D02*
X12915325Y-14130984D01*
X12915325Y-14130984D02*
X12896277Y-14140508D01*
X12896277Y-14140508D02*
X12886753Y-14150031D01*
X12886753Y-14150031D02*
X12867706Y-14178603D01*
X12867706Y-14178603D02*
X12858182Y-14216698D01*
X12858182Y-14216698D02*
X12858182Y-14292888D01*
X12858182Y-14292888D02*
X12867706Y-14311936D01*
X12867706Y-14311936D02*
X12877229Y-14321460D01*
X12877229Y-14321460D02*
X12896277Y-14330984D01*
X12896277Y-14330984D02*
X12934372Y-14330984D01*
X12934372Y-14330984D02*
X12953420Y-14321460D01*
X12953420Y-14321460D02*
X12962944Y-14311936D01*
X12962944Y-14311936D02*
X12972467Y-14292888D01*
X12972467Y-14292888D02*
X12972467Y-14245269D01*
X12972467Y-14245269D02*
X12962944Y-14226222D01*
X12962944Y-14226222D02*
X12953420Y-14216698D01*
X12953420Y-14216698D02*
X12934372Y-14207174D01*
X12934372Y-14207174D02*
X12896277Y-14207174D01*
X12896277Y-14207174D02*
X12877229Y-14216698D01*
X12877229Y-14216698D02*
X12867706Y-14226222D01*
X12867706Y-14226222D02*
X12858182Y-14245269D01*
X13143896Y-14130984D02*
X13105801Y-14130984D01*
X13105801Y-14130984D02*
X13086753Y-14140508D01*
X13086753Y-14140508D02*
X13077229Y-14150031D01*
X13077229Y-14150031D02*
X13058182Y-14178603D01*
X13058182Y-14178603D02*
X13048658Y-14216698D01*
X13048658Y-14216698D02*
X13048658Y-14292888D01*
X13048658Y-14292888D02*
X13058182Y-14311936D01*
X13058182Y-14311936D02*
X13067706Y-14321460D01*
X13067706Y-14321460D02*
X13086753Y-14330984D01*
X13086753Y-14330984D02*
X13124848Y-14330984D01*
X13124848Y-14330984D02*
X13143896Y-14321460D01*
X13143896Y-14321460D02*
X13153420Y-14311936D01*
X13153420Y-14311936D02*
X13162944Y-14292888D01*
X13162944Y-14292888D02*
X13162944Y-14245269D01*
X13162944Y-14245269D02*
X13153420Y-14226222D01*
X13153420Y-14226222D02*
X13143896Y-14216698D01*
X13143896Y-14216698D02*
X13124848Y-14207174D01*
X13124848Y-14207174D02*
X13086753Y-14207174D01*
X13086753Y-14207174D02*
X13067706Y-14216698D01*
X13067706Y-14216698D02*
X13058182Y-14226222D01*
X13058182Y-14226222D02*
X13048658Y-14245269D01*
X13239134Y-14130984D02*
X13239134Y-14169079D01*
X13315325Y-14130984D02*
X13315325Y-14169079D01*
X13610563Y-14407174D02*
X13601039Y-14397650D01*
X13601039Y-14397650D02*
X13581991Y-14369079D01*
X13581991Y-14369079D02*
X13572468Y-14350031D01*
X13572468Y-14350031D02*
X13562944Y-14321460D01*
X13562944Y-14321460D02*
X13553420Y-14273841D01*
X13553420Y-14273841D02*
X13553420Y-14235746D01*
X13553420Y-14235746D02*
X13562944Y-14188127D01*
X13562944Y-14188127D02*
X13572468Y-14159555D01*
X13572468Y-14159555D02*
X13581991Y-14140508D01*
X13581991Y-14140508D02*
X13601039Y-14111936D01*
X13601039Y-14111936D02*
X13610563Y-14102412D01*
X13677229Y-14150031D02*
X13686753Y-14140508D01*
X13686753Y-14140508D02*
X13705801Y-14130984D01*
X13705801Y-14130984D02*
X13753420Y-14130984D01*
X13753420Y-14130984D02*
X13772468Y-14140508D01*
X13772468Y-14140508D02*
X13781991Y-14150031D01*
X13781991Y-14150031D02*
X13791515Y-14169079D01*
X13791515Y-14169079D02*
X13791515Y-14188127D01*
X13791515Y-14188127D02*
X13781991Y-14216698D01*
X13781991Y-14216698D02*
X13667706Y-14330984D01*
X13667706Y-14330984D02*
X13791515Y-14330984D01*
X14029610Y-14330984D02*
X14029610Y-14130984D01*
X14115325Y-14330984D02*
X14115325Y-14226222D01*
X14115325Y-14226222D02*
X14105801Y-14207174D01*
X14105801Y-14207174D02*
X14086753Y-14197650D01*
X14086753Y-14197650D02*
X14058182Y-14197650D01*
X14058182Y-14197650D02*
X14039134Y-14207174D01*
X14039134Y-14207174D02*
X14029610Y-14216698D01*
X14239134Y-14330984D02*
X14220087Y-14321460D01*
X14220087Y-14321460D02*
X14210563Y-14311936D01*
X14210563Y-14311936D02*
X14201039Y-14292888D01*
X14201039Y-14292888D02*
X14201039Y-14235746D01*
X14201039Y-14235746D02*
X14210563Y-14216698D01*
X14210563Y-14216698D02*
X14220087Y-14207174D01*
X14220087Y-14207174D02*
X14239134Y-14197650D01*
X14239134Y-14197650D02*
X14267706Y-14197650D01*
X14267706Y-14197650D02*
X14286753Y-14207174D01*
X14286753Y-14207174D02*
X14296277Y-14216698D01*
X14296277Y-14216698D02*
X14305801Y-14235746D01*
X14305801Y-14235746D02*
X14305801Y-14292888D01*
X14305801Y-14292888D02*
X14296277Y-14311936D01*
X14296277Y-14311936D02*
X14286753Y-14321460D01*
X14286753Y-14321460D02*
X14267706Y-14330984D01*
X14267706Y-14330984D02*
X14239134Y-14330984D01*
X14420087Y-14330984D02*
X14401039Y-14321460D01*
X14401039Y-14321460D02*
X14391515Y-14302412D01*
X14391515Y-14302412D02*
X14391515Y-14130984D01*
X14572468Y-14321460D02*
X14553420Y-14330984D01*
X14553420Y-14330984D02*
X14515325Y-14330984D01*
X14515325Y-14330984D02*
X14496277Y-14321460D01*
X14496277Y-14321460D02*
X14486753Y-14302412D01*
X14486753Y-14302412D02*
X14486753Y-14226222D01*
X14486753Y-14226222D02*
X14496277Y-14207174D01*
X14496277Y-14207174D02*
X14515325Y-14197650D01*
X14515325Y-14197650D02*
X14553420Y-14197650D01*
X14553420Y-14197650D02*
X14572468Y-14207174D01*
X14572468Y-14207174D02*
X14581991Y-14226222D01*
X14581991Y-14226222D02*
X14581991Y-14245269D01*
X14581991Y-14245269D02*
X14486753Y-14264317D01*
X14658182Y-14321460D02*
X14677230Y-14330984D01*
X14677230Y-14330984D02*
X14715325Y-14330984D01*
X14715325Y-14330984D02*
X14734372Y-14321460D01*
X14734372Y-14321460D02*
X14743896Y-14302412D01*
X14743896Y-14302412D02*
X14743896Y-14292888D01*
X14743896Y-14292888D02*
X14734372Y-14273841D01*
X14734372Y-14273841D02*
X14715325Y-14264317D01*
X14715325Y-14264317D02*
X14686753Y-14264317D01*
X14686753Y-14264317D02*
X14667706Y-14254793D01*
X14667706Y-14254793D02*
X14658182Y-14235746D01*
X14658182Y-14235746D02*
X14658182Y-14226222D01*
X14658182Y-14226222D02*
X14667706Y-14207174D01*
X14667706Y-14207174D02*
X14686753Y-14197650D01*
X14686753Y-14197650D02*
X14715325Y-14197650D01*
X14715325Y-14197650D02*
X14734372Y-14207174D01*
X14810563Y-14407174D02*
X14820087Y-14397650D01*
X14820087Y-14397650D02*
X14839134Y-14369079D01*
X14839134Y-14369079D02*
X14848658Y-14350031D01*
X14848658Y-14350031D02*
X14858182Y-14321460D01*
X14858182Y-14321460D02*
X14867706Y-14273841D01*
X14867706Y-14273841D02*
X14867706Y-14235746D01*
X14867706Y-14235746D02*
X14858182Y-14188127D01*
X14858182Y-14188127D02*
X14848658Y-14159555D01*
X14848658Y-14159555D02*
X14839134Y-14140508D01*
X14839134Y-14140508D02*
X14820087Y-14111936D01*
X14820087Y-14111936D02*
X14810563Y-14102412D01*
X15172468Y-14407174D02*
X15162944Y-14397650D01*
X15162944Y-14397650D02*
X15143896Y-14369079D01*
X15143896Y-14369079D02*
X15134372Y-14350031D01*
X15134372Y-14350031D02*
X15124849Y-14321460D01*
X15124849Y-14321460D02*
X15115325Y-14273841D01*
X15115325Y-14273841D02*
X15115325Y-14235746D01*
X15115325Y-14235746D02*
X15124849Y-14188127D01*
X15124849Y-14188127D02*
X15134372Y-14159555D01*
X15134372Y-14159555D02*
X15143896Y-14140508D01*
X15143896Y-14140508D02*
X15162944Y-14111936D01*
X15162944Y-14111936D02*
X15172468Y-14102412D01*
X15248658Y-14197650D02*
X15248658Y-14330984D01*
X15248658Y-14216698D02*
X15258182Y-14207174D01*
X15258182Y-14207174D02*
X15277230Y-14197650D01*
X15277230Y-14197650D02*
X15305801Y-14197650D01*
X15305801Y-14197650D02*
X15324849Y-14207174D01*
X15324849Y-14207174D02*
X15334372Y-14226222D01*
X15334372Y-14226222D02*
X15334372Y-14330984D01*
X15458182Y-14330984D02*
X15439134Y-14321460D01*
X15439134Y-14321460D02*
X15429611Y-14311936D01*
X15429611Y-14311936D02*
X15420087Y-14292888D01*
X15420087Y-14292888D02*
X15420087Y-14235746D01*
X15420087Y-14235746D02*
X15429611Y-14216698D01*
X15429611Y-14216698D02*
X15439134Y-14207174D01*
X15439134Y-14207174D02*
X15458182Y-14197650D01*
X15458182Y-14197650D02*
X15486753Y-14197650D01*
X15486753Y-14197650D02*
X15505801Y-14207174D01*
X15505801Y-14207174D02*
X15515325Y-14216698D01*
X15515325Y-14216698D02*
X15524849Y-14235746D01*
X15524849Y-14235746D02*
X15524849Y-14292888D01*
X15524849Y-14292888D02*
X15515325Y-14311936D01*
X15515325Y-14311936D02*
X15505801Y-14321460D01*
X15505801Y-14321460D02*
X15486753Y-14330984D01*
X15486753Y-14330984D02*
X15458182Y-14330984D01*
X15581992Y-14197650D02*
X15658182Y-14197650D01*
X15610563Y-14130984D02*
X15610563Y-14302412D01*
X15610563Y-14302412D02*
X15620087Y-14321460D01*
X15620087Y-14321460D02*
X15639134Y-14330984D01*
X15639134Y-14330984D02*
X15658182Y-14330984D01*
X15877230Y-14197650D02*
X15877230Y-14397650D01*
X15877230Y-14207174D02*
X15896277Y-14197650D01*
X15896277Y-14197650D02*
X15934373Y-14197650D01*
X15934373Y-14197650D02*
X15953420Y-14207174D01*
X15953420Y-14207174D02*
X15962944Y-14216698D01*
X15962944Y-14216698D02*
X15972468Y-14235746D01*
X15972468Y-14235746D02*
X15972468Y-14292888D01*
X15972468Y-14292888D02*
X15962944Y-14311936D01*
X15962944Y-14311936D02*
X15953420Y-14321460D01*
X15953420Y-14321460D02*
X15934373Y-14330984D01*
X15934373Y-14330984D02*
X15896277Y-14330984D01*
X15896277Y-14330984D02*
X15877230Y-14321460D01*
X16086753Y-14330984D02*
X16067706Y-14321460D01*
X16067706Y-14321460D02*
X16058182Y-14302412D01*
X16058182Y-14302412D02*
X16058182Y-14130984D01*
X16248658Y-14330984D02*
X16248658Y-14226222D01*
X16248658Y-14226222D02*
X16239134Y-14207174D01*
X16239134Y-14207174D02*
X16220087Y-14197650D01*
X16220087Y-14197650D02*
X16181992Y-14197650D01*
X16181992Y-14197650D02*
X16162944Y-14207174D01*
X16248658Y-14321460D02*
X16229611Y-14330984D01*
X16229611Y-14330984D02*
X16181992Y-14330984D01*
X16181992Y-14330984D02*
X16162944Y-14321460D01*
X16162944Y-14321460D02*
X16153420Y-14302412D01*
X16153420Y-14302412D02*
X16153420Y-14283365D01*
X16153420Y-14283365D02*
X16162944Y-14264317D01*
X16162944Y-14264317D02*
X16181992Y-14254793D01*
X16181992Y-14254793D02*
X16229611Y-14254793D01*
X16229611Y-14254793D02*
X16248658Y-14245269D01*
X16315325Y-14197650D02*
X16391515Y-14197650D01*
X16343896Y-14130984D02*
X16343896Y-14302412D01*
X16343896Y-14302412D02*
X16353420Y-14321460D01*
X16353420Y-14321460D02*
X16372468Y-14330984D01*
X16372468Y-14330984D02*
X16391515Y-14330984D01*
X16534373Y-14321460D02*
X16515325Y-14330984D01*
X16515325Y-14330984D02*
X16477230Y-14330984D01*
X16477230Y-14330984D02*
X16458182Y-14321460D01*
X16458182Y-14321460D02*
X16448658Y-14302412D01*
X16448658Y-14302412D02*
X16448658Y-14226222D01*
X16448658Y-14226222D02*
X16458182Y-14207174D01*
X16458182Y-14207174D02*
X16477230Y-14197650D01*
X16477230Y-14197650D02*
X16515325Y-14197650D01*
X16515325Y-14197650D02*
X16534373Y-14207174D01*
X16534373Y-14207174D02*
X16543896Y-14226222D01*
X16543896Y-14226222D02*
X16543896Y-14245269D01*
X16543896Y-14245269D02*
X16448658Y-14264317D01*
X16715325Y-14330984D02*
X16715325Y-14130984D01*
X16715325Y-14321460D02*
X16696277Y-14330984D01*
X16696277Y-14330984D02*
X16658182Y-14330984D01*
X16658182Y-14330984D02*
X16639134Y-14321460D01*
X16639134Y-14321460D02*
X16629611Y-14311936D01*
X16629611Y-14311936D02*
X16620087Y-14292888D01*
X16620087Y-14292888D02*
X16620087Y-14235746D01*
X16620087Y-14235746D02*
X16629611Y-14216698D01*
X16629611Y-14216698D02*
X16639134Y-14207174D01*
X16639134Y-14207174D02*
X16658182Y-14197650D01*
X16658182Y-14197650D02*
X16696277Y-14197650D01*
X16696277Y-14197650D02*
X16715325Y-14207174D01*
X16791516Y-14407174D02*
X16801039Y-14397650D01*
X16801039Y-14397650D02*
X16820087Y-14369079D01*
X16820087Y-14369079D02*
X16829611Y-14350031D01*
X16829611Y-14350031D02*
X16839135Y-14321460D01*
X16839135Y-14321460D02*
X16848658Y-14273841D01*
X16848658Y-14273841D02*
X16848658Y-14235746D01*
X16848658Y-14235746D02*
X16839135Y-14188127D01*
X16839135Y-14188127D02*
X16829611Y-14159555D01*
X16829611Y-14159555D02*
X16820087Y-14140508D01*
X16820087Y-14140508D02*
X16801039Y-14111936D01*
X16801039Y-14111936D02*
X16791516Y-14102412D01*
M02*
