G04 #@! TF.GenerationSoftware,KiCad,Pcbnew,10.0.5*
G04 #@! TF.CreationDate,2026-08-06T17:51:33-04:00*
G04 #@! TF.ProjectId,FlexiTac_Fork_Adapter,466c6578-6954-4616-935f-466f726b5f41,rev?*
G04 #@! TF.SameCoordinates,Original*
G04 #@! TF.FileFunction,Copper,L2,Bot*
G04 #@! TF.FilePolarity,Positive*
%FSLAX46Y46*%
G04 Gerber Fmt 4.6, Leading zero omitted, Abs format (unit mm)*
G04 Created by KiCad (PCBNEW 10.0.5) date 2026-08-06 17:51:33*
%MOMM*%
%LPD*%
G01*
G04 APERTURE LIST*
G04 #@! TA.AperFunction,SMDPad,CuDef*
%ADD10R,0.300000X1.300000*%
G04 #@! TD*
G04 #@! TA.AperFunction,SMDPad,CuDef*
%ADD11R,1.800000X2.200000*%
G04 #@! TD*
G04 #@! TA.AperFunction,Conductor*
%ADD12C,0.150000*%
G04 #@! TD*
G04 APERTURE END LIST*
D10*
G04 #@! TO.P,J6,1*
G04 #@! TO.N,COL_16*
X119750000Y-123150000D03*
G04 #@! TO.P,J6,2*
G04 #@! TO.N,COL_17*
X119250000Y-123150000D03*
G04 #@! TO.P,J6,3*
G04 #@! TO.N,COL_18*
X118750000Y-123150000D03*
G04 #@! TO.P,J6,4*
G04 #@! TO.N,COL_19*
X118250000Y-123150000D03*
G04 #@! TO.P,J6,5*
G04 #@! TO.N,COL_20*
X117750000Y-123150000D03*
G04 #@! TO.P,J6,6*
G04 #@! TO.N,COL_21*
X117250000Y-123150000D03*
G04 #@! TO.P,J6,7*
G04 #@! TO.N,COL_22*
X116750000Y-123150000D03*
G04 #@! TO.P,J6,8*
G04 #@! TO.N,COL_23*
X116250000Y-123150000D03*
G04 #@! TO.P,J6,9*
G04 #@! TO.N,COL_24*
X115750000Y-123150000D03*
G04 #@! TO.P,J6,10*
G04 #@! TO.N,COL_25*
X115250000Y-123150000D03*
G04 #@! TO.P,J6,11*
G04 #@! TO.N,COL_26*
X114750000Y-123150000D03*
G04 #@! TO.P,J6,12*
G04 #@! TO.N,COL_27*
X114250000Y-123150000D03*
D11*
G04 #@! TO.P,J6,MP*
G04 #@! TO.N,N/C*
X121650000Y-126400000D03*
X112350000Y-126400000D03*
G04 #@! TD*
D10*
G04 #@! TO.P,J2,1*
G04 #@! TO.N,COL_0*
X127750000Y-114650000D03*
G04 #@! TO.P,J2,2*
G04 #@! TO.N,COL_1*
X127250000Y-114650000D03*
G04 #@! TO.P,J2,3*
G04 #@! TO.N,COL_2*
X126750000Y-114650000D03*
G04 #@! TO.P,J2,4*
G04 #@! TO.N,COL_3*
X126250000Y-114650000D03*
G04 #@! TO.P,J2,5*
G04 #@! TO.N,COL_4*
X125750000Y-114650000D03*
G04 #@! TO.P,J2,6*
G04 #@! TO.N,COL_5*
X125250000Y-114650000D03*
G04 #@! TO.P,J2,7*
G04 #@! TO.N,COL_6*
X124750000Y-114650000D03*
G04 #@! TO.P,J2,8*
G04 #@! TO.N,COL_7*
X124250000Y-114650000D03*
G04 #@! TO.P,J2,9*
G04 #@! TO.N,COL_8*
X123750000Y-114650000D03*
G04 #@! TO.P,J2,10*
G04 #@! TO.N,COL_9*
X123250000Y-114650000D03*
G04 #@! TO.P,J2,11*
G04 #@! TO.N,COL_10*
X122750000Y-114650000D03*
G04 #@! TO.P,J2,12*
G04 #@! TO.N,COL_11*
X122250000Y-114650000D03*
G04 #@! TO.P,J2,13*
G04 #@! TO.N,COL_12*
X121750000Y-114650000D03*
G04 #@! TO.P,J2,14*
G04 #@! TO.N,COL_13*
X121250000Y-114650000D03*
G04 #@! TO.P,J2,15*
G04 #@! TO.N,COL_14*
X120750000Y-114650000D03*
G04 #@! TO.P,J2,16*
G04 #@! TO.N,COL_15*
X120250000Y-114650000D03*
G04 #@! TO.P,J2,17*
G04 #@! TO.N,COL_16*
X119750000Y-114650000D03*
G04 #@! TO.P,J2,18*
G04 #@! TO.N,COL_17*
X119250000Y-114650000D03*
G04 #@! TO.P,J2,19*
G04 #@! TO.N,COL_18*
X118750000Y-114650000D03*
G04 #@! TO.P,J2,20*
G04 #@! TO.N,COL_19*
X118250000Y-114650000D03*
G04 #@! TO.P,J2,21*
G04 #@! TO.N,COL_20*
X117750000Y-114650000D03*
G04 #@! TO.P,J2,22*
G04 #@! TO.N,COL_21*
X117250000Y-114650000D03*
G04 #@! TO.P,J2,23*
G04 #@! TO.N,COL_22*
X116750000Y-114650000D03*
G04 #@! TO.P,J2,24*
G04 #@! TO.N,COL_23*
X116250000Y-114650000D03*
G04 #@! TO.P,J2,25*
G04 #@! TO.N,COL_24*
X115750000Y-114650000D03*
G04 #@! TO.P,J2,26*
G04 #@! TO.N,COL_25*
X115250000Y-114650000D03*
G04 #@! TO.P,J2,27*
G04 #@! TO.N,COL_26*
X114750000Y-114650000D03*
G04 #@! TO.P,J2,28*
G04 #@! TO.N,COL_27*
X114250000Y-114650000D03*
G04 #@! TO.P,J2,29*
G04 #@! TO.N,COL_28*
X113750000Y-114650000D03*
G04 #@! TO.P,J2,30*
G04 #@! TO.N,COL_29*
X113250000Y-114650000D03*
G04 #@! TO.P,J2,31*
G04 #@! TO.N,COL_30*
X112750000Y-114650000D03*
G04 #@! TO.P,J2,32*
G04 #@! TO.N,COL_31*
X112250000Y-114650000D03*
D11*
G04 #@! TO.P,J2,MP*
G04 #@! TO.N,N/C*
X129650000Y-117900000D03*
X110350000Y-117900000D03*
G04 #@! TD*
D10*
G04 #@! TO.P,J5,1*
G04 #@! TO.N,COL_0*
X127750000Y-106150000D03*
G04 #@! TO.P,J5,2*
G04 #@! TO.N,COL_1*
X127250000Y-106150000D03*
G04 #@! TO.P,J5,3*
G04 #@! TO.N,COL_2*
X126750000Y-106150000D03*
G04 #@! TO.P,J5,4*
G04 #@! TO.N,COL_3*
X126250000Y-106150000D03*
G04 #@! TO.P,J5,5*
G04 #@! TO.N,COL_4*
X125750000Y-106150000D03*
G04 #@! TO.P,J5,6*
G04 #@! TO.N,COL_5*
X125250000Y-106150000D03*
G04 #@! TO.P,J5,7*
G04 #@! TO.N,COL_6*
X124750000Y-106150000D03*
G04 #@! TO.P,J5,8*
G04 #@! TO.N,COL_7*
X124250000Y-106150000D03*
G04 #@! TO.P,J5,9*
G04 #@! TO.N,COL_8*
X123750000Y-106150000D03*
G04 #@! TO.P,J5,10*
G04 #@! TO.N,COL_9*
X123250000Y-106150000D03*
G04 #@! TO.P,J5,11*
G04 #@! TO.N,COL_10*
X122750000Y-106150000D03*
G04 #@! TO.P,J5,12*
G04 #@! TO.N,COL_11*
X122250000Y-106150000D03*
D11*
G04 #@! TO.P,J5,MP*
G04 #@! TO.N,N/C*
X129650000Y-109400000D03*
X120350000Y-109400000D03*
G04 #@! TD*
G04 #@! TO.N,COL_0*
D12*
X127750000Y-106150000D02*
X127750000Y-114650000D01*
G04 #@! TO.N,COL_1*
X127250000Y-106150000D02*
X127250000Y-114650000D01*
G04 #@! TO.N,COL_10*
X122750000Y-106150000D02*
X122750000Y-114650000D01*
G04 #@! TO.N,COL_11*
X122250000Y-106150000D02*
X122250000Y-114650000D01*
G04 #@! TO.N,COL_16*
X119750000Y-114650000D02*
X119750000Y-123150000D01*
G04 #@! TO.N,COL_17*
X119250000Y-114650000D02*
X119250000Y-123150000D01*
G04 #@! TO.N,COL_18*
X118750000Y-114650000D02*
X118750000Y-123150000D01*
G04 #@! TO.N,COL_19*
X118250000Y-114650000D02*
X118250000Y-123150000D01*
G04 #@! TO.N,COL_2*
X126750000Y-106150000D02*
X126750000Y-114650000D01*
G04 #@! TO.N,COL_20*
X117750000Y-114650000D02*
X117750000Y-123150000D01*
G04 #@! TO.N,COL_21*
X117250000Y-114650000D02*
X117250000Y-123150000D01*
G04 #@! TO.N,COL_22*
X116750000Y-114650000D02*
X116750000Y-123150000D01*
G04 #@! TO.N,COL_23*
X116250000Y-114650000D02*
X116250000Y-123150000D01*
G04 #@! TO.N,COL_24*
X115750000Y-114650000D02*
X115750000Y-123150000D01*
G04 #@! TO.N,COL_25*
X115250000Y-114650000D02*
X115250000Y-123150000D01*
G04 #@! TO.N,COL_26*
X114750000Y-114650000D02*
X114750000Y-123150000D01*
G04 #@! TO.N,COL_27*
X114250000Y-114650000D02*
X114250000Y-123150000D01*
G04 #@! TO.N,COL_3*
X126250000Y-106150000D02*
X126250000Y-114650000D01*
G04 #@! TO.N,COL_4*
X125750000Y-106150000D02*
X125750000Y-114650000D01*
G04 #@! TO.N,COL_5*
X125250000Y-106150000D02*
X125250000Y-114650000D01*
G04 #@! TO.N,COL_6*
X124750000Y-106150000D02*
X124750000Y-114650000D01*
G04 #@! TO.N,COL_7*
X124250000Y-106150000D02*
X124250000Y-114650000D01*
G04 #@! TO.N,COL_8*
X123750000Y-106150000D02*
X123750000Y-114650000D01*
G04 #@! TO.N,COL_9*
X123250000Y-106150000D02*
X123250000Y-114650000D01*
G04 #@! TD*
M02*
