G04 #@! TF.GenerationSoftware,KiCad,Pcbnew,10.0.5*
G04 #@! TF.CreationDate,2026-08-06T17:51:33-04:00*
G04 #@! TF.ProjectId,FlexiTac_Fork_Adapter,466c6578-6954-4616-935f-466f726b5f41,rev?*
G04 #@! TF.SameCoordinates,Original*
G04 #@! TF.FileFunction,Copper,L1,Top*
G04 #@! TF.FilePolarity,Positive*
%FSLAX46Y46*%
G04 Gerber Fmt 4.6, Leading zero omitted, Abs format (unit mm)*
G04 Created by KiCad (PCBNEW 10.0.5) date 2026-08-06 17:51:33*
%MOMM*%
%LPD*%
G01*
G04 APERTURE LIST*
G04 #@! TA.AperFunction,SMDPad,CuDef*
%ADD10R,0.300000X1.300000*%
G04 #@! TD*
G04 #@! TA.AperFunction,SMDPad,CuDef*
%ADD11R,1.800000X2.200000*%
G04 #@! TD*
G04 #@! TA.AperFunction,Conductor*
%ADD12C,0.150000*%
G04 #@! TD*
G04 APERTURE END LIST*
D10*
G04 #@! TO.P,J4,1*
G04 #@! TO.N,ROW_0*
X112250000Y-123150000D03*
G04 #@! TO.P,J4,2*
G04 #@! TO.N,ROW_1*
X112750000Y-123150000D03*
G04 #@! TO.P,J4,3*
G04 #@! TO.N,ROW_2*
X113250000Y-123150000D03*
G04 #@! TO.P,J4,4*
G04 #@! TO.N,ROW_3*
X113750000Y-123150000D03*
G04 #@! TO.P,J4,5*
G04 #@! TO.N,ROW_4*
X114250000Y-123150000D03*
G04 #@! TO.P,J4,6*
G04 #@! TO.N,ROW_5*
X114750000Y-123150000D03*
G04 #@! TO.P,J4,7*
G04 #@! TO.N,ROW_6*
X115250000Y-123150000D03*
G04 #@! TO.P,J4,8*
G04 #@! TO.N,ROW_7*
X115750000Y-123150000D03*
G04 #@! TO.P,J4,9*
G04 #@! TO.N,ROW_8*
X116250000Y-123150000D03*
G04 #@! TO.P,J4,10*
G04 #@! TO.N,ROW_9*
X116750000Y-123150000D03*
G04 #@! TO.P,J4,11*
G04 #@! TO.N,ROW_10*
X117250000Y-123150000D03*
G04 #@! TO.P,J4,12*
G04 #@! TO.N,ROW_11*
X117750000Y-123150000D03*
G04 #@! TO.P,J4,13*
G04 #@! TO.N,ROW_12*
X118250000Y-123150000D03*
G04 #@! TO.P,J4,14*
G04 #@! TO.N,ROW_13*
X118750000Y-123150000D03*
G04 #@! TO.P,J4,15*
G04 #@! TO.N,ROW_14*
X119250000Y-123150000D03*
G04 #@! TO.P,J4,16*
G04 #@! TO.N,ROW_15*
X119750000Y-123150000D03*
G04 #@! TO.P,J4,17*
G04 #@! TO.N,ROW_16*
X120250000Y-123150000D03*
G04 #@! TO.P,J4,18*
G04 #@! TO.N,ROW_17*
X120750000Y-123150000D03*
G04 #@! TO.P,J4,19*
G04 #@! TO.N,ROW_18*
X121250000Y-123150000D03*
G04 #@! TO.P,J4,20*
G04 #@! TO.N,ROW_19*
X121750000Y-123150000D03*
G04 #@! TO.P,J4,21*
G04 #@! TO.N,ROW_20*
X122250000Y-123150000D03*
G04 #@! TO.P,J4,22*
G04 #@! TO.N,ROW_21*
X122750000Y-123150000D03*
G04 #@! TO.P,J4,23*
G04 #@! TO.N,ROW_22*
X123250000Y-123150000D03*
G04 #@! TO.P,J4,24*
G04 #@! TO.N,ROW_23*
X123750000Y-123150000D03*
G04 #@! TO.P,J4,25*
G04 #@! TO.N,ROW_24*
X124250000Y-123150000D03*
G04 #@! TO.P,J4,26*
G04 #@! TO.N,ROW_25*
X124750000Y-123150000D03*
G04 #@! TO.P,J4,27*
G04 #@! TO.N,ROW_26*
X125250000Y-123150000D03*
G04 #@! TO.P,J4,28*
G04 #@! TO.N,ROW_27*
X125750000Y-123150000D03*
G04 #@! TO.P,J4,29*
G04 #@! TO.N,ROW_28*
X126250000Y-123150000D03*
G04 #@! TO.P,J4,30*
G04 #@! TO.N,ROW_29*
X126750000Y-123150000D03*
G04 #@! TO.P,J4,31*
G04 #@! TO.N,ROW_30*
X127250000Y-123150000D03*
G04 #@! TO.P,J4,32*
G04 #@! TO.N,ROW_31*
X127750000Y-123150000D03*
D11*
G04 #@! TO.P,J4,MP*
G04 #@! TO.N,N/C*
X110350000Y-126400000D03*
X129650000Y-126400000D03*
G04 #@! TD*
D10*
G04 #@! TO.P,J1,1*
G04 #@! TO.N,ROW_0*
X112250000Y-114650000D03*
G04 #@! TO.P,J1,2*
G04 #@! TO.N,ROW_1*
X112750000Y-114650000D03*
G04 #@! TO.P,J1,3*
G04 #@! TO.N,ROW_2*
X113250000Y-114650000D03*
G04 #@! TO.P,J1,4*
G04 #@! TO.N,ROW_3*
X113750000Y-114650000D03*
G04 #@! TO.P,J1,5*
G04 #@! TO.N,ROW_4*
X114250000Y-114650000D03*
G04 #@! TO.P,J1,6*
G04 #@! TO.N,ROW_5*
X114750000Y-114650000D03*
G04 #@! TO.P,J1,7*
G04 #@! TO.N,ROW_6*
X115250000Y-114650000D03*
G04 #@! TO.P,J1,8*
G04 #@! TO.N,ROW_7*
X115750000Y-114650000D03*
G04 #@! TO.P,J1,9*
G04 #@! TO.N,ROW_8*
X116250000Y-114650000D03*
G04 #@! TO.P,J1,10*
G04 #@! TO.N,ROW_9*
X116750000Y-114650000D03*
G04 #@! TO.P,J1,11*
G04 #@! TO.N,ROW_10*
X117250000Y-114650000D03*
G04 #@! TO.P,J1,12*
G04 #@! TO.N,ROW_11*
X117750000Y-114650000D03*
G04 #@! TO.P,J1,13*
G04 #@! TO.N,ROW_12*
X118250000Y-114650000D03*
G04 #@! TO.P,J1,14*
G04 #@! TO.N,ROW_13*
X118750000Y-114650000D03*
G04 #@! TO.P,J1,15*
G04 #@! TO.N,ROW_14*
X119250000Y-114650000D03*
G04 #@! TO.P,J1,16*
G04 #@! TO.N,ROW_15*
X119750000Y-114650000D03*
G04 #@! TO.P,J1,17*
G04 #@! TO.N,ROW_16*
X120250000Y-114650000D03*
G04 #@! TO.P,J1,18*
G04 #@! TO.N,ROW_17*
X120750000Y-114650000D03*
G04 #@! TO.P,J1,19*
G04 #@! TO.N,ROW_18*
X121250000Y-114650000D03*
G04 #@! TO.P,J1,20*
G04 #@! TO.N,ROW_19*
X121750000Y-114650000D03*
G04 #@! TO.P,J1,21*
G04 #@! TO.N,ROW_20*
X122250000Y-114650000D03*
G04 #@! TO.P,J1,22*
G04 #@! TO.N,ROW_21*
X122750000Y-114650000D03*
G04 #@! TO.P,J1,23*
G04 #@! TO.N,ROW_22*
X123250000Y-114650000D03*
G04 #@! TO.P,J1,24*
G04 #@! TO.N,ROW_23*
X123750000Y-114650000D03*
G04 #@! TO.P,J1,25*
G04 #@! TO.N,ROW_24*
X124250000Y-114650000D03*
G04 #@! TO.P,J1,26*
G04 #@! TO.N,ROW_25*
X124750000Y-114650000D03*
G04 #@! TO.P,J1,27*
G04 #@! TO.N,ROW_26*
X125250000Y-114650000D03*
G04 #@! TO.P,J1,28*
G04 #@! TO.N,ROW_27*
X125750000Y-114650000D03*
G04 #@! TO.P,J1,29*
G04 #@! TO.N,ROW_28*
X126250000Y-114650000D03*
G04 #@! TO.P,J1,30*
G04 #@! TO.N,ROW_29*
X126750000Y-114650000D03*
G04 #@! TO.P,J1,31*
G04 #@! TO.N,ROW_30*
X127250000Y-114650000D03*
G04 #@! TO.P,J1,32*
G04 #@! TO.N,ROW_31*
X127750000Y-114650000D03*
D11*
G04 #@! TO.P,J1,MP*
G04 #@! TO.N,N/C*
X110350000Y-117900000D03*
X129650000Y-117900000D03*
G04 #@! TD*
D10*
G04 #@! TO.P,J3,1*
G04 #@! TO.N,ROW_0*
X112250000Y-106150000D03*
G04 #@! TO.P,J3,2*
G04 #@! TO.N,ROW_1*
X112750000Y-106150000D03*
G04 #@! TO.P,J3,3*
G04 #@! TO.N,ROW_2*
X113250000Y-106150000D03*
G04 #@! TO.P,J3,4*
G04 #@! TO.N,ROW_3*
X113750000Y-106150000D03*
G04 #@! TO.P,J3,5*
G04 #@! TO.N,ROW_4*
X114250000Y-106150000D03*
G04 #@! TO.P,J3,6*
G04 #@! TO.N,ROW_5*
X114750000Y-106150000D03*
G04 #@! TO.P,J3,7*
G04 #@! TO.N,ROW_6*
X115250000Y-106150000D03*
G04 #@! TO.P,J3,8*
G04 #@! TO.N,ROW_7*
X115750000Y-106150000D03*
G04 #@! TO.P,J3,9*
G04 #@! TO.N,ROW_8*
X116250000Y-106150000D03*
G04 #@! TO.P,J3,10*
G04 #@! TO.N,ROW_9*
X116750000Y-106150000D03*
G04 #@! TO.P,J3,11*
G04 #@! TO.N,ROW_10*
X117250000Y-106150000D03*
G04 #@! TO.P,J3,12*
G04 #@! TO.N,ROW_11*
X117750000Y-106150000D03*
G04 #@! TO.P,J3,13*
G04 #@! TO.N,ROW_12*
X118250000Y-106150000D03*
G04 #@! TO.P,J3,14*
G04 #@! TO.N,ROW_13*
X118750000Y-106150000D03*
G04 #@! TO.P,J3,15*
G04 #@! TO.N,ROW_14*
X119250000Y-106150000D03*
G04 #@! TO.P,J3,16*
G04 #@! TO.N,ROW_15*
X119750000Y-106150000D03*
G04 #@! TO.P,J3,17*
G04 #@! TO.N,ROW_16*
X120250000Y-106150000D03*
G04 #@! TO.P,J3,18*
G04 #@! TO.N,ROW_17*
X120750000Y-106150000D03*
G04 #@! TO.P,J3,19*
G04 #@! TO.N,ROW_18*
X121250000Y-106150000D03*
G04 #@! TO.P,J3,20*
G04 #@! TO.N,ROW_19*
X121750000Y-106150000D03*
G04 #@! TO.P,J3,21*
G04 #@! TO.N,ROW_20*
X122250000Y-106150000D03*
G04 #@! TO.P,J3,22*
G04 #@! TO.N,ROW_21*
X122750000Y-106150000D03*
G04 #@! TO.P,J3,23*
G04 #@! TO.N,ROW_22*
X123250000Y-106150000D03*
G04 #@! TO.P,J3,24*
G04 #@! TO.N,ROW_23*
X123750000Y-106150000D03*
G04 #@! TO.P,J3,25*
G04 #@! TO.N,ROW_24*
X124250000Y-106150000D03*
G04 #@! TO.P,J3,26*
G04 #@! TO.N,ROW_25*
X124750000Y-106150000D03*
G04 #@! TO.P,J3,27*
G04 #@! TO.N,ROW_26*
X125250000Y-106150000D03*
G04 #@! TO.P,J3,28*
G04 #@! TO.N,ROW_27*
X125750000Y-106150000D03*
G04 #@! TO.P,J3,29*
G04 #@! TO.N,ROW_28*
X126250000Y-106150000D03*
G04 #@! TO.P,J3,30*
G04 #@! TO.N,ROW_29*
X126750000Y-106150000D03*
G04 #@! TO.P,J3,31*
G04 #@! TO.N,ROW_30*
X127250000Y-106150000D03*
G04 #@! TO.P,J3,32*
G04 #@! TO.N,ROW_31*
X127750000Y-106150000D03*
D11*
G04 #@! TO.P,J3,MP*
G04 #@! TO.N,N/C*
X110350000Y-109400000D03*
X129650000Y-109400000D03*
G04 #@! TD*
G04 #@! TO.N,ROW_0*
D12*
X112250000Y-114650000D02*
X112250000Y-123150000D01*
X112250000Y-106150000D02*
X112250000Y-114650000D01*
G04 #@! TO.N,ROW_1*
X112750000Y-114650000D02*
X112750000Y-123150000D01*
X112750000Y-106150000D02*
X112750000Y-114650000D01*
G04 #@! TO.N,ROW_10*
X117250000Y-114650000D02*
X117250000Y-123150000D01*
X117250000Y-106150000D02*
X117250000Y-114650000D01*
G04 #@! TO.N,ROW_11*
X117750000Y-106150000D02*
X117750000Y-114650000D01*
X117750000Y-114650000D02*
X117750000Y-123150000D01*
G04 #@! TO.N,ROW_12*
X118250000Y-106150000D02*
X118250000Y-114650000D01*
X118250000Y-114650000D02*
X118250000Y-123150000D01*
G04 #@! TO.N,ROW_13*
X118750000Y-114650000D02*
X118750000Y-123150000D01*
X118750000Y-106150000D02*
X118750000Y-114650000D01*
G04 #@! TO.N,ROW_14*
X119250000Y-114650000D02*
X119250000Y-123150000D01*
X119250000Y-106150000D02*
X119250000Y-114650000D01*
G04 #@! TO.N,ROW_15*
X119750000Y-106150000D02*
X119750000Y-114650000D01*
X119750000Y-114650000D02*
X119750000Y-123150000D01*
G04 #@! TO.N,ROW_16*
X120250000Y-106150000D02*
X120250000Y-114650000D01*
X120250000Y-114650000D02*
X120250000Y-123150000D01*
G04 #@! TO.N,ROW_17*
X120750000Y-114650000D02*
X120750000Y-123150000D01*
X120750000Y-106150000D02*
X120750000Y-114650000D01*
G04 #@! TO.N,ROW_18*
X121250000Y-114650000D02*
X121250000Y-123150000D01*
X121250000Y-106150000D02*
X121250000Y-114650000D01*
G04 #@! TO.N,ROW_19*
X121750000Y-114650000D02*
X121750000Y-123150000D01*
X121750000Y-106150000D02*
X121750000Y-114650000D01*
G04 #@! TO.N,ROW_2*
X113250000Y-114650000D02*
X113250000Y-123150000D01*
X113250000Y-106150000D02*
X113250000Y-114650000D01*
G04 #@! TO.N,ROW_20*
X122250000Y-106150000D02*
X122250000Y-114650000D01*
X122250000Y-114650000D02*
X122250000Y-123150000D01*
G04 #@! TO.N,ROW_21*
X122750000Y-106150000D02*
X122750000Y-114650000D01*
X122750000Y-114650000D02*
X122750000Y-123150000D01*
G04 #@! TO.N,ROW_22*
X123250000Y-114650000D02*
X123250000Y-123150000D01*
X123250000Y-106150000D02*
X123250000Y-114650000D01*
G04 #@! TO.N,ROW_23*
X123750000Y-106150000D02*
X123750000Y-114650000D01*
X123750000Y-114650000D02*
X123750000Y-123150000D01*
G04 #@! TO.N,ROW_24*
X124250000Y-114650000D02*
X124250000Y-123150000D01*
X124250000Y-106150000D02*
X124250000Y-114650000D01*
G04 #@! TO.N,ROW_25*
X124750000Y-106150000D02*
X124750000Y-114650000D01*
X124750000Y-114650000D02*
X124750000Y-123150000D01*
G04 #@! TO.N,ROW_26*
X125250000Y-106150000D02*
X125250000Y-114650000D01*
X125250000Y-114650000D02*
X125250000Y-123150000D01*
G04 #@! TO.N,ROW_27*
X125750000Y-114650000D02*
X125750000Y-123150000D01*
X125750000Y-106150000D02*
X125750000Y-114650000D01*
G04 #@! TO.N,ROW_28*
X126250000Y-114650000D02*
X126250000Y-123150000D01*
X126250000Y-106150000D02*
X126250000Y-114650000D01*
G04 #@! TO.N,ROW_29*
X126750000Y-114650000D02*
X126750000Y-123150000D01*
X126750000Y-106150000D02*
X126750000Y-114650000D01*
G04 #@! TO.N,ROW_3*
X113750000Y-106150000D02*
X113750000Y-114650000D01*
X113750000Y-114650000D02*
X113750000Y-123150000D01*
G04 #@! TO.N,ROW_30*
X127250000Y-114650000D02*
X127250000Y-123150000D01*
X127250000Y-106150000D02*
X127250000Y-114650000D01*
G04 #@! TO.N,ROW_31*
X127750000Y-106150000D02*
X127750000Y-114650000D01*
X127750000Y-114650000D02*
X127750000Y-123150000D01*
G04 #@! TO.N,ROW_4*
X114250000Y-114650000D02*
X114250000Y-123150000D01*
X114250000Y-106150000D02*
X114250000Y-114650000D01*
G04 #@! TO.N,ROW_5*
X114750000Y-106150000D02*
X114750000Y-114650000D01*
X114750000Y-114650000D02*
X114750000Y-123150000D01*
G04 #@! TO.N,ROW_6*
X115250000Y-114650000D02*
X115250000Y-123150000D01*
X115250000Y-106150000D02*
X115250000Y-114650000D01*
G04 #@! TO.N,ROW_7*
X115750000Y-106150000D02*
X115750000Y-114650000D01*
X115750000Y-114650000D02*
X115750000Y-123150000D01*
G04 #@! TO.N,ROW_8*
X116250000Y-106150000D02*
X116250000Y-114650000D01*
X116250000Y-114650000D02*
X116250000Y-123150000D01*
G04 #@! TO.N,ROW_9*
X116750000Y-106150000D02*
X116750000Y-114650000D01*
X116750000Y-114650000D02*
X116750000Y-123150000D01*
G04 #@! TD*
M02*
