G04 #@! TF.GenerationSoftware,KiCad,Pcbnew,10.0.5*
G04 #@! TF.CreationDate,2026-08-06T17:51:33-04:00*
G04 #@! TF.ProjectId,FlexiTac_Fork_Adapter,466c6578-6954-4616-935f-466f726b5f41,rev?*
G04 #@! TF.SameCoordinates,Original*
G04 #@! TF.FileFunction,Legend,Top*
G04 #@! TF.FilePolarity,Positive*
%FSLAX46Y46*%
G04 Gerber Fmt 4.6, Leading zero omitted, Abs format (unit mm)*
G04 Created by KiCad (PCBNEW 10.0.5) date 2026-08-06 17:51:33*
%MOMM*%
%LPD*%
G01*
G04 APERTURE LIST*
%ADD10C,0.120000*%
%ADD11C,2.200000*%
%ADD12R,0.300000X1.300000*%
%ADD13R,1.800000X2.200000*%
G04 APERTURE END LIST*
D10*
X101505000Y-104272593D02*
X101905000Y-104272593D01*
X101705000Y-104972593D02*
X101705000Y-104272593D01*
X102271667Y-104272593D02*
X102405000Y-104272593D01*
X102405000Y-104272593D02*
X102471667Y-104305926D01*
X102471667Y-104305926D02*
X102538333Y-104372593D01*
X102538333Y-104372593D02*
X102571667Y-104505926D01*
X102571667Y-104505926D02*
X102571667Y-104739260D01*
X102571667Y-104739260D02*
X102538333Y-104872593D01*
X102538333Y-104872593D02*
X102471667Y-104939260D01*
X102471667Y-104939260D02*
X102405000Y-104972593D01*
X102405000Y-104972593D02*
X102271667Y-104972593D01*
X102271667Y-104972593D02*
X102205000Y-104939260D01*
X102205000Y-104939260D02*
X102138333Y-104872593D01*
X102138333Y-104872593D02*
X102105000Y-104739260D01*
X102105000Y-104739260D02*
X102105000Y-104505926D01*
X102105000Y-104505926D02*
X102138333Y-104372593D01*
X102138333Y-104372593D02*
X102205000Y-104305926D01*
X102205000Y-104305926D02*
X102271667Y-104272593D01*
X102871666Y-104972593D02*
X102871666Y-104272593D01*
X102871666Y-104272593D02*
X103138333Y-104272593D01*
X103138333Y-104272593D02*
X103205000Y-104305926D01*
X103205000Y-104305926D02*
X103238333Y-104339260D01*
X103238333Y-104339260D02*
X103271666Y-104405926D01*
X103271666Y-104405926D02*
X103271666Y-104505926D01*
X103271666Y-104505926D02*
X103238333Y-104572593D01*
X103238333Y-104572593D02*
X103205000Y-104605926D01*
X103205000Y-104605926D02*
X103138333Y-104639260D01*
X103138333Y-104639260D02*
X102871666Y-104639260D01*
X103571666Y-104605926D02*
X104105000Y-104605926D01*
X104105000Y-104805926D02*
X103571666Y-104805926D01*
X104838333Y-104972593D02*
X104605000Y-104639260D01*
X104438333Y-104972593D02*
X104438333Y-104272593D01*
X104438333Y-104272593D02*
X104705000Y-104272593D01*
X104705000Y-104272593D02*
X104771667Y-104305926D01*
X104771667Y-104305926D02*
X104805000Y-104339260D01*
X104805000Y-104339260D02*
X104838333Y-104405926D01*
X104838333Y-104405926D02*
X104838333Y-104505926D01*
X104838333Y-104505926D02*
X104805000Y-104572593D01*
X104805000Y-104572593D02*
X104771667Y-104605926D01*
X104771667Y-104605926D02*
X104705000Y-104639260D01*
X104705000Y-104639260D02*
X104438333Y-104639260D01*
X105271667Y-104272593D02*
X105405000Y-104272593D01*
X105405000Y-104272593D02*
X105471667Y-104305926D01*
X105471667Y-104305926D02*
X105538333Y-104372593D01*
X105538333Y-104372593D02*
X105571667Y-104505926D01*
X105571667Y-104505926D02*
X105571667Y-104739260D01*
X105571667Y-104739260D02*
X105538333Y-104872593D01*
X105538333Y-104872593D02*
X105471667Y-104939260D01*
X105471667Y-104939260D02*
X105405000Y-104972593D01*
X105405000Y-104972593D02*
X105271667Y-104972593D01*
X105271667Y-104972593D02*
X105205000Y-104939260D01*
X105205000Y-104939260D02*
X105138333Y-104872593D01*
X105138333Y-104872593D02*
X105105000Y-104739260D01*
X105105000Y-104739260D02*
X105105000Y-104505926D01*
X105105000Y-104505926D02*
X105138333Y-104372593D01*
X105138333Y-104372593D02*
X105205000Y-104305926D01*
X105205000Y-104305926D02*
X105271667Y-104272593D01*
X105805000Y-104272593D02*
X105971666Y-104972593D01*
X105971666Y-104972593D02*
X106105000Y-104472593D01*
X106105000Y-104472593D02*
X106238333Y-104972593D01*
X106238333Y-104972593D02*
X106405000Y-104272593D01*
X106638333Y-104939260D02*
X106738333Y-104972593D01*
X106738333Y-104972593D02*
X106905000Y-104972593D01*
X106905000Y-104972593D02*
X106971666Y-104939260D01*
X106971666Y-104939260D02*
X107005000Y-104905926D01*
X107005000Y-104905926D02*
X107038333Y-104839260D01*
X107038333Y-104839260D02*
X107038333Y-104772593D01*
X107038333Y-104772593D02*
X107005000Y-104705926D01*
X107005000Y-104705926D02*
X106971666Y-104672593D01*
X106971666Y-104672593D02*
X106905000Y-104639260D01*
X106905000Y-104639260D02*
X106771666Y-104605926D01*
X106771666Y-104605926D02*
X106705000Y-104572593D01*
X106705000Y-104572593D02*
X106671666Y-104539260D01*
X106671666Y-104539260D02*
X106638333Y-104472593D01*
X106638333Y-104472593D02*
X106638333Y-104405926D01*
X106638333Y-104405926D02*
X106671666Y-104339260D01*
X106671666Y-104339260D02*
X106705000Y-104305926D01*
X106705000Y-104305926D02*
X106771666Y-104272593D01*
X106771666Y-104272593D02*
X106938333Y-104272593D01*
X106938333Y-104272593D02*
X107038333Y-104305926D01*
X102394286Y-107297867D02*
X102144286Y-107297867D01*
X102144286Y-107690724D02*
X102144286Y-106940724D01*
X102144286Y-106940724D02*
X102501429Y-106940724D01*
X103180000Y-107690724D02*
X102751429Y-107690724D01*
X102965714Y-107690724D02*
X102965714Y-106940724D01*
X102965714Y-106940724D02*
X102894286Y-107047867D01*
X102894286Y-107047867D02*
X102822857Y-107119295D01*
X102822857Y-107119295D02*
X102751429Y-107155010D01*
X103501429Y-107405010D02*
X104072858Y-107405010D01*
X104858571Y-107690724D02*
X104608571Y-107333581D01*
X104430000Y-107690724D02*
X104430000Y-106940724D01*
X104430000Y-106940724D02*
X104715714Y-106940724D01*
X104715714Y-106940724D02*
X104787143Y-106976438D01*
X104787143Y-106976438D02*
X104822857Y-107012152D01*
X104822857Y-107012152D02*
X104858571Y-107083581D01*
X104858571Y-107083581D02*
X104858571Y-107190724D01*
X104858571Y-107190724D02*
X104822857Y-107262152D01*
X104822857Y-107262152D02*
X104787143Y-107297867D01*
X104787143Y-107297867D02*
X104715714Y-107333581D01*
X104715714Y-107333581D02*
X104430000Y-107333581D01*
X105322857Y-106940724D02*
X105465714Y-106940724D01*
X105465714Y-106940724D02*
X105537143Y-106976438D01*
X105537143Y-106976438D02*
X105608571Y-107047867D01*
X105608571Y-107047867D02*
X105644286Y-107190724D01*
X105644286Y-107190724D02*
X105644286Y-107440724D01*
X105644286Y-107440724D02*
X105608571Y-107583581D01*
X105608571Y-107583581D02*
X105537143Y-107655010D01*
X105537143Y-107655010D02*
X105465714Y-107690724D01*
X105465714Y-107690724D02*
X105322857Y-107690724D01*
X105322857Y-107690724D02*
X105251429Y-107655010D01*
X105251429Y-107655010D02*
X105180000Y-107583581D01*
X105180000Y-107583581D02*
X105144286Y-107440724D01*
X105144286Y-107440724D02*
X105144286Y-107190724D01*
X105144286Y-107190724D02*
X105180000Y-107047867D01*
X105180000Y-107047867D02*
X105251429Y-106976438D01*
X105251429Y-106976438D02*
X105322857Y-106940724D01*
X105894285Y-106940724D02*
X106072857Y-107690724D01*
X106072857Y-107690724D02*
X106215714Y-107155010D01*
X106215714Y-107155010D02*
X106358571Y-107690724D01*
X106358571Y-107690724D02*
X106537143Y-106940724D01*
X102251429Y-116190724D02*
X102251429Y-115440724D01*
X102608572Y-116190724D02*
X102608572Y-115440724D01*
X102608572Y-115440724D02*
X103037143Y-116190724D01*
X103037143Y-116190724D02*
X103037143Y-115440724D01*
X103394286Y-115905010D02*
X103965715Y-115905010D01*
X104751428Y-116190724D02*
X104501428Y-115833581D01*
X104322857Y-116190724D02*
X104322857Y-115440724D01*
X104322857Y-115440724D02*
X104608571Y-115440724D01*
X104608571Y-115440724D02*
X104680000Y-115476438D01*
X104680000Y-115476438D02*
X104715714Y-115512152D01*
X104715714Y-115512152D02*
X104751428Y-115583581D01*
X104751428Y-115583581D02*
X104751428Y-115690724D01*
X104751428Y-115690724D02*
X104715714Y-115762152D01*
X104715714Y-115762152D02*
X104680000Y-115797867D01*
X104680000Y-115797867D02*
X104608571Y-115833581D01*
X104608571Y-115833581D02*
X104322857Y-115833581D01*
X105215714Y-115440724D02*
X105358571Y-115440724D01*
X105358571Y-115440724D02*
X105430000Y-115476438D01*
X105430000Y-115476438D02*
X105501428Y-115547867D01*
X105501428Y-115547867D02*
X105537143Y-115690724D01*
X105537143Y-115690724D02*
X105537143Y-115940724D01*
X105537143Y-115940724D02*
X105501428Y-116083581D01*
X105501428Y-116083581D02*
X105430000Y-116155010D01*
X105430000Y-116155010D02*
X105358571Y-116190724D01*
X105358571Y-116190724D02*
X105215714Y-116190724D01*
X105215714Y-116190724D02*
X105144286Y-116155010D01*
X105144286Y-116155010D02*
X105072857Y-116083581D01*
X105072857Y-116083581D02*
X105037143Y-115940724D01*
X105037143Y-115940724D02*
X105037143Y-115690724D01*
X105037143Y-115690724D02*
X105072857Y-115547867D01*
X105072857Y-115547867D02*
X105144286Y-115476438D01*
X105144286Y-115476438D02*
X105215714Y-115440724D01*
X105787142Y-115440724D02*
X105965714Y-116190724D01*
X105965714Y-116190724D02*
X106108571Y-115655010D01*
X106108571Y-115655010D02*
X106251428Y-116190724D01*
X106251428Y-116190724D02*
X106430000Y-115440724D01*
X102394286Y-124297867D02*
X102144286Y-124297867D01*
X102144286Y-124690724D02*
X102144286Y-123940724D01*
X102144286Y-123940724D02*
X102501429Y-123940724D01*
X102751429Y-124012152D02*
X102787143Y-123976438D01*
X102787143Y-123976438D02*
X102858572Y-123940724D01*
X102858572Y-123940724D02*
X103037143Y-123940724D01*
X103037143Y-123940724D02*
X103108572Y-123976438D01*
X103108572Y-123976438D02*
X103144286Y-124012152D01*
X103144286Y-124012152D02*
X103180000Y-124083581D01*
X103180000Y-124083581D02*
X103180000Y-124155010D01*
X103180000Y-124155010D02*
X103144286Y-124262152D01*
X103144286Y-124262152D02*
X102715714Y-124690724D01*
X102715714Y-124690724D02*
X103180000Y-124690724D01*
X103501429Y-124405010D02*
X104072858Y-124405010D01*
X104858571Y-124690724D02*
X104608571Y-124333581D01*
X104430000Y-124690724D02*
X104430000Y-123940724D01*
X104430000Y-123940724D02*
X104715714Y-123940724D01*
X104715714Y-123940724D02*
X104787143Y-123976438D01*
X104787143Y-123976438D02*
X104822857Y-124012152D01*
X104822857Y-124012152D02*
X104858571Y-124083581D01*
X104858571Y-124083581D02*
X104858571Y-124190724D01*
X104858571Y-124190724D02*
X104822857Y-124262152D01*
X104822857Y-124262152D02*
X104787143Y-124297867D01*
X104787143Y-124297867D02*
X104715714Y-124333581D01*
X104715714Y-124333581D02*
X104430000Y-124333581D01*
X105322857Y-123940724D02*
X105465714Y-123940724D01*
X105465714Y-123940724D02*
X105537143Y-123976438D01*
X105537143Y-123976438D02*
X105608571Y-124047867D01*
X105608571Y-124047867D02*
X105644286Y-124190724D01*
X105644286Y-124190724D02*
X105644286Y-124440724D01*
X105644286Y-124440724D02*
X105608571Y-124583581D01*
X105608571Y-124583581D02*
X105537143Y-124655010D01*
X105537143Y-124655010D02*
X105465714Y-124690724D01*
X105465714Y-124690724D02*
X105322857Y-124690724D01*
X105322857Y-124690724D02*
X105251429Y-124655010D01*
X105251429Y-124655010D02*
X105180000Y-124583581D01*
X105180000Y-124583581D02*
X105144286Y-124440724D01*
X105144286Y-124440724D02*
X105144286Y-124190724D01*
X105144286Y-124190724D02*
X105180000Y-124047867D01*
X105180000Y-124047867D02*
X105251429Y-123976438D01*
X105251429Y-123976438D02*
X105322857Y-123940724D01*
X105894285Y-123940724D02*
X106072857Y-124690724D01*
X106072857Y-124690724D02*
X106215714Y-124155010D01*
X106215714Y-124155010D02*
X106358571Y-124690724D01*
X106358571Y-124690724D02*
X106537143Y-123940724D01*
X111685952Y-133489806D02*
X111419286Y-133489806D01*
X111419286Y-133908854D02*
X111419286Y-133108854D01*
X111419286Y-133108854D02*
X111800238Y-133108854D01*
X112219285Y-133908854D02*
X112143095Y-133870759D01*
X112143095Y-133870759D02*
X112105000Y-133794568D01*
X112105000Y-133794568D02*
X112105000Y-133108854D01*
X112828810Y-133870759D02*
X112752619Y-133908854D01*
X112752619Y-133908854D02*
X112600238Y-133908854D01*
X112600238Y-133908854D02*
X112524048Y-133870759D01*
X112524048Y-133870759D02*
X112485952Y-133794568D01*
X112485952Y-133794568D02*
X112485952Y-133489806D01*
X112485952Y-133489806D02*
X112524048Y-133413616D01*
X112524048Y-133413616D02*
X112600238Y-133375520D01*
X112600238Y-133375520D02*
X112752619Y-133375520D01*
X112752619Y-133375520D02*
X112828810Y-133413616D01*
X112828810Y-133413616D02*
X112866905Y-133489806D01*
X112866905Y-133489806D02*
X112866905Y-133565997D01*
X112866905Y-133565997D02*
X112485952Y-133642187D01*
X113133571Y-133908854D02*
X113552619Y-133375520D01*
X113133571Y-133375520D02*
X113552619Y-133908854D01*
X113857381Y-133908854D02*
X113857381Y-133375520D01*
X113857381Y-133108854D02*
X113819285Y-133146949D01*
X113819285Y-133146949D02*
X113857381Y-133185044D01*
X113857381Y-133185044D02*
X113895476Y-133146949D01*
X113895476Y-133146949D02*
X113857381Y-133108854D01*
X113857381Y-133108854D02*
X113857381Y-133185044D01*
X114124047Y-133108854D02*
X114581190Y-133108854D01*
X114352618Y-133908854D02*
X114352618Y-133108854D01*
X115190714Y-133908854D02*
X115190714Y-133489806D01*
X115190714Y-133489806D02*
X115152619Y-133413616D01*
X115152619Y-133413616D02*
X115076428Y-133375520D01*
X115076428Y-133375520D02*
X114924047Y-133375520D01*
X114924047Y-133375520D02*
X114847857Y-133413616D01*
X115190714Y-133870759D02*
X115114523Y-133908854D01*
X115114523Y-133908854D02*
X114924047Y-133908854D01*
X114924047Y-133908854D02*
X114847857Y-133870759D01*
X114847857Y-133870759D02*
X114809761Y-133794568D01*
X114809761Y-133794568D02*
X114809761Y-133718378D01*
X114809761Y-133718378D02*
X114847857Y-133642187D01*
X114847857Y-133642187D02*
X114924047Y-133604092D01*
X114924047Y-133604092D02*
X115114523Y-133604092D01*
X115114523Y-133604092D02*
X115190714Y-133565997D01*
X115914524Y-133870759D02*
X115838333Y-133908854D01*
X115838333Y-133908854D02*
X115685952Y-133908854D01*
X115685952Y-133908854D02*
X115609762Y-133870759D01*
X115609762Y-133870759D02*
X115571667Y-133832663D01*
X115571667Y-133832663D02*
X115533571Y-133756473D01*
X115533571Y-133756473D02*
X115533571Y-133527901D01*
X115533571Y-133527901D02*
X115571667Y-133451711D01*
X115571667Y-133451711D02*
X115609762Y-133413616D01*
X115609762Y-133413616D02*
X115685952Y-133375520D01*
X115685952Y-133375520D02*
X115838333Y-133375520D01*
X115838333Y-133375520D02*
X115914524Y-133413616D01*
X117133571Y-133489806D02*
X116866905Y-133489806D01*
X116866905Y-133908854D02*
X116866905Y-133108854D01*
X116866905Y-133108854D02*
X117247857Y-133108854D01*
X117705000Y-133108854D02*
X117857381Y-133108854D01*
X117857381Y-133108854D02*
X117933571Y-133146949D01*
X117933571Y-133146949D02*
X118009762Y-133223139D01*
X118009762Y-133223139D02*
X118047857Y-133375520D01*
X118047857Y-133375520D02*
X118047857Y-133642187D01*
X118047857Y-133642187D02*
X118009762Y-133794568D01*
X118009762Y-133794568D02*
X117933571Y-133870759D01*
X117933571Y-133870759D02*
X117857381Y-133908854D01*
X117857381Y-133908854D02*
X117705000Y-133908854D01*
X117705000Y-133908854D02*
X117628809Y-133870759D01*
X117628809Y-133870759D02*
X117552619Y-133794568D01*
X117552619Y-133794568D02*
X117514523Y-133642187D01*
X117514523Y-133642187D02*
X117514523Y-133375520D01*
X117514523Y-133375520D02*
X117552619Y-133223139D01*
X117552619Y-133223139D02*
X117628809Y-133146949D01*
X117628809Y-133146949D02*
X117705000Y-133108854D01*
X118847857Y-133908854D02*
X118581190Y-133527901D01*
X118390714Y-133908854D02*
X118390714Y-133108854D01*
X118390714Y-133108854D02*
X118695476Y-133108854D01*
X118695476Y-133108854D02*
X118771666Y-133146949D01*
X118771666Y-133146949D02*
X118809761Y-133185044D01*
X118809761Y-133185044D02*
X118847857Y-133261235D01*
X118847857Y-133261235D02*
X118847857Y-133375520D01*
X118847857Y-133375520D02*
X118809761Y-133451711D01*
X118809761Y-133451711D02*
X118771666Y-133489806D01*
X118771666Y-133489806D02*
X118695476Y-133527901D01*
X118695476Y-133527901D02*
X118390714Y-133527901D01*
X119190714Y-133908854D02*
X119190714Y-133108854D01*
X119647857Y-133908854D02*
X119304999Y-133451711D01*
X119647857Y-133108854D02*
X119190714Y-133565997D01*
X120524047Y-133375520D02*
X120714523Y-133908854D01*
X120714523Y-133908854D02*
X120905000Y-133375520D01*
X121171666Y-133185044D02*
X121209762Y-133146949D01*
X121209762Y-133146949D02*
X121285952Y-133108854D01*
X121285952Y-133108854D02*
X121476428Y-133108854D01*
X121476428Y-133108854D02*
X121552619Y-133146949D01*
X121552619Y-133146949D02*
X121590714Y-133185044D01*
X121590714Y-133185044D02*
X121628809Y-133261235D01*
X121628809Y-133261235D02*
X121628809Y-133337425D01*
X121628809Y-133337425D02*
X121590714Y-133451711D01*
X121590714Y-133451711D02*
X121133571Y-133908854D01*
X121133571Y-133908854D02*
X121628809Y-133908854D01*
G04 #@! TO.C,J4*
X110350000Y-123700000D02*
X110350000Y-125040000D01*
X110350000Y-127760000D02*
X110350000Y-129500000D01*
X110350000Y-129500000D02*
X129650000Y-129500000D01*
X111840000Y-123700000D02*
X110350000Y-123700000D01*
X111840000Y-123700000D02*
X111840000Y-122500000D01*
X128160000Y-123700000D02*
X129650000Y-123700000D01*
X129650000Y-123700000D02*
X129650000Y-125040000D01*
X129650000Y-129500000D02*
X129650000Y-127760000D01*
G04 #@! TO.C,J1*
X110350000Y-115200000D02*
X110350000Y-116540000D01*
X110350000Y-119260000D02*
X110350000Y-121000000D01*
X110350000Y-121000000D02*
X129650000Y-121000000D01*
X111840000Y-115200000D02*
X110350000Y-115200000D01*
X111840000Y-115200000D02*
X111840000Y-114000000D01*
X128160000Y-115200000D02*
X129650000Y-115200000D01*
X129650000Y-115200000D02*
X129650000Y-116540000D01*
X129650000Y-121000000D02*
X129650000Y-119260000D01*
G04 #@! TO.C,J3*
X110350000Y-106700000D02*
X110350000Y-108040000D01*
X110350000Y-110760000D02*
X110350000Y-112500000D01*
X110350000Y-112500000D02*
X129650000Y-112500000D01*
X111840000Y-106700000D02*
X110350000Y-106700000D01*
X111840000Y-106700000D02*
X111840000Y-105500000D01*
X128160000Y-106700000D02*
X129650000Y-106700000D01*
X129650000Y-106700000D02*
X129650000Y-108040000D01*
X129650000Y-112500000D02*
X129650000Y-110760000D01*
G04 #@! TD*
%LPC*%
D11*
G04 #@! TO.C,H2*
X128604999Y-133445000D03*
G04 #@! TD*
D12*
G04 #@! TO.C,J4*
X112250000Y-123150000D03*
X112750000Y-123150000D03*
X113250000Y-123150000D03*
X113750000Y-123150000D03*
X114250000Y-123150000D03*
X114750000Y-123150000D03*
X115250000Y-123150000D03*
X115750000Y-123150000D03*
X116250000Y-123150000D03*
X116750000Y-123150000D03*
X117250000Y-123150000D03*
X117750000Y-123150000D03*
X118250000Y-123150000D03*
X118750000Y-123150000D03*
X119250000Y-123150000D03*
X119750000Y-123150000D03*
X120250000Y-123150000D03*
X120750000Y-123150000D03*
X121250000Y-123150000D03*
X121750000Y-123150000D03*
X122250000Y-123150000D03*
X122750000Y-123150000D03*
X123250000Y-123150000D03*
X123750000Y-123150000D03*
X124250000Y-123150000D03*
X124750000Y-123150000D03*
X125250000Y-123150000D03*
X125750000Y-123150000D03*
X126250000Y-123150000D03*
X126750000Y-123150000D03*
X127250000Y-123150000D03*
X127750000Y-123150000D03*
D13*
X110350000Y-126400000D03*
X129650000Y-126400000D03*
G04 #@! TD*
D12*
G04 #@! TO.C,J1*
X112250000Y-114650000D03*
X112750000Y-114650000D03*
X113250000Y-114650000D03*
X113750000Y-114650000D03*
X114250000Y-114650000D03*
X114750000Y-114650000D03*
X115250000Y-114650000D03*
X115750000Y-114650000D03*
X116250000Y-114650000D03*
X116750000Y-114650000D03*
X117250000Y-114650000D03*
X117750000Y-114650000D03*
X118250000Y-114650000D03*
X118750000Y-114650000D03*
X119250000Y-114650000D03*
X119750000Y-114650000D03*
X120250000Y-114650000D03*
X120750000Y-114650000D03*
X121250000Y-114650000D03*
X121750000Y-114650000D03*
X122250000Y-114650000D03*
X122750000Y-114650000D03*
X123250000Y-114650000D03*
X123750000Y-114650000D03*
X124250000Y-114650000D03*
X124750000Y-114650000D03*
X125250000Y-114650000D03*
X125750000Y-114650000D03*
X126250000Y-114650000D03*
X126750000Y-114650000D03*
X127250000Y-114650000D03*
X127750000Y-114650000D03*
D13*
X110350000Y-117900000D03*
X129650000Y-117900000D03*
G04 #@! TD*
D11*
G04 #@! TO.C,H1*
X104405000Y-133445000D03*
G04 #@! TD*
D12*
G04 #@! TO.C,J3*
X112250000Y-106150000D03*
X112750000Y-106150000D03*
X113250000Y-106150000D03*
X113750000Y-106150000D03*
X114250000Y-106150000D03*
X114750000Y-106150000D03*
X115250000Y-106150000D03*
X115750000Y-106150000D03*
X116250000Y-106150000D03*
X116750000Y-106150000D03*
X117250000Y-106150000D03*
X117750000Y-106150000D03*
X118250000Y-106150000D03*
X118750000Y-106150000D03*
X119250000Y-106150000D03*
X119750000Y-106150000D03*
X120250000Y-106150000D03*
X120750000Y-106150000D03*
X121250000Y-106150000D03*
X121750000Y-106150000D03*
X122250000Y-106150000D03*
X122750000Y-106150000D03*
X123250000Y-106150000D03*
X123750000Y-106150000D03*
X124250000Y-106150000D03*
X124750000Y-106150000D03*
X125250000Y-106150000D03*
X125750000Y-106150000D03*
X126250000Y-106150000D03*
X126750000Y-106150000D03*
X127250000Y-106150000D03*
X127750000Y-106150000D03*
D13*
X110350000Y-109400000D03*
X129650000Y-109400000D03*
G04 #@! TD*
%LPD*%
M02*
