G04 #@! TF.GenerationSoftware,KiCad,Pcbnew,10.0.5*
G04 #@! TF.CreationDate,2026-08-06T17:51:33-04:00*
G04 #@! TF.ProjectId,FlexiTac_Fork_Adapter,466c6578-6954-4616-935f-466f726b5f41,rev?*
G04 #@! TF.SameCoordinates,Original*
G04 #@! TF.FileFunction,Paste,Bot*
G04 #@! TF.FilePolarity,Positive*
%FSLAX46Y46*%
G04 Gerber Fmt 4.6, Leading zero omitted, Abs format (unit mm)*
G04 Created by KiCad (PCBNEW 10.0.5) date 2026-08-06 17:51:33*
%MOMM*%
%LPD*%
G01*
G04 APERTURE LIST*
%ADD10R,0.300000X1.300000*%
%ADD11R,1.800000X2.200000*%
G04 APERTURE END LIST*
D10*
G04 #@! TO.C,J6*
X119750000Y-123150000D03*
X119250000Y-123150000D03*
X118750000Y-123150000D03*
X118250000Y-123150000D03*
X117750000Y-123150000D03*
X117250000Y-123150000D03*
X116750000Y-123150000D03*
X116250000Y-123150000D03*
X115750000Y-123150000D03*
X115250000Y-123150000D03*
X114750000Y-123150000D03*
X114250000Y-123150000D03*
D11*
X121650000Y-126400000D03*
X112350000Y-126400000D03*
G04 #@! TD*
D10*
G04 #@! TO.C,J2*
X127750000Y-114650000D03*
X127250000Y-114650000D03*
X126750000Y-114650000D03*
X126250000Y-114650000D03*
X125750000Y-114650000D03*
X125250000Y-114650000D03*
X124750000Y-114650000D03*
X124250000Y-114650000D03*
X123750000Y-114650000D03*
X123250000Y-114650000D03*
X122750000Y-114650000D03*
X122250000Y-114650000D03*
X121750000Y-114650000D03*
X121250000Y-114650000D03*
X120750000Y-114650000D03*
X120250000Y-114650000D03*
X119750000Y-114650000D03*
X119250000Y-114650000D03*
X118750000Y-114650000D03*
X118250000Y-114650000D03*
X117750000Y-114650000D03*
X117250000Y-114650000D03*
X116750000Y-114650000D03*
X116250000Y-114650000D03*
X115750000Y-114650000D03*
X115250000Y-114650000D03*
X114750000Y-114650000D03*
X114250000Y-114650000D03*
X113750000Y-114650000D03*
X113250000Y-114650000D03*
X112750000Y-114650000D03*
X112250000Y-114650000D03*
D11*
X129650000Y-117900000D03*
X110350000Y-117900000D03*
G04 #@! TD*
D10*
G04 #@! TO.C,J5*
X127750000Y-106150000D03*
X127250000Y-106150000D03*
X126750000Y-106150000D03*
X126250000Y-106150000D03*
X125750000Y-106150000D03*
X125250000Y-106150000D03*
X124750000Y-106150000D03*
X124250000Y-106150000D03*
X123750000Y-106150000D03*
X123250000Y-106150000D03*
X122750000Y-106150000D03*
X122250000Y-106150000D03*
D11*
X129650000Y-109400000D03*
X120350000Y-109400000D03*
G04 #@! TD*
M02*
