%TF.GenerationSoftware,KiCad,Pcbnew,10.0.5*%
%TF.CreationDate,2026-08-06T13:52:57-04:00*%
%TF.ProjectId,Flexitac 2.0,466c6578-6974-4616-9320-322e302e6b69,rev?*%
%TF.SameCoordinates,Original*%
%TF.FileFunction,AssemblyDrawing,Top*%
%FSLAX46Y46*%
G04 Gerber Fmt 4.6, Leading zero omitted, Abs format (unit mm)*
G04 Created by KiCad (PCBNEW 10.0.5) date 2026-08-06 13:52:57*
%MOMM*%
%LPD*%
G01*
G04 APERTURE LIST*
%ADD10C,0.080000*%
%ADD11C,0.150000*%
%ADD12C,0.060000*%
%ADD13C,0.100000*%
%ADD14C,0.110000*%
G04 APERTURE END LIST*
D10*
X137792857Y-145227149D02*
X137507143Y-145227149D01*
X137650000Y-145227149D02*
X137650000Y-144727149D01*
X137650000Y-144727149D02*
X137602381Y-144798578D01*
X137602381Y-144798578D02*
X137554762Y-144846197D01*
X137554762Y-144846197D02*
X137507143Y-144870006D01*
X137983333Y-144774768D02*
X138007142Y-144750959D01*
X138007142Y-144750959D02*
X138054761Y-144727149D01*
X138054761Y-144727149D02*
X138173809Y-144727149D01*
X138173809Y-144727149D02*
X138221428Y-144750959D01*
X138221428Y-144750959D02*
X138245237Y-144774768D01*
X138245237Y-144774768D02*
X138269047Y-144822387D01*
X138269047Y-144822387D02*
X138269047Y-144870006D01*
X138269047Y-144870006D02*
X138245237Y-144941435D01*
X138245237Y-144941435D02*
X137959523Y-145227149D01*
X137959523Y-145227149D02*
X138269047Y-145227149D01*
X138435713Y-144893816D02*
X138530951Y-145227149D01*
X138530951Y-145227149D02*
X138626189Y-144989054D01*
X138626189Y-144989054D02*
X138721427Y-145227149D01*
X138721427Y-145227149D02*
X138816665Y-144893816D01*
D11*
X138166666Y-145154819D02*
X138166666Y-145869104D01*
X138166666Y-145869104D02*
X138119047Y-146011961D01*
X138119047Y-146011961D02*
X138023809Y-146107200D01*
X138023809Y-146107200D02*
X137880952Y-146154819D01*
X137880952Y-146154819D02*
X137785714Y-146154819D01*
X138595238Y-145250057D02*
X138642857Y-145202438D01*
X138642857Y-145202438D02*
X138738095Y-145154819D01*
X138738095Y-145154819D02*
X138976190Y-145154819D01*
X138976190Y-145154819D02*
X139071428Y-145202438D01*
X139071428Y-145202438D02*
X139119047Y-145250057D01*
X139119047Y-145250057D02*
X139166666Y-145345295D01*
X139166666Y-145345295D02*
X139166666Y-145440533D01*
X139166666Y-145440533D02*
X139119047Y-145583390D01*
X139119047Y-145583390D02*
X138547619Y-146154819D01*
X138547619Y-146154819D02*
X139166666Y-146154819D01*
D10*
X139792857Y-145227149D02*
X139507143Y-145227149D01*
X139650000Y-145227149D02*
X139650000Y-144727149D01*
X139650000Y-144727149D02*
X139602381Y-144798578D01*
X139602381Y-144798578D02*
X139554762Y-144846197D01*
X139554762Y-144846197D02*
X139507143Y-144870006D01*
X140221428Y-144727149D02*
X140126190Y-144727149D01*
X140126190Y-144727149D02*
X140078571Y-144750959D01*
X140078571Y-144750959D02*
X140054761Y-144774768D01*
X140054761Y-144774768D02*
X140007142Y-144846197D01*
X140007142Y-144846197D02*
X139983333Y-144941435D01*
X139983333Y-144941435D02*
X139983333Y-145131911D01*
X139983333Y-145131911D02*
X140007142Y-145179530D01*
X140007142Y-145179530D02*
X140030952Y-145203340D01*
X140030952Y-145203340D02*
X140078571Y-145227149D01*
X140078571Y-145227149D02*
X140173809Y-145227149D01*
X140173809Y-145227149D02*
X140221428Y-145203340D01*
X140221428Y-145203340D02*
X140245237Y-145179530D01*
X140245237Y-145179530D02*
X140269047Y-145131911D01*
X140269047Y-145131911D02*
X140269047Y-145012863D01*
X140269047Y-145012863D02*
X140245237Y-144965244D01*
X140245237Y-144965244D02*
X140221428Y-144941435D01*
X140221428Y-144941435D02*
X140173809Y-144917625D01*
X140173809Y-144917625D02*
X140078571Y-144917625D01*
X140078571Y-144917625D02*
X140030952Y-144941435D01*
X140030952Y-144941435D02*
X140007142Y-144965244D01*
X140007142Y-144965244D02*
X139983333Y-145012863D01*
X140435713Y-144893816D02*
X140530951Y-145227149D01*
X140530951Y-145227149D02*
X140626189Y-144989054D01*
X140626189Y-144989054D02*
X140721427Y-145227149D01*
X140721427Y-145227149D02*
X140816665Y-144893816D01*
D11*
X107238095Y-116454819D02*
X107238095Y-117264342D01*
X107238095Y-117264342D02*
X107285714Y-117359580D01*
X107285714Y-117359580D02*
X107333333Y-117407200D01*
X107333333Y-117407200D02*
X107428571Y-117454819D01*
X107428571Y-117454819D02*
X107619047Y-117454819D01*
X107619047Y-117454819D02*
X107714285Y-117407200D01*
X107714285Y-117407200D02*
X107761904Y-117359580D01*
X107761904Y-117359580D02*
X107809523Y-117264342D01*
X107809523Y-117264342D02*
X107809523Y-116454819D01*
X108190476Y-116454819D02*
X108809523Y-116454819D01*
X108809523Y-116454819D02*
X108476190Y-116835771D01*
X108476190Y-116835771D02*
X108619047Y-116835771D01*
X108619047Y-116835771D02*
X108714285Y-116883390D01*
X108714285Y-116883390D02*
X108761904Y-116931009D01*
X108761904Y-116931009D02*
X108809523Y-117026247D01*
X108809523Y-117026247D02*
X108809523Y-117264342D01*
X108809523Y-117264342D02*
X108761904Y-117359580D01*
X108761904Y-117359580D02*
X108714285Y-117407200D01*
X108714285Y-117407200D02*
X108619047Y-117454819D01*
X108619047Y-117454819D02*
X108333333Y-117454819D01*
X108333333Y-117454819D02*
X108238095Y-117407200D01*
X108238095Y-117407200D02*
X108190476Y-117359580D01*
D10*
X112792857Y-145227149D02*
X112507143Y-145227149D01*
X112650000Y-145227149D02*
X112650000Y-144727149D01*
X112650000Y-144727149D02*
X112602381Y-144798578D01*
X112602381Y-144798578D02*
X112554762Y-144846197D01*
X112554762Y-144846197D02*
X112507143Y-144870006D01*
X112983333Y-144774768D02*
X113007142Y-144750959D01*
X113007142Y-144750959D02*
X113054761Y-144727149D01*
X113054761Y-144727149D02*
X113173809Y-144727149D01*
X113173809Y-144727149D02*
X113221428Y-144750959D01*
X113221428Y-144750959D02*
X113245237Y-144774768D01*
X113245237Y-144774768D02*
X113269047Y-144822387D01*
X113269047Y-144822387D02*
X113269047Y-144870006D01*
X113269047Y-144870006D02*
X113245237Y-144941435D01*
X113245237Y-144941435D02*
X112959523Y-145227149D01*
X112959523Y-145227149D02*
X113269047Y-145227149D01*
X113435713Y-144893816D02*
X113530951Y-145227149D01*
X113530951Y-145227149D02*
X113626189Y-144989054D01*
X113626189Y-144989054D02*
X113721427Y-145227149D01*
X113721427Y-145227149D02*
X113816665Y-144893816D01*
D11*
X113166666Y-145154819D02*
X113166666Y-145869104D01*
X113166666Y-145869104D02*
X113119047Y-146011961D01*
X113119047Y-146011961D02*
X113023809Y-146107200D01*
X113023809Y-146107200D02*
X112880952Y-146154819D01*
X112880952Y-146154819D02*
X112785714Y-146154819D01*
X114166666Y-146154819D02*
X113595238Y-146154819D01*
X113880952Y-146154819D02*
X113880952Y-145154819D01*
X113880952Y-145154819D02*
X113785714Y-145297676D01*
X113785714Y-145297676D02*
X113690476Y-145392914D01*
X113690476Y-145392914D02*
X113595238Y-145440533D01*
D10*
X114792857Y-145227149D02*
X114507143Y-145227149D01*
X114650000Y-145227149D02*
X114650000Y-144727149D01*
X114650000Y-144727149D02*
X114602381Y-144798578D01*
X114602381Y-144798578D02*
X114554762Y-144846197D01*
X114554762Y-144846197D02*
X114507143Y-144870006D01*
X115221428Y-144727149D02*
X115126190Y-144727149D01*
X115126190Y-144727149D02*
X115078571Y-144750959D01*
X115078571Y-144750959D02*
X115054761Y-144774768D01*
X115054761Y-144774768D02*
X115007142Y-144846197D01*
X115007142Y-144846197D02*
X114983333Y-144941435D01*
X114983333Y-144941435D02*
X114983333Y-145131911D01*
X114983333Y-145131911D02*
X115007142Y-145179530D01*
X115007142Y-145179530D02*
X115030952Y-145203340D01*
X115030952Y-145203340D02*
X115078571Y-145227149D01*
X115078571Y-145227149D02*
X115173809Y-145227149D01*
X115173809Y-145227149D02*
X115221428Y-145203340D01*
X115221428Y-145203340D02*
X115245237Y-145179530D01*
X115245237Y-145179530D02*
X115269047Y-145131911D01*
X115269047Y-145131911D02*
X115269047Y-145012863D01*
X115269047Y-145012863D02*
X115245237Y-144965244D01*
X115245237Y-144965244D02*
X115221428Y-144941435D01*
X115221428Y-144941435D02*
X115173809Y-144917625D01*
X115173809Y-144917625D02*
X115078571Y-144917625D01*
X115078571Y-144917625D02*
X115030952Y-144941435D01*
X115030952Y-144941435D02*
X115007142Y-144965244D01*
X115007142Y-144965244D02*
X114983333Y-145012863D01*
X115435713Y-144893816D02*
X115530951Y-145227149D01*
X115530951Y-145227149D02*
X115626189Y-144989054D01*
X115626189Y-144989054D02*
X115721427Y-145227149D01*
X115721427Y-145227149D02*
X115816665Y-144893816D01*
D12*
X102933333Y-123143832D02*
X102914285Y-123162880D01*
X102914285Y-123162880D02*
X102857143Y-123181927D01*
X102857143Y-123181927D02*
X102819047Y-123181927D01*
X102819047Y-123181927D02*
X102761904Y-123162880D01*
X102761904Y-123162880D02*
X102723809Y-123124784D01*
X102723809Y-123124784D02*
X102704762Y-123086689D01*
X102704762Y-123086689D02*
X102685714Y-123010499D01*
X102685714Y-123010499D02*
X102685714Y-122953356D01*
X102685714Y-122953356D02*
X102704762Y-122877165D01*
X102704762Y-122877165D02*
X102723809Y-122839070D01*
X102723809Y-122839070D02*
X102761904Y-122800975D01*
X102761904Y-122800975D02*
X102819047Y-122781927D01*
X102819047Y-122781927D02*
X102857143Y-122781927D01*
X102857143Y-122781927D02*
X102914285Y-122800975D01*
X102914285Y-122800975D02*
X102933333Y-122820022D01*
X103295238Y-122781927D02*
X103104762Y-122781927D01*
X103104762Y-122781927D02*
X103085714Y-122972403D01*
X103085714Y-122972403D02*
X103104762Y-122953356D01*
X103104762Y-122953356D02*
X103142857Y-122934308D01*
X103142857Y-122934308D02*
X103238095Y-122934308D01*
X103238095Y-122934308D02*
X103276190Y-122953356D01*
X103276190Y-122953356D02*
X103295238Y-122972403D01*
X103295238Y-122972403D02*
X103314285Y-123010499D01*
X103314285Y-123010499D02*
X103314285Y-123105737D01*
X103314285Y-123105737D02*
X103295238Y-123143832D01*
X103295238Y-123143832D02*
X103276190Y-123162880D01*
X103276190Y-123162880D02*
X103238095Y-123181927D01*
X103238095Y-123181927D02*
X103142857Y-123181927D01*
X103142857Y-123181927D02*
X103104762Y-123162880D01*
X103104762Y-123162880D02*
X103085714Y-123143832D01*
D13*
X124701353Y-108652371D02*
X124701353Y-108052371D01*
X124701353Y-108052371D02*
X124844210Y-108052371D01*
X124844210Y-108052371D02*
X124929924Y-108080942D01*
X124929924Y-108080942D02*
X124987067Y-108138085D01*
X124987067Y-108138085D02*
X125015638Y-108195228D01*
X125015638Y-108195228D02*
X125044210Y-108309514D01*
X125044210Y-108309514D02*
X125044210Y-108395228D01*
X125044210Y-108395228D02*
X125015638Y-108509514D01*
X125015638Y-108509514D02*
X124987067Y-108566657D01*
X124987067Y-108566657D02*
X124929924Y-108623800D01*
X124929924Y-108623800D02*
X124844210Y-108652371D01*
X124844210Y-108652371D02*
X124701353Y-108652371D01*
X125415638Y-108052371D02*
X125472781Y-108052371D01*
X125472781Y-108052371D02*
X125529924Y-108080942D01*
X125529924Y-108080942D02*
X125558496Y-108109514D01*
X125558496Y-108109514D02*
X125587067Y-108166657D01*
X125587067Y-108166657D02*
X125615638Y-108280942D01*
X125615638Y-108280942D02*
X125615638Y-108423800D01*
X125615638Y-108423800D02*
X125587067Y-108538085D01*
X125587067Y-108538085D02*
X125558496Y-108595228D01*
X125558496Y-108595228D02*
X125529924Y-108623800D01*
X125529924Y-108623800D02*
X125472781Y-108652371D01*
X125472781Y-108652371D02*
X125415638Y-108652371D01*
X125415638Y-108652371D02*
X125358496Y-108623800D01*
X125358496Y-108623800D02*
X125329924Y-108595228D01*
X125329924Y-108595228D02*
X125301353Y-108538085D01*
X125301353Y-108538085D02*
X125272781Y-108423800D01*
X125272781Y-108423800D02*
X125272781Y-108280942D01*
X125272781Y-108280942D02*
X125301353Y-108166657D01*
X125301353Y-108166657D02*
X125329924Y-108109514D01*
X125329924Y-108109514D02*
X125358496Y-108080942D01*
X125358496Y-108080942D02*
X125415638Y-108052371D01*
X126301353Y-108023800D02*
X125787067Y-108795228D01*
X126472781Y-108480942D02*
X126758496Y-108480942D01*
X126415638Y-108652371D02*
X126615638Y-108052371D01*
X126615638Y-108052371D02*
X126815638Y-108652371D01*
X127129924Y-108052371D02*
X127187067Y-108052371D01*
X127187067Y-108052371D02*
X127244210Y-108080942D01*
X127244210Y-108080942D02*
X127272782Y-108109514D01*
X127272782Y-108109514D02*
X127301353Y-108166657D01*
X127301353Y-108166657D02*
X127329924Y-108280942D01*
X127329924Y-108280942D02*
X127329924Y-108423800D01*
X127329924Y-108423800D02*
X127301353Y-108538085D01*
X127301353Y-108538085D02*
X127272782Y-108595228D01*
X127272782Y-108595228D02*
X127244210Y-108623800D01*
X127244210Y-108623800D02*
X127187067Y-108652371D01*
X127187067Y-108652371D02*
X127129924Y-108652371D01*
X127129924Y-108652371D02*
X127072782Y-108623800D01*
X127072782Y-108623800D02*
X127044210Y-108595228D01*
X127044210Y-108595228D02*
X127015639Y-108538085D01*
X127015639Y-108538085D02*
X126987067Y-108423800D01*
X126987067Y-108423800D02*
X126987067Y-108280942D01*
X126987067Y-108280942D02*
X127015639Y-108166657D01*
X127015639Y-108166657D02*
X127044210Y-108109514D01*
X127044210Y-108109514D02*
X127072782Y-108080942D01*
X127072782Y-108080942D02*
X127129924Y-108052371D01*
X124701353Y-111192371D02*
X124701353Y-110592371D01*
X124701353Y-110592371D02*
X124844210Y-110592371D01*
X124844210Y-110592371D02*
X124929924Y-110620942D01*
X124929924Y-110620942D02*
X124987067Y-110678085D01*
X124987067Y-110678085D02*
X125015638Y-110735228D01*
X125015638Y-110735228D02*
X125044210Y-110849514D01*
X125044210Y-110849514D02*
X125044210Y-110935228D01*
X125044210Y-110935228D02*
X125015638Y-111049514D01*
X125015638Y-111049514D02*
X124987067Y-111106657D01*
X124987067Y-111106657D02*
X124929924Y-111163800D01*
X124929924Y-111163800D02*
X124844210Y-111192371D01*
X124844210Y-111192371D02*
X124701353Y-111192371D01*
X125615638Y-111192371D02*
X125272781Y-111192371D01*
X125444210Y-111192371D02*
X125444210Y-110592371D01*
X125444210Y-110592371D02*
X125387067Y-110678085D01*
X125387067Y-110678085D02*
X125329924Y-110735228D01*
X125329924Y-110735228D02*
X125272781Y-110763800D01*
X126301353Y-110563800D02*
X125787067Y-111335228D01*
X126472781Y-111020942D02*
X126758496Y-111020942D01*
X126415638Y-111192371D02*
X126615638Y-110592371D01*
X126615638Y-110592371D02*
X126815638Y-111192371D01*
X127329924Y-111192371D02*
X126987067Y-111192371D01*
X127158496Y-111192371D02*
X127158496Y-110592371D01*
X127158496Y-110592371D02*
X127101353Y-110678085D01*
X127101353Y-110678085D02*
X127044210Y-110735228D01*
X127044210Y-110735228D02*
X126987067Y-110763800D01*
X124701353Y-113732371D02*
X124701353Y-113132371D01*
X124701353Y-113132371D02*
X124844210Y-113132371D01*
X124844210Y-113132371D02*
X124929924Y-113160942D01*
X124929924Y-113160942D02*
X124987067Y-113218085D01*
X124987067Y-113218085D02*
X125015638Y-113275228D01*
X125015638Y-113275228D02*
X125044210Y-113389514D01*
X125044210Y-113389514D02*
X125044210Y-113475228D01*
X125044210Y-113475228D02*
X125015638Y-113589514D01*
X125015638Y-113589514D02*
X124987067Y-113646657D01*
X124987067Y-113646657D02*
X124929924Y-113703800D01*
X124929924Y-113703800D02*
X124844210Y-113732371D01*
X124844210Y-113732371D02*
X124701353Y-113732371D01*
X125272781Y-113189514D02*
X125301353Y-113160942D01*
X125301353Y-113160942D02*
X125358496Y-113132371D01*
X125358496Y-113132371D02*
X125501353Y-113132371D01*
X125501353Y-113132371D02*
X125558496Y-113160942D01*
X125558496Y-113160942D02*
X125587067Y-113189514D01*
X125587067Y-113189514D02*
X125615638Y-113246657D01*
X125615638Y-113246657D02*
X125615638Y-113303800D01*
X125615638Y-113303800D02*
X125587067Y-113389514D01*
X125587067Y-113389514D02*
X125244210Y-113732371D01*
X125244210Y-113732371D02*
X125615638Y-113732371D01*
X126301353Y-113103800D02*
X125787067Y-113875228D01*
X126472781Y-113560942D02*
X126758496Y-113560942D01*
X126415638Y-113732371D02*
X126615638Y-113132371D01*
X126615638Y-113132371D02*
X126815638Y-113732371D01*
X126987067Y-113189514D02*
X127015639Y-113160942D01*
X127015639Y-113160942D02*
X127072782Y-113132371D01*
X127072782Y-113132371D02*
X127215639Y-113132371D01*
X127215639Y-113132371D02*
X127272782Y-113160942D01*
X127272782Y-113160942D02*
X127301353Y-113189514D01*
X127301353Y-113189514D02*
X127329924Y-113246657D01*
X127329924Y-113246657D02*
X127329924Y-113303800D01*
X127329924Y-113303800D02*
X127301353Y-113389514D01*
X127301353Y-113389514D02*
X126958496Y-113732371D01*
X126958496Y-113732371D02*
X127329924Y-113732371D01*
X126415639Y-116272371D02*
X126415639Y-115672371D01*
X126415639Y-115672371D02*
X126558496Y-115672371D01*
X126558496Y-115672371D02*
X126644210Y-115700942D01*
X126644210Y-115700942D02*
X126701353Y-115758085D01*
X126701353Y-115758085D02*
X126729924Y-115815228D01*
X126729924Y-115815228D02*
X126758496Y-115929514D01*
X126758496Y-115929514D02*
X126758496Y-116015228D01*
X126758496Y-116015228D02*
X126729924Y-116129514D01*
X126729924Y-116129514D02*
X126701353Y-116186657D01*
X126701353Y-116186657D02*
X126644210Y-116243800D01*
X126644210Y-116243800D02*
X126558496Y-116272371D01*
X126558496Y-116272371D02*
X126415639Y-116272371D01*
X126958496Y-115672371D02*
X127329924Y-115672371D01*
X127329924Y-115672371D02*
X127129924Y-115900942D01*
X127129924Y-115900942D02*
X127215639Y-115900942D01*
X127215639Y-115900942D02*
X127272782Y-115929514D01*
X127272782Y-115929514D02*
X127301353Y-115958085D01*
X127301353Y-115958085D02*
X127329924Y-116015228D01*
X127329924Y-116015228D02*
X127329924Y-116158085D01*
X127329924Y-116158085D02*
X127301353Y-116215228D01*
X127301353Y-116215228D02*
X127272782Y-116243800D01*
X127272782Y-116243800D02*
X127215639Y-116272371D01*
X127215639Y-116272371D02*
X127044210Y-116272371D01*
X127044210Y-116272371D02*
X126987067Y-116243800D01*
X126987067Y-116243800D02*
X126958496Y-116215228D01*
X126415639Y-118812371D02*
X126415639Y-118212371D01*
X126415639Y-118212371D02*
X126558496Y-118212371D01*
X126558496Y-118212371D02*
X126644210Y-118240942D01*
X126644210Y-118240942D02*
X126701353Y-118298085D01*
X126701353Y-118298085D02*
X126729924Y-118355228D01*
X126729924Y-118355228D02*
X126758496Y-118469514D01*
X126758496Y-118469514D02*
X126758496Y-118555228D01*
X126758496Y-118555228D02*
X126729924Y-118669514D01*
X126729924Y-118669514D02*
X126701353Y-118726657D01*
X126701353Y-118726657D02*
X126644210Y-118783800D01*
X126644210Y-118783800D02*
X126558496Y-118812371D01*
X126558496Y-118812371D02*
X126415639Y-118812371D01*
X127272782Y-118412371D02*
X127272782Y-118812371D01*
X127129924Y-118183800D02*
X126987067Y-118612371D01*
X126987067Y-118612371D02*
X127358496Y-118612371D01*
X126415639Y-121352371D02*
X126415639Y-120752371D01*
X126415639Y-120752371D02*
X126558496Y-120752371D01*
X126558496Y-120752371D02*
X126644210Y-120780942D01*
X126644210Y-120780942D02*
X126701353Y-120838085D01*
X126701353Y-120838085D02*
X126729924Y-120895228D01*
X126729924Y-120895228D02*
X126758496Y-121009514D01*
X126758496Y-121009514D02*
X126758496Y-121095228D01*
X126758496Y-121095228D02*
X126729924Y-121209514D01*
X126729924Y-121209514D02*
X126701353Y-121266657D01*
X126701353Y-121266657D02*
X126644210Y-121323800D01*
X126644210Y-121323800D02*
X126558496Y-121352371D01*
X126558496Y-121352371D02*
X126415639Y-121352371D01*
X127301353Y-120752371D02*
X127015639Y-120752371D01*
X127015639Y-120752371D02*
X126987067Y-121038085D01*
X126987067Y-121038085D02*
X127015639Y-121009514D01*
X127015639Y-121009514D02*
X127072782Y-120980942D01*
X127072782Y-120980942D02*
X127215639Y-120980942D01*
X127215639Y-120980942D02*
X127272782Y-121009514D01*
X127272782Y-121009514D02*
X127301353Y-121038085D01*
X127301353Y-121038085D02*
X127329924Y-121095228D01*
X127329924Y-121095228D02*
X127329924Y-121238085D01*
X127329924Y-121238085D02*
X127301353Y-121295228D01*
X127301353Y-121295228D02*
X127272782Y-121323800D01*
X127272782Y-121323800D02*
X127215639Y-121352371D01*
X127215639Y-121352371D02*
X127072782Y-121352371D01*
X127072782Y-121352371D02*
X127015639Y-121323800D01*
X127015639Y-121323800D02*
X126987067Y-121295228D01*
X126415639Y-123892371D02*
X126415639Y-123292371D01*
X126415639Y-123292371D02*
X126558496Y-123292371D01*
X126558496Y-123292371D02*
X126644210Y-123320942D01*
X126644210Y-123320942D02*
X126701353Y-123378085D01*
X126701353Y-123378085D02*
X126729924Y-123435228D01*
X126729924Y-123435228D02*
X126758496Y-123549514D01*
X126758496Y-123549514D02*
X126758496Y-123635228D01*
X126758496Y-123635228D02*
X126729924Y-123749514D01*
X126729924Y-123749514D02*
X126701353Y-123806657D01*
X126701353Y-123806657D02*
X126644210Y-123863800D01*
X126644210Y-123863800D02*
X126558496Y-123892371D01*
X126558496Y-123892371D02*
X126415639Y-123892371D01*
X127272782Y-123292371D02*
X127158496Y-123292371D01*
X127158496Y-123292371D02*
X127101353Y-123320942D01*
X127101353Y-123320942D02*
X127072782Y-123349514D01*
X127072782Y-123349514D02*
X127015639Y-123435228D01*
X127015639Y-123435228D02*
X126987067Y-123549514D01*
X126987067Y-123549514D02*
X126987067Y-123778085D01*
X126987067Y-123778085D02*
X127015639Y-123835228D01*
X127015639Y-123835228D02*
X127044210Y-123863800D01*
X127044210Y-123863800D02*
X127101353Y-123892371D01*
X127101353Y-123892371D02*
X127215639Y-123892371D01*
X127215639Y-123892371D02*
X127272782Y-123863800D01*
X127272782Y-123863800D02*
X127301353Y-123835228D01*
X127301353Y-123835228D02*
X127329924Y-123778085D01*
X127329924Y-123778085D02*
X127329924Y-123635228D01*
X127329924Y-123635228D02*
X127301353Y-123578085D01*
X127301353Y-123578085D02*
X127272782Y-123549514D01*
X127272782Y-123549514D02*
X127215639Y-123520942D01*
X127215639Y-123520942D02*
X127101353Y-123520942D01*
X127101353Y-123520942D02*
X127044210Y-123549514D01*
X127044210Y-123549514D02*
X127015639Y-123578085D01*
X127015639Y-123578085D02*
X126987067Y-123635228D01*
X150984360Y-108052371D02*
X150698646Y-108052371D01*
X150698646Y-108052371D02*
X150670074Y-108338085D01*
X150670074Y-108338085D02*
X150698646Y-108309514D01*
X150698646Y-108309514D02*
X150755789Y-108280942D01*
X150755789Y-108280942D02*
X150898646Y-108280942D01*
X150898646Y-108280942D02*
X150955789Y-108309514D01*
X150955789Y-108309514D02*
X150984360Y-108338085D01*
X150984360Y-108338085D02*
X151012931Y-108395228D01*
X151012931Y-108395228D02*
X151012931Y-108538085D01*
X151012931Y-108538085D02*
X150984360Y-108595228D01*
X150984360Y-108595228D02*
X150955789Y-108623800D01*
X150955789Y-108623800D02*
X150898646Y-108652371D01*
X150898646Y-108652371D02*
X150755789Y-108652371D01*
X150755789Y-108652371D02*
X150698646Y-108623800D01*
X150698646Y-108623800D02*
X150670074Y-108595228D01*
X151184360Y-108052371D02*
X151384360Y-108652371D01*
X151384360Y-108652371D02*
X151584360Y-108052371D01*
X151012931Y-110620942D02*
X150955789Y-110592371D01*
X150955789Y-110592371D02*
X150870074Y-110592371D01*
X150870074Y-110592371D02*
X150784360Y-110620942D01*
X150784360Y-110620942D02*
X150727217Y-110678085D01*
X150727217Y-110678085D02*
X150698646Y-110735228D01*
X150698646Y-110735228D02*
X150670074Y-110849514D01*
X150670074Y-110849514D02*
X150670074Y-110935228D01*
X150670074Y-110935228D02*
X150698646Y-111049514D01*
X150698646Y-111049514D02*
X150727217Y-111106657D01*
X150727217Y-111106657D02*
X150784360Y-111163800D01*
X150784360Y-111163800D02*
X150870074Y-111192371D01*
X150870074Y-111192371D02*
X150927217Y-111192371D01*
X150927217Y-111192371D02*
X151012931Y-111163800D01*
X151012931Y-111163800D02*
X151041503Y-111135228D01*
X151041503Y-111135228D02*
X151041503Y-110935228D01*
X151041503Y-110935228D02*
X150927217Y-110935228D01*
X151298646Y-111192371D02*
X151298646Y-110592371D01*
X151298646Y-110592371D02*
X151641503Y-111192371D01*
X151641503Y-111192371D02*
X151641503Y-110592371D01*
X151927217Y-111192371D02*
X151927217Y-110592371D01*
X151927217Y-110592371D02*
X152070074Y-110592371D01*
X152070074Y-110592371D02*
X152155788Y-110620942D01*
X152155788Y-110620942D02*
X152212931Y-110678085D01*
X152212931Y-110678085D02*
X152241502Y-110735228D01*
X152241502Y-110735228D02*
X152270074Y-110849514D01*
X152270074Y-110849514D02*
X152270074Y-110935228D01*
X152270074Y-110935228D02*
X152241502Y-111049514D01*
X152241502Y-111049514D02*
X152212931Y-111106657D01*
X152212931Y-111106657D02*
X152155788Y-111163800D01*
X152155788Y-111163800D02*
X152070074Y-111192371D01*
X152070074Y-111192371D02*
X151927217Y-111192371D01*
X150641503Y-113132371D02*
X151012931Y-113132371D01*
X151012931Y-113132371D02*
X150812931Y-113360942D01*
X150812931Y-113360942D02*
X150898646Y-113360942D01*
X150898646Y-113360942D02*
X150955789Y-113389514D01*
X150955789Y-113389514D02*
X150984360Y-113418085D01*
X150984360Y-113418085D02*
X151012931Y-113475228D01*
X151012931Y-113475228D02*
X151012931Y-113618085D01*
X151012931Y-113618085D02*
X150984360Y-113675228D01*
X150984360Y-113675228D02*
X150955789Y-113703800D01*
X150955789Y-113703800D02*
X150898646Y-113732371D01*
X150898646Y-113732371D02*
X150727217Y-113732371D01*
X150727217Y-113732371D02*
X150670074Y-113703800D01*
X150670074Y-113703800D02*
X150641503Y-113675228D01*
X151184360Y-113132371D02*
X151384360Y-113732371D01*
X151384360Y-113732371D02*
X151584360Y-113132371D01*
X151727218Y-113132371D02*
X152098646Y-113132371D01*
X152098646Y-113132371D02*
X151898646Y-113360942D01*
X151898646Y-113360942D02*
X151984361Y-113360942D01*
X151984361Y-113360942D02*
X152041504Y-113389514D01*
X152041504Y-113389514D02*
X152070075Y-113418085D01*
X152070075Y-113418085D02*
X152098646Y-113475228D01*
X152098646Y-113475228D02*
X152098646Y-113618085D01*
X152098646Y-113618085D02*
X152070075Y-113675228D01*
X152070075Y-113675228D02*
X152041504Y-113703800D01*
X152041504Y-113703800D02*
X151984361Y-113732371D01*
X151984361Y-113732371D02*
X151812932Y-113732371D01*
X151812932Y-113732371D02*
X151755789Y-113703800D01*
X151755789Y-113703800D02*
X151727218Y-113675228D01*
X150698646Y-116272371D02*
X150698646Y-115672371D01*
X150698646Y-115672371D02*
X150841503Y-115672371D01*
X150841503Y-115672371D02*
X150927217Y-115700942D01*
X150927217Y-115700942D02*
X150984360Y-115758085D01*
X150984360Y-115758085D02*
X151012931Y-115815228D01*
X151012931Y-115815228D02*
X151041503Y-115929514D01*
X151041503Y-115929514D02*
X151041503Y-116015228D01*
X151041503Y-116015228D02*
X151012931Y-116129514D01*
X151012931Y-116129514D02*
X150984360Y-116186657D01*
X150984360Y-116186657D02*
X150927217Y-116243800D01*
X150927217Y-116243800D02*
X150841503Y-116272371D01*
X150841503Y-116272371D02*
X150698646Y-116272371D01*
X151612931Y-116272371D02*
X151270074Y-116272371D01*
X151441503Y-116272371D02*
X151441503Y-115672371D01*
X151441503Y-115672371D02*
X151384360Y-115758085D01*
X151384360Y-115758085D02*
X151327217Y-115815228D01*
X151327217Y-115815228D02*
X151270074Y-115843800D01*
X151984360Y-115672371D02*
X152041503Y-115672371D01*
X152041503Y-115672371D02*
X152098646Y-115700942D01*
X152098646Y-115700942D02*
X152127218Y-115729514D01*
X152127218Y-115729514D02*
X152155789Y-115786657D01*
X152155789Y-115786657D02*
X152184360Y-115900942D01*
X152184360Y-115900942D02*
X152184360Y-116043800D01*
X152184360Y-116043800D02*
X152155789Y-116158085D01*
X152155789Y-116158085D02*
X152127218Y-116215228D01*
X152127218Y-116215228D02*
X152098646Y-116243800D01*
X152098646Y-116243800D02*
X152041503Y-116272371D01*
X152041503Y-116272371D02*
X151984360Y-116272371D01*
X151984360Y-116272371D02*
X151927218Y-116243800D01*
X151927218Y-116243800D02*
X151898646Y-116215228D01*
X151898646Y-116215228D02*
X151870075Y-116158085D01*
X151870075Y-116158085D02*
X151841503Y-116043800D01*
X151841503Y-116043800D02*
X151841503Y-115900942D01*
X151841503Y-115900942D02*
X151870075Y-115786657D01*
X151870075Y-115786657D02*
X151898646Y-115729514D01*
X151898646Y-115729514D02*
X151927218Y-115700942D01*
X151927218Y-115700942D02*
X151984360Y-115672371D01*
X150698646Y-118812371D02*
X150698646Y-118212371D01*
X150698646Y-118212371D02*
X150841503Y-118212371D01*
X150841503Y-118212371D02*
X150927217Y-118240942D01*
X150927217Y-118240942D02*
X150984360Y-118298085D01*
X150984360Y-118298085D02*
X151012931Y-118355228D01*
X151012931Y-118355228D02*
X151041503Y-118469514D01*
X151041503Y-118469514D02*
X151041503Y-118555228D01*
X151041503Y-118555228D02*
X151012931Y-118669514D01*
X151012931Y-118669514D02*
X150984360Y-118726657D01*
X150984360Y-118726657D02*
X150927217Y-118783800D01*
X150927217Y-118783800D02*
X150841503Y-118812371D01*
X150841503Y-118812371D02*
X150698646Y-118812371D01*
X151327217Y-118812371D02*
X151441503Y-118812371D01*
X151441503Y-118812371D02*
X151498646Y-118783800D01*
X151498646Y-118783800D02*
X151527217Y-118755228D01*
X151527217Y-118755228D02*
X151584360Y-118669514D01*
X151584360Y-118669514D02*
X151612931Y-118555228D01*
X151612931Y-118555228D02*
X151612931Y-118326657D01*
X151612931Y-118326657D02*
X151584360Y-118269514D01*
X151584360Y-118269514D02*
X151555789Y-118240942D01*
X151555789Y-118240942D02*
X151498646Y-118212371D01*
X151498646Y-118212371D02*
X151384360Y-118212371D01*
X151384360Y-118212371D02*
X151327217Y-118240942D01*
X151327217Y-118240942D02*
X151298646Y-118269514D01*
X151298646Y-118269514D02*
X151270074Y-118326657D01*
X151270074Y-118326657D02*
X151270074Y-118469514D01*
X151270074Y-118469514D02*
X151298646Y-118526657D01*
X151298646Y-118526657D02*
X151327217Y-118555228D01*
X151327217Y-118555228D02*
X151384360Y-118583800D01*
X151384360Y-118583800D02*
X151498646Y-118583800D01*
X151498646Y-118583800D02*
X151555789Y-118555228D01*
X151555789Y-118555228D02*
X151584360Y-118526657D01*
X151584360Y-118526657D02*
X151612931Y-118469514D01*
X150698646Y-121352371D02*
X150698646Y-120752371D01*
X150698646Y-120752371D02*
X150841503Y-120752371D01*
X150841503Y-120752371D02*
X150927217Y-120780942D01*
X150927217Y-120780942D02*
X150984360Y-120838085D01*
X150984360Y-120838085D02*
X151012931Y-120895228D01*
X151012931Y-120895228D02*
X151041503Y-121009514D01*
X151041503Y-121009514D02*
X151041503Y-121095228D01*
X151041503Y-121095228D02*
X151012931Y-121209514D01*
X151012931Y-121209514D02*
X150984360Y-121266657D01*
X150984360Y-121266657D02*
X150927217Y-121323800D01*
X150927217Y-121323800D02*
X150841503Y-121352371D01*
X150841503Y-121352371D02*
X150698646Y-121352371D01*
X151384360Y-121009514D02*
X151327217Y-120980942D01*
X151327217Y-120980942D02*
X151298646Y-120952371D01*
X151298646Y-120952371D02*
X151270074Y-120895228D01*
X151270074Y-120895228D02*
X151270074Y-120866657D01*
X151270074Y-120866657D02*
X151298646Y-120809514D01*
X151298646Y-120809514D02*
X151327217Y-120780942D01*
X151327217Y-120780942D02*
X151384360Y-120752371D01*
X151384360Y-120752371D02*
X151498646Y-120752371D01*
X151498646Y-120752371D02*
X151555789Y-120780942D01*
X151555789Y-120780942D02*
X151584360Y-120809514D01*
X151584360Y-120809514D02*
X151612931Y-120866657D01*
X151612931Y-120866657D02*
X151612931Y-120895228D01*
X151612931Y-120895228D02*
X151584360Y-120952371D01*
X151584360Y-120952371D02*
X151555789Y-120980942D01*
X151555789Y-120980942D02*
X151498646Y-121009514D01*
X151498646Y-121009514D02*
X151384360Y-121009514D01*
X151384360Y-121009514D02*
X151327217Y-121038085D01*
X151327217Y-121038085D02*
X151298646Y-121066657D01*
X151298646Y-121066657D02*
X151270074Y-121123800D01*
X151270074Y-121123800D02*
X151270074Y-121238085D01*
X151270074Y-121238085D02*
X151298646Y-121295228D01*
X151298646Y-121295228D02*
X151327217Y-121323800D01*
X151327217Y-121323800D02*
X151384360Y-121352371D01*
X151384360Y-121352371D02*
X151498646Y-121352371D01*
X151498646Y-121352371D02*
X151555789Y-121323800D01*
X151555789Y-121323800D02*
X151584360Y-121295228D01*
X151584360Y-121295228D02*
X151612931Y-121238085D01*
X151612931Y-121238085D02*
X151612931Y-121123800D01*
X151612931Y-121123800D02*
X151584360Y-121066657D01*
X151584360Y-121066657D02*
X151555789Y-121038085D01*
X151555789Y-121038085D02*
X151498646Y-121009514D01*
X150698646Y-123892371D02*
X150698646Y-123292371D01*
X150698646Y-123292371D02*
X150841503Y-123292371D01*
X150841503Y-123292371D02*
X150927217Y-123320942D01*
X150927217Y-123320942D02*
X150984360Y-123378085D01*
X150984360Y-123378085D02*
X151012931Y-123435228D01*
X151012931Y-123435228D02*
X151041503Y-123549514D01*
X151041503Y-123549514D02*
X151041503Y-123635228D01*
X151041503Y-123635228D02*
X151012931Y-123749514D01*
X151012931Y-123749514D02*
X150984360Y-123806657D01*
X150984360Y-123806657D02*
X150927217Y-123863800D01*
X150927217Y-123863800D02*
X150841503Y-123892371D01*
X150841503Y-123892371D02*
X150698646Y-123892371D01*
X151241503Y-123292371D02*
X151641503Y-123292371D01*
X151641503Y-123292371D02*
X151384360Y-123892371D01*
D12*
X125143832Y-109066666D02*
X125162880Y-109085714D01*
X125162880Y-109085714D02*
X125181927Y-109142856D01*
X125181927Y-109142856D02*
X125181927Y-109180952D01*
X125181927Y-109180952D02*
X125162880Y-109238095D01*
X125162880Y-109238095D02*
X125124784Y-109276190D01*
X125124784Y-109276190D02*
X125086689Y-109295237D01*
X125086689Y-109295237D02*
X125010499Y-109314285D01*
X125010499Y-109314285D02*
X124953356Y-109314285D01*
X124953356Y-109314285D02*
X124877165Y-109295237D01*
X124877165Y-109295237D02*
X124839070Y-109276190D01*
X124839070Y-109276190D02*
X124800975Y-109238095D01*
X124800975Y-109238095D02*
X124781927Y-109180952D01*
X124781927Y-109180952D02*
X124781927Y-109142856D01*
X124781927Y-109142856D02*
X124800975Y-109085714D01*
X124800975Y-109085714D02*
X124820022Y-109066666D01*
X124781927Y-108933333D02*
X124781927Y-108685714D01*
X124781927Y-108685714D02*
X124934308Y-108819047D01*
X124934308Y-108819047D02*
X124934308Y-108761904D01*
X124934308Y-108761904D02*
X124953356Y-108723809D01*
X124953356Y-108723809D02*
X124972403Y-108704761D01*
X124972403Y-108704761D02*
X125010499Y-108685714D01*
X125010499Y-108685714D02*
X125105737Y-108685714D01*
X125105737Y-108685714D02*
X125143832Y-108704761D01*
X125143832Y-108704761D02*
X125162880Y-108723809D01*
X125162880Y-108723809D02*
X125181927Y-108761904D01*
X125181927Y-108761904D02*
X125181927Y-108876190D01*
X125181927Y-108876190D02*
X125162880Y-108914285D01*
X125162880Y-108914285D02*
X125143832Y-108933333D01*
X126433333Y-130143832D02*
X126414285Y-130162880D01*
X126414285Y-130162880D02*
X126357143Y-130181927D01*
X126357143Y-130181927D02*
X126319047Y-130181927D01*
X126319047Y-130181927D02*
X126261904Y-130162880D01*
X126261904Y-130162880D02*
X126223809Y-130124784D01*
X126223809Y-130124784D02*
X126204762Y-130086689D01*
X126204762Y-130086689D02*
X126185714Y-130010499D01*
X126185714Y-130010499D02*
X126185714Y-129953356D01*
X126185714Y-129953356D02*
X126204762Y-129877165D01*
X126204762Y-129877165D02*
X126223809Y-129839070D01*
X126223809Y-129839070D02*
X126261904Y-129800975D01*
X126261904Y-129800975D02*
X126319047Y-129781927D01*
X126319047Y-129781927D02*
X126357143Y-129781927D01*
X126357143Y-129781927D02*
X126414285Y-129800975D01*
X126414285Y-129800975D02*
X126433333Y-129820022D01*
X126776190Y-129781927D02*
X126700000Y-129781927D01*
X126700000Y-129781927D02*
X126661904Y-129800975D01*
X126661904Y-129800975D02*
X126642857Y-129820022D01*
X126642857Y-129820022D02*
X126604762Y-129877165D01*
X126604762Y-129877165D02*
X126585714Y-129953356D01*
X126585714Y-129953356D02*
X126585714Y-130105737D01*
X126585714Y-130105737D02*
X126604762Y-130143832D01*
X126604762Y-130143832D02*
X126623809Y-130162880D01*
X126623809Y-130162880D02*
X126661904Y-130181927D01*
X126661904Y-130181927D02*
X126738095Y-130181927D01*
X126738095Y-130181927D02*
X126776190Y-130162880D01*
X126776190Y-130162880D02*
X126795238Y-130143832D01*
X126795238Y-130143832D02*
X126814285Y-130105737D01*
X126814285Y-130105737D02*
X126814285Y-130010499D01*
X126814285Y-130010499D02*
X126795238Y-129972403D01*
X126795238Y-129972403D02*
X126776190Y-129953356D01*
X126776190Y-129953356D02*
X126738095Y-129934308D01*
X126738095Y-129934308D02*
X126661904Y-129934308D01*
X126661904Y-129934308D02*
X126623809Y-129953356D01*
X126623809Y-129953356D02*
X126604762Y-129972403D01*
X126604762Y-129972403D02*
X126585714Y-130010499D01*
D11*
X106238095Y-129954819D02*
X106238095Y-130764342D01*
X106238095Y-130764342D02*
X106285714Y-130859580D01*
X106285714Y-130859580D02*
X106333333Y-130907200D01*
X106333333Y-130907200D02*
X106428571Y-130954819D01*
X106428571Y-130954819D02*
X106619047Y-130954819D01*
X106619047Y-130954819D02*
X106714285Y-130907200D01*
X106714285Y-130907200D02*
X106761904Y-130859580D01*
X106761904Y-130859580D02*
X106809523Y-130764342D01*
X106809523Y-130764342D02*
X106809523Y-129954819D01*
X107761904Y-129954819D02*
X107285714Y-129954819D01*
X107285714Y-129954819D02*
X107238095Y-130431009D01*
X107238095Y-130431009D02*
X107285714Y-130383390D01*
X107285714Y-130383390D02*
X107380952Y-130335771D01*
X107380952Y-130335771D02*
X107619047Y-130335771D01*
X107619047Y-130335771D02*
X107714285Y-130383390D01*
X107714285Y-130383390D02*
X107761904Y-130431009D01*
X107761904Y-130431009D02*
X107809523Y-130526247D01*
X107809523Y-130526247D02*
X107809523Y-130764342D01*
X107809523Y-130764342D02*
X107761904Y-130859580D01*
X107761904Y-130859580D02*
X107714285Y-130907200D01*
X107714285Y-130907200D02*
X107619047Y-130954819D01*
X107619047Y-130954819D02*
X107380952Y-130954819D01*
X107380952Y-130954819D02*
X107285714Y-130907200D01*
X107285714Y-130907200D02*
X107238095Y-130859580D01*
X117738095Y-116454819D02*
X117738095Y-117264342D01*
X117738095Y-117264342D02*
X117785714Y-117359580D01*
X117785714Y-117359580D02*
X117833333Y-117407200D01*
X117833333Y-117407200D02*
X117928571Y-117454819D01*
X117928571Y-117454819D02*
X118119047Y-117454819D01*
X118119047Y-117454819D02*
X118214285Y-117407200D01*
X118214285Y-117407200D02*
X118261904Y-117359580D01*
X118261904Y-117359580D02*
X118309523Y-117264342D01*
X118309523Y-117264342D02*
X118309523Y-116454819D01*
X119214285Y-116788152D02*
X119214285Y-117454819D01*
X118976190Y-116407200D02*
X118738095Y-117121485D01*
X118738095Y-117121485D02*
X119357142Y-117121485D01*
X138238095Y-132454819D02*
X138238095Y-131454819D01*
X138238095Y-131931009D02*
X138809523Y-131931009D01*
X138809523Y-132454819D02*
X138809523Y-131454819D01*
X139190476Y-131454819D02*
X139809523Y-131454819D01*
X139809523Y-131454819D02*
X139476190Y-131835771D01*
X139476190Y-131835771D02*
X139619047Y-131835771D01*
X139619047Y-131835771D02*
X139714285Y-131883390D01*
X139714285Y-131883390D02*
X139761904Y-131931009D01*
X139761904Y-131931009D02*
X139809523Y-132026247D01*
X139809523Y-132026247D02*
X139809523Y-132264342D01*
X139809523Y-132264342D02*
X139761904Y-132359580D01*
X139761904Y-132359580D02*
X139714285Y-132407200D01*
X139714285Y-132407200D02*
X139619047Y-132454819D01*
X139619047Y-132454819D02*
X139333333Y-132454819D01*
X139333333Y-132454819D02*
X139238095Y-132407200D01*
X139238095Y-132407200D02*
X139190476Y-132359580D01*
D12*
X127143832Y-121066666D02*
X127162880Y-121085714D01*
X127162880Y-121085714D02*
X127181927Y-121142856D01*
X127181927Y-121142856D02*
X127181927Y-121180952D01*
X127181927Y-121180952D02*
X127162880Y-121238095D01*
X127162880Y-121238095D02*
X127124784Y-121276190D01*
X127124784Y-121276190D02*
X127086689Y-121295237D01*
X127086689Y-121295237D02*
X127010499Y-121314285D01*
X127010499Y-121314285D02*
X126953356Y-121314285D01*
X126953356Y-121314285D02*
X126877165Y-121295237D01*
X126877165Y-121295237D02*
X126839070Y-121276190D01*
X126839070Y-121276190D02*
X126800975Y-121238095D01*
X126800975Y-121238095D02*
X126781927Y-121180952D01*
X126781927Y-121180952D02*
X126781927Y-121142856D01*
X126781927Y-121142856D02*
X126800975Y-121085714D01*
X126800975Y-121085714D02*
X126820022Y-121066666D01*
X127181927Y-120876190D02*
X127181927Y-120799999D01*
X127181927Y-120799999D02*
X127162880Y-120761904D01*
X127162880Y-120761904D02*
X127143832Y-120742856D01*
X127143832Y-120742856D02*
X127086689Y-120704761D01*
X127086689Y-120704761D02*
X127010499Y-120685714D01*
X127010499Y-120685714D02*
X126858118Y-120685714D01*
X126858118Y-120685714D02*
X126820022Y-120704761D01*
X126820022Y-120704761D02*
X126800975Y-120723809D01*
X126800975Y-120723809D02*
X126781927Y-120761904D01*
X126781927Y-120761904D02*
X126781927Y-120838095D01*
X126781927Y-120838095D02*
X126800975Y-120876190D01*
X126800975Y-120876190D02*
X126820022Y-120895237D01*
X126820022Y-120895237D02*
X126858118Y-120914285D01*
X126858118Y-120914285D02*
X126953356Y-120914285D01*
X126953356Y-120914285D02*
X126991451Y-120895237D01*
X126991451Y-120895237D02*
X127010499Y-120876190D01*
X127010499Y-120876190D02*
X127029546Y-120838095D01*
X127029546Y-120838095D02*
X127029546Y-120761904D01*
X127029546Y-120761904D02*
X127010499Y-120723809D01*
X127010499Y-120723809D02*
X126991451Y-120704761D01*
X126991451Y-120704761D02*
X126953356Y-120685714D01*
X125933333Y-124181927D02*
X125800000Y-123991451D01*
X125704762Y-124181927D02*
X125704762Y-123781927D01*
X125704762Y-123781927D02*
X125857143Y-123781927D01*
X125857143Y-123781927D02*
X125895238Y-123800975D01*
X125895238Y-123800975D02*
X125914285Y-123820022D01*
X125914285Y-123820022D02*
X125933333Y-123858118D01*
X125933333Y-123858118D02*
X125933333Y-123915260D01*
X125933333Y-123915260D02*
X125914285Y-123953356D01*
X125914285Y-123953356D02*
X125895238Y-123972403D01*
X125895238Y-123972403D02*
X125857143Y-123991451D01*
X125857143Y-123991451D02*
X125704762Y-123991451D01*
X126276190Y-123915260D02*
X126276190Y-124181927D01*
X126180952Y-123762880D02*
X126085714Y-124048594D01*
X126085714Y-124048594D02*
X126333333Y-124048594D01*
D11*
X119238095Y-129954819D02*
X119238095Y-130764342D01*
X119238095Y-130764342D02*
X119285714Y-130859580D01*
X119285714Y-130859580D02*
X119333333Y-130907200D01*
X119333333Y-130907200D02*
X119428571Y-130954819D01*
X119428571Y-130954819D02*
X119619047Y-130954819D01*
X119619047Y-130954819D02*
X119714285Y-130907200D01*
X119714285Y-130907200D02*
X119761904Y-130859580D01*
X119761904Y-130859580D02*
X119809523Y-130764342D01*
X119809523Y-130764342D02*
X119809523Y-129954819D01*
X120714285Y-129954819D02*
X120523809Y-129954819D01*
X120523809Y-129954819D02*
X120428571Y-130002438D01*
X120428571Y-130002438D02*
X120380952Y-130050057D01*
X120380952Y-130050057D02*
X120285714Y-130192914D01*
X120285714Y-130192914D02*
X120238095Y-130383390D01*
X120238095Y-130383390D02*
X120238095Y-130764342D01*
X120238095Y-130764342D02*
X120285714Y-130859580D01*
X120285714Y-130859580D02*
X120333333Y-130907200D01*
X120333333Y-130907200D02*
X120428571Y-130954819D01*
X120428571Y-130954819D02*
X120619047Y-130954819D01*
X120619047Y-130954819D02*
X120714285Y-130907200D01*
X120714285Y-130907200D02*
X120761904Y-130859580D01*
X120761904Y-130859580D02*
X120809523Y-130764342D01*
X120809523Y-130764342D02*
X120809523Y-130526247D01*
X120809523Y-130526247D02*
X120761904Y-130431009D01*
X120761904Y-130431009D02*
X120714285Y-130383390D01*
X120714285Y-130383390D02*
X120619047Y-130335771D01*
X120619047Y-130335771D02*
X120428571Y-130335771D01*
X120428571Y-130335771D02*
X120333333Y-130383390D01*
X120333333Y-130383390D02*
X120285714Y-130431009D01*
X120285714Y-130431009D02*
X120238095Y-130526247D01*
X101738095Y-102954819D02*
X101738095Y-101954819D01*
X101738095Y-102431009D02*
X102309523Y-102431009D01*
X102309523Y-102954819D02*
X102309523Y-101954819D01*
X103309523Y-102954819D02*
X102738095Y-102954819D01*
X103023809Y-102954819D02*
X103023809Y-101954819D01*
X103023809Y-101954819D02*
X102928571Y-102097676D01*
X102928571Y-102097676D02*
X102833333Y-102192914D01*
X102833333Y-102192914D02*
X102738095Y-102240533D01*
X148738095Y-102954819D02*
X148738095Y-101954819D01*
X148738095Y-102431009D02*
X149309523Y-102431009D01*
X149309523Y-102954819D02*
X149309523Y-101954819D01*
X149738095Y-102050057D02*
X149785714Y-102002438D01*
X149785714Y-102002438D02*
X149880952Y-101954819D01*
X149880952Y-101954819D02*
X150119047Y-101954819D01*
X150119047Y-101954819D02*
X150214285Y-102002438D01*
X150214285Y-102002438D02*
X150261904Y-102050057D01*
X150261904Y-102050057D02*
X150309523Y-102145295D01*
X150309523Y-102145295D02*
X150309523Y-102240533D01*
X150309523Y-102240533D02*
X150261904Y-102383390D01*
X150261904Y-102383390D02*
X149690476Y-102954819D01*
X149690476Y-102954819D02*
X150309523Y-102954819D01*
D12*
X106933333Y-123181927D02*
X106800000Y-122991451D01*
X106704762Y-123181927D02*
X106704762Y-122781927D01*
X106704762Y-122781927D02*
X106857143Y-122781927D01*
X106857143Y-122781927D02*
X106895238Y-122800975D01*
X106895238Y-122800975D02*
X106914285Y-122820022D01*
X106914285Y-122820022D02*
X106933333Y-122858118D01*
X106933333Y-122858118D02*
X106933333Y-122915260D01*
X106933333Y-122915260D02*
X106914285Y-122953356D01*
X106914285Y-122953356D02*
X106895238Y-122972403D01*
X106895238Y-122972403D02*
X106857143Y-122991451D01*
X106857143Y-122991451D02*
X106704762Y-122991451D01*
X107314285Y-123181927D02*
X107085714Y-123181927D01*
X107200000Y-123181927D02*
X107200000Y-122781927D01*
X107200000Y-122781927D02*
X107161904Y-122839070D01*
X107161904Y-122839070D02*
X107123809Y-122877165D01*
X107123809Y-122877165D02*
X107085714Y-122896213D01*
D14*
X113428571Y-123591244D02*
X113428571Y-124198387D01*
X113428571Y-124198387D02*
X113464285Y-124269815D01*
X113464285Y-124269815D02*
X113500000Y-124305530D01*
X113500000Y-124305530D02*
X113571428Y-124341244D01*
X113571428Y-124341244D02*
X113714285Y-124341244D01*
X113714285Y-124341244D02*
X113785714Y-124305530D01*
X113785714Y-124305530D02*
X113821428Y-124269815D01*
X113821428Y-124269815D02*
X113857142Y-124198387D01*
X113857142Y-124198387D02*
X113857142Y-123591244D01*
X114142856Y-123591244D02*
X114642856Y-123591244D01*
X114642856Y-123591244D02*
X114321428Y-124341244D01*
D12*
X120433333Y-123181927D02*
X120300000Y-122991451D01*
X120204762Y-123181927D02*
X120204762Y-122781927D01*
X120204762Y-122781927D02*
X120357143Y-122781927D01*
X120357143Y-122781927D02*
X120395238Y-122800975D01*
X120395238Y-122800975D02*
X120414285Y-122820022D01*
X120414285Y-122820022D02*
X120433333Y-122858118D01*
X120433333Y-122858118D02*
X120433333Y-122915260D01*
X120433333Y-122915260D02*
X120414285Y-122953356D01*
X120414285Y-122953356D02*
X120395238Y-122972403D01*
X120395238Y-122972403D02*
X120357143Y-122991451D01*
X120357143Y-122991451D02*
X120204762Y-122991451D01*
X120585714Y-122820022D02*
X120604762Y-122800975D01*
X120604762Y-122800975D02*
X120642857Y-122781927D01*
X120642857Y-122781927D02*
X120738095Y-122781927D01*
X120738095Y-122781927D02*
X120776190Y-122800975D01*
X120776190Y-122800975D02*
X120795238Y-122820022D01*
X120795238Y-122820022D02*
X120814285Y-122858118D01*
X120814285Y-122858118D02*
X120814285Y-122896213D01*
X120814285Y-122896213D02*
X120795238Y-122953356D01*
X120795238Y-122953356D02*
X120566666Y-123181927D01*
X120566666Y-123181927D02*
X120814285Y-123181927D01*
X125143832Y-117066666D02*
X125162880Y-117085714D01*
X125162880Y-117085714D02*
X125181927Y-117142856D01*
X125181927Y-117142856D02*
X125181927Y-117180952D01*
X125181927Y-117180952D02*
X125162880Y-117238095D01*
X125162880Y-117238095D02*
X125124784Y-117276190D01*
X125124784Y-117276190D02*
X125086689Y-117295237D01*
X125086689Y-117295237D02*
X125010499Y-117314285D01*
X125010499Y-117314285D02*
X124953356Y-117314285D01*
X124953356Y-117314285D02*
X124877165Y-117295237D01*
X124877165Y-117295237D02*
X124839070Y-117276190D01*
X124839070Y-117276190D02*
X124800975Y-117238095D01*
X124800975Y-117238095D02*
X124781927Y-117180952D01*
X124781927Y-117180952D02*
X124781927Y-117142856D01*
X124781927Y-117142856D02*
X124800975Y-117085714D01*
X124800975Y-117085714D02*
X124820022Y-117066666D01*
X124915260Y-116723809D02*
X125181927Y-116723809D01*
X124762880Y-116819047D02*
X125048594Y-116914285D01*
X125048594Y-116914285D02*
X125048594Y-116666666D01*
X113431927Y-113066666D02*
X113241451Y-113199999D01*
X113431927Y-113295237D02*
X113031927Y-113295237D01*
X113031927Y-113295237D02*
X113031927Y-113142856D01*
X113031927Y-113142856D02*
X113050975Y-113104761D01*
X113050975Y-113104761D02*
X113070022Y-113085714D01*
X113070022Y-113085714D02*
X113108118Y-113066666D01*
X113108118Y-113066666D02*
X113165260Y-113066666D01*
X113165260Y-113066666D02*
X113203356Y-113085714D01*
X113203356Y-113085714D02*
X113222403Y-113104761D01*
X113222403Y-113104761D02*
X113241451Y-113142856D01*
X113241451Y-113142856D02*
X113241451Y-113295237D01*
X113031927Y-112704761D02*
X113031927Y-112895237D01*
X113031927Y-112895237D02*
X113222403Y-112914285D01*
X113222403Y-112914285D02*
X113203356Y-112895237D01*
X113203356Y-112895237D02*
X113184308Y-112857142D01*
X113184308Y-112857142D02*
X113184308Y-112761904D01*
X113184308Y-112761904D02*
X113203356Y-112723809D01*
X113203356Y-112723809D02*
X113222403Y-112704761D01*
X113222403Y-112704761D02*
X113260499Y-112685714D01*
X113260499Y-112685714D02*
X113355737Y-112685714D01*
X113355737Y-112685714D02*
X113393832Y-112704761D01*
X113393832Y-112704761D02*
X113412880Y-112723809D01*
X113412880Y-112723809D02*
X113431927Y-112761904D01*
X113431927Y-112761904D02*
X113431927Y-112857142D01*
X113431927Y-112857142D02*
X113412880Y-112895237D01*
X113412880Y-112895237D02*
X113393832Y-112914285D01*
X113393832Y-117066666D02*
X113412880Y-117085714D01*
X113412880Y-117085714D02*
X113431927Y-117142856D01*
X113431927Y-117142856D02*
X113431927Y-117180952D01*
X113431927Y-117180952D02*
X113412880Y-117238095D01*
X113412880Y-117238095D02*
X113374784Y-117276190D01*
X113374784Y-117276190D02*
X113336689Y-117295237D01*
X113336689Y-117295237D02*
X113260499Y-117314285D01*
X113260499Y-117314285D02*
X113203356Y-117314285D01*
X113203356Y-117314285D02*
X113127165Y-117295237D01*
X113127165Y-117295237D02*
X113089070Y-117276190D01*
X113089070Y-117276190D02*
X113050975Y-117238095D01*
X113050975Y-117238095D02*
X113031927Y-117180952D01*
X113031927Y-117180952D02*
X113031927Y-117142856D01*
X113031927Y-117142856D02*
X113050975Y-117085714D01*
X113050975Y-117085714D02*
X113070022Y-117066666D01*
X113070022Y-116914285D02*
X113050975Y-116895237D01*
X113050975Y-116895237D02*
X113031927Y-116857142D01*
X113031927Y-116857142D02*
X113031927Y-116761904D01*
X113031927Y-116761904D02*
X113050975Y-116723809D01*
X113050975Y-116723809D02*
X113070022Y-116704761D01*
X113070022Y-116704761D02*
X113108118Y-116685714D01*
X113108118Y-116685714D02*
X113146213Y-116685714D01*
X113146213Y-116685714D02*
X113203356Y-116704761D01*
X113203356Y-116704761D02*
X113431927Y-116933333D01*
X113431927Y-116933333D02*
X113431927Y-116685714D01*
D11*
X107238095Y-108454819D02*
X107238095Y-109264342D01*
X107238095Y-109264342D02*
X107285714Y-109359580D01*
X107285714Y-109359580D02*
X107333333Y-109407200D01*
X107333333Y-109407200D02*
X107428571Y-109454819D01*
X107428571Y-109454819D02*
X107619047Y-109454819D01*
X107619047Y-109454819D02*
X107714285Y-109407200D01*
X107714285Y-109407200D02*
X107761904Y-109359580D01*
X107761904Y-109359580D02*
X107809523Y-109264342D01*
X107809523Y-109264342D02*
X107809523Y-108454819D01*
X108809523Y-109454819D02*
X108238095Y-109454819D01*
X108523809Y-109454819D02*
X108523809Y-108454819D01*
X108523809Y-108454819D02*
X108428571Y-108597676D01*
X108428571Y-108597676D02*
X108333333Y-108692914D01*
X108333333Y-108692914D02*
X108238095Y-108740533D01*
D12*
X113393832Y-109066666D02*
X113412880Y-109085714D01*
X113412880Y-109085714D02*
X113431927Y-109142856D01*
X113431927Y-109142856D02*
X113431927Y-109180952D01*
X113431927Y-109180952D02*
X113412880Y-109238095D01*
X113412880Y-109238095D02*
X113374784Y-109276190D01*
X113374784Y-109276190D02*
X113336689Y-109295237D01*
X113336689Y-109295237D02*
X113260499Y-109314285D01*
X113260499Y-109314285D02*
X113203356Y-109314285D01*
X113203356Y-109314285D02*
X113127165Y-109295237D01*
X113127165Y-109295237D02*
X113089070Y-109276190D01*
X113089070Y-109276190D02*
X113050975Y-109238095D01*
X113050975Y-109238095D02*
X113031927Y-109180952D01*
X113031927Y-109180952D02*
X113031927Y-109142856D01*
X113031927Y-109142856D02*
X113050975Y-109085714D01*
X113050975Y-109085714D02*
X113070022Y-109066666D01*
X113431927Y-108685714D02*
X113431927Y-108914285D01*
X113431927Y-108799999D02*
X113031927Y-108799999D01*
X113031927Y-108799999D02*
X113089070Y-108838095D01*
X113089070Y-108838095D02*
X113127165Y-108876190D01*
X113127165Y-108876190D02*
X113146213Y-108914285D01*
X123933333Y-121181927D02*
X123800000Y-120991451D01*
X123704762Y-121181927D02*
X123704762Y-120781927D01*
X123704762Y-120781927D02*
X123857143Y-120781927D01*
X123857143Y-120781927D02*
X123895238Y-120800975D01*
X123895238Y-120800975D02*
X123914285Y-120820022D01*
X123914285Y-120820022D02*
X123933333Y-120858118D01*
X123933333Y-120858118D02*
X123933333Y-120915260D01*
X123933333Y-120915260D02*
X123914285Y-120953356D01*
X123914285Y-120953356D02*
X123895238Y-120972403D01*
X123895238Y-120972403D02*
X123857143Y-120991451D01*
X123857143Y-120991451D02*
X123704762Y-120991451D01*
X124066666Y-120781927D02*
X124314285Y-120781927D01*
X124314285Y-120781927D02*
X124180952Y-120934308D01*
X124180952Y-120934308D02*
X124238095Y-120934308D01*
X124238095Y-120934308D02*
X124276190Y-120953356D01*
X124276190Y-120953356D02*
X124295238Y-120972403D01*
X124295238Y-120972403D02*
X124314285Y-121010499D01*
X124314285Y-121010499D02*
X124314285Y-121105737D01*
X124314285Y-121105737D02*
X124295238Y-121143832D01*
X124295238Y-121143832D02*
X124276190Y-121162880D01*
X124276190Y-121162880D02*
X124238095Y-121181927D01*
X124238095Y-121181927D02*
X124123809Y-121181927D01*
X124123809Y-121181927D02*
X124085714Y-121162880D01*
X124085714Y-121162880D02*
X124066666Y-121143832D01*
X113933333Y-121143832D02*
X113914285Y-121162880D01*
X113914285Y-121162880D02*
X113857143Y-121181927D01*
X113857143Y-121181927D02*
X113819047Y-121181927D01*
X113819047Y-121181927D02*
X113761904Y-121162880D01*
X113761904Y-121162880D02*
X113723809Y-121124784D01*
X113723809Y-121124784D02*
X113704762Y-121086689D01*
X113704762Y-121086689D02*
X113685714Y-121010499D01*
X113685714Y-121010499D02*
X113685714Y-120953356D01*
X113685714Y-120953356D02*
X113704762Y-120877165D01*
X113704762Y-120877165D02*
X113723809Y-120839070D01*
X113723809Y-120839070D02*
X113761904Y-120800975D01*
X113761904Y-120800975D02*
X113819047Y-120781927D01*
X113819047Y-120781927D02*
X113857143Y-120781927D01*
X113857143Y-120781927D02*
X113914285Y-120800975D01*
X113914285Y-120800975D02*
X113933333Y-120820022D01*
X114066666Y-120781927D02*
X114333333Y-120781927D01*
X114333333Y-120781927D02*
X114161904Y-121181927D01*
D11*
X117738095Y-108454819D02*
X117738095Y-109264342D01*
X117738095Y-109264342D02*
X117785714Y-109359580D01*
X117785714Y-109359580D02*
X117833333Y-109407200D01*
X117833333Y-109407200D02*
X117928571Y-109454819D01*
X117928571Y-109454819D02*
X118119047Y-109454819D01*
X118119047Y-109454819D02*
X118214285Y-109407200D01*
X118214285Y-109407200D02*
X118261904Y-109359580D01*
X118261904Y-109359580D02*
X118309523Y-109264342D01*
X118309523Y-109264342D02*
X118309523Y-108454819D01*
X118738095Y-108550057D02*
X118785714Y-108502438D01*
X118785714Y-108502438D02*
X118880952Y-108454819D01*
X118880952Y-108454819D02*
X119119047Y-108454819D01*
X119119047Y-108454819D02*
X119214285Y-108502438D01*
X119214285Y-108502438D02*
X119261904Y-108550057D01*
X119261904Y-108550057D02*
X119309523Y-108645295D01*
X119309523Y-108645295D02*
X119309523Y-108740533D01*
X119309523Y-108740533D02*
X119261904Y-108883390D01*
X119261904Y-108883390D02*
X118690476Y-109454819D01*
X118690476Y-109454819D02*
X119309523Y-109454819D01*
D12*
X125143832Y-113066666D02*
X125162880Y-113085714D01*
X125162880Y-113085714D02*
X125181927Y-113142856D01*
X125181927Y-113142856D02*
X125181927Y-113180952D01*
X125181927Y-113180952D02*
X125162880Y-113238095D01*
X125162880Y-113238095D02*
X125124784Y-113276190D01*
X125124784Y-113276190D02*
X125086689Y-113295237D01*
X125086689Y-113295237D02*
X125010499Y-113314285D01*
X125010499Y-113314285D02*
X124953356Y-113314285D01*
X124953356Y-113314285D02*
X124877165Y-113295237D01*
X124877165Y-113295237D02*
X124839070Y-113276190D01*
X124839070Y-113276190D02*
X124800975Y-113238095D01*
X124800975Y-113238095D02*
X124781927Y-113180952D01*
X124781927Y-113180952D02*
X124781927Y-113142856D01*
X124781927Y-113142856D02*
X124800975Y-113085714D01*
X124800975Y-113085714D02*
X124820022Y-113066666D01*
X124953356Y-112838095D02*
X124934308Y-112876190D01*
X124934308Y-112876190D02*
X124915260Y-112895237D01*
X124915260Y-112895237D02*
X124877165Y-112914285D01*
X124877165Y-112914285D02*
X124858118Y-112914285D01*
X124858118Y-112914285D02*
X124820022Y-112895237D01*
X124820022Y-112895237D02*
X124800975Y-112876190D01*
X124800975Y-112876190D02*
X124781927Y-112838095D01*
X124781927Y-112838095D02*
X124781927Y-112761904D01*
X124781927Y-112761904D02*
X124800975Y-112723809D01*
X124800975Y-112723809D02*
X124820022Y-112704761D01*
X124820022Y-112704761D02*
X124858118Y-112685714D01*
X124858118Y-112685714D02*
X124877165Y-112685714D01*
X124877165Y-112685714D02*
X124915260Y-112704761D01*
X124915260Y-112704761D02*
X124934308Y-112723809D01*
X124934308Y-112723809D02*
X124953356Y-112761904D01*
X124953356Y-112761904D02*
X124953356Y-112838095D01*
X124953356Y-112838095D02*
X124972403Y-112876190D01*
X124972403Y-112876190D02*
X124991451Y-112895237D01*
X124991451Y-112895237D02*
X125029546Y-112914285D01*
X125029546Y-112914285D02*
X125105737Y-112914285D01*
X125105737Y-112914285D02*
X125143832Y-112895237D01*
X125143832Y-112895237D02*
X125162880Y-112876190D01*
X125162880Y-112876190D02*
X125181927Y-112838095D01*
X125181927Y-112838095D02*
X125181927Y-112761904D01*
X125181927Y-112761904D02*
X125162880Y-112723809D01*
X125162880Y-112723809D02*
X125143832Y-112704761D01*
X125143832Y-112704761D02*
X125105737Y-112685714D01*
X125105737Y-112685714D02*
X125029546Y-112685714D01*
X125029546Y-112685714D02*
X124991451Y-112704761D01*
X124991451Y-112704761D02*
X124972403Y-112723809D01*
X124972403Y-112723809D02*
X124953356Y-112761904D01*
%TO.C,J2*%
D13*
X128950000Y-140800000D02*
X128950000Y-145400000D01*
X128950000Y-145400000D02*
X129550000Y-145400000D01*
X129050000Y-145700000D02*
X129050000Y-146400000D01*
X129050000Y-146400000D02*
X138500000Y-146400000D01*
X129550000Y-145400000D02*
X129550000Y-145700000D01*
X129550000Y-145700000D02*
X129050000Y-145700000D01*
X130250000Y-140800000D02*
X130750000Y-141507107D01*
X130750000Y-141507107D02*
X131250000Y-140800000D01*
X138500000Y-140800000D02*
X128950000Y-140800000D01*
X138500000Y-140800000D02*
X148050000Y-140800000D01*
X147450000Y-145400000D02*
X147450000Y-145700000D01*
X147450000Y-145700000D02*
X147950000Y-145700000D01*
X147950000Y-145700000D02*
X147950000Y-146400000D01*
X147950000Y-146400000D02*
X138500000Y-146400000D01*
X148050000Y-140800000D02*
X148050000Y-145400000D01*
X148050000Y-145400000D02*
X147450000Y-145400000D01*
%TO.C,U3*%
X106800000Y-114500000D02*
X110200000Y-114500000D01*
X110200000Y-119500000D01*
X105800000Y-119500000D01*
X105800000Y-115500000D01*
X106800000Y-114500000D01*
%TO.C,J1*%
X103950000Y-140800000D02*
X103950000Y-145400000D01*
X103950000Y-145400000D02*
X104550000Y-145400000D01*
X104050000Y-145700000D02*
X104050000Y-146400000D01*
X104050000Y-146400000D02*
X113500000Y-146400000D01*
X104550000Y-145400000D02*
X104550000Y-145700000D01*
X104550000Y-145700000D02*
X104050000Y-145700000D01*
X105250000Y-140800000D02*
X105750000Y-141507107D01*
X105750000Y-141507107D02*
X106250000Y-140800000D01*
X113500000Y-140800000D02*
X103950000Y-140800000D01*
X113500000Y-140800000D02*
X123050000Y-140800000D01*
X122450000Y-145400000D02*
X122450000Y-145700000D01*
X122450000Y-145700000D02*
X122950000Y-145700000D01*
X122950000Y-145700000D02*
X122950000Y-146400000D01*
X122950000Y-146400000D02*
X113500000Y-146400000D01*
X123050000Y-140800000D02*
X123050000Y-145400000D01*
X123050000Y-145400000D02*
X122450000Y-145400000D01*
%TO.C,C5*%
X102200000Y-122600000D02*
X103800000Y-122600000D01*
X103800000Y-123400000D01*
X102200000Y-123400000D01*
X102200000Y-122600000D01*
%TO.C,A1*%
X130100000Y-105500000D02*
X147900000Y-105500000D01*
X130100000Y-108500000D02*
X147900000Y-108500000D01*
X130100000Y-126500000D02*
X130100000Y-105500000D01*
X147900000Y-105500000D02*
X147900000Y-126500000D01*
X147900000Y-126500000D02*
X130100000Y-126500000D01*
%TO.C,C3*%
X124600000Y-108200000D02*
X125400000Y-108200000D01*
X125400000Y-109800000D01*
X124600000Y-109800000D01*
X124600000Y-108200000D01*
%TO.C,C6*%
X125700000Y-129600000D02*
X127300000Y-129600000D01*
X127300000Y-130400000D01*
X125700000Y-130400000D01*
X125700000Y-129600000D01*
%TO.C,U5*%
X108650000Y-134600000D02*
X104350000Y-134600000D01*
X104350000Y-126400000D01*
X109650000Y-126400000D01*
X109650000Y-133600000D01*
X108650000Y-134600000D01*
%TO.C,U4*%
X117300000Y-114500000D02*
X120700000Y-114500000D01*
X120700000Y-119500000D01*
X116300000Y-119500000D01*
X116300000Y-115500000D01*
X117300000Y-114500000D01*
%TO.C,C9*%
X126600000Y-120200000D02*
X127400000Y-120200000D01*
X127400000Y-121800000D01*
X126600000Y-121800000D01*
X126600000Y-120200000D01*
%TO.C,R4*%
X125200000Y-123587500D02*
X126800000Y-123587500D01*
X126800000Y-124412500D01*
X125200000Y-124412500D01*
X125200000Y-123587500D01*
%TO.C,U6*%
X118350000Y-126400000D02*
X122650000Y-126400000D01*
X122650000Y-134600000D01*
X117350000Y-134600000D01*
X117350000Y-127400000D01*
X118350000Y-126400000D01*
%TO.C,R1*%
X106200000Y-122587500D02*
X107800000Y-122587500D01*
X107800000Y-123412500D01*
X106200000Y-123412500D01*
X106200000Y-122587500D01*
%TO.C,U7*%
X113250000Y-122500000D02*
X115500000Y-122500000D01*
X115500000Y-125500000D01*
X112500000Y-125500000D01*
X112500000Y-123250000D01*
X113250000Y-122500000D01*
%TO.C,R2*%
X119700000Y-122587500D02*
X121300000Y-122587500D01*
X121300000Y-123412500D01*
X119700000Y-123412500D01*
X119700000Y-122587500D01*
%TO.C,C4*%
X124600000Y-116200000D02*
X125400000Y-116200000D01*
X125400000Y-117800000D01*
X124600000Y-117800000D01*
X124600000Y-116200000D01*
%TO.C,R5*%
X112837500Y-112200000D02*
X113662500Y-112200000D01*
X113662500Y-113800000D01*
X112837500Y-113800000D01*
X112837500Y-112200000D01*
%TO.C,C2*%
X112850000Y-116200000D02*
X113650000Y-116200000D01*
X113650000Y-117800000D01*
X112850000Y-117800000D01*
X112850000Y-116200000D01*
%TO.C,U1*%
X106800000Y-106500000D02*
X110200000Y-106500000D01*
X110200000Y-111500000D01*
X105800000Y-111500000D01*
X105800000Y-107500000D01*
X106800000Y-106500000D01*
%TO.C,C1*%
X112850000Y-108200000D02*
X113650000Y-108200000D01*
X113650000Y-109800000D01*
X112850000Y-109800000D01*
X112850000Y-108200000D01*
%TO.C,R3*%
X123200000Y-120587500D02*
X124800000Y-120587500D01*
X124800000Y-121412500D01*
X123200000Y-121412500D01*
X123200000Y-120587500D01*
%TO.C,C7*%
X113200000Y-120600000D02*
X114800000Y-120600000D01*
X114800000Y-121400000D01*
X113200000Y-121400000D01*
X113200000Y-120600000D01*
%TO.C,U2*%
X117300000Y-106500000D02*
X120700000Y-106500000D01*
X120700000Y-111500000D01*
X116300000Y-111500000D01*
X116300000Y-107500000D01*
X117300000Y-106500000D01*
%TO.C,C8*%
X124600000Y-112200000D02*
X125400000Y-112200000D01*
X125400000Y-113800000D01*
X124600000Y-113800000D01*
X124600000Y-112200000D01*
%TD*%
M02*
