%TF.GenerationSoftware,KiCad,Pcbnew,10.0.5*%
%TF.CreationDate,2026-08-06T13:52:57-04:00*%
%TF.ProjectId,Flexitac 2.0,466c6578-6974-4616-9320-322e302e6b69,rev?*%
%TF.SameCoordinates,Original*%
%TF.FileFunction,Legend,Top*%
%TF.FilePolarity,Positive*%
%FSLAX46Y46*%
G04 Gerber Fmt 4.6, Leading zero omitted, Abs format (unit mm)*
G04 Created by KiCad (PCBNEW 10.0.5) date 2026-08-06 13:52:57*
%MOMM*%
%LPD*%
G01*
G04 APERTURE LIST*
%ADD10C,0.110000*%
%ADD11C,0.120000*%
%ADD12C,0.300000*%
G04 APERTURE END LIST*
D10*
X138233333Y-137864375D02*
X138233333Y-138435803D01*
X138233333Y-138435803D02*
X138195238Y-138550089D01*
X138195238Y-138550089D02*
X138119047Y-138626280D01*
X138119047Y-138626280D02*
X138004762Y-138664375D01*
X138004762Y-138664375D02*
X137928571Y-138664375D01*
X138576190Y-137940565D02*
X138614286Y-137902470D01*
X138614286Y-137902470D02*
X138690476Y-137864375D01*
X138690476Y-137864375D02*
X138880952Y-137864375D01*
X138880952Y-137864375D02*
X138957143Y-137902470D01*
X138957143Y-137902470D02*
X138995238Y-137940565D01*
X138995238Y-137940565D02*
X139033333Y-138016756D01*
X139033333Y-138016756D02*
X139033333Y-138092946D01*
X139033333Y-138092946D02*
X138995238Y-138207232D01*
X138995238Y-138207232D02*
X138538095Y-138664375D01*
X138538095Y-138664375D02*
X139033333Y-138664375D01*
X107390476Y-116564375D02*
X107390476Y-117211994D01*
X107390476Y-117211994D02*
X107428571Y-117288184D01*
X107428571Y-117288184D02*
X107466666Y-117326280D01*
X107466666Y-117326280D02*
X107542857Y-117364375D01*
X107542857Y-117364375D02*
X107695238Y-117364375D01*
X107695238Y-117364375D02*
X107771428Y-117326280D01*
X107771428Y-117326280D02*
X107809523Y-117288184D01*
X107809523Y-117288184D02*
X107847619Y-117211994D01*
X107847619Y-117211994D02*
X107847619Y-116564375D01*
X108152380Y-116564375D02*
X108647618Y-116564375D01*
X108647618Y-116564375D02*
X108380952Y-116869137D01*
X108380952Y-116869137D02*
X108495237Y-116869137D01*
X108495237Y-116869137D02*
X108571428Y-116907232D01*
X108571428Y-116907232D02*
X108609523Y-116945327D01*
X108609523Y-116945327D02*
X108647618Y-117021518D01*
X108647618Y-117021518D02*
X108647618Y-117211994D01*
X108647618Y-117211994D02*
X108609523Y-117288184D01*
X108609523Y-117288184D02*
X108571428Y-117326280D01*
X108571428Y-117326280D02*
X108495237Y-117364375D01*
X108495237Y-117364375D02*
X108266666Y-117364375D01*
X108266666Y-117364375D02*
X108190475Y-117326280D01*
X108190475Y-117326280D02*
X108152380Y-117288184D01*
X113233333Y-137864375D02*
X113233333Y-138435803D01*
X113233333Y-138435803D02*
X113195238Y-138550089D01*
X113195238Y-138550089D02*
X113119047Y-138626280D01*
X113119047Y-138626280D02*
X113004762Y-138664375D01*
X113004762Y-138664375D02*
X112928571Y-138664375D01*
X114033333Y-138664375D02*
X113576190Y-138664375D01*
X113804762Y-138664375D02*
X113804762Y-137864375D01*
X113804762Y-137864375D02*
X113728571Y-137978660D01*
X113728571Y-137978660D02*
X113652381Y-138054851D01*
X113652381Y-138054851D02*
X113576190Y-138092946D01*
X102866667Y-121858184D02*
X102828571Y-121896280D01*
X102828571Y-121896280D02*
X102714286Y-121934375D01*
X102714286Y-121934375D02*
X102638095Y-121934375D01*
X102638095Y-121934375D02*
X102523809Y-121896280D01*
X102523809Y-121896280D02*
X102447619Y-121820089D01*
X102447619Y-121820089D02*
X102409524Y-121743899D01*
X102409524Y-121743899D02*
X102371428Y-121591518D01*
X102371428Y-121591518D02*
X102371428Y-121477232D01*
X102371428Y-121477232D02*
X102409524Y-121324851D01*
X102409524Y-121324851D02*
X102447619Y-121248660D01*
X102447619Y-121248660D02*
X102523809Y-121172470D01*
X102523809Y-121172470D02*
X102638095Y-121134375D01*
X102638095Y-121134375D02*
X102714286Y-121134375D01*
X102714286Y-121134375D02*
X102828571Y-121172470D01*
X102828571Y-121172470D02*
X102866667Y-121210565D01*
X103590476Y-121134375D02*
X103209524Y-121134375D01*
X103209524Y-121134375D02*
X103171428Y-121515327D01*
X103171428Y-121515327D02*
X103209524Y-121477232D01*
X103209524Y-121477232D02*
X103285714Y-121439137D01*
X103285714Y-121439137D02*
X103476190Y-121439137D01*
X103476190Y-121439137D02*
X103552381Y-121477232D01*
X103552381Y-121477232D02*
X103590476Y-121515327D01*
X103590476Y-121515327D02*
X103628571Y-121591518D01*
X103628571Y-121591518D02*
X103628571Y-121781994D01*
X103628571Y-121781994D02*
X103590476Y-121858184D01*
X103590476Y-121858184D02*
X103552381Y-121896280D01*
X103552381Y-121896280D02*
X103476190Y-121934375D01*
X103476190Y-121934375D02*
X103285714Y-121934375D01*
X103285714Y-121934375D02*
X103209524Y-121896280D01*
X103209524Y-121896280D02*
X103171428Y-121858184D01*
X138428571Y-104235803D02*
X138809524Y-104235803D01*
X138352381Y-104464375D02*
X138619048Y-103664375D01*
X138619048Y-103664375D02*
X138885714Y-104464375D01*
X139571428Y-104464375D02*
X139114285Y-104464375D01*
X139342857Y-104464375D02*
X139342857Y-103664375D01*
X139342857Y-103664375D02*
X139266666Y-103778660D01*
X139266666Y-103778660D02*
X139190476Y-103854851D01*
X139190476Y-103854851D02*
X139114285Y-103892946D01*
D11*
X137095238Y-106563855D02*
X137095238Y-107211474D01*
X137095238Y-107211474D02*
X137133333Y-107287664D01*
X137133333Y-107287664D02*
X137171428Y-107325760D01*
X137171428Y-107325760D02*
X137247619Y-107363855D01*
X137247619Y-107363855D02*
X137400000Y-107363855D01*
X137400000Y-107363855D02*
X137476190Y-107325760D01*
X137476190Y-107325760D02*
X137514285Y-107287664D01*
X137514285Y-107287664D02*
X137552381Y-107211474D01*
X137552381Y-107211474D02*
X137552381Y-106563855D01*
X137895237Y-107325760D02*
X138009523Y-107363855D01*
X138009523Y-107363855D02*
X138199999Y-107363855D01*
X138199999Y-107363855D02*
X138276190Y-107325760D01*
X138276190Y-107325760D02*
X138314285Y-107287664D01*
X138314285Y-107287664D02*
X138352380Y-107211474D01*
X138352380Y-107211474D02*
X138352380Y-107135283D01*
X138352380Y-107135283D02*
X138314285Y-107059093D01*
X138314285Y-107059093D02*
X138276190Y-107020998D01*
X138276190Y-107020998D02*
X138199999Y-106982902D01*
X138199999Y-106982902D02*
X138047618Y-106944807D01*
X138047618Y-106944807D02*
X137971428Y-106906712D01*
X137971428Y-106906712D02*
X137933333Y-106868617D01*
X137933333Y-106868617D02*
X137895237Y-106792426D01*
X137895237Y-106792426D02*
X137895237Y-106716236D01*
X137895237Y-106716236D02*
X137933333Y-106640045D01*
X137933333Y-106640045D02*
X137971428Y-106601950D01*
X137971428Y-106601950D02*
X138047618Y-106563855D01*
X138047618Y-106563855D02*
X138238095Y-106563855D01*
X138238095Y-106563855D02*
X138352380Y-106601950D01*
X138961904Y-106944807D02*
X139076190Y-106982902D01*
X139076190Y-106982902D02*
X139114285Y-107020998D01*
X139114285Y-107020998D02*
X139152381Y-107097188D01*
X139152381Y-107097188D02*
X139152381Y-107211474D01*
X139152381Y-107211474D02*
X139114285Y-107287664D01*
X139114285Y-107287664D02*
X139076190Y-107325760D01*
X139076190Y-107325760D02*
X139000000Y-107363855D01*
X139000000Y-107363855D02*
X138695238Y-107363855D01*
X138695238Y-107363855D02*
X138695238Y-106563855D01*
X138695238Y-106563855D02*
X138961904Y-106563855D01*
X138961904Y-106563855D02*
X139038095Y-106601950D01*
X139038095Y-106601950D02*
X139076190Y-106640045D01*
X139076190Y-106640045D02*
X139114285Y-106716236D01*
X139114285Y-106716236D02*
X139114285Y-106792426D01*
X139114285Y-106792426D02*
X139076190Y-106868617D01*
X139076190Y-106868617D02*
X139038095Y-106906712D01*
X139038095Y-106906712D02*
X138961904Y-106944807D01*
X138961904Y-106944807D02*
X138695238Y-106944807D01*
X139495238Y-107059093D02*
X140104762Y-107059093D01*
X140942857Y-107287664D02*
X140904761Y-107325760D01*
X140904761Y-107325760D02*
X140790476Y-107363855D01*
X140790476Y-107363855D02*
X140714285Y-107363855D01*
X140714285Y-107363855D02*
X140599999Y-107325760D01*
X140599999Y-107325760D02*
X140523809Y-107249569D01*
X140523809Y-107249569D02*
X140485714Y-107173379D01*
X140485714Y-107173379D02*
X140447618Y-107020998D01*
X140447618Y-107020998D02*
X140447618Y-106906712D01*
X140447618Y-106906712D02*
X140485714Y-106754331D01*
X140485714Y-106754331D02*
X140523809Y-106678140D01*
X140523809Y-106678140D02*
X140599999Y-106601950D01*
X140599999Y-106601950D02*
X140714285Y-106563855D01*
X140714285Y-106563855D02*
X140790476Y-106563855D01*
X140790476Y-106563855D02*
X140904761Y-106601950D01*
X140904761Y-106601950D02*
X140942857Y-106640045D01*
D10*
X126866667Y-109288184D02*
X126828571Y-109326280D01*
X126828571Y-109326280D02*
X126714286Y-109364375D01*
X126714286Y-109364375D02*
X126638095Y-109364375D01*
X126638095Y-109364375D02*
X126523809Y-109326280D01*
X126523809Y-109326280D02*
X126447619Y-109250089D01*
X126447619Y-109250089D02*
X126409524Y-109173899D01*
X126409524Y-109173899D02*
X126371428Y-109021518D01*
X126371428Y-109021518D02*
X126371428Y-108907232D01*
X126371428Y-108907232D02*
X126409524Y-108754851D01*
X126409524Y-108754851D02*
X126447619Y-108678660D01*
X126447619Y-108678660D02*
X126523809Y-108602470D01*
X126523809Y-108602470D02*
X126638095Y-108564375D01*
X126638095Y-108564375D02*
X126714286Y-108564375D01*
X126714286Y-108564375D02*
X126828571Y-108602470D01*
X126828571Y-108602470D02*
X126866667Y-108640565D01*
X127133333Y-108564375D02*
X127628571Y-108564375D01*
X127628571Y-108564375D02*
X127361905Y-108869137D01*
X127361905Y-108869137D02*
X127476190Y-108869137D01*
X127476190Y-108869137D02*
X127552381Y-108907232D01*
X127552381Y-108907232D02*
X127590476Y-108945327D01*
X127590476Y-108945327D02*
X127628571Y-109021518D01*
X127628571Y-109021518D02*
X127628571Y-109211994D01*
X127628571Y-109211994D02*
X127590476Y-109288184D01*
X127590476Y-109288184D02*
X127552381Y-109326280D01*
X127552381Y-109326280D02*
X127476190Y-109364375D01*
X127476190Y-109364375D02*
X127247619Y-109364375D01*
X127247619Y-109364375D02*
X127171428Y-109326280D01*
X127171428Y-109326280D02*
X127133333Y-109288184D01*
X126366667Y-128858184D02*
X126328571Y-128896280D01*
X126328571Y-128896280D02*
X126214286Y-128934375D01*
X126214286Y-128934375D02*
X126138095Y-128934375D01*
X126138095Y-128934375D02*
X126023809Y-128896280D01*
X126023809Y-128896280D02*
X125947619Y-128820089D01*
X125947619Y-128820089D02*
X125909524Y-128743899D01*
X125909524Y-128743899D02*
X125871428Y-128591518D01*
X125871428Y-128591518D02*
X125871428Y-128477232D01*
X125871428Y-128477232D02*
X125909524Y-128324851D01*
X125909524Y-128324851D02*
X125947619Y-128248660D01*
X125947619Y-128248660D02*
X126023809Y-128172470D01*
X126023809Y-128172470D02*
X126138095Y-128134375D01*
X126138095Y-128134375D02*
X126214286Y-128134375D01*
X126214286Y-128134375D02*
X126328571Y-128172470D01*
X126328571Y-128172470D02*
X126366667Y-128210565D01*
X127052381Y-128134375D02*
X126900000Y-128134375D01*
X126900000Y-128134375D02*
X126823809Y-128172470D01*
X126823809Y-128172470D02*
X126785714Y-128210565D01*
X126785714Y-128210565D02*
X126709524Y-128324851D01*
X126709524Y-128324851D02*
X126671428Y-128477232D01*
X126671428Y-128477232D02*
X126671428Y-128781994D01*
X126671428Y-128781994D02*
X126709524Y-128858184D01*
X126709524Y-128858184D02*
X126747619Y-128896280D01*
X126747619Y-128896280D02*
X126823809Y-128934375D01*
X126823809Y-128934375D02*
X126976190Y-128934375D01*
X126976190Y-128934375D02*
X127052381Y-128896280D01*
X127052381Y-128896280D02*
X127090476Y-128858184D01*
X127090476Y-128858184D02*
X127128571Y-128781994D01*
X127128571Y-128781994D02*
X127128571Y-128591518D01*
X127128571Y-128591518D02*
X127090476Y-128515327D01*
X127090476Y-128515327D02*
X127052381Y-128477232D01*
X127052381Y-128477232D02*
X126976190Y-128439137D01*
X126976190Y-128439137D02*
X126823809Y-128439137D01*
X126823809Y-128439137D02*
X126747619Y-128477232D01*
X126747619Y-128477232D02*
X126709524Y-128515327D01*
X126709524Y-128515327D02*
X126671428Y-128591518D01*
X106390476Y-130064375D02*
X106390476Y-130711994D01*
X106390476Y-130711994D02*
X106428571Y-130788184D01*
X106428571Y-130788184D02*
X106466666Y-130826280D01*
X106466666Y-130826280D02*
X106542857Y-130864375D01*
X106542857Y-130864375D02*
X106695238Y-130864375D01*
X106695238Y-130864375D02*
X106771428Y-130826280D01*
X106771428Y-130826280D02*
X106809523Y-130788184D01*
X106809523Y-130788184D02*
X106847619Y-130711994D01*
X106847619Y-130711994D02*
X106847619Y-130064375D01*
X107609523Y-130064375D02*
X107228571Y-130064375D01*
X107228571Y-130064375D02*
X107190475Y-130445327D01*
X107190475Y-130445327D02*
X107228571Y-130407232D01*
X107228571Y-130407232D02*
X107304761Y-130369137D01*
X107304761Y-130369137D02*
X107495237Y-130369137D01*
X107495237Y-130369137D02*
X107571428Y-130407232D01*
X107571428Y-130407232D02*
X107609523Y-130445327D01*
X107609523Y-130445327D02*
X107647618Y-130521518D01*
X107647618Y-130521518D02*
X107647618Y-130711994D01*
X107647618Y-130711994D02*
X107609523Y-130788184D01*
X107609523Y-130788184D02*
X107571428Y-130826280D01*
X107571428Y-130826280D02*
X107495237Y-130864375D01*
X107495237Y-130864375D02*
X107304761Y-130864375D01*
X107304761Y-130864375D02*
X107228571Y-130826280D01*
X107228571Y-130826280D02*
X107190475Y-130788184D01*
X117890476Y-116564375D02*
X117890476Y-117211994D01*
X117890476Y-117211994D02*
X117928571Y-117288184D01*
X117928571Y-117288184D02*
X117966666Y-117326280D01*
X117966666Y-117326280D02*
X118042857Y-117364375D01*
X118042857Y-117364375D02*
X118195238Y-117364375D01*
X118195238Y-117364375D02*
X118271428Y-117326280D01*
X118271428Y-117326280D02*
X118309523Y-117288184D01*
X118309523Y-117288184D02*
X118347619Y-117211994D01*
X118347619Y-117211994D02*
X118347619Y-116564375D01*
X119071428Y-116831041D02*
X119071428Y-117364375D01*
X118880952Y-116526280D02*
X118690475Y-117097708D01*
X118690475Y-117097708D02*
X119185714Y-117097708D01*
X126866667Y-119288184D02*
X126828571Y-119326280D01*
X126828571Y-119326280D02*
X126714286Y-119364375D01*
X126714286Y-119364375D02*
X126638095Y-119364375D01*
X126638095Y-119364375D02*
X126523809Y-119326280D01*
X126523809Y-119326280D02*
X126447619Y-119250089D01*
X126447619Y-119250089D02*
X126409524Y-119173899D01*
X126409524Y-119173899D02*
X126371428Y-119021518D01*
X126371428Y-119021518D02*
X126371428Y-118907232D01*
X126371428Y-118907232D02*
X126409524Y-118754851D01*
X126409524Y-118754851D02*
X126447619Y-118678660D01*
X126447619Y-118678660D02*
X126523809Y-118602470D01*
X126523809Y-118602470D02*
X126638095Y-118564375D01*
X126638095Y-118564375D02*
X126714286Y-118564375D01*
X126714286Y-118564375D02*
X126828571Y-118602470D01*
X126828571Y-118602470D02*
X126866667Y-118640565D01*
X127247619Y-119364375D02*
X127400000Y-119364375D01*
X127400000Y-119364375D02*
X127476190Y-119326280D01*
X127476190Y-119326280D02*
X127514286Y-119288184D01*
X127514286Y-119288184D02*
X127590476Y-119173899D01*
X127590476Y-119173899D02*
X127628571Y-119021518D01*
X127628571Y-119021518D02*
X127628571Y-118716756D01*
X127628571Y-118716756D02*
X127590476Y-118640565D01*
X127590476Y-118640565D02*
X127552381Y-118602470D01*
X127552381Y-118602470D02*
X127476190Y-118564375D01*
X127476190Y-118564375D02*
X127323809Y-118564375D01*
X127323809Y-118564375D02*
X127247619Y-118602470D01*
X127247619Y-118602470D02*
X127209524Y-118640565D01*
X127209524Y-118640565D02*
X127171428Y-118716756D01*
X127171428Y-118716756D02*
X127171428Y-118907232D01*
X127171428Y-118907232D02*
X127209524Y-118983422D01*
X127209524Y-118983422D02*
X127247619Y-119021518D01*
X127247619Y-119021518D02*
X127323809Y-119059613D01*
X127323809Y-119059613D02*
X127476190Y-119059613D01*
X127476190Y-119059613D02*
X127552381Y-119021518D01*
X127552381Y-119021518D02*
X127590476Y-118983422D01*
X127590476Y-118983422D02*
X127628571Y-118907232D01*
X125866667Y-125864375D02*
X125600000Y-125483422D01*
X125409524Y-125864375D02*
X125409524Y-125064375D01*
X125409524Y-125064375D02*
X125714286Y-125064375D01*
X125714286Y-125064375D02*
X125790476Y-125102470D01*
X125790476Y-125102470D02*
X125828571Y-125140565D01*
X125828571Y-125140565D02*
X125866667Y-125216756D01*
X125866667Y-125216756D02*
X125866667Y-125331041D01*
X125866667Y-125331041D02*
X125828571Y-125407232D01*
X125828571Y-125407232D02*
X125790476Y-125445327D01*
X125790476Y-125445327D02*
X125714286Y-125483422D01*
X125714286Y-125483422D02*
X125409524Y-125483422D01*
X126552381Y-125331041D02*
X126552381Y-125864375D01*
X126361905Y-125026280D02*
X126171428Y-125597708D01*
X126171428Y-125597708D02*
X126666667Y-125597708D01*
X119390476Y-130064375D02*
X119390476Y-130711994D01*
X119390476Y-130711994D02*
X119428571Y-130788184D01*
X119428571Y-130788184D02*
X119466666Y-130826280D01*
X119466666Y-130826280D02*
X119542857Y-130864375D01*
X119542857Y-130864375D02*
X119695238Y-130864375D01*
X119695238Y-130864375D02*
X119771428Y-130826280D01*
X119771428Y-130826280D02*
X119809523Y-130788184D01*
X119809523Y-130788184D02*
X119847619Y-130711994D01*
X119847619Y-130711994D02*
X119847619Y-130064375D01*
X120571428Y-130064375D02*
X120419047Y-130064375D01*
X120419047Y-130064375D02*
X120342856Y-130102470D01*
X120342856Y-130102470D02*
X120304761Y-130140565D01*
X120304761Y-130140565D02*
X120228571Y-130254851D01*
X120228571Y-130254851D02*
X120190475Y-130407232D01*
X120190475Y-130407232D02*
X120190475Y-130711994D01*
X120190475Y-130711994D02*
X120228571Y-130788184D01*
X120228571Y-130788184D02*
X120266666Y-130826280D01*
X120266666Y-130826280D02*
X120342856Y-130864375D01*
X120342856Y-130864375D02*
X120495237Y-130864375D01*
X120495237Y-130864375D02*
X120571428Y-130826280D01*
X120571428Y-130826280D02*
X120609523Y-130788184D01*
X120609523Y-130788184D02*
X120647618Y-130711994D01*
X120647618Y-130711994D02*
X120647618Y-130521518D01*
X120647618Y-130521518D02*
X120609523Y-130445327D01*
X120609523Y-130445327D02*
X120571428Y-130407232D01*
X120571428Y-130407232D02*
X120495237Y-130369137D01*
X120495237Y-130369137D02*
X120342856Y-130369137D01*
X120342856Y-130369137D02*
X120266666Y-130407232D01*
X120266666Y-130407232D02*
X120228571Y-130445327D01*
X120228571Y-130445327D02*
X120190475Y-130521518D01*
X106866667Y-121934375D02*
X106600000Y-121553422D01*
X106409524Y-121934375D02*
X106409524Y-121134375D01*
X106409524Y-121134375D02*
X106714286Y-121134375D01*
X106714286Y-121134375D02*
X106790476Y-121172470D01*
X106790476Y-121172470D02*
X106828571Y-121210565D01*
X106828571Y-121210565D02*
X106866667Y-121286756D01*
X106866667Y-121286756D02*
X106866667Y-121401041D01*
X106866667Y-121401041D02*
X106828571Y-121477232D01*
X106828571Y-121477232D02*
X106790476Y-121515327D01*
X106790476Y-121515327D02*
X106714286Y-121553422D01*
X106714286Y-121553422D02*
X106409524Y-121553422D01*
X107628571Y-121934375D02*
X107171428Y-121934375D01*
X107400000Y-121934375D02*
X107400000Y-121134375D01*
X107400000Y-121134375D02*
X107323809Y-121248660D01*
X107323809Y-121248660D02*
X107247619Y-121324851D01*
X107247619Y-121324851D02*
X107171428Y-121362946D01*
X113390476Y-123564375D02*
X113390476Y-124211994D01*
X113390476Y-124211994D02*
X113428571Y-124288184D01*
X113428571Y-124288184D02*
X113466666Y-124326280D01*
X113466666Y-124326280D02*
X113542857Y-124364375D01*
X113542857Y-124364375D02*
X113695238Y-124364375D01*
X113695238Y-124364375D02*
X113771428Y-124326280D01*
X113771428Y-124326280D02*
X113809523Y-124288184D01*
X113809523Y-124288184D02*
X113847619Y-124211994D01*
X113847619Y-124211994D02*
X113847619Y-123564375D01*
X114152380Y-123564375D02*
X114685714Y-123564375D01*
X114685714Y-123564375D02*
X114342856Y-124364375D01*
X120366667Y-121864375D02*
X120100000Y-121483422D01*
X119909524Y-121864375D02*
X119909524Y-121064375D01*
X119909524Y-121064375D02*
X120214286Y-121064375D01*
X120214286Y-121064375D02*
X120290476Y-121102470D01*
X120290476Y-121102470D02*
X120328571Y-121140565D01*
X120328571Y-121140565D02*
X120366667Y-121216756D01*
X120366667Y-121216756D02*
X120366667Y-121331041D01*
X120366667Y-121331041D02*
X120328571Y-121407232D01*
X120328571Y-121407232D02*
X120290476Y-121445327D01*
X120290476Y-121445327D02*
X120214286Y-121483422D01*
X120214286Y-121483422D02*
X119909524Y-121483422D01*
X120671428Y-121140565D02*
X120709524Y-121102470D01*
X120709524Y-121102470D02*
X120785714Y-121064375D01*
X120785714Y-121064375D02*
X120976190Y-121064375D01*
X120976190Y-121064375D02*
X121052381Y-121102470D01*
X121052381Y-121102470D02*
X121090476Y-121140565D01*
X121090476Y-121140565D02*
X121128571Y-121216756D01*
X121128571Y-121216756D02*
X121128571Y-121292946D01*
X121128571Y-121292946D02*
X121090476Y-121407232D01*
X121090476Y-121407232D02*
X120633333Y-121864375D01*
X120633333Y-121864375D02*
X121128571Y-121864375D01*
X126866667Y-117288184D02*
X126828571Y-117326280D01*
X126828571Y-117326280D02*
X126714286Y-117364375D01*
X126714286Y-117364375D02*
X126638095Y-117364375D01*
X126638095Y-117364375D02*
X126523809Y-117326280D01*
X126523809Y-117326280D02*
X126447619Y-117250089D01*
X126447619Y-117250089D02*
X126409524Y-117173899D01*
X126409524Y-117173899D02*
X126371428Y-117021518D01*
X126371428Y-117021518D02*
X126371428Y-116907232D01*
X126371428Y-116907232D02*
X126409524Y-116754851D01*
X126409524Y-116754851D02*
X126447619Y-116678660D01*
X126447619Y-116678660D02*
X126523809Y-116602470D01*
X126523809Y-116602470D02*
X126638095Y-116564375D01*
X126638095Y-116564375D02*
X126714286Y-116564375D01*
X126714286Y-116564375D02*
X126828571Y-116602470D01*
X126828571Y-116602470D02*
X126866667Y-116640565D01*
X127552381Y-116831041D02*
X127552381Y-117364375D01*
X127361905Y-116526280D02*
X127171428Y-117097708D01*
X127171428Y-117097708D02*
X127666667Y-117097708D01*
X113366667Y-111364375D02*
X113100000Y-110983422D01*
X112909524Y-111364375D02*
X112909524Y-110564375D01*
X112909524Y-110564375D02*
X113214286Y-110564375D01*
X113214286Y-110564375D02*
X113290476Y-110602470D01*
X113290476Y-110602470D02*
X113328571Y-110640565D01*
X113328571Y-110640565D02*
X113366667Y-110716756D01*
X113366667Y-110716756D02*
X113366667Y-110831041D01*
X113366667Y-110831041D02*
X113328571Y-110907232D01*
X113328571Y-110907232D02*
X113290476Y-110945327D01*
X113290476Y-110945327D02*
X113214286Y-110983422D01*
X113214286Y-110983422D02*
X112909524Y-110983422D01*
X114090476Y-110564375D02*
X113709524Y-110564375D01*
X113709524Y-110564375D02*
X113671428Y-110945327D01*
X113671428Y-110945327D02*
X113709524Y-110907232D01*
X113709524Y-110907232D02*
X113785714Y-110869137D01*
X113785714Y-110869137D02*
X113976190Y-110869137D01*
X113976190Y-110869137D02*
X114052381Y-110907232D01*
X114052381Y-110907232D02*
X114090476Y-110945327D01*
X114090476Y-110945327D02*
X114128571Y-111021518D01*
X114128571Y-111021518D02*
X114128571Y-111211994D01*
X114128571Y-111211994D02*
X114090476Y-111288184D01*
X114090476Y-111288184D02*
X114052381Y-111326280D01*
X114052381Y-111326280D02*
X113976190Y-111364375D01*
X113976190Y-111364375D02*
X113785714Y-111364375D01*
X113785714Y-111364375D02*
X113709524Y-111326280D01*
X113709524Y-111326280D02*
X113671428Y-111288184D01*
X112866667Y-115288184D02*
X112828571Y-115326280D01*
X112828571Y-115326280D02*
X112714286Y-115364375D01*
X112714286Y-115364375D02*
X112638095Y-115364375D01*
X112638095Y-115364375D02*
X112523809Y-115326280D01*
X112523809Y-115326280D02*
X112447619Y-115250089D01*
X112447619Y-115250089D02*
X112409524Y-115173899D01*
X112409524Y-115173899D02*
X112371428Y-115021518D01*
X112371428Y-115021518D02*
X112371428Y-114907232D01*
X112371428Y-114907232D02*
X112409524Y-114754851D01*
X112409524Y-114754851D02*
X112447619Y-114678660D01*
X112447619Y-114678660D02*
X112523809Y-114602470D01*
X112523809Y-114602470D02*
X112638095Y-114564375D01*
X112638095Y-114564375D02*
X112714286Y-114564375D01*
X112714286Y-114564375D02*
X112828571Y-114602470D01*
X112828571Y-114602470D02*
X112866667Y-114640565D01*
X113171428Y-114640565D02*
X113209524Y-114602470D01*
X113209524Y-114602470D02*
X113285714Y-114564375D01*
X113285714Y-114564375D02*
X113476190Y-114564375D01*
X113476190Y-114564375D02*
X113552381Y-114602470D01*
X113552381Y-114602470D02*
X113590476Y-114640565D01*
X113590476Y-114640565D02*
X113628571Y-114716756D01*
X113628571Y-114716756D02*
X113628571Y-114792946D01*
X113628571Y-114792946D02*
X113590476Y-114907232D01*
X113590476Y-114907232D02*
X113133333Y-115364375D01*
X113133333Y-115364375D02*
X113628571Y-115364375D01*
X107390476Y-108564375D02*
X107390476Y-109211994D01*
X107390476Y-109211994D02*
X107428571Y-109288184D01*
X107428571Y-109288184D02*
X107466666Y-109326280D01*
X107466666Y-109326280D02*
X107542857Y-109364375D01*
X107542857Y-109364375D02*
X107695238Y-109364375D01*
X107695238Y-109364375D02*
X107771428Y-109326280D01*
X107771428Y-109326280D02*
X107809523Y-109288184D01*
X107809523Y-109288184D02*
X107847619Y-109211994D01*
X107847619Y-109211994D02*
X107847619Y-108564375D01*
X108647618Y-109364375D02*
X108190475Y-109364375D01*
X108419047Y-109364375D02*
X108419047Y-108564375D01*
X108419047Y-108564375D02*
X108342856Y-108678660D01*
X108342856Y-108678660D02*
X108266666Y-108754851D01*
X108266666Y-108754851D02*
X108190475Y-108792946D01*
X113366667Y-107288184D02*
X113328571Y-107326280D01*
X113328571Y-107326280D02*
X113214286Y-107364375D01*
X113214286Y-107364375D02*
X113138095Y-107364375D01*
X113138095Y-107364375D02*
X113023809Y-107326280D01*
X113023809Y-107326280D02*
X112947619Y-107250089D01*
X112947619Y-107250089D02*
X112909524Y-107173899D01*
X112909524Y-107173899D02*
X112871428Y-107021518D01*
X112871428Y-107021518D02*
X112871428Y-106907232D01*
X112871428Y-106907232D02*
X112909524Y-106754851D01*
X112909524Y-106754851D02*
X112947619Y-106678660D01*
X112947619Y-106678660D02*
X113023809Y-106602470D01*
X113023809Y-106602470D02*
X113138095Y-106564375D01*
X113138095Y-106564375D02*
X113214286Y-106564375D01*
X113214286Y-106564375D02*
X113328571Y-106602470D01*
X113328571Y-106602470D02*
X113366667Y-106640565D01*
X114128571Y-107364375D02*
X113671428Y-107364375D01*
X113900000Y-107364375D02*
X113900000Y-106564375D01*
X113900000Y-106564375D02*
X113823809Y-106678660D01*
X113823809Y-106678660D02*
X113747619Y-106754851D01*
X113747619Y-106754851D02*
X113671428Y-106792946D01*
X123866667Y-119934375D02*
X123600000Y-119553422D01*
X123409524Y-119934375D02*
X123409524Y-119134375D01*
X123409524Y-119134375D02*
X123714286Y-119134375D01*
X123714286Y-119134375D02*
X123790476Y-119172470D01*
X123790476Y-119172470D02*
X123828571Y-119210565D01*
X123828571Y-119210565D02*
X123866667Y-119286756D01*
X123866667Y-119286756D02*
X123866667Y-119401041D01*
X123866667Y-119401041D02*
X123828571Y-119477232D01*
X123828571Y-119477232D02*
X123790476Y-119515327D01*
X123790476Y-119515327D02*
X123714286Y-119553422D01*
X123714286Y-119553422D02*
X123409524Y-119553422D01*
X124133333Y-119134375D02*
X124628571Y-119134375D01*
X124628571Y-119134375D02*
X124361905Y-119439137D01*
X124361905Y-119439137D02*
X124476190Y-119439137D01*
X124476190Y-119439137D02*
X124552381Y-119477232D01*
X124552381Y-119477232D02*
X124590476Y-119515327D01*
X124590476Y-119515327D02*
X124628571Y-119591518D01*
X124628571Y-119591518D02*
X124628571Y-119781994D01*
X124628571Y-119781994D02*
X124590476Y-119858184D01*
X124590476Y-119858184D02*
X124552381Y-119896280D01*
X124552381Y-119896280D02*
X124476190Y-119934375D01*
X124476190Y-119934375D02*
X124247619Y-119934375D01*
X124247619Y-119934375D02*
X124171428Y-119896280D01*
X124171428Y-119896280D02*
X124133333Y-119858184D01*
X112866667Y-119788184D02*
X112828571Y-119826280D01*
X112828571Y-119826280D02*
X112714286Y-119864375D01*
X112714286Y-119864375D02*
X112638095Y-119864375D01*
X112638095Y-119864375D02*
X112523809Y-119826280D01*
X112523809Y-119826280D02*
X112447619Y-119750089D01*
X112447619Y-119750089D02*
X112409524Y-119673899D01*
X112409524Y-119673899D02*
X112371428Y-119521518D01*
X112371428Y-119521518D02*
X112371428Y-119407232D01*
X112371428Y-119407232D02*
X112409524Y-119254851D01*
X112409524Y-119254851D02*
X112447619Y-119178660D01*
X112447619Y-119178660D02*
X112523809Y-119102470D01*
X112523809Y-119102470D02*
X112638095Y-119064375D01*
X112638095Y-119064375D02*
X112714286Y-119064375D01*
X112714286Y-119064375D02*
X112828571Y-119102470D01*
X112828571Y-119102470D02*
X112866667Y-119140565D01*
X113133333Y-119064375D02*
X113666667Y-119064375D01*
X113666667Y-119064375D02*
X113323809Y-119864375D01*
X117890476Y-108564375D02*
X117890476Y-109211994D01*
X117890476Y-109211994D02*
X117928571Y-109288184D01*
X117928571Y-109288184D02*
X117966666Y-109326280D01*
X117966666Y-109326280D02*
X118042857Y-109364375D01*
X118042857Y-109364375D02*
X118195238Y-109364375D01*
X118195238Y-109364375D02*
X118271428Y-109326280D01*
X118271428Y-109326280D02*
X118309523Y-109288184D01*
X118309523Y-109288184D02*
X118347619Y-109211994D01*
X118347619Y-109211994D02*
X118347619Y-108564375D01*
X118690475Y-108640565D02*
X118728571Y-108602470D01*
X118728571Y-108602470D02*
X118804761Y-108564375D01*
X118804761Y-108564375D02*
X118995237Y-108564375D01*
X118995237Y-108564375D02*
X119071428Y-108602470D01*
X119071428Y-108602470D02*
X119109523Y-108640565D01*
X119109523Y-108640565D02*
X119147618Y-108716756D01*
X119147618Y-108716756D02*
X119147618Y-108792946D01*
X119147618Y-108792946D02*
X119109523Y-108907232D01*
X119109523Y-108907232D02*
X118652380Y-109364375D01*
X118652380Y-109364375D02*
X119147618Y-109364375D01*
X126866667Y-113288184D02*
X126828571Y-113326280D01*
X126828571Y-113326280D02*
X126714286Y-113364375D01*
X126714286Y-113364375D02*
X126638095Y-113364375D01*
X126638095Y-113364375D02*
X126523809Y-113326280D01*
X126523809Y-113326280D02*
X126447619Y-113250089D01*
X126447619Y-113250089D02*
X126409524Y-113173899D01*
X126409524Y-113173899D02*
X126371428Y-113021518D01*
X126371428Y-113021518D02*
X126371428Y-112907232D01*
X126371428Y-112907232D02*
X126409524Y-112754851D01*
X126409524Y-112754851D02*
X126447619Y-112678660D01*
X126447619Y-112678660D02*
X126523809Y-112602470D01*
X126523809Y-112602470D02*
X126638095Y-112564375D01*
X126638095Y-112564375D02*
X126714286Y-112564375D01*
X126714286Y-112564375D02*
X126828571Y-112602470D01*
X126828571Y-112602470D02*
X126866667Y-112640565D01*
X127323809Y-112907232D02*
X127247619Y-112869137D01*
X127247619Y-112869137D02*
X127209524Y-112831041D01*
X127209524Y-112831041D02*
X127171428Y-112754851D01*
X127171428Y-112754851D02*
X127171428Y-112716756D01*
X127171428Y-112716756D02*
X127209524Y-112640565D01*
X127209524Y-112640565D02*
X127247619Y-112602470D01*
X127247619Y-112602470D02*
X127323809Y-112564375D01*
X127323809Y-112564375D02*
X127476190Y-112564375D01*
X127476190Y-112564375D02*
X127552381Y-112602470D01*
X127552381Y-112602470D02*
X127590476Y-112640565D01*
X127590476Y-112640565D02*
X127628571Y-112716756D01*
X127628571Y-112716756D02*
X127628571Y-112754851D01*
X127628571Y-112754851D02*
X127590476Y-112831041D01*
X127590476Y-112831041D02*
X127552381Y-112869137D01*
X127552381Y-112869137D02*
X127476190Y-112907232D01*
X127476190Y-112907232D02*
X127323809Y-112907232D01*
X127323809Y-112907232D02*
X127247619Y-112945327D01*
X127247619Y-112945327D02*
X127209524Y-112983422D01*
X127209524Y-112983422D02*
X127171428Y-113059613D01*
X127171428Y-113059613D02*
X127171428Y-113211994D01*
X127171428Y-113211994D02*
X127209524Y-113288184D01*
X127209524Y-113288184D02*
X127247619Y-113326280D01*
X127247619Y-113326280D02*
X127323809Y-113364375D01*
X127323809Y-113364375D02*
X127476190Y-113364375D01*
X127476190Y-113364375D02*
X127552381Y-113326280D01*
X127552381Y-113326280D02*
X127590476Y-113288184D01*
X127590476Y-113288184D02*
X127628571Y-113211994D01*
X127628571Y-113211994D02*
X127628571Y-113059613D01*
X127628571Y-113059613D02*
X127590476Y-112983422D01*
X127590476Y-112983422D02*
X127552381Y-112945327D01*
X127552381Y-112945327D02*
X127476190Y-112907232D01*
%TO.C,J2*%
D11*
X128850000Y-140700000D02*
X128850000Y-142040000D01*
X130340000Y-140700000D02*
X128850000Y-140700000D01*
X130340000Y-140700000D02*
X130340000Y-139500000D01*
X146660000Y-140700000D02*
X148150000Y-140700000D01*
X148150000Y-140700000D02*
X148150000Y-142040000D01*
%TO.C,U3*%
X105690000Y-114265000D02*
X110310000Y-114265000D01*
X110310000Y-119735000D02*
X105690000Y-119735000D01*
X104140000Y-114720000D02*
X103810000Y-114960000D01*
X103810000Y-114480000D01*
X104140000Y-114720000D01*
G36*
X104140000Y-114720000D02*
G01*
X103810000Y-114960000D01*
X103810000Y-114480000D01*
X104140000Y-114720000D01*
G37*
%TO.C,J1*%
X103850000Y-140700000D02*
X103850000Y-142040000D01*
X105340000Y-140700000D02*
X103850000Y-140700000D01*
X105340000Y-140700000D02*
X105340000Y-139500000D01*
X121660000Y-140700000D02*
X123150000Y-140700000D01*
X123150000Y-140700000D02*
X123150000Y-142040000D01*
%TO.C,C5*%
X102859420Y-122490000D02*
X103140580Y-122490000D01*
X102859420Y-123510000D02*
X103140580Y-123510000D01*
%TO.C,A1*%
X130100000Y-105500000D02*
X147900000Y-105500000D01*
X130100000Y-126500000D02*
X147900000Y-126500000D01*
D12*
X128060000Y-108380000D02*
G75*
G02*
X127760000Y-108380000I-150000J0D01*
G01*
X127760000Y-108380000D02*
G75*
G02*
X128060000Y-108380000I150000J0D01*
G01*
%TO.C,C3*%
D11*
X124490000Y-109140580D02*
X124490000Y-108859420D01*
X125510000Y-109140580D02*
X125510000Y-108859420D01*
%TO.C,C6*%
X126359420Y-129490000D02*
X126640580Y-129490000D01*
X126359420Y-130510000D02*
X126640580Y-130510000D01*
%TO.C,U5*%
X104240000Y-126290000D02*
X109760000Y-126290000D01*
X104240000Y-126465000D02*
X104240000Y-126290000D01*
X104240000Y-134710000D02*
X104240000Y-134535000D01*
X109760000Y-126290000D02*
X109760000Y-126465000D01*
X109760000Y-134535000D02*
X109760000Y-134710000D01*
X109760000Y-134710000D02*
X104240000Y-134710000D01*
X110500000Y-134540000D02*
X110840000Y-135010000D01*
X110160000Y-135010000D01*
X110500000Y-134540000D01*
G36*
X110840000Y-135010000D02*
G01*
X110160000Y-135010000D01*
X110500000Y-134540000D01*
X110840000Y-135010000D01*
G37*
%TO.C,U4*%
X116190000Y-114265000D02*
X120810000Y-114265000D01*
X120810000Y-119735000D02*
X116190000Y-119735000D01*
X114640000Y-114720000D02*
X114310000Y-114960000D01*
X114310000Y-114480000D01*
X114640000Y-114720000D01*
G36*
X114640000Y-114720000D02*
G01*
X114310000Y-114960000D01*
X114310000Y-114480000D01*
X114640000Y-114720000D01*
G37*
%TO.C,C9*%
X126490000Y-121140580D02*
X126490000Y-120859420D01*
X127510000Y-121140580D02*
X127510000Y-120859420D01*
%TO.C,R4*%
X125762742Y-123477500D02*
X126237258Y-123477500D01*
X125762742Y-124522500D02*
X126237258Y-124522500D01*
%TO.C,U6*%
X117240000Y-126290000D02*
X122760000Y-126290000D01*
X117240000Y-126465000D02*
X117240000Y-126290000D01*
X117240000Y-134710000D02*
X117240000Y-134535000D01*
X122760000Y-126290000D02*
X122760000Y-126465000D01*
X122760000Y-134535000D02*
X122760000Y-134710000D01*
X122760000Y-134710000D02*
X117240000Y-134710000D01*
X116500000Y-126460000D02*
X116160000Y-125990000D01*
X116840000Y-125990000D01*
X116500000Y-126460000D01*
G36*
X116500000Y-126460000D02*
G01*
X116160000Y-125990000D01*
X116840000Y-125990000D01*
X116500000Y-126460000D01*
G37*
%TO.C,R1*%
X106762742Y-122477500D02*
X107237258Y-122477500D01*
X106762742Y-123522500D02*
X107237258Y-123522500D01*
%TO.C,U7*%
X112390000Y-122390000D02*
X115610000Y-122390000D01*
X112390000Y-122565000D02*
X112390000Y-122390000D01*
X112390000Y-125610000D02*
X112390000Y-125435000D01*
X115610000Y-122390000D02*
X115610000Y-122565000D01*
X115610000Y-125435000D02*
X115610000Y-125610000D01*
X115610000Y-125610000D02*
X112390000Y-125610000D01*
X111840000Y-122560000D02*
X111600000Y-122230000D01*
X112080000Y-122230000D01*
X111840000Y-122560000D01*
G36*
X111840000Y-122560000D02*
G01*
X111600000Y-122230000D01*
X112080000Y-122230000D01*
X111840000Y-122560000D01*
G37*
%TO.C,R2*%
X120262742Y-122477500D02*
X120737258Y-122477500D01*
X120262742Y-123522500D02*
X120737258Y-123522500D01*
%TO.C,C4*%
X124490000Y-117140580D02*
X124490000Y-116859420D01*
X125510000Y-117140580D02*
X125510000Y-116859420D01*
%TO.C,R5*%
X112727500Y-113237258D02*
X112727500Y-112762742D01*
X113772500Y-113237258D02*
X113772500Y-112762742D01*
%TO.C,C2*%
X112740000Y-117140580D02*
X112740000Y-116859420D01*
X113760000Y-117140580D02*
X113760000Y-116859420D01*
%TO.C,U1*%
X105690000Y-106265000D02*
X110310000Y-106265000D01*
X110310000Y-111735000D02*
X105690000Y-111735000D01*
X104140000Y-106720000D02*
X103810000Y-106960000D01*
X103810000Y-106480000D01*
X104140000Y-106720000D01*
G36*
X104140000Y-106720000D02*
G01*
X103810000Y-106960000D01*
X103810000Y-106480000D01*
X104140000Y-106720000D01*
G37*
%TO.C,C1*%
X112740000Y-109140580D02*
X112740000Y-108859420D01*
X113760000Y-109140580D02*
X113760000Y-108859420D01*
%TO.C,R3*%
X123762742Y-120477500D02*
X124237258Y-120477500D01*
X123762742Y-121522500D02*
X124237258Y-121522500D01*
%TO.C,C7*%
X113859420Y-120490000D02*
X114140580Y-120490000D01*
X113859420Y-121510000D02*
X114140580Y-121510000D01*
%TO.C,U2*%
X116190000Y-106265000D02*
X120810000Y-106265000D01*
X120810000Y-111735000D02*
X116190000Y-111735000D01*
X114640000Y-106720000D02*
X114310000Y-106960000D01*
X114310000Y-106480000D01*
X114640000Y-106720000D01*
G36*
X114640000Y-106720000D02*
G01*
X114310000Y-106960000D01*
X114310000Y-106480000D01*
X114640000Y-106720000D01*
G37*
%TO.C,C8*%
X124490000Y-113140580D02*
X124490000Y-112859420D01*
X125510000Y-113140580D02*
X125510000Y-112859420D01*
%TD*%
M02*
