%TF.GenerationSoftware,KiCad,Pcbnew,10.0.5*%
%TF.CreationDate,2026-08-06T13:52:57-04:00*%
%TF.ProjectId,Flexitac 2.0,466c6578-6974-4616-9320-322e302e6b69,rev?*%
%TF.SameCoordinates,Original*%
%TF.FileFunction,Soldermask,Top*%
%TF.FilePolarity,Negative*%
%FSLAX46Y46*%
G04 Gerber Fmt 4.6, Leading zero omitted, Abs format (unit mm)*
G04 Created by KiCad (PCBNEW 10.0.5) date 2026-08-06 13:52:57*
%MOMM*%
%LPD*%
G01*
G04 APERTURE LIST*
G04 Aperture macros list*
%AMRoundRect*
0 Rectangle with rounded corners*
0 $1 Rounding radius*
0 $2 $3 $4 $5 $6 $7 $8 $9 X,Y pos of 4 corners*
0 Add a 4 corners polygon primitive as box body*
4,1,4,$2,$3,$4,$5,$6,$7,$8,$9,$2,$3,0*
0 Add four circle primitives for the rounded corners*
1,1,$1+$1,$2,$3*
1,1,$1+$1,$4,$5*
1,1,$1+$1,$6,$7*
1,1,$1+$1,$8,$9*
0 Add four rect primitives between the rounded corners*
20,1,$1+$1,$2,$3,$4,$5,0*
20,1,$1+$1,$4,$5,$6,$7,0*
20,1,$1+$1,$6,$7,$8,$9,0*
20,1,$1+$1,$8,$9,$2,$3,0*%
G04 Aperture macros list end*
%ADD10R,0.300000X1.300000*%
%ADD11R,1.800000X2.200000*%
%ADD12RoundRect,0.100000X-0.637500X-0.100000X0.637500X-0.100000X0.637500X0.100000X-0.637500X0.100000X0*%
%ADD13RoundRect,0.225000X-0.225000X-0.250000X0.225000X-0.250000X0.225000X0.250000X-0.225000X0.250000X0*%
%ADD14R,3.000000X1.700000*%
%ADD15O,3.000000X1.700000*%
%ADD16RoundRect,0.225000X0.250000X-0.225000X0.250000X0.225000X-0.250000X0.225000X-0.250000X-0.225000X0*%
%ADD17RoundRect,0.100000X0.850000X0.100000X-0.850000X0.100000X-0.850000X-0.100000X0.850000X-0.100000X0*%
%ADD18C,2.200000*%
%ADD19RoundRect,0.200000X-0.200000X-0.275000X0.200000X-0.275000X0.200000X0.275000X-0.200000X0.275000X0*%
%ADD20RoundRect,0.100000X-0.850000X-0.100000X0.850000X-0.100000X0.850000X0.100000X-0.850000X0.100000X0*%
%ADD21RoundRect,0.100000X-0.712500X-0.100000X0.712500X-0.100000X0.712500X0.100000X-0.712500X0.100000X0*%
%ADD22RoundRect,0.200000X0.275000X-0.200000X0.275000X0.200000X-0.275000X0.200000X-0.275000X-0.200000X0*%
G04 APERTURE END LIST*
D10*
%TO.C,J2*%
X130750000Y-140150000D03*
X131250000Y-140150000D03*
X131750000Y-140150000D03*
X132250000Y-140150000D03*
X132750000Y-140150000D03*
X133250000Y-140150000D03*
X133750000Y-140150000D03*
X134250000Y-140150000D03*
X134750000Y-140150000D03*
X135250000Y-140150000D03*
X135750000Y-140150000D03*
X136250000Y-140150000D03*
X136750000Y-140150000D03*
X137250000Y-140150000D03*
X137750000Y-140150000D03*
X138250000Y-140150000D03*
X138750000Y-140150000D03*
X139250000Y-140150000D03*
X139750000Y-140150000D03*
X140250000Y-140150000D03*
X140750000Y-140150000D03*
X141250000Y-140150000D03*
X141750000Y-140150000D03*
X142250000Y-140150000D03*
X142750000Y-140150000D03*
X143250000Y-140150000D03*
X143750000Y-140150000D03*
X144250000Y-140150000D03*
X144750000Y-140150000D03*
X145250000Y-140150000D03*
X145750000Y-140150000D03*
X146250000Y-140150000D03*
D11*
X128850000Y-143400000D03*
X138150000Y-143400000D03*
X140150000Y-143400000D03*
X148150000Y-143400000D03*
%TD*%
D12*
%TO.C,U3*%
X105137500Y-114725000D03*
X105137500Y-115375000D03*
X105137500Y-116025000D03*
X105137500Y-116675000D03*
X105137500Y-117325000D03*
X105137500Y-117975000D03*
X105137500Y-118625000D03*
X105137500Y-119275000D03*
X110862500Y-119275000D03*
X110862500Y-118625000D03*
X110862500Y-117975000D03*
X110862500Y-117325000D03*
X110862500Y-116675000D03*
X110862500Y-116025000D03*
X110862500Y-115375000D03*
X110862500Y-114725000D03*
%TD*%
D10*
%TO.C,J1*%
X105750000Y-140150000D03*
X106250000Y-140150000D03*
X106750000Y-140150000D03*
X107250000Y-140150000D03*
X107750000Y-140150000D03*
X108250000Y-140150000D03*
X108750000Y-140150000D03*
X109250000Y-140150000D03*
X109750000Y-140150000D03*
X110250000Y-140150000D03*
X110750000Y-140150000D03*
X111250000Y-140150000D03*
X111750000Y-140150000D03*
X112250000Y-140150000D03*
X112750000Y-140150000D03*
X113250000Y-140150000D03*
X113750000Y-140150000D03*
X114250000Y-140150000D03*
X114750000Y-140150000D03*
X115250000Y-140150000D03*
X115750000Y-140150000D03*
X116250000Y-140150000D03*
X116750000Y-140150000D03*
X117250000Y-140150000D03*
X117750000Y-140150000D03*
X118250000Y-140150000D03*
X118750000Y-140150000D03*
X119250000Y-140150000D03*
X119750000Y-140150000D03*
X120250000Y-140150000D03*
X120750000Y-140150000D03*
X121250000Y-140150000D03*
D11*
X103850000Y-143400000D03*
X113150000Y-143400000D03*
X115150000Y-143400000D03*
X123150000Y-143400000D03*
%TD*%
D13*
%TO.C,C5*%
X102225000Y-123000000D03*
X103775000Y-123000000D03*
%TD*%
D14*
%TO.C,A1*%
X130110000Y-108380000D03*
D15*
X130110000Y-110920000D03*
X130110000Y-113460000D03*
X130110000Y-116000000D03*
X130110000Y-118540000D03*
X130110000Y-121080000D03*
X130110000Y-123620000D03*
X147890000Y-123620000D03*
X147890000Y-121080000D03*
X147890000Y-118540000D03*
X147890000Y-116000000D03*
X147890000Y-113460000D03*
X147890000Y-110920000D03*
X147890000Y-108380000D03*
%TD*%
D16*
%TO.C,C3*%
X125000000Y-109775000D03*
X125000000Y-108225000D03*
%TD*%
D13*
%TO.C,C6*%
X125725000Y-130000000D03*
X127275000Y-130000000D03*
%TD*%
D17*
%TO.C,U5*%
X110500000Y-134075000D03*
X110500000Y-133425000D03*
X110500000Y-132775000D03*
X110500000Y-132125000D03*
X110500000Y-131475000D03*
X110500000Y-130825000D03*
X110500000Y-130175000D03*
X110500000Y-129525000D03*
X110500000Y-128875000D03*
X110500000Y-128225000D03*
X110500000Y-127575000D03*
X110500000Y-126925000D03*
X103500000Y-126925000D03*
X103500000Y-127575000D03*
X103500000Y-128225000D03*
X103500000Y-128875000D03*
X103500000Y-129525000D03*
X103500000Y-130175000D03*
X103500000Y-130825000D03*
X103500000Y-131475000D03*
X103500000Y-132125000D03*
X103500000Y-132775000D03*
X103500000Y-133425000D03*
X103500000Y-134075000D03*
%TD*%
D12*
%TO.C,U4*%
X115637500Y-114725000D03*
X115637500Y-115375000D03*
X115637500Y-116025000D03*
X115637500Y-116675000D03*
X115637500Y-117325000D03*
X115637500Y-117975000D03*
X115637500Y-118625000D03*
X115637500Y-119275000D03*
X121362500Y-119275000D03*
X121362500Y-118625000D03*
X121362500Y-117975000D03*
X121362500Y-117325000D03*
X121362500Y-116675000D03*
X121362500Y-116025000D03*
X121362500Y-115375000D03*
X121362500Y-114725000D03*
%TD*%
D18*
%TO.C,H3*%
X139000000Y-132000000D03*
%TD*%
D16*
%TO.C,C9*%
X127000000Y-121775000D03*
X127000000Y-120225000D03*
%TD*%
D19*
%TO.C,R4*%
X125175000Y-124000000D03*
X126825000Y-124000000D03*
%TD*%
D20*
%TO.C,U6*%
X116500000Y-126925000D03*
X116500000Y-127575000D03*
X116500000Y-128225000D03*
X116500000Y-128875000D03*
X116500000Y-129525000D03*
X116500000Y-130175000D03*
X116500000Y-130825000D03*
X116500000Y-131475000D03*
X116500000Y-132125000D03*
X116500000Y-132775000D03*
X116500000Y-133425000D03*
X116500000Y-134075000D03*
X123500000Y-134075000D03*
X123500000Y-133425000D03*
X123500000Y-132775000D03*
X123500000Y-132125000D03*
X123500000Y-131475000D03*
X123500000Y-130825000D03*
X123500000Y-130175000D03*
X123500000Y-129525000D03*
X123500000Y-128875000D03*
X123500000Y-128225000D03*
X123500000Y-127575000D03*
X123500000Y-126925000D03*
%TD*%
D18*
%TO.C,H1*%
X102500000Y-102500000D03*
%TD*%
%TO.C,H2*%
X149500000Y-102500000D03*
%TD*%
D19*
%TO.C,R1*%
X106175000Y-123000000D03*
X107825000Y-123000000D03*
%TD*%
D21*
%TO.C,U7*%
X111887500Y-123025000D03*
X111887500Y-123675000D03*
X111887500Y-124325000D03*
X111887500Y-124975000D03*
X116112500Y-124975000D03*
X116112500Y-124325000D03*
X116112500Y-123675000D03*
X116112500Y-123025000D03*
%TD*%
D19*
%TO.C,R2*%
X119675000Y-123000000D03*
X121325000Y-123000000D03*
%TD*%
D16*
%TO.C,C4*%
X125000000Y-117775000D03*
X125000000Y-116225000D03*
%TD*%
D22*
%TO.C,R5*%
X113250000Y-113825000D03*
X113250000Y-112175000D03*
%TD*%
D16*
%TO.C,C2*%
X113250000Y-117775000D03*
X113250000Y-116225000D03*
%TD*%
D12*
%TO.C,U1*%
X105137500Y-106725000D03*
X105137500Y-107375000D03*
X105137500Y-108025000D03*
X105137500Y-108675000D03*
X105137500Y-109325000D03*
X105137500Y-109975000D03*
X105137500Y-110625000D03*
X105137500Y-111275000D03*
X110862500Y-111275000D03*
X110862500Y-110625000D03*
X110862500Y-109975000D03*
X110862500Y-109325000D03*
X110862500Y-108675000D03*
X110862500Y-108025000D03*
X110862500Y-107375000D03*
X110862500Y-106725000D03*
%TD*%
D16*
%TO.C,C1*%
X113250000Y-109775000D03*
X113250000Y-108225000D03*
%TD*%
D19*
%TO.C,R3*%
X123175000Y-121000000D03*
X124825000Y-121000000D03*
%TD*%
D13*
%TO.C,C7*%
X113225000Y-121000000D03*
X114775000Y-121000000D03*
%TD*%
D12*
%TO.C,U2*%
X115637500Y-106725000D03*
X115637500Y-107375000D03*
X115637500Y-108025000D03*
X115637500Y-108675000D03*
X115637500Y-109325000D03*
X115637500Y-109975000D03*
X115637500Y-110625000D03*
X115637500Y-111275000D03*
X121362500Y-111275000D03*
X121362500Y-110625000D03*
X121362500Y-109975000D03*
X121362500Y-109325000D03*
X121362500Y-108675000D03*
X121362500Y-108025000D03*
X121362500Y-107375000D03*
X121362500Y-106725000D03*
%TD*%
D16*
%TO.C,C8*%
X125000000Y-113775000D03*
X125000000Y-112225000D03*
%TD*%
M02*
