%TF.GenerationSoftware,KiCad,Pcbnew,10.0.5*%
%TF.CreationDate,2026-08-06T13:52:56-04:00*%
%TF.ProjectId,Flexitac 2.0,466c6578-6974-4616-9320-322e302e6b69,rev?*%
%TF.SameCoordinates,Original*%
%TF.FileFunction,Copper,L3,Inr*%
%TF.FilePolarity,Positive*%
%FSLAX46Y46*%
G04 Gerber Fmt 4.6, Leading zero omitted, Abs format (unit mm)*
G04 Created by KiCad (PCBNEW 10.0.5) date 2026-08-06 13:52:56*
%MOMM*%
%LPD*%
G01*
G04 APERTURE LIST*
%TA.AperFunction,ComponentPad*%
%ADD10R,3.000000X1.700000*%
%TD*%
%TA.AperFunction,ComponentPad*%
%ADD11O,3.000000X1.700000*%
%TD*%
%TA.AperFunction,ViaPad*%
%ADD12C,0.600000*%
%TD*%
G04 APERTURE END LIST*
D10*
%TO.N,ADC_A*%
%TO.C,A1*%
X130110000Y-108380000D03*
D11*
%TO.N,ADC_B*%
X130110000Y-110920000D03*
%TO.N,unconnected-(A1-D2{slash}A2{slash}GPIO28-Pad3)*%
X130110000Y-113460000D03*
%TO.N,MUX_S1*%
X130110000Y-116000000D03*
%TO.N,MUX_S2*%
X130110000Y-118540000D03*
%TO.N,MUX_S3*%
X130110000Y-121080000D03*
%TO.N,unconnected-(A1-D6{slash}GPIO0-Pad7)*%
X130110000Y-123620000D03*
%TO.N,ROW_LATCH_MCU*%
X147890000Y-123620000D03*
%TO.N,ROW_CLK_MCU*%
X147890000Y-121080000D03*
%TO.N,MUX_S0*%
X147890000Y-118540000D03*
%TO.N,ROW_DATA*%
X147890000Y-116000000D03*
%TO.N,+3.3V*%
X147890000Y-113460000D03*
%TO.N,GND*%
X147890000Y-110920000D03*
%TO.N,+5V*%
X147890000Y-108380000D03*
%TD*%
D12*
%TO.N,GND*%
X104197807Y-111617020D03*
X148150000Y-144400000D03*
X127939692Y-119882979D03*
X115560307Y-134417020D03*
X114697807Y-119617020D03*
X114775000Y-122000000D03*
X138150000Y-144400000D03*
X121325000Y-124000000D03*
X108450000Y-102450000D03*
X110947807Y-125317020D03*
X102450000Y-114450000D03*
X112162500Y-116675000D03*
X103775000Y-124000000D03*
X126000000Y-108225000D03*
X144450000Y-102450000D03*
X102450000Y-108450000D03*
X120450000Y-102450000D03*
X114450000Y-102450000D03*
X140150000Y-144400000D03*
X102450000Y-138450000D03*
X138450000Y-102450000D03*
X104197807Y-119617020D03*
X115637500Y-112275000D03*
X103850000Y-144400000D03*
X115150000Y-144400000D03*
X126000000Y-116225000D03*
X126000000Y-112225000D03*
X114189692Y-116567020D03*
X112162500Y-108675000D03*
X128850000Y-144400000D03*
X123150000Y-144400000D03*
X132449999Y-102450000D03*
X102450000Y-120450000D03*
X127275000Y-131000000D03*
X108825000Y-123000000D03*
X111439692Y-126582979D03*
X126450000Y-102450000D03*
X122662500Y-108675000D03*
X101900000Y-128225000D03*
X114189692Y-108567020D03*
X122662500Y-116675000D03*
X125100000Y-132775000D03*
X113150000Y-144400000D03*
%TO.N,ROW_VCC*%
X114189692Y-118117020D03*
X126000000Y-117775000D03*
X114250000Y-112175000D03*
X111802192Y-106382979D03*
X122302192Y-106382979D03*
X122302192Y-114382979D03*
X112162500Y-110625000D03*
X122662500Y-118625000D03*
X111802192Y-114382979D03*
X112162500Y-118625000D03*
X126000000Y-109775000D03*
X114189692Y-110117020D03*
X122662500Y-110625000D03*
%TO.N,+3.3V*%
X127766044Y-122417787D03*
X126000000Y-113775000D03*
X102225000Y-124000000D03*
X102560307Y-134417020D03*
X124439692Y-126582979D03*
X114250000Y-113825000D03*
X125725000Y-131000000D03*
X113225000Y-122000000D03*
X117052192Y-122682979D03*
%TO.N,ADC_A*%
X110947807Y-123332979D03*
X110947807Y-122682979D03*
%TO.N,ADC_B*%
X114512500Y-123675000D03*
X114512500Y-124325000D03*
%TO.N,SENSE_A*%
X110287500Y-124325000D03*
X106175000Y-124000000D03*
X111439692Y-134417020D03*
%TO.N,SENSE_B*%
X115560307Y-126582979D03*
X117052192Y-125317020D03*
X119675000Y-124000000D03*
%TD*%
%TA.AperFunction,Conductor*%
%TO.N,+3.3V*%
G36*
X149002777Y-100300655D02*
G01*
X149296701Y-100317162D01*
X149307724Y-100318404D01*
X149595224Y-100367252D01*
X149606018Y-100369715D01*
X149886251Y-100450449D01*
X149896722Y-100454113D01*
X150166134Y-100565708D01*
X150176136Y-100570525D01*
X150431353Y-100711578D01*
X150440748Y-100717481D01*
X150678591Y-100886239D01*
X150687242Y-100893139D01*
X150904696Y-101087468D01*
X150912531Y-101095303D01*
X151106859Y-101312755D01*
X151113761Y-101321411D01*
X151130464Y-101344950D01*
X151282515Y-101559246D01*
X151288421Y-101568646D01*
X151429474Y-101823863D01*
X151434291Y-101833865D01*
X151545884Y-102103273D01*
X151549551Y-102113752D01*
X151585207Y-102237515D01*
X151621190Y-102362416D01*
X151630280Y-102393966D01*
X151632750Y-102404790D01*
X151681594Y-102692270D01*
X151682837Y-102703302D01*
X151699344Y-102997222D01*
X151699500Y-103002773D01*
X151699500Y-142997226D01*
X151699344Y-143002777D01*
X151682837Y-143296697D01*
X151681594Y-143307729D01*
X151632750Y-143595209D01*
X151630280Y-143606033D01*
X151549551Y-143886247D01*
X151545884Y-143896726D01*
X151434291Y-144166134D01*
X151429474Y-144176136D01*
X151288421Y-144431353D01*
X151282515Y-144440753D01*
X151113769Y-144678579D01*
X151106851Y-144687252D01*
X150958628Y-144853114D01*
X150912538Y-144904689D01*
X150904689Y-144912538D01*
X150687252Y-145106851D01*
X150678579Y-145113769D01*
X150440753Y-145282515D01*
X150431353Y-145288421D01*
X150176136Y-145429474D01*
X150166134Y-145434291D01*
X149896726Y-145545884D01*
X149886247Y-145549551D01*
X149606033Y-145630280D01*
X149595209Y-145632750D01*
X149307729Y-145681594D01*
X149296697Y-145682837D01*
X149002778Y-145699344D01*
X148997227Y-145699500D01*
X103002773Y-145699500D01*
X102997222Y-145699344D01*
X102703302Y-145682837D01*
X102692270Y-145681594D01*
X102404790Y-145632750D01*
X102393966Y-145630280D01*
X102113752Y-145549551D01*
X102103273Y-145545884D01*
X101833865Y-145434291D01*
X101823863Y-145429474D01*
X101568646Y-145288421D01*
X101559246Y-145282515D01*
X101321411Y-145113761D01*
X101312755Y-145106859D01*
X101095303Y-144912531D01*
X101087468Y-144904696D01*
X100893139Y-144687242D01*
X100886239Y-144678591D01*
X100717481Y-144440748D01*
X100711578Y-144431353D01*
X100677075Y-144368924D01*
X100654195Y-144327525D01*
X103299500Y-144327525D01*
X103299500Y-144472474D01*
X103337017Y-144612489D01*
X103409487Y-144738010D01*
X103409489Y-144738012D01*
X103409491Y-144738015D01*
X103511985Y-144840509D01*
X103511987Y-144840510D01*
X103511989Y-144840512D01*
X103637511Y-144912982D01*
X103637512Y-144912982D01*
X103637515Y-144912984D01*
X103777525Y-144950500D01*
X103777526Y-144950500D01*
X103922474Y-144950500D01*
X103922475Y-144950500D01*
X104062485Y-144912984D01*
X104062487Y-144912982D01*
X104062489Y-144912982D01*
X104188010Y-144840512D01*
X104188010Y-144840511D01*
X104188015Y-144840509D01*
X104290509Y-144738015D01*
X104322209Y-144683110D01*
X104362982Y-144612489D01*
X104362982Y-144612487D01*
X104362984Y-144612485D01*
X104400500Y-144472475D01*
X104400500Y-144327525D01*
X112599500Y-144327525D01*
X112599500Y-144472474D01*
X112637017Y-144612489D01*
X112709487Y-144738010D01*
X112709489Y-144738012D01*
X112709491Y-144738015D01*
X112811985Y-144840509D01*
X112811987Y-144840510D01*
X112811989Y-144840512D01*
X112937511Y-144912982D01*
X112937512Y-144912982D01*
X112937515Y-144912984D01*
X113077525Y-144950500D01*
X113077526Y-144950500D01*
X113222474Y-144950500D01*
X113222475Y-144950500D01*
X113362485Y-144912984D01*
X113362487Y-144912982D01*
X113362489Y-144912982D01*
X113488010Y-144840512D01*
X113488010Y-144840511D01*
X113488015Y-144840509D01*
X113590509Y-144738015D01*
X113622209Y-144683110D01*
X113662982Y-144612489D01*
X113662982Y-144612487D01*
X113662984Y-144612485D01*
X113700500Y-144472475D01*
X113700500Y-144327525D01*
X114599500Y-144327525D01*
X114599500Y-144472474D01*
X114637017Y-144612489D01*
X114709487Y-144738010D01*
X114709489Y-144738012D01*
X114709491Y-144738015D01*
X114811985Y-144840509D01*
X114811987Y-144840510D01*
X114811989Y-144840512D01*
X114937511Y-144912982D01*
X114937512Y-144912982D01*
X114937515Y-144912984D01*
X115077525Y-144950500D01*
X115077526Y-144950500D01*
X115222474Y-144950500D01*
X115222475Y-144950500D01*
X115362485Y-144912984D01*
X115362487Y-144912982D01*
X115362489Y-144912982D01*
X115488010Y-144840512D01*
X115488010Y-144840511D01*
X115488015Y-144840509D01*
X115590509Y-144738015D01*
X115622209Y-144683110D01*
X115662982Y-144612489D01*
X115662982Y-144612487D01*
X115662984Y-144612485D01*
X115700500Y-144472475D01*
X115700500Y-144327525D01*
X122599500Y-144327525D01*
X122599500Y-144472474D01*
X122637017Y-144612489D01*
X122709487Y-144738010D01*
X122709489Y-144738012D01*
X122709491Y-144738015D01*
X122811985Y-144840509D01*
X122811987Y-144840510D01*
X122811989Y-144840512D01*
X122937511Y-144912982D01*
X122937512Y-144912982D01*
X122937515Y-144912984D01*
X123077525Y-144950500D01*
X123077526Y-144950500D01*
X123222474Y-144950500D01*
X123222475Y-144950500D01*
X123362485Y-144912984D01*
X123362487Y-144912982D01*
X123362489Y-144912982D01*
X123488010Y-144840512D01*
X123488010Y-144840511D01*
X123488015Y-144840509D01*
X123590509Y-144738015D01*
X123622209Y-144683110D01*
X123662982Y-144612489D01*
X123662982Y-144612487D01*
X123662984Y-144612485D01*
X123700500Y-144472475D01*
X123700500Y-144327525D01*
X128299500Y-144327525D01*
X128299500Y-144472474D01*
X128337017Y-144612489D01*
X128409487Y-144738010D01*
X128409489Y-144738012D01*
X128409491Y-144738015D01*
X128511985Y-144840509D01*
X128511987Y-144840510D01*
X128511989Y-144840512D01*
X128637511Y-144912982D01*
X128637512Y-144912982D01*
X128637515Y-144912984D01*
X128777525Y-144950500D01*
X128777526Y-144950500D01*
X128922474Y-144950500D01*
X128922475Y-144950500D01*
X129062485Y-144912984D01*
X129062487Y-144912982D01*
X129062489Y-144912982D01*
X129188010Y-144840512D01*
X129188010Y-144840511D01*
X129188015Y-144840509D01*
X129290509Y-144738015D01*
X129322209Y-144683110D01*
X129362982Y-144612489D01*
X129362982Y-144612487D01*
X129362984Y-144612485D01*
X129400500Y-144472475D01*
X129400500Y-144327525D01*
X137599500Y-144327525D01*
X137599500Y-144472474D01*
X137637017Y-144612489D01*
X137709487Y-144738010D01*
X137709489Y-144738012D01*
X137709491Y-144738015D01*
X137811985Y-144840509D01*
X137811987Y-144840510D01*
X137811989Y-144840512D01*
X137937511Y-144912982D01*
X137937512Y-144912982D01*
X137937515Y-144912984D01*
X138077525Y-144950500D01*
X138077526Y-144950500D01*
X138222474Y-144950500D01*
X138222475Y-144950500D01*
X138362485Y-144912984D01*
X138362487Y-144912982D01*
X138362489Y-144912982D01*
X138488010Y-144840512D01*
X138488010Y-144840511D01*
X138488015Y-144840509D01*
X138590509Y-144738015D01*
X138622209Y-144683110D01*
X138662982Y-144612489D01*
X138662982Y-144612487D01*
X138662984Y-144612485D01*
X138700500Y-144472475D01*
X138700500Y-144327525D01*
X139599500Y-144327525D01*
X139599500Y-144472474D01*
X139637017Y-144612489D01*
X139709487Y-144738010D01*
X139709489Y-144738012D01*
X139709491Y-144738015D01*
X139811985Y-144840509D01*
X139811987Y-144840510D01*
X139811989Y-144840512D01*
X139937511Y-144912982D01*
X139937512Y-144912982D01*
X139937515Y-144912984D01*
X140077525Y-144950500D01*
X140077526Y-144950500D01*
X140222474Y-144950500D01*
X140222475Y-144950500D01*
X140362485Y-144912984D01*
X140362487Y-144912982D01*
X140362489Y-144912982D01*
X140488010Y-144840512D01*
X140488010Y-144840511D01*
X140488015Y-144840509D01*
X140590509Y-144738015D01*
X140622209Y-144683110D01*
X140662982Y-144612489D01*
X140662982Y-144612487D01*
X140662984Y-144612485D01*
X140700500Y-144472475D01*
X140700500Y-144327525D01*
X147599500Y-144327525D01*
X147599500Y-144472474D01*
X147637017Y-144612489D01*
X147709487Y-144738010D01*
X147709489Y-144738012D01*
X147709491Y-144738015D01*
X147811985Y-144840509D01*
X147811987Y-144840510D01*
X147811989Y-144840512D01*
X147937511Y-144912982D01*
X147937512Y-144912982D01*
X147937515Y-144912984D01*
X148077525Y-144950500D01*
X148077526Y-144950500D01*
X148222474Y-144950500D01*
X148222475Y-144950500D01*
X148362485Y-144912984D01*
X148362487Y-144912982D01*
X148362489Y-144912982D01*
X148488010Y-144840512D01*
X148488010Y-144840511D01*
X148488015Y-144840509D01*
X148590509Y-144738015D01*
X148622209Y-144683110D01*
X148662982Y-144612489D01*
X148662982Y-144612487D01*
X148662984Y-144612485D01*
X148700500Y-144472475D01*
X148700500Y-144327525D01*
X148662984Y-144187515D01*
X148662982Y-144187512D01*
X148662982Y-144187510D01*
X148590512Y-144061989D01*
X148590510Y-144061987D01*
X148590509Y-144061985D01*
X148488015Y-143959491D01*
X148488012Y-143959489D01*
X148488010Y-143959487D01*
X148362488Y-143887017D01*
X148362489Y-143887017D01*
X148332896Y-143879087D01*
X148222475Y-143849500D01*
X148077525Y-143849500D01*
X148015790Y-143866041D01*
X147937510Y-143887017D01*
X147811989Y-143959487D01*
X147709487Y-144061989D01*
X147637017Y-144187510D01*
X147599500Y-144327525D01*
X140700500Y-144327525D01*
X140662984Y-144187515D01*
X140662982Y-144187512D01*
X140662982Y-144187510D01*
X140590512Y-144061989D01*
X140590510Y-144061987D01*
X140590509Y-144061985D01*
X140488015Y-143959491D01*
X140488012Y-143959489D01*
X140488010Y-143959487D01*
X140362488Y-143887017D01*
X140362489Y-143887017D01*
X140332896Y-143879087D01*
X140222475Y-143849500D01*
X140077525Y-143849500D01*
X140015790Y-143866041D01*
X139937510Y-143887017D01*
X139811989Y-143959487D01*
X139709487Y-144061989D01*
X139637017Y-144187510D01*
X139599500Y-144327525D01*
X138700500Y-144327525D01*
X138662984Y-144187515D01*
X138662982Y-144187512D01*
X138662982Y-144187510D01*
X138590512Y-144061989D01*
X138590510Y-144061987D01*
X138590509Y-144061985D01*
X138488015Y-143959491D01*
X138488012Y-143959489D01*
X138488010Y-143959487D01*
X138362488Y-143887017D01*
X138362489Y-143887017D01*
X138332896Y-143879087D01*
X138222475Y-143849500D01*
X138077525Y-143849500D01*
X138015790Y-143866041D01*
X137937510Y-143887017D01*
X137811989Y-143959487D01*
X137709487Y-144061989D01*
X137637017Y-144187510D01*
X137599500Y-144327525D01*
X129400500Y-144327525D01*
X129362984Y-144187515D01*
X129362982Y-144187512D01*
X129362982Y-144187510D01*
X129290512Y-144061989D01*
X129290510Y-144061987D01*
X129290509Y-144061985D01*
X129188015Y-143959491D01*
X129188012Y-143959489D01*
X129188010Y-143959487D01*
X129062488Y-143887017D01*
X129062489Y-143887017D01*
X129032896Y-143879087D01*
X128922475Y-143849500D01*
X128777525Y-143849500D01*
X128715790Y-143866041D01*
X128637510Y-143887017D01*
X128511989Y-143959487D01*
X128409487Y-144061989D01*
X128337017Y-144187510D01*
X128299500Y-144327525D01*
X123700500Y-144327525D01*
X123662984Y-144187515D01*
X123662982Y-144187512D01*
X123662982Y-144187510D01*
X123590512Y-144061989D01*
X123590510Y-144061987D01*
X123590509Y-144061985D01*
X123488015Y-143959491D01*
X123488012Y-143959489D01*
X123488010Y-143959487D01*
X123362488Y-143887017D01*
X123362489Y-143887017D01*
X123332896Y-143879087D01*
X123222475Y-143849500D01*
X123077525Y-143849500D01*
X123015790Y-143866041D01*
X122937510Y-143887017D01*
X122811989Y-143959487D01*
X122709487Y-144061989D01*
X122637017Y-144187510D01*
X122599500Y-144327525D01*
X115700500Y-144327525D01*
X115662984Y-144187515D01*
X115662982Y-144187512D01*
X115662982Y-144187510D01*
X115590512Y-144061989D01*
X115590510Y-144061987D01*
X115590509Y-144061985D01*
X115488015Y-143959491D01*
X115488012Y-143959489D01*
X115488010Y-143959487D01*
X115362488Y-143887017D01*
X115362489Y-143887017D01*
X115332896Y-143879087D01*
X115222475Y-143849500D01*
X115077525Y-143849500D01*
X115015790Y-143866041D01*
X114937510Y-143887017D01*
X114811989Y-143959487D01*
X114709487Y-144061989D01*
X114637017Y-144187510D01*
X114599500Y-144327525D01*
X113700500Y-144327525D01*
X113662984Y-144187515D01*
X113662982Y-144187512D01*
X113662982Y-144187510D01*
X113590512Y-144061989D01*
X113590510Y-144061987D01*
X113590509Y-144061985D01*
X113488015Y-143959491D01*
X113488012Y-143959489D01*
X113488010Y-143959487D01*
X113362488Y-143887017D01*
X113362489Y-143887017D01*
X113332896Y-143879087D01*
X113222475Y-143849500D01*
X113077525Y-143849500D01*
X113015790Y-143866041D01*
X112937510Y-143887017D01*
X112811989Y-143959487D01*
X112709487Y-144061989D01*
X112637017Y-144187510D01*
X112599500Y-144327525D01*
X104400500Y-144327525D01*
X104362984Y-144187515D01*
X104362982Y-144187512D01*
X104362982Y-144187510D01*
X104290512Y-144061989D01*
X104290510Y-144061987D01*
X104290509Y-144061985D01*
X104188015Y-143959491D01*
X104188012Y-143959489D01*
X104188010Y-143959487D01*
X104062488Y-143887017D01*
X104062489Y-143887017D01*
X104032896Y-143879087D01*
X103922475Y-143849500D01*
X103777525Y-143849500D01*
X103715790Y-143866041D01*
X103637510Y-143887017D01*
X103511989Y-143959487D01*
X103409487Y-144061989D01*
X103337017Y-144187510D01*
X103299500Y-144327525D01*
X100654195Y-144327525D01*
X100570525Y-144176136D01*
X100565708Y-144166134D01*
X100454115Y-143896726D01*
X100450448Y-143886247D01*
X100369715Y-143606018D01*
X100367252Y-143595224D01*
X100318404Y-143307724D01*
X100317162Y-143296697D01*
X100300656Y-143002777D01*
X100300500Y-142997226D01*
X100300500Y-138377525D01*
X101899500Y-138377525D01*
X101899500Y-138522474D01*
X101937017Y-138662489D01*
X102009487Y-138788010D01*
X102009489Y-138788012D01*
X102009491Y-138788015D01*
X102111985Y-138890509D01*
X102111987Y-138890510D01*
X102111989Y-138890512D01*
X102237511Y-138962982D01*
X102237512Y-138962982D01*
X102237515Y-138962984D01*
X102377525Y-139000500D01*
X102377526Y-139000500D01*
X102522474Y-139000500D01*
X102522475Y-139000500D01*
X102662485Y-138962984D01*
X102662487Y-138962982D01*
X102662489Y-138962982D01*
X102788010Y-138890512D01*
X102788010Y-138890511D01*
X102788015Y-138890509D01*
X102890509Y-138788015D01*
X102962984Y-138662485D01*
X103000500Y-138522475D01*
X103000500Y-138377525D01*
X102962984Y-138237515D01*
X102962982Y-138237512D01*
X102962982Y-138237510D01*
X102890512Y-138111989D01*
X102890510Y-138111987D01*
X102890509Y-138111985D01*
X102788015Y-138009491D01*
X102788012Y-138009489D01*
X102788010Y-138009487D01*
X102662488Y-137937017D01*
X102662489Y-137937017D01*
X102632896Y-137929087D01*
X102522475Y-137899500D01*
X102377525Y-137899500D01*
X102315790Y-137916041D01*
X102237510Y-137937017D01*
X102111989Y-138009487D01*
X102009487Y-138111989D01*
X101937017Y-138237510D01*
X101899500Y-138377525D01*
X100300500Y-138377525D01*
X100300500Y-134344545D01*
X110889192Y-134344545D01*
X110889192Y-134489494D01*
X110926709Y-134629509D01*
X110999179Y-134755030D01*
X110999181Y-134755032D01*
X110999183Y-134755035D01*
X111101677Y-134857529D01*
X111101679Y-134857530D01*
X111101681Y-134857532D01*
X111227203Y-134930002D01*
X111227204Y-134930002D01*
X111227207Y-134930004D01*
X111367217Y-134967520D01*
X111367218Y-134967520D01*
X111512166Y-134967520D01*
X111512167Y-134967520D01*
X111652177Y-134930004D01*
X111652179Y-134930002D01*
X111652181Y-134930002D01*
X111777702Y-134857532D01*
X111777702Y-134857531D01*
X111777707Y-134857529D01*
X111880201Y-134755035D01*
X111952676Y-134629505D01*
X111990192Y-134489495D01*
X111990192Y-134344545D01*
X115009807Y-134344545D01*
X115009807Y-134489494D01*
X115047324Y-134629509D01*
X115119794Y-134755030D01*
X115119796Y-134755032D01*
X115119798Y-134755035D01*
X115222292Y-134857529D01*
X115222294Y-134857530D01*
X115222296Y-134857532D01*
X115347818Y-134930002D01*
X115347819Y-134930002D01*
X115347822Y-134930004D01*
X115487832Y-134967520D01*
X115487833Y-134967520D01*
X115632781Y-134967520D01*
X115632782Y-134967520D01*
X115772792Y-134930004D01*
X115772794Y-134930002D01*
X115772796Y-134930002D01*
X115898317Y-134857532D01*
X115898317Y-134857531D01*
X115898322Y-134857529D01*
X116000816Y-134755035D01*
X116073291Y-134629505D01*
X116110807Y-134489495D01*
X116110807Y-134344545D01*
X116073291Y-134204535D01*
X116073289Y-134204532D01*
X116073289Y-134204530D01*
X116000819Y-134079009D01*
X116000817Y-134079007D01*
X116000816Y-134079005D01*
X115898322Y-133976511D01*
X115898319Y-133976509D01*
X115898317Y-133976507D01*
X115772795Y-133904037D01*
X115772796Y-133904037D01*
X115743203Y-133896107D01*
X115632782Y-133866520D01*
X115487832Y-133866520D01*
X115426097Y-133883061D01*
X115347817Y-133904037D01*
X115222296Y-133976507D01*
X115119794Y-134079009D01*
X115047324Y-134204530D01*
X115009807Y-134344545D01*
X111990192Y-134344545D01*
X111952676Y-134204535D01*
X111952674Y-134204532D01*
X111952674Y-134204530D01*
X111880204Y-134079009D01*
X111880202Y-134079007D01*
X111880201Y-134079005D01*
X111777707Y-133976511D01*
X111777704Y-133976509D01*
X111777702Y-133976507D01*
X111652180Y-133904037D01*
X111652181Y-133904037D01*
X111622588Y-133896107D01*
X111512167Y-133866520D01*
X111367217Y-133866520D01*
X111305482Y-133883061D01*
X111227202Y-133904037D01*
X111101681Y-133976507D01*
X110999179Y-134079009D01*
X110926709Y-134204530D01*
X110889192Y-134344545D01*
X100300500Y-134344545D01*
X100300500Y-132702525D01*
X124549500Y-132702525D01*
X124549500Y-132847475D01*
X124579087Y-132957896D01*
X124587017Y-132987489D01*
X124659487Y-133113010D01*
X124659489Y-133113012D01*
X124659491Y-133113015D01*
X124761985Y-133215509D01*
X124761987Y-133215510D01*
X124761989Y-133215512D01*
X124887511Y-133287982D01*
X124887512Y-133287982D01*
X124887515Y-133287984D01*
X125027525Y-133325500D01*
X125027526Y-133325500D01*
X125172474Y-133325500D01*
X125172475Y-133325500D01*
X125312485Y-133287984D01*
X125312487Y-133287982D01*
X125312489Y-133287982D01*
X125438010Y-133215512D01*
X125438010Y-133215511D01*
X125438015Y-133215509D01*
X125540509Y-133113015D01*
X125612984Y-132987485D01*
X125650500Y-132847475D01*
X125650500Y-132702525D01*
X125612984Y-132562515D01*
X125612982Y-132562512D01*
X125612982Y-132562510D01*
X125540512Y-132436989D01*
X125540510Y-132436987D01*
X125540509Y-132436985D01*
X125438015Y-132334491D01*
X125438012Y-132334489D01*
X125438010Y-132334487D01*
X125312488Y-132262017D01*
X125312489Y-132262017D01*
X125282896Y-132254087D01*
X125172475Y-132224500D01*
X125027525Y-132224500D01*
X124965790Y-132241041D01*
X124887510Y-132262017D01*
X124761989Y-132334487D01*
X124659487Y-132436989D01*
X124587017Y-132562510D01*
X124587016Y-132562515D01*
X124549500Y-132702525D01*
X100300500Y-132702525D01*
X100300500Y-131893709D01*
X137649500Y-131893709D01*
X137649500Y-132106290D01*
X137682752Y-132316238D01*
X137748443Y-132518412D01*
X137844948Y-132707815D01*
X137844950Y-132707819D01*
X137969891Y-132879786D01*
X137969893Y-132879788D01*
X137969896Y-132879792D01*
X138120208Y-133030104D01*
X138120211Y-133030106D01*
X138120213Y-133030108D01*
X138292180Y-133155049D01*
X138292184Y-133155051D01*
X138481588Y-133251557D01*
X138683757Y-133317246D01*
X138683758Y-133317246D01*
X138683761Y-133317247D01*
X138893710Y-133350500D01*
X138893713Y-133350500D01*
X139106290Y-133350500D01*
X139316238Y-133317247D01*
X139316239Y-133317246D01*
X139316243Y-133317246D01*
X139518412Y-133251557D01*
X139707816Y-133155051D01*
X139879792Y-133030104D01*
X140030104Y-132879792D01*
X140155051Y-132707816D01*
X140251557Y-132518412D01*
X140317246Y-132316243D01*
X140350500Y-132106287D01*
X140350500Y-131893713D01*
X140350500Y-131893709D01*
X140317247Y-131683761D01*
X140317246Y-131683757D01*
X140251557Y-131481588D01*
X140155051Y-131292184D01*
X140155049Y-131292180D01*
X140030108Y-131120213D01*
X140030106Y-131120211D01*
X140030104Y-131120208D01*
X139879792Y-130969896D01*
X139879788Y-130969893D01*
X139879786Y-130969891D01*
X139707819Y-130844950D01*
X139707815Y-130844948D01*
X139518412Y-130748443D01*
X139316238Y-130682752D01*
X139106290Y-130649500D01*
X139106287Y-130649500D01*
X138893713Y-130649500D01*
X138893710Y-130649500D01*
X138683761Y-130682752D01*
X138481587Y-130748443D01*
X138292184Y-130844948D01*
X138292180Y-130844950D01*
X138120213Y-130969891D01*
X137969891Y-131120213D01*
X137844950Y-131292180D01*
X137844948Y-131292184D01*
X137748443Y-131481587D01*
X137682752Y-131683761D01*
X137649500Y-131893709D01*
X100300500Y-131893709D01*
X100300500Y-130927525D01*
X126724500Y-130927525D01*
X126724500Y-131072474D01*
X126762017Y-131212489D01*
X126834487Y-131338010D01*
X126834489Y-131338012D01*
X126834491Y-131338015D01*
X126936985Y-131440509D01*
X126936987Y-131440510D01*
X126936989Y-131440512D01*
X127062511Y-131512982D01*
X127062512Y-131512982D01*
X127062515Y-131512984D01*
X127202525Y-131550500D01*
X127202526Y-131550500D01*
X127347474Y-131550500D01*
X127347475Y-131550500D01*
X127487485Y-131512984D01*
X127487487Y-131512982D01*
X127487489Y-131512982D01*
X127613010Y-131440512D01*
X127613010Y-131440511D01*
X127613015Y-131440509D01*
X127715509Y-131338015D01*
X127787984Y-131212485D01*
X127825500Y-131072475D01*
X127825500Y-130927525D01*
X127787984Y-130787515D01*
X127787982Y-130787512D01*
X127787982Y-130787510D01*
X127715512Y-130661989D01*
X127715510Y-130661987D01*
X127715509Y-130661985D01*
X127613015Y-130559491D01*
X127613012Y-130559489D01*
X127613010Y-130559487D01*
X127487488Y-130487017D01*
X127487489Y-130487017D01*
X127457896Y-130479087D01*
X127347475Y-130449500D01*
X127202525Y-130449500D01*
X127140790Y-130466041D01*
X127062510Y-130487017D01*
X126936989Y-130559487D01*
X126834487Y-130661989D01*
X126762017Y-130787510D01*
X126724500Y-130927525D01*
X100300500Y-130927525D01*
X100300500Y-128152525D01*
X101349500Y-128152525D01*
X101349500Y-128297474D01*
X101387017Y-128437489D01*
X101459487Y-128563010D01*
X101459489Y-128563012D01*
X101459491Y-128563015D01*
X101561985Y-128665509D01*
X101561987Y-128665510D01*
X101561989Y-128665512D01*
X101687511Y-128737982D01*
X101687512Y-128737982D01*
X101687515Y-128737984D01*
X101827525Y-128775500D01*
X101827526Y-128775500D01*
X101972474Y-128775500D01*
X101972475Y-128775500D01*
X102112485Y-128737984D01*
X102112487Y-128737982D01*
X102112489Y-128737982D01*
X102238010Y-128665512D01*
X102238010Y-128665511D01*
X102238015Y-128665509D01*
X102340509Y-128563015D01*
X102412984Y-128437485D01*
X102450500Y-128297475D01*
X102450500Y-128152525D01*
X102412984Y-128012515D01*
X102412982Y-128012512D01*
X102412982Y-128012510D01*
X102340512Y-127886989D01*
X102340510Y-127886987D01*
X102340509Y-127886985D01*
X102238015Y-127784491D01*
X102238012Y-127784489D01*
X102238010Y-127784487D01*
X102112488Y-127712017D01*
X102112489Y-127712017D01*
X102082896Y-127704087D01*
X101972475Y-127674500D01*
X101827525Y-127674500D01*
X101765790Y-127691041D01*
X101687510Y-127712017D01*
X101561989Y-127784487D01*
X101459487Y-127886989D01*
X101387017Y-128012510D01*
X101349500Y-128152525D01*
X100300500Y-128152525D01*
X100300500Y-126510504D01*
X110889192Y-126510504D01*
X110889192Y-126655453D01*
X110926709Y-126795468D01*
X110999179Y-126920989D01*
X110999181Y-126920991D01*
X110999183Y-126920994D01*
X111101677Y-127023488D01*
X111101679Y-127023489D01*
X111101681Y-127023491D01*
X111227203Y-127095961D01*
X111227204Y-127095961D01*
X111227207Y-127095963D01*
X111367217Y-127133479D01*
X111367218Y-127133479D01*
X111512166Y-127133479D01*
X111512167Y-127133479D01*
X111652177Y-127095963D01*
X111652179Y-127095961D01*
X111652181Y-127095961D01*
X111777702Y-127023491D01*
X111777702Y-127023490D01*
X111777707Y-127023488D01*
X111880201Y-126920994D01*
X111952676Y-126795464D01*
X111990192Y-126655454D01*
X111990192Y-126510504D01*
X115009807Y-126510504D01*
X115009807Y-126655453D01*
X115047324Y-126795468D01*
X115119794Y-126920989D01*
X115119796Y-126920991D01*
X115119798Y-126920994D01*
X115222292Y-127023488D01*
X115222294Y-127023489D01*
X115222296Y-127023491D01*
X115347818Y-127095961D01*
X115347819Y-127095961D01*
X115347822Y-127095963D01*
X115487832Y-127133479D01*
X115487833Y-127133479D01*
X115632781Y-127133479D01*
X115632782Y-127133479D01*
X115772792Y-127095963D01*
X115772794Y-127095961D01*
X115772796Y-127095961D01*
X115898317Y-127023491D01*
X115898317Y-127023490D01*
X115898322Y-127023488D01*
X116000816Y-126920994D01*
X116073291Y-126795464D01*
X116110807Y-126655454D01*
X116110807Y-126510504D01*
X116073291Y-126370494D01*
X116073289Y-126370491D01*
X116073289Y-126370489D01*
X116000819Y-126244968D01*
X116000817Y-126244966D01*
X116000816Y-126244964D01*
X115898322Y-126142470D01*
X115898319Y-126142468D01*
X115898317Y-126142466D01*
X115772795Y-126069996D01*
X115772796Y-126069996D01*
X115743203Y-126062066D01*
X115632782Y-126032479D01*
X115487832Y-126032479D01*
X115426097Y-126049020D01*
X115347817Y-126069996D01*
X115222296Y-126142466D01*
X115119794Y-126244968D01*
X115047324Y-126370489D01*
X115009807Y-126510504D01*
X111990192Y-126510504D01*
X111952676Y-126370494D01*
X111952674Y-126370491D01*
X111952674Y-126370489D01*
X111880204Y-126244968D01*
X111880202Y-126244966D01*
X111880201Y-126244964D01*
X111777707Y-126142470D01*
X111777704Y-126142468D01*
X111777702Y-126142466D01*
X111652180Y-126069996D01*
X111652181Y-126069996D01*
X111622588Y-126062066D01*
X111512167Y-126032479D01*
X111367217Y-126032479D01*
X111305482Y-126049020D01*
X111227202Y-126069996D01*
X111101681Y-126142466D01*
X110999179Y-126244968D01*
X110926709Y-126370489D01*
X110889192Y-126510504D01*
X100300500Y-126510504D01*
X100300500Y-123927525D01*
X103224500Y-123927525D01*
X103224500Y-124072475D01*
X103235228Y-124112512D01*
X103262017Y-124212489D01*
X103334487Y-124338010D01*
X103334489Y-124338012D01*
X103334491Y-124338015D01*
X103436985Y-124440509D01*
X103436987Y-124440510D01*
X103436989Y-124440512D01*
X103562511Y-124512982D01*
X103562512Y-124512982D01*
X103562515Y-124512984D01*
X103702525Y-124550500D01*
X103702526Y-124550500D01*
X103847474Y-124550500D01*
X103847475Y-124550500D01*
X103987485Y-124512984D01*
X103987487Y-124512982D01*
X103987489Y-124512982D01*
X104113010Y-124440512D01*
X104113010Y-124440511D01*
X104113015Y-124440509D01*
X104215509Y-124338015D01*
X104287984Y-124212485D01*
X104325500Y-124072475D01*
X104325500Y-123927525D01*
X105624500Y-123927525D01*
X105624500Y-124072475D01*
X105635228Y-124112512D01*
X105662017Y-124212489D01*
X105734487Y-124338010D01*
X105734489Y-124338012D01*
X105734491Y-124338015D01*
X105836985Y-124440509D01*
X105836987Y-124440510D01*
X105836989Y-124440512D01*
X105962511Y-124512982D01*
X105962512Y-124512982D01*
X105962515Y-124512984D01*
X106102525Y-124550500D01*
X106102526Y-124550500D01*
X106247474Y-124550500D01*
X106247475Y-124550500D01*
X106387485Y-124512984D01*
X106387487Y-124512982D01*
X106387489Y-124512982D01*
X106513010Y-124440512D01*
X106513010Y-124440511D01*
X106513015Y-124440509D01*
X106615509Y-124338015D01*
X106664867Y-124252525D01*
X109737000Y-124252525D01*
X109737000Y-124397474D01*
X109774517Y-124537489D01*
X109846987Y-124663010D01*
X109846989Y-124663012D01*
X109846991Y-124663015D01*
X109949485Y-124765509D01*
X109949487Y-124765510D01*
X109949489Y-124765512D01*
X110075011Y-124837982D01*
X110075012Y-124837982D01*
X110075015Y-124837984D01*
X110215025Y-124875500D01*
X110215026Y-124875500D01*
X110359975Y-124875500D01*
X110374089Y-124871718D01*
X110435191Y-124874919D01*
X110482741Y-124913423D01*
X110498578Y-124972523D01*
X110485451Y-125016844D01*
X110434823Y-125104533D01*
X110397307Y-125244545D01*
X110397307Y-125389494D01*
X110434824Y-125529509D01*
X110507294Y-125655030D01*
X110507296Y-125655032D01*
X110507298Y-125655035D01*
X110609792Y-125757529D01*
X110609794Y-125757530D01*
X110609796Y-125757532D01*
X110735318Y-125830002D01*
X110735319Y-125830002D01*
X110735322Y-125830004D01*
X110875332Y-125867520D01*
X110875333Y-125867520D01*
X111020281Y-125867520D01*
X111020282Y-125867520D01*
X111160292Y-125830004D01*
X111160294Y-125830002D01*
X111160296Y-125830002D01*
X111285817Y-125757532D01*
X111285817Y-125757531D01*
X111285822Y-125757529D01*
X111388316Y-125655035D01*
X111460791Y-125529505D01*
X111498307Y-125389495D01*
X111498307Y-125244545D01*
X116501692Y-125244545D01*
X116501692Y-125389494D01*
X116539209Y-125529509D01*
X116611679Y-125655030D01*
X116611681Y-125655032D01*
X116611683Y-125655035D01*
X116714177Y-125757529D01*
X116714179Y-125757530D01*
X116714181Y-125757532D01*
X116839703Y-125830002D01*
X116839704Y-125830002D01*
X116839707Y-125830004D01*
X116979717Y-125867520D01*
X116979718Y-125867520D01*
X117124666Y-125867520D01*
X117124667Y-125867520D01*
X117264677Y-125830004D01*
X117264679Y-125830002D01*
X117264681Y-125830002D01*
X117390202Y-125757532D01*
X117390202Y-125757531D01*
X117390207Y-125757529D01*
X117492701Y-125655035D01*
X117565176Y-125529505D01*
X117602692Y-125389495D01*
X117602692Y-125244545D01*
X117565176Y-125104535D01*
X117565174Y-125104532D01*
X117565174Y-125104530D01*
X117492704Y-124979009D01*
X117492702Y-124979007D01*
X117492701Y-124979005D01*
X117390207Y-124876511D01*
X117390204Y-124876509D01*
X117390202Y-124876507D01*
X117264680Y-124804037D01*
X117264681Y-124804037D01*
X117235088Y-124796107D01*
X117124667Y-124766520D01*
X116979717Y-124766520D01*
X116917982Y-124783061D01*
X116839702Y-124804037D01*
X116714181Y-124876507D01*
X116611679Y-124979009D01*
X116539209Y-125104530D01*
X116501692Y-125244545D01*
X111498307Y-125244545D01*
X111460791Y-125104535D01*
X111460789Y-125104532D01*
X111460789Y-125104530D01*
X111388319Y-124979009D01*
X111388317Y-124979007D01*
X111388316Y-124979005D01*
X111285822Y-124876511D01*
X111285819Y-124876509D01*
X111285817Y-124876507D01*
X111160295Y-124804037D01*
X111160296Y-124804037D01*
X111130703Y-124796107D01*
X111020282Y-124766520D01*
X110875332Y-124766520D01*
X110861211Y-124770303D01*
X110800110Y-124767098D01*
X110752561Y-124728591D01*
X110736728Y-124669490D01*
X110749855Y-124625176D01*
X110800484Y-124537485D01*
X110838000Y-124397475D01*
X110838000Y-124252525D01*
X110800484Y-124112515D01*
X110800482Y-124112512D01*
X110800482Y-124112510D01*
X110749855Y-124024822D01*
X110737133Y-123964974D01*
X110762020Y-123909078D01*
X110815008Y-123878485D01*
X110861213Y-123879695D01*
X110875332Y-123883479D01*
X110875334Y-123883479D01*
X111020281Y-123883479D01*
X111020282Y-123883479D01*
X111160292Y-123845963D01*
X111160294Y-123845961D01*
X111160296Y-123845961D01*
X111285817Y-123773491D01*
X111285817Y-123773490D01*
X111285822Y-123773488D01*
X111388316Y-123670994D01*
X111427847Y-123602525D01*
X113962000Y-123602525D01*
X113962000Y-123747475D01*
X113972729Y-123787515D01*
X113999516Y-123887486D01*
X114035897Y-123950501D01*
X114048618Y-124010350D01*
X114035897Y-124049499D01*
X113999516Y-124112513D01*
X113962000Y-124252525D01*
X113962000Y-124397474D01*
X113999517Y-124537489D01*
X114071987Y-124663010D01*
X114071989Y-124663012D01*
X114071991Y-124663015D01*
X114174485Y-124765509D01*
X114174487Y-124765510D01*
X114174489Y-124765512D01*
X114300011Y-124837982D01*
X114300012Y-124837982D01*
X114300015Y-124837984D01*
X114440025Y-124875500D01*
X114440026Y-124875500D01*
X114584974Y-124875500D01*
X114584975Y-124875500D01*
X114724985Y-124837984D01*
X114724987Y-124837982D01*
X114724989Y-124837982D01*
X114850510Y-124765512D01*
X114850510Y-124765511D01*
X114850515Y-124765509D01*
X114953009Y-124663015D01*
X115025484Y-124537485D01*
X115063000Y-124397475D01*
X115063000Y-124252525D01*
X115025484Y-124112515D01*
X114989101Y-124049499D01*
X114984958Y-124030008D01*
X114976560Y-124011937D01*
X114978792Y-124001001D01*
X114976380Y-123989653D01*
X114988313Y-123951891D01*
X114988679Y-123951232D01*
X115002366Y-123927525D01*
X119124500Y-123927525D01*
X119124500Y-124072475D01*
X119135228Y-124112512D01*
X119162017Y-124212489D01*
X119234487Y-124338010D01*
X119234489Y-124338012D01*
X119234491Y-124338015D01*
X119336985Y-124440509D01*
X119336987Y-124440510D01*
X119336989Y-124440512D01*
X119462511Y-124512982D01*
X119462512Y-124512982D01*
X119462515Y-124512984D01*
X119602525Y-124550500D01*
X119602526Y-124550500D01*
X119747474Y-124550500D01*
X119747475Y-124550500D01*
X119887485Y-124512984D01*
X119887487Y-124512982D01*
X119887489Y-124512982D01*
X120013010Y-124440512D01*
X120013010Y-124440511D01*
X120013015Y-124440509D01*
X120115509Y-124338015D01*
X120187984Y-124212485D01*
X120225500Y-124072475D01*
X120225500Y-123927525D01*
X120774500Y-123927525D01*
X120774500Y-124072475D01*
X120785228Y-124112512D01*
X120812017Y-124212489D01*
X120884487Y-124338010D01*
X120884489Y-124338012D01*
X120884491Y-124338015D01*
X120986985Y-124440509D01*
X120986987Y-124440510D01*
X120986989Y-124440512D01*
X121112511Y-124512982D01*
X121112512Y-124512982D01*
X121112515Y-124512984D01*
X121252525Y-124550500D01*
X121252526Y-124550500D01*
X121397474Y-124550500D01*
X121397475Y-124550500D01*
X121537485Y-124512984D01*
X121537487Y-124512982D01*
X121537489Y-124512982D01*
X121663010Y-124440512D01*
X121663010Y-124440511D01*
X121663015Y-124440509D01*
X121765509Y-124338015D01*
X121837984Y-124212485D01*
X121875500Y-124072475D01*
X121875500Y-123927525D01*
X121837984Y-123787515D01*
X121837982Y-123787512D01*
X121837982Y-123787510D01*
X121765512Y-123661989D01*
X121765510Y-123661987D01*
X121765509Y-123661985D01*
X121663015Y-123559491D01*
X121663012Y-123559489D01*
X121663010Y-123559487D01*
X121617800Y-123533385D01*
X128359500Y-123533385D01*
X128359500Y-123706614D01*
X128386597Y-123877702D01*
X128386598Y-123877706D01*
X128440123Y-124042438D01*
X128440125Y-124042441D01*
X128475827Y-124112512D01*
X128518768Y-124196788D01*
X128620586Y-124336928D01*
X128743072Y-124459414D01*
X128883212Y-124561232D01*
X129037555Y-124639873D01*
X129037557Y-124639873D01*
X129037558Y-124639874D01*
X129037561Y-124639876D01*
X129202293Y-124693401D01*
X129202297Y-124693402D01*
X129373386Y-124720500D01*
X129373389Y-124720500D01*
X130846614Y-124720500D01*
X131017702Y-124693402D01*
X131017706Y-124693401D01*
X131182438Y-124639876D01*
X131182440Y-124639874D01*
X131182445Y-124639873D01*
X131336788Y-124561232D01*
X131476928Y-124459414D01*
X131599414Y-124336928D01*
X131701232Y-124196788D01*
X131779873Y-124042445D01*
X131779874Y-124042440D01*
X131779876Y-124042438D01*
X131833401Y-123877706D01*
X131833402Y-123877702D01*
X131860500Y-123706614D01*
X131860500Y-123533385D01*
X146139500Y-123533385D01*
X146139500Y-123706614D01*
X146166597Y-123877702D01*
X146166598Y-123877706D01*
X146220123Y-124042438D01*
X146220125Y-124042441D01*
X146255827Y-124112512D01*
X146298768Y-124196788D01*
X146400586Y-124336928D01*
X146523072Y-124459414D01*
X146663212Y-124561232D01*
X146817555Y-124639873D01*
X146817557Y-124639873D01*
X146817558Y-124639874D01*
X146817561Y-124639876D01*
X146982293Y-124693401D01*
X146982297Y-124693402D01*
X147153386Y-124720500D01*
X147153389Y-124720500D01*
X148626614Y-124720500D01*
X148797702Y-124693402D01*
X148797706Y-124693401D01*
X148962438Y-124639876D01*
X148962440Y-124639874D01*
X148962445Y-124639873D01*
X149116788Y-124561232D01*
X149256928Y-124459414D01*
X149379414Y-124336928D01*
X149481232Y-124196788D01*
X149559873Y-124042445D01*
X149559874Y-124042440D01*
X149559876Y-124042438D01*
X149613401Y-123877706D01*
X149613402Y-123877702D01*
X149640500Y-123706614D01*
X149640500Y-123533385D01*
X149613402Y-123362297D01*
X149613401Y-123362293D01*
X149559876Y-123197561D01*
X149559874Y-123197558D01*
X149559873Y-123197557D01*
X149559873Y-123197555D01*
X149481232Y-123043212D01*
X149379414Y-122903072D01*
X149256928Y-122780586D01*
X149116788Y-122678768D01*
X149116787Y-122678767D01*
X149116785Y-122678766D01*
X148962441Y-122600125D01*
X148962438Y-122600123D01*
X148797706Y-122546598D01*
X148797702Y-122546597D01*
X148626614Y-122519500D01*
X148626611Y-122519500D01*
X147153389Y-122519500D01*
X147153386Y-122519500D01*
X146982297Y-122546597D01*
X146982293Y-122546598D01*
X146817561Y-122600123D01*
X146817558Y-122600125D01*
X146663214Y-122678766D01*
X146523073Y-122780585D01*
X146400585Y-122903073D01*
X146298766Y-123043214D01*
X146220125Y-123197558D01*
X146220123Y-123197561D01*
X146166598Y-123362293D01*
X146166597Y-123362297D01*
X146139500Y-123533385D01*
X131860500Y-123533385D01*
X131833402Y-123362297D01*
X131833401Y-123362293D01*
X131779876Y-123197561D01*
X131779874Y-123197558D01*
X131779873Y-123197557D01*
X131779873Y-123197555D01*
X131701232Y-123043212D01*
X131599414Y-122903072D01*
X131476928Y-122780586D01*
X131336788Y-122678768D01*
X131336787Y-122678767D01*
X131336785Y-122678766D01*
X131182441Y-122600125D01*
X131182438Y-122600123D01*
X131017706Y-122546598D01*
X131017702Y-122546597D01*
X130846614Y-122519500D01*
X130846611Y-122519500D01*
X129373389Y-122519500D01*
X129373386Y-122519500D01*
X129202297Y-122546597D01*
X129202293Y-122546598D01*
X129037561Y-122600123D01*
X129037558Y-122600125D01*
X128883214Y-122678766D01*
X128743073Y-122780585D01*
X128620585Y-122903073D01*
X128518766Y-123043214D01*
X128440125Y-123197558D01*
X128440123Y-123197561D01*
X128386598Y-123362293D01*
X128386597Y-123362297D01*
X128359500Y-123533385D01*
X121617800Y-123533385D01*
X121537488Y-123487017D01*
X121537489Y-123487017D01*
X121446028Y-123462510D01*
X121397475Y-123449500D01*
X121252525Y-123449500D01*
X121203972Y-123462510D01*
X121112510Y-123487017D01*
X120986989Y-123559487D01*
X120884487Y-123661989D01*
X120812017Y-123787510D01*
X120779443Y-123909078D01*
X120774500Y-123927525D01*
X120225500Y-123927525D01*
X120187984Y-123787515D01*
X120187982Y-123787512D01*
X120187982Y-123787510D01*
X120115512Y-123661989D01*
X120115510Y-123661987D01*
X120115509Y-123661985D01*
X120013015Y-123559491D01*
X120013012Y-123559489D01*
X120013010Y-123559487D01*
X119887488Y-123487017D01*
X119887489Y-123487017D01*
X119796028Y-123462510D01*
X119747475Y-123449500D01*
X119602525Y-123449500D01*
X119553972Y-123462510D01*
X119462510Y-123487017D01*
X119336989Y-123559487D01*
X119234487Y-123661989D01*
X119162017Y-123787510D01*
X119129443Y-123909078D01*
X119124500Y-123927525D01*
X115002366Y-123927525D01*
X115025484Y-123887485D01*
X115063000Y-123747475D01*
X115063000Y-123602525D01*
X115025484Y-123462515D01*
X115025482Y-123462512D01*
X115025482Y-123462510D01*
X114953012Y-123336989D01*
X114953010Y-123336987D01*
X114953009Y-123336985D01*
X114850515Y-123234491D01*
X114850512Y-123234489D01*
X114850510Y-123234487D01*
X114724988Y-123162017D01*
X114724989Y-123162017D01*
X114695396Y-123154087D01*
X114584975Y-123124500D01*
X114440025Y-123124500D01*
X114378290Y-123141041D01*
X114300010Y-123162017D01*
X114174489Y-123234487D01*
X114071987Y-123336989D01*
X113999517Y-123462510D01*
X113975940Y-123550500D01*
X113962000Y-123602525D01*
X111427847Y-123602525D01*
X111460791Y-123545464D01*
X111498307Y-123405454D01*
X111498307Y-123260504D01*
X111460791Y-123120494D01*
X111424408Y-123057478D01*
X111411687Y-122997632D01*
X111424408Y-122958480D01*
X111460791Y-122895464D01*
X111498307Y-122755454D01*
X111498307Y-122610504D01*
X111460791Y-122470494D01*
X111460789Y-122470491D01*
X111460789Y-122470489D01*
X111388319Y-122344968D01*
X111388317Y-122344966D01*
X111388316Y-122344964D01*
X111285822Y-122242470D01*
X111285819Y-122242468D01*
X111285817Y-122242466D01*
X111160295Y-122169996D01*
X111160296Y-122169996D01*
X111098363Y-122153401D01*
X111020282Y-122132479D01*
X110875332Y-122132479D01*
X110813597Y-122149020D01*
X110735317Y-122169996D01*
X110609796Y-122242466D01*
X110507294Y-122344968D01*
X110434824Y-122470489D01*
X110421692Y-122519500D01*
X110397307Y-122610504D01*
X110397307Y-122755454D01*
X110405898Y-122787515D01*
X110434823Y-122895465D01*
X110471204Y-122958480D01*
X110483925Y-123018329D01*
X110471204Y-123057478D01*
X110434823Y-123120492D01*
X110397307Y-123260504D01*
X110397307Y-123405453D01*
X110434823Y-123545465D01*
X110485452Y-123633156D01*
X110498173Y-123693004D01*
X110473286Y-123748900D01*
X110420298Y-123779493D01*
X110374093Y-123778283D01*
X110359975Y-123774500D01*
X110215025Y-123774500D01*
X110166472Y-123787510D01*
X110075010Y-123812017D01*
X109949489Y-123884487D01*
X109846987Y-123986989D01*
X109774517Y-124112510D01*
X109737000Y-124252525D01*
X106664867Y-124252525D01*
X106687984Y-124212485D01*
X106725500Y-124072475D01*
X106725500Y-123927525D01*
X106687984Y-123787515D01*
X106687982Y-123787512D01*
X106687982Y-123787510D01*
X106615512Y-123661989D01*
X106615510Y-123661987D01*
X106615509Y-123661985D01*
X106513015Y-123559491D01*
X106513012Y-123559489D01*
X106513010Y-123559487D01*
X106387488Y-123487017D01*
X106387489Y-123487017D01*
X106296028Y-123462510D01*
X106247475Y-123449500D01*
X106102525Y-123449500D01*
X106053972Y-123462510D01*
X105962510Y-123487017D01*
X105836989Y-123559487D01*
X105734487Y-123661989D01*
X105662017Y-123787510D01*
X105629443Y-123909078D01*
X105624500Y-123927525D01*
X104325500Y-123927525D01*
X104287984Y-123787515D01*
X104287982Y-123787512D01*
X104287982Y-123787510D01*
X104215512Y-123661989D01*
X104215510Y-123661987D01*
X104215509Y-123661985D01*
X104113015Y-123559491D01*
X104113012Y-123559489D01*
X104113010Y-123559487D01*
X103987488Y-123487017D01*
X103987489Y-123487017D01*
X103896028Y-123462510D01*
X103847475Y-123449500D01*
X103702525Y-123449500D01*
X103653972Y-123462510D01*
X103562510Y-123487017D01*
X103436989Y-123559487D01*
X103334487Y-123661989D01*
X103262017Y-123787510D01*
X103229443Y-123909078D01*
X103224500Y-123927525D01*
X100300500Y-123927525D01*
X100300500Y-122927525D01*
X108274500Y-122927525D01*
X108274500Y-123072474D01*
X108312017Y-123212489D01*
X108384487Y-123338010D01*
X108384489Y-123338012D01*
X108384491Y-123338015D01*
X108486985Y-123440509D01*
X108486987Y-123440510D01*
X108486989Y-123440512D01*
X108612511Y-123512982D01*
X108612512Y-123512982D01*
X108612515Y-123512984D01*
X108752525Y-123550500D01*
X108752526Y-123550500D01*
X108897474Y-123550500D01*
X108897475Y-123550500D01*
X109037485Y-123512984D01*
X109037487Y-123512982D01*
X109037489Y-123512982D01*
X109163010Y-123440512D01*
X109163010Y-123440511D01*
X109163015Y-123440509D01*
X109265509Y-123338015D01*
X109337984Y-123212485D01*
X109375500Y-123072475D01*
X109375500Y-122927525D01*
X109337984Y-122787515D01*
X109337982Y-122787512D01*
X109337982Y-122787510D01*
X109265512Y-122661989D01*
X109265510Y-122661987D01*
X109265509Y-122661985D01*
X109163015Y-122559491D01*
X109163012Y-122559489D01*
X109163010Y-122559487D01*
X109037488Y-122487017D01*
X109037489Y-122487017D01*
X109007896Y-122479087D01*
X108897475Y-122449500D01*
X108752525Y-122449500D01*
X108690790Y-122466041D01*
X108612510Y-122487017D01*
X108486989Y-122559487D01*
X108384487Y-122661989D01*
X108312017Y-122787510D01*
X108274500Y-122927525D01*
X100300500Y-122927525D01*
X100300500Y-121927525D01*
X114224500Y-121927525D01*
X114224500Y-122072475D01*
X114231842Y-122099874D01*
X114262017Y-122212489D01*
X114334487Y-122338010D01*
X114334489Y-122338012D01*
X114334491Y-122338015D01*
X114436985Y-122440509D01*
X114436987Y-122440510D01*
X114436989Y-122440512D01*
X114562511Y-122512982D01*
X114562512Y-122512982D01*
X114562515Y-122512984D01*
X114702525Y-122550500D01*
X114702526Y-122550500D01*
X114847474Y-122550500D01*
X114847475Y-122550500D01*
X114987485Y-122512984D01*
X114987487Y-122512982D01*
X114987489Y-122512982D01*
X115113010Y-122440512D01*
X115113010Y-122440511D01*
X115113015Y-122440509D01*
X115215509Y-122338015D01*
X115270672Y-122242470D01*
X115287982Y-122212489D01*
X115287982Y-122212487D01*
X115287984Y-122212485D01*
X115325500Y-122072475D01*
X115325500Y-121927525D01*
X115287984Y-121787515D01*
X115287982Y-121787512D01*
X115287982Y-121787510D01*
X115215512Y-121661989D01*
X115215510Y-121661987D01*
X115215509Y-121661985D01*
X115113015Y-121559491D01*
X115113012Y-121559489D01*
X115113010Y-121559487D01*
X114987488Y-121487017D01*
X114987489Y-121487017D01*
X114957896Y-121479087D01*
X114847475Y-121449500D01*
X114702525Y-121449500D01*
X114640790Y-121466041D01*
X114562510Y-121487017D01*
X114436989Y-121559487D01*
X114334487Y-121661989D01*
X114262017Y-121787510D01*
X114226673Y-121919414D01*
X114224500Y-121927525D01*
X100300500Y-121927525D01*
X100300500Y-120377525D01*
X101899500Y-120377525D01*
X101899500Y-120522474D01*
X101937017Y-120662489D01*
X102009487Y-120788010D01*
X102009489Y-120788012D01*
X102009491Y-120788015D01*
X102111985Y-120890509D01*
X102111987Y-120890510D01*
X102111989Y-120890512D01*
X102237511Y-120962982D01*
X102237512Y-120962982D01*
X102237515Y-120962984D01*
X102377525Y-121000500D01*
X102377526Y-121000500D01*
X102522474Y-121000500D01*
X102522475Y-121000500D01*
X102549028Y-120993385D01*
X128359500Y-120993385D01*
X128359500Y-121166614D01*
X128386597Y-121337702D01*
X128386598Y-121337706D01*
X128440123Y-121502438D01*
X128440125Y-121502441D01*
X128440126Y-121502444D01*
X128440127Y-121502445D01*
X128518768Y-121656788D01*
X128620586Y-121796928D01*
X128743072Y-121919414D01*
X128883212Y-122021232D01*
X129037555Y-122099873D01*
X129037557Y-122099873D01*
X129037558Y-122099874D01*
X129037561Y-122099876D01*
X129202293Y-122153401D01*
X129202297Y-122153402D01*
X129373386Y-122180500D01*
X129373389Y-122180500D01*
X130846614Y-122180500D01*
X131017702Y-122153402D01*
X131017706Y-122153401D01*
X131182438Y-122099876D01*
X131182440Y-122099874D01*
X131182445Y-122099873D01*
X131336788Y-122021232D01*
X131476928Y-121919414D01*
X131599414Y-121796928D01*
X131701232Y-121656788D01*
X131779873Y-121502445D01*
X131779874Y-121502440D01*
X131779876Y-121502438D01*
X131833401Y-121337706D01*
X131833402Y-121337702D01*
X131860500Y-121166614D01*
X131860500Y-120993385D01*
X146139500Y-120993385D01*
X146139500Y-121166614D01*
X146166597Y-121337702D01*
X146166598Y-121337706D01*
X146220123Y-121502438D01*
X146220125Y-121502441D01*
X146220126Y-121502444D01*
X146220127Y-121502445D01*
X146298768Y-121656788D01*
X146400586Y-121796928D01*
X146523072Y-121919414D01*
X146663212Y-122021232D01*
X146817555Y-122099873D01*
X146817557Y-122099873D01*
X146817558Y-122099874D01*
X146817561Y-122099876D01*
X146982293Y-122153401D01*
X146982297Y-122153402D01*
X147153386Y-122180500D01*
X147153389Y-122180500D01*
X148626614Y-122180500D01*
X148797702Y-122153402D01*
X148797706Y-122153401D01*
X148962438Y-122099876D01*
X148962440Y-122099874D01*
X148962445Y-122099873D01*
X149116788Y-122021232D01*
X149256928Y-121919414D01*
X149379414Y-121796928D01*
X149481232Y-121656788D01*
X149559873Y-121502445D01*
X149559874Y-121502440D01*
X149559876Y-121502438D01*
X149613401Y-121337706D01*
X149613402Y-121337702D01*
X149640500Y-121166614D01*
X149640500Y-120993385D01*
X149613402Y-120822297D01*
X149613401Y-120822293D01*
X149559876Y-120657561D01*
X149559874Y-120657558D01*
X149559873Y-120657557D01*
X149559873Y-120657555D01*
X149481232Y-120503212D01*
X149379414Y-120363072D01*
X149256928Y-120240586D01*
X149116788Y-120138768D01*
X149116787Y-120138767D01*
X149116785Y-120138766D01*
X148962441Y-120060125D01*
X148962438Y-120060123D01*
X148797706Y-120006598D01*
X148797702Y-120006597D01*
X148626614Y-119979500D01*
X148626611Y-119979500D01*
X147153389Y-119979500D01*
X147153386Y-119979500D01*
X146982297Y-120006597D01*
X146982293Y-120006598D01*
X146817561Y-120060123D01*
X146817558Y-120060125D01*
X146663214Y-120138766D01*
X146523073Y-120240585D01*
X146400585Y-120363073D01*
X146298766Y-120503214D01*
X146220125Y-120657558D01*
X146220123Y-120657561D01*
X146166598Y-120822293D01*
X146166597Y-120822297D01*
X146139500Y-120993385D01*
X131860500Y-120993385D01*
X131833402Y-120822297D01*
X131833401Y-120822293D01*
X131779876Y-120657561D01*
X131779874Y-120657558D01*
X131779873Y-120657557D01*
X131779873Y-120657555D01*
X131701232Y-120503212D01*
X131599414Y-120363072D01*
X131476928Y-120240586D01*
X131336788Y-120138768D01*
X131336787Y-120138767D01*
X131336785Y-120138766D01*
X131182441Y-120060125D01*
X131182438Y-120060123D01*
X131017706Y-120006598D01*
X131017702Y-120006597D01*
X130846614Y-119979500D01*
X130846611Y-119979500D01*
X129373389Y-119979500D01*
X129373386Y-119979500D01*
X129202297Y-120006597D01*
X129202293Y-120006598D01*
X129037561Y-120060123D01*
X129037558Y-120060125D01*
X128883214Y-120138766D01*
X128743073Y-120240585D01*
X128620585Y-120363073D01*
X128518766Y-120503214D01*
X128440125Y-120657558D01*
X128440123Y-120657561D01*
X128386598Y-120822293D01*
X128386597Y-120822297D01*
X128359500Y-120993385D01*
X102549028Y-120993385D01*
X102662485Y-120962984D01*
X102662487Y-120962982D01*
X102662489Y-120962982D01*
X102765060Y-120903763D01*
X102788010Y-120890512D01*
X102788010Y-120890511D01*
X102788015Y-120890509D01*
X102890509Y-120788015D01*
X102962984Y-120662485D01*
X103000500Y-120522475D01*
X103000500Y-120377525D01*
X102962984Y-120237515D01*
X102962982Y-120237512D01*
X102962982Y-120237510D01*
X102890512Y-120111989D01*
X102890510Y-120111987D01*
X102890509Y-120111985D01*
X102788015Y-120009491D01*
X102788012Y-120009489D01*
X102788010Y-120009487D01*
X102662488Y-119937017D01*
X102662489Y-119937017D01*
X102632896Y-119929087D01*
X102522475Y-119899500D01*
X102377525Y-119899500D01*
X102315790Y-119916041D01*
X102237510Y-119937017D01*
X102111989Y-120009487D01*
X102009487Y-120111989D01*
X101937017Y-120237510D01*
X101899500Y-120377525D01*
X100300500Y-120377525D01*
X100300500Y-119544545D01*
X103647307Y-119544545D01*
X103647307Y-119689494D01*
X103684824Y-119829509D01*
X103757294Y-119955030D01*
X103757296Y-119955032D01*
X103757298Y-119955035D01*
X103859792Y-120057529D01*
X103859794Y-120057530D01*
X103859796Y-120057532D01*
X103985318Y-120130002D01*
X103985319Y-120130002D01*
X103985322Y-120130004D01*
X104125332Y-120167520D01*
X104125333Y-120167520D01*
X104270281Y-120167520D01*
X104270282Y-120167520D01*
X104410292Y-120130004D01*
X104410294Y-120130002D01*
X104410296Y-120130002D01*
X104535817Y-120057532D01*
X104535817Y-120057531D01*
X104535822Y-120057529D01*
X104638316Y-119955035D01*
X104710791Y-119829505D01*
X104748307Y-119689495D01*
X104748307Y-119544545D01*
X114147307Y-119544545D01*
X114147307Y-119689494D01*
X114184824Y-119829509D01*
X114257294Y-119955030D01*
X114257296Y-119955032D01*
X114257298Y-119955035D01*
X114359792Y-120057529D01*
X114359794Y-120057530D01*
X114359796Y-120057532D01*
X114485318Y-120130002D01*
X114485319Y-120130002D01*
X114485322Y-120130004D01*
X114625332Y-120167520D01*
X114625333Y-120167520D01*
X114770281Y-120167520D01*
X114770282Y-120167520D01*
X114910292Y-120130004D01*
X114910294Y-120130002D01*
X114910296Y-120130002D01*
X115035817Y-120057532D01*
X115035817Y-120057531D01*
X115035822Y-120057529D01*
X115138316Y-119955035D01*
X115210791Y-119829505D01*
X115215882Y-119810504D01*
X127389192Y-119810504D01*
X127389192Y-119955453D01*
X127426709Y-120095468D01*
X127499179Y-120220989D01*
X127499181Y-120220991D01*
X127499183Y-120220994D01*
X127601677Y-120323488D01*
X127601679Y-120323489D01*
X127601681Y-120323491D01*
X127727203Y-120395961D01*
X127727204Y-120395961D01*
X127727207Y-120395963D01*
X127867217Y-120433479D01*
X127867218Y-120433479D01*
X128012166Y-120433479D01*
X128012167Y-120433479D01*
X128152177Y-120395963D01*
X128152179Y-120395961D01*
X128152181Y-120395961D01*
X128277702Y-120323491D01*
X128277702Y-120323490D01*
X128277707Y-120323488D01*
X128380201Y-120220994D01*
X128380204Y-120220989D01*
X128452674Y-120095468D01*
X128452674Y-120095466D01*
X128452676Y-120095464D01*
X128490192Y-119955454D01*
X128490192Y-119810504D01*
X128452676Y-119670494D01*
X128452674Y-119670491D01*
X128452674Y-119670489D01*
X128380204Y-119544968D01*
X128380202Y-119544966D01*
X128380201Y-119544964D01*
X128277707Y-119442470D01*
X128277704Y-119442468D01*
X128277702Y-119442466D01*
X128152180Y-119369996D01*
X128152181Y-119369996D01*
X128122588Y-119362066D01*
X128012167Y-119332479D01*
X127867217Y-119332479D01*
X127805482Y-119349020D01*
X127727202Y-119369996D01*
X127601681Y-119442466D01*
X127499179Y-119544968D01*
X127426709Y-119670489D01*
X127389192Y-119810504D01*
X115215882Y-119810504D01*
X115248307Y-119689495D01*
X115248307Y-119544545D01*
X115210791Y-119404535D01*
X115210789Y-119404532D01*
X115210789Y-119404530D01*
X115138319Y-119279009D01*
X115138317Y-119279007D01*
X115138316Y-119279005D01*
X115035822Y-119176511D01*
X115035819Y-119176509D01*
X115035817Y-119176507D01*
X114910295Y-119104037D01*
X114910296Y-119104037D01*
X114880703Y-119096107D01*
X114770282Y-119066520D01*
X114625332Y-119066520D01*
X114563597Y-119083061D01*
X114485317Y-119104037D01*
X114359796Y-119176507D01*
X114257294Y-119279009D01*
X114184824Y-119404530D01*
X114147307Y-119544545D01*
X104748307Y-119544545D01*
X104710791Y-119404535D01*
X104710789Y-119404532D01*
X104710789Y-119404530D01*
X104638319Y-119279009D01*
X104638317Y-119279007D01*
X104638316Y-119279005D01*
X104535822Y-119176511D01*
X104535819Y-119176509D01*
X104535817Y-119176507D01*
X104410295Y-119104037D01*
X104410296Y-119104037D01*
X104380703Y-119096107D01*
X104270282Y-119066520D01*
X104125332Y-119066520D01*
X104063597Y-119083061D01*
X103985317Y-119104037D01*
X103859796Y-119176507D01*
X103757294Y-119279009D01*
X103684824Y-119404530D01*
X103647307Y-119544545D01*
X100300500Y-119544545D01*
X100300500Y-118552525D01*
X111612000Y-118552525D01*
X111612000Y-118697474D01*
X111649517Y-118837489D01*
X111721987Y-118963010D01*
X111721989Y-118963012D01*
X111721991Y-118963015D01*
X111824485Y-119065509D01*
X111824487Y-119065510D01*
X111824489Y-119065512D01*
X111950011Y-119137982D01*
X111950012Y-119137982D01*
X111950015Y-119137984D01*
X112090025Y-119175500D01*
X112090026Y-119175500D01*
X112234974Y-119175500D01*
X112234975Y-119175500D01*
X112374985Y-119137984D01*
X112374987Y-119137982D01*
X112374989Y-119137982D01*
X112500510Y-119065512D01*
X112500510Y-119065511D01*
X112500515Y-119065509D01*
X112603009Y-118963015D01*
X112603338Y-118962445D01*
X112675482Y-118837489D01*
X112675482Y-118837487D01*
X112675484Y-118837485D01*
X112713000Y-118697475D01*
X112713000Y-118552525D01*
X112675484Y-118412515D01*
X112675482Y-118412512D01*
X112675482Y-118412510D01*
X112603012Y-118286989D01*
X112603010Y-118286987D01*
X112603009Y-118286985D01*
X112500515Y-118184491D01*
X112500512Y-118184489D01*
X112500510Y-118184487D01*
X112395383Y-118123792D01*
X112374988Y-118112017D01*
X112374989Y-118112017D01*
X112345396Y-118104087D01*
X112234975Y-118074500D01*
X112090025Y-118074500D01*
X112028290Y-118091041D01*
X111950010Y-118112017D01*
X111824489Y-118184487D01*
X111721987Y-118286989D01*
X111649517Y-118412510D01*
X111612000Y-118552525D01*
X100300500Y-118552525D01*
X100300500Y-118044545D01*
X113639192Y-118044545D01*
X113639192Y-118189495D01*
X113664057Y-118282293D01*
X113676709Y-118329509D01*
X113749179Y-118455030D01*
X113749181Y-118455032D01*
X113749183Y-118455035D01*
X113851677Y-118557529D01*
X113851679Y-118557530D01*
X113851681Y-118557532D01*
X113977203Y-118630002D01*
X113977204Y-118630002D01*
X113977207Y-118630004D01*
X114117217Y-118667520D01*
X114117218Y-118667520D01*
X114262166Y-118667520D01*
X114262167Y-118667520D01*
X114402177Y-118630004D01*
X114402179Y-118630002D01*
X114402181Y-118630002D01*
X114527702Y-118557532D01*
X114527702Y-118557531D01*
X114527707Y-118557529D01*
X114532711Y-118552525D01*
X122112000Y-118552525D01*
X122112000Y-118697474D01*
X122149517Y-118837489D01*
X122221987Y-118963010D01*
X122221989Y-118963012D01*
X122221991Y-118963015D01*
X122324485Y-119065509D01*
X122324487Y-119065510D01*
X122324489Y-119065512D01*
X122450011Y-119137982D01*
X122450012Y-119137982D01*
X122450015Y-119137984D01*
X122590025Y-119175500D01*
X122590026Y-119175500D01*
X122734974Y-119175500D01*
X122734975Y-119175500D01*
X122874985Y-119137984D01*
X122874987Y-119137982D01*
X122874989Y-119137982D01*
X123000510Y-119065512D01*
X123000510Y-119065511D01*
X123000515Y-119065509D01*
X123103009Y-118963015D01*
X123103338Y-118962445D01*
X123175482Y-118837489D01*
X123175482Y-118837487D01*
X123175484Y-118837485D01*
X123213000Y-118697475D01*
X123213000Y-118552525D01*
X123186435Y-118453385D01*
X128359500Y-118453385D01*
X128359500Y-118626614D01*
X128386597Y-118797702D01*
X128386598Y-118797706D01*
X128440123Y-118962438D01*
X128440125Y-118962441D01*
X128512270Y-119104036D01*
X128518768Y-119116788D01*
X128620586Y-119256928D01*
X128743072Y-119379414D01*
X128883212Y-119481232D01*
X129037555Y-119559873D01*
X129037557Y-119559873D01*
X129037558Y-119559874D01*
X129037561Y-119559876D01*
X129202293Y-119613401D01*
X129202297Y-119613402D01*
X129373386Y-119640500D01*
X129373389Y-119640500D01*
X130846614Y-119640500D01*
X131017702Y-119613402D01*
X131017706Y-119613401D01*
X131182438Y-119559876D01*
X131182440Y-119559874D01*
X131182445Y-119559873D01*
X131336788Y-119481232D01*
X131476928Y-119379414D01*
X131599414Y-119256928D01*
X131701232Y-119116788D01*
X131779873Y-118962445D01*
X131779874Y-118962440D01*
X131779876Y-118962438D01*
X131833401Y-118797706D01*
X131833402Y-118797702D01*
X131860500Y-118626614D01*
X131860500Y-118453385D01*
X146139500Y-118453385D01*
X146139500Y-118626614D01*
X146166597Y-118797702D01*
X146166598Y-118797706D01*
X146220123Y-118962438D01*
X146220125Y-118962441D01*
X146292270Y-119104036D01*
X146298768Y-119116788D01*
X146400586Y-119256928D01*
X146523072Y-119379414D01*
X146663212Y-119481232D01*
X146817555Y-119559873D01*
X146817557Y-119559873D01*
X146817558Y-119559874D01*
X146817561Y-119559876D01*
X146982293Y-119613401D01*
X146982297Y-119613402D01*
X147153386Y-119640500D01*
X147153389Y-119640500D01*
X148626614Y-119640500D01*
X148797702Y-119613402D01*
X148797706Y-119613401D01*
X148962438Y-119559876D01*
X148962440Y-119559874D01*
X148962445Y-119559873D01*
X149116788Y-119481232D01*
X149256928Y-119379414D01*
X149379414Y-119256928D01*
X149481232Y-119116788D01*
X149559873Y-118962445D01*
X149559874Y-118962440D01*
X149559876Y-118962438D01*
X149613401Y-118797706D01*
X149613402Y-118797702D01*
X149640500Y-118626614D01*
X149640500Y-118453385D01*
X149613402Y-118282297D01*
X149613401Y-118282293D01*
X149559876Y-118117561D01*
X149559874Y-118117558D01*
X149559873Y-118117557D01*
X149559873Y-118117555D01*
X149481232Y-117963212D01*
X149379414Y-117823072D01*
X149256928Y-117700586D01*
X149116788Y-117598768D01*
X149116787Y-117598767D01*
X149116785Y-117598766D01*
X148962441Y-117520125D01*
X148962438Y-117520123D01*
X148797706Y-117466598D01*
X148797702Y-117466597D01*
X148626614Y-117439500D01*
X148626611Y-117439500D01*
X147153389Y-117439500D01*
X147153386Y-117439500D01*
X146982297Y-117466597D01*
X146982293Y-117466598D01*
X146817561Y-117520123D01*
X146817558Y-117520125D01*
X146663214Y-117598766D01*
X146523073Y-117700585D01*
X146400585Y-117823073D01*
X146298766Y-117963214D01*
X146220125Y-118117558D01*
X146220123Y-118117561D01*
X146166598Y-118282293D01*
X146166597Y-118282297D01*
X146139500Y-118453385D01*
X131860500Y-118453385D01*
X131833402Y-118282297D01*
X131833401Y-118282293D01*
X131779876Y-118117561D01*
X131779874Y-118117558D01*
X131779873Y-118117557D01*
X131779873Y-118117555D01*
X131701232Y-117963212D01*
X131599414Y-117823072D01*
X131476928Y-117700586D01*
X131336788Y-117598768D01*
X131336787Y-117598767D01*
X131336785Y-117598766D01*
X131182441Y-117520125D01*
X131182438Y-117520123D01*
X131017706Y-117466598D01*
X131017702Y-117466597D01*
X130846614Y-117439500D01*
X130846611Y-117439500D01*
X129373389Y-117439500D01*
X129373386Y-117439500D01*
X129202297Y-117466597D01*
X129202293Y-117466598D01*
X129037561Y-117520123D01*
X129037558Y-117520125D01*
X128883214Y-117598766D01*
X128743073Y-117700585D01*
X128620585Y-117823073D01*
X128518766Y-117963214D01*
X128440125Y-118117558D01*
X128440123Y-118117561D01*
X128386598Y-118282293D01*
X128386597Y-118282297D01*
X128359500Y-118453385D01*
X123186435Y-118453385D01*
X123175484Y-118412515D01*
X123175482Y-118412512D01*
X123175482Y-118412510D01*
X123103012Y-118286989D01*
X123103010Y-118286987D01*
X123103009Y-118286985D01*
X123000515Y-118184491D01*
X123000512Y-118184489D01*
X123000510Y-118184487D01*
X122874988Y-118112017D01*
X122874989Y-118112017D01*
X122845396Y-118104087D01*
X122734975Y-118074500D01*
X122590025Y-118074500D01*
X122528290Y-118091041D01*
X122450010Y-118112017D01*
X122324489Y-118184487D01*
X122221987Y-118286989D01*
X122149517Y-118412510D01*
X122112000Y-118552525D01*
X114532711Y-118552525D01*
X114630201Y-118455035D01*
X114702676Y-118329505D01*
X114740192Y-118189495D01*
X114740192Y-118044545D01*
X114702676Y-117904535D01*
X114702674Y-117904532D01*
X114702674Y-117904530D01*
X114630204Y-117779009D01*
X114630202Y-117779007D01*
X114630201Y-117779005D01*
X114553721Y-117702525D01*
X125449500Y-117702525D01*
X125449500Y-117847474D01*
X125487017Y-117987489D01*
X125559487Y-118113010D01*
X125559489Y-118113012D01*
X125559491Y-118113015D01*
X125661985Y-118215509D01*
X125661987Y-118215510D01*
X125661989Y-118215512D01*
X125787511Y-118287982D01*
X125787512Y-118287982D01*
X125787515Y-118287984D01*
X125927525Y-118325500D01*
X125927526Y-118325500D01*
X126072474Y-118325500D01*
X126072475Y-118325500D01*
X126212485Y-118287984D01*
X126212487Y-118287982D01*
X126212489Y-118287982D01*
X126338010Y-118215512D01*
X126338010Y-118215511D01*
X126338015Y-118215509D01*
X126440509Y-118113015D01*
X126462746Y-118074500D01*
X126512982Y-117987489D01*
X126512982Y-117987487D01*
X126512984Y-117987485D01*
X126550500Y-117847475D01*
X126550500Y-117702525D01*
X126512984Y-117562515D01*
X126512982Y-117562512D01*
X126512982Y-117562510D01*
X126440512Y-117436989D01*
X126440510Y-117436987D01*
X126440509Y-117436985D01*
X126338015Y-117334491D01*
X126338012Y-117334489D01*
X126338010Y-117334487D01*
X126212488Y-117262017D01*
X126212489Y-117262017D01*
X126182896Y-117254087D01*
X126072475Y-117224500D01*
X125927525Y-117224500D01*
X125865790Y-117241041D01*
X125787510Y-117262017D01*
X125661989Y-117334487D01*
X125559487Y-117436989D01*
X125487017Y-117562510D01*
X125449500Y-117702525D01*
X114553721Y-117702525D01*
X114527707Y-117676511D01*
X114527704Y-117676509D01*
X114527702Y-117676507D01*
X114402180Y-117604037D01*
X114402181Y-117604037D01*
X114372588Y-117596107D01*
X114262167Y-117566520D01*
X114117217Y-117566520D01*
X114055482Y-117583061D01*
X113977202Y-117604037D01*
X113851681Y-117676507D01*
X113749179Y-117779009D01*
X113676709Y-117904530D01*
X113676708Y-117904535D01*
X113639192Y-118044545D01*
X100300500Y-118044545D01*
X100300500Y-116602525D01*
X111612000Y-116602525D01*
X111612000Y-116747475D01*
X111620583Y-116779505D01*
X111649517Y-116887489D01*
X111721987Y-117013010D01*
X111721989Y-117013012D01*
X111721991Y-117013015D01*
X111824485Y-117115509D01*
X111824487Y-117115510D01*
X111824489Y-117115512D01*
X111950011Y-117187982D01*
X111950012Y-117187982D01*
X111950015Y-117187984D01*
X112090025Y-117225500D01*
X112090026Y-117225500D01*
X112234974Y-117225500D01*
X112234975Y-117225500D01*
X112374985Y-117187984D01*
X112374987Y-117187982D01*
X112374989Y-117187982D01*
X112500510Y-117115512D01*
X112500510Y-117115511D01*
X112500515Y-117115509D01*
X112603009Y-117013015D01*
X112606176Y-117007529D01*
X112675482Y-116887489D01*
X112675482Y-116887487D01*
X112675484Y-116887485D01*
X112713000Y-116747475D01*
X112713000Y-116602525D01*
X112684067Y-116494545D01*
X113639192Y-116494545D01*
X113639192Y-116639495D01*
X113659940Y-116716926D01*
X113676709Y-116779509D01*
X113749179Y-116905030D01*
X113749181Y-116905032D01*
X113749183Y-116905035D01*
X113851677Y-117007529D01*
X113851679Y-117007530D01*
X113851681Y-117007532D01*
X113977203Y-117080002D01*
X113977204Y-117080002D01*
X113977207Y-117080004D01*
X114117217Y-117117520D01*
X114117218Y-117117520D01*
X114262166Y-117117520D01*
X114262167Y-117117520D01*
X114402177Y-117080004D01*
X114402179Y-117080002D01*
X114402181Y-117080002D01*
X114527702Y-117007532D01*
X114527702Y-117007531D01*
X114527707Y-117007529D01*
X114630201Y-116905035D01*
X114640334Y-116887485D01*
X114702674Y-116779509D01*
X114702674Y-116779507D01*
X114702676Y-116779505D01*
X114740192Y-116639495D01*
X114740192Y-116602525D01*
X122112000Y-116602525D01*
X122112000Y-116747475D01*
X122120583Y-116779505D01*
X122149517Y-116887489D01*
X122221987Y-117013010D01*
X122221989Y-117013012D01*
X122221991Y-117013015D01*
X122324485Y-117115509D01*
X122324487Y-117115510D01*
X122324489Y-117115512D01*
X122450011Y-117187982D01*
X122450012Y-117187982D01*
X122450015Y-117187984D01*
X122590025Y-117225500D01*
X122590026Y-117225500D01*
X122734974Y-117225500D01*
X122734975Y-117225500D01*
X122874985Y-117187984D01*
X122874987Y-117187982D01*
X122874989Y-117187982D01*
X123000510Y-117115512D01*
X123000510Y-117115511D01*
X123000515Y-117115509D01*
X123103009Y-117013015D01*
X123106176Y-117007529D01*
X123175482Y-116887489D01*
X123175482Y-116887487D01*
X123175484Y-116887485D01*
X123213000Y-116747475D01*
X123213000Y-116602525D01*
X123175484Y-116462515D01*
X123175482Y-116462512D01*
X123175482Y-116462510D01*
X123103012Y-116336989D01*
X123103010Y-116336987D01*
X123103009Y-116336985D01*
X123000515Y-116234491D01*
X123000508Y-116234487D01*
X122995806Y-116231772D01*
X122995804Y-116231770D01*
X122874988Y-116162017D01*
X122874989Y-116162017D01*
X122845396Y-116154087D01*
X122839566Y-116152525D01*
X125449500Y-116152525D01*
X125449500Y-116297474D01*
X125487017Y-116437489D01*
X125559487Y-116563010D01*
X125559489Y-116563012D01*
X125559491Y-116563015D01*
X125661985Y-116665509D01*
X125661987Y-116665510D01*
X125661989Y-116665512D01*
X125787511Y-116737982D01*
X125787512Y-116737982D01*
X125787515Y-116737984D01*
X125927525Y-116775500D01*
X125927526Y-116775500D01*
X126072474Y-116775500D01*
X126072475Y-116775500D01*
X126212485Y-116737984D01*
X126212487Y-116737982D01*
X126212489Y-116737982D01*
X126338010Y-116665512D01*
X126338010Y-116665511D01*
X126338015Y-116665509D01*
X126440509Y-116563015D01*
X126468993Y-116513679D01*
X126512982Y-116437489D01*
X126512982Y-116437487D01*
X126512984Y-116437485D01*
X126550500Y-116297475D01*
X126550500Y-116152525D01*
X126512984Y-116012515D01*
X126512982Y-116012512D01*
X126512982Y-116012510D01*
X126482088Y-115959002D01*
X126482086Y-115958999D01*
X126455751Y-115913385D01*
X128359500Y-115913385D01*
X128359500Y-116086614D01*
X128386597Y-116257702D01*
X128386598Y-116257706D01*
X128440123Y-116422438D01*
X128440125Y-116422441D01*
X128511747Y-116563010D01*
X128518768Y-116576788D01*
X128620586Y-116716928D01*
X128743072Y-116839414D01*
X128883212Y-116941232D01*
X129037555Y-117019873D01*
X129037557Y-117019873D01*
X129037558Y-117019874D01*
X129037561Y-117019876D01*
X129202293Y-117073401D01*
X129202297Y-117073402D01*
X129373386Y-117100500D01*
X129373389Y-117100500D01*
X130846614Y-117100500D01*
X131017702Y-117073402D01*
X131017706Y-117073401D01*
X131182438Y-117019876D01*
X131182440Y-117019874D01*
X131182445Y-117019873D01*
X131336788Y-116941232D01*
X131476928Y-116839414D01*
X131599414Y-116716928D01*
X131701232Y-116576788D01*
X131779873Y-116422445D01*
X131779874Y-116422440D01*
X131779876Y-116422438D01*
X131833401Y-116257706D01*
X131833402Y-116257702D01*
X131860500Y-116086614D01*
X131860500Y-115913385D01*
X131833402Y-115742297D01*
X131833401Y-115742293D01*
X131779876Y-115577561D01*
X131779874Y-115577558D01*
X131779873Y-115577557D01*
X131779873Y-115577555D01*
X131701232Y-115423212D01*
X131599414Y-115283072D01*
X131476928Y-115160586D01*
X131336788Y-115058768D01*
X131336787Y-115058767D01*
X131336785Y-115058766D01*
X131182441Y-114980125D01*
X131182438Y-114980123D01*
X131017706Y-114926598D01*
X131017702Y-114926597D01*
X130846614Y-114899500D01*
X130846611Y-114899500D01*
X129373389Y-114899500D01*
X129373386Y-114899500D01*
X129202297Y-114926597D01*
X129202293Y-114926598D01*
X129037561Y-114980123D01*
X129037558Y-114980125D01*
X128883214Y-115058766D01*
X128743073Y-115160585D01*
X128620585Y-115283073D01*
X128518766Y-115423214D01*
X128440125Y-115577558D01*
X128440123Y-115577561D01*
X128386598Y-115742293D01*
X128386597Y-115742297D01*
X128359500Y-115913385D01*
X126455751Y-115913385D01*
X126440511Y-115886989D01*
X126440509Y-115886985D01*
X126338015Y-115784491D01*
X126338012Y-115784489D01*
X126338010Y-115784487D01*
X126212488Y-115712017D01*
X126212489Y-115712017D01*
X126182896Y-115704087D01*
X126072475Y-115674500D01*
X125927525Y-115674500D01*
X125865790Y-115691041D01*
X125787510Y-115712017D01*
X125661989Y-115784487D01*
X125559487Y-115886989D01*
X125487017Y-116012510D01*
X125449500Y-116152525D01*
X122839566Y-116152525D01*
X122734975Y-116124500D01*
X122590025Y-116124500D01*
X122528290Y-116141041D01*
X122450010Y-116162017D01*
X122324489Y-116234487D01*
X122221987Y-116336989D01*
X122149517Y-116462510D01*
X122149516Y-116462515D01*
X122112000Y-116602525D01*
X114740192Y-116602525D01*
X114740192Y-116494545D01*
X114702676Y-116354535D01*
X114702674Y-116354532D01*
X114702674Y-116354530D01*
X114630204Y-116229009D01*
X114630202Y-116229007D01*
X114630201Y-116229005D01*
X114527707Y-116126511D01*
X114527704Y-116126509D01*
X114527702Y-116126507D01*
X114402180Y-116054037D01*
X114402181Y-116054037D01*
X114372588Y-116046107D01*
X114262167Y-116016520D01*
X114117217Y-116016520D01*
X114055482Y-116033061D01*
X113977202Y-116054037D01*
X113851681Y-116126507D01*
X113749179Y-116229009D01*
X113676709Y-116354530D01*
X113639192Y-116494545D01*
X112684067Y-116494545D01*
X112675484Y-116462515D01*
X112675482Y-116462512D01*
X112675482Y-116462510D01*
X112603012Y-116336989D01*
X112603010Y-116336987D01*
X112603009Y-116336985D01*
X112500515Y-116234491D01*
X112500512Y-116234489D01*
X112500510Y-116234487D01*
X112374988Y-116162017D01*
X112374989Y-116162017D01*
X112345396Y-116154087D01*
X112234975Y-116124500D01*
X112090025Y-116124500D01*
X112028290Y-116141041D01*
X111950010Y-116162017D01*
X111824489Y-116234487D01*
X111721987Y-116336989D01*
X111649517Y-116462510D01*
X111649516Y-116462515D01*
X111612000Y-116602525D01*
X100300500Y-116602525D01*
X100300500Y-114377525D01*
X101899500Y-114377525D01*
X101899500Y-114522474D01*
X101937017Y-114662489D01*
X102009487Y-114788010D01*
X102009489Y-114788012D01*
X102009491Y-114788015D01*
X102111985Y-114890509D01*
X102111987Y-114890510D01*
X102111989Y-114890512D01*
X102237511Y-114962982D01*
X102237512Y-114962982D01*
X102237515Y-114962984D01*
X102377525Y-115000500D01*
X102377526Y-115000500D01*
X102522474Y-115000500D01*
X102522475Y-115000500D01*
X102662485Y-114962984D01*
X102662487Y-114962982D01*
X102662489Y-114962982D01*
X102788010Y-114890512D01*
X102788010Y-114890511D01*
X102788015Y-114890509D01*
X102890509Y-114788015D01*
X102929207Y-114720989D01*
X102962982Y-114662489D01*
X102962982Y-114662487D01*
X102962984Y-114662485D01*
X103000500Y-114522475D01*
X103000500Y-114377525D01*
X102982542Y-114310504D01*
X111251692Y-114310504D01*
X111251692Y-114455454D01*
X111272578Y-114533401D01*
X111289209Y-114595468D01*
X111361679Y-114720989D01*
X111361681Y-114720991D01*
X111361683Y-114720994D01*
X111464177Y-114823488D01*
X111464179Y-114823489D01*
X111464181Y-114823491D01*
X111589703Y-114895961D01*
X111589704Y-114895961D01*
X111589707Y-114895963D01*
X111729717Y-114933479D01*
X111729718Y-114933479D01*
X111874666Y-114933479D01*
X111874667Y-114933479D01*
X112014677Y-114895963D01*
X112014679Y-114895961D01*
X112014681Y-114895961D01*
X112140202Y-114823491D01*
X112140202Y-114823490D01*
X112140207Y-114823488D01*
X112242701Y-114720994D01*
X112315176Y-114595464D01*
X112352692Y-114455454D01*
X112352692Y-114310504D01*
X121751692Y-114310504D01*
X121751692Y-114455454D01*
X121772578Y-114533401D01*
X121789209Y-114595468D01*
X121861679Y-114720989D01*
X121861681Y-114720991D01*
X121861683Y-114720994D01*
X121964177Y-114823488D01*
X121964179Y-114823489D01*
X121964181Y-114823491D01*
X122089703Y-114895961D01*
X122089704Y-114895961D01*
X122089707Y-114895963D01*
X122229717Y-114933479D01*
X122229718Y-114933479D01*
X122374666Y-114933479D01*
X122374667Y-114933479D01*
X122514677Y-114895963D01*
X122514679Y-114895961D01*
X122514681Y-114895961D01*
X122640202Y-114823491D01*
X122640202Y-114823490D01*
X122640207Y-114823488D01*
X122742701Y-114720994D01*
X122815176Y-114595464D01*
X122852692Y-114455454D01*
X122852692Y-114310504D01*
X122815176Y-114170494D01*
X122815174Y-114170491D01*
X122815174Y-114170489D01*
X122742704Y-114044968D01*
X122742702Y-114044966D01*
X122742701Y-114044964D01*
X122640207Y-113942470D01*
X122640204Y-113942468D01*
X122640202Y-113942466D01*
X122514680Y-113869996D01*
X122514681Y-113869996D01*
X122477745Y-113860099D01*
X122374667Y-113832479D01*
X122229717Y-113832479D01*
X122167982Y-113849020D01*
X122089702Y-113869996D01*
X121964181Y-113942466D01*
X121861679Y-114044968D01*
X121789209Y-114170489D01*
X121754664Y-114299414D01*
X121751692Y-114310504D01*
X112352692Y-114310504D01*
X112315176Y-114170494D01*
X112315174Y-114170491D01*
X112315174Y-114170489D01*
X112242704Y-114044968D01*
X112242702Y-114044966D01*
X112242701Y-114044964D01*
X112140207Y-113942470D01*
X112140204Y-113942468D01*
X112140202Y-113942466D01*
X112014680Y-113869996D01*
X112014681Y-113869996D01*
X111977745Y-113860099D01*
X111874667Y-113832479D01*
X111729717Y-113832479D01*
X111667982Y-113849020D01*
X111589702Y-113869996D01*
X111464181Y-113942466D01*
X111361679Y-114044968D01*
X111289209Y-114170489D01*
X111254664Y-114299414D01*
X111251692Y-114310504D01*
X102982542Y-114310504D01*
X102962984Y-114237515D01*
X102962982Y-114237512D01*
X102962982Y-114237510D01*
X102890512Y-114111989D01*
X102890510Y-114111987D01*
X102890509Y-114111985D01*
X102788015Y-114009491D01*
X102788012Y-114009489D01*
X102788010Y-114009487D01*
X102662488Y-113937017D01*
X102662489Y-113937017D01*
X102621093Y-113925925D01*
X102522475Y-113899500D01*
X102377525Y-113899500D01*
X102315790Y-113916041D01*
X102237510Y-113937017D01*
X102111989Y-114009487D01*
X102009487Y-114111989D01*
X101937017Y-114237510D01*
X101899500Y-114377525D01*
X100300500Y-114377525D01*
X100300500Y-113373385D01*
X128359500Y-113373385D01*
X128359500Y-113546614D01*
X128386597Y-113717702D01*
X128386598Y-113717706D01*
X128440123Y-113882438D01*
X128440125Y-113882441D01*
X128504859Y-114009491D01*
X128518768Y-114036788D01*
X128620586Y-114176928D01*
X128743072Y-114299414D01*
X128883212Y-114401232D01*
X129037555Y-114479873D01*
X129037557Y-114479873D01*
X129037558Y-114479874D01*
X129037561Y-114479876D01*
X129202293Y-114533401D01*
X129202297Y-114533402D01*
X129373386Y-114560500D01*
X129373389Y-114560500D01*
X130846614Y-114560500D01*
X131017702Y-114533402D01*
X131017706Y-114533401D01*
X131182438Y-114479876D01*
X131182440Y-114479874D01*
X131182445Y-114479873D01*
X131336788Y-114401232D01*
X131476928Y-114299414D01*
X131599414Y-114176928D01*
X131701232Y-114036788D01*
X131779873Y-113882445D01*
X131779874Y-113882440D01*
X131779876Y-113882438D01*
X131833401Y-113717706D01*
X131833402Y-113717701D01*
X131841762Y-113664922D01*
X131860500Y-113546614D01*
X131860500Y-113373385D01*
X131841762Y-113255078D01*
X131834622Y-113209999D01*
X145912768Y-113209999D01*
X145912769Y-113210000D01*
X147456988Y-113210000D01*
X147424075Y-113267007D01*
X147390000Y-113394174D01*
X147390000Y-113525826D01*
X147424075Y-113652993D01*
X147456988Y-113710000D01*
X145912769Y-113710000D01*
X145923241Y-113776122D01*
X145988904Y-113978215D01*
X146085375Y-114167552D01*
X146210277Y-114339464D01*
X146360535Y-114489722D01*
X146532447Y-114614624D01*
X146721786Y-114711096D01*
X146893886Y-114767014D01*
X146943386Y-114802978D01*
X146962294Y-114861169D01*
X146943387Y-114919359D01*
X146893888Y-114955323D01*
X146817558Y-114980125D01*
X146663214Y-115058766D01*
X146523073Y-115160585D01*
X146400585Y-115283073D01*
X146298766Y-115423214D01*
X146220125Y-115577558D01*
X146220123Y-115577561D01*
X146166598Y-115742293D01*
X146166597Y-115742297D01*
X146139500Y-115913385D01*
X146139500Y-116086614D01*
X146166597Y-116257702D01*
X146166598Y-116257706D01*
X146220123Y-116422438D01*
X146220125Y-116422441D01*
X146291747Y-116563010D01*
X146298768Y-116576788D01*
X146400586Y-116716928D01*
X146523072Y-116839414D01*
X146663212Y-116941232D01*
X146817555Y-117019873D01*
X146817557Y-117019873D01*
X146817558Y-117019874D01*
X146817561Y-117019876D01*
X146982293Y-117073401D01*
X146982297Y-117073402D01*
X147153386Y-117100500D01*
X147153389Y-117100500D01*
X148626614Y-117100500D01*
X148797702Y-117073402D01*
X148797706Y-117073401D01*
X148962438Y-117019876D01*
X148962440Y-117019874D01*
X148962445Y-117019873D01*
X149116788Y-116941232D01*
X149256928Y-116839414D01*
X149379414Y-116716928D01*
X149481232Y-116576788D01*
X149559873Y-116422445D01*
X149559874Y-116422440D01*
X149559876Y-116422438D01*
X149613401Y-116257706D01*
X149613402Y-116257702D01*
X149640500Y-116086614D01*
X149640500Y-115913385D01*
X149613402Y-115742297D01*
X149613401Y-115742293D01*
X149559876Y-115577561D01*
X149559874Y-115577558D01*
X149559873Y-115577557D01*
X149559873Y-115577555D01*
X149481232Y-115423212D01*
X149379414Y-115283072D01*
X149256928Y-115160586D01*
X149116788Y-115058768D01*
X149116787Y-115058767D01*
X149116785Y-115058766D01*
X148962441Y-114980125D01*
X148886111Y-114955323D01*
X148836612Y-114919359D01*
X148817705Y-114861168D01*
X148836613Y-114802977D01*
X148886113Y-114767014D01*
X149058213Y-114711096D01*
X149247552Y-114614624D01*
X149419464Y-114489722D01*
X149569722Y-114339464D01*
X149694624Y-114167552D01*
X149791095Y-113978215D01*
X149856758Y-113776122D01*
X149867231Y-113710000D01*
X148323012Y-113710000D01*
X148355925Y-113652993D01*
X148390000Y-113525826D01*
X148390000Y-113394174D01*
X148355925Y-113267007D01*
X148323012Y-113210000D01*
X149867231Y-113210000D01*
X149867231Y-113209999D01*
X149856758Y-113143877D01*
X149791095Y-112941784D01*
X149694624Y-112752447D01*
X149569722Y-112580535D01*
X149419464Y-112430277D01*
X149247552Y-112305375D01*
X149058215Y-112208904D01*
X148886112Y-112152985D01*
X148836612Y-112117021D01*
X148817705Y-112058830D01*
X148836612Y-112000639D01*
X148886111Y-111964675D01*
X148962445Y-111939873D01*
X149116788Y-111861232D01*
X149256928Y-111759414D01*
X149379414Y-111636928D01*
X149481232Y-111496788D01*
X149559873Y-111342445D01*
X149559874Y-111342440D01*
X149559876Y-111342438D01*
X149613401Y-111177706D01*
X149613402Y-111177702D01*
X149640500Y-111006614D01*
X149640500Y-110833385D01*
X149613402Y-110662297D01*
X149613401Y-110662293D01*
X149559876Y-110497561D01*
X149559874Y-110497558D01*
X149559873Y-110497557D01*
X149559873Y-110497555D01*
X149481232Y-110343212D01*
X149379414Y-110203072D01*
X149256928Y-110080586D01*
X149116788Y-109978768D01*
X149116787Y-109978767D01*
X149116785Y-109978766D01*
X148962441Y-109900125D01*
X148962438Y-109900123D01*
X148797706Y-109846598D01*
X148797702Y-109846597D01*
X148626614Y-109819500D01*
X148626611Y-109819500D01*
X147153389Y-109819500D01*
X147153386Y-109819500D01*
X146982297Y-109846597D01*
X146982293Y-109846598D01*
X146817561Y-109900123D01*
X146817558Y-109900125D01*
X146663214Y-109978766D01*
X146523073Y-110080585D01*
X146400585Y-110203073D01*
X146298766Y-110343214D01*
X146220125Y-110497558D01*
X146220123Y-110497561D01*
X146166598Y-110662293D01*
X146166597Y-110662297D01*
X146139500Y-110833385D01*
X146139500Y-111006614D01*
X146166597Y-111177702D01*
X146166598Y-111177706D01*
X146220123Y-111342438D01*
X146220125Y-111342441D01*
X146251760Y-111404530D01*
X146298768Y-111496788D01*
X146400586Y-111636928D01*
X146523072Y-111759414D01*
X146663212Y-111861232D01*
X146817555Y-111939873D01*
X146817557Y-111939873D01*
X146817558Y-111939874D01*
X146817561Y-111939876D01*
X146893887Y-111964676D01*
X146943387Y-112000640D01*
X146962294Y-112058830D01*
X146943386Y-112117021D01*
X146893887Y-112152985D01*
X146721784Y-112208904D01*
X146532447Y-112305375D01*
X146360535Y-112430277D01*
X146210277Y-112580535D01*
X146085375Y-112752447D01*
X145988904Y-112941784D01*
X145923241Y-113143877D01*
X145912768Y-113209999D01*
X131834622Y-113209999D01*
X131833402Y-113202298D01*
X131833401Y-113202293D01*
X131779876Y-113037561D01*
X131779874Y-113037558D01*
X131779873Y-113037557D01*
X131779873Y-113037555D01*
X131701232Y-112883212D01*
X131599414Y-112743072D01*
X131476928Y-112620586D01*
X131336788Y-112518768D01*
X131336787Y-112518767D01*
X131336785Y-112518766D01*
X131182441Y-112440125D01*
X131182438Y-112440123D01*
X131017706Y-112386598D01*
X131017702Y-112386597D01*
X130846614Y-112359500D01*
X130846611Y-112359500D01*
X129373389Y-112359500D01*
X129373386Y-112359500D01*
X129202297Y-112386597D01*
X129202293Y-112386598D01*
X129037561Y-112440123D01*
X129037558Y-112440125D01*
X128883214Y-112518766D01*
X128743073Y-112620585D01*
X128620585Y-112743073D01*
X128518766Y-112883214D01*
X128440125Y-113037558D01*
X128440123Y-113037561D01*
X128386598Y-113202293D01*
X128386597Y-113202297D01*
X128359500Y-113373385D01*
X100300500Y-113373385D01*
X100300500Y-111544545D01*
X103647307Y-111544545D01*
X103647307Y-111689495D01*
X103672760Y-111784487D01*
X103684824Y-111829509D01*
X103757294Y-111955030D01*
X103757296Y-111955032D01*
X103757298Y-111955035D01*
X103859792Y-112057529D01*
X103859794Y-112057530D01*
X103859796Y-112057532D01*
X103985318Y-112130002D01*
X103985319Y-112130002D01*
X103985322Y-112130004D01*
X104125332Y-112167520D01*
X104125333Y-112167520D01*
X104270281Y-112167520D01*
X104270282Y-112167520D01*
X104410292Y-112130004D01*
X104410294Y-112130002D01*
X104410296Y-112130002D01*
X104457887Y-112102525D01*
X113699500Y-112102525D01*
X113699500Y-112247475D01*
X113726295Y-112347474D01*
X113737017Y-112387489D01*
X113809487Y-112513010D01*
X113809489Y-112513012D01*
X113809491Y-112513015D01*
X113911985Y-112615509D01*
X113911987Y-112615510D01*
X113911989Y-112615512D01*
X114037511Y-112687982D01*
X114037512Y-112687982D01*
X114037515Y-112687984D01*
X114177525Y-112725500D01*
X114177526Y-112725500D01*
X114322474Y-112725500D01*
X114322475Y-112725500D01*
X114462485Y-112687984D01*
X114462487Y-112687982D01*
X114462489Y-112687982D01*
X114588010Y-112615512D01*
X114588010Y-112615511D01*
X114588015Y-112615509D01*
X114690509Y-112513015D01*
X114690512Y-112513010D01*
X114762982Y-112387489D01*
X114762982Y-112387487D01*
X114762984Y-112387485D01*
X114800500Y-112247475D01*
X114800500Y-112202525D01*
X115087000Y-112202525D01*
X115087000Y-112347475D01*
X115111825Y-112440123D01*
X115124517Y-112487489D01*
X115196987Y-112613010D01*
X115196989Y-112613012D01*
X115196991Y-112613015D01*
X115299485Y-112715509D01*
X115299487Y-112715510D01*
X115299489Y-112715512D01*
X115425011Y-112787982D01*
X115425012Y-112787982D01*
X115425015Y-112787984D01*
X115565025Y-112825500D01*
X115565026Y-112825500D01*
X115709974Y-112825500D01*
X115709975Y-112825500D01*
X115849985Y-112787984D01*
X115849987Y-112787982D01*
X115849989Y-112787982D01*
X115975510Y-112715512D01*
X115975510Y-112715511D01*
X115975515Y-112715509D01*
X116078009Y-112613015D01*
X116078012Y-112613010D01*
X116150482Y-112487489D01*
X116150482Y-112487487D01*
X116150484Y-112487485D01*
X116188000Y-112347475D01*
X116188000Y-112202525D01*
X116174602Y-112152525D01*
X125449500Y-112152525D01*
X125449500Y-112297475D01*
X125479087Y-112407896D01*
X125487017Y-112437489D01*
X125559487Y-112563010D01*
X125559489Y-112563012D01*
X125559491Y-112563015D01*
X125661985Y-112665509D01*
X125661987Y-112665510D01*
X125661989Y-112665512D01*
X125787511Y-112737982D01*
X125787512Y-112737982D01*
X125787515Y-112737984D01*
X125927525Y-112775500D01*
X125927526Y-112775500D01*
X126072474Y-112775500D01*
X126072475Y-112775500D01*
X126212485Y-112737984D01*
X126212487Y-112737982D01*
X126212489Y-112737982D01*
X126338010Y-112665512D01*
X126338010Y-112665511D01*
X126338015Y-112665509D01*
X126440509Y-112563015D01*
X126469377Y-112513015D01*
X126512982Y-112437489D01*
X126512982Y-112437487D01*
X126512984Y-112437485D01*
X126550500Y-112297475D01*
X126550500Y-112152525D01*
X126512984Y-112012515D01*
X126512982Y-112012512D01*
X126512982Y-112012510D01*
X126440512Y-111886989D01*
X126440510Y-111886987D01*
X126440509Y-111886985D01*
X126338015Y-111784491D01*
X126338012Y-111784489D01*
X126338010Y-111784487D01*
X126212488Y-111712017D01*
X126212489Y-111712017D01*
X126128436Y-111689495D01*
X126072475Y-111674500D01*
X125927525Y-111674500D01*
X125871567Y-111689494D01*
X125787510Y-111712017D01*
X125661989Y-111784487D01*
X125559487Y-111886989D01*
X125487017Y-112012510D01*
X125449500Y-112152525D01*
X116174602Y-112152525D01*
X116150484Y-112062515D01*
X116150482Y-112062512D01*
X116150482Y-112062510D01*
X116078012Y-111936989D01*
X116078010Y-111936987D01*
X116078009Y-111936985D01*
X115975515Y-111834491D01*
X115975512Y-111834489D01*
X115975510Y-111834487D01*
X115849988Y-111762017D01*
X115849989Y-111762017D01*
X115747261Y-111734491D01*
X115709975Y-111724500D01*
X115565025Y-111724500D01*
X115527739Y-111734491D01*
X115425010Y-111762017D01*
X115299489Y-111834487D01*
X115196987Y-111936989D01*
X115124517Y-112062510D01*
X115100274Y-112152985D01*
X115087000Y-112202525D01*
X114800500Y-112202525D01*
X114800500Y-112102525D01*
X114762984Y-111962515D01*
X114762982Y-111962512D01*
X114762982Y-111962510D01*
X114690512Y-111836989D01*
X114690510Y-111836987D01*
X114690509Y-111836985D01*
X114588015Y-111734491D01*
X114588012Y-111734489D01*
X114588010Y-111734487D01*
X114462488Y-111662017D01*
X114462489Y-111662017D01*
X114368856Y-111636928D01*
X114322475Y-111624500D01*
X114177525Y-111624500D01*
X114131151Y-111636926D01*
X114037510Y-111662017D01*
X113911989Y-111734487D01*
X113809487Y-111836989D01*
X113737017Y-111962510D01*
X113726800Y-112000640D01*
X113699500Y-112102525D01*
X104457887Y-112102525D01*
X104535817Y-112057532D01*
X104535817Y-112057531D01*
X104535822Y-112057529D01*
X104638316Y-111955035D01*
X104647070Y-111939873D01*
X104710789Y-111829509D01*
X104710789Y-111829507D01*
X104710791Y-111829505D01*
X104748307Y-111689495D01*
X104748307Y-111544545D01*
X104710791Y-111404535D01*
X104710789Y-111404532D01*
X104710789Y-111404530D01*
X104638319Y-111279009D01*
X104638317Y-111279007D01*
X104638316Y-111279005D01*
X104535822Y-111176511D01*
X104535819Y-111176509D01*
X104535817Y-111176507D01*
X104410295Y-111104037D01*
X104410296Y-111104037D01*
X104380703Y-111096107D01*
X104270282Y-111066520D01*
X104125332Y-111066520D01*
X104063597Y-111083061D01*
X103985317Y-111104037D01*
X103859796Y-111176507D01*
X103757294Y-111279009D01*
X103684824Y-111404530D01*
X103647307Y-111544545D01*
X100300500Y-111544545D01*
X100300500Y-110552525D01*
X111612000Y-110552525D01*
X111612000Y-110697474D01*
X111649517Y-110837489D01*
X111721987Y-110963010D01*
X111721989Y-110963012D01*
X111721991Y-110963015D01*
X111824485Y-111065509D01*
X111824487Y-111065510D01*
X111824489Y-111065512D01*
X111950011Y-111137982D01*
X111950012Y-111137982D01*
X111950015Y-111137984D01*
X112090025Y-111175500D01*
X112090026Y-111175500D01*
X112234974Y-111175500D01*
X112234975Y-111175500D01*
X112374985Y-111137984D01*
X112374987Y-111137982D01*
X112374989Y-111137982D01*
X112500510Y-111065512D01*
X112500510Y-111065511D01*
X112500515Y-111065509D01*
X112603009Y-110963015D01*
X112675484Y-110837485D01*
X112713000Y-110697475D01*
X112713000Y-110552525D01*
X112675484Y-110412515D01*
X112675482Y-110412512D01*
X112675482Y-110412510D01*
X112603012Y-110286989D01*
X112603010Y-110286987D01*
X112603009Y-110286985D01*
X112500515Y-110184491D01*
X112500512Y-110184489D01*
X112500510Y-110184487D01*
X112395383Y-110123792D01*
X112374988Y-110112017D01*
X112374989Y-110112017D01*
X112345396Y-110104087D01*
X112234975Y-110074500D01*
X112090025Y-110074500D01*
X112028290Y-110091041D01*
X111950010Y-110112017D01*
X111824489Y-110184487D01*
X111721987Y-110286989D01*
X111649517Y-110412510D01*
X111612000Y-110552525D01*
X100300500Y-110552525D01*
X100300500Y-110044545D01*
X113639192Y-110044545D01*
X113639192Y-110189495D01*
X113665315Y-110286985D01*
X113676709Y-110329509D01*
X113749179Y-110455030D01*
X113749181Y-110455032D01*
X113749183Y-110455035D01*
X113851677Y-110557529D01*
X113851679Y-110557530D01*
X113851681Y-110557532D01*
X113977203Y-110630002D01*
X113977204Y-110630002D01*
X113977207Y-110630004D01*
X114117217Y-110667520D01*
X114117218Y-110667520D01*
X114262166Y-110667520D01*
X114262167Y-110667520D01*
X114402177Y-110630004D01*
X114402179Y-110630002D01*
X114402181Y-110630002D01*
X114527702Y-110557532D01*
X114527702Y-110557531D01*
X114527707Y-110557529D01*
X114532711Y-110552525D01*
X122112000Y-110552525D01*
X122112000Y-110697474D01*
X122149517Y-110837489D01*
X122221987Y-110963010D01*
X122221989Y-110963012D01*
X122221991Y-110963015D01*
X122324485Y-111065509D01*
X122324487Y-111065510D01*
X122324489Y-111065512D01*
X122450011Y-111137982D01*
X122450012Y-111137982D01*
X122450015Y-111137984D01*
X122590025Y-111175500D01*
X122590026Y-111175500D01*
X122734974Y-111175500D01*
X122734975Y-111175500D01*
X122874985Y-111137984D01*
X122874987Y-111137982D01*
X122874989Y-111137982D01*
X123000510Y-111065512D01*
X123000510Y-111065511D01*
X123000515Y-111065509D01*
X123103009Y-110963015D01*
X123175484Y-110837485D01*
X123176583Y-110833385D01*
X128359500Y-110833385D01*
X128359500Y-111006614D01*
X128386597Y-111177702D01*
X128386598Y-111177706D01*
X128440123Y-111342438D01*
X128440125Y-111342441D01*
X128471760Y-111404530D01*
X128518768Y-111496788D01*
X128620586Y-111636928D01*
X128743072Y-111759414D01*
X128883212Y-111861232D01*
X129037555Y-111939873D01*
X129037557Y-111939873D01*
X129037558Y-111939874D01*
X129037561Y-111939876D01*
X129202293Y-111993401D01*
X129202297Y-111993402D01*
X129373386Y-112020500D01*
X129373389Y-112020500D01*
X130846614Y-112020500D01*
X131017702Y-111993402D01*
X131017706Y-111993401D01*
X131182438Y-111939876D01*
X131182440Y-111939874D01*
X131182445Y-111939873D01*
X131336788Y-111861232D01*
X131476928Y-111759414D01*
X131599414Y-111636928D01*
X131701232Y-111496788D01*
X131779873Y-111342445D01*
X131779874Y-111342440D01*
X131779876Y-111342438D01*
X131833401Y-111177706D01*
X131833402Y-111177702D01*
X131860500Y-111006614D01*
X131860500Y-110833385D01*
X131833402Y-110662297D01*
X131833401Y-110662293D01*
X131779876Y-110497561D01*
X131779874Y-110497558D01*
X131779873Y-110497557D01*
X131779873Y-110497555D01*
X131701232Y-110343212D01*
X131599414Y-110203072D01*
X131476928Y-110080586D01*
X131336788Y-109978768D01*
X131336787Y-109978767D01*
X131336785Y-109978766D01*
X131182441Y-109900125D01*
X131182438Y-109900123D01*
X131017706Y-109846598D01*
X131017702Y-109846597D01*
X130846614Y-109819500D01*
X130846611Y-109819500D01*
X129373389Y-109819500D01*
X129373386Y-109819500D01*
X129202297Y-109846597D01*
X129202293Y-109846598D01*
X129037561Y-109900123D01*
X129037558Y-109900125D01*
X128883214Y-109978766D01*
X128743073Y-110080585D01*
X128620585Y-110203073D01*
X128518766Y-110343214D01*
X128440125Y-110497558D01*
X128440123Y-110497561D01*
X128386598Y-110662293D01*
X128386597Y-110662297D01*
X128359500Y-110833385D01*
X123176583Y-110833385D01*
X123213000Y-110697475D01*
X123213000Y-110552525D01*
X123175484Y-110412515D01*
X123175482Y-110412512D01*
X123175482Y-110412510D01*
X123103012Y-110286989D01*
X123103010Y-110286987D01*
X123103009Y-110286985D01*
X123000515Y-110184491D01*
X123000512Y-110184489D01*
X123000510Y-110184487D01*
X122874988Y-110112017D01*
X122874989Y-110112017D01*
X122845396Y-110104087D01*
X122734975Y-110074500D01*
X122590025Y-110074500D01*
X122528290Y-110091041D01*
X122450010Y-110112017D01*
X122324489Y-110184487D01*
X122221987Y-110286989D01*
X122149517Y-110412510D01*
X122112000Y-110552525D01*
X114532711Y-110552525D01*
X114630201Y-110455035D01*
X114694761Y-110343214D01*
X114702674Y-110329509D01*
X114702674Y-110329507D01*
X114702676Y-110329505D01*
X114740192Y-110189495D01*
X114740192Y-110044545D01*
X114702676Y-109904535D01*
X114702674Y-109904532D01*
X114702674Y-109904530D01*
X114630204Y-109779009D01*
X114630202Y-109779007D01*
X114630201Y-109779005D01*
X114553721Y-109702525D01*
X125449500Y-109702525D01*
X125449500Y-109847474D01*
X125487017Y-109987489D01*
X125559487Y-110113010D01*
X125559489Y-110113012D01*
X125559491Y-110113015D01*
X125661985Y-110215509D01*
X125661987Y-110215510D01*
X125661989Y-110215512D01*
X125787511Y-110287982D01*
X125787512Y-110287982D01*
X125787515Y-110287984D01*
X125927525Y-110325500D01*
X125927526Y-110325500D01*
X126072474Y-110325500D01*
X126072475Y-110325500D01*
X126212485Y-110287984D01*
X126212487Y-110287982D01*
X126212489Y-110287982D01*
X126338010Y-110215512D01*
X126338010Y-110215511D01*
X126338015Y-110215509D01*
X126440509Y-110113015D01*
X126462746Y-110074500D01*
X126512982Y-109987489D01*
X126512982Y-109987487D01*
X126512984Y-109987485D01*
X126550500Y-109847475D01*
X126550500Y-109702525D01*
X126512984Y-109562515D01*
X126512982Y-109562512D01*
X126512982Y-109562510D01*
X126440512Y-109436989D01*
X126440510Y-109436987D01*
X126440509Y-109436985D01*
X126338015Y-109334491D01*
X126338012Y-109334489D01*
X126338010Y-109334487D01*
X126212488Y-109262017D01*
X126212489Y-109262017D01*
X126182896Y-109254087D01*
X126072475Y-109224500D01*
X125927525Y-109224500D01*
X125865790Y-109241041D01*
X125787510Y-109262017D01*
X125661989Y-109334487D01*
X125559487Y-109436989D01*
X125487017Y-109562510D01*
X125449500Y-109702525D01*
X114553721Y-109702525D01*
X114527707Y-109676511D01*
X114527704Y-109676509D01*
X114527702Y-109676507D01*
X114402180Y-109604037D01*
X114402181Y-109604037D01*
X114372588Y-109596107D01*
X114262167Y-109566520D01*
X114117217Y-109566520D01*
X114055482Y-109583061D01*
X113977202Y-109604037D01*
X113851681Y-109676507D01*
X113749179Y-109779009D01*
X113676709Y-109904530D01*
X113656817Y-109978768D01*
X113639192Y-110044545D01*
X100300500Y-110044545D01*
X100300500Y-108377525D01*
X101899500Y-108377525D01*
X101899500Y-108522475D01*
X101910363Y-108563015D01*
X101937017Y-108662489D01*
X102009487Y-108788010D01*
X102009489Y-108788012D01*
X102009491Y-108788015D01*
X102111985Y-108890509D01*
X102111987Y-108890510D01*
X102111989Y-108890512D01*
X102237511Y-108962982D01*
X102237512Y-108962982D01*
X102237515Y-108962984D01*
X102377525Y-109000500D01*
X102377526Y-109000500D01*
X102522474Y-109000500D01*
X102522475Y-109000500D01*
X102662485Y-108962984D01*
X102662487Y-108962982D01*
X102662489Y-108962982D01*
X102788010Y-108890512D01*
X102788010Y-108890511D01*
X102788015Y-108890509D01*
X102890509Y-108788015D01*
X102962984Y-108662485D01*
X102979050Y-108602527D01*
X102979051Y-108602525D01*
X111612000Y-108602525D01*
X111612000Y-108747475D01*
X111626728Y-108802441D01*
X111649517Y-108887489D01*
X111721987Y-109013010D01*
X111721989Y-109013012D01*
X111721991Y-109013015D01*
X111824485Y-109115509D01*
X111824487Y-109115510D01*
X111824489Y-109115512D01*
X111950011Y-109187982D01*
X111950012Y-109187982D01*
X111950015Y-109187984D01*
X112090025Y-109225500D01*
X112090026Y-109225500D01*
X112234974Y-109225500D01*
X112234975Y-109225500D01*
X112374985Y-109187984D01*
X112374987Y-109187982D01*
X112374989Y-109187982D01*
X112500510Y-109115512D01*
X112500510Y-109115511D01*
X112500515Y-109115509D01*
X112603009Y-109013015D01*
X112610235Y-109000500D01*
X112675482Y-108887489D01*
X112675482Y-108887487D01*
X112675484Y-108887485D01*
X112713000Y-108747475D01*
X112713000Y-108602525D01*
X112684067Y-108494545D01*
X113639192Y-108494545D01*
X113639192Y-108639495D01*
X113665582Y-108737982D01*
X113676709Y-108779509D01*
X113749179Y-108905030D01*
X113749181Y-108905032D01*
X113749183Y-108905035D01*
X113851677Y-109007529D01*
X113851679Y-109007530D01*
X113851681Y-109007532D01*
X113977203Y-109080002D01*
X113977204Y-109080002D01*
X113977207Y-109080004D01*
X114117217Y-109117520D01*
X114117218Y-109117520D01*
X114262166Y-109117520D01*
X114262167Y-109117520D01*
X114402177Y-109080004D01*
X114402179Y-109080002D01*
X114402181Y-109080002D01*
X114527702Y-109007532D01*
X114527702Y-109007531D01*
X114527707Y-109007529D01*
X114630201Y-108905035D01*
X114702676Y-108779505D01*
X114740192Y-108639495D01*
X114740192Y-108602525D01*
X122112000Y-108602525D01*
X122112000Y-108747475D01*
X122126728Y-108802441D01*
X122149517Y-108887489D01*
X122221987Y-109013010D01*
X122221989Y-109013012D01*
X122221991Y-109013015D01*
X122324485Y-109115509D01*
X122324487Y-109115510D01*
X122324489Y-109115512D01*
X122450011Y-109187982D01*
X122450012Y-109187982D01*
X122450015Y-109187984D01*
X122590025Y-109225500D01*
X122590026Y-109225500D01*
X122734974Y-109225500D01*
X122734975Y-109225500D01*
X122874985Y-109187984D01*
X122874987Y-109187982D01*
X122874989Y-109187982D01*
X123000510Y-109115512D01*
X123000510Y-109115511D01*
X123000515Y-109115509D01*
X123103009Y-109013015D01*
X123110235Y-109000500D01*
X123175482Y-108887489D01*
X123175482Y-108887487D01*
X123175484Y-108887485D01*
X123213000Y-108747475D01*
X123213000Y-108602525D01*
X123175484Y-108462515D01*
X123175482Y-108462512D01*
X123175482Y-108462510D01*
X123103012Y-108336989D01*
X123103010Y-108336987D01*
X123103009Y-108336985D01*
X123000515Y-108234491D01*
X123000508Y-108234487D01*
X122995806Y-108231772D01*
X122995804Y-108231770D01*
X122874988Y-108162017D01*
X122874989Y-108162017D01*
X122845396Y-108154087D01*
X122839566Y-108152525D01*
X125449500Y-108152525D01*
X125449500Y-108297474D01*
X125487017Y-108437489D01*
X125559487Y-108563010D01*
X125559489Y-108563012D01*
X125559491Y-108563015D01*
X125661985Y-108665509D01*
X125661987Y-108665510D01*
X125661989Y-108665512D01*
X125787511Y-108737982D01*
X125787512Y-108737982D01*
X125787515Y-108737984D01*
X125927525Y-108775500D01*
X125927526Y-108775500D01*
X126072474Y-108775500D01*
X126072475Y-108775500D01*
X126212485Y-108737984D01*
X126212487Y-108737982D01*
X126212489Y-108737982D01*
X126338010Y-108665512D01*
X126338010Y-108665511D01*
X126338015Y-108665509D01*
X126440509Y-108563015D01*
X126463915Y-108522475D01*
X126512982Y-108437489D01*
X126512982Y-108437487D01*
X126512984Y-108437485D01*
X126550500Y-108297475D01*
X126550500Y-108152525D01*
X126512984Y-108012515D01*
X126512982Y-108012512D01*
X126512982Y-108012510D01*
X126440512Y-107886989D01*
X126440510Y-107886987D01*
X126440509Y-107886985D01*
X126338015Y-107784491D01*
X126338012Y-107784489D01*
X126338010Y-107784487D01*
X126212488Y-107712017D01*
X126212489Y-107712017D01*
X126182896Y-107704087D01*
X126072475Y-107674500D01*
X125927525Y-107674500D01*
X125865790Y-107691041D01*
X125787510Y-107712017D01*
X125661989Y-107784487D01*
X125559487Y-107886989D01*
X125487017Y-108012510D01*
X125449500Y-108152525D01*
X122839566Y-108152525D01*
X122734975Y-108124500D01*
X122590025Y-108124500D01*
X122528290Y-108141041D01*
X122450010Y-108162017D01*
X122324489Y-108234487D01*
X122221987Y-108336989D01*
X122149517Y-108462510D01*
X122122588Y-108563010D01*
X122112000Y-108602525D01*
X114740192Y-108602525D01*
X114740192Y-108494545D01*
X114702676Y-108354535D01*
X114702674Y-108354532D01*
X114702674Y-108354530D01*
X114630204Y-108229009D01*
X114630202Y-108229007D01*
X114630201Y-108229005D01*
X114527707Y-108126511D01*
X114527704Y-108126509D01*
X114527702Y-108126507D01*
X114402180Y-108054037D01*
X114402181Y-108054037D01*
X114372588Y-108046107D01*
X114262167Y-108016520D01*
X114117217Y-108016520D01*
X114055482Y-108033061D01*
X113977202Y-108054037D01*
X113851681Y-108126507D01*
X113749179Y-108229009D01*
X113676709Y-108354530D01*
X113646677Y-108466611D01*
X113639192Y-108494545D01*
X112684067Y-108494545D01*
X112675484Y-108462515D01*
X112675482Y-108462512D01*
X112675482Y-108462510D01*
X112603012Y-108336989D01*
X112603010Y-108336987D01*
X112603009Y-108336985D01*
X112500515Y-108234491D01*
X112500512Y-108234489D01*
X112500510Y-108234487D01*
X112374988Y-108162017D01*
X112374989Y-108162017D01*
X112345396Y-108154087D01*
X112234975Y-108124500D01*
X112090025Y-108124500D01*
X112028290Y-108141041D01*
X111950010Y-108162017D01*
X111824489Y-108234487D01*
X111721987Y-108336989D01*
X111649517Y-108462510D01*
X111622588Y-108563010D01*
X111612000Y-108602525D01*
X102979051Y-108602525D01*
X102987655Y-108570415D01*
X102987655Y-108570413D01*
X103000500Y-108522474D01*
X103000500Y-108377525D01*
X102979050Y-108297474D01*
X102962984Y-108237515D01*
X102962982Y-108237512D01*
X102962982Y-108237510D01*
X102890512Y-108111989D01*
X102890510Y-108111987D01*
X102890509Y-108111985D01*
X102788015Y-108009491D01*
X102788012Y-108009489D01*
X102788010Y-108009487D01*
X102662488Y-107937017D01*
X102662489Y-107937017D01*
X102632896Y-107929087D01*
X102522475Y-107899500D01*
X102377525Y-107899500D01*
X102315790Y-107916041D01*
X102237510Y-107937017D01*
X102111989Y-108009487D01*
X102009487Y-108111989D01*
X101937017Y-108237510D01*
X101910363Y-108336985D01*
X101899500Y-108377525D01*
X100300500Y-108377525D01*
X100300500Y-107505327D01*
X128359500Y-107505327D01*
X128359500Y-109254672D01*
X128359501Y-109254684D01*
X128374033Y-109327736D01*
X128374035Y-109327742D01*
X128429397Y-109410599D01*
X128429399Y-109410601D01*
X128512260Y-109465966D01*
X128567808Y-109477015D01*
X128585315Y-109480498D01*
X128585320Y-109480498D01*
X128585326Y-109480500D01*
X128585327Y-109480500D01*
X131634673Y-109480500D01*
X131634674Y-109480500D01*
X131707740Y-109465966D01*
X131790601Y-109410601D01*
X131845966Y-109327740D01*
X131860500Y-109254674D01*
X131860500Y-108293385D01*
X146139500Y-108293385D01*
X146139500Y-108466614D01*
X146166597Y-108637702D01*
X146166598Y-108637706D01*
X146220123Y-108802438D01*
X146220125Y-108802441D01*
X146272398Y-108905035D01*
X146298768Y-108956788D01*
X146400586Y-109096928D01*
X146523072Y-109219414D01*
X146663212Y-109321232D01*
X146817555Y-109399873D01*
X146817557Y-109399873D01*
X146817558Y-109399874D01*
X146817561Y-109399876D01*
X146982293Y-109453401D01*
X146982297Y-109453402D01*
X147153386Y-109480500D01*
X147153389Y-109480500D01*
X148626614Y-109480500D01*
X148797702Y-109453402D01*
X148797706Y-109453401D01*
X148962438Y-109399876D01*
X148962440Y-109399874D01*
X148962445Y-109399873D01*
X149116788Y-109321232D01*
X149256928Y-109219414D01*
X149379414Y-109096928D01*
X149481232Y-108956788D01*
X149559873Y-108802445D01*
X149559874Y-108802440D01*
X149559876Y-108802438D01*
X149613401Y-108637706D01*
X149613402Y-108637702D01*
X149640500Y-108466614D01*
X149640500Y-108293385D01*
X149613402Y-108122297D01*
X149613401Y-108122293D01*
X149559876Y-107957561D01*
X149559874Y-107957558D01*
X149559873Y-107957557D01*
X149559873Y-107957555D01*
X149481232Y-107803212D01*
X149379414Y-107663072D01*
X149256928Y-107540586D01*
X149116788Y-107438768D01*
X149116787Y-107438767D01*
X149116785Y-107438766D01*
X148962441Y-107360125D01*
X148962438Y-107360123D01*
X148797706Y-107306598D01*
X148797702Y-107306597D01*
X148626614Y-107279500D01*
X148626611Y-107279500D01*
X147153389Y-107279500D01*
X147153386Y-107279500D01*
X146982297Y-107306597D01*
X146982293Y-107306598D01*
X146817561Y-107360123D01*
X146817558Y-107360125D01*
X146663214Y-107438766D01*
X146523073Y-107540585D01*
X146400585Y-107663073D01*
X146298766Y-107803214D01*
X146220125Y-107957558D01*
X146220123Y-107957561D01*
X146166598Y-108122293D01*
X146166597Y-108122297D01*
X146139500Y-108293385D01*
X131860500Y-108293385D01*
X131860500Y-107505326D01*
X131845966Y-107432260D01*
X131797768Y-107360125D01*
X131790602Y-107349400D01*
X131790599Y-107349397D01*
X131707742Y-107294035D01*
X131707740Y-107294034D01*
X131707737Y-107294033D01*
X131707736Y-107294033D01*
X131634684Y-107279501D01*
X131634674Y-107279500D01*
X128585326Y-107279500D01*
X128585325Y-107279500D01*
X128585315Y-107279501D01*
X128512263Y-107294033D01*
X128512257Y-107294035D01*
X128429400Y-107349397D01*
X128429397Y-107349400D01*
X128374035Y-107432257D01*
X128374033Y-107432263D01*
X128359501Y-107505315D01*
X128359500Y-107505327D01*
X100300500Y-107505327D01*
X100300500Y-106310504D01*
X111251692Y-106310504D01*
X111251692Y-106455453D01*
X111289209Y-106595468D01*
X111361679Y-106720989D01*
X111361681Y-106720991D01*
X111361683Y-106720994D01*
X111464177Y-106823488D01*
X111464179Y-106823489D01*
X111464181Y-106823491D01*
X111589703Y-106895961D01*
X111589704Y-106895961D01*
X111589707Y-106895963D01*
X111729717Y-106933479D01*
X111729718Y-106933479D01*
X111874666Y-106933479D01*
X111874667Y-106933479D01*
X112014677Y-106895963D01*
X112014679Y-106895961D01*
X112014681Y-106895961D01*
X112140202Y-106823491D01*
X112140202Y-106823490D01*
X112140207Y-106823488D01*
X112242701Y-106720994D01*
X112315176Y-106595464D01*
X112352692Y-106455454D01*
X112352692Y-106310504D01*
X121751692Y-106310504D01*
X121751692Y-106455453D01*
X121789209Y-106595468D01*
X121861679Y-106720989D01*
X121861681Y-106720991D01*
X121861683Y-106720994D01*
X121964177Y-106823488D01*
X121964179Y-106823489D01*
X121964181Y-106823491D01*
X122089703Y-106895961D01*
X122089704Y-106895961D01*
X122089707Y-106895963D01*
X122229717Y-106933479D01*
X122229718Y-106933479D01*
X122374666Y-106933479D01*
X122374667Y-106933479D01*
X122514677Y-106895963D01*
X122514679Y-106895961D01*
X122514681Y-106895961D01*
X122640202Y-106823491D01*
X122640202Y-106823490D01*
X122640207Y-106823488D01*
X122742701Y-106720994D01*
X122815176Y-106595464D01*
X122852692Y-106455454D01*
X122852692Y-106310504D01*
X122815176Y-106170494D01*
X122815174Y-106170491D01*
X122815174Y-106170489D01*
X122742704Y-106044968D01*
X122742702Y-106044966D01*
X122742701Y-106044964D01*
X122640207Y-105942470D01*
X122640204Y-105942468D01*
X122640202Y-105942466D01*
X122514680Y-105869996D01*
X122514681Y-105869996D01*
X122485088Y-105862066D01*
X122374667Y-105832479D01*
X122229717Y-105832479D01*
X122167982Y-105849020D01*
X122089702Y-105869996D01*
X121964181Y-105942466D01*
X121861679Y-106044968D01*
X121789209Y-106170489D01*
X121751692Y-106310504D01*
X112352692Y-106310504D01*
X112315176Y-106170494D01*
X112315174Y-106170491D01*
X112315174Y-106170489D01*
X112242704Y-106044968D01*
X112242702Y-106044966D01*
X112242701Y-106044964D01*
X112140207Y-105942470D01*
X112140204Y-105942468D01*
X112140202Y-105942466D01*
X112014680Y-105869996D01*
X112014681Y-105869996D01*
X111985088Y-105862066D01*
X111874667Y-105832479D01*
X111729717Y-105832479D01*
X111667982Y-105849020D01*
X111589702Y-105869996D01*
X111464181Y-105942466D01*
X111361679Y-106044968D01*
X111289209Y-106170489D01*
X111251692Y-106310504D01*
X100300500Y-106310504D01*
X100300500Y-103002773D01*
X100300656Y-102997222D01*
X100310214Y-102827028D01*
X100317162Y-102703296D01*
X100318405Y-102692270D01*
X100323466Y-102662485D01*
X100367253Y-102404771D01*
X100369715Y-102393981D01*
X100369793Y-102393709D01*
X101149500Y-102393709D01*
X101149500Y-102606290D01*
X101182752Y-102816238D01*
X101248443Y-103018412D01*
X101344948Y-103207815D01*
X101344950Y-103207819D01*
X101469891Y-103379786D01*
X101469893Y-103379788D01*
X101469896Y-103379792D01*
X101620208Y-103530104D01*
X101620211Y-103530106D01*
X101620213Y-103530108D01*
X101792180Y-103655049D01*
X101792184Y-103655051D01*
X101981588Y-103751557D01*
X102183757Y-103817246D01*
X102183758Y-103817246D01*
X102183761Y-103817247D01*
X102393710Y-103850500D01*
X102393713Y-103850500D01*
X102606290Y-103850500D01*
X102816238Y-103817247D01*
X102816239Y-103817246D01*
X102816243Y-103817246D01*
X103018412Y-103751557D01*
X103207816Y-103655051D01*
X103379792Y-103530104D01*
X103530104Y-103379792D01*
X103655051Y-103207816D01*
X103751557Y-103018412D01*
X103817246Y-102816243D01*
X103821718Y-102788010D01*
X103850500Y-102606290D01*
X103850500Y-102393712D01*
X103849361Y-102386520D01*
X103849361Y-102386518D01*
X103847937Y-102377525D01*
X107899500Y-102377525D01*
X107899500Y-102522474D01*
X107937017Y-102662489D01*
X108009487Y-102788010D01*
X108009489Y-102788012D01*
X108009491Y-102788015D01*
X108111985Y-102890509D01*
X108111987Y-102890510D01*
X108111989Y-102890512D01*
X108237511Y-102962982D01*
X108237512Y-102962982D01*
X108237515Y-102962984D01*
X108377525Y-103000500D01*
X108377526Y-103000500D01*
X108522474Y-103000500D01*
X108522475Y-103000500D01*
X108662485Y-102962984D01*
X108662487Y-102962982D01*
X108662489Y-102962982D01*
X108788010Y-102890512D01*
X108788010Y-102890511D01*
X108788015Y-102890509D01*
X108890509Y-102788015D01*
X108962984Y-102662485D01*
X109000500Y-102522475D01*
X109000500Y-102377525D01*
X113899500Y-102377525D01*
X113899500Y-102522474D01*
X113937017Y-102662489D01*
X114009487Y-102788010D01*
X114009489Y-102788012D01*
X114009491Y-102788015D01*
X114111985Y-102890509D01*
X114111987Y-102890510D01*
X114111989Y-102890512D01*
X114237511Y-102962982D01*
X114237512Y-102962982D01*
X114237515Y-102962984D01*
X114377525Y-103000500D01*
X114377526Y-103000500D01*
X114522474Y-103000500D01*
X114522475Y-103000500D01*
X114662485Y-102962984D01*
X114662487Y-102962982D01*
X114662489Y-102962982D01*
X114788010Y-102890512D01*
X114788010Y-102890511D01*
X114788015Y-102890509D01*
X114890509Y-102788015D01*
X114962984Y-102662485D01*
X115000500Y-102522475D01*
X115000500Y-102377525D01*
X119899500Y-102377525D01*
X119899500Y-102522474D01*
X119937017Y-102662489D01*
X120009487Y-102788010D01*
X120009489Y-102788012D01*
X120009491Y-102788015D01*
X120111985Y-102890509D01*
X120111987Y-102890510D01*
X120111989Y-102890512D01*
X120237511Y-102962982D01*
X120237512Y-102962982D01*
X120237515Y-102962984D01*
X120377525Y-103000500D01*
X120377526Y-103000500D01*
X120522474Y-103000500D01*
X120522475Y-103000500D01*
X120662485Y-102962984D01*
X120662487Y-102962982D01*
X120662489Y-102962982D01*
X120788010Y-102890512D01*
X120788010Y-102890511D01*
X120788015Y-102890509D01*
X120890509Y-102788015D01*
X120962984Y-102662485D01*
X121000500Y-102522475D01*
X121000500Y-102377525D01*
X125899500Y-102377525D01*
X125899500Y-102522474D01*
X125937017Y-102662489D01*
X126009487Y-102788010D01*
X126009489Y-102788012D01*
X126009491Y-102788015D01*
X126111985Y-102890509D01*
X126111987Y-102890510D01*
X126111989Y-102890512D01*
X126237511Y-102962982D01*
X126237512Y-102962982D01*
X126237515Y-102962984D01*
X126377525Y-103000500D01*
X126377526Y-103000500D01*
X126522474Y-103000500D01*
X126522475Y-103000500D01*
X126662485Y-102962984D01*
X126662487Y-102962982D01*
X126662489Y-102962982D01*
X126788010Y-102890512D01*
X126788010Y-102890511D01*
X126788015Y-102890509D01*
X126890509Y-102788015D01*
X126962984Y-102662485D01*
X127000500Y-102522475D01*
X127000500Y-102377525D01*
X131899499Y-102377525D01*
X131899499Y-102522474D01*
X131937016Y-102662489D01*
X132009486Y-102788010D01*
X132009488Y-102788012D01*
X132009490Y-102788015D01*
X132111984Y-102890509D01*
X132111986Y-102890510D01*
X132111988Y-102890512D01*
X132237510Y-102962982D01*
X132237511Y-102962982D01*
X132237514Y-102962984D01*
X132377524Y-103000500D01*
X132377525Y-103000500D01*
X132522473Y-103000500D01*
X132522474Y-103000500D01*
X132662484Y-102962984D01*
X132662486Y-102962982D01*
X132662488Y-102962982D01*
X132788009Y-102890512D01*
X132788009Y-102890511D01*
X132788014Y-102890509D01*
X132890508Y-102788015D01*
X132962983Y-102662485D01*
X133000499Y-102522475D01*
X133000499Y-102377525D01*
X137899500Y-102377525D01*
X137899500Y-102522474D01*
X137937017Y-102662489D01*
X138009487Y-102788010D01*
X138009489Y-102788012D01*
X138009491Y-102788015D01*
X138111985Y-102890509D01*
X138111987Y-102890510D01*
X138111989Y-102890512D01*
X138237511Y-102962982D01*
X138237512Y-102962982D01*
X138237515Y-102962984D01*
X138377525Y-103000500D01*
X138377526Y-103000500D01*
X138522474Y-103000500D01*
X138522475Y-103000500D01*
X138662485Y-102962984D01*
X138662487Y-102962982D01*
X138662489Y-102962982D01*
X138788010Y-102890512D01*
X138788010Y-102890511D01*
X138788015Y-102890509D01*
X138890509Y-102788015D01*
X138962984Y-102662485D01*
X139000500Y-102522475D01*
X139000500Y-102377525D01*
X143899500Y-102377525D01*
X143899500Y-102522474D01*
X143937017Y-102662489D01*
X144009487Y-102788010D01*
X144009489Y-102788012D01*
X144009491Y-102788015D01*
X144111985Y-102890509D01*
X144111987Y-102890510D01*
X144111989Y-102890512D01*
X144237511Y-102962982D01*
X144237512Y-102962982D01*
X144237515Y-102962984D01*
X144377525Y-103000500D01*
X144377526Y-103000500D01*
X144522474Y-103000500D01*
X144522475Y-103000500D01*
X144662485Y-102962984D01*
X144662487Y-102962982D01*
X144662489Y-102962982D01*
X144788010Y-102890512D01*
X144788010Y-102890511D01*
X144788015Y-102890509D01*
X144890509Y-102788015D01*
X144962984Y-102662485D01*
X145000500Y-102522475D01*
X145000500Y-102393709D01*
X148149500Y-102393709D01*
X148149500Y-102606290D01*
X148182752Y-102816238D01*
X148248443Y-103018412D01*
X148344948Y-103207815D01*
X148344950Y-103207819D01*
X148469891Y-103379786D01*
X148469893Y-103379788D01*
X148469896Y-103379792D01*
X148620208Y-103530104D01*
X148620211Y-103530106D01*
X148620213Y-103530108D01*
X148792180Y-103655049D01*
X148792184Y-103655051D01*
X148981588Y-103751557D01*
X149183757Y-103817246D01*
X149183758Y-103817246D01*
X149183761Y-103817247D01*
X149393710Y-103850500D01*
X149393713Y-103850500D01*
X149606290Y-103850500D01*
X149816238Y-103817247D01*
X149816239Y-103817246D01*
X149816243Y-103817246D01*
X150018412Y-103751557D01*
X150207816Y-103655051D01*
X150379792Y-103530104D01*
X150530104Y-103379792D01*
X150655051Y-103207816D01*
X150751557Y-103018412D01*
X150817246Y-102816243D01*
X150821718Y-102788010D01*
X150850500Y-102606290D01*
X150850500Y-102393709D01*
X150817247Y-102183761D01*
X150817246Y-102183757D01*
X150751557Y-101981588D01*
X150655051Y-101792184D01*
X150655049Y-101792180D01*
X150530108Y-101620213D01*
X150530106Y-101620211D01*
X150530104Y-101620208D01*
X150379792Y-101469896D01*
X150379788Y-101469893D01*
X150379786Y-101469891D01*
X150207819Y-101344950D01*
X150207815Y-101344948D01*
X150018412Y-101248443D01*
X149816238Y-101182752D01*
X149606290Y-101149500D01*
X149606287Y-101149500D01*
X149393713Y-101149500D01*
X149393710Y-101149500D01*
X149183761Y-101182752D01*
X148981587Y-101248443D01*
X148792184Y-101344948D01*
X148792180Y-101344950D01*
X148620213Y-101469891D01*
X148469891Y-101620213D01*
X148344950Y-101792180D01*
X148344948Y-101792184D01*
X148248443Y-101981587D01*
X148182752Y-102183761D01*
X148149500Y-102393709D01*
X145000500Y-102393709D01*
X145000500Y-102377525D01*
X144962984Y-102237515D01*
X144962982Y-102237512D01*
X144962982Y-102237510D01*
X144890512Y-102111989D01*
X144890510Y-102111987D01*
X144890509Y-102111985D01*
X144788015Y-102009491D01*
X144788012Y-102009489D01*
X144788010Y-102009487D01*
X144662488Y-101937017D01*
X144662489Y-101937017D01*
X144632896Y-101929087D01*
X144522475Y-101899500D01*
X144377525Y-101899500D01*
X144315790Y-101916041D01*
X144237510Y-101937017D01*
X144111989Y-102009487D01*
X144009487Y-102111989D01*
X143937017Y-102237510D01*
X143899500Y-102377525D01*
X139000500Y-102377525D01*
X138962984Y-102237515D01*
X138962982Y-102237512D01*
X138962982Y-102237510D01*
X138890512Y-102111989D01*
X138890510Y-102111987D01*
X138890509Y-102111985D01*
X138788015Y-102009491D01*
X138788012Y-102009489D01*
X138788010Y-102009487D01*
X138662488Y-101937017D01*
X138662489Y-101937017D01*
X138632896Y-101929087D01*
X138522475Y-101899500D01*
X138377525Y-101899500D01*
X138315790Y-101916041D01*
X138237510Y-101937017D01*
X138111989Y-102009487D01*
X138009487Y-102111989D01*
X137937017Y-102237510D01*
X137899500Y-102377525D01*
X133000499Y-102377525D01*
X132962983Y-102237515D01*
X132962981Y-102237512D01*
X132962981Y-102237510D01*
X132890511Y-102111989D01*
X132890509Y-102111987D01*
X132890508Y-102111985D01*
X132788014Y-102009491D01*
X132788011Y-102009489D01*
X132788009Y-102009487D01*
X132662487Y-101937017D01*
X132662488Y-101937017D01*
X132632895Y-101929087D01*
X132522474Y-101899500D01*
X132377524Y-101899500D01*
X132315789Y-101916041D01*
X132237509Y-101937017D01*
X132111988Y-102009487D01*
X132009486Y-102111989D01*
X131937016Y-102237510D01*
X131899499Y-102377525D01*
X127000500Y-102377525D01*
X126962984Y-102237515D01*
X126962982Y-102237512D01*
X126962982Y-102237510D01*
X126890512Y-102111989D01*
X126890510Y-102111987D01*
X126890509Y-102111985D01*
X126788015Y-102009491D01*
X126788012Y-102009489D01*
X126788010Y-102009487D01*
X126662488Y-101937017D01*
X126662489Y-101937017D01*
X126632896Y-101929087D01*
X126522475Y-101899500D01*
X126377525Y-101899500D01*
X126315790Y-101916041D01*
X126237510Y-101937017D01*
X126111989Y-102009487D01*
X126009487Y-102111989D01*
X125937017Y-102237510D01*
X125899500Y-102377525D01*
X121000500Y-102377525D01*
X120962984Y-102237515D01*
X120962982Y-102237512D01*
X120962982Y-102237510D01*
X120890512Y-102111989D01*
X120890510Y-102111987D01*
X120890509Y-102111985D01*
X120788015Y-102009491D01*
X120788012Y-102009489D01*
X120788010Y-102009487D01*
X120662488Y-101937017D01*
X120662489Y-101937017D01*
X120632896Y-101929087D01*
X120522475Y-101899500D01*
X120377525Y-101899500D01*
X120315790Y-101916041D01*
X120237510Y-101937017D01*
X120111989Y-102009487D01*
X120009487Y-102111989D01*
X119937017Y-102237510D01*
X119899500Y-102377525D01*
X115000500Y-102377525D01*
X114962984Y-102237515D01*
X114962982Y-102237512D01*
X114962982Y-102237510D01*
X114890512Y-102111989D01*
X114890510Y-102111987D01*
X114890509Y-102111985D01*
X114788015Y-102009491D01*
X114788012Y-102009489D01*
X114788010Y-102009487D01*
X114662488Y-101937017D01*
X114662489Y-101937017D01*
X114632896Y-101929087D01*
X114522475Y-101899500D01*
X114377525Y-101899500D01*
X114315790Y-101916041D01*
X114237510Y-101937017D01*
X114111989Y-102009487D01*
X114009487Y-102111989D01*
X113937017Y-102237510D01*
X113899500Y-102377525D01*
X109000500Y-102377525D01*
X108962984Y-102237515D01*
X108962982Y-102237512D01*
X108962982Y-102237510D01*
X108890512Y-102111989D01*
X108890510Y-102111987D01*
X108890509Y-102111985D01*
X108788015Y-102009491D01*
X108788012Y-102009489D01*
X108788010Y-102009487D01*
X108662488Y-101937017D01*
X108662489Y-101937017D01*
X108632896Y-101929087D01*
X108522475Y-101899500D01*
X108377525Y-101899500D01*
X108315790Y-101916041D01*
X108237510Y-101937017D01*
X108111989Y-102009487D01*
X108009487Y-102111989D01*
X107937017Y-102237510D01*
X107899500Y-102377525D01*
X103847937Y-102377525D01*
X103817247Y-102183761D01*
X103817246Y-102183757D01*
X103751557Y-101981588D01*
X103655051Y-101792184D01*
X103655049Y-101792180D01*
X103530108Y-101620213D01*
X103530106Y-101620211D01*
X103530104Y-101620208D01*
X103379792Y-101469896D01*
X103379788Y-101469893D01*
X103379786Y-101469891D01*
X103207819Y-101344950D01*
X103207815Y-101344948D01*
X103018412Y-101248443D01*
X102816238Y-101182752D01*
X102606290Y-101149500D01*
X102606287Y-101149500D01*
X102393713Y-101149500D01*
X102393710Y-101149500D01*
X102183761Y-101182752D01*
X101981587Y-101248443D01*
X101792184Y-101344948D01*
X101792180Y-101344950D01*
X101620213Y-101469891D01*
X101469891Y-101620213D01*
X101344950Y-101792180D01*
X101344948Y-101792184D01*
X101248443Y-101981587D01*
X101182752Y-102183761D01*
X101149500Y-102393709D01*
X100369793Y-102393709D01*
X100450451Y-102113742D01*
X100454111Y-102103283D01*
X100565711Y-101833858D01*
X100570525Y-101823863D01*
X100575101Y-101815584D01*
X100711583Y-101568637D01*
X100717475Y-101559258D01*
X100886246Y-101321399D01*
X100893131Y-101312765D01*
X101087476Y-101095294D01*
X101095294Y-101087476D01*
X101312765Y-100893131D01*
X101321399Y-100886246D01*
X101559258Y-100717475D01*
X101568637Y-100711583D01*
X101823869Y-100570521D01*
X101833858Y-100565711D01*
X102103283Y-100454111D01*
X102113742Y-100450451D01*
X102393985Y-100369714D01*
X102404771Y-100367253D01*
X102692277Y-100318404D01*
X102703296Y-100317162D01*
X102997222Y-100300655D01*
X103002773Y-100300500D01*
X103047595Y-100300500D01*
X148952405Y-100300500D01*
X148997227Y-100300500D01*
X149002777Y-100300655D01*
G37*
%TD.AperFunction*%
%TD*%
M02*
