%TF.GenerationSoftware,KiCad,Pcbnew,10.0.5*%
%TF.CreationDate,2026-08-06T13:52:56-04:00*%
%TF.ProjectId,Flexitac 2.0,466c6578-6974-4616-9320-322e302e6b69,rev?*%
%TF.SameCoordinates,Original*%
%TF.FileFunction,Copper,L2,Inr*%
%TF.FilePolarity,Positive*%
%FSLAX46Y46*%
G04 Gerber Fmt 4.6, Leading zero omitted, Abs format (unit mm)*
G04 Created by KiCad (PCBNEW 10.0.5) date 2026-08-06 13:52:56*
%MOMM*%
%LPD*%
G01*
G04 APERTURE LIST*
%TA.AperFunction,ComponentPad*%
%ADD10R,3.000000X1.700000*%
%TD*%
%TA.AperFunction,ComponentPad*%
%ADD11O,3.000000X1.700000*%
%TD*%
%TA.AperFunction,ViaPad*%
%ADD12C,0.600000*%
%TD*%
G04 APERTURE END LIST*
D10*
%TO.N,ADC_A*%
%TO.C,A1*%
X130110000Y-108380000D03*
D11*
%TO.N,ADC_B*%
X130110000Y-110920000D03*
%TO.N,unconnected-(A1-D2{slash}A2{slash}GPIO28-Pad3)*%
X130110000Y-113460000D03*
%TO.N,MUX_S1*%
X130110000Y-116000000D03*
%TO.N,MUX_S2*%
X130110000Y-118540000D03*
%TO.N,MUX_S3*%
X130110000Y-121080000D03*
%TO.N,unconnected-(A1-D6{slash}GPIO0-Pad7)*%
X130110000Y-123620000D03*
%TO.N,ROW_LATCH_MCU*%
X147890000Y-123620000D03*
%TO.N,ROW_CLK_MCU*%
X147890000Y-121080000D03*
%TO.N,MUX_S0*%
X147890000Y-118540000D03*
%TO.N,ROW_DATA*%
X147890000Y-116000000D03*
%TO.N,+3.3V*%
X147890000Y-113460000D03*
%TO.N,GND*%
X147890000Y-110920000D03*
%TO.N,+5V*%
X147890000Y-108380000D03*
%TD*%
D12*
%TO.N,GND*%
X104197807Y-111617020D03*
X148150000Y-144400000D03*
X127939692Y-119882979D03*
X115560307Y-134417020D03*
X114697807Y-119617020D03*
X114775000Y-122000000D03*
X138150000Y-144400000D03*
X121325000Y-124000000D03*
X108450000Y-102450000D03*
X110947807Y-125317020D03*
X102450000Y-114450000D03*
X112162500Y-116675000D03*
X103775000Y-124000000D03*
X126000000Y-108225000D03*
X144450000Y-102450000D03*
X102450000Y-108450000D03*
X120450000Y-102450000D03*
X114450000Y-102450000D03*
X140150000Y-144400000D03*
X102450000Y-138450000D03*
X138450000Y-102450000D03*
X104197807Y-119617020D03*
X115637500Y-112275000D03*
X103850000Y-144400000D03*
X115150000Y-144400000D03*
X126000000Y-116225000D03*
X126000000Y-112225000D03*
X114189692Y-116567020D03*
X112162500Y-108675000D03*
X128850000Y-144400000D03*
X123150000Y-144400000D03*
X132449999Y-102450000D03*
X102450000Y-120450000D03*
X127275000Y-131000000D03*
X108825000Y-123000000D03*
X111439692Y-126582979D03*
X126450000Y-102450000D03*
X122662500Y-108675000D03*
X101900000Y-128225000D03*
X114189692Y-108567020D03*
X122662500Y-116675000D03*
X125100000Y-132775000D03*
X113150000Y-144400000D03*
%TO.N,ROW_VCC*%
X114189692Y-118117020D03*
X126000000Y-117775000D03*
X114250000Y-112175000D03*
X111802192Y-106382979D03*
X122302192Y-106382979D03*
X122302192Y-114382979D03*
X112162500Y-110625000D03*
X122662500Y-118625000D03*
X111802192Y-114382979D03*
X112162500Y-118625000D03*
X126000000Y-109775000D03*
X114189692Y-110117020D03*
X122662500Y-110625000D03*
%TO.N,+3.3V*%
X127766044Y-122417787D03*
X126000000Y-113775000D03*
X102225000Y-124000000D03*
X102560307Y-134417020D03*
X124439692Y-126582979D03*
X114250000Y-113825000D03*
X125725000Y-131000000D03*
X113225000Y-122000000D03*
X117052192Y-122682979D03*
%TO.N,ADC_A*%
X110947807Y-123332979D03*
X110947807Y-122682979D03*
%TO.N,ADC_B*%
X114512500Y-123675000D03*
X114512500Y-124325000D03*
%TO.N,SENSE_A*%
X110287500Y-124325000D03*
X106175000Y-124000000D03*
X111439692Y-134417020D03*
%TO.N,SENSE_B*%
X115560307Y-126582979D03*
X117052192Y-125317020D03*
X119675000Y-124000000D03*
%TD*%
%TA.AperFunction,Conductor*%
%TO.N,GND*%
G36*
X149002777Y-100300655D02*
G01*
X149296701Y-100317162D01*
X149307724Y-100318404D01*
X149595224Y-100367252D01*
X149606018Y-100369715D01*
X149886251Y-100450449D01*
X149896722Y-100454113D01*
X150166134Y-100565708D01*
X150176136Y-100570525D01*
X150431353Y-100711578D01*
X150440748Y-100717481D01*
X150678591Y-100886239D01*
X150687242Y-100893139D01*
X150904696Y-101087468D01*
X150912531Y-101095303D01*
X151106859Y-101312755D01*
X151113761Y-101321411D01*
X151130464Y-101344950D01*
X151282515Y-101559246D01*
X151288421Y-101568646D01*
X151429474Y-101823863D01*
X151434291Y-101833865D01*
X151545884Y-102103273D01*
X151549551Y-102113752D01*
X151610204Y-102324283D01*
X151621190Y-102362416D01*
X151630280Y-102393966D01*
X151632750Y-102404790D01*
X151681594Y-102692270D01*
X151682837Y-102703302D01*
X151699344Y-102997222D01*
X151699500Y-103002773D01*
X151699500Y-142997226D01*
X151699344Y-143002777D01*
X151682837Y-143296697D01*
X151681594Y-143307729D01*
X151632750Y-143595209D01*
X151630280Y-143606033D01*
X151549551Y-143886247D01*
X151545884Y-143896726D01*
X151434291Y-144166134D01*
X151429474Y-144176136D01*
X151288421Y-144431353D01*
X151282515Y-144440753D01*
X151113769Y-144678579D01*
X151106851Y-144687252D01*
X150958628Y-144853114D01*
X150912538Y-144904689D01*
X150904689Y-144912538D01*
X150687252Y-145106851D01*
X150678579Y-145113769D01*
X150440753Y-145282515D01*
X150431353Y-145288421D01*
X150176136Y-145429474D01*
X150166134Y-145434291D01*
X149896726Y-145545884D01*
X149886247Y-145549551D01*
X149606033Y-145630280D01*
X149595209Y-145632750D01*
X149307729Y-145681594D01*
X149296697Y-145682837D01*
X149002778Y-145699344D01*
X148997227Y-145699500D01*
X103002773Y-145699500D01*
X102997222Y-145699344D01*
X102703302Y-145682837D01*
X102692270Y-145681594D01*
X102404790Y-145632750D01*
X102393966Y-145630280D01*
X102113752Y-145549551D01*
X102103273Y-145545884D01*
X101833865Y-145434291D01*
X101823863Y-145429474D01*
X101568646Y-145288421D01*
X101559246Y-145282515D01*
X101321411Y-145113761D01*
X101312755Y-145106859D01*
X101095303Y-144912531D01*
X101087468Y-144904696D01*
X100893139Y-144687242D01*
X100886239Y-144678591D01*
X100717481Y-144440748D01*
X100711578Y-144431353D01*
X100570525Y-144176136D01*
X100565708Y-144166134D01*
X100454115Y-143896726D01*
X100450448Y-143886247D01*
X100369715Y-143606018D01*
X100367252Y-143595224D01*
X100318404Y-143307724D01*
X100317162Y-143296697D01*
X100300656Y-143002777D01*
X100300500Y-142997226D01*
X100300500Y-134344545D01*
X102009807Y-134344545D01*
X102009807Y-134489494D01*
X102047324Y-134629509D01*
X102119794Y-134755030D01*
X102119796Y-134755032D01*
X102119798Y-134755035D01*
X102222292Y-134857529D01*
X102222294Y-134857530D01*
X102222296Y-134857532D01*
X102347818Y-134930002D01*
X102347819Y-134930002D01*
X102347822Y-134930004D01*
X102487832Y-134967520D01*
X102487833Y-134967520D01*
X102632781Y-134967520D01*
X102632782Y-134967520D01*
X102772792Y-134930004D01*
X102772794Y-134930002D01*
X102772796Y-134930002D01*
X102898317Y-134857532D01*
X102898317Y-134857531D01*
X102898322Y-134857529D01*
X103000816Y-134755035D01*
X103073291Y-134629505D01*
X103110807Y-134489495D01*
X103110807Y-134344545D01*
X110889192Y-134344545D01*
X110889192Y-134489494D01*
X110926709Y-134629509D01*
X110999179Y-134755030D01*
X110999181Y-134755032D01*
X110999183Y-134755035D01*
X111101677Y-134857529D01*
X111101679Y-134857530D01*
X111101681Y-134857532D01*
X111227203Y-134930002D01*
X111227204Y-134930002D01*
X111227207Y-134930004D01*
X111367217Y-134967520D01*
X111367218Y-134967520D01*
X111512166Y-134967520D01*
X111512167Y-134967520D01*
X111652177Y-134930004D01*
X111652179Y-134930002D01*
X111652181Y-134930002D01*
X111777702Y-134857532D01*
X111777702Y-134857531D01*
X111777707Y-134857529D01*
X111880201Y-134755035D01*
X111952676Y-134629505D01*
X111990192Y-134489495D01*
X111990192Y-134344545D01*
X111952676Y-134204535D01*
X111952674Y-134204532D01*
X111952674Y-134204530D01*
X111880204Y-134079009D01*
X111880202Y-134079007D01*
X111880201Y-134079005D01*
X111777707Y-133976511D01*
X111777704Y-133976509D01*
X111777702Y-133976507D01*
X111652180Y-133904037D01*
X111652181Y-133904037D01*
X111622588Y-133896107D01*
X111512167Y-133866520D01*
X111367217Y-133866520D01*
X111305482Y-133883061D01*
X111227202Y-133904037D01*
X111101681Y-133976507D01*
X110999179Y-134079009D01*
X110926709Y-134204530D01*
X110889192Y-134344545D01*
X103110807Y-134344545D01*
X103073291Y-134204535D01*
X103073289Y-134204532D01*
X103073289Y-134204530D01*
X103000819Y-134079009D01*
X103000817Y-134079007D01*
X103000816Y-134079005D01*
X102898322Y-133976511D01*
X102898319Y-133976509D01*
X102898317Y-133976507D01*
X102772795Y-133904037D01*
X102772796Y-133904037D01*
X102743203Y-133896107D01*
X102632782Y-133866520D01*
X102487832Y-133866520D01*
X102426097Y-133883061D01*
X102347817Y-133904037D01*
X102222296Y-133976507D01*
X102119794Y-134079009D01*
X102047324Y-134204530D01*
X102009807Y-134344545D01*
X100300500Y-134344545D01*
X100300500Y-131893709D01*
X137649500Y-131893709D01*
X137649500Y-132106290D01*
X137682752Y-132316238D01*
X137748443Y-132518412D01*
X137844948Y-132707815D01*
X137844950Y-132707819D01*
X137969891Y-132879786D01*
X137969893Y-132879788D01*
X137969896Y-132879792D01*
X138120208Y-133030104D01*
X138120211Y-133030106D01*
X138120213Y-133030108D01*
X138292180Y-133155049D01*
X138292184Y-133155051D01*
X138481588Y-133251557D01*
X138683757Y-133317246D01*
X138683758Y-133317246D01*
X138683761Y-133317247D01*
X138893710Y-133350500D01*
X138893713Y-133350500D01*
X139106290Y-133350500D01*
X139316238Y-133317247D01*
X139316239Y-133317246D01*
X139316243Y-133317246D01*
X139518412Y-133251557D01*
X139707816Y-133155051D01*
X139879792Y-133030104D01*
X140030104Y-132879792D01*
X140155051Y-132707816D01*
X140251557Y-132518412D01*
X140317246Y-132316243D01*
X140350500Y-132106287D01*
X140350500Y-131893713D01*
X140350500Y-131893709D01*
X140317247Y-131683761D01*
X140317246Y-131683757D01*
X140251557Y-131481588D01*
X140155051Y-131292184D01*
X140155049Y-131292180D01*
X140030108Y-131120213D01*
X140030106Y-131120211D01*
X140030104Y-131120208D01*
X139879792Y-130969896D01*
X139879788Y-130969893D01*
X139879786Y-130969891D01*
X139707819Y-130844950D01*
X139707815Y-130844948D01*
X139518412Y-130748443D01*
X139316238Y-130682752D01*
X139106290Y-130649500D01*
X139106287Y-130649500D01*
X138893713Y-130649500D01*
X138893710Y-130649500D01*
X138683761Y-130682752D01*
X138481587Y-130748443D01*
X138292184Y-130844948D01*
X138292180Y-130844950D01*
X138120213Y-130969891D01*
X137969891Y-131120213D01*
X137844950Y-131292180D01*
X137844948Y-131292184D01*
X137748443Y-131481587D01*
X137682752Y-131683761D01*
X137649500Y-131893709D01*
X100300500Y-131893709D01*
X100300500Y-130927525D01*
X125174500Y-130927525D01*
X125174500Y-131072474D01*
X125212017Y-131212489D01*
X125284487Y-131338010D01*
X125284489Y-131338012D01*
X125284491Y-131338015D01*
X125386985Y-131440509D01*
X125386987Y-131440510D01*
X125386989Y-131440512D01*
X125512511Y-131512982D01*
X125512512Y-131512982D01*
X125512515Y-131512984D01*
X125652525Y-131550500D01*
X125652526Y-131550500D01*
X125797474Y-131550500D01*
X125797475Y-131550500D01*
X125937485Y-131512984D01*
X125937487Y-131512982D01*
X125937489Y-131512982D01*
X126063010Y-131440512D01*
X126063010Y-131440511D01*
X126063015Y-131440509D01*
X126165509Y-131338015D01*
X126237984Y-131212485D01*
X126275500Y-131072475D01*
X126275500Y-130927525D01*
X126237984Y-130787515D01*
X126237982Y-130787512D01*
X126237982Y-130787510D01*
X126165512Y-130661989D01*
X126165510Y-130661987D01*
X126165509Y-130661985D01*
X126063015Y-130559491D01*
X126063012Y-130559489D01*
X126063010Y-130559487D01*
X125937488Y-130487017D01*
X125937489Y-130487017D01*
X125907896Y-130479087D01*
X125797475Y-130449500D01*
X125652525Y-130449500D01*
X125590790Y-130466041D01*
X125512510Y-130487017D01*
X125386989Y-130559487D01*
X125284487Y-130661989D01*
X125212017Y-130787510D01*
X125174500Y-130927525D01*
X100300500Y-130927525D01*
X100300500Y-126510504D01*
X115009807Y-126510504D01*
X115009807Y-126655453D01*
X115047324Y-126795468D01*
X115119794Y-126920989D01*
X115119796Y-126920991D01*
X115119798Y-126920994D01*
X115222292Y-127023488D01*
X115222294Y-127023489D01*
X115222296Y-127023491D01*
X115347818Y-127095961D01*
X115347819Y-127095961D01*
X115347822Y-127095963D01*
X115487832Y-127133479D01*
X115487833Y-127133479D01*
X115632781Y-127133479D01*
X115632782Y-127133479D01*
X115772792Y-127095963D01*
X115772794Y-127095961D01*
X115772796Y-127095961D01*
X115898317Y-127023491D01*
X115898317Y-127023490D01*
X115898322Y-127023488D01*
X116000816Y-126920994D01*
X116073291Y-126795464D01*
X116110807Y-126655454D01*
X116110807Y-126510504D01*
X123889192Y-126510504D01*
X123889192Y-126655453D01*
X123926709Y-126795468D01*
X123999179Y-126920989D01*
X123999181Y-126920991D01*
X123999183Y-126920994D01*
X124101677Y-127023488D01*
X124101679Y-127023489D01*
X124101681Y-127023491D01*
X124227203Y-127095961D01*
X124227204Y-127095961D01*
X124227207Y-127095963D01*
X124367217Y-127133479D01*
X124367218Y-127133479D01*
X124512166Y-127133479D01*
X124512167Y-127133479D01*
X124652177Y-127095963D01*
X124652179Y-127095961D01*
X124652181Y-127095961D01*
X124777702Y-127023491D01*
X124777702Y-127023490D01*
X124777707Y-127023488D01*
X124880201Y-126920994D01*
X124952676Y-126795464D01*
X124990192Y-126655454D01*
X124990192Y-126510504D01*
X124952676Y-126370494D01*
X124952674Y-126370491D01*
X124952674Y-126370489D01*
X124880204Y-126244968D01*
X124880202Y-126244966D01*
X124880201Y-126244964D01*
X124777707Y-126142470D01*
X124777704Y-126142468D01*
X124777702Y-126142466D01*
X124652180Y-126069996D01*
X124652181Y-126069996D01*
X124622588Y-126062066D01*
X124512167Y-126032479D01*
X124367217Y-126032479D01*
X124305482Y-126049020D01*
X124227202Y-126069996D01*
X124101681Y-126142466D01*
X123999179Y-126244968D01*
X123926709Y-126370489D01*
X123889192Y-126510504D01*
X116110807Y-126510504D01*
X116073291Y-126370494D01*
X116073289Y-126370491D01*
X116073289Y-126370489D01*
X116000819Y-126244968D01*
X116000817Y-126244966D01*
X116000816Y-126244964D01*
X115898322Y-126142470D01*
X115898319Y-126142468D01*
X115898317Y-126142466D01*
X115772795Y-126069996D01*
X115772796Y-126069996D01*
X115743203Y-126062066D01*
X115632782Y-126032479D01*
X115487832Y-126032479D01*
X115426097Y-126049020D01*
X115347817Y-126069996D01*
X115222296Y-126142466D01*
X115119794Y-126244968D01*
X115047324Y-126370489D01*
X115009807Y-126510504D01*
X100300500Y-126510504D01*
X100300500Y-125244545D01*
X116501692Y-125244545D01*
X116501692Y-125389494D01*
X116539209Y-125529509D01*
X116611679Y-125655030D01*
X116611681Y-125655032D01*
X116611683Y-125655035D01*
X116714177Y-125757529D01*
X116714179Y-125757530D01*
X116714181Y-125757532D01*
X116839703Y-125830002D01*
X116839704Y-125830002D01*
X116839707Y-125830004D01*
X116979717Y-125867520D01*
X116979718Y-125867520D01*
X117124666Y-125867520D01*
X117124667Y-125867520D01*
X117264677Y-125830004D01*
X117264679Y-125830002D01*
X117264681Y-125830002D01*
X117390202Y-125757532D01*
X117390202Y-125757531D01*
X117390207Y-125757529D01*
X117492701Y-125655035D01*
X117565176Y-125529505D01*
X117602692Y-125389495D01*
X117602692Y-125244545D01*
X117565176Y-125104535D01*
X117565174Y-125104532D01*
X117565174Y-125104530D01*
X117492704Y-124979009D01*
X117492702Y-124979007D01*
X117492701Y-124979005D01*
X117390207Y-124876511D01*
X117390204Y-124876509D01*
X117390202Y-124876507D01*
X117264680Y-124804037D01*
X117264681Y-124804037D01*
X117235088Y-124796107D01*
X117124667Y-124766520D01*
X116979717Y-124766520D01*
X116917982Y-124783061D01*
X116839702Y-124804037D01*
X116714181Y-124876507D01*
X116611679Y-124979009D01*
X116539209Y-125104530D01*
X116501692Y-125244545D01*
X100300500Y-125244545D01*
X100300500Y-123927525D01*
X101674500Y-123927525D01*
X101674500Y-124072475D01*
X101685228Y-124112512D01*
X101712017Y-124212489D01*
X101784487Y-124338010D01*
X101784489Y-124338012D01*
X101784491Y-124338015D01*
X101886985Y-124440509D01*
X101886987Y-124440510D01*
X101886989Y-124440512D01*
X102012511Y-124512982D01*
X102012512Y-124512982D01*
X102012515Y-124512984D01*
X102152525Y-124550500D01*
X102152526Y-124550500D01*
X102297474Y-124550500D01*
X102297475Y-124550500D01*
X102437485Y-124512984D01*
X102437487Y-124512982D01*
X102437489Y-124512982D01*
X102563010Y-124440512D01*
X102563010Y-124440511D01*
X102563015Y-124440509D01*
X102665509Y-124338015D01*
X102737984Y-124212485D01*
X102775500Y-124072475D01*
X102775500Y-123927525D01*
X105624500Y-123927525D01*
X105624500Y-124072475D01*
X105635228Y-124112512D01*
X105662017Y-124212489D01*
X105734487Y-124338010D01*
X105734489Y-124338012D01*
X105734491Y-124338015D01*
X105836985Y-124440509D01*
X105836987Y-124440510D01*
X105836989Y-124440512D01*
X105962511Y-124512982D01*
X105962512Y-124512982D01*
X105962515Y-124512984D01*
X106102525Y-124550500D01*
X106102526Y-124550500D01*
X106247474Y-124550500D01*
X106247475Y-124550500D01*
X106387485Y-124512984D01*
X106387487Y-124512982D01*
X106387489Y-124512982D01*
X106513010Y-124440512D01*
X106513010Y-124440511D01*
X106513015Y-124440509D01*
X106615509Y-124338015D01*
X106664867Y-124252525D01*
X109737000Y-124252525D01*
X109737000Y-124397474D01*
X109774517Y-124537489D01*
X109846987Y-124663010D01*
X109846989Y-124663012D01*
X109846991Y-124663015D01*
X109949485Y-124765509D01*
X109949487Y-124765510D01*
X109949489Y-124765512D01*
X110075011Y-124837982D01*
X110075012Y-124837982D01*
X110075015Y-124837984D01*
X110215025Y-124875500D01*
X110215026Y-124875500D01*
X110359974Y-124875500D01*
X110359975Y-124875500D01*
X110499985Y-124837984D01*
X110499987Y-124837982D01*
X110499989Y-124837982D01*
X110625510Y-124765512D01*
X110625510Y-124765511D01*
X110625515Y-124765509D01*
X110728009Y-124663015D01*
X110800484Y-124537485D01*
X110838000Y-124397475D01*
X110838000Y-124252525D01*
X110800484Y-124112515D01*
X110800482Y-124112512D01*
X110800482Y-124112510D01*
X110749855Y-124024822D01*
X110737133Y-123964974D01*
X110762020Y-123909078D01*
X110815008Y-123878485D01*
X110861213Y-123879695D01*
X110875332Y-123883479D01*
X110875334Y-123883479D01*
X111020281Y-123883479D01*
X111020282Y-123883479D01*
X111160292Y-123845963D01*
X111160294Y-123845961D01*
X111160296Y-123845961D01*
X111285817Y-123773491D01*
X111285817Y-123773490D01*
X111285822Y-123773488D01*
X111388316Y-123670994D01*
X111427847Y-123602525D01*
X113962000Y-123602525D01*
X113962000Y-123747475D01*
X113972729Y-123787515D01*
X113999516Y-123887486D01*
X114035897Y-123950501D01*
X114048618Y-124010350D01*
X114035897Y-124049499D01*
X113999516Y-124112513D01*
X113962000Y-124252525D01*
X113962000Y-124397474D01*
X113999517Y-124537489D01*
X114071987Y-124663010D01*
X114071989Y-124663012D01*
X114071991Y-124663015D01*
X114174485Y-124765509D01*
X114174487Y-124765510D01*
X114174489Y-124765512D01*
X114300011Y-124837982D01*
X114300012Y-124837982D01*
X114300015Y-124837984D01*
X114440025Y-124875500D01*
X114440026Y-124875500D01*
X114584974Y-124875500D01*
X114584975Y-124875500D01*
X114724985Y-124837984D01*
X114724987Y-124837982D01*
X114724989Y-124837982D01*
X114850510Y-124765512D01*
X114850510Y-124765511D01*
X114850515Y-124765509D01*
X114953009Y-124663015D01*
X115025484Y-124537485D01*
X115063000Y-124397475D01*
X115063000Y-124252525D01*
X115025484Y-124112515D01*
X114989101Y-124049499D01*
X114984958Y-124030008D01*
X114976560Y-124011937D01*
X114978792Y-124001001D01*
X114976380Y-123989653D01*
X114988313Y-123951891D01*
X114988679Y-123951232D01*
X115002366Y-123927525D01*
X119124500Y-123927525D01*
X119124500Y-124072475D01*
X119135228Y-124112512D01*
X119162017Y-124212489D01*
X119234487Y-124338010D01*
X119234489Y-124338012D01*
X119234491Y-124338015D01*
X119336985Y-124440509D01*
X119336987Y-124440510D01*
X119336989Y-124440512D01*
X119462511Y-124512982D01*
X119462512Y-124512982D01*
X119462515Y-124512984D01*
X119602525Y-124550500D01*
X119602526Y-124550500D01*
X119747474Y-124550500D01*
X119747475Y-124550500D01*
X119887485Y-124512984D01*
X119887487Y-124512982D01*
X119887489Y-124512982D01*
X120013010Y-124440512D01*
X120013010Y-124440511D01*
X120013015Y-124440509D01*
X120115509Y-124338015D01*
X120187984Y-124212485D01*
X120225500Y-124072475D01*
X120225500Y-123927525D01*
X120187984Y-123787515D01*
X120187982Y-123787512D01*
X120187982Y-123787510D01*
X120115512Y-123661989D01*
X120115510Y-123661987D01*
X120115509Y-123661985D01*
X120013015Y-123559491D01*
X120013012Y-123559489D01*
X120013010Y-123559487D01*
X119967800Y-123533385D01*
X128359500Y-123533385D01*
X128359500Y-123706614D01*
X128386597Y-123877702D01*
X128386598Y-123877706D01*
X128440123Y-124042438D01*
X128440125Y-124042441D01*
X128475827Y-124112512D01*
X128518768Y-124196788D01*
X128620586Y-124336928D01*
X128743072Y-124459414D01*
X128883212Y-124561232D01*
X129037555Y-124639873D01*
X129037557Y-124639873D01*
X129037558Y-124639874D01*
X129037561Y-124639876D01*
X129202293Y-124693401D01*
X129202297Y-124693402D01*
X129373386Y-124720500D01*
X129373389Y-124720500D01*
X130846614Y-124720500D01*
X131017702Y-124693402D01*
X131017706Y-124693401D01*
X131182438Y-124639876D01*
X131182440Y-124639874D01*
X131182445Y-124639873D01*
X131336788Y-124561232D01*
X131476928Y-124459414D01*
X131599414Y-124336928D01*
X131701232Y-124196788D01*
X131779873Y-124042445D01*
X131779874Y-124042440D01*
X131779876Y-124042438D01*
X131833401Y-123877706D01*
X131833402Y-123877702D01*
X131860500Y-123706614D01*
X131860500Y-123533385D01*
X146139500Y-123533385D01*
X146139500Y-123706614D01*
X146166597Y-123877702D01*
X146166598Y-123877706D01*
X146220123Y-124042438D01*
X146220125Y-124042441D01*
X146255827Y-124112512D01*
X146298768Y-124196788D01*
X146400586Y-124336928D01*
X146523072Y-124459414D01*
X146663212Y-124561232D01*
X146817555Y-124639873D01*
X146817557Y-124639873D01*
X146817558Y-124639874D01*
X146817561Y-124639876D01*
X146982293Y-124693401D01*
X146982297Y-124693402D01*
X147153386Y-124720500D01*
X147153389Y-124720500D01*
X148626614Y-124720500D01*
X148797702Y-124693402D01*
X148797706Y-124693401D01*
X148962438Y-124639876D01*
X148962440Y-124639874D01*
X148962445Y-124639873D01*
X149116788Y-124561232D01*
X149256928Y-124459414D01*
X149379414Y-124336928D01*
X149481232Y-124196788D01*
X149559873Y-124042445D01*
X149559874Y-124042440D01*
X149559876Y-124042438D01*
X149613401Y-123877706D01*
X149613402Y-123877702D01*
X149640500Y-123706614D01*
X149640500Y-123533385D01*
X149613402Y-123362297D01*
X149613401Y-123362293D01*
X149559876Y-123197561D01*
X149559874Y-123197558D01*
X149559873Y-123197557D01*
X149559873Y-123197555D01*
X149481232Y-123043212D01*
X149379414Y-122903072D01*
X149256928Y-122780586D01*
X149116788Y-122678768D01*
X149116787Y-122678767D01*
X149116785Y-122678766D01*
X148962441Y-122600125D01*
X148962438Y-122600123D01*
X148797706Y-122546598D01*
X148797702Y-122546597D01*
X148626614Y-122519500D01*
X148626611Y-122519500D01*
X147153389Y-122519500D01*
X147153386Y-122519500D01*
X146982297Y-122546597D01*
X146982293Y-122546598D01*
X146817561Y-122600123D01*
X146817558Y-122600125D01*
X146663214Y-122678766D01*
X146523073Y-122780585D01*
X146400585Y-122903073D01*
X146298766Y-123043214D01*
X146220125Y-123197558D01*
X146220123Y-123197561D01*
X146166598Y-123362293D01*
X146166597Y-123362297D01*
X146139500Y-123533385D01*
X131860500Y-123533385D01*
X131833402Y-123362297D01*
X131833401Y-123362293D01*
X131779876Y-123197561D01*
X131779874Y-123197558D01*
X131779873Y-123197557D01*
X131779873Y-123197555D01*
X131701232Y-123043212D01*
X131599414Y-122903072D01*
X131476928Y-122780586D01*
X131336788Y-122678768D01*
X131336787Y-122678767D01*
X131336785Y-122678766D01*
X131182441Y-122600125D01*
X131182438Y-122600123D01*
X131017706Y-122546598D01*
X131017702Y-122546597D01*
X130846614Y-122519500D01*
X130846611Y-122519500D01*
X129373389Y-122519500D01*
X129373386Y-122519500D01*
X129202297Y-122546597D01*
X129202293Y-122546598D01*
X129037561Y-122600123D01*
X129037558Y-122600125D01*
X128883214Y-122678766D01*
X128743073Y-122780585D01*
X128620585Y-122903073D01*
X128518766Y-123043214D01*
X128440125Y-123197558D01*
X128440123Y-123197561D01*
X128386598Y-123362293D01*
X128386597Y-123362297D01*
X128359500Y-123533385D01*
X119967800Y-123533385D01*
X119887488Y-123487017D01*
X119887489Y-123487017D01*
X119796028Y-123462510D01*
X119747475Y-123449500D01*
X119602525Y-123449500D01*
X119553972Y-123462510D01*
X119462510Y-123487017D01*
X119336989Y-123559487D01*
X119234487Y-123661989D01*
X119162017Y-123787510D01*
X119129443Y-123909078D01*
X119124500Y-123927525D01*
X115002366Y-123927525D01*
X115025484Y-123887485D01*
X115063000Y-123747475D01*
X115063000Y-123602525D01*
X115025484Y-123462515D01*
X115025482Y-123462512D01*
X115025482Y-123462510D01*
X114953012Y-123336989D01*
X114953010Y-123336987D01*
X114953009Y-123336985D01*
X114850515Y-123234491D01*
X114850512Y-123234489D01*
X114850510Y-123234487D01*
X114724988Y-123162017D01*
X114724989Y-123162017D01*
X114695396Y-123154087D01*
X114584975Y-123124500D01*
X114440025Y-123124500D01*
X114378290Y-123141041D01*
X114300010Y-123162017D01*
X114174489Y-123234487D01*
X114071987Y-123336989D01*
X113999517Y-123462510D01*
X113973532Y-123559487D01*
X113962000Y-123602525D01*
X111427847Y-123602525D01*
X111460791Y-123545464D01*
X111498307Y-123405454D01*
X111498307Y-123260504D01*
X111460791Y-123120494D01*
X111424408Y-123057478D01*
X111411687Y-122997632D01*
X111424408Y-122958480D01*
X111460791Y-122895464D01*
X111498307Y-122755454D01*
X111498307Y-122610504D01*
X116501692Y-122610504D01*
X116501692Y-122755454D01*
X116508426Y-122780585D01*
X116539209Y-122895468D01*
X116611679Y-123020989D01*
X116611681Y-123020991D01*
X116611683Y-123020994D01*
X116714177Y-123123488D01*
X116714179Y-123123489D01*
X116714181Y-123123491D01*
X116839703Y-123195961D01*
X116839704Y-123195961D01*
X116839707Y-123195963D01*
X116979717Y-123233479D01*
X116979718Y-123233479D01*
X117124666Y-123233479D01*
X117124667Y-123233479D01*
X117264677Y-123195963D01*
X117264679Y-123195961D01*
X117264681Y-123195961D01*
X117390202Y-123123491D01*
X117390202Y-123123490D01*
X117390207Y-123123488D01*
X117492701Y-123020994D01*
X117506189Y-122997632D01*
X117565174Y-122895468D01*
X117565175Y-122895465D01*
X117565176Y-122895464D01*
X117602692Y-122755454D01*
X117602692Y-122610504D01*
X117565176Y-122470494D01*
X117565174Y-122470491D01*
X117565174Y-122470489D01*
X117517736Y-122388326D01*
X117517734Y-122388323D01*
X117492902Y-122345312D01*
X127215544Y-122345312D01*
X127215544Y-122490262D01*
X127230639Y-122546597D01*
X127253061Y-122630276D01*
X127325531Y-122755797D01*
X127325533Y-122755799D01*
X127325535Y-122755802D01*
X127428029Y-122858296D01*
X127428031Y-122858297D01*
X127428033Y-122858299D01*
X127553555Y-122930769D01*
X127553556Y-122930769D01*
X127553559Y-122930771D01*
X127693569Y-122968287D01*
X127693570Y-122968287D01*
X127838518Y-122968287D01*
X127838519Y-122968287D01*
X127978529Y-122930771D01*
X127978531Y-122930769D01*
X127978533Y-122930769D01*
X128104054Y-122858299D01*
X128104054Y-122858298D01*
X128104059Y-122858296D01*
X128206553Y-122755802D01*
X128206754Y-122755454D01*
X128279026Y-122630276D01*
X128279026Y-122630274D01*
X128279028Y-122630272D01*
X128316544Y-122490262D01*
X128316544Y-122345312D01*
X128279028Y-122205302D01*
X128279026Y-122205299D01*
X128279026Y-122205297D01*
X128206556Y-122079776D01*
X128206554Y-122079774D01*
X128206553Y-122079772D01*
X128104059Y-121977278D01*
X128104056Y-121977276D01*
X128104054Y-121977274D01*
X127978532Y-121904804D01*
X127978533Y-121904804D01*
X127948940Y-121896874D01*
X127838519Y-121867287D01*
X127693569Y-121867287D01*
X127631834Y-121883828D01*
X127553554Y-121904804D01*
X127428033Y-121977274D01*
X127325531Y-122079776D01*
X127253061Y-122205297D01*
X127217501Y-122338010D01*
X127215544Y-122345312D01*
X117492902Y-122345312D01*
X117492701Y-122344964D01*
X117390207Y-122242470D01*
X117390204Y-122242468D01*
X117390202Y-122242466D01*
X117264680Y-122169996D01*
X117264681Y-122169996D01*
X117202748Y-122153401D01*
X117124667Y-122132479D01*
X116979717Y-122132479D01*
X116917982Y-122149020D01*
X116839702Y-122169996D01*
X116714181Y-122242466D01*
X116611679Y-122344968D01*
X116539209Y-122470489D01*
X116526077Y-122519500D01*
X116501692Y-122610504D01*
X111498307Y-122610504D01*
X111460791Y-122470494D01*
X111460789Y-122470491D01*
X111460789Y-122470489D01*
X111388319Y-122344968D01*
X111388317Y-122344966D01*
X111388316Y-122344964D01*
X111285822Y-122242470D01*
X111285819Y-122242468D01*
X111285817Y-122242466D01*
X111160295Y-122169996D01*
X111160296Y-122169996D01*
X111098363Y-122153401D01*
X111020282Y-122132479D01*
X110875332Y-122132479D01*
X110813597Y-122149020D01*
X110735317Y-122169996D01*
X110609796Y-122242466D01*
X110507294Y-122344968D01*
X110434824Y-122470489D01*
X110421692Y-122519500D01*
X110397307Y-122610504D01*
X110397307Y-122755454D01*
X110404041Y-122780585D01*
X110434823Y-122895465D01*
X110471204Y-122958480D01*
X110483925Y-123018329D01*
X110471204Y-123057478D01*
X110434823Y-123120492D01*
X110397307Y-123260504D01*
X110397307Y-123405453D01*
X110434823Y-123545465D01*
X110485452Y-123633156D01*
X110498173Y-123693004D01*
X110473286Y-123748900D01*
X110420298Y-123779493D01*
X110374093Y-123778283D01*
X110359975Y-123774500D01*
X110215025Y-123774500D01*
X110166472Y-123787510D01*
X110075010Y-123812017D01*
X109949489Y-123884487D01*
X109846987Y-123986989D01*
X109774517Y-124112510D01*
X109737000Y-124252525D01*
X106664867Y-124252525D01*
X106687984Y-124212485D01*
X106725500Y-124072475D01*
X106725500Y-123927525D01*
X106687984Y-123787515D01*
X106687982Y-123787512D01*
X106687982Y-123787510D01*
X106615512Y-123661989D01*
X106615510Y-123661987D01*
X106615509Y-123661985D01*
X106513015Y-123559491D01*
X106513012Y-123559489D01*
X106513010Y-123559487D01*
X106387488Y-123487017D01*
X106387489Y-123487017D01*
X106296028Y-123462510D01*
X106247475Y-123449500D01*
X106102525Y-123449500D01*
X106053972Y-123462510D01*
X105962510Y-123487017D01*
X105836989Y-123559487D01*
X105734487Y-123661989D01*
X105662017Y-123787510D01*
X105629443Y-123909078D01*
X105624500Y-123927525D01*
X102775500Y-123927525D01*
X102737984Y-123787515D01*
X102737982Y-123787512D01*
X102737982Y-123787510D01*
X102665512Y-123661989D01*
X102665510Y-123661987D01*
X102665509Y-123661985D01*
X102563015Y-123559491D01*
X102563012Y-123559489D01*
X102563010Y-123559487D01*
X102437488Y-123487017D01*
X102437489Y-123487017D01*
X102346028Y-123462510D01*
X102297475Y-123449500D01*
X102152525Y-123449500D01*
X102103972Y-123462510D01*
X102012510Y-123487017D01*
X101886989Y-123559487D01*
X101784487Y-123661989D01*
X101712017Y-123787510D01*
X101679443Y-123909078D01*
X101674500Y-123927525D01*
X100300500Y-123927525D01*
X100300500Y-121927525D01*
X112674500Y-121927525D01*
X112674500Y-122072475D01*
X112681842Y-122099874D01*
X112712017Y-122212489D01*
X112784487Y-122338010D01*
X112784489Y-122338012D01*
X112784491Y-122338015D01*
X112886985Y-122440509D01*
X112886987Y-122440510D01*
X112886989Y-122440512D01*
X113012511Y-122512982D01*
X113012512Y-122512982D01*
X113012515Y-122512984D01*
X113152525Y-122550500D01*
X113152526Y-122550500D01*
X113297474Y-122550500D01*
X113297475Y-122550500D01*
X113437485Y-122512984D01*
X113437487Y-122512982D01*
X113437489Y-122512982D01*
X113563010Y-122440512D01*
X113563010Y-122440511D01*
X113563015Y-122440509D01*
X113665509Y-122338015D01*
X113720672Y-122242470D01*
X113737982Y-122212489D01*
X113737982Y-122212487D01*
X113737984Y-122212485D01*
X113775500Y-122072475D01*
X113775500Y-121927525D01*
X113737984Y-121787515D01*
X113737982Y-121787512D01*
X113737982Y-121787510D01*
X113665512Y-121661989D01*
X113665510Y-121661987D01*
X113665509Y-121661985D01*
X113563015Y-121559491D01*
X113563012Y-121559489D01*
X113563010Y-121559487D01*
X113437488Y-121487017D01*
X113437489Y-121487017D01*
X113407896Y-121479087D01*
X113297475Y-121449500D01*
X113152525Y-121449500D01*
X113090790Y-121466041D01*
X113012510Y-121487017D01*
X112886989Y-121559487D01*
X112784487Y-121661989D01*
X112712017Y-121787510D01*
X112690641Y-121867287D01*
X112674500Y-121927525D01*
X100300500Y-121927525D01*
X100300500Y-120993385D01*
X128359500Y-120993385D01*
X128359500Y-121166614D01*
X128386597Y-121337702D01*
X128386598Y-121337706D01*
X128440123Y-121502438D01*
X128440125Y-121502441D01*
X128440126Y-121502444D01*
X128440127Y-121502445D01*
X128518768Y-121656788D01*
X128620586Y-121796928D01*
X128743072Y-121919414D01*
X128883212Y-122021232D01*
X129037555Y-122099873D01*
X129037557Y-122099873D01*
X129037558Y-122099874D01*
X129037561Y-122099876D01*
X129202293Y-122153401D01*
X129202297Y-122153402D01*
X129373386Y-122180500D01*
X129373389Y-122180500D01*
X130846614Y-122180500D01*
X131017702Y-122153402D01*
X131017706Y-122153401D01*
X131182438Y-122099876D01*
X131182440Y-122099874D01*
X131182445Y-122099873D01*
X131336788Y-122021232D01*
X131476928Y-121919414D01*
X131599414Y-121796928D01*
X131701232Y-121656788D01*
X131779873Y-121502445D01*
X131779874Y-121502440D01*
X131779876Y-121502438D01*
X131833401Y-121337706D01*
X131833402Y-121337702D01*
X131860500Y-121166614D01*
X131860500Y-120993385D01*
X146139500Y-120993385D01*
X146139500Y-121166614D01*
X146166597Y-121337702D01*
X146166598Y-121337706D01*
X146220123Y-121502438D01*
X146220125Y-121502441D01*
X146220126Y-121502444D01*
X146220127Y-121502445D01*
X146298768Y-121656788D01*
X146400586Y-121796928D01*
X146523072Y-121919414D01*
X146663212Y-122021232D01*
X146817555Y-122099873D01*
X146817557Y-122099873D01*
X146817558Y-122099874D01*
X146817561Y-122099876D01*
X146982293Y-122153401D01*
X146982297Y-122153402D01*
X147153386Y-122180500D01*
X147153389Y-122180500D01*
X148626614Y-122180500D01*
X148797702Y-122153402D01*
X148797706Y-122153401D01*
X148962438Y-122099876D01*
X148962440Y-122099874D01*
X148962445Y-122099873D01*
X149116788Y-122021232D01*
X149256928Y-121919414D01*
X149379414Y-121796928D01*
X149481232Y-121656788D01*
X149559873Y-121502445D01*
X149559874Y-121502440D01*
X149559876Y-121502438D01*
X149613401Y-121337706D01*
X149613402Y-121337702D01*
X149640500Y-121166614D01*
X149640500Y-120993385D01*
X149613402Y-120822297D01*
X149613401Y-120822293D01*
X149559876Y-120657561D01*
X149559874Y-120657558D01*
X149559873Y-120657557D01*
X149559873Y-120657555D01*
X149481232Y-120503212D01*
X149379414Y-120363072D01*
X149256928Y-120240586D01*
X149116788Y-120138768D01*
X149116787Y-120138767D01*
X149116785Y-120138766D01*
X148962441Y-120060125D01*
X148962438Y-120060123D01*
X148797706Y-120006598D01*
X148797702Y-120006597D01*
X148626614Y-119979500D01*
X148626611Y-119979500D01*
X147153389Y-119979500D01*
X147153386Y-119979500D01*
X146982297Y-120006597D01*
X146982293Y-120006598D01*
X146817561Y-120060123D01*
X146817558Y-120060125D01*
X146663214Y-120138766D01*
X146523073Y-120240585D01*
X146400585Y-120363073D01*
X146298766Y-120503214D01*
X146220125Y-120657558D01*
X146220123Y-120657561D01*
X146166598Y-120822293D01*
X146166597Y-120822297D01*
X146139500Y-120993385D01*
X131860500Y-120993385D01*
X131833402Y-120822297D01*
X131833401Y-120822293D01*
X131779876Y-120657561D01*
X131779874Y-120657558D01*
X131779873Y-120657557D01*
X131779873Y-120657555D01*
X131701232Y-120503212D01*
X131599414Y-120363072D01*
X131476928Y-120240586D01*
X131336788Y-120138768D01*
X131336787Y-120138767D01*
X131336785Y-120138766D01*
X131182441Y-120060125D01*
X131182438Y-120060123D01*
X131017706Y-120006598D01*
X131017702Y-120006597D01*
X130846614Y-119979500D01*
X130846611Y-119979500D01*
X129373389Y-119979500D01*
X129373386Y-119979500D01*
X129202297Y-120006597D01*
X129202293Y-120006598D01*
X129037561Y-120060123D01*
X129037558Y-120060125D01*
X128883214Y-120138766D01*
X128743073Y-120240585D01*
X128620585Y-120363073D01*
X128518766Y-120503214D01*
X128440125Y-120657558D01*
X128440123Y-120657561D01*
X128386598Y-120822293D01*
X128386597Y-120822297D01*
X128359500Y-120993385D01*
X100300500Y-120993385D01*
X100300500Y-118552525D01*
X111612000Y-118552525D01*
X111612000Y-118697474D01*
X111649517Y-118837489D01*
X111721987Y-118963010D01*
X111721989Y-118963012D01*
X111721991Y-118963015D01*
X111824485Y-119065509D01*
X111824487Y-119065510D01*
X111824489Y-119065512D01*
X111950011Y-119137982D01*
X111950012Y-119137982D01*
X111950015Y-119137984D01*
X112090025Y-119175500D01*
X112090026Y-119175500D01*
X112234974Y-119175500D01*
X112234975Y-119175500D01*
X112374985Y-119137984D01*
X112374987Y-119137982D01*
X112374989Y-119137982D01*
X112500510Y-119065512D01*
X112500510Y-119065511D01*
X112500515Y-119065509D01*
X112603009Y-118963015D01*
X112603338Y-118962445D01*
X112675482Y-118837489D01*
X112675482Y-118837487D01*
X112675484Y-118837485D01*
X112713000Y-118697475D01*
X112713000Y-118552525D01*
X112675484Y-118412515D01*
X112675482Y-118412512D01*
X112675482Y-118412510D01*
X112603012Y-118286989D01*
X112603010Y-118286987D01*
X112603009Y-118286985D01*
X112500515Y-118184491D01*
X112500512Y-118184489D01*
X112500510Y-118184487D01*
X112395383Y-118123792D01*
X112374988Y-118112017D01*
X112374989Y-118112017D01*
X112345396Y-118104087D01*
X112234975Y-118074500D01*
X112090025Y-118074500D01*
X112028290Y-118091041D01*
X111950010Y-118112017D01*
X111824489Y-118184487D01*
X111721987Y-118286989D01*
X111649517Y-118412510D01*
X111612000Y-118552525D01*
X100300500Y-118552525D01*
X100300500Y-118044545D01*
X113639192Y-118044545D01*
X113639192Y-118189495D01*
X113664057Y-118282293D01*
X113676709Y-118329509D01*
X113749179Y-118455030D01*
X113749181Y-118455032D01*
X113749183Y-118455035D01*
X113851677Y-118557529D01*
X113851679Y-118557530D01*
X113851681Y-118557532D01*
X113977203Y-118630002D01*
X113977204Y-118630002D01*
X113977207Y-118630004D01*
X114117217Y-118667520D01*
X114117218Y-118667520D01*
X114262166Y-118667520D01*
X114262167Y-118667520D01*
X114402177Y-118630004D01*
X114402179Y-118630002D01*
X114402181Y-118630002D01*
X114527702Y-118557532D01*
X114527702Y-118557531D01*
X114527707Y-118557529D01*
X114532711Y-118552525D01*
X122112000Y-118552525D01*
X122112000Y-118697474D01*
X122149517Y-118837489D01*
X122221987Y-118963010D01*
X122221989Y-118963012D01*
X122221991Y-118963015D01*
X122324485Y-119065509D01*
X122324487Y-119065510D01*
X122324489Y-119065512D01*
X122450011Y-119137982D01*
X122450012Y-119137982D01*
X122450015Y-119137984D01*
X122590025Y-119175500D01*
X122590026Y-119175500D01*
X122734974Y-119175500D01*
X122734975Y-119175500D01*
X122874985Y-119137984D01*
X122874987Y-119137982D01*
X122874989Y-119137982D01*
X123000510Y-119065512D01*
X123000510Y-119065511D01*
X123000515Y-119065509D01*
X123103009Y-118963015D01*
X123103338Y-118962445D01*
X123175482Y-118837489D01*
X123175482Y-118837487D01*
X123175484Y-118837485D01*
X123213000Y-118697475D01*
X123213000Y-118552525D01*
X123186435Y-118453385D01*
X128359500Y-118453385D01*
X128359500Y-118626614D01*
X128386597Y-118797702D01*
X128386598Y-118797706D01*
X128440123Y-118962438D01*
X128440125Y-118962441D01*
X128492641Y-119065512D01*
X128518768Y-119116788D01*
X128620586Y-119256928D01*
X128743072Y-119379414D01*
X128883212Y-119481232D01*
X129037555Y-119559873D01*
X129037557Y-119559873D01*
X129037558Y-119559874D01*
X129037561Y-119559876D01*
X129202293Y-119613401D01*
X129202297Y-119613402D01*
X129373386Y-119640500D01*
X129373389Y-119640500D01*
X130846614Y-119640500D01*
X131017702Y-119613402D01*
X131017706Y-119613401D01*
X131182438Y-119559876D01*
X131182440Y-119559874D01*
X131182445Y-119559873D01*
X131336788Y-119481232D01*
X131476928Y-119379414D01*
X131599414Y-119256928D01*
X131701232Y-119116788D01*
X131779873Y-118962445D01*
X131779874Y-118962440D01*
X131779876Y-118962438D01*
X131833401Y-118797706D01*
X131833402Y-118797702D01*
X131860500Y-118626614D01*
X131860500Y-118453385D01*
X146139500Y-118453385D01*
X146139500Y-118626614D01*
X146166597Y-118797702D01*
X146166598Y-118797706D01*
X146220123Y-118962438D01*
X146220125Y-118962441D01*
X146272641Y-119065512D01*
X146298768Y-119116788D01*
X146400586Y-119256928D01*
X146523072Y-119379414D01*
X146663212Y-119481232D01*
X146817555Y-119559873D01*
X146817557Y-119559873D01*
X146817558Y-119559874D01*
X146817561Y-119559876D01*
X146982293Y-119613401D01*
X146982297Y-119613402D01*
X147153386Y-119640500D01*
X147153389Y-119640500D01*
X148626614Y-119640500D01*
X148797702Y-119613402D01*
X148797706Y-119613401D01*
X148962438Y-119559876D01*
X148962440Y-119559874D01*
X148962445Y-119559873D01*
X149116788Y-119481232D01*
X149256928Y-119379414D01*
X149379414Y-119256928D01*
X149481232Y-119116788D01*
X149559873Y-118962445D01*
X149559874Y-118962440D01*
X149559876Y-118962438D01*
X149613401Y-118797706D01*
X149613402Y-118797702D01*
X149640500Y-118626614D01*
X149640500Y-118453385D01*
X149613402Y-118282297D01*
X149613401Y-118282293D01*
X149559876Y-118117561D01*
X149559874Y-118117558D01*
X149559873Y-118117557D01*
X149559873Y-118117555D01*
X149481232Y-117963212D01*
X149379414Y-117823072D01*
X149256928Y-117700586D01*
X149116788Y-117598768D01*
X149116787Y-117598767D01*
X149116785Y-117598766D01*
X148962441Y-117520125D01*
X148962438Y-117520123D01*
X148797706Y-117466598D01*
X148797702Y-117466597D01*
X148626614Y-117439500D01*
X148626611Y-117439500D01*
X147153389Y-117439500D01*
X147153386Y-117439500D01*
X146982297Y-117466597D01*
X146982293Y-117466598D01*
X146817561Y-117520123D01*
X146817558Y-117520125D01*
X146663214Y-117598766D01*
X146523073Y-117700585D01*
X146400585Y-117823073D01*
X146298766Y-117963214D01*
X146220125Y-118117558D01*
X146220123Y-118117561D01*
X146166598Y-118282293D01*
X146166597Y-118282297D01*
X146139500Y-118453385D01*
X131860500Y-118453385D01*
X131833402Y-118282297D01*
X131833401Y-118282293D01*
X131779876Y-118117561D01*
X131779874Y-118117558D01*
X131779873Y-118117557D01*
X131779873Y-118117555D01*
X131701232Y-117963212D01*
X131599414Y-117823072D01*
X131476928Y-117700586D01*
X131336788Y-117598768D01*
X131336787Y-117598767D01*
X131336785Y-117598766D01*
X131182441Y-117520125D01*
X131182438Y-117520123D01*
X131017706Y-117466598D01*
X131017702Y-117466597D01*
X130846614Y-117439500D01*
X130846611Y-117439500D01*
X129373389Y-117439500D01*
X129373386Y-117439500D01*
X129202297Y-117466597D01*
X129202293Y-117466598D01*
X129037561Y-117520123D01*
X129037558Y-117520125D01*
X128883214Y-117598766D01*
X128743073Y-117700585D01*
X128620585Y-117823073D01*
X128518766Y-117963214D01*
X128440125Y-118117558D01*
X128440123Y-118117561D01*
X128386598Y-118282293D01*
X128386597Y-118282297D01*
X128359500Y-118453385D01*
X123186435Y-118453385D01*
X123175484Y-118412515D01*
X123175482Y-118412512D01*
X123175482Y-118412510D01*
X123103012Y-118286989D01*
X123103010Y-118286987D01*
X123103009Y-118286985D01*
X123000515Y-118184491D01*
X123000512Y-118184489D01*
X123000510Y-118184487D01*
X122874988Y-118112017D01*
X122874989Y-118112017D01*
X122845396Y-118104087D01*
X122734975Y-118074500D01*
X122590025Y-118074500D01*
X122528290Y-118091041D01*
X122450010Y-118112017D01*
X122324489Y-118184487D01*
X122221987Y-118286989D01*
X122149517Y-118412510D01*
X122112000Y-118552525D01*
X114532711Y-118552525D01*
X114630201Y-118455035D01*
X114702676Y-118329505D01*
X114740192Y-118189495D01*
X114740192Y-118044545D01*
X114702676Y-117904535D01*
X114702674Y-117904532D01*
X114702674Y-117904530D01*
X114630204Y-117779009D01*
X114630202Y-117779007D01*
X114630201Y-117779005D01*
X114553721Y-117702525D01*
X125449500Y-117702525D01*
X125449500Y-117847474D01*
X125487017Y-117987489D01*
X125559487Y-118113010D01*
X125559489Y-118113012D01*
X125559491Y-118113015D01*
X125661985Y-118215509D01*
X125661987Y-118215510D01*
X125661989Y-118215512D01*
X125787511Y-118287982D01*
X125787512Y-118287982D01*
X125787515Y-118287984D01*
X125927525Y-118325500D01*
X125927526Y-118325500D01*
X126072474Y-118325500D01*
X126072475Y-118325500D01*
X126212485Y-118287984D01*
X126212487Y-118287982D01*
X126212489Y-118287982D01*
X126338010Y-118215512D01*
X126338010Y-118215511D01*
X126338015Y-118215509D01*
X126440509Y-118113015D01*
X126462746Y-118074500D01*
X126512982Y-117987489D01*
X126512982Y-117987487D01*
X126512984Y-117987485D01*
X126550500Y-117847475D01*
X126550500Y-117702525D01*
X126512984Y-117562515D01*
X126512982Y-117562512D01*
X126512982Y-117562510D01*
X126440512Y-117436989D01*
X126440510Y-117436987D01*
X126440509Y-117436985D01*
X126338015Y-117334491D01*
X126338012Y-117334489D01*
X126338010Y-117334487D01*
X126212488Y-117262017D01*
X126212489Y-117262017D01*
X126182896Y-117254087D01*
X126072475Y-117224500D01*
X125927525Y-117224500D01*
X125865790Y-117241041D01*
X125787510Y-117262017D01*
X125661989Y-117334487D01*
X125559487Y-117436989D01*
X125487017Y-117562510D01*
X125449500Y-117702525D01*
X114553721Y-117702525D01*
X114527707Y-117676511D01*
X114527704Y-117676509D01*
X114527702Y-117676507D01*
X114402180Y-117604037D01*
X114402181Y-117604037D01*
X114372588Y-117596107D01*
X114262167Y-117566520D01*
X114117217Y-117566520D01*
X114055482Y-117583061D01*
X113977202Y-117604037D01*
X113851681Y-117676507D01*
X113749179Y-117779009D01*
X113676709Y-117904530D01*
X113676708Y-117904535D01*
X113639192Y-118044545D01*
X100300500Y-118044545D01*
X100300500Y-115913385D01*
X128359500Y-115913385D01*
X128359500Y-116086614D01*
X128386597Y-116257702D01*
X128386598Y-116257706D01*
X128440123Y-116422438D01*
X128440125Y-116422441D01*
X128440126Y-116422444D01*
X128440127Y-116422445D01*
X128518768Y-116576788D01*
X128620586Y-116716928D01*
X128743072Y-116839414D01*
X128883212Y-116941232D01*
X129037555Y-117019873D01*
X129037557Y-117019873D01*
X129037558Y-117019874D01*
X129037561Y-117019876D01*
X129202293Y-117073401D01*
X129202297Y-117073402D01*
X129373386Y-117100500D01*
X129373389Y-117100500D01*
X130846614Y-117100500D01*
X131017702Y-117073402D01*
X131017706Y-117073401D01*
X131182438Y-117019876D01*
X131182440Y-117019874D01*
X131182445Y-117019873D01*
X131336788Y-116941232D01*
X131476928Y-116839414D01*
X131599414Y-116716928D01*
X131701232Y-116576788D01*
X131779873Y-116422445D01*
X131779874Y-116422440D01*
X131779876Y-116422438D01*
X131833401Y-116257706D01*
X131833402Y-116257702D01*
X131860500Y-116086614D01*
X131860500Y-115913385D01*
X146139500Y-115913385D01*
X146139500Y-116086614D01*
X146166597Y-116257702D01*
X146166598Y-116257706D01*
X146220123Y-116422438D01*
X146220125Y-116422441D01*
X146220126Y-116422444D01*
X146220127Y-116422445D01*
X146298768Y-116576788D01*
X146400586Y-116716928D01*
X146523072Y-116839414D01*
X146663212Y-116941232D01*
X146817555Y-117019873D01*
X146817557Y-117019873D01*
X146817558Y-117019874D01*
X146817561Y-117019876D01*
X146982293Y-117073401D01*
X146982297Y-117073402D01*
X147153386Y-117100500D01*
X147153389Y-117100500D01*
X148626614Y-117100500D01*
X148797702Y-117073402D01*
X148797706Y-117073401D01*
X148962438Y-117019876D01*
X148962440Y-117019874D01*
X148962445Y-117019873D01*
X149116788Y-116941232D01*
X149256928Y-116839414D01*
X149379414Y-116716928D01*
X149481232Y-116576788D01*
X149559873Y-116422445D01*
X149559874Y-116422440D01*
X149559876Y-116422438D01*
X149613401Y-116257706D01*
X149613402Y-116257702D01*
X149640500Y-116086614D01*
X149640500Y-115913385D01*
X149613402Y-115742297D01*
X149613401Y-115742293D01*
X149559876Y-115577561D01*
X149559874Y-115577558D01*
X149559873Y-115577557D01*
X149559873Y-115577555D01*
X149481232Y-115423212D01*
X149379414Y-115283072D01*
X149256928Y-115160586D01*
X149116788Y-115058768D01*
X149116787Y-115058767D01*
X149116785Y-115058766D01*
X148962441Y-114980125D01*
X148962438Y-114980123D01*
X148797706Y-114926598D01*
X148797702Y-114926597D01*
X148626614Y-114899500D01*
X148626611Y-114899500D01*
X147153389Y-114899500D01*
X147153386Y-114899500D01*
X146982297Y-114926597D01*
X146982293Y-114926598D01*
X146817561Y-114980123D01*
X146817558Y-114980125D01*
X146663214Y-115058766D01*
X146523073Y-115160585D01*
X146400585Y-115283073D01*
X146298766Y-115423214D01*
X146220125Y-115577558D01*
X146220123Y-115577561D01*
X146166598Y-115742293D01*
X146166597Y-115742297D01*
X146139500Y-115913385D01*
X131860500Y-115913385D01*
X131833402Y-115742297D01*
X131833401Y-115742293D01*
X131779876Y-115577561D01*
X131779874Y-115577558D01*
X131779873Y-115577557D01*
X131779873Y-115577555D01*
X131701232Y-115423212D01*
X131599414Y-115283072D01*
X131476928Y-115160586D01*
X131336788Y-115058768D01*
X131336787Y-115058767D01*
X131336785Y-115058766D01*
X131182441Y-114980125D01*
X131182438Y-114980123D01*
X131017706Y-114926598D01*
X131017702Y-114926597D01*
X130846614Y-114899500D01*
X130846611Y-114899500D01*
X129373389Y-114899500D01*
X129373386Y-114899500D01*
X129202297Y-114926597D01*
X129202293Y-114926598D01*
X129037561Y-114980123D01*
X129037558Y-114980125D01*
X128883214Y-115058766D01*
X128743073Y-115160585D01*
X128620585Y-115283073D01*
X128518766Y-115423214D01*
X128440125Y-115577558D01*
X128440123Y-115577561D01*
X128386598Y-115742293D01*
X128386597Y-115742297D01*
X128359500Y-115913385D01*
X100300500Y-115913385D01*
X100300500Y-114310504D01*
X111251692Y-114310504D01*
X111251692Y-114455454D01*
X111258236Y-114479876D01*
X111289209Y-114595468D01*
X111361679Y-114720989D01*
X111361681Y-114720991D01*
X111361683Y-114720994D01*
X111464177Y-114823488D01*
X111464179Y-114823489D01*
X111464181Y-114823491D01*
X111589703Y-114895961D01*
X111589704Y-114895961D01*
X111589707Y-114895963D01*
X111729717Y-114933479D01*
X111729718Y-114933479D01*
X111874666Y-114933479D01*
X111874667Y-114933479D01*
X112014677Y-114895963D01*
X112014679Y-114895961D01*
X112014681Y-114895961D01*
X112140202Y-114823491D01*
X112140202Y-114823490D01*
X112140207Y-114823488D01*
X112242701Y-114720994D01*
X112315176Y-114595464D01*
X112352692Y-114455454D01*
X112352692Y-114310504D01*
X112315176Y-114170494D01*
X112315174Y-114170491D01*
X112315174Y-114170489D01*
X112242704Y-114044968D01*
X112242702Y-114044966D01*
X112242701Y-114044964D01*
X112140207Y-113942470D01*
X112140204Y-113942468D01*
X112140202Y-113942466D01*
X112014682Y-113869997D01*
X112014679Y-113869996D01*
X112014677Y-113869995D01*
X111908939Y-113841662D01*
X111892032Y-113837132D01*
X111874667Y-113832479D01*
X111729717Y-113832479D01*
X111673756Y-113847474D01*
X111589702Y-113869996D01*
X111464181Y-113942466D01*
X111361679Y-114044968D01*
X111289209Y-114170489D01*
X111263748Y-114265511D01*
X111251692Y-114310504D01*
X100300500Y-114310504D01*
X100300500Y-113752525D01*
X113699500Y-113752525D01*
X113699500Y-113897475D01*
X113729087Y-114007896D01*
X113737017Y-114037489D01*
X113809487Y-114163010D01*
X113809489Y-114163012D01*
X113809491Y-114163015D01*
X113911985Y-114265509D01*
X113911987Y-114265510D01*
X113911989Y-114265512D01*
X114037511Y-114337982D01*
X114037512Y-114337982D01*
X114037515Y-114337984D01*
X114177525Y-114375500D01*
X114177526Y-114375500D01*
X114322474Y-114375500D01*
X114322475Y-114375500D01*
X114462485Y-114337984D01*
X114462487Y-114337982D01*
X114462489Y-114337982D01*
X114510082Y-114310504D01*
X121751692Y-114310504D01*
X121751692Y-114455454D01*
X121758236Y-114479876D01*
X121789209Y-114595468D01*
X121861679Y-114720989D01*
X121861681Y-114720991D01*
X121861683Y-114720994D01*
X121964177Y-114823488D01*
X121964179Y-114823489D01*
X121964181Y-114823491D01*
X122089703Y-114895961D01*
X122089704Y-114895961D01*
X122089707Y-114895963D01*
X122229717Y-114933479D01*
X122229718Y-114933479D01*
X122374666Y-114933479D01*
X122374667Y-114933479D01*
X122514677Y-114895963D01*
X122514679Y-114895961D01*
X122514681Y-114895961D01*
X122640202Y-114823491D01*
X122640202Y-114823490D01*
X122640207Y-114823488D01*
X122742701Y-114720994D01*
X122815176Y-114595464D01*
X122852692Y-114455454D01*
X122852692Y-114310504D01*
X122815176Y-114170494D01*
X122815174Y-114170491D01*
X122815174Y-114170489D01*
X122742704Y-114044968D01*
X122742702Y-114044966D01*
X122742701Y-114044964D01*
X122640207Y-113942470D01*
X122640204Y-113942468D01*
X122640202Y-113942466D01*
X122514680Y-113869996D01*
X122514681Y-113869996D01*
X122430628Y-113847474D01*
X122374667Y-113832479D01*
X122229717Y-113832479D01*
X122173756Y-113847474D01*
X122089702Y-113869996D01*
X121964181Y-113942466D01*
X121861679Y-114044968D01*
X121789209Y-114170489D01*
X121763748Y-114265511D01*
X121751692Y-114310504D01*
X114510082Y-114310504D01*
X114588010Y-114265512D01*
X114588010Y-114265511D01*
X114588015Y-114265509D01*
X114690509Y-114163015D01*
X114719377Y-114113015D01*
X114762982Y-114037489D01*
X114762982Y-114037487D01*
X114762984Y-114037485D01*
X114800500Y-113897475D01*
X114800500Y-113752525D01*
X114787102Y-113702525D01*
X125449500Y-113702525D01*
X125449500Y-113847475D01*
X125458869Y-113882441D01*
X125487017Y-113987489D01*
X125559487Y-114113010D01*
X125559489Y-114113012D01*
X125559491Y-114113015D01*
X125661985Y-114215509D01*
X125661987Y-114215510D01*
X125661989Y-114215512D01*
X125787511Y-114287982D01*
X125787512Y-114287982D01*
X125787515Y-114287984D01*
X125927525Y-114325500D01*
X125927526Y-114325500D01*
X126072474Y-114325500D01*
X126072475Y-114325500D01*
X126212485Y-114287984D01*
X126212487Y-114287982D01*
X126212489Y-114287982D01*
X126338010Y-114215512D01*
X126338010Y-114215511D01*
X126338015Y-114215509D01*
X126440509Y-114113015D01*
X126479796Y-114044968D01*
X126512982Y-113987489D01*
X126512982Y-113987487D01*
X126512984Y-113987485D01*
X126550500Y-113847475D01*
X126550500Y-113702525D01*
X126512984Y-113562515D01*
X126512982Y-113562512D01*
X126512982Y-113562510D01*
X126440512Y-113436989D01*
X126440510Y-113436987D01*
X126440509Y-113436985D01*
X126376909Y-113373385D01*
X128359500Y-113373385D01*
X128359500Y-113546614D01*
X128386597Y-113717702D01*
X128386598Y-113717706D01*
X128440123Y-113882438D01*
X128440125Y-113882441D01*
X128440126Y-113882444D01*
X128440127Y-113882445D01*
X128518768Y-114036788D01*
X128620586Y-114176928D01*
X128743072Y-114299414D01*
X128883212Y-114401232D01*
X129037555Y-114479873D01*
X129037557Y-114479873D01*
X129037558Y-114479874D01*
X129037561Y-114479876D01*
X129202293Y-114533401D01*
X129202297Y-114533402D01*
X129373386Y-114560500D01*
X129373389Y-114560500D01*
X130846614Y-114560500D01*
X131017702Y-114533402D01*
X131017706Y-114533401D01*
X131182438Y-114479876D01*
X131182440Y-114479874D01*
X131182445Y-114479873D01*
X131336788Y-114401232D01*
X131476928Y-114299414D01*
X131599414Y-114176928D01*
X131701232Y-114036788D01*
X131779873Y-113882445D01*
X131779874Y-113882440D01*
X131779876Y-113882438D01*
X131833401Y-113717706D01*
X131833402Y-113717702D01*
X131860500Y-113546614D01*
X131860500Y-113373385D01*
X131833402Y-113202297D01*
X131833401Y-113202293D01*
X131779876Y-113037561D01*
X131779874Y-113037558D01*
X131779873Y-113037557D01*
X131779873Y-113037555D01*
X131701232Y-112883212D01*
X131599414Y-112743072D01*
X131476928Y-112620586D01*
X131336788Y-112518768D01*
X131336787Y-112518767D01*
X131336785Y-112518766D01*
X131182441Y-112440125D01*
X131182438Y-112440123D01*
X131017706Y-112386598D01*
X131017702Y-112386597D01*
X130846614Y-112359500D01*
X130846611Y-112359500D01*
X129373389Y-112359500D01*
X129373386Y-112359500D01*
X129202297Y-112386597D01*
X129202293Y-112386598D01*
X129037561Y-112440123D01*
X129037558Y-112440125D01*
X128883214Y-112518766D01*
X128743073Y-112620585D01*
X128620585Y-112743073D01*
X128518766Y-112883214D01*
X128440125Y-113037558D01*
X128440123Y-113037561D01*
X128386598Y-113202293D01*
X128386597Y-113202297D01*
X128359500Y-113373385D01*
X126376909Y-113373385D01*
X126338015Y-113334491D01*
X126338012Y-113334489D01*
X126338010Y-113334487D01*
X126212488Y-113262017D01*
X126212489Y-113262017D01*
X126182896Y-113254087D01*
X126072475Y-113224500D01*
X125927525Y-113224500D01*
X125865790Y-113241041D01*
X125787510Y-113262017D01*
X125661989Y-113334487D01*
X125559487Y-113436989D01*
X125487017Y-113562510D01*
X125487016Y-113562515D01*
X125449500Y-113702525D01*
X114787102Y-113702525D01*
X114762984Y-113612515D01*
X114762982Y-113612512D01*
X114762982Y-113612510D01*
X114690512Y-113486989D01*
X114690510Y-113486987D01*
X114690509Y-113486985D01*
X114588015Y-113384491D01*
X114588012Y-113384489D01*
X114588010Y-113384487D01*
X114462488Y-113312017D01*
X114462489Y-113312017D01*
X114432896Y-113304087D01*
X114322475Y-113274500D01*
X114177525Y-113274500D01*
X114115790Y-113291041D01*
X114037510Y-113312017D01*
X113911989Y-113384487D01*
X113809487Y-113486989D01*
X113737017Y-113612510D01*
X113708831Y-113717701D01*
X113699500Y-113752525D01*
X100300500Y-113752525D01*
X100300500Y-112102525D01*
X113699500Y-112102525D01*
X113699500Y-112247475D01*
X113729087Y-112357896D01*
X113737017Y-112387489D01*
X113809487Y-112513010D01*
X113809489Y-112513012D01*
X113809491Y-112513015D01*
X113911985Y-112615509D01*
X113911987Y-112615510D01*
X113911989Y-112615512D01*
X114037511Y-112687982D01*
X114037512Y-112687982D01*
X114037515Y-112687984D01*
X114177525Y-112725500D01*
X114177526Y-112725500D01*
X114322474Y-112725500D01*
X114322475Y-112725500D01*
X114462485Y-112687984D01*
X114462487Y-112687982D01*
X114462489Y-112687982D01*
X114588010Y-112615512D01*
X114588010Y-112615511D01*
X114588015Y-112615509D01*
X114690509Y-112513015D01*
X114732592Y-112440125D01*
X114762982Y-112387489D01*
X114762982Y-112387487D01*
X114762984Y-112387485D01*
X114800500Y-112247475D01*
X114800500Y-112102525D01*
X114762984Y-111962515D01*
X114762982Y-111962512D01*
X114762982Y-111962510D01*
X114690512Y-111836989D01*
X114690510Y-111836987D01*
X114690509Y-111836985D01*
X114588015Y-111734491D01*
X114588012Y-111734489D01*
X114588010Y-111734487D01*
X114462488Y-111662017D01*
X114462489Y-111662017D01*
X114368856Y-111636928D01*
X114322475Y-111624500D01*
X114177525Y-111624500D01*
X114131151Y-111636926D01*
X114037510Y-111662017D01*
X113911989Y-111734487D01*
X113809487Y-111836989D01*
X113737017Y-111962510D01*
X113721479Y-112020500D01*
X113699500Y-112102525D01*
X100300500Y-112102525D01*
X100300500Y-110552525D01*
X111612000Y-110552525D01*
X111612000Y-110697474D01*
X111649517Y-110837489D01*
X111721987Y-110963010D01*
X111721989Y-110963012D01*
X111721991Y-110963015D01*
X111824485Y-111065509D01*
X111824487Y-111065510D01*
X111824489Y-111065512D01*
X111950011Y-111137982D01*
X111950012Y-111137982D01*
X111950015Y-111137984D01*
X112090025Y-111175500D01*
X112090026Y-111175500D01*
X112234974Y-111175500D01*
X112234975Y-111175500D01*
X112374985Y-111137984D01*
X112374987Y-111137982D01*
X112374989Y-111137982D01*
X112500510Y-111065512D01*
X112500510Y-111065511D01*
X112500515Y-111065509D01*
X112603009Y-110963015D01*
X112675484Y-110837485D01*
X112713000Y-110697475D01*
X112713000Y-110552525D01*
X112675484Y-110412515D01*
X112675482Y-110412512D01*
X112675482Y-110412510D01*
X112603012Y-110286989D01*
X112603010Y-110286987D01*
X112603009Y-110286985D01*
X112500515Y-110184491D01*
X112500512Y-110184489D01*
X112500510Y-110184487D01*
X112395383Y-110123792D01*
X112374988Y-110112017D01*
X112374989Y-110112017D01*
X112345396Y-110104087D01*
X112234975Y-110074500D01*
X112090025Y-110074500D01*
X112028290Y-110091041D01*
X111950010Y-110112017D01*
X111824489Y-110184487D01*
X111721987Y-110286989D01*
X111649517Y-110412510D01*
X111612000Y-110552525D01*
X100300500Y-110552525D01*
X100300500Y-110044545D01*
X113639192Y-110044545D01*
X113639192Y-110189495D01*
X113665315Y-110286985D01*
X113676709Y-110329509D01*
X113749179Y-110455030D01*
X113749181Y-110455032D01*
X113749183Y-110455035D01*
X113851677Y-110557529D01*
X113851679Y-110557530D01*
X113851681Y-110557532D01*
X113977203Y-110630002D01*
X113977204Y-110630002D01*
X113977207Y-110630004D01*
X114117217Y-110667520D01*
X114117218Y-110667520D01*
X114262166Y-110667520D01*
X114262167Y-110667520D01*
X114402177Y-110630004D01*
X114402179Y-110630002D01*
X114402181Y-110630002D01*
X114527702Y-110557532D01*
X114527702Y-110557531D01*
X114527707Y-110557529D01*
X114532711Y-110552525D01*
X122112000Y-110552525D01*
X122112000Y-110697474D01*
X122149517Y-110837489D01*
X122221987Y-110963010D01*
X122221989Y-110963012D01*
X122221991Y-110963015D01*
X122324485Y-111065509D01*
X122324487Y-111065510D01*
X122324489Y-111065512D01*
X122450011Y-111137982D01*
X122450012Y-111137982D01*
X122450015Y-111137984D01*
X122590025Y-111175500D01*
X122590026Y-111175500D01*
X122734974Y-111175500D01*
X122734975Y-111175500D01*
X122874985Y-111137984D01*
X122874987Y-111137982D01*
X122874989Y-111137982D01*
X123000510Y-111065512D01*
X123000510Y-111065511D01*
X123000515Y-111065509D01*
X123103009Y-110963015D01*
X123175484Y-110837485D01*
X123176583Y-110833385D01*
X128359500Y-110833385D01*
X128359500Y-111006614D01*
X128386597Y-111177702D01*
X128386598Y-111177706D01*
X128440123Y-111342438D01*
X128440125Y-111342441D01*
X128440126Y-111342444D01*
X128440127Y-111342445D01*
X128518768Y-111496788D01*
X128620586Y-111636928D01*
X128743072Y-111759414D01*
X128883212Y-111861232D01*
X129037555Y-111939873D01*
X129037557Y-111939873D01*
X129037558Y-111939874D01*
X129037561Y-111939876D01*
X129202293Y-111993401D01*
X129202297Y-111993402D01*
X129373386Y-112020500D01*
X129373389Y-112020500D01*
X130846614Y-112020500D01*
X131017702Y-111993402D01*
X131017706Y-111993401D01*
X131182438Y-111939876D01*
X131182440Y-111939874D01*
X131182445Y-111939873D01*
X131336788Y-111861232D01*
X131476928Y-111759414D01*
X131599414Y-111636928D01*
X131701232Y-111496788D01*
X131779873Y-111342445D01*
X131779874Y-111342440D01*
X131779876Y-111342438D01*
X131833401Y-111177706D01*
X131833402Y-111177701D01*
X131841762Y-111124922D01*
X131860500Y-111006614D01*
X131860500Y-110833385D01*
X131841762Y-110715078D01*
X131834622Y-110669999D01*
X145912768Y-110669999D01*
X145912769Y-110670000D01*
X147456988Y-110670000D01*
X147424075Y-110727007D01*
X147390000Y-110854174D01*
X147390000Y-110985826D01*
X147424075Y-111112993D01*
X147456988Y-111170000D01*
X145912769Y-111170000D01*
X145923241Y-111236122D01*
X145988904Y-111438215D01*
X146085375Y-111627552D01*
X146210277Y-111799464D01*
X146360535Y-111949722D01*
X146532447Y-112074624D01*
X146721786Y-112171096D01*
X146893886Y-112227014D01*
X146943386Y-112262978D01*
X146962294Y-112321169D01*
X146943387Y-112379359D01*
X146893888Y-112415323D01*
X146817558Y-112440125D01*
X146663214Y-112518766D01*
X146523073Y-112620585D01*
X146400585Y-112743073D01*
X146298766Y-112883214D01*
X146220125Y-113037558D01*
X146220123Y-113037561D01*
X146166598Y-113202293D01*
X146166597Y-113202297D01*
X146139500Y-113373385D01*
X146139500Y-113546614D01*
X146166597Y-113717702D01*
X146166598Y-113717706D01*
X146220123Y-113882438D01*
X146220125Y-113882441D01*
X146220126Y-113882444D01*
X146220127Y-113882445D01*
X146298768Y-114036788D01*
X146400586Y-114176928D01*
X146523072Y-114299414D01*
X146663212Y-114401232D01*
X146817555Y-114479873D01*
X146817557Y-114479873D01*
X146817558Y-114479874D01*
X146817561Y-114479876D01*
X146982293Y-114533401D01*
X146982297Y-114533402D01*
X147153386Y-114560500D01*
X147153389Y-114560500D01*
X148626614Y-114560500D01*
X148797702Y-114533402D01*
X148797706Y-114533401D01*
X148962438Y-114479876D01*
X148962440Y-114479874D01*
X148962445Y-114479873D01*
X149116788Y-114401232D01*
X149256928Y-114299414D01*
X149379414Y-114176928D01*
X149481232Y-114036788D01*
X149559873Y-113882445D01*
X149559874Y-113882440D01*
X149559876Y-113882438D01*
X149613401Y-113717706D01*
X149613402Y-113717702D01*
X149640500Y-113546614D01*
X149640500Y-113373385D01*
X149613402Y-113202297D01*
X149613401Y-113202293D01*
X149559876Y-113037561D01*
X149559874Y-113037558D01*
X149559873Y-113037557D01*
X149559873Y-113037555D01*
X149481232Y-112883212D01*
X149379414Y-112743072D01*
X149256928Y-112620586D01*
X149116788Y-112518768D01*
X149116787Y-112518767D01*
X149116785Y-112518766D01*
X148962441Y-112440125D01*
X148886111Y-112415323D01*
X148836612Y-112379359D01*
X148817705Y-112321168D01*
X148836613Y-112262977D01*
X148886113Y-112227014D01*
X149058213Y-112171096D01*
X149247552Y-112074624D01*
X149419464Y-111949722D01*
X149569722Y-111799464D01*
X149694624Y-111627552D01*
X149791095Y-111438215D01*
X149856758Y-111236122D01*
X149867231Y-111170000D01*
X148323012Y-111170000D01*
X148355925Y-111112993D01*
X148390000Y-110985826D01*
X148390000Y-110854174D01*
X148355925Y-110727007D01*
X148323012Y-110670000D01*
X149867231Y-110670000D01*
X149867231Y-110669999D01*
X149856758Y-110603877D01*
X149791095Y-110401784D01*
X149694624Y-110212447D01*
X149569722Y-110040535D01*
X149419464Y-109890277D01*
X149247552Y-109765375D01*
X149058215Y-109668904D01*
X148886112Y-109612985D01*
X148836612Y-109577021D01*
X148817705Y-109518830D01*
X148836612Y-109460639D01*
X148886111Y-109424675D01*
X148962445Y-109399873D01*
X149116788Y-109321232D01*
X149256928Y-109219414D01*
X149379414Y-109096928D01*
X149481232Y-108956788D01*
X149559873Y-108802445D01*
X149559874Y-108802440D01*
X149559876Y-108802438D01*
X149613401Y-108637706D01*
X149613402Y-108637702D01*
X149640500Y-108466614D01*
X149640500Y-108293385D01*
X149613402Y-108122297D01*
X149613401Y-108122293D01*
X149559876Y-107957561D01*
X149559874Y-107957558D01*
X149559873Y-107957557D01*
X149559873Y-107957555D01*
X149481232Y-107803212D01*
X149379414Y-107663072D01*
X149256928Y-107540586D01*
X149116788Y-107438768D01*
X149116787Y-107438767D01*
X149116785Y-107438766D01*
X148962441Y-107360125D01*
X148962438Y-107360123D01*
X148797706Y-107306598D01*
X148797702Y-107306597D01*
X148626614Y-107279500D01*
X148626611Y-107279500D01*
X147153389Y-107279500D01*
X147153386Y-107279500D01*
X146982297Y-107306597D01*
X146982293Y-107306598D01*
X146817561Y-107360123D01*
X146817558Y-107360125D01*
X146663214Y-107438766D01*
X146523073Y-107540585D01*
X146400585Y-107663073D01*
X146298766Y-107803214D01*
X146220125Y-107957558D01*
X146220123Y-107957561D01*
X146166598Y-108122293D01*
X146166597Y-108122297D01*
X146139500Y-108293385D01*
X146139500Y-108466614D01*
X146166597Y-108637702D01*
X146166598Y-108637706D01*
X146220123Y-108802438D01*
X146220125Y-108802441D01*
X146220126Y-108802444D01*
X146220127Y-108802445D01*
X146298768Y-108956788D01*
X146400586Y-109096928D01*
X146523072Y-109219414D01*
X146663212Y-109321232D01*
X146817555Y-109399873D01*
X146817557Y-109399873D01*
X146817558Y-109399874D01*
X146817561Y-109399876D01*
X146893887Y-109424676D01*
X146943387Y-109460640D01*
X146962294Y-109518830D01*
X146943386Y-109577021D01*
X146893887Y-109612985D01*
X146721784Y-109668904D01*
X146532447Y-109765375D01*
X146360535Y-109890277D01*
X146210277Y-110040535D01*
X146085375Y-110212447D01*
X145988904Y-110401784D01*
X145923241Y-110603877D01*
X145912768Y-110669999D01*
X131834622Y-110669999D01*
X131833402Y-110662298D01*
X131833401Y-110662293D01*
X131779876Y-110497561D01*
X131779874Y-110497558D01*
X131779873Y-110497557D01*
X131779873Y-110497555D01*
X131701232Y-110343212D01*
X131599414Y-110203072D01*
X131476928Y-110080586D01*
X131336788Y-109978768D01*
X131336787Y-109978767D01*
X131336785Y-109978766D01*
X131182441Y-109900125D01*
X131182438Y-109900123D01*
X131017706Y-109846598D01*
X131017702Y-109846597D01*
X130846614Y-109819500D01*
X130846611Y-109819500D01*
X129373389Y-109819500D01*
X129373386Y-109819500D01*
X129202297Y-109846597D01*
X129202293Y-109846598D01*
X129037561Y-109900123D01*
X129037558Y-109900125D01*
X128883214Y-109978766D01*
X128743073Y-110080585D01*
X128620585Y-110203073D01*
X128518766Y-110343214D01*
X128440125Y-110497558D01*
X128440123Y-110497561D01*
X128386598Y-110662293D01*
X128386597Y-110662297D01*
X128359500Y-110833385D01*
X123176583Y-110833385D01*
X123213000Y-110697475D01*
X123213000Y-110552525D01*
X123175484Y-110412515D01*
X123175482Y-110412512D01*
X123175482Y-110412510D01*
X123103012Y-110286989D01*
X123103010Y-110286987D01*
X123103009Y-110286985D01*
X123000515Y-110184491D01*
X123000512Y-110184489D01*
X123000510Y-110184487D01*
X122874988Y-110112017D01*
X122874989Y-110112017D01*
X122845396Y-110104087D01*
X122734975Y-110074500D01*
X122590025Y-110074500D01*
X122528290Y-110091041D01*
X122450010Y-110112017D01*
X122324489Y-110184487D01*
X122221987Y-110286989D01*
X122149517Y-110412510D01*
X122112000Y-110552525D01*
X114532711Y-110552525D01*
X114630201Y-110455035D01*
X114694761Y-110343214D01*
X114702674Y-110329509D01*
X114702674Y-110329507D01*
X114702676Y-110329505D01*
X114740192Y-110189495D01*
X114740192Y-110044545D01*
X114702676Y-109904535D01*
X114702674Y-109904532D01*
X114702674Y-109904530D01*
X114630204Y-109779009D01*
X114630202Y-109779007D01*
X114630201Y-109779005D01*
X114553721Y-109702525D01*
X125449500Y-109702525D01*
X125449500Y-109847474D01*
X125487017Y-109987489D01*
X125559487Y-110113010D01*
X125559489Y-110113012D01*
X125559491Y-110113015D01*
X125661985Y-110215509D01*
X125661987Y-110215510D01*
X125661989Y-110215512D01*
X125787511Y-110287982D01*
X125787512Y-110287982D01*
X125787515Y-110287984D01*
X125927525Y-110325500D01*
X125927526Y-110325500D01*
X126072474Y-110325500D01*
X126072475Y-110325500D01*
X126212485Y-110287984D01*
X126212487Y-110287982D01*
X126212489Y-110287982D01*
X126338010Y-110215512D01*
X126338010Y-110215511D01*
X126338015Y-110215509D01*
X126440509Y-110113015D01*
X126462746Y-110074500D01*
X126512982Y-109987489D01*
X126512982Y-109987487D01*
X126512984Y-109987485D01*
X126550500Y-109847475D01*
X126550500Y-109702525D01*
X126512984Y-109562515D01*
X126512982Y-109562512D01*
X126512982Y-109562510D01*
X126440512Y-109436989D01*
X126440510Y-109436987D01*
X126440509Y-109436985D01*
X126338015Y-109334491D01*
X126338012Y-109334489D01*
X126338010Y-109334487D01*
X126212488Y-109262017D01*
X126212489Y-109262017D01*
X126182896Y-109254087D01*
X126072475Y-109224500D01*
X125927525Y-109224500D01*
X125865790Y-109241041D01*
X125787510Y-109262017D01*
X125661989Y-109334487D01*
X125559487Y-109436989D01*
X125487017Y-109562510D01*
X125449500Y-109702525D01*
X114553721Y-109702525D01*
X114527707Y-109676511D01*
X114527704Y-109676509D01*
X114527702Y-109676507D01*
X114402180Y-109604037D01*
X114402181Y-109604037D01*
X114372588Y-109596107D01*
X114262167Y-109566520D01*
X114117217Y-109566520D01*
X114055482Y-109583061D01*
X113977202Y-109604037D01*
X113851681Y-109676507D01*
X113749179Y-109779009D01*
X113676709Y-109904530D01*
X113656817Y-109978768D01*
X113639192Y-110044545D01*
X100300500Y-110044545D01*
X100300500Y-107505327D01*
X128359500Y-107505327D01*
X128359500Y-109254672D01*
X128359501Y-109254684D01*
X128374033Y-109327736D01*
X128374035Y-109327742D01*
X128429397Y-109410599D01*
X128429400Y-109410602D01*
X128450464Y-109424676D01*
X128512260Y-109465966D01*
X128567808Y-109477015D01*
X128585315Y-109480498D01*
X128585320Y-109480498D01*
X128585326Y-109480500D01*
X128585327Y-109480500D01*
X131634673Y-109480500D01*
X131634674Y-109480500D01*
X131707740Y-109465966D01*
X131790601Y-109410601D01*
X131845966Y-109327740D01*
X131860500Y-109254674D01*
X131860500Y-107505326D01*
X131845966Y-107432260D01*
X131797768Y-107360125D01*
X131790602Y-107349400D01*
X131790599Y-107349397D01*
X131707742Y-107294035D01*
X131707740Y-107294034D01*
X131707737Y-107294033D01*
X131707736Y-107294033D01*
X131634684Y-107279501D01*
X131634674Y-107279500D01*
X128585326Y-107279500D01*
X128585325Y-107279500D01*
X128585315Y-107279501D01*
X128512263Y-107294033D01*
X128512257Y-107294035D01*
X128429400Y-107349397D01*
X128429397Y-107349400D01*
X128374035Y-107432257D01*
X128374033Y-107432263D01*
X128359501Y-107505315D01*
X128359500Y-107505327D01*
X100300500Y-107505327D01*
X100300500Y-106310504D01*
X111251692Y-106310504D01*
X111251692Y-106455453D01*
X111289209Y-106595468D01*
X111361679Y-106720989D01*
X111361681Y-106720991D01*
X111361683Y-106720994D01*
X111464177Y-106823488D01*
X111464179Y-106823489D01*
X111464181Y-106823491D01*
X111589703Y-106895961D01*
X111589704Y-106895961D01*
X111589707Y-106895963D01*
X111729717Y-106933479D01*
X111729718Y-106933479D01*
X111874666Y-106933479D01*
X111874667Y-106933479D01*
X112014677Y-106895963D01*
X112014679Y-106895961D01*
X112014681Y-106895961D01*
X112140202Y-106823491D01*
X112140202Y-106823490D01*
X112140207Y-106823488D01*
X112242701Y-106720994D01*
X112315176Y-106595464D01*
X112352692Y-106455454D01*
X112352692Y-106310504D01*
X121751692Y-106310504D01*
X121751692Y-106455453D01*
X121789209Y-106595468D01*
X121861679Y-106720989D01*
X121861681Y-106720991D01*
X121861683Y-106720994D01*
X121964177Y-106823488D01*
X121964179Y-106823489D01*
X121964181Y-106823491D01*
X122089703Y-106895961D01*
X122089704Y-106895961D01*
X122089707Y-106895963D01*
X122229717Y-106933479D01*
X122229718Y-106933479D01*
X122374666Y-106933479D01*
X122374667Y-106933479D01*
X122514677Y-106895963D01*
X122514679Y-106895961D01*
X122514681Y-106895961D01*
X122640202Y-106823491D01*
X122640202Y-106823490D01*
X122640207Y-106823488D01*
X122742701Y-106720994D01*
X122815176Y-106595464D01*
X122852692Y-106455454D01*
X122852692Y-106310504D01*
X122815176Y-106170494D01*
X122815174Y-106170491D01*
X122815174Y-106170489D01*
X122742704Y-106044968D01*
X122742702Y-106044966D01*
X122742701Y-106044964D01*
X122640207Y-105942470D01*
X122640204Y-105942468D01*
X122640202Y-105942466D01*
X122514680Y-105869996D01*
X122514681Y-105869996D01*
X122485088Y-105862066D01*
X122374667Y-105832479D01*
X122229717Y-105832479D01*
X122167982Y-105849020D01*
X122089702Y-105869996D01*
X121964181Y-105942466D01*
X121861679Y-106044968D01*
X121789209Y-106170489D01*
X121751692Y-106310504D01*
X112352692Y-106310504D01*
X112315176Y-106170494D01*
X112315174Y-106170491D01*
X112315174Y-106170489D01*
X112242704Y-106044968D01*
X112242702Y-106044966D01*
X112242701Y-106044964D01*
X112140207Y-105942470D01*
X112140204Y-105942468D01*
X112140202Y-105942466D01*
X112014680Y-105869996D01*
X112014681Y-105869996D01*
X111985088Y-105862066D01*
X111874667Y-105832479D01*
X111729717Y-105832479D01*
X111667982Y-105849020D01*
X111589702Y-105869996D01*
X111464181Y-105942466D01*
X111361679Y-106044968D01*
X111289209Y-106170489D01*
X111251692Y-106310504D01*
X100300500Y-106310504D01*
X100300500Y-103002773D01*
X100300656Y-102997222D01*
X100310214Y-102827028D01*
X100317162Y-102703296D01*
X100318405Y-102692270D01*
X100367253Y-102404771D01*
X100369715Y-102393981D01*
X100369793Y-102393709D01*
X101149500Y-102393709D01*
X101149500Y-102606290D01*
X101182752Y-102816238D01*
X101248443Y-103018412D01*
X101344948Y-103207815D01*
X101344950Y-103207819D01*
X101469891Y-103379786D01*
X101469893Y-103379788D01*
X101469896Y-103379792D01*
X101620208Y-103530104D01*
X101620211Y-103530106D01*
X101620213Y-103530108D01*
X101792180Y-103655049D01*
X101792184Y-103655051D01*
X101981588Y-103751557D01*
X102183757Y-103817246D01*
X102183758Y-103817246D01*
X102183761Y-103817247D01*
X102393710Y-103850500D01*
X102393713Y-103850500D01*
X102606290Y-103850500D01*
X102816238Y-103817247D01*
X102816239Y-103817246D01*
X102816243Y-103817246D01*
X103018412Y-103751557D01*
X103207816Y-103655051D01*
X103379792Y-103530104D01*
X103530104Y-103379792D01*
X103655051Y-103207816D01*
X103751557Y-103018412D01*
X103817246Y-102816243D01*
X103817247Y-102816238D01*
X103850500Y-102606290D01*
X103850500Y-102393709D01*
X148149500Y-102393709D01*
X148149500Y-102606290D01*
X148182752Y-102816238D01*
X148248443Y-103018412D01*
X148344948Y-103207815D01*
X148344950Y-103207819D01*
X148469891Y-103379786D01*
X148469893Y-103379788D01*
X148469896Y-103379792D01*
X148620208Y-103530104D01*
X148620211Y-103530106D01*
X148620213Y-103530108D01*
X148792180Y-103655049D01*
X148792184Y-103655051D01*
X148981588Y-103751557D01*
X149183757Y-103817246D01*
X149183758Y-103817246D01*
X149183761Y-103817247D01*
X149393710Y-103850500D01*
X149393713Y-103850500D01*
X149606290Y-103850500D01*
X149816238Y-103817247D01*
X149816239Y-103817246D01*
X149816243Y-103817246D01*
X150018412Y-103751557D01*
X150207816Y-103655051D01*
X150379792Y-103530104D01*
X150530104Y-103379792D01*
X150655051Y-103207816D01*
X150751557Y-103018412D01*
X150817246Y-102816243D01*
X150817247Y-102816238D01*
X150850500Y-102606290D01*
X150850500Y-102393709D01*
X150817247Y-102183761D01*
X150817246Y-102183757D01*
X150751557Y-101981588D01*
X150655051Y-101792184D01*
X150655049Y-101792180D01*
X150530108Y-101620213D01*
X150530106Y-101620211D01*
X150530104Y-101620208D01*
X150379792Y-101469896D01*
X150379788Y-101469893D01*
X150379786Y-101469891D01*
X150207819Y-101344950D01*
X150207815Y-101344948D01*
X150018412Y-101248443D01*
X149816238Y-101182752D01*
X149606290Y-101149500D01*
X149606287Y-101149500D01*
X149393713Y-101149500D01*
X149393710Y-101149500D01*
X149183761Y-101182752D01*
X148981587Y-101248443D01*
X148792184Y-101344948D01*
X148792180Y-101344950D01*
X148620213Y-101469891D01*
X148469891Y-101620213D01*
X148344950Y-101792180D01*
X148344948Y-101792184D01*
X148248443Y-101981587D01*
X148182752Y-102183761D01*
X148149500Y-102393709D01*
X103850500Y-102393709D01*
X103817247Y-102183761D01*
X103817246Y-102183757D01*
X103751557Y-101981588D01*
X103655051Y-101792184D01*
X103655049Y-101792180D01*
X103530108Y-101620213D01*
X103530106Y-101620211D01*
X103530104Y-101620208D01*
X103379792Y-101469896D01*
X103379788Y-101469893D01*
X103379786Y-101469891D01*
X103207819Y-101344950D01*
X103207815Y-101344948D01*
X103018412Y-101248443D01*
X102816238Y-101182752D01*
X102606290Y-101149500D01*
X102606287Y-101149500D01*
X102393713Y-101149500D01*
X102393710Y-101149500D01*
X102183761Y-101182752D01*
X101981587Y-101248443D01*
X101792184Y-101344948D01*
X101792180Y-101344950D01*
X101620213Y-101469891D01*
X101469891Y-101620213D01*
X101344950Y-101792180D01*
X101344948Y-101792184D01*
X101248443Y-101981587D01*
X101182752Y-102183761D01*
X101149500Y-102393709D01*
X100369793Y-102393709D01*
X100450451Y-102113742D01*
X100454111Y-102103283D01*
X100565711Y-101833858D01*
X100570525Y-101823863D01*
X100575101Y-101815584D01*
X100711583Y-101568637D01*
X100717475Y-101559258D01*
X100886246Y-101321399D01*
X100893131Y-101312765D01*
X101087476Y-101095294D01*
X101095294Y-101087476D01*
X101312765Y-100893131D01*
X101321399Y-100886246D01*
X101559258Y-100717475D01*
X101568637Y-100711583D01*
X101823869Y-100570521D01*
X101833858Y-100565711D01*
X102103283Y-100454111D01*
X102113742Y-100450451D01*
X102393985Y-100369714D01*
X102404771Y-100367253D01*
X102692277Y-100318404D01*
X102703296Y-100317162D01*
X102997222Y-100300655D01*
X103002773Y-100300500D01*
X103047595Y-100300500D01*
X148952405Y-100300500D01*
X148997227Y-100300500D01*
X149002777Y-100300655D01*
G37*
%TD.AperFunction*%
%TD*%
M02*
