%TF.GenerationSoftware,KiCad,Pcbnew,10.0.5*%
%TF.CreationDate,2026-08-06T14:06:45-04:00*%
%TF.ProjectId,Flexitac 2.0,466c6578-6974-4616-9320-322e302e6b69,rev?*%
%TF.SameCoordinates,Original*%
%TF.FileFunction,Drillmap*%
%TF.FilePolarity,Positive*%
%FSLAX45Y45*%
G04 Gerber Fmt 4.5, Leading zero omitted, Abs format (unit mm)*
G04 Created by KiCad (PCBNEW 10.0.5) date 2026-08-06 14:06:45*
%MOMM*%
%LPD*%
G01*
G04 APERTURE LIST*
%ADD10C,0.100000*%
%ADD11C,0.200000*%
G04 APERTURE END LIST*
D10*
X10000000Y-10300000D02*
G75*
G02*
X10300000Y-10000000I300000J0D01*
G01*
X10000000Y-14300000D02*
X10000000Y-10300000D01*
X10300000Y-10000000D02*
X14900000Y-10000000D01*
X10300000Y-14600000D02*
G75*
G02*
X10000000Y-14300000I0J300000D01*
G01*
X14900000Y-10000000D02*
G75*
G02*
X15200000Y-10300000I0J-300000D01*
G01*
X14900000Y-14600000D02*
X10300000Y-14600000D01*
X15200000Y-10300000D02*
X15200000Y-14300000D01*
X15200000Y-14300000D02*
G75*
G02*
X14900000Y-14600000I-300000J0D01*
G01*
D11*
D10*
X10175000Y-12807500D02*
X10205000Y-12837500D01*
X10205000Y-12807500D02*
X10175000Y-12837500D01*
X10207500Y-12385000D02*
X10237500Y-12415000D01*
X10237500Y-12385000D02*
X10207500Y-12415000D01*
X10230000Y-10830000D02*
X10260000Y-10860000D01*
X10260000Y-10830000D02*
X10230000Y-10860000D01*
X10230000Y-11430000D02*
X10260000Y-11460000D01*
X10260000Y-11430000D02*
X10230000Y-11460000D01*
X10230000Y-12030000D02*
X10260000Y-12060000D01*
X10260000Y-12030000D02*
X10230000Y-12060000D01*
X10230000Y-13830000D02*
X10260000Y-13860000D01*
X10260000Y-13830000D02*
X10230000Y-13860000D01*
X10241000Y-13426700D02*
X10271000Y-13456700D01*
X10271000Y-13426700D02*
X10241000Y-13456700D01*
X10344980Y-10659980D02*
X10374980Y-10689980D01*
X10374980Y-10659980D02*
X10344980Y-10689980D01*
X10362500Y-12385000D02*
X10392500Y-12415000D01*
X10392500Y-12385000D02*
X10362500Y-12415000D01*
X10363990Y-12477860D02*
X10393990Y-12507860D01*
X10393990Y-12477860D02*
X10363990Y-12507860D01*
X10370000Y-14425000D02*
X10400000Y-14455000D01*
X10400000Y-14425000D02*
X10370000Y-14455000D01*
X10404800Y-11146700D02*
X10434800Y-11176700D01*
X10434800Y-11146700D02*
X10404800Y-11176700D01*
X10404800Y-11946700D02*
X10434800Y-11976700D01*
X10434800Y-11946700D02*
X10404800Y-11976700D01*
X10416950Y-11373230D02*
X10446950Y-11403230D01*
X10446950Y-11373230D02*
X10416950Y-11403230D01*
X10426910Y-11297720D02*
X10456910Y-11327720D01*
X10456910Y-11297720D02*
X10426910Y-11327720D01*
X10484060Y-12596710D02*
X10514060Y-12626710D01*
X10514060Y-12596710D02*
X10484060Y-12626710D01*
X10490520Y-12911320D02*
X10520520Y-12941320D01*
X10520520Y-12911320D02*
X10490520Y-12941320D01*
X10490700Y-11227740D02*
X10520700Y-11257740D01*
X10520700Y-11227740D02*
X10490700Y-11257740D01*
X10511550Y-13878240D02*
X10541550Y-13908240D01*
X10541550Y-13878240D02*
X10511550Y-13908240D01*
X10599850Y-14198280D02*
X10629850Y-14228280D01*
X10629850Y-14198280D02*
X10599850Y-14228280D01*
X10602500Y-12385000D02*
X10632500Y-12415000D01*
X10632500Y-12385000D02*
X10602500Y-12415000D01*
X10631610Y-11037380D02*
X10661610Y-11067380D01*
X10661610Y-11037380D02*
X10631610Y-11067380D01*
X10642800Y-13744420D02*
X10672800Y-13774420D01*
X10672800Y-13744420D02*
X10642800Y-13774420D01*
X10652100Y-14135990D02*
X10682100Y-14165990D01*
X10682100Y-14135990D02*
X10652100Y-14165990D01*
X10673260Y-10658640D02*
X10703260Y-10688640D01*
X10703260Y-10658640D02*
X10673260Y-10688640D01*
X10716820Y-10972020D02*
X10746820Y-11002020D01*
X10746820Y-10972020D02*
X10716820Y-11002020D01*
X10724590Y-10891630D02*
X10754590Y-10921630D01*
X10754590Y-10891630D02*
X10724590Y-10921630D01*
X10737430Y-14146830D02*
X10767430Y-14176830D01*
X10767430Y-14146830D02*
X10737430Y-14176830D01*
X10750330Y-13888980D02*
X10780330Y-13918980D01*
X10780330Y-13888980D02*
X10750330Y-13918980D01*
X10784660Y-12773750D02*
X10814660Y-12803750D01*
X10814660Y-12773750D02*
X10784660Y-12803750D01*
X10827580Y-13800470D02*
X10857580Y-13830470D01*
X10857580Y-13800470D02*
X10827580Y-13830470D01*
X10830000Y-10230000D02*
X10860000Y-10260000D01*
X10860000Y-10230000D02*
X10830000Y-10260000D01*
X10834840Y-13876730D02*
X10864840Y-13906730D01*
X10864840Y-13876730D02*
X10834840Y-13906730D01*
X10867500Y-12285000D02*
X10897500Y-12315000D01*
X10897500Y-12285000D02*
X10867500Y-12315000D01*
X10884310Y-13093320D02*
X10914310Y-13123320D01*
X10914310Y-13093320D02*
X10884310Y-13123320D01*
X10892320Y-13178120D02*
X10922320Y-13208120D01*
X10922320Y-13178120D02*
X10892320Y-13208120D01*
X10892640Y-12662070D02*
X10922640Y-12692070D01*
X10922640Y-12662070D02*
X10892640Y-12692070D01*
X10893310Y-13008770D02*
X10923310Y-13038770D01*
X10923310Y-13008770D02*
X10893310Y-13038770D01*
X10921230Y-10633750D02*
X10951230Y-10663750D01*
X10951230Y-10633750D02*
X10921230Y-10663750D01*
X10934350Y-14217360D02*
X10964350Y-14247360D01*
X10964350Y-14217360D02*
X10934350Y-14247360D01*
X10983860Y-13789810D02*
X11013860Y-13819810D01*
X11013860Y-13789810D02*
X10983860Y-13819810D01*
X10987110Y-13887280D02*
X11017110Y-13917280D01*
X11017110Y-13887280D02*
X10987110Y-13917280D01*
X11008970Y-11345910D02*
X11038970Y-11375910D01*
X11038970Y-11345910D02*
X11008970Y-11375910D01*
X11013800Y-12417500D02*
X11043800Y-12447500D01*
X11043800Y-12417500D02*
X11013800Y-12447500D01*
X11040510Y-14111660D02*
X11070510Y-14141660D01*
X11070510Y-14111660D02*
X11040510Y-14141660D01*
X11079800Y-12253300D02*
X11109800Y-12283300D01*
X11109800Y-12253300D02*
X11079800Y-12283300D01*
X11079800Y-12318300D02*
X11109800Y-12348300D01*
X11109800Y-12318300D02*
X11079800Y-12348300D01*
X11079800Y-12516700D02*
X11109800Y-12546700D01*
X11109800Y-12516700D02*
X11079800Y-12546700D01*
X11129000Y-12643300D02*
X11159000Y-12673300D01*
X11159000Y-12643300D02*
X11129000Y-12673300D01*
X11129000Y-13426700D02*
X11159000Y-13456700D01*
X11159000Y-13426700D02*
X11129000Y-13456700D01*
X11135310Y-13840660D02*
X11165310Y-13870660D01*
X11165310Y-13840660D02*
X11135310Y-13870660D01*
X11165200Y-10623300D02*
X11195200Y-10653300D01*
X11195200Y-10623300D02*
X11165200Y-10653300D01*
X11165200Y-11423300D02*
X11195200Y-11453300D01*
X11195200Y-11423300D02*
X11165200Y-11453300D01*
X11178510Y-14152410D02*
X11208510Y-14182410D01*
X11208510Y-14152410D02*
X11178510Y-14182410D01*
X11183230Y-13194500D02*
X11213230Y-13224500D01*
X11213230Y-13194500D02*
X11183230Y-13224500D01*
X11201200Y-10852500D02*
X11231200Y-10882500D01*
X11231200Y-10852500D02*
X11201200Y-10882500D01*
X11201200Y-11047500D02*
X11231200Y-11077500D01*
X11231200Y-11047500D02*
X11201200Y-11077500D01*
X11201200Y-11652500D02*
X11231200Y-11682500D01*
X11231200Y-11652500D02*
X11201200Y-11682500D01*
X11201200Y-11847500D02*
X11231200Y-11877500D01*
X11231200Y-11847500D02*
X11201200Y-11877500D01*
X11215070Y-13860940D02*
X11245070Y-13890940D01*
X11245070Y-13860940D02*
X11215070Y-13890940D01*
X11250030Y-13023320D02*
X11280030Y-13053320D01*
X11280030Y-13023320D02*
X11250030Y-13053320D01*
X11255200Y-11901430D02*
X11285200Y-11931430D01*
X11285200Y-11901430D02*
X11255200Y-11931430D01*
X11261450Y-13145420D02*
X11291450Y-13175420D01*
X11291450Y-13145420D02*
X11261450Y-13175420D01*
X11261560Y-12718450D02*
X11291560Y-12748450D01*
X11291560Y-12718450D02*
X11261560Y-12748450D01*
X11264570Y-12626250D02*
X11294570Y-12656250D01*
X11294570Y-12626250D02*
X11264570Y-12656250D01*
X11268190Y-11469450D02*
X11298190Y-11499450D01*
X11298190Y-11469450D02*
X11268190Y-11499450D01*
X11269030Y-13270980D02*
X11299030Y-13300980D01*
X11299030Y-13270980D02*
X11269030Y-13300980D01*
X11285290Y-10708090D02*
X11315290Y-10738090D01*
X11315290Y-10708090D02*
X11285290Y-10738090D01*
X11292630Y-13842190D02*
X11322630Y-13872190D01*
X11322630Y-13842190D02*
X11292630Y-13872190D01*
X11300000Y-14425000D02*
X11330000Y-14455000D01*
X11330000Y-14425000D02*
X11300000Y-14455000D01*
X11306900Y-12277650D02*
X11336900Y-12307650D01*
X11336900Y-12277650D02*
X11306900Y-12307650D01*
X11307500Y-12185000D02*
X11337500Y-12215000D01*
X11337500Y-12185000D02*
X11307500Y-12215000D01*
X11311000Y-11073860D02*
X11341000Y-11103860D01*
X11341000Y-11073860D02*
X11311000Y-11103860D01*
X11329310Y-11952530D02*
X11359310Y-11982530D01*
X11359310Y-11952530D02*
X11329310Y-11982530D01*
X11386530Y-10629050D02*
X11416530Y-10659050D01*
X11416530Y-10629050D02*
X11386530Y-10659050D01*
X11404000Y-10841700D02*
X11434000Y-10871700D01*
X11434000Y-10841700D02*
X11404000Y-10871700D01*
X11404000Y-10996700D02*
X11434000Y-11026700D01*
X11434000Y-10996700D02*
X11404000Y-11026700D01*
X11404000Y-11641700D02*
X11434000Y-11671700D01*
X11434000Y-11641700D02*
X11404000Y-11671700D01*
X11404000Y-11796700D02*
X11434000Y-11826700D01*
X11434000Y-11796700D02*
X11404000Y-11826700D01*
X11410000Y-11202500D02*
X11440000Y-11232500D01*
X11440000Y-11202500D02*
X11410000Y-11232500D01*
X11410000Y-11367500D02*
X11440000Y-11397500D01*
X11440000Y-11367500D02*
X11410000Y-11397500D01*
X11430000Y-10230000D02*
X11460000Y-10260000D01*
X11460000Y-10230000D02*
X11430000Y-10260000D01*
X11436200Y-12352500D02*
X11466200Y-12382500D01*
X11466200Y-12352500D02*
X11436200Y-12382500D01*
X11436200Y-12417500D02*
X11466200Y-12447500D01*
X11466200Y-12417500D02*
X11436200Y-12447500D01*
X11454800Y-11946700D02*
X11484800Y-11976700D01*
X11484800Y-11946700D02*
X11454800Y-11976700D01*
X11462500Y-12185000D02*
X11492500Y-12215000D01*
X11492500Y-12185000D02*
X11462500Y-12215000D01*
X11475110Y-13333620D02*
X11505110Y-13363620D01*
X11505110Y-13333620D02*
X11475110Y-13363620D01*
X11479210Y-14123930D02*
X11509210Y-14153930D01*
X11509210Y-14123930D02*
X11479210Y-14153930D01*
X11492910Y-12901550D02*
X11522910Y-12931550D01*
X11522910Y-12901550D02*
X11492910Y-12931550D01*
X11500000Y-14425000D02*
X11530000Y-14455000D01*
X11530000Y-14425000D02*
X11500000Y-14455000D01*
X11536360Y-13820470D02*
X11566360Y-13850470D01*
X11566360Y-13820470D02*
X11536360Y-13850470D01*
X11541000Y-12643300D02*
X11571000Y-12673300D01*
X11571000Y-12643300D02*
X11541000Y-12673300D01*
X11541000Y-13426700D02*
X11571000Y-13456700D01*
X11571000Y-13426700D02*
X11541000Y-13456700D01*
X11548800Y-11212500D02*
X11578800Y-11242500D01*
X11578800Y-11212500D02*
X11548800Y-11242500D01*
X11600020Y-12014550D02*
X11630020Y-12044550D01*
X11630020Y-12014550D02*
X11600020Y-12044550D01*
X11643830Y-14146900D02*
X11673830Y-14176900D01*
X11673830Y-14146900D02*
X11643830Y-14176900D01*
X11670520Y-11458740D02*
X11700520Y-11488740D01*
X11700520Y-11458740D02*
X11670520Y-11488740D01*
X11677740Y-14243000D02*
X11707740Y-14273000D01*
X11707740Y-14243000D02*
X11677740Y-14273000D01*
X11679430Y-10979440D02*
X11709430Y-11009440D01*
X11709430Y-10979440D02*
X11679430Y-11009440D01*
X11683940Y-13794720D02*
X11713940Y-13824720D01*
X11713940Y-13794720D02*
X11683940Y-13824720D01*
X11685840Y-11089490D02*
X11715840Y-11119490D01*
X11715840Y-11089490D02*
X11685840Y-11119490D01*
X11690200Y-12253300D02*
X11720200Y-12283300D01*
X11720200Y-12253300D02*
X11690200Y-12283300D01*
X11690200Y-12516700D02*
X11720200Y-12546700D01*
X11720200Y-12516700D02*
X11690200Y-12546700D01*
X11734730Y-11551210D02*
X11764730Y-11581210D01*
X11764730Y-11551210D02*
X11734730Y-11581210D01*
X11744550Y-10869930D02*
X11774550Y-10899930D01*
X11774550Y-10869930D02*
X11744550Y-10899930D01*
X11747000Y-11455720D02*
X11777000Y-11485720D01*
X11777000Y-11455720D02*
X11747000Y-11485720D01*
X11757790Y-14274670D02*
X11787790Y-14304670D01*
X11787790Y-14274670D02*
X11757790Y-14304670D01*
X11760610Y-13818590D02*
X11790610Y-13848590D01*
X11790610Y-13818590D02*
X11760610Y-13848590D01*
X11778930Y-10640200D02*
X11808930Y-10670200D01*
X11808930Y-10640200D02*
X11778930Y-10670200D01*
X11793090Y-11811320D02*
X11823090Y-11841320D01*
X11823090Y-11811320D02*
X11793090Y-11841320D01*
X11826300Y-14226870D02*
X11856300Y-14256870D01*
X11856300Y-14226870D02*
X11826300Y-14256870D01*
X11835790Y-13797070D02*
X11865790Y-13827070D01*
X11865790Y-13797070D02*
X11835790Y-13827070D01*
X11839990Y-10910820D02*
X11869990Y-10940820D01*
X11869990Y-10910820D02*
X11839990Y-10940820D01*
X11842000Y-11973260D02*
X11872000Y-12003260D01*
X11872000Y-11973260D02*
X11842000Y-12003260D01*
X11886900Y-11057100D02*
X11916900Y-11087100D01*
X11916900Y-11057100D02*
X11886900Y-11087100D01*
X11889040Y-11592180D02*
X11919040Y-11622180D01*
X11919040Y-11592180D02*
X11889040Y-11622180D01*
X11910970Y-13783720D02*
X11940970Y-13813720D01*
X11940970Y-13783720D02*
X11910970Y-13813720D01*
X11952500Y-12385000D02*
X11982500Y-12415000D01*
X11982500Y-12385000D02*
X11952500Y-12415000D01*
X11957810Y-11911010D02*
X11987810Y-11941010D01*
X11987810Y-11911010D02*
X11957810Y-11941010D01*
X11967600Y-14190840D02*
X11997600Y-14220840D01*
X11997600Y-14190840D02*
X11967600Y-14220840D01*
X11985640Y-13858360D02*
X12015640Y-13888360D01*
X12015640Y-13858360D02*
X11985640Y-13888360D01*
X12030000Y-10230000D02*
X12060000Y-10260000D01*
X12060000Y-10230000D02*
X12030000Y-10260000D01*
X12088960Y-12126550D02*
X12118960Y-12156550D01*
X12118960Y-12126550D02*
X12088960Y-12156550D01*
X12103970Y-12600450D02*
X12133970Y-12630450D01*
X12133970Y-12600450D02*
X12103970Y-12630450D01*
X12109670Y-12043650D02*
X12139670Y-12073650D01*
X12139670Y-12043650D02*
X12109670Y-12073650D01*
X12117500Y-12385000D02*
X12147500Y-12415000D01*
X12147500Y-12385000D02*
X12117500Y-12415000D01*
X12154340Y-14240180D02*
X12184340Y-14270180D01*
X12184340Y-14240180D02*
X12154340Y-14270180D01*
X12215200Y-10623300D02*
X12245200Y-10653300D01*
X12245200Y-10623300D02*
X12215200Y-10653300D01*
X12215200Y-11423300D02*
X12245200Y-11453300D01*
X12245200Y-11423300D02*
X12215200Y-11453300D01*
X12220300Y-14012620D02*
X12250300Y-14042620D01*
X12250300Y-14012620D02*
X12220300Y-14042620D01*
X12251200Y-10852500D02*
X12281200Y-10882500D01*
X12281200Y-10852500D02*
X12251200Y-10882500D01*
X12251200Y-11047500D02*
X12281200Y-11077500D01*
X12281200Y-11047500D02*
X12251200Y-11077500D01*
X12251200Y-11652500D02*
X12281200Y-11682500D01*
X12281200Y-11652500D02*
X12251200Y-11682500D01*
X12251200Y-11847500D02*
X12281200Y-11877500D01*
X12281200Y-11847500D02*
X12251200Y-11877500D01*
X12255840Y-12245470D02*
X12285840Y-12275470D01*
X12285840Y-12245470D02*
X12255840Y-12275470D01*
X12300000Y-14425000D02*
X12330000Y-14455000D01*
X12330000Y-14425000D02*
X12300000Y-14455000D01*
X12366210Y-10771490D02*
X12396210Y-10801490D01*
X12396210Y-10771490D02*
X12366210Y-10801490D01*
X12429000Y-12643300D02*
X12459000Y-12673300D01*
X12459000Y-12643300D02*
X12429000Y-12673300D01*
X12440160Y-13901400D02*
X12470160Y-13931400D01*
X12470160Y-13901400D02*
X12440160Y-13931400D01*
X12495000Y-13262500D02*
X12525000Y-13292500D01*
X12525000Y-13262500D02*
X12495000Y-13292500D01*
X12507520Y-12726340D02*
X12537520Y-12756340D01*
X12537520Y-12726340D02*
X12507520Y-12756340D01*
X12543330Y-13902980D02*
X12573330Y-13932980D01*
X12573330Y-13902980D02*
X12543330Y-13932980D01*
X12557500Y-13085000D02*
X12587500Y-13115000D01*
X12587500Y-13085000D02*
X12557500Y-13115000D01*
X12585000Y-10807500D02*
X12615000Y-10837500D01*
X12615000Y-10807500D02*
X12585000Y-10837500D01*
X12585000Y-10962500D02*
X12615000Y-10992500D01*
X12615000Y-10962500D02*
X12585000Y-10992500D01*
X12585000Y-11207500D02*
X12615000Y-11237500D01*
X12615000Y-11207500D02*
X12585000Y-11237500D01*
X12585000Y-11362500D02*
X12615000Y-11392500D01*
X12615000Y-11362500D02*
X12585000Y-11392500D01*
X12585000Y-11607500D02*
X12615000Y-11637500D01*
X12615000Y-11607500D02*
X12585000Y-11637500D01*
X12585000Y-11762500D02*
X12615000Y-11792500D01*
X12615000Y-11762500D02*
X12585000Y-11792500D01*
X12607580Y-13222570D02*
X12637580Y-13252570D01*
X12637580Y-13222570D02*
X12607580Y-13252570D01*
X12626230Y-14031520D02*
X12656230Y-14061520D01*
X12656230Y-14031520D02*
X12626230Y-14061520D01*
X12630000Y-10230000D02*
X12660000Y-10260000D01*
X12660000Y-10230000D02*
X12630000Y-10260000D01*
X12706900Y-13357730D02*
X12736900Y-13387730D01*
X12736900Y-13357730D02*
X12706900Y-13387730D01*
X12712500Y-13085000D02*
X12742500Y-13115000D01*
X12742500Y-13085000D02*
X12712500Y-13115000D01*
X12761600Y-12226800D02*
X12791600Y-12256800D01*
X12791600Y-12226800D02*
X12761600Y-12256800D01*
X12779000Y-11973300D02*
X12809000Y-12003300D01*
X12809000Y-11973300D02*
X12779000Y-12003300D01*
X12792520Y-13121740D02*
X12822520Y-13151740D01*
X12822520Y-13121740D02*
X12792520Y-13151740D01*
X12870000Y-14425000D02*
X12900000Y-14455000D01*
X12900000Y-14425000D02*
X12870000Y-14455000D01*
X12974920Y-13906170D02*
X13004920Y-13936170D01*
X13004920Y-13906170D02*
X12974920Y-13936170D01*
X13023150Y-13830530D02*
X13053150Y-13860530D01*
X13053150Y-13830530D02*
X13023150Y-13860530D01*
X13029070Y-13307670D02*
X13059070Y-13337670D01*
X13059070Y-13307670D02*
X13029070Y-13337670D01*
X13101480Y-13855170D02*
X13131480Y-13885170D01*
X13131480Y-13855170D02*
X13101480Y-13885170D01*
X13112040Y-13258240D02*
X13142040Y-13288240D01*
X13142040Y-13258240D02*
X13112040Y-13288240D01*
X13230000Y-10230000D02*
X13260000Y-10260000D01*
X13260000Y-10230000D02*
X13230000Y-10260000D01*
X13369490Y-14111640D02*
X13399490Y-14141640D01*
X13399490Y-14111640D02*
X13369490Y-14141640D01*
X13370890Y-13865380D02*
X13400890Y-13895380D01*
X13400890Y-13865380D02*
X13370890Y-13895380D01*
X13514400Y-13610120D02*
X13544400Y-13640120D01*
X13544400Y-13610120D02*
X13514400Y-13640120D01*
X13584800Y-12762860D02*
X13614800Y-12792860D01*
X13614800Y-12762860D02*
X13584800Y-12792860D01*
X13800000Y-14425000D02*
X13830000Y-14455000D01*
X13830000Y-14425000D02*
X13800000Y-14455000D01*
X13805860Y-14140000D02*
X13835860Y-14170000D01*
X13835860Y-14140000D02*
X13805860Y-14170000D01*
X13830000Y-10230000D02*
X13860000Y-10260000D01*
X13860000Y-10230000D02*
X13830000Y-10260000D01*
X14000000Y-14425000D02*
X14030000Y-14455000D01*
X14030000Y-14425000D02*
X14000000Y-14455000D01*
X14099540Y-13844680D02*
X14129540Y-13874680D01*
X14129540Y-13844680D02*
X14099540Y-13874680D01*
X14196250Y-14185620D02*
X14226250Y-14215620D01*
X14226250Y-14185620D02*
X14196250Y-14215620D01*
X14231250Y-13886570D02*
X14261250Y-13916570D01*
X14261250Y-13886570D02*
X14231250Y-13916570D01*
X14430000Y-10230000D02*
X14460000Y-10260000D01*
X14460000Y-10230000D02*
X14430000Y-10260000D01*
X14502740Y-13817260D02*
X14532740Y-13847260D01*
X14532740Y-13817260D02*
X14502740Y-13847260D01*
X14800000Y-14425000D02*
X14830000Y-14455000D01*
X14830000Y-14425000D02*
X14800000Y-14455000D01*
X13061000Y-10838000D02*
G75*
G02*
X12961000Y-10838000I-50000J0D01*
G01*
X12961000Y-10838000D02*
G75*
G02*
X13061000Y-10838000I50000J0D01*
G01*
X13061000Y-11092000D02*
G75*
G02*
X12961000Y-11092000I-50000J0D01*
G01*
X12961000Y-11092000D02*
G75*
G02*
X13061000Y-11092000I50000J0D01*
G01*
X13061000Y-11346000D02*
G75*
G02*
X12961000Y-11346000I-50000J0D01*
G01*
X12961000Y-11346000D02*
G75*
G02*
X13061000Y-11346000I50000J0D01*
G01*
X13061000Y-11600000D02*
G75*
G02*
X12961000Y-11600000I-50000J0D01*
G01*
X12961000Y-11600000D02*
G75*
G02*
X13061000Y-11600000I50000J0D01*
G01*
X13061000Y-11854000D02*
G75*
G02*
X12961000Y-11854000I-50000J0D01*
G01*
X12961000Y-11854000D02*
G75*
G02*
X13061000Y-11854000I50000J0D01*
G01*
X13061000Y-12108000D02*
G75*
G02*
X12961000Y-12108000I-50000J0D01*
G01*
X12961000Y-12108000D02*
G75*
G02*
X13061000Y-12108000I50000J0D01*
G01*
X13061000Y-12362000D02*
G75*
G02*
X12961000Y-12362000I-50000J0D01*
G01*
X12961000Y-12362000D02*
G75*
G02*
X13061000Y-12362000I50000J0D01*
G01*
X14839000Y-10838000D02*
G75*
G02*
X14739000Y-10838000I-50000J0D01*
G01*
X14739000Y-10838000D02*
G75*
G02*
X14839000Y-10838000I50000J0D01*
G01*
X14839000Y-11092000D02*
G75*
G02*
X14739000Y-11092000I-50000J0D01*
G01*
X14739000Y-11092000D02*
G75*
G02*
X14839000Y-11092000I50000J0D01*
G01*
X14839000Y-11346000D02*
G75*
G02*
X14739000Y-11346000I-50000J0D01*
G01*
X14739000Y-11346000D02*
G75*
G02*
X14839000Y-11346000I50000J0D01*
G01*
X14839000Y-11600000D02*
G75*
G02*
X14739000Y-11600000I-50000J0D01*
G01*
X14739000Y-11600000D02*
G75*
G02*
X14839000Y-11600000I50000J0D01*
G01*
X14839000Y-11854000D02*
G75*
G02*
X14739000Y-11854000I-50000J0D01*
G01*
X14739000Y-11854000D02*
G75*
G02*
X14839000Y-11854000I50000J0D01*
G01*
X14839000Y-12108000D02*
G75*
G02*
X14739000Y-12108000I-50000J0D01*
G01*
X14739000Y-12108000D02*
G75*
G02*
X14839000Y-12108000I50000J0D01*
G01*
X14839000Y-12362000D02*
G75*
G02*
X14739000Y-12362000I-50000J0D01*
G01*
X14739000Y-12362000D02*
G75*
G02*
X14839000Y-12362000I50000J0D01*
G01*
D11*
X10255777Y-14916484D02*
X10255777Y-14716484D01*
X10255777Y-14716484D02*
X10303396Y-14716484D01*
X10303396Y-14716484D02*
X10331967Y-14726008D01*
X10331967Y-14726008D02*
X10351015Y-14745055D01*
X10351015Y-14745055D02*
X10360539Y-14764103D01*
X10360539Y-14764103D02*
X10370063Y-14802198D01*
X10370063Y-14802198D02*
X10370063Y-14830769D01*
X10370063Y-14830769D02*
X10360539Y-14868865D01*
X10360539Y-14868865D02*
X10351015Y-14887912D01*
X10351015Y-14887912D02*
X10331967Y-14906960D01*
X10331967Y-14906960D02*
X10303396Y-14916484D01*
X10303396Y-14916484D02*
X10255777Y-14916484D01*
X10455777Y-14916484D02*
X10455777Y-14783150D01*
X10455777Y-14821246D02*
X10465301Y-14802198D01*
X10465301Y-14802198D02*
X10474824Y-14792674D01*
X10474824Y-14792674D02*
X10493872Y-14783150D01*
X10493872Y-14783150D02*
X10512920Y-14783150D01*
X10579586Y-14916484D02*
X10579586Y-14783150D01*
X10579586Y-14716484D02*
X10570063Y-14726008D01*
X10570063Y-14726008D02*
X10579586Y-14735531D01*
X10579586Y-14735531D02*
X10589110Y-14726008D01*
X10589110Y-14726008D02*
X10579586Y-14716484D01*
X10579586Y-14716484D02*
X10579586Y-14735531D01*
X10703396Y-14916484D02*
X10684348Y-14906960D01*
X10684348Y-14906960D02*
X10674824Y-14887912D01*
X10674824Y-14887912D02*
X10674824Y-14716484D01*
X10808158Y-14916484D02*
X10789110Y-14906960D01*
X10789110Y-14906960D02*
X10779586Y-14887912D01*
X10779586Y-14887912D02*
X10779586Y-14716484D01*
X11036729Y-14916484D02*
X11036729Y-14716484D01*
X11036729Y-14716484D02*
X11103396Y-14859341D01*
X11103396Y-14859341D02*
X11170063Y-14716484D01*
X11170063Y-14716484D02*
X11170063Y-14916484D01*
X11351015Y-14916484D02*
X11351015Y-14811722D01*
X11351015Y-14811722D02*
X11341491Y-14792674D01*
X11341491Y-14792674D02*
X11322443Y-14783150D01*
X11322443Y-14783150D02*
X11284348Y-14783150D01*
X11284348Y-14783150D02*
X11265301Y-14792674D01*
X11351015Y-14906960D02*
X11331967Y-14916484D01*
X11331967Y-14916484D02*
X11284348Y-14916484D01*
X11284348Y-14916484D02*
X11265301Y-14906960D01*
X11265301Y-14906960D02*
X11255777Y-14887912D01*
X11255777Y-14887912D02*
X11255777Y-14868865D01*
X11255777Y-14868865D02*
X11265301Y-14849817D01*
X11265301Y-14849817D02*
X11284348Y-14840293D01*
X11284348Y-14840293D02*
X11331967Y-14840293D01*
X11331967Y-14840293D02*
X11351015Y-14830769D01*
X11446253Y-14783150D02*
X11446253Y-14983150D01*
X11446253Y-14792674D02*
X11465301Y-14783150D01*
X11465301Y-14783150D02*
X11503396Y-14783150D01*
X11503396Y-14783150D02*
X11522443Y-14792674D01*
X11522443Y-14792674D02*
X11531967Y-14802198D01*
X11531967Y-14802198D02*
X11541491Y-14821246D01*
X11541491Y-14821246D02*
X11541491Y-14878388D01*
X11541491Y-14878388D02*
X11531967Y-14897436D01*
X11531967Y-14897436D02*
X11522443Y-14906960D01*
X11522443Y-14906960D02*
X11503396Y-14916484D01*
X11503396Y-14916484D02*
X11465301Y-14916484D01*
X11465301Y-14916484D02*
X11446253Y-14906960D01*
X11627205Y-14897436D02*
X11636729Y-14906960D01*
X11636729Y-14906960D02*
X11627205Y-14916484D01*
X11627205Y-14916484D02*
X11617682Y-14906960D01*
X11617682Y-14906960D02*
X11627205Y-14897436D01*
X11627205Y-14897436D02*
X11627205Y-14916484D01*
X11627205Y-14792674D02*
X11636729Y-14802198D01*
X11636729Y-14802198D02*
X11627205Y-14811722D01*
X11627205Y-14811722D02*
X11617682Y-14802198D01*
X11617682Y-14802198D02*
X11627205Y-14792674D01*
X11627205Y-14792674D02*
X11627205Y-14811722D01*
D10*
X9965000Y-15230000D02*
X9995000Y-15260000D01*
X9995000Y-15230000D02*
X9965000Y-15260000D01*
D11*
X10293872Y-15136484D02*
X10312920Y-15136484D01*
X10312920Y-15136484D02*
X10331967Y-15146008D01*
X10331967Y-15146008D02*
X10341491Y-15155531D01*
X10341491Y-15155531D02*
X10351015Y-15174579D01*
X10351015Y-15174579D02*
X10360539Y-15212674D01*
X10360539Y-15212674D02*
X10360539Y-15260293D01*
X10360539Y-15260293D02*
X10351015Y-15298388D01*
X10351015Y-15298388D02*
X10341491Y-15317436D01*
X10341491Y-15317436D02*
X10331967Y-15326960D01*
X10331967Y-15326960D02*
X10312920Y-15336484D01*
X10312920Y-15336484D02*
X10293872Y-15336484D01*
X10293872Y-15336484D02*
X10274824Y-15326960D01*
X10274824Y-15326960D02*
X10265301Y-15317436D01*
X10265301Y-15317436D02*
X10255777Y-15298388D01*
X10255777Y-15298388D02*
X10246253Y-15260293D01*
X10246253Y-15260293D02*
X10246253Y-15212674D01*
X10246253Y-15212674D02*
X10255777Y-15174579D01*
X10255777Y-15174579D02*
X10265301Y-15155531D01*
X10265301Y-15155531D02*
X10274824Y-15146008D01*
X10274824Y-15146008D02*
X10293872Y-15136484D01*
X10446253Y-15317436D02*
X10455777Y-15326960D01*
X10455777Y-15326960D02*
X10446253Y-15336484D01*
X10446253Y-15336484D02*
X10436729Y-15326960D01*
X10436729Y-15326960D02*
X10446253Y-15317436D01*
X10446253Y-15317436D02*
X10446253Y-15336484D01*
X10522444Y-15136484D02*
X10646253Y-15136484D01*
X10646253Y-15136484D02*
X10579586Y-15212674D01*
X10579586Y-15212674D02*
X10608158Y-15212674D01*
X10608158Y-15212674D02*
X10627205Y-15222198D01*
X10627205Y-15222198D02*
X10636729Y-15231722D01*
X10636729Y-15231722D02*
X10646253Y-15250769D01*
X10646253Y-15250769D02*
X10646253Y-15298388D01*
X10646253Y-15298388D02*
X10636729Y-15317436D01*
X10636729Y-15317436D02*
X10627205Y-15326960D01*
X10627205Y-15326960D02*
X10608158Y-15336484D01*
X10608158Y-15336484D02*
X10551015Y-15336484D01*
X10551015Y-15336484D02*
X10531967Y-15326960D01*
X10531967Y-15326960D02*
X10522444Y-15317436D01*
X10770063Y-15136484D02*
X10789110Y-15136484D01*
X10789110Y-15136484D02*
X10808158Y-15146008D01*
X10808158Y-15146008D02*
X10817682Y-15155531D01*
X10817682Y-15155531D02*
X10827205Y-15174579D01*
X10827205Y-15174579D02*
X10836729Y-15212674D01*
X10836729Y-15212674D02*
X10836729Y-15260293D01*
X10836729Y-15260293D02*
X10827205Y-15298388D01*
X10827205Y-15298388D02*
X10817682Y-15317436D01*
X10817682Y-15317436D02*
X10808158Y-15326960D01*
X10808158Y-15326960D02*
X10789110Y-15336484D01*
X10789110Y-15336484D02*
X10770063Y-15336484D01*
X10770063Y-15336484D02*
X10751015Y-15326960D01*
X10751015Y-15326960D02*
X10741491Y-15317436D01*
X10741491Y-15317436D02*
X10731967Y-15298388D01*
X10731967Y-15298388D02*
X10722444Y-15260293D01*
X10722444Y-15260293D02*
X10722444Y-15212674D01*
X10722444Y-15212674D02*
X10731967Y-15174579D01*
X10731967Y-15174579D02*
X10741491Y-15155531D01*
X10741491Y-15155531D02*
X10751015Y-15146008D01*
X10751015Y-15146008D02*
X10770063Y-15136484D01*
X10960539Y-15136484D02*
X10979586Y-15136484D01*
X10979586Y-15136484D02*
X10998634Y-15146008D01*
X10998634Y-15146008D02*
X11008158Y-15155531D01*
X11008158Y-15155531D02*
X11017682Y-15174579D01*
X11017682Y-15174579D02*
X11027205Y-15212674D01*
X11027205Y-15212674D02*
X11027205Y-15260293D01*
X11027205Y-15260293D02*
X11017682Y-15298388D01*
X11017682Y-15298388D02*
X11008158Y-15317436D01*
X11008158Y-15317436D02*
X10998634Y-15326960D01*
X10998634Y-15326960D02*
X10979586Y-15336484D01*
X10979586Y-15336484D02*
X10960539Y-15336484D01*
X10960539Y-15336484D02*
X10941491Y-15326960D01*
X10941491Y-15326960D02*
X10931967Y-15317436D01*
X10931967Y-15317436D02*
X10922444Y-15298388D01*
X10922444Y-15298388D02*
X10912920Y-15260293D01*
X10912920Y-15260293D02*
X10912920Y-15212674D01*
X10912920Y-15212674D02*
X10922444Y-15174579D01*
X10922444Y-15174579D02*
X10931967Y-15155531D01*
X10931967Y-15155531D02*
X10941491Y-15146008D01*
X10941491Y-15146008D02*
X10960539Y-15136484D01*
X11112920Y-15336484D02*
X11112920Y-15203150D01*
X11112920Y-15222198D02*
X11122444Y-15212674D01*
X11122444Y-15212674D02*
X11141491Y-15203150D01*
X11141491Y-15203150D02*
X11170063Y-15203150D01*
X11170063Y-15203150D02*
X11189110Y-15212674D01*
X11189110Y-15212674D02*
X11198634Y-15231722D01*
X11198634Y-15231722D02*
X11198634Y-15336484D01*
X11198634Y-15231722D02*
X11208158Y-15212674D01*
X11208158Y-15212674D02*
X11227205Y-15203150D01*
X11227205Y-15203150D02*
X11255777Y-15203150D01*
X11255777Y-15203150D02*
X11274824Y-15212674D01*
X11274824Y-15212674D02*
X11284348Y-15231722D01*
X11284348Y-15231722D02*
X11284348Y-15336484D01*
X11379586Y-15336484D02*
X11379586Y-15203150D01*
X11379586Y-15222198D02*
X11389110Y-15212674D01*
X11389110Y-15212674D02*
X11408158Y-15203150D01*
X11408158Y-15203150D02*
X11436729Y-15203150D01*
X11436729Y-15203150D02*
X11455777Y-15212674D01*
X11455777Y-15212674D02*
X11465301Y-15231722D01*
X11465301Y-15231722D02*
X11465301Y-15336484D01*
X11465301Y-15231722D02*
X11474824Y-15212674D01*
X11474824Y-15212674D02*
X11493872Y-15203150D01*
X11493872Y-15203150D02*
X11522443Y-15203150D01*
X11522443Y-15203150D02*
X11541491Y-15212674D01*
X11541491Y-15212674D02*
X11551015Y-15231722D01*
X11551015Y-15231722D02*
X11551015Y-15336484D01*
X11941491Y-15126960D02*
X11770063Y-15384103D01*
X12198634Y-15136484D02*
X12217682Y-15136484D01*
X12217682Y-15136484D02*
X12236729Y-15146008D01*
X12236729Y-15146008D02*
X12246253Y-15155531D01*
X12246253Y-15155531D02*
X12255777Y-15174579D01*
X12255777Y-15174579D02*
X12265301Y-15212674D01*
X12265301Y-15212674D02*
X12265301Y-15260293D01*
X12265301Y-15260293D02*
X12255777Y-15298388D01*
X12255777Y-15298388D02*
X12246253Y-15317436D01*
X12246253Y-15317436D02*
X12236729Y-15326960D01*
X12236729Y-15326960D02*
X12217682Y-15336484D01*
X12217682Y-15336484D02*
X12198634Y-15336484D01*
X12198634Y-15336484D02*
X12179586Y-15326960D01*
X12179586Y-15326960D02*
X12170063Y-15317436D01*
X12170063Y-15317436D02*
X12160539Y-15298388D01*
X12160539Y-15298388D02*
X12151015Y-15260293D01*
X12151015Y-15260293D02*
X12151015Y-15212674D01*
X12151015Y-15212674D02*
X12160539Y-15174579D01*
X12160539Y-15174579D02*
X12170063Y-15155531D01*
X12170063Y-15155531D02*
X12179586Y-15146008D01*
X12179586Y-15146008D02*
X12198634Y-15136484D01*
X12351015Y-15317436D02*
X12360539Y-15326960D01*
X12360539Y-15326960D02*
X12351015Y-15336484D01*
X12351015Y-15336484D02*
X12341491Y-15326960D01*
X12341491Y-15326960D02*
X12351015Y-15317436D01*
X12351015Y-15317436D02*
X12351015Y-15336484D01*
X12484348Y-15136484D02*
X12503396Y-15136484D01*
X12503396Y-15136484D02*
X12522444Y-15146008D01*
X12522444Y-15146008D02*
X12531967Y-15155531D01*
X12531967Y-15155531D02*
X12541491Y-15174579D01*
X12541491Y-15174579D02*
X12551015Y-15212674D01*
X12551015Y-15212674D02*
X12551015Y-15260293D01*
X12551015Y-15260293D02*
X12541491Y-15298388D01*
X12541491Y-15298388D02*
X12531967Y-15317436D01*
X12531967Y-15317436D02*
X12522444Y-15326960D01*
X12522444Y-15326960D02*
X12503396Y-15336484D01*
X12503396Y-15336484D02*
X12484348Y-15336484D01*
X12484348Y-15336484D02*
X12465301Y-15326960D01*
X12465301Y-15326960D02*
X12455777Y-15317436D01*
X12455777Y-15317436D02*
X12446253Y-15298388D01*
X12446253Y-15298388D02*
X12436729Y-15260293D01*
X12436729Y-15260293D02*
X12436729Y-15212674D01*
X12436729Y-15212674D02*
X12446253Y-15174579D01*
X12446253Y-15174579D02*
X12455777Y-15155531D01*
X12455777Y-15155531D02*
X12465301Y-15146008D01*
X12465301Y-15146008D02*
X12484348Y-15136484D01*
X12741491Y-15336484D02*
X12627206Y-15336484D01*
X12684348Y-15336484D02*
X12684348Y-15136484D01*
X12684348Y-15136484D02*
X12665301Y-15165055D01*
X12665301Y-15165055D02*
X12646253Y-15184103D01*
X12646253Y-15184103D02*
X12627206Y-15193627D01*
X12931967Y-15336484D02*
X12817682Y-15336484D01*
X12874825Y-15336484D02*
X12874825Y-15136484D01*
X12874825Y-15136484D02*
X12855777Y-15165055D01*
X12855777Y-15165055D02*
X12836729Y-15184103D01*
X12836729Y-15184103D02*
X12817682Y-15193627D01*
X13046253Y-15222198D02*
X13027206Y-15212674D01*
X13027206Y-15212674D02*
X13017682Y-15203150D01*
X13017682Y-15203150D02*
X13008158Y-15184103D01*
X13008158Y-15184103D02*
X13008158Y-15174579D01*
X13008158Y-15174579D02*
X13017682Y-15155531D01*
X13017682Y-15155531D02*
X13027206Y-15146008D01*
X13027206Y-15146008D02*
X13046253Y-15136484D01*
X13046253Y-15136484D02*
X13084348Y-15136484D01*
X13084348Y-15136484D02*
X13103396Y-15146008D01*
X13103396Y-15146008D02*
X13112920Y-15155531D01*
X13112920Y-15155531D02*
X13122444Y-15174579D01*
X13122444Y-15174579D02*
X13122444Y-15184103D01*
X13122444Y-15184103D02*
X13112920Y-15203150D01*
X13112920Y-15203150D02*
X13103396Y-15212674D01*
X13103396Y-15212674D02*
X13084348Y-15222198D01*
X13084348Y-15222198D02*
X13046253Y-15222198D01*
X13046253Y-15222198D02*
X13027206Y-15231722D01*
X13027206Y-15231722D02*
X13017682Y-15241246D01*
X13017682Y-15241246D02*
X13008158Y-15260293D01*
X13008158Y-15260293D02*
X13008158Y-15298388D01*
X13008158Y-15298388D02*
X13017682Y-15317436D01*
X13017682Y-15317436D02*
X13027206Y-15326960D01*
X13027206Y-15326960D02*
X13046253Y-15336484D01*
X13046253Y-15336484D02*
X13084348Y-15336484D01*
X13084348Y-15336484D02*
X13103396Y-15326960D01*
X13103396Y-15326960D02*
X13112920Y-15317436D01*
X13112920Y-15317436D02*
X13122444Y-15298388D01*
X13122444Y-15298388D02*
X13122444Y-15260293D01*
X13122444Y-15260293D02*
X13112920Y-15241246D01*
X13112920Y-15241246D02*
X13103396Y-15231722D01*
X13103396Y-15231722D02*
X13084348Y-15222198D01*
X13198634Y-15136484D02*
X13198634Y-15174579D01*
X13274825Y-15136484D02*
X13274825Y-15174579D01*
X13570063Y-15412674D02*
X13560539Y-15403150D01*
X13560539Y-15403150D02*
X13541491Y-15374579D01*
X13541491Y-15374579D02*
X13531968Y-15355531D01*
X13531968Y-15355531D02*
X13522444Y-15326960D01*
X13522444Y-15326960D02*
X13512920Y-15279341D01*
X13512920Y-15279341D02*
X13512920Y-15241246D01*
X13512920Y-15241246D02*
X13522444Y-15193627D01*
X13522444Y-15193627D02*
X13531968Y-15165055D01*
X13531968Y-15165055D02*
X13541491Y-15146008D01*
X13541491Y-15146008D02*
X13560539Y-15117436D01*
X13560539Y-15117436D02*
X13570063Y-15107912D01*
X13751015Y-15336484D02*
X13636729Y-15336484D01*
X13693872Y-15336484D02*
X13693872Y-15136484D01*
X13693872Y-15136484D02*
X13674825Y-15165055D01*
X13674825Y-15165055D02*
X13655777Y-15184103D01*
X13655777Y-15184103D02*
X13636729Y-15193627D01*
X13817682Y-15136484D02*
X13951015Y-15136484D01*
X13951015Y-15136484D02*
X13865301Y-15336484D01*
X14055777Y-15222198D02*
X14036729Y-15212674D01*
X14036729Y-15212674D02*
X14027206Y-15203150D01*
X14027206Y-15203150D02*
X14017682Y-15184103D01*
X14017682Y-15184103D02*
X14017682Y-15174579D01*
X14017682Y-15174579D02*
X14027206Y-15155531D01*
X14027206Y-15155531D02*
X14036729Y-15146008D01*
X14036729Y-15146008D02*
X14055777Y-15136484D01*
X14055777Y-15136484D02*
X14093872Y-15136484D01*
X14093872Y-15136484D02*
X14112920Y-15146008D01*
X14112920Y-15146008D02*
X14122444Y-15155531D01*
X14122444Y-15155531D02*
X14131968Y-15174579D01*
X14131968Y-15174579D02*
X14131968Y-15184103D01*
X14131968Y-15184103D02*
X14122444Y-15203150D01*
X14122444Y-15203150D02*
X14112920Y-15212674D01*
X14112920Y-15212674D02*
X14093872Y-15222198D01*
X14093872Y-15222198D02*
X14055777Y-15222198D01*
X14055777Y-15222198D02*
X14036729Y-15231722D01*
X14036729Y-15231722D02*
X14027206Y-15241246D01*
X14027206Y-15241246D02*
X14017682Y-15260293D01*
X14017682Y-15260293D02*
X14017682Y-15298388D01*
X14017682Y-15298388D02*
X14027206Y-15317436D01*
X14027206Y-15317436D02*
X14036729Y-15326960D01*
X14036729Y-15326960D02*
X14055777Y-15336484D01*
X14055777Y-15336484D02*
X14093872Y-15336484D01*
X14093872Y-15336484D02*
X14112920Y-15326960D01*
X14112920Y-15326960D02*
X14122444Y-15317436D01*
X14122444Y-15317436D02*
X14131968Y-15298388D01*
X14131968Y-15298388D02*
X14131968Y-15260293D01*
X14131968Y-15260293D02*
X14122444Y-15241246D01*
X14122444Y-15241246D02*
X14112920Y-15231722D01*
X14112920Y-15231722D02*
X14093872Y-15222198D01*
X14370063Y-15336484D02*
X14370063Y-15136484D01*
X14455777Y-15336484D02*
X14455777Y-15231722D01*
X14455777Y-15231722D02*
X14446253Y-15212674D01*
X14446253Y-15212674D02*
X14427206Y-15203150D01*
X14427206Y-15203150D02*
X14398634Y-15203150D01*
X14398634Y-15203150D02*
X14379587Y-15212674D01*
X14379587Y-15212674D02*
X14370063Y-15222198D01*
X14579587Y-15336484D02*
X14560539Y-15326960D01*
X14560539Y-15326960D02*
X14551015Y-15317436D01*
X14551015Y-15317436D02*
X14541491Y-15298388D01*
X14541491Y-15298388D02*
X14541491Y-15241246D01*
X14541491Y-15241246D02*
X14551015Y-15222198D01*
X14551015Y-15222198D02*
X14560539Y-15212674D01*
X14560539Y-15212674D02*
X14579587Y-15203150D01*
X14579587Y-15203150D02*
X14608158Y-15203150D01*
X14608158Y-15203150D02*
X14627206Y-15212674D01*
X14627206Y-15212674D02*
X14636730Y-15222198D01*
X14636730Y-15222198D02*
X14646253Y-15241246D01*
X14646253Y-15241246D02*
X14646253Y-15298388D01*
X14646253Y-15298388D02*
X14636730Y-15317436D01*
X14636730Y-15317436D02*
X14627206Y-15326960D01*
X14627206Y-15326960D02*
X14608158Y-15336484D01*
X14608158Y-15336484D02*
X14579587Y-15336484D01*
X14760539Y-15336484D02*
X14741491Y-15326960D01*
X14741491Y-15326960D02*
X14731968Y-15307912D01*
X14731968Y-15307912D02*
X14731968Y-15136484D01*
X14912920Y-15326960D02*
X14893872Y-15336484D01*
X14893872Y-15336484D02*
X14855777Y-15336484D01*
X14855777Y-15336484D02*
X14836730Y-15326960D01*
X14836730Y-15326960D02*
X14827206Y-15307912D01*
X14827206Y-15307912D02*
X14827206Y-15231722D01*
X14827206Y-15231722D02*
X14836730Y-15212674D01*
X14836730Y-15212674D02*
X14855777Y-15203150D01*
X14855777Y-15203150D02*
X14893872Y-15203150D01*
X14893872Y-15203150D02*
X14912920Y-15212674D01*
X14912920Y-15212674D02*
X14922444Y-15231722D01*
X14922444Y-15231722D02*
X14922444Y-15250769D01*
X14922444Y-15250769D02*
X14827206Y-15269817D01*
X14998634Y-15326960D02*
X15017682Y-15336484D01*
X15017682Y-15336484D02*
X15055777Y-15336484D01*
X15055777Y-15336484D02*
X15074825Y-15326960D01*
X15074825Y-15326960D02*
X15084349Y-15307912D01*
X15084349Y-15307912D02*
X15084349Y-15298388D01*
X15084349Y-15298388D02*
X15074825Y-15279341D01*
X15074825Y-15279341D02*
X15055777Y-15269817D01*
X15055777Y-15269817D02*
X15027206Y-15269817D01*
X15027206Y-15269817D02*
X15008158Y-15260293D01*
X15008158Y-15260293D02*
X14998634Y-15241246D01*
X14998634Y-15241246D02*
X14998634Y-15231722D01*
X14998634Y-15231722D02*
X15008158Y-15212674D01*
X15008158Y-15212674D02*
X15027206Y-15203150D01*
X15027206Y-15203150D02*
X15055777Y-15203150D01*
X15055777Y-15203150D02*
X15074825Y-15212674D01*
X15151015Y-15412674D02*
X15160539Y-15403150D01*
X15160539Y-15403150D02*
X15179587Y-15374579D01*
X15179587Y-15374579D02*
X15189111Y-15355531D01*
X15189111Y-15355531D02*
X15198634Y-15326960D01*
X15198634Y-15326960D02*
X15208158Y-15279341D01*
X15208158Y-15279341D02*
X15208158Y-15241246D01*
X15208158Y-15241246D02*
X15198634Y-15193627D01*
X15198634Y-15193627D02*
X15189111Y-15165055D01*
X15189111Y-15165055D02*
X15179587Y-15146008D01*
X15179587Y-15146008D02*
X15160539Y-15117436D01*
X15160539Y-15117436D02*
X15151015Y-15107912D01*
D10*
X9995000Y-15509000D02*
G75*
G02*
X9895000Y-15509000I-50000J0D01*
G01*
X9895000Y-15509000D02*
G75*
G02*
X9995000Y-15509000I50000J0D01*
G01*
D11*
X10360539Y-15600484D02*
X10246253Y-15600484D01*
X10303396Y-15600484D02*
X10303396Y-15400484D01*
X10303396Y-15400484D02*
X10284348Y-15429055D01*
X10284348Y-15429055D02*
X10265301Y-15448103D01*
X10265301Y-15448103D02*
X10246253Y-15457627D01*
X10446253Y-15581436D02*
X10455777Y-15590960D01*
X10455777Y-15590960D02*
X10446253Y-15600484D01*
X10446253Y-15600484D02*
X10436729Y-15590960D01*
X10436729Y-15590960D02*
X10446253Y-15581436D01*
X10446253Y-15581436D02*
X10446253Y-15600484D01*
X10579586Y-15400484D02*
X10598634Y-15400484D01*
X10598634Y-15400484D02*
X10617682Y-15410008D01*
X10617682Y-15410008D02*
X10627205Y-15419531D01*
X10627205Y-15419531D02*
X10636729Y-15438579D01*
X10636729Y-15438579D02*
X10646253Y-15476674D01*
X10646253Y-15476674D02*
X10646253Y-15524293D01*
X10646253Y-15524293D02*
X10636729Y-15562388D01*
X10636729Y-15562388D02*
X10627205Y-15581436D01*
X10627205Y-15581436D02*
X10617682Y-15590960D01*
X10617682Y-15590960D02*
X10598634Y-15600484D01*
X10598634Y-15600484D02*
X10579586Y-15600484D01*
X10579586Y-15600484D02*
X10560539Y-15590960D01*
X10560539Y-15590960D02*
X10551015Y-15581436D01*
X10551015Y-15581436D02*
X10541491Y-15562388D01*
X10541491Y-15562388D02*
X10531967Y-15524293D01*
X10531967Y-15524293D02*
X10531967Y-15476674D01*
X10531967Y-15476674D02*
X10541491Y-15438579D01*
X10541491Y-15438579D02*
X10551015Y-15419531D01*
X10551015Y-15419531D02*
X10560539Y-15410008D01*
X10560539Y-15410008D02*
X10579586Y-15400484D01*
X10770063Y-15400484D02*
X10789110Y-15400484D01*
X10789110Y-15400484D02*
X10808158Y-15410008D01*
X10808158Y-15410008D02*
X10817682Y-15419531D01*
X10817682Y-15419531D02*
X10827205Y-15438579D01*
X10827205Y-15438579D02*
X10836729Y-15476674D01*
X10836729Y-15476674D02*
X10836729Y-15524293D01*
X10836729Y-15524293D02*
X10827205Y-15562388D01*
X10827205Y-15562388D02*
X10817682Y-15581436D01*
X10817682Y-15581436D02*
X10808158Y-15590960D01*
X10808158Y-15590960D02*
X10789110Y-15600484D01*
X10789110Y-15600484D02*
X10770063Y-15600484D01*
X10770063Y-15600484D02*
X10751015Y-15590960D01*
X10751015Y-15590960D02*
X10741491Y-15581436D01*
X10741491Y-15581436D02*
X10731967Y-15562388D01*
X10731967Y-15562388D02*
X10722444Y-15524293D01*
X10722444Y-15524293D02*
X10722444Y-15476674D01*
X10722444Y-15476674D02*
X10731967Y-15438579D01*
X10731967Y-15438579D02*
X10741491Y-15419531D01*
X10741491Y-15419531D02*
X10751015Y-15410008D01*
X10751015Y-15410008D02*
X10770063Y-15400484D01*
X10960539Y-15400484D02*
X10979586Y-15400484D01*
X10979586Y-15400484D02*
X10998634Y-15410008D01*
X10998634Y-15410008D02*
X11008158Y-15419531D01*
X11008158Y-15419531D02*
X11017682Y-15438579D01*
X11017682Y-15438579D02*
X11027205Y-15476674D01*
X11027205Y-15476674D02*
X11027205Y-15524293D01*
X11027205Y-15524293D02*
X11017682Y-15562388D01*
X11017682Y-15562388D02*
X11008158Y-15581436D01*
X11008158Y-15581436D02*
X10998634Y-15590960D01*
X10998634Y-15590960D02*
X10979586Y-15600484D01*
X10979586Y-15600484D02*
X10960539Y-15600484D01*
X10960539Y-15600484D02*
X10941491Y-15590960D01*
X10941491Y-15590960D02*
X10931967Y-15581436D01*
X10931967Y-15581436D02*
X10922444Y-15562388D01*
X10922444Y-15562388D02*
X10912920Y-15524293D01*
X10912920Y-15524293D02*
X10912920Y-15476674D01*
X10912920Y-15476674D02*
X10922444Y-15438579D01*
X10922444Y-15438579D02*
X10931967Y-15419531D01*
X10931967Y-15419531D02*
X10941491Y-15410008D01*
X10941491Y-15410008D02*
X10960539Y-15400484D01*
X11112920Y-15600484D02*
X11112920Y-15467150D01*
X11112920Y-15486198D02*
X11122444Y-15476674D01*
X11122444Y-15476674D02*
X11141491Y-15467150D01*
X11141491Y-15467150D02*
X11170063Y-15467150D01*
X11170063Y-15467150D02*
X11189110Y-15476674D01*
X11189110Y-15476674D02*
X11198634Y-15495722D01*
X11198634Y-15495722D02*
X11198634Y-15600484D01*
X11198634Y-15495722D02*
X11208158Y-15476674D01*
X11208158Y-15476674D02*
X11227205Y-15467150D01*
X11227205Y-15467150D02*
X11255777Y-15467150D01*
X11255777Y-15467150D02*
X11274824Y-15476674D01*
X11274824Y-15476674D02*
X11284348Y-15495722D01*
X11284348Y-15495722D02*
X11284348Y-15600484D01*
X11379586Y-15600484D02*
X11379586Y-15467150D01*
X11379586Y-15486198D02*
X11389110Y-15476674D01*
X11389110Y-15476674D02*
X11408158Y-15467150D01*
X11408158Y-15467150D02*
X11436729Y-15467150D01*
X11436729Y-15467150D02*
X11455777Y-15476674D01*
X11455777Y-15476674D02*
X11465301Y-15495722D01*
X11465301Y-15495722D02*
X11465301Y-15600484D01*
X11465301Y-15495722D02*
X11474824Y-15476674D01*
X11474824Y-15476674D02*
X11493872Y-15467150D01*
X11493872Y-15467150D02*
X11522443Y-15467150D01*
X11522443Y-15467150D02*
X11541491Y-15476674D01*
X11541491Y-15476674D02*
X11551015Y-15495722D01*
X11551015Y-15495722D02*
X11551015Y-15600484D01*
X11941491Y-15390960D02*
X11770063Y-15648103D01*
X12198634Y-15400484D02*
X12217682Y-15400484D01*
X12217682Y-15400484D02*
X12236729Y-15410008D01*
X12236729Y-15410008D02*
X12246253Y-15419531D01*
X12246253Y-15419531D02*
X12255777Y-15438579D01*
X12255777Y-15438579D02*
X12265301Y-15476674D01*
X12265301Y-15476674D02*
X12265301Y-15524293D01*
X12265301Y-15524293D02*
X12255777Y-15562388D01*
X12255777Y-15562388D02*
X12246253Y-15581436D01*
X12246253Y-15581436D02*
X12236729Y-15590960D01*
X12236729Y-15590960D02*
X12217682Y-15600484D01*
X12217682Y-15600484D02*
X12198634Y-15600484D01*
X12198634Y-15600484D02*
X12179586Y-15590960D01*
X12179586Y-15590960D02*
X12170063Y-15581436D01*
X12170063Y-15581436D02*
X12160539Y-15562388D01*
X12160539Y-15562388D02*
X12151015Y-15524293D01*
X12151015Y-15524293D02*
X12151015Y-15476674D01*
X12151015Y-15476674D02*
X12160539Y-15438579D01*
X12160539Y-15438579D02*
X12170063Y-15419531D01*
X12170063Y-15419531D02*
X12179586Y-15410008D01*
X12179586Y-15410008D02*
X12198634Y-15400484D01*
X12351015Y-15581436D02*
X12360539Y-15590960D01*
X12360539Y-15590960D02*
X12351015Y-15600484D01*
X12351015Y-15600484D02*
X12341491Y-15590960D01*
X12341491Y-15590960D02*
X12351015Y-15581436D01*
X12351015Y-15581436D02*
X12351015Y-15600484D01*
X12484348Y-15400484D02*
X12503396Y-15400484D01*
X12503396Y-15400484D02*
X12522444Y-15410008D01*
X12522444Y-15410008D02*
X12531967Y-15419531D01*
X12531967Y-15419531D02*
X12541491Y-15438579D01*
X12541491Y-15438579D02*
X12551015Y-15476674D01*
X12551015Y-15476674D02*
X12551015Y-15524293D01*
X12551015Y-15524293D02*
X12541491Y-15562388D01*
X12541491Y-15562388D02*
X12531967Y-15581436D01*
X12531967Y-15581436D02*
X12522444Y-15590960D01*
X12522444Y-15590960D02*
X12503396Y-15600484D01*
X12503396Y-15600484D02*
X12484348Y-15600484D01*
X12484348Y-15600484D02*
X12465301Y-15590960D01*
X12465301Y-15590960D02*
X12455777Y-15581436D01*
X12455777Y-15581436D02*
X12446253Y-15562388D01*
X12446253Y-15562388D02*
X12436729Y-15524293D01*
X12436729Y-15524293D02*
X12436729Y-15476674D01*
X12436729Y-15476674D02*
X12446253Y-15438579D01*
X12446253Y-15438579D02*
X12455777Y-15419531D01*
X12455777Y-15419531D02*
X12465301Y-15410008D01*
X12465301Y-15410008D02*
X12484348Y-15400484D01*
X12617682Y-15400484D02*
X12741491Y-15400484D01*
X12741491Y-15400484D02*
X12674825Y-15476674D01*
X12674825Y-15476674D02*
X12703396Y-15476674D01*
X12703396Y-15476674D02*
X12722444Y-15486198D01*
X12722444Y-15486198D02*
X12731967Y-15495722D01*
X12731967Y-15495722D02*
X12741491Y-15514769D01*
X12741491Y-15514769D02*
X12741491Y-15562388D01*
X12741491Y-15562388D02*
X12731967Y-15581436D01*
X12731967Y-15581436D02*
X12722444Y-15590960D01*
X12722444Y-15590960D02*
X12703396Y-15600484D01*
X12703396Y-15600484D02*
X12646253Y-15600484D01*
X12646253Y-15600484D02*
X12627206Y-15590960D01*
X12627206Y-15590960D02*
X12617682Y-15581436D01*
X12836729Y-15600484D02*
X12874825Y-15600484D01*
X12874825Y-15600484D02*
X12893872Y-15590960D01*
X12893872Y-15590960D02*
X12903396Y-15581436D01*
X12903396Y-15581436D02*
X12922444Y-15552865D01*
X12922444Y-15552865D02*
X12931967Y-15514769D01*
X12931967Y-15514769D02*
X12931967Y-15438579D01*
X12931967Y-15438579D02*
X12922444Y-15419531D01*
X12922444Y-15419531D02*
X12912920Y-15410008D01*
X12912920Y-15410008D02*
X12893872Y-15400484D01*
X12893872Y-15400484D02*
X12855777Y-15400484D01*
X12855777Y-15400484D02*
X12836729Y-15410008D01*
X12836729Y-15410008D02*
X12827206Y-15419531D01*
X12827206Y-15419531D02*
X12817682Y-15438579D01*
X12817682Y-15438579D02*
X12817682Y-15486198D01*
X12817682Y-15486198D02*
X12827206Y-15505246D01*
X12827206Y-15505246D02*
X12836729Y-15514769D01*
X12836729Y-15514769D02*
X12855777Y-15524293D01*
X12855777Y-15524293D02*
X12893872Y-15524293D01*
X12893872Y-15524293D02*
X12912920Y-15514769D01*
X12912920Y-15514769D02*
X12922444Y-15505246D01*
X12922444Y-15505246D02*
X12931967Y-15486198D01*
X13103396Y-15467150D02*
X13103396Y-15600484D01*
X13055777Y-15390960D02*
X13008158Y-15533817D01*
X13008158Y-15533817D02*
X13131967Y-15533817D01*
X13198634Y-15400484D02*
X13198634Y-15438579D01*
X13274825Y-15400484D02*
X13274825Y-15438579D01*
X13570063Y-15676674D02*
X13560539Y-15667150D01*
X13560539Y-15667150D02*
X13541491Y-15638579D01*
X13541491Y-15638579D02*
X13531968Y-15619531D01*
X13531968Y-15619531D02*
X13522444Y-15590960D01*
X13522444Y-15590960D02*
X13512920Y-15543341D01*
X13512920Y-15543341D02*
X13512920Y-15505246D01*
X13512920Y-15505246D02*
X13522444Y-15457627D01*
X13522444Y-15457627D02*
X13531968Y-15429055D01*
X13531968Y-15429055D02*
X13541491Y-15410008D01*
X13541491Y-15410008D02*
X13560539Y-15381436D01*
X13560539Y-15381436D02*
X13570063Y-15371912D01*
X13751015Y-15600484D02*
X13636729Y-15600484D01*
X13693872Y-15600484D02*
X13693872Y-15400484D01*
X13693872Y-15400484D02*
X13674825Y-15429055D01*
X13674825Y-15429055D02*
X13655777Y-15448103D01*
X13655777Y-15448103D02*
X13636729Y-15457627D01*
X13922444Y-15467150D02*
X13922444Y-15600484D01*
X13874825Y-15390960D02*
X13827206Y-15533817D01*
X13827206Y-15533817D02*
X13951015Y-15533817D01*
X14179587Y-15600484D02*
X14179587Y-15400484D01*
X14265301Y-15600484D02*
X14265301Y-15495722D01*
X14265301Y-15495722D02*
X14255777Y-15476674D01*
X14255777Y-15476674D02*
X14236730Y-15467150D01*
X14236730Y-15467150D02*
X14208158Y-15467150D01*
X14208158Y-15467150D02*
X14189110Y-15476674D01*
X14189110Y-15476674D02*
X14179587Y-15486198D01*
X14389110Y-15600484D02*
X14370063Y-15590960D01*
X14370063Y-15590960D02*
X14360539Y-15581436D01*
X14360539Y-15581436D02*
X14351015Y-15562388D01*
X14351015Y-15562388D02*
X14351015Y-15505246D01*
X14351015Y-15505246D02*
X14360539Y-15486198D01*
X14360539Y-15486198D02*
X14370063Y-15476674D01*
X14370063Y-15476674D02*
X14389110Y-15467150D01*
X14389110Y-15467150D02*
X14417682Y-15467150D01*
X14417682Y-15467150D02*
X14436730Y-15476674D01*
X14436730Y-15476674D02*
X14446253Y-15486198D01*
X14446253Y-15486198D02*
X14455777Y-15505246D01*
X14455777Y-15505246D02*
X14455777Y-15562388D01*
X14455777Y-15562388D02*
X14446253Y-15581436D01*
X14446253Y-15581436D02*
X14436730Y-15590960D01*
X14436730Y-15590960D02*
X14417682Y-15600484D01*
X14417682Y-15600484D02*
X14389110Y-15600484D01*
X14570063Y-15600484D02*
X14551015Y-15590960D01*
X14551015Y-15590960D02*
X14541491Y-15571912D01*
X14541491Y-15571912D02*
X14541491Y-15400484D01*
X14722444Y-15590960D02*
X14703396Y-15600484D01*
X14703396Y-15600484D02*
X14665301Y-15600484D01*
X14665301Y-15600484D02*
X14646253Y-15590960D01*
X14646253Y-15590960D02*
X14636730Y-15571912D01*
X14636730Y-15571912D02*
X14636730Y-15495722D01*
X14636730Y-15495722D02*
X14646253Y-15476674D01*
X14646253Y-15476674D02*
X14665301Y-15467150D01*
X14665301Y-15467150D02*
X14703396Y-15467150D01*
X14703396Y-15467150D02*
X14722444Y-15476674D01*
X14722444Y-15476674D02*
X14731968Y-15495722D01*
X14731968Y-15495722D02*
X14731968Y-15514769D01*
X14731968Y-15514769D02*
X14636730Y-15533817D01*
X14808158Y-15590960D02*
X14827206Y-15600484D01*
X14827206Y-15600484D02*
X14865301Y-15600484D01*
X14865301Y-15600484D02*
X14884349Y-15590960D01*
X14884349Y-15590960D02*
X14893872Y-15571912D01*
X14893872Y-15571912D02*
X14893872Y-15562388D01*
X14893872Y-15562388D02*
X14884349Y-15543341D01*
X14884349Y-15543341D02*
X14865301Y-15533817D01*
X14865301Y-15533817D02*
X14836730Y-15533817D01*
X14836730Y-15533817D02*
X14817682Y-15524293D01*
X14817682Y-15524293D02*
X14808158Y-15505246D01*
X14808158Y-15505246D02*
X14808158Y-15495722D01*
X14808158Y-15495722D02*
X14817682Y-15476674D01*
X14817682Y-15476674D02*
X14836730Y-15467150D01*
X14836730Y-15467150D02*
X14865301Y-15467150D01*
X14865301Y-15467150D02*
X14884349Y-15476674D01*
X14960539Y-15676674D02*
X14970063Y-15667150D01*
X14970063Y-15667150D02*
X14989111Y-15638579D01*
X14989111Y-15638579D02*
X14998634Y-15619531D01*
X14998634Y-15619531D02*
X15008158Y-15590960D01*
X15008158Y-15590960D02*
X15017682Y-15543341D01*
X15017682Y-15543341D02*
X15017682Y-15505246D01*
X15017682Y-15505246D02*
X15008158Y-15457627D01*
X15008158Y-15457627D02*
X14998634Y-15429055D01*
X14998634Y-15429055D02*
X14989111Y-15410008D01*
X14989111Y-15410008D02*
X14970063Y-15381436D01*
X14970063Y-15381436D02*
X14960539Y-15371912D01*
M02*
