%TF.GenerationSoftware,KiCad,Pcbnew,10.0.5*%
%TF.CreationDate,2026-09-21T12:59:36-04:00*%
%TF.ProjectId,rev3,72657633-2e6b-4696-9361-645f70636258,rev?*%
%TF.SameCoordinates,Original*%
%TF.FileFunction,Legend,Top*%
%TF.FilePolarity,Positive*%
%FSLAX46Y46*%
G04 Gerber Fmt 4.6, Leading zero omitted, Abs format (unit mm)*
G04 Created by KiCad (PCBNEW 10.0.5) date 2026-09-21 12:59:36*
%MOMM*%
%LPD*%
G01*
G04 APERTURE LIST*
G04 Aperture macros list*
%AMRoundRect*
0 Rectangle with rounded corners*
0 $1 Rounding radius*
0 $2 $3 $4 $5 $6 $7 $8 $9 X,Y pos of 4 corners*
0 Add a 4 corners polygon primitive as box body*
4,1,4,$2,$3,$4,$5,$6,$7,$8,$9,$2,$3,0*
0 Add four circle primitives for the rounded corners*
1,1,$1+$1,$2,$3*
1,1,$1+$1,$4,$5*
1,1,$1+$1,$6,$7*
1,1,$1+$1,$8,$9*
0 Add four rect primitives between the rounded corners*
20,1,$1+$1,$2,$3,$4,$5,0*
20,1,$1+$1,$4,$5,$6,$7,0*
20,1,$1+$1,$6,$7,$8,$9,0*
20,1,$1+$1,$8,$9,$2,$3,0*%
G04 Aperture macros list end*
%ADD10C,0.120000*%
%ADD11C,0.160000*%
%ADD12RoundRect,0.100000X-0.130000X-0.100000X0.130000X-0.100000X0.130000X0.100000X-0.130000X0.100000X0*%
%ADD13RoundRect,0.135000X-0.135000X-0.185000X0.135000X-0.185000X0.135000X0.185000X-0.135000X0.185000X0*%
%ADD14RoundRect,0.250000X0.475000X-0.250000X0.475000X0.250000X-0.475000X0.250000X-0.475000X-0.250000X0*%
%ADD15RoundRect,0.200000X-0.200000X-0.275000X0.200000X-0.275000X0.200000X0.275000X-0.200000X0.275000X0*%
%ADD16C,2.000000*%
%ADD17RoundRect,0.100000X0.130000X0.100000X-0.130000X0.100000X-0.130000X-0.100000X0.130000X-0.100000X0*%
%ADD18RoundRect,0.150000X-0.512500X-0.150000X0.512500X-0.150000X0.512500X0.150000X-0.512500X0.150000X0*%
%ADD19RoundRect,0.135000X0.185000X-0.135000X0.185000X0.135000X-0.185000X0.135000X-0.185000X-0.135000X0*%
%ADD20RoundRect,0.135000X0.135000X0.185000X-0.135000X0.185000X-0.135000X-0.185000X0.135000X-0.185000X0*%
%ADD21RoundRect,0.150000X-0.700000X0.150000X-0.700000X-0.150000X0.700000X-0.150000X0.700000X0.150000X0*%
%ADD22RoundRect,0.250000X-1.100000X0.250000X-1.100000X-0.250000X1.100000X-0.250000X1.100000X0.250000X0*%
%ADD23RoundRect,0.250000X-0.475000X0.250000X-0.475000X-0.250000X0.475000X-0.250000X0.475000X0.250000X0*%
%ADD24R,1.200000X1.200000*%
%ADD25RoundRect,0.135000X-0.185000X0.135000X-0.185000X-0.135000X0.185000X-0.135000X0.185000X0.135000X0*%
%ADD26RoundRect,0.140000X-0.140000X-0.170000X0.140000X-0.170000X0.140000X0.170000X-0.140000X0.170000X0*%
%ADD27RoundRect,0.140000X-0.170000X0.140000X-0.170000X-0.140000X0.170000X-0.140000X0.170000X0.140000X0*%
%ADD28R,0.300000X1.300000*%
%ADD29R,1.800000X2.200000*%
%ADD30RoundRect,0.140000X0.140000X0.170000X-0.140000X0.170000X-0.140000X-0.170000X0.140000X-0.170000X0*%
%ADD31R,1.700000X1.700000*%
%ADD32C,1.700000*%
%ADD33RoundRect,0.050000X-0.350000X-0.050000X0.350000X-0.050000X0.350000X0.050000X-0.350000X0.050000X0*%
%ADD34RoundRect,0.050000X-0.050000X-0.350000X0.050000X-0.350000X0.050000X0.350000X-0.050000X0.350000X0*%
%ADD35R,3.400000X3.400000*%
%ADD36R,1.000000X1.500000*%
%ADD37RoundRect,0.225000X0.250000X-0.225000X0.250000X0.225000X-0.250000X0.225000X-0.250000X-0.225000X0*%
%ADD38RoundRect,0.140000X0.170000X-0.140000X0.170000X0.140000X-0.170000X0.140000X-0.170000X-0.140000X0*%
%ADD39RoundRect,0.218750X-0.218750X-0.256250X0.218750X-0.256250X0.218750X0.256250X-0.218750X0.256250X0*%
%ADD40RoundRect,0.050000X-0.375000X-0.050000X0.375000X-0.050000X0.375000X0.050000X-0.375000X0.050000X0*%
%ADD41RoundRect,0.050000X-0.050000X-0.275000X0.050000X-0.275000X0.050000X0.275000X-0.050000X0.275000X0*%
%ADD42RoundRect,0.100000X-0.100000X0.637500X-0.100000X-0.637500X0.100000X-0.637500X0.100000X0.637500X0*%
%ADD43RoundRect,0.112500X0.112500X-0.187500X0.112500X0.187500X-0.112500X0.187500X-0.112500X-0.187500X0*%
%ADD44RoundRect,0.093750X0.156250X0.093750X-0.156250X0.093750X-0.156250X-0.093750X0.156250X-0.093750X0*%
%ADD45RoundRect,0.075000X0.250000X0.075000X-0.250000X0.075000X-0.250000X-0.075000X0.250000X-0.075000X0*%
%ADD46RoundRect,0.250000X0.250000X0.475000X-0.250000X0.475000X-0.250000X-0.475000X0.250000X-0.475000X0*%
%ADD47RoundRect,0.100000X-0.100000X0.130000X-0.100000X-0.130000X0.100000X-0.130000X0.100000X0.130000X0*%
%ADD48RoundRect,0.150000X0.512500X0.150000X-0.512500X0.150000X-0.512500X-0.150000X0.512500X-0.150000X0*%
%ADD49RoundRect,0.100000X0.850000X0.100000X-0.850000X0.100000X-0.850000X-0.100000X0.850000X-0.100000X0*%
%ADD50RoundRect,0.250000X-1.075000X0.375000X-1.075000X-0.375000X1.075000X-0.375000X1.075000X0.375000X0*%
%ADD51RoundRect,0.112500X0.350000X0.112500X-0.350000X0.112500X-0.350000X-0.112500X0.350000X-0.112500X0*%
%ADD52C,0.650000*%
%ADD53RoundRect,0.150000X-0.150000X-0.575000X0.150000X-0.575000X0.150000X0.575000X-0.150000X0.575000X0*%
%ADD54RoundRect,0.075000X-0.075000X-0.650000X0.075000X-0.650000X0.075000X0.650000X-0.075000X0.650000X0*%
%ADD55O,1.000000X2.100000*%
%ADD56O,1.000000X1.600000*%
%ADD57RoundRect,0.150000X-0.150000X0.825000X-0.150000X-0.825000X0.150000X-0.825000X0.150000X0.825000X0*%
%ADD58RoundRect,0.225000X0.225000X0.250000X-0.225000X0.250000X-0.225000X-0.250000X0.225000X-0.250000X0*%
%ADD59RoundRect,0.100000X-0.100000X0.712500X-0.100000X-0.712500X0.100000X-0.712500X0.100000X0.712500X0*%
%ADD60RoundRect,0.100000X0.100000X-0.130000X0.100000X0.130000X-0.100000X0.130000X-0.100000X-0.130000X0*%
%ADD61RoundRect,0.150000X0.700000X-0.150000X0.700000X0.150000X-0.700000X0.150000X-0.700000X-0.150000X0*%
%ADD62RoundRect,0.250000X1.100000X-0.250000X1.100000X0.250000X-1.100000X0.250000X-1.100000X-0.250000X0*%
%ADD63RoundRect,0.250000X-0.450000X-0.350000X0.450000X-0.350000X0.450000X0.350000X-0.450000X0.350000X0*%
%ADD64RoundRect,0.087500X-0.087500X0.662500X-0.087500X-0.662500X0.087500X-0.662500X0.087500X0.662500X0*%
%ADD65R,0.900000X1.700000*%
%ADD66RoundRect,0.250000X-0.250000X-0.475000X0.250000X-0.475000X0.250000X0.475000X-0.250000X0.475000X0*%
%ADD67RoundRect,0.112500X0.187500X0.112500X-0.187500X0.112500X-0.187500X-0.112500X0.187500X-0.112500X0*%
%ADD68RoundRect,0.225000X-0.225000X-0.625000X0.225000X-0.625000X0.225000X0.625000X-0.225000X0.625000X0*%
G04 APERTURE END LIST*
D10*
X141533214Y-129699394D02*
X141533214Y-130347013D01*
X141533214Y-130347013D02*
X141571309Y-130423203D01*
X141571309Y-130423203D02*
X141609404Y-130461299D01*
X141609404Y-130461299D02*
X141685595Y-130499394D01*
X141685595Y-130499394D02*
X141837976Y-130499394D01*
X141837976Y-130499394D02*
X141914166Y-130461299D01*
X141914166Y-130461299D02*
X141952261Y-130423203D01*
X141952261Y-130423203D02*
X141990357Y-130347013D01*
X141990357Y-130347013D02*
X141990357Y-129699394D01*
X142790356Y-130499394D02*
X142333213Y-130499394D01*
X142561785Y-130499394D02*
X142561785Y-129699394D01*
X142561785Y-129699394D02*
X142485594Y-129813679D01*
X142485594Y-129813679D02*
X142409404Y-129889870D01*
X142409404Y-129889870D02*
X142333213Y-129927965D01*
X143476071Y-129966060D02*
X143476071Y-130499394D01*
X143285595Y-129661299D02*
X143095118Y-130232727D01*
X143095118Y-130232727D02*
X143590357Y-130232727D01*
X101770079Y-124080318D02*
X101770079Y-124651746D01*
X101770079Y-124651746D02*
X101731984Y-124766032D01*
X101731984Y-124766032D02*
X101655793Y-124842223D01*
X101655793Y-124842223D02*
X101541508Y-124880318D01*
X101541508Y-124880318D02*
X101465317Y-124880318D01*
X102493889Y-124346984D02*
X102493889Y-124880318D01*
X102303413Y-124042223D02*
X102112936Y-124613651D01*
X102112936Y-124613651D02*
X102608175Y-124613651D01*
X144428545Y-123626438D02*
X143628545Y-123626438D01*
X143628545Y-123626438D02*
X143628545Y-123435962D01*
X143628545Y-123435962D02*
X143666640Y-123321676D01*
X143666640Y-123321676D02*
X143742830Y-123245486D01*
X143742830Y-123245486D02*
X143819021Y-123207391D01*
X143819021Y-123207391D02*
X143971402Y-123169295D01*
X143971402Y-123169295D02*
X144085688Y-123169295D01*
X144085688Y-123169295D02*
X144238069Y-123207391D01*
X144238069Y-123207391D02*
X144314259Y-123245486D01*
X144314259Y-123245486D02*
X144390450Y-123321676D01*
X144390450Y-123321676D02*
X144428545Y-123435962D01*
X144428545Y-123435962D02*
X144428545Y-123626438D01*
X143895211Y-122483581D02*
X144428545Y-122483581D01*
X143590450Y-122674057D02*
X144161878Y-122864534D01*
X144161878Y-122864534D02*
X144161878Y-122369295D01*
X150598819Y-104010498D02*
X150598819Y-104581926D01*
X150598819Y-104581926D02*
X150560724Y-104696212D01*
X150560724Y-104696212D02*
X150484533Y-104772403D01*
X150484533Y-104772403D02*
X150370248Y-104810498D01*
X150370248Y-104810498D02*
X150294057Y-104810498D01*
X150941676Y-104086688D02*
X150979772Y-104048593D01*
X150979772Y-104048593D02*
X151055962Y-104010498D01*
X151055962Y-104010498D02*
X151246438Y-104010498D01*
X151246438Y-104010498D02*
X151322629Y-104048593D01*
X151322629Y-104048593D02*
X151360724Y-104086688D01*
X151360724Y-104086688D02*
X151398819Y-104162879D01*
X151398819Y-104162879D02*
X151398819Y-104239069D01*
X151398819Y-104239069D02*
X151360724Y-104353355D01*
X151360724Y-104353355D02*
X150903581Y-104810498D01*
X150903581Y-104810498D02*
X151398819Y-104810498D01*
X104696844Y-134745318D02*
X104696844Y-135316746D01*
X104696844Y-135316746D02*
X104658749Y-135431032D01*
X104658749Y-135431032D02*
X104582558Y-135507223D01*
X104582558Y-135507223D02*
X104468273Y-135545318D01*
X104468273Y-135545318D02*
X104392082Y-135545318D01*
X105420654Y-134745318D02*
X105268273Y-134745318D01*
X105268273Y-134745318D02*
X105192082Y-134783413D01*
X105192082Y-134783413D02*
X105153987Y-134821508D01*
X105153987Y-134821508D02*
X105077797Y-134935794D01*
X105077797Y-134935794D02*
X105039701Y-135088175D01*
X105039701Y-135088175D02*
X105039701Y-135392937D01*
X105039701Y-135392937D02*
X105077797Y-135469127D01*
X105077797Y-135469127D02*
X105115892Y-135507223D01*
X105115892Y-135507223D02*
X105192082Y-135545318D01*
X105192082Y-135545318D02*
X105344463Y-135545318D01*
X105344463Y-135545318D02*
X105420654Y-135507223D01*
X105420654Y-135507223D02*
X105458749Y-135469127D01*
X105458749Y-135469127D02*
X105496844Y-135392937D01*
X105496844Y-135392937D02*
X105496844Y-135202461D01*
X105496844Y-135202461D02*
X105458749Y-135126270D01*
X105458749Y-135126270D02*
X105420654Y-135088175D01*
X105420654Y-135088175D02*
X105344463Y-135050080D01*
X105344463Y-135050080D02*
X105192082Y-135050080D01*
X105192082Y-135050080D02*
X105115892Y-135088175D01*
X105115892Y-135088175D02*
X105077797Y-135126270D01*
X105077797Y-135126270D02*
X105039701Y-135202461D01*
X131908901Y-114390069D02*
X131908901Y-115037688D01*
X131908901Y-115037688D02*
X131946996Y-115113878D01*
X131946996Y-115113878D02*
X131985091Y-115151974D01*
X131985091Y-115151974D02*
X132061282Y-115190069D01*
X132061282Y-115190069D02*
X132213663Y-115190069D01*
X132213663Y-115190069D02*
X132289853Y-115151974D01*
X132289853Y-115151974D02*
X132327948Y-115113878D01*
X132327948Y-115113878D02*
X132366044Y-115037688D01*
X132366044Y-115037688D02*
X132366044Y-114390069D01*
X132785091Y-115190069D02*
X132937472Y-115190069D01*
X132937472Y-115190069D02*
X133013662Y-115151974D01*
X133013662Y-115151974D02*
X133051758Y-115113878D01*
X133051758Y-115113878D02*
X133127948Y-114999593D01*
X133127948Y-114999593D02*
X133166043Y-114847212D01*
X133166043Y-114847212D02*
X133166043Y-114542450D01*
X133166043Y-114542450D02*
X133127948Y-114466259D01*
X133127948Y-114466259D02*
X133089853Y-114428164D01*
X133089853Y-114428164D02*
X133013662Y-114390069D01*
X133013662Y-114390069D02*
X132861281Y-114390069D01*
X132861281Y-114390069D02*
X132785091Y-114428164D01*
X132785091Y-114428164D02*
X132746996Y-114466259D01*
X132746996Y-114466259D02*
X132708900Y-114542450D01*
X132708900Y-114542450D02*
X132708900Y-114732926D01*
X132708900Y-114732926D02*
X132746996Y-114809116D01*
X132746996Y-114809116D02*
X132785091Y-114847212D01*
X132785091Y-114847212D02*
X132861281Y-114885307D01*
X132861281Y-114885307D02*
X133013662Y-114885307D01*
X133013662Y-114885307D02*
X133089853Y-114847212D01*
X133089853Y-114847212D02*
X133127948Y-114809116D01*
X133127948Y-114809116D02*
X133166043Y-114732926D01*
X121613367Y-133893129D02*
X122184795Y-133893129D01*
X122184795Y-133893129D02*
X122299081Y-133931224D01*
X122299081Y-133931224D02*
X122375272Y-134007415D01*
X122375272Y-134007415D02*
X122413367Y-134121700D01*
X122413367Y-134121700D02*
X122413367Y-134197891D01*
X122413367Y-133512176D02*
X121613367Y-133512176D01*
X121613367Y-133512176D02*
X121613367Y-133207414D01*
X121613367Y-133207414D02*
X121651462Y-133131224D01*
X121651462Y-133131224D02*
X121689557Y-133093129D01*
X121689557Y-133093129D02*
X121765748Y-133055033D01*
X121765748Y-133055033D02*
X121880033Y-133055033D01*
X121880033Y-133055033D02*
X121956224Y-133093129D01*
X121956224Y-133093129D02*
X121994319Y-133131224D01*
X121994319Y-133131224D02*
X122032414Y-133207414D01*
X122032414Y-133207414D02*
X122032414Y-133512176D01*
X122413367Y-132293129D02*
X122413367Y-132750272D01*
X122413367Y-132521700D02*
X121613367Y-132521700D01*
X121613367Y-132521700D02*
X121727652Y-132597891D01*
X121727652Y-132597891D02*
X121803843Y-132674081D01*
X121803843Y-132674081D02*
X121841938Y-132750272D01*
X141084524Y-134870318D02*
X141084524Y-134070318D01*
X141084524Y-134070318D02*
X141275000Y-134070318D01*
X141275000Y-134070318D02*
X141389286Y-134108413D01*
X141389286Y-134108413D02*
X141465476Y-134184603D01*
X141465476Y-134184603D02*
X141503571Y-134260794D01*
X141503571Y-134260794D02*
X141541667Y-134413175D01*
X141541667Y-134413175D02*
X141541667Y-134527461D01*
X141541667Y-134527461D02*
X141503571Y-134679842D01*
X141503571Y-134679842D02*
X141465476Y-134756032D01*
X141465476Y-134756032D02*
X141389286Y-134832223D01*
X141389286Y-134832223D02*
X141275000Y-134870318D01*
X141275000Y-134870318D02*
X141084524Y-134870318D01*
X141808333Y-134070318D02*
X142303571Y-134070318D01*
X142303571Y-134070318D02*
X142036905Y-134375080D01*
X142036905Y-134375080D02*
X142151190Y-134375080D01*
X142151190Y-134375080D02*
X142227381Y-134413175D01*
X142227381Y-134413175D02*
X142265476Y-134451270D01*
X142265476Y-134451270D02*
X142303571Y-134527461D01*
X142303571Y-134527461D02*
X142303571Y-134717937D01*
X142303571Y-134717937D02*
X142265476Y-134794127D01*
X142265476Y-134794127D02*
X142227381Y-134832223D01*
X142227381Y-134832223D02*
X142151190Y-134870318D01*
X142151190Y-134870318D02*
X141922619Y-134870318D01*
X141922619Y-134870318D02*
X141846428Y-134832223D01*
X141846428Y-134832223D02*
X141808333Y-134794127D01*
X131534176Y-123178716D02*
X131534176Y-123826335D01*
X131534176Y-123826335D02*
X131572271Y-123902525D01*
X131572271Y-123902525D02*
X131610366Y-123940621D01*
X131610366Y-123940621D02*
X131686557Y-123978716D01*
X131686557Y-123978716D02*
X131838938Y-123978716D01*
X131838938Y-123978716D02*
X131915128Y-123940621D01*
X131915128Y-123940621D02*
X131953223Y-123902525D01*
X131953223Y-123902525D02*
X131991319Y-123826335D01*
X131991319Y-123826335D02*
X131991319Y-123178716D01*
X132791318Y-123978716D02*
X132334175Y-123978716D01*
X132562747Y-123978716D02*
X132562747Y-123178716D01*
X132562747Y-123178716D02*
X132486556Y-123293001D01*
X132486556Y-123293001D02*
X132410366Y-123369192D01*
X132410366Y-123369192D02*
X132334175Y-123407287D01*
X133057985Y-123178716D02*
X133553223Y-123178716D01*
X133553223Y-123178716D02*
X133286557Y-123483478D01*
X133286557Y-123483478D02*
X133400842Y-123483478D01*
X133400842Y-123483478D02*
X133477033Y-123521573D01*
X133477033Y-123521573D02*
X133515128Y-123559668D01*
X133515128Y-123559668D02*
X133553223Y-123635859D01*
X133553223Y-123635859D02*
X133553223Y-123826335D01*
X133553223Y-123826335D02*
X133515128Y-123902525D01*
X133515128Y-123902525D02*
X133477033Y-123940621D01*
X133477033Y-123940621D02*
X133400842Y-123978716D01*
X133400842Y-123978716D02*
X133172271Y-123978716D01*
X133172271Y-123978716D02*
X133096080Y-123940621D01*
X133096080Y-123940621D02*
X133057985Y-123902525D01*
X124904367Y-133867006D02*
X125475795Y-133867006D01*
X125475795Y-133867006D02*
X125590081Y-133905101D01*
X125590081Y-133905101D02*
X125666272Y-133981292D01*
X125666272Y-133981292D02*
X125704367Y-134095577D01*
X125704367Y-134095577D02*
X125704367Y-134171768D01*
X125704367Y-133486053D02*
X124904367Y-133486053D01*
X124904367Y-133486053D02*
X124904367Y-133181291D01*
X124904367Y-133181291D02*
X124942462Y-133105101D01*
X124942462Y-133105101D02*
X124980557Y-133067006D01*
X124980557Y-133067006D02*
X125056748Y-133028910D01*
X125056748Y-133028910D02*
X125171033Y-133028910D01*
X125171033Y-133028910D02*
X125247224Y-133067006D01*
X125247224Y-133067006D02*
X125285319Y-133105101D01*
X125285319Y-133105101D02*
X125323414Y-133181291D01*
X125323414Y-133181291D02*
X125323414Y-133486053D01*
X124980557Y-132724149D02*
X124942462Y-132686053D01*
X124942462Y-132686053D02*
X124904367Y-132609863D01*
X124904367Y-132609863D02*
X124904367Y-132419387D01*
X124904367Y-132419387D02*
X124942462Y-132343196D01*
X124942462Y-132343196D02*
X124980557Y-132305101D01*
X124980557Y-132305101D02*
X125056748Y-132267006D01*
X125056748Y-132267006D02*
X125132938Y-132267006D01*
X125132938Y-132267006D02*
X125247224Y-132305101D01*
X125247224Y-132305101D02*
X125704367Y-132762244D01*
X125704367Y-132762244D02*
X125704367Y-132267006D01*
X154563099Y-113178332D02*
X154182146Y-113444999D01*
X154563099Y-113635475D02*
X153763099Y-113635475D01*
X153763099Y-113635475D02*
X153763099Y-113330713D01*
X153763099Y-113330713D02*
X153801194Y-113254523D01*
X153801194Y-113254523D02*
X153839289Y-113216428D01*
X153839289Y-113216428D02*
X153915480Y-113178332D01*
X153915480Y-113178332D02*
X154029765Y-113178332D01*
X154029765Y-113178332D02*
X154105956Y-113216428D01*
X154105956Y-113216428D02*
X154144051Y-113254523D01*
X154144051Y-113254523D02*
X154182146Y-113330713D01*
X154182146Y-113330713D02*
X154182146Y-113635475D01*
X154563099Y-112416428D02*
X154563099Y-112873571D01*
X154563099Y-112644999D02*
X153763099Y-112644999D01*
X153763099Y-112644999D02*
X153877384Y-112721190D01*
X153877384Y-112721190D02*
X153953575Y-112797380D01*
X153953575Y-112797380D02*
X153991670Y-112873571D01*
X115879355Y-117751608D02*
X116526974Y-117751608D01*
X116526974Y-117751608D02*
X116603164Y-117713513D01*
X116603164Y-117713513D02*
X116641260Y-117675418D01*
X116641260Y-117675418D02*
X116679355Y-117599227D01*
X116679355Y-117599227D02*
X116679355Y-117446846D01*
X116679355Y-117446846D02*
X116641260Y-117370656D01*
X116641260Y-117370656D02*
X116603164Y-117332561D01*
X116603164Y-117332561D02*
X116526974Y-117294465D01*
X116526974Y-117294465D02*
X115879355Y-117294465D01*
X115955545Y-116951609D02*
X115917450Y-116913513D01*
X115917450Y-116913513D02*
X115879355Y-116837323D01*
X115879355Y-116837323D02*
X115879355Y-116646847D01*
X115879355Y-116646847D02*
X115917450Y-116570656D01*
X115917450Y-116570656D02*
X115955545Y-116532561D01*
X115955545Y-116532561D02*
X116031736Y-116494466D01*
X116031736Y-116494466D02*
X116107926Y-116494466D01*
X116107926Y-116494466D02*
X116222212Y-116532561D01*
X116222212Y-116532561D02*
X116679355Y-116989704D01*
X116679355Y-116989704D02*
X116679355Y-116494466D01*
X150077016Y-133791629D02*
X149277016Y-133791629D01*
X149277016Y-133791629D02*
X149277016Y-133601153D01*
X149277016Y-133601153D02*
X149315111Y-133486867D01*
X149315111Y-133486867D02*
X149391301Y-133410677D01*
X149391301Y-133410677D02*
X149467492Y-133372582D01*
X149467492Y-133372582D02*
X149619873Y-133334486D01*
X149619873Y-133334486D02*
X149734159Y-133334486D01*
X149734159Y-133334486D02*
X149886540Y-133372582D01*
X149886540Y-133372582D02*
X149962730Y-133410677D01*
X149962730Y-133410677D02*
X150038921Y-133486867D01*
X150038921Y-133486867D02*
X150077016Y-133601153D01*
X150077016Y-133601153D02*
X150077016Y-133791629D01*
X149353206Y-133029725D02*
X149315111Y-132991629D01*
X149315111Y-132991629D02*
X149277016Y-132915439D01*
X149277016Y-132915439D02*
X149277016Y-132724963D01*
X149277016Y-132724963D02*
X149315111Y-132648772D01*
X149315111Y-132648772D02*
X149353206Y-132610677D01*
X149353206Y-132610677D02*
X149429397Y-132572582D01*
X149429397Y-132572582D02*
X149505587Y-132572582D01*
X149505587Y-132572582D02*
X149619873Y-132610677D01*
X149619873Y-132610677D02*
X150077016Y-133067820D01*
X150077016Y-133067820D02*
X150077016Y-132572582D01*
X154211913Y-120868855D02*
X153945246Y-120487902D01*
X153754770Y-120868855D02*
X153754770Y-120068855D01*
X153754770Y-120068855D02*
X154059532Y-120068855D01*
X154059532Y-120068855D02*
X154135722Y-120106950D01*
X154135722Y-120106950D02*
X154173817Y-120145045D01*
X154173817Y-120145045D02*
X154211913Y-120221236D01*
X154211913Y-120221236D02*
X154211913Y-120335521D01*
X154211913Y-120335521D02*
X154173817Y-120411712D01*
X154173817Y-120411712D02*
X154135722Y-120449807D01*
X154135722Y-120449807D02*
X154059532Y-120487902D01*
X154059532Y-120487902D02*
X153754770Y-120487902D01*
X154516674Y-120145045D02*
X154554770Y-120106950D01*
X154554770Y-120106950D02*
X154630960Y-120068855D01*
X154630960Y-120068855D02*
X154821436Y-120068855D01*
X154821436Y-120068855D02*
X154897627Y-120106950D01*
X154897627Y-120106950D02*
X154935722Y-120145045D01*
X154935722Y-120145045D02*
X154973817Y-120221236D01*
X154973817Y-120221236D02*
X154973817Y-120297426D01*
X154973817Y-120297426D02*
X154935722Y-120411712D01*
X154935722Y-120411712D02*
X154478579Y-120868855D01*
X154478579Y-120868855D02*
X154973817Y-120868855D01*
X138784524Y-124686355D02*
X138784524Y-123886355D01*
X138784524Y-123886355D02*
X138975000Y-123886355D01*
X138975000Y-123886355D02*
X139089286Y-123924450D01*
X139089286Y-123924450D02*
X139165476Y-124000640D01*
X139165476Y-124000640D02*
X139203571Y-124076831D01*
X139203571Y-124076831D02*
X139241667Y-124229212D01*
X139241667Y-124229212D02*
X139241667Y-124343498D01*
X139241667Y-124343498D02*
X139203571Y-124495879D01*
X139203571Y-124495879D02*
X139165476Y-124572069D01*
X139165476Y-124572069D02*
X139089286Y-124648260D01*
X139089286Y-124648260D02*
X138975000Y-124686355D01*
X138975000Y-124686355D02*
X138784524Y-124686355D01*
X139965476Y-123886355D02*
X139584524Y-123886355D01*
X139584524Y-123886355D02*
X139546428Y-124267307D01*
X139546428Y-124267307D02*
X139584524Y-124229212D01*
X139584524Y-124229212D02*
X139660714Y-124191117D01*
X139660714Y-124191117D02*
X139851190Y-124191117D01*
X139851190Y-124191117D02*
X139927381Y-124229212D01*
X139927381Y-124229212D02*
X139965476Y-124267307D01*
X139965476Y-124267307D02*
X140003571Y-124343498D01*
X140003571Y-124343498D02*
X140003571Y-124533974D01*
X140003571Y-124533974D02*
X139965476Y-124610164D01*
X139965476Y-124610164D02*
X139927381Y-124648260D01*
X139927381Y-124648260D02*
X139851190Y-124686355D01*
X139851190Y-124686355D02*
X139660714Y-124686355D01*
X139660714Y-124686355D02*
X139584524Y-124648260D01*
X139584524Y-124648260D02*
X139546428Y-124610164D01*
X105434238Y-117123071D02*
X105434238Y-117770690D01*
X105434238Y-117770690D02*
X105472333Y-117846880D01*
X105472333Y-117846880D02*
X105510428Y-117884976D01*
X105510428Y-117884976D02*
X105586619Y-117923071D01*
X105586619Y-117923071D02*
X105739000Y-117923071D01*
X105739000Y-117923071D02*
X105815190Y-117884976D01*
X105815190Y-117884976D02*
X105853285Y-117846880D01*
X105853285Y-117846880D02*
X105891381Y-117770690D01*
X105891381Y-117770690D02*
X105891381Y-117123071D01*
X106691380Y-117923071D02*
X106234237Y-117923071D01*
X106462809Y-117923071D02*
X106462809Y-117123071D01*
X106462809Y-117123071D02*
X106386618Y-117237356D01*
X106386618Y-117237356D02*
X106310428Y-117313547D01*
X106310428Y-117313547D02*
X106234237Y-117351642D01*
X106996142Y-117199261D02*
X107034238Y-117161166D01*
X107034238Y-117161166D02*
X107110428Y-117123071D01*
X107110428Y-117123071D02*
X107300904Y-117123071D01*
X107300904Y-117123071D02*
X107377095Y-117161166D01*
X107377095Y-117161166D02*
X107415190Y-117199261D01*
X107415190Y-117199261D02*
X107453285Y-117275452D01*
X107453285Y-117275452D02*
X107453285Y-117351642D01*
X107453285Y-117351642D02*
X107415190Y-117465928D01*
X107415190Y-117465928D02*
X106958047Y-117923071D01*
X106958047Y-117923071D02*
X107453285Y-117923071D01*
X152719461Y-107829045D02*
X153367080Y-107829045D01*
X153367080Y-107829045D02*
X153443270Y-107790950D01*
X153443270Y-107790950D02*
X153481366Y-107752855D01*
X153481366Y-107752855D02*
X153519461Y-107676664D01*
X153519461Y-107676664D02*
X153519461Y-107524283D01*
X153519461Y-107524283D02*
X153481366Y-107448093D01*
X153481366Y-107448093D02*
X153443270Y-107409998D01*
X153443270Y-107409998D02*
X153367080Y-107371902D01*
X153367080Y-107371902D02*
X152719461Y-107371902D01*
X152719461Y-106609998D02*
X152719461Y-106990950D01*
X152719461Y-106990950D02*
X153100413Y-107029046D01*
X153100413Y-107029046D02*
X153062318Y-106990950D01*
X153062318Y-106990950D02*
X153024223Y-106914760D01*
X153024223Y-106914760D02*
X153024223Y-106724284D01*
X153024223Y-106724284D02*
X153062318Y-106648093D01*
X153062318Y-106648093D02*
X153100413Y-106609998D01*
X153100413Y-106609998D02*
X153176604Y-106571903D01*
X153176604Y-106571903D02*
X153367080Y-106571903D01*
X153367080Y-106571903D02*
X153443270Y-106609998D01*
X153443270Y-106609998D02*
X153481366Y-106648093D01*
X153481366Y-106648093D02*
X153519461Y-106724284D01*
X153519461Y-106724284D02*
X153519461Y-106914760D01*
X153519461Y-106914760D02*
X153481366Y-106990950D01*
X153481366Y-106990950D02*
X153443270Y-107029046D01*
X113915569Y-118284322D02*
X113915569Y-118665274D01*
X113915569Y-118665274D02*
X113115569Y-118665274D01*
X113191759Y-118055751D02*
X113153664Y-118017655D01*
X113153664Y-118017655D02*
X113115569Y-117941465D01*
X113115569Y-117941465D02*
X113115569Y-117750989D01*
X113115569Y-117750989D02*
X113153664Y-117674798D01*
X113153664Y-117674798D02*
X113191759Y-117636703D01*
X113191759Y-117636703D02*
X113267950Y-117598608D01*
X113267950Y-117598608D02*
X113344140Y-117598608D01*
X113344140Y-117598608D02*
X113458426Y-117636703D01*
X113458426Y-117636703D02*
X113915569Y-118093846D01*
X113915569Y-118093846D02*
X113915569Y-117598608D01*
X149348808Y-135785044D02*
X149272618Y-135746949D01*
X149272618Y-135746949D02*
X149196427Y-135670759D01*
X149196427Y-135670759D02*
X149082141Y-135556473D01*
X149082141Y-135556473D02*
X149005951Y-135518378D01*
X149005951Y-135518378D02*
X148929760Y-135518378D01*
X148967856Y-135708854D02*
X148891665Y-135670759D01*
X148891665Y-135670759D02*
X148815475Y-135594568D01*
X148815475Y-135594568D02*
X148777379Y-135442187D01*
X148777379Y-135442187D02*
X148777379Y-135175520D01*
X148777379Y-135175520D02*
X148815475Y-135023139D01*
X148815475Y-135023139D02*
X148891665Y-134946949D01*
X148891665Y-134946949D02*
X148967856Y-134908854D01*
X148967856Y-134908854D02*
X149120237Y-134908854D01*
X149120237Y-134908854D02*
X149196427Y-134946949D01*
X149196427Y-134946949D02*
X149272618Y-135023139D01*
X149272618Y-135023139D02*
X149310713Y-135175520D01*
X149310713Y-135175520D02*
X149310713Y-135442187D01*
X149310713Y-135442187D02*
X149272618Y-135594568D01*
X149272618Y-135594568D02*
X149196427Y-135670759D01*
X149196427Y-135670759D02*
X149120237Y-135708854D01*
X149120237Y-135708854D02*
X148967856Y-135708854D01*
X150072617Y-135708854D02*
X149615474Y-135708854D01*
X149844046Y-135708854D02*
X149844046Y-134908854D01*
X149844046Y-134908854D02*
X149767855Y-135023139D01*
X149767855Y-135023139D02*
X149691665Y-135099330D01*
X149691665Y-135099330D02*
X149615474Y-135137425D01*
X129530845Y-132365318D02*
X129530845Y-132936746D01*
X129530845Y-132936746D02*
X129492750Y-133051032D01*
X129492750Y-133051032D02*
X129416559Y-133127223D01*
X129416559Y-133127223D02*
X129302274Y-133165318D01*
X129302274Y-133165318D02*
X129226083Y-133165318D01*
X130292750Y-132365318D02*
X129911798Y-132365318D01*
X129911798Y-132365318D02*
X129873702Y-132746270D01*
X129873702Y-132746270D02*
X129911798Y-132708175D01*
X129911798Y-132708175D02*
X129987988Y-132670080D01*
X129987988Y-132670080D02*
X130178464Y-132670080D01*
X130178464Y-132670080D02*
X130254655Y-132708175D01*
X130254655Y-132708175D02*
X130292750Y-132746270D01*
X130292750Y-132746270D02*
X130330845Y-132822461D01*
X130330845Y-132822461D02*
X130330845Y-133012937D01*
X130330845Y-133012937D02*
X130292750Y-133089127D01*
X130292750Y-133089127D02*
X130254655Y-133127223D01*
X130254655Y-133127223D02*
X130178464Y-133165318D01*
X130178464Y-133165318D02*
X129987988Y-133165318D01*
X129987988Y-133165318D02*
X129911798Y-133127223D01*
X129911798Y-133127223D02*
X129873702Y-133089127D01*
X117806101Y-128653987D02*
X118453720Y-128653987D01*
X118453720Y-128653987D02*
X118529910Y-128615892D01*
X118529910Y-128615892D02*
X118568006Y-128577797D01*
X118568006Y-128577797D02*
X118606101Y-128501606D01*
X118606101Y-128501606D02*
X118606101Y-128349225D01*
X118606101Y-128349225D02*
X118568006Y-128273035D01*
X118568006Y-128273035D02*
X118529910Y-128234940D01*
X118529910Y-128234940D02*
X118453720Y-128196844D01*
X118453720Y-128196844D02*
X117806101Y-128196844D01*
X118606101Y-127396845D02*
X118606101Y-127853988D01*
X118606101Y-127625416D02*
X117806101Y-127625416D01*
X117806101Y-127625416D02*
X117920386Y-127701607D01*
X117920386Y-127701607D02*
X117996577Y-127777797D01*
X117996577Y-127777797D02*
X118034672Y-127853988D01*
X118606101Y-126634940D02*
X118606101Y-127092083D01*
X118606101Y-126863511D02*
X117806101Y-126863511D01*
X117806101Y-126863511D02*
X117920386Y-126939702D01*
X117920386Y-126939702D02*
X117996577Y-127015892D01*
X117996577Y-127015892D02*
X118034672Y-127092083D01*
X153446830Y-114857971D02*
X153446830Y-115505590D01*
X153446830Y-115505590D02*
X153484925Y-115581780D01*
X153484925Y-115581780D02*
X153523020Y-115619876D01*
X153523020Y-115619876D02*
X153599211Y-115657971D01*
X153599211Y-115657971D02*
X153751592Y-115657971D01*
X153751592Y-115657971D02*
X153827782Y-115619876D01*
X153827782Y-115619876D02*
X153865877Y-115581780D01*
X153865877Y-115581780D02*
X153903973Y-115505590D01*
X153903973Y-115505590D02*
X153903973Y-114857971D01*
X154208734Y-114857971D02*
X154742068Y-114857971D01*
X154742068Y-114857971D02*
X154399210Y-115657971D01*
X151947576Y-130535318D02*
X151947576Y-131106746D01*
X151947576Y-131106746D02*
X151909481Y-131221032D01*
X151909481Y-131221032D02*
X151833290Y-131297223D01*
X151833290Y-131297223D02*
X151719005Y-131335318D01*
X151719005Y-131335318D02*
X151642814Y-131335318D01*
X152252338Y-130535318D02*
X152747576Y-130535318D01*
X152747576Y-130535318D02*
X152480910Y-130840080D01*
X152480910Y-130840080D02*
X152595195Y-130840080D01*
X152595195Y-130840080D02*
X152671386Y-130878175D01*
X152671386Y-130878175D02*
X152709481Y-130916270D01*
X152709481Y-130916270D02*
X152747576Y-130992461D01*
X152747576Y-130992461D02*
X152747576Y-131182937D01*
X152747576Y-131182937D02*
X152709481Y-131259127D01*
X152709481Y-131259127D02*
X152671386Y-131297223D01*
X152671386Y-131297223D02*
X152595195Y-131335318D01*
X152595195Y-131335318D02*
X152366624Y-131335318D01*
X152366624Y-131335318D02*
X152290433Y-131297223D01*
X152290433Y-131297223D02*
X152252338Y-131259127D01*
X122957902Y-127936148D02*
X123338855Y-127936148D01*
X122538855Y-128202815D02*
X122957902Y-127936148D01*
X122957902Y-127936148D02*
X122538855Y-127669482D01*
X123338855Y-126983768D02*
X123338855Y-127440911D01*
X123338855Y-127212339D02*
X122538855Y-127212339D01*
X122538855Y-127212339D02*
X122653140Y-127288530D01*
X122653140Y-127288530D02*
X122729331Y-127364720D01*
X122729331Y-127364720D02*
X122767426Y-127440911D01*
X107491601Y-135140191D02*
X108139220Y-135140191D01*
X108139220Y-135140191D02*
X108215410Y-135102096D01*
X108215410Y-135102096D02*
X108253506Y-135064001D01*
X108253506Y-135064001D02*
X108291601Y-134987810D01*
X108291601Y-134987810D02*
X108291601Y-134835429D01*
X108291601Y-134835429D02*
X108253506Y-134759239D01*
X108253506Y-134759239D02*
X108215410Y-134721144D01*
X108215410Y-134721144D02*
X108139220Y-134683048D01*
X108139220Y-134683048D02*
X107491601Y-134683048D01*
X108291601Y-133883049D02*
X108291601Y-134340192D01*
X108291601Y-134111620D02*
X107491601Y-134111620D01*
X107491601Y-134111620D02*
X107605886Y-134187811D01*
X107605886Y-134187811D02*
X107682077Y-134264001D01*
X107682077Y-134264001D02*
X107720172Y-134340192D01*
X107491601Y-133387810D02*
X107491601Y-133311620D01*
X107491601Y-133311620D02*
X107529696Y-133235429D01*
X107529696Y-133235429D02*
X107567791Y-133197334D01*
X107567791Y-133197334D02*
X107643982Y-133159239D01*
X107643982Y-133159239D02*
X107796363Y-133121144D01*
X107796363Y-133121144D02*
X107986839Y-133121144D01*
X107986839Y-133121144D02*
X108139220Y-133159239D01*
X108139220Y-133159239D02*
X108215410Y-133197334D01*
X108215410Y-133197334D02*
X108253506Y-133235429D01*
X108253506Y-133235429D02*
X108291601Y-133311620D01*
X108291601Y-133311620D02*
X108291601Y-133387810D01*
X108291601Y-133387810D02*
X108253506Y-133464001D01*
X108253506Y-133464001D02*
X108215410Y-133502096D01*
X108215410Y-133502096D02*
X108139220Y-133540191D01*
X108139220Y-133540191D02*
X107986839Y-133578287D01*
X107986839Y-133578287D02*
X107796363Y-133578287D01*
X107796363Y-133578287D02*
X107643982Y-133540191D01*
X107643982Y-133540191D02*
X107567791Y-133502096D01*
X107567791Y-133502096D02*
X107529696Y-133464001D01*
X107529696Y-133464001D02*
X107491601Y-133387810D01*
X101652356Y-108675909D02*
X102299975Y-108675909D01*
X102299975Y-108675909D02*
X102376165Y-108637814D01*
X102376165Y-108637814D02*
X102414261Y-108599719D01*
X102414261Y-108599719D02*
X102452356Y-108523528D01*
X102452356Y-108523528D02*
X102452356Y-108371147D01*
X102452356Y-108371147D02*
X102414261Y-108294957D01*
X102414261Y-108294957D02*
X102376165Y-108256862D01*
X102376165Y-108256862D02*
X102299975Y-108218766D01*
X102299975Y-108218766D02*
X101652356Y-108218766D01*
X101919022Y-107494957D02*
X102452356Y-107494957D01*
X101614261Y-107685433D02*
X102185689Y-107875910D01*
X102185689Y-107875910D02*
X102185689Y-107380671D01*
X147050718Y-122702500D02*
X147698337Y-122702500D01*
X147698337Y-122702500D02*
X147774527Y-122664405D01*
X147774527Y-122664405D02*
X147812623Y-122626310D01*
X147812623Y-122626310D02*
X147850718Y-122550119D01*
X147850718Y-122550119D02*
X147850718Y-122397738D01*
X147850718Y-122397738D02*
X147812623Y-122321548D01*
X147812623Y-122321548D02*
X147774527Y-122283453D01*
X147774527Y-122283453D02*
X147698337Y-122245357D01*
X147698337Y-122245357D02*
X147050718Y-122245357D01*
X147393575Y-121750120D02*
X147355480Y-121826310D01*
X147355480Y-121826310D02*
X147317384Y-121864405D01*
X147317384Y-121864405D02*
X147241194Y-121902501D01*
X147241194Y-121902501D02*
X147203099Y-121902501D01*
X147203099Y-121902501D02*
X147126908Y-121864405D01*
X147126908Y-121864405D02*
X147088813Y-121826310D01*
X147088813Y-121826310D02*
X147050718Y-121750120D01*
X147050718Y-121750120D02*
X147050718Y-121597739D01*
X147050718Y-121597739D02*
X147088813Y-121521548D01*
X147088813Y-121521548D02*
X147126908Y-121483453D01*
X147126908Y-121483453D02*
X147203099Y-121445358D01*
X147203099Y-121445358D02*
X147241194Y-121445358D01*
X147241194Y-121445358D02*
X147317384Y-121483453D01*
X147317384Y-121483453D02*
X147355480Y-121521548D01*
X147355480Y-121521548D02*
X147393575Y-121597739D01*
X147393575Y-121597739D02*
X147393575Y-121750120D01*
X147393575Y-121750120D02*
X147431670Y-121826310D01*
X147431670Y-121826310D02*
X147469765Y-121864405D01*
X147469765Y-121864405D02*
X147545956Y-121902501D01*
X147545956Y-121902501D02*
X147698337Y-121902501D01*
X147698337Y-121902501D02*
X147774527Y-121864405D01*
X147774527Y-121864405D02*
X147812623Y-121826310D01*
X147812623Y-121826310D02*
X147850718Y-121750120D01*
X147850718Y-121750120D02*
X147850718Y-121597739D01*
X147850718Y-121597739D02*
X147812623Y-121521548D01*
X147812623Y-121521548D02*
X147774527Y-121483453D01*
X147774527Y-121483453D02*
X147698337Y-121445358D01*
X147698337Y-121445358D02*
X147545956Y-121445358D01*
X147545956Y-121445358D02*
X147469765Y-121483453D01*
X147469765Y-121483453D02*
X147431670Y-121521548D01*
X147431670Y-121521548D02*
X147393575Y-121597739D01*
X124831206Y-107349255D02*
X124945492Y-107387350D01*
X124945492Y-107387350D02*
X125135968Y-107387350D01*
X125135968Y-107387350D02*
X125212159Y-107349255D01*
X125212159Y-107349255D02*
X125250254Y-107311159D01*
X125250254Y-107311159D02*
X125288349Y-107234969D01*
X125288349Y-107234969D02*
X125288349Y-107158778D01*
X125288349Y-107158778D02*
X125250254Y-107082588D01*
X125250254Y-107082588D02*
X125212159Y-107044493D01*
X125212159Y-107044493D02*
X125135968Y-107006397D01*
X125135968Y-107006397D02*
X124983587Y-106968302D01*
X124983587Y-106968302D02*
X124907397Y-106930207D01*
X124907397Y-106930207D02*
X124869302Y-106892112D01*
X124869302Y-106892112D02*
X124831206Y-106815921D01*
X124831206Y-106815921D02*
X124831206Y-106739731D01*
X124831206Y-106739731D02*
X124869302Y-106663540D01*
X124869302Y-106663540D02*
X124907397Y-106625445D01*
X124907397Y-106625445D02*
X124983587Y-106587350D01*
X124983587Y-106587350D02*
X125174064Y-106587350D01*
X125174064Y-106587350D02*
X125288349Y-106625445D01*
X125555016Y-106587350D02*
X125745492Y-107387350D01*
X125745492Y-107387350D02*
X125897873Y-106815921D01*
X125897873Y-106815921D02*
X126050254Y-107387350D01*
X126050254Y-107387350D02*
X126240731Y-106587350D01*
X126964540Y-107387350D02*
X126507397Y-107387350D01*
X126735969Y-107387350D02*
X126735969Y-106587350D01*
X126735969Y-106587350D02*
X126659778Y-106701635D01*
X126659778Y-106701635D02*
X126583588Y-106777826D01*
X126583588Y-106777826D02*
X126507397Y-106815921D01*
X145217005Y-118117185D02*
X145864624Y-118117185D01*
X145864624Y-118117185D02*
X145940814Y-118079090D01*
X145940814Y-118079090D02*
X145978910Y-118040995D01*
X145978910Y-118040995D02*
X146017005Y-117964804D01*
X146017005Y-117964804D02*
X146017005Y-117812423D01*
X146017005Y-117812423D02*
X145978910Y-117736233D01*
X145978910Y-117736233D02*
X145940814Y-117698138D01*
X145940814Y-117698138D02*
X145864624Y-117660042D01*
X145864624Y-117660042D02*
X145217005Y-117660042D01*
X145217005Y-116936233D02*
X145217005Y-117088614D01*
X145217005Y-117088614D02*
X145255100Y-117164805D01*
X145255100Y-117164805D02*
X145293195Y-117202900D01*
X145293195Y-117202900D02*
X145407481Y-117279090D01*
X145407481Y-117279090D02*
X145559862Y-117317186D01*
X145559862Y-117317186D02*
X145864624Y-117317186D01*
X145864624Y-117317186D02*
X145940814Y-117279090D01*
X145940814Y-117279090D02*
X145978910Y-117240995D01*
X145978910Y-117240995D02*
X146017005Y-117164805D01*
X146017005Y-117164805D02*
X146017005Y-117012424D01*
X146017005Y-117012424D02*
X145978910Y-116936233D01*
X145978910Y-116936233D02*
X145940814Y-116898138D01*
X145940814Y-116898138D02*
X145864624Y-116860043D01*
X145864624Y-116860043D02*
X145674148Y-116860043D01*
X145674148Y-116860043D02*
X145597957Y-116898138D01*
X145597957Y-116898138D02*
X145559862Y-116936233D01*
X145559862Y-116936233D02*
X145521767Y-117012424D01*
X145521767Y-117012424D02*
X145521767Y-117164805D01*
X145521767Y-117164805D02*
X145559862Y-117240995D01*
X145559862Y-117240995D02*
X145597957Y-117279090D01*
X145597957Y-117279090D02*
X145674148Y-117317186D01*
X100665196Y-104010498D02*
X100665196Y-104581926D01*
X100665196Y-104581926D02*
X100627101Y-104696212D01*
X100627101Y-104696212D02*
X100550910Y-104772403D01*
X100550910Y-104772403D02*
X100436625Y-104810498D01*
X100436625Y-104810498D02*
X100360434Y-104810498D01*
X101465196Y-104810498D02*
X101008053Y-104810498D01*
X101236625Y-104810498D02*
X101236625Y-104010498D01*
X101236625Y-104010498D02*
X101160434Y-104124783D01*
X101160434Y-104124783D02*
X101084244Y-104200974D01*
X101084244Y-104200974D02*
X101008053Y-104239069D01*
X118125285Y-118009336D02*
X118772904Y-118009336D01*
X118772904Y-118009336D02*
X118849094Y-117971241D01*
X118849094Y-117971241D02*
X118887190Y-117933146D01*
X118887190Y-117933146D02*
X118925285Y-117856955D01*
X118925285Y-117856955D02*
X118925285Y-117704574D01*
X118925285Y-117704574D02*
X118887190Y-117628384D01*
X118887190Y-117628384D02*
X118849094Y-117590289D01*
X118849094Y-117590289D02*
X118772904Y-117552193D01*
X118772904Y-117552193D02*
X118125285Y-117552193D01*
X118925285Y-116752194D02*
X118925285Y-117209337D01*
X118925285Y-116980765D02*
X118125285Y-116980765D01*
X118125285Y-116980765D02*
X118239570Y-117056956D01*
X118239570Y-117056956D02*
X118315761Y-117133146D01*
X118315761Y-117133146D02*
X118353856Y-117209337D01*
X132170366Y-132793129D02*
X132741794Y-132793129D01*
X132741794Y-132793129D02*
X132856080Y-132831224D01*
X132856080Y-132831224D02*
X132932271Y-132907415D01*
X132932271Y-132907415D02*
X132970366Y-133021700D01*
X132970366Y-133021700D02*
X132970366Y-133097891D01*
X132970366Y-132412176D02*
X132170366Y-132412176D01*
X132170366Y-132412176D02*
X132170366Y-132107414D01*
X132170366Y-132107414D02*
X132208461Y-132031224D01*
X132208461Y-132031224D02*
X132246556Y-131993129D01*
X132246556Y-131993129D02*
X132322747Y-131955033D01*
X132322747Y-131955033D02*
X132437032Y-131955033D01*
X132437032Y-131955033D02*
X132513223Y-131993129D01*
X132513223Y-131993129D02*
X132551318Y-132031224D01*
X132551318Y-132031224D02*
X132589413Y-132107414D01*
X132589413Y-132107414D02*
X132589413Y-132412176D01*
X132170366Y-131688367D02*
X132170366Y-131193129D01*
X132170366Y-131193129D02*
X132475128Y-131459795D01*
X132475128Y-131459795D02*
X132475128Y-131345510D01*
X132475128Y-131345510D02*
X132513223Y-131269319D01*
X132513223Y-131269319D02*
X132551318Y-131231224D01*
X132551318Y-131231224D02*
X132627509Y-131193129D01*
X132627509Y-131193129D02*
X132817985Y-131193129D01*
X132817985Y-131193129D02*
X132894175Y-131231224D01*
X132894175Y-131231224D02*
X132932271Y-131269319D01*
X132932271Y-131269319D02*
X132970366Y-131345510D01*
X132970366Y-131345510D02*
X132970366Y-131574081D01*
X132970366Y-131574081D02*
X132932271Y-131650272D01*
X132932271Y-131650272D02*
X132894175Y-131688367D01*
X100726790Y-118599335D02*
X100726790Y-117799335D01*
X100726790Y-117799335D02*
X100917266Y-117799335D01*
X100917266Y-117799335D02*
X101031552Y-117837430D01*
X101031552Y-117837430D02*
X101107742Y-117913620D01*
X101107742Y-117913620D02*
X101145837Y-117989811D01*
X101145837Y-117989811D02*
X101183933Y-118142192D01*
X101183933Y-118142192D02*
X101183933Y-118256478D01*
X101183933Y-118256478D02*
X101145837Y-118408859D01*
X101145837Y-118408859D02*
X101107742Y-118485049D01*
X101107742Y-118485049D02*
X101031552Y-118561240D01*
X101031552Y-118561240D02*
X100917266Y-118599335D01*
X100917266Y-118599335D02*
X100726790Y-118599335D01*
X101945837Y-118599335D02*
X101488694Y-118599335D01*
X101717266Y-118599335D02*
X101717266Y-117799335D01*
X101717266Y-117799335D02*
X101641075Y-117913620D01*
X101641075Y-117913620D02*
X101564885Y-117989811D01*
X101564885Y-117989811D02*
X101488694Y-118027906D01*
X107143356Y-108777180D02*
X107790975Y-108777180D01*
X107790975Y-108777180D02*
X107867165Y-108739085D01*
X107867165Y-108739085D02*
X107905261Y-108700990D01*
X107905261Y-108700990D02*
X107943356Y-108624799D01*
X107943356Y-108624799D02*
X107943356Y-108472418D01*
X107943356Y-108472418D02*
X107905261Y-108396228D01*
X107905261Y-108396228D02*
X107867165Y-108358133D01*
X107867165Y-108358133D02*
X107790975Y-108320037D01*
X107790975Y-108320037D02*
X107143356Y-108320037D01*
X107143356Y-108015276D02*
X107143356Y-107520038D01*
X107143356Y-107520038D02*
X107448118Y-107786704D01*
X107448118Y-107786704D02*
X107448118Y-107672419D01*
X107448118Y-107672419D02*
X107486213Y-107596228D01*
X107486213Y-107596228D02*
X107524308Y-107558133D01*
X107524308Y-107558133D02*
X107600499Y-107520038D01*
X107600499Y-107520038D02*
X107790975Y-107520038D01*
X107790975Y-107520038D02*
X107867165Y-107558133D01*
X107867165Y-107558133D02*
X107905261Y-107596228D01*
X107905261Y-107596228D02*
X107943356Y-107672419D01*
X107943356Y-107672419D02*
X107943356Y-107900990D01*
X107943356Y-107900990D02*
X107905261Y-107977181D01*
X107905261Y-107977181D02*
X107867165Y-108015276D01*
X125916666Y-112103855D02*
X125535714Y-112103855D01*
X125535714Y-112103855D02*
X125535714Y-111303855D01*
X126602380Y-112103855D02*
X126145237Y-112103855D01*
X126373809Y-112103855D02*
X126373809Y-111303855D01*
X126373809Y-111303855D02*
X126297618Y-111418140D01*
X126297618Y-111418140D02*
X126221428Y-111494331D01*
X126221428Y-111494331D02*
X126145237Y-111532426D01*
%TO.C,R5*%
X118888758Y-121018782D02*
X119196040Y-121018782D01*
X118888758Y-121778782D02*
X119196040Y-121778782D01*
%TO.C,C9*%
X116406399Y-121660455D02*
X116406399Y-121137951D01*
X117876399Y-121660455D02*
X117876399Y-121137951D01*
%TO.C,R38*%
X141312742Y-123777500D02*
X141787258Y-123777500D01*
X141312742Y-124822500D02*
X141787258Y-124822500D01*
%TO.C,R12*%
X112760938Y-131567221D02*
X113235454Y-131567221D01*
X112760938Y-132612221D02*
X113235454Y-132612221D01*
%TO.C,U14*%
X144138690Y-126313039D02*
X145958690Y-126313039D01*
X144138690Y-126363039D02*
X144138690Y-126313039D01*
X144138690Y-129433039D02*
X144138690Y-129383039D01*
X145958690Y-126313039D02*
X145958690Y-126363039D01*
X145958690Y-129383039D02*
X145958690Y-129433039D01*
X145958690Y-129433039D02*
X144138690Y-129433039D01*
X143598690Y-126363039D02*
X143358690Y-126033039D01*
X143838690Y-126033039D01*
X143598690Y-126363039D01*
G36*
X143598690Y-126363039D02*
G01*
X143358690Y-126033039D01*
X143838690Y-126033039D01*
X143598690Y-126363039D01*
G37*
%TO.C,R16*%
X135318296Y-118251839D02*
X135318296Y-117944557D01*
X136078296Y-118251839D02*
X136078296Y-117944557D01*
%TO.C,R28*%
X146667034Y-130942740D02*
X146359752Y-130942740D01*
X146667034Y-131702740D02*
X146359752Y-131702740D01*
%TO.C,J4*%
X99476746Y-126756463D02*
X99476746Y-135186463D01*
X102296746Y-125486463D02*
X103746746Y-125486463D01*
X102296746Y-136456463D02*
X103746746Y-136456463D01*
X103746746Y-125486463D02*
X103746746Y-127286463D01*
X103746746Y-127286463D02*
X104736746Y-127286463D01*
X103746746Y-136456463D02*
X103746746Y-134656463D01*
%TO.C,C39*%
X99076746Y-122390228D02*
X99076746Y-122912732D01*
X100546746Y-122390228D02*
X100546746Y-122912732D01*
%TO.C,D4*%
X147239690Y-130593463D02*
X147239690Y-126933463D01*
X147239690Y-130593463D02*
X149139690Y-130593463D01*
X149139690Y-130593463D02*
X149139690Y-126933463D01*
%TO.C,R20*%
X121027234Y-123020720D02*
X120719952Y-123020720D01*
X121027234Y-123780720D02*
X120719952Y-123780720D01*
%TO.C,R17*%
X147653641Y-135976463D02*
X147346359Y-135976463D01*
X147653641Y-136736463D02*
X147346359Y-136736463D01*
%TO.C,R21*%
X151010271Y-117908464D02*
X151010271Y-118215746D01*
X151770271Y-117908464D02*
X151770271Y-118215746D01*
%TO.C,C26*%
X152491160Y-125976242D02*
X152706832Y-125976242D01*
X152491160Y-126696242D02*
X152706832Y-126696242D01*
%TO.C,C2*%
X114712132Y-117292164D02*
X114712132Y-117507836D01*
X115432132Y-117292164D02*
X115432132Y-117507836D01*
%TO.C,R6*%
X156880995Y-118351295D02*
X156573713Y-118351295D01*
X156880995Y-119111295D02*
X156573713Y-119111295D01*
%TO.C,C12*%
X117902910Y-130339999D02*
X118118582Y-130339999D01*
X117902910Y-131059999D02*
X118118582Y-131059999D01*
%TO.C,J2*%
X129690487Y-105746643D02*
X129690487Y-104406643D01*
X131180487Y-105746643D02*
X129690487Y-105746643D01*
X147500487Y-105746643D02*
X147500487Y-106946643D01*
X147500487Y-105746643D02*
X148990487Y-105746643D01*
X148990487Y-105746643D02*
X148990487Y-104406643D01*
%TO.C,C5*%
X147662442Y-115341596D02*
X147446770Y-115341596D01*
X147662442Y-116061596D02*
X147446770Y-116061596D01*
%TO.C,J6*%
X109638512Y-136561463D02*
X109638512Y-135181463D01*
X111018512Y-136561463D02*
X109638512Y-136561463D01*
X112288512Y-133801463D02*
X120018512Y-133801463D01*
X112288512Y-136561463D02*
X112288512Y-133801463D01*
X112288512Y-136561463D02*
X120018512Y-136561463D01*
X120018512Y-136561463D02*
X120018512Y-133801463D01*
%TO.C,R24*%
X130796358Y-115620000D02*
X131103640Y-115620000D01*
X130796358Y-116380000D02*
X131103640Y-116380000D01*
%TO.C,U9*%
X122895926Y-117041214D02*
X123345926Y-117041214D01*
X122895926Y-117491214D02*
X122895926Y-117041214D01*
X122895926Y-124261214D02*
X122895926Y-123811214D01*
X123345926Y-124261214D02*
X122895926Y-124261214D01*
X129665926Y-117041214D02*
X130115926Y-117041214D01*
X130115926Y-117041214D02*
X130115926Y-117491214D01*
X130115926Y-123811214D02*
X130115926Y-124261214D01*
X130115926Y-124261214D02*
X129665926Y-124261214D01*
X122395926Y-117851214D02*
X122065926Y-118091214D01*
X122065926Y-117611214D01*
X122395926Y-117851214D01*
G36*
X122395926Y-117851214D02*
G01*
X122065926Y-118091214D01*
X122065926Y-117611214D01*
X122395926Y-117851214D01*
G37*
%TO.C,JP1*%
X120649512Y-134701463D02*
X123449512Y-134701463D01*
X120649512Y-136701463D02*
X120649512Y-134701463D01*
X123449512Y-134701463D02*
X123449512Y-136701463D01*
X123449512Y-136701463D02*
X120649512Y-136701463D01*
%TO.C,C22*%
X108685714Y-120536158D02*
X108685714Y-120254998D01*
X109705714Y-120536158D02*
X109705714Y-120254998D01*
%TO.C,R27*%
X149463238Y-130858110D02*
X149770520Y-130858110D01*
X149463238Y-131618110D02*
X149770520Y-131618110D01*
%TO.C,R8*%
X157948739Y-120718338D02*
X157641457Y-120718338D01*
X157948739Y-121478338D02*
X157641457Y-121478338D01*
%TO.C,C20*%
X122147075Y-130407836D02*
X122147075Y-130192164D01*
X122867075Y-130407836D02*
X122867075Y-130192164D01*
%TO.C,D3*%
X142515000Y-135366463D02*
X142515000Y-136836463D01*
X142515000Y-136836463D02*
X144800000Y-136836463D01*
X144800000Y-135366463D02*
X142515000Y-135366463D01*
%TO.C,U13*%
X131564652Y-126749861D02*
X131564652Y-126399861D01*
X133484652Y-124929861D02*
X133484652Y-125279861D01*
X133484652Y-126399861D02*
X133484652Y-126749861D01*
X131474652Y-125269861D02*
X131334652Y-125079861D01*
X131614652Y-125079861D01*
X131474652Y-125269861D01*
G36*
X131474652Y-125269861D02*
G01*
X131334652Y-125079861D01*
X131614652Y-125079861D01*
X131474652Y-125269861D01*
G37*
%TO.C,R18*%
X104941448Y-122883716D02*
X104634166Y-122883716D01*
X104941448Y-123643716D02*
X104634166Y-123643716D01*
%TO.C,R3*%
X119196040Y-119820000D02*
X118888758Y-119820000D01*
X119196040Y-120580000D02*
X118888758Y-120580000D01*
%TO.C,JP2*%
X123940512Y-134675340D02*
X126740512Y-134675340D01*
X123940512Y-136675340D02*
X123940512Y-134675340D01*
X126740512Y-134675340D02*
X126740512Y-136675340D01*
X126740512Y-136675340D02*
X123940512Y-136675340D01*
%TO.C,C45*%
X134040000Y-120892164D02*
X134040000Y-121107836D01*
X134760000Y-120892164D02*
X134760000Y-121107836D01*
%TO.C,R1*%
X158114244Y-117646359D02*
X158114244Y-117953641D01*
X158874244Y-117646359D02*
X158874244Y-117953641D01*
%TO.C,U2*%
X110335501Y-114939585D02*
X110335501Y-110319585D01*
X115805501Y-110319585D02*
X115805501Y-114939585D01*
X115350501Y-108769585D02*
X115110501Y-108439585D01*
X115590501Y-108439585D01*
X115350501Y-108769585D01*
G36*
X115350501Y-108769585D02*
G01*
X115110501Y-108439585D01*
X115590501Y-108439585D01*
X115350501Y-108769585D01*
G37*
%TO.C,R35*%
X130035088Y-111341912D02*
X130035088Y-111649194D01*
X130795088Y-111341912D02*
X130795088Y-111649194D01*
%TO.C,D2*%
X150638161Y-134811154D02*
X150638161Y-132151154D01*
X150638161Y-134811154D02*
X152338161Y-134811154D01*
X152338161Y-134811154D02*
X152338161Y-132151154D01*
%TO.C,C31*%
X150109271Y-118124566D02*
X150109271Y-117908894D01*
X150829271Y-118124566D02*
X150829271Y-117908894D01*
%TO.C,R32*%
X134496120Y-124909016D02*
X134496120Y-124601734D01*
X135256120Y-124909016D02*
X135256120Y-124601734D01*
%TO.C,R4*%
X119124367Y-118620000D02*
X118817085Y-118620000D01*
X119124367Y-119380000D02*
X118817085Y-119380000D01*
%TO.C,R22*%
X148211555Y-117918336D02*
X148211555Y-118225618D01*
X148971555Y-117918336D02*
X148971555Y-118225618D01*
%TO.C,R2*%
X154191605Y-123620000D02*
X154498887Y-123620000D01*
X154191605Y-124380000D02*
X154498887Y-124380000D01*
%TO.C,R31*%
X121003641Y-125220000D02*
X120696359Y-125220000D01*
X121003641Y-125980000D02*
X120696359Y-125980000D01*
%TO.C,C42*%
X143155249Y-125471382D02*
X143155249Y-125255710D01*
X143875249Y-125471382D02*
X143875249Y-125255710D01*
%TO.C,R33*%
X134362292Y-126452734D02*
X134362292Y-126760016D01*
X135122292Y-126452734D02*
X135122292Y-126760016D01*
%TO.C,D5*%
X136750000Y-125010000D02*
X138050000Y-125010000D01*
X136750000Y-126990000D02*
X137800000Y-126990000D01*
X138170000Y-126990000D02*
X138450000Y-126990000D01*
X138170000Y-127270000D01*
X138170000Y-126990000D01*
G36*
X138170000Y-127270000D02*
G01*
X138170000Y-126990000D01*
X138450000Y-126990000D01*
X138170000Y-127270000D01*
G37*
%TO.C,C10*%
X151241942Y-127338874D02*
X150719438Y-127338874D01*
X151241942Y-128808874D02*
X150719438Y-128808874D01*
%TO.C,C8*%
X150287300Y-126085038D02*
X150287300Y-126300710D01*
X151007300Y-126085038D02*
X151007300Y-126300710D01*
%TO.C,R30*%
X121003641Y-124120000D02*
X120696359Y-124120000D01*
X121003641Y-124880000D02*
X120696359Y-124880000D01*
%TO.C,U12*%
X105514714Y-118611716D02*
X107334714Y-118611716D01*
X105514714Y-118661716D02*
X105514714Y-118611716D01*
X105514714Y-120561716D02*
X105514714Y-119781716D01*
X105514714Y-121731716D02*
X105514714Y-121681716D01*
X107334714Y-118611716D02*
X107334714Y-118661716D01*
X107334714Y-121681716D02*
X107334714Y-121731716D01*
X107334714Y-121731716D02*
X105514714Y-121731716D01*
X107874714Y-121681716D02*
X108114714Y-122011716D01*
X107634714Y-122011716D01*
X107874714Y-121681716D01*
G36*
X108114714Y-122011716D02*
G01*
X107634714Y-122011716D01*
X107874714Y-121681716D01*
X108114714Y-122011716D01*
G37*
%TO.C,C1*%
X120091616Y-117292164D02*
X120091616Y-117507836D01*
X120811616Y-117292164D02*
X120811616Y-117507836D01*
%TO.C,U5*%
X150395606Y-108282022D02*
X155915606Y-108282022D01*
X150395606Y-108457022D02*
X150395606Y-108282022D01*
X150395606Y-116702022D02*
X150395606Y-116527022D01*
X155915606Y-108282022D02*
X155915606Y-108457022D01*
X155915606Y-116527022D02*
X155915606Y-116702022D01*
X155915606Y-116702022D02*
X150395606Y-116702022D01*
X156655606Y-116532022D02*
X156995606Y-117002022D01*
X156315606Y-117002022D01*
X156655606Y-116532022D01*
G36*
X156995606Y-117002022D02*
G01*
X156315606Y-117002022D01*
X156655606Y-116532022D01*
X156995606Y-117002022D01*
G37*
%TO.C,R37*%
X111019999Y-124753640D02*
X111019999Y-124446358D01*
X111779999Y-124753640D02*
X111779999Y-124446358D01*
%TO.C,R19*%
X104922508Y-121952716D02*
X104615226Y-121952716D01*
X104922508Y-122712716D02*
X104615226Y-122712716D01*
%TO.C,L2*%
X110136714Y-120303925D02*
X110136714Y-121508053D01*
X112856714Y-120303925D02*
X112856714Y-121508053D01*
%TO.C,C21*%
X128892164Y-129089999D02*
X129107836Y-129089999D01*
X128892164Y-129809999D02*
X129107836Y-129809999D01*
%TO.C,Q1*%
X146765000Y-132565000D02*
X148235000Y-132565000D01*
X146765000Y-133215000D02*
X146765000Y-132565000D01*
X146765000Y-134835000D02*
X146765000Y-134185000D01*
X148235000Y-133535000D02*
X148235000Y-133865000D01*
X148235000Y-134835000D02*
X146765000Y-134835000D01*
X148680000Y-133860000D02*
X148540000Y-133670000D01*
X148820000Y-133670000D01*
X148680000Y-133860000D01*
G36*
X148680000Y-133860000D02*
G01*
X148540000Y-133670000D01*
X148820000Y-133670000D01*
X148680000Y-133860000D01*
G37*
%TO.C,R29*%
X144620000Y-134153641D02*
X144620000Y-133846359D01*
X145380000Y-134153641D02*
X145380000Y-133846359D01*
%TO.C,R7*%
X156700329Y-119465242D02*
X157007611Y-119465242D01*
X156700329Y-120225242D02*
X157007611Y-120225242D01*
%TO.C,C6*%
X137625070Y-117728326D02*
X137625070Y-117943998D01*
X138345070Y-117728326D02*
X138345070Y-117943998D01*
%TO.C,J5*%
X130892512Y-130901463D02*
X130892512Y-132901463D01*
X130892512Y-134801463D02*
X130892512Y-136701463D01*
X130892512Y-136701463D02*
X140292512Y-136701463D01*
X140292512Y-130901463D02*
X140292512Y-132901463D01*
X140292512Y-134801463D02*
X140292512Y-136701463D01*
%TO.C,R23*%
X128786359Y-113120000D02*
X129093641Y-113120000D01*
X128786359Y-113880000D02*
X129093641Y-113880000D01*
%TO.C,C28*%
X121402430Y-115707836D02*
X121402430Y-115492164D01*
X122122430Y-115707836D02*
X122122430Y-115492164D01*
%TO.C,R25*%
X125903641Y-105220000D02*
X125596359Y-105220000D01*
X125903641Y-105980000D02*
X125596359Y-105980000D01*
%TO.C,U11*%
X112089746Y-125603512D02*
X112184746Y-125603512D01*
X112089746Y-129723512D02*
X112089746Y-125603512D01*
X112184746Y-129723512D02*
X112089746Y-129723512D01*
X117114746Y-125603512D02*
X117209746Y-125603512D01*
X117209746Y-125603512D02*
X117209746Y-129723512D01*
X117209746Y-129723512D02*
X117114746Y-129723512D01*
X117119746Y-125063512D02*
X117449746Y-124823512D01*
X117449746Y-125303512D01*
X117119746Y-125063512D01*
G36*
X117449746Y-125303512D02*
G01*
X117119746Y-125063512D01*
X117449746Y-124823512D01*
X117449746Y-125303512D01*
G37*
%TO.C,C38*%
X139070861Y-126558398D02*
X139070861Y-126342726D01*
X139790861Y-126558398D02*
X139790861Y-126342726D01*
%TO.C,C19*%
X124140580Y-114990000D02*
X123859420Y-114990000D01*
X124140580Y-116010000D02*
X123859420Y-116010000D01*
%TO.C,U7*%
X152446354Y-118589116D02*
X152621354Y-118589116D01*
X152446354Y-121809116D02*
X152446354Y-118589116D01*
X152621354Y-121809116D02*
X152446354Y-121809116D01*
X155491354Y-118589116D02*
X155666354Y-118589116D01*
X155666354Y-118589116D02*
X155666354Y-121809116D01*
X155666354Y-121809116D02*
X155491354Y-121809116D01*
X155496354Y-118039116D02*
X155826354Y-117799116D01*
X155826354Y-118279116D01*
X155496354Y-118039116D01*
G36*
X155826354Y-118279116D02*
G01*
X155496354Y-118039116D01*
X155826354Y-117799116D01*
X155826354Y-118279116D01*
G37*
%TO.C,R34*%
X129185174Y-127188154D02*
X129492456Y-127188154D01*
X129185174Y-127948154D02*
X129492456Y-127948154D01*
%TO.C,R15*%
X135320000Y-120346359D02*
X135320000Y-120653641D01*
X136080000Y-120346359D02*
X136080000Y-120653641D01*
%TO.C,J3*%
X154179244Y-125486463D02*
X154179244Y-127286463D01*
X154179244Y-134656463D02*
X153189244Y-134656463D01*
X154179244Y-136456463D02*
X154179244Y-134656463D01*
X155629244Y-125486463D02*
X154179244Y-125486463D01*
X155629244Y-136456463D02*
X154179244Y-136456463D01*
X158449244Y-135186463D02*
X158449244Y-126756463D01*
%TO.C,Y1*%
X123840000Y-128420197D02*
X123840000Y-131840197D01*
X123840000Y-131840197D02*
X127960000Y-131840197D01*
%TO.C,C44*%
X123230532Y-112890000D02*
X122949372Y-112890000D01*
X123230532Y-113910000D02*
X122949372Y-113910000D01*
%TO.C,R11*%
X107103068Y-131528427D02*
X107577584Y-131528427D01*
X107103068Y-132573427D02*
X107577584Y-132573427D01*
%TO.C,C27*%
X103180000Y-120112164D02*
X103180000Y-120327836D01*
X103900000Y-120112164D02*
X103900000Y-120327836D01*
%TO.C,C43*%
X130340000Y-114092685D02*
X130340000Y-113811525D01*
X131360000Y-114092685D02*
X131360000Y-113811525D01*
%TO.C,C40*%
X130040000Y-125575252D02*
X130040000Y-125790924D01*
X130760000Y-125575252D02*
X130760000Y-125790924D01*
%TO.C,U10*%
X105367746Y-125364716D02*
X105462746Y-125364716D01*
X105367746Y-129484716D02*
X105367746Y-125364716D01*
X105462746Y-129484716D02*
X105367746Y-129484716D01*
X110392746Y-125364716D02*
X110487746Y-125364716D01*
X110487746Y-125364716D02*
X110487746Y-129484716D01*
X110487746Y-129484716D02*
X110392746Y-129484716D01*
X110397746Y-124824716D02*
X110727746Y-124584716D01*
X110727746Y-125064716D01*
X110397746Y-124824716D01*
G36*
X110727746Y-125064716D02*
G01*
X110397746Y-124824716D01*
X110727746Y-124584716D01*
X110727746Y-125064716D01*
G37*
%TO.C,U4*%
X99353501Y-115238886D02*
X99353501Y-110618886D01*
X104823501Y-110618886D02*
X104823501Y-115238886D01*
X104368501Y-109068886D02*
X104128501Y-108738886D01*
X104608501Y-108738886D01*
X104368501Y-109068886D01*
G36*
X104368501Y-109068886D02*
G01*
X104128501Y-108738886D01*
X104608501Y-108738886D01*
X104368501Y-109068886D01*
G37*
%TO.C,U8*%
X148479364Y-120482977D02*
X148654364Y-120482977D01*
X148479364Y-123702977D02*
X148479364Y-120482977D01*
X148654364Y-123702977D02*
X148479364Y-123702977D01*
X151524364Y-120482977D02*
X151699364Y-120482977D01*
X151699364Y-120482977D02*
X151699364Y-123702977D01*
X151699364Y-123702977D02*
X151524364Y-123702977D01*
X151529364Y-119932977D02*
X151859364Y-119692977D01*
X151859364Y-120172977D01*
X151529364Y-119932977D01*
G36*
X151859364Y-120172977D02*
G01*
X151529364Y-119932977D01*
X151859364Y-119692977D01*
X151859364Y-120172977D01*
G37*
%TO.C,SW1*%
X124247874Y-101648495D02*
X127547874Y-101648495D01*
X124247874Y-101948495D02*
X124247874Y-101648495D01*
X124247874Y-104148495D02*
X124247874Y-104448495D01*
X124247874Y-104448495D02*
X127547874Y-104448495D01*
X127547874Y-101648495D02*
X127547874Y-101948495D01*
X127547874Y-104448495D02*
X127547874Y-104148495D01*
%TO.C,U6*%
X137718151Y-108375162D02*
X143238151Y-108375162D01*
X137718151Y-108550162D02*
X137718151Y-108375162D01*
X137718151Y-116795162D02*
X137718151Y-116620162D01*
X143238151Y-108375162D02*
X143238151Y-108550162D01*
X143238151Y-116620162D02*
X143238151Y-116795162D01*
X143238151Y-116795162D02*
X137718151Y-116795162D01*
X143978151Y-116625162D02*
X144318151Y-117095162D01*
X143638151Y-117095162D01*
X143978151Y-116625162D01*
G36*
X144318151Y-117095162D02*
G01*
X143638151Y-117095162D01*
X143978151Y-116625162D01*
X144318151Y-117095162D01*
G37*
%TO.C,C4*%
X103647887Y-117599058D02*
X103647887Y-117814730D01*
X104367887Y-117599058D02*
X104367887Y-117814730D01*
%TO.C,C46*%
X145438748Y-124365000D02*
X145961252Y-124365000D01*
X145438748Y-125835000D02*
X145961252Y-125835000D01*
%TO.C,R36*%
X125996359Y-127520000D02*
X126303641Y-127520000D01*
X125996359Y-128280000D02*
X126303641Y-128280000D01*
%TO.C,J1*%
X102806863Y-105746643D02*
X102806863Y-104406643D01*
X104296863Y-105746643D02*
X102806863Y-105746643D01*
X120616863Y-105746643D02*
X120616863Y-106946643D01*
X120616863Y-105746643D02*
X122106863Y-105746643D01*
X122106863Y-105746643D02*
X122106863Y-104406643D01*
%TO.C,U1*%
X115826430Y-114847314D02*
X115826430Y-110227314D01*
X121296430Y-110227314D02*
X121296430Y-114847314D01*
X120841430Y-108677314D02*
X120601430Y-108347314D01*
X121081430Y-108347314D01*
X120841430Y-108677314D01*
G36*
X120841430Y-108677314D02*
G01*
X120601430Y-108347314D01*
X121081430Y-108347314D01*
X120841430Y-108677314D01*
G37*
%TO.C,R26*%
X134545310Y-115795426D02*
X134238028Y-115795426D01*
X134545310Y-116555426D02*
X134238028Y-116555426D01*
%TO.C,R9*%
X157579396Y-121920255D02*
X157886678Y-121920255D01*
X157579396Y-122680255D02*
X157886678Y-122680255D01*
%TO.C,JP3*%
X127231512Y-134701463D02*
X130031512Y-134701463D01*
X127231512Y-136701463D02*
X127231512Y-134701463D01*
X130031512Y-134701463D02*
X130031512Y-136701463D01*
X130031512Y-136701463D02*
X127231512Y-136701463D01*
%TO.C,C32*%
X149194138Y-118189813D02*
X149194138Y-117974141D01*
X149914138Y-118189813D02*
X149914138Y-117974141D01*
%TO.C,D1*%
X102927266Y-119160480D02*
X100267266Y-119160480D01*
X102927266Y-120860480D02*
X100267266Y-120860480D01*
X102927266Y-120860480D02*
X102927266Y-119160480D01*
%TO.C,C7*%
X157618760Y-123140000D02*
X157834432Y-123140000D01*
X157618760Y-123860000D02*
X157834432Y-123860000D01*
%TO.C,C29*%
X111180910Y-130120800D02*
X111396582Y-130120800D01*
X111180910Y-130840800D02*
X111396582Y-130840800D01*
%TO.C,C41*%
X115118714Y-121506681D02*
X115118714Y-121291009D01*
X115838714Y-121506681D02*
X115838714Y-121291009D01*
%TO.C,C3*%
X109105714Y-117673321D02*
X109105714Y-117888993D01*
X109825714Y-117673321D02*
X109825714Y-117888993D01*
%TO.C,R10*%
X150284082Y-129367898D02*
X150591364Y-129367898D01*
X150284082Y-130127898D02*
X150591364Y-130127898D01*
%TO.C,C37*%
X141148512Y-127156675D02*
X141148512Y-126634171D01*
X142618512Y-127156675D02*
X142618512Y-126634171D01*
%TO.C,U3*%
X104844501Y-115340157D02*
X104844501Y-110720157D01*
X110314501Y-110720157D02*
X110314501Y-115340157D01*
X109859501Y-109170157D02*
X109619501Y-108840157D01*
X110099501Y-108840157D01*
X109859501Y-109170157D01*
G36*
X109859501Y-109170157D02*
G01*
X109619501Y-108840157D01*
X110099501Y-108840157D01*
X109859501Y-109170157D01*
G37*
%TO.C,C23*%
X113312714Y-121659679D02*
X113312714Y-121137175D01*
X114782714Y-121659679D02*
X114782714Y-121137175D01*
%TO.C,L1*%
X125750000Y-112650000D02*
X126350000Y-112650000D01*
X125750000Y-114550000D02*
X126350000Y-114550000D01*
D11*
X124530000Y-112650000D02*
G75*
G02*
X124370000Y-112650000I-80000J0D01*
G01*
X124370000Y-112650000D02*
G75*
G02*
X124530000Y-112650000I80000J0D01*
G01*
%TD*%
%LPC*%
%TO.C,JP1*%
G36*
X121899512Y-134951463D02*
G01*
X122199512Y-134951463D01*
X122199512Y-136451463D01*
X121899512Y-136451463D01*
X121899512Y-134951463D01*
G37*
%TO.C,JP2*%
G36*
X125190512Y-134925340D02*
G01*
X125490512Y-134925340D01*
X125490512Y-136425340D01*
X125190512Y-136425340D01*
X125190512Y-134925340D01*
G37*
%TO.C,JP3*%
G36*
X128481512Y-134951463D02*
G01*
X128781512Y-134951463D01*
X128781512Y-136451463D01*
X128481512Y-136451463D01*
X128481512Y-134951463D01*
G37*
%TD*%
D12*
%TO.C,C36*%
X132662005Y-118320000D03*
X133302005Y-118320000D03*
%TD*%
D13*
%TO.C,R5*%
X118532399Y-121398782D03*
X119552399Y-121398782D03*
%TD*%
D14*
%TO.C,C9*%
X117141399Y-122349203D03*
X117141399Y-120449203D03*
%TD*%
D15*
%TO.C,R38*%
X140725000Y-124300000D03*
X142375000Y-124300000D03*
%TD*%
%TO.C,R12*%
X112173196Y-132089721D03*
X113823196Y-132089721D03*
%TD*%
D16*
%TO.C,FID1*%
X102616809Y-122995540D03*
%TD*%
D17*
%TO.C,C34*%
X121943281Y-121920000D03*
X121303281Y-121920000D03*
%TD*%
D18*
%TO.C,U14*%
X143911190Y-126923039D03*
X143911190Y-127873039D03*
X143911190Y-128823039D03*
X146186190Y-128823039D03*
X146186190Y-127873039D03*
X146186190Y-126923039D03*
%TD*%
D19*
%TO.C,R16*%
X135698296Y-118608198D03*
X135698296Y-117588198D03*
%TD*%
D20*
%TO.C,R28*%
X147023393Y-131322740D03*
X146003393Y-131322740D03*
%TD*%
D21*
%TO.C,J4*%
X103886746Y-127846463D03*
X103886746Y-129096463D03*
X103886746Y-130346463D03*
X103886746Y-131596463D03*
X103886746Y-132846463D03*
X103886746Y-134096463D03*
D22*
X100686746Y-125996463D03*
X100686746Y-135946463D03*
%TD*%
D17*
%TO.C,C24*%
X121819484Y-119914973D03*
X121179484Y-119914973D03*
%TD*%
D23*
%TO.C,C39*%
X99811746Y-121701480D03*
X99811746Y-123601480D03*
%TD*%
D24*
%TO.C,D4*%
X148189690Y-129733463D03*
X148189690Y-126933463D03*
%TD*%
D20*
%TO.C,R20*%
X121383593Y-123400720D03*
X120363593Y-123400720D03*
%TD*%
%TO.C,R17*%
X148010000Y-136356463D03*
X146990000Y-136356463D03*
%TD*%
D25*
%TO.C,R21*%
X151390271Y-117552105D03*
X151390271Y-118572105D03*
%TD*%
D26*
%TO.C,C26*%
X152118996Y-126336242D03*
X153078996Y-126336242D03*
%TD*%
D27*
%TO.C,C2*%
X115072132Y-116920000D03*
X115072132Y-117880000D03*
%TD*%
D20*
%TO.C,R6*%
X157237354Y-118731295D03*
X156217354Y-118731295D03*
%TD*%
D26*
%TO.C,C12*%
X117530746Y-130699999D03*
X118490746Y-130699999D03*
%TD*%
D28*
%TO.C,J2*%
X147090487Y-106296643D03*
X146590487Y-106296643D03*
X146090487Y-106296643D03*
X145590487Y-106296643D03*
X145090487Y-106296643D03*
X144590487Y-106296643D03*
X144090487Y-106296643D03*
X143590487Y-106296643D03*
X143090487Y-106296643D03*
X142590487Y-106296643D03*
X142090487Y-106296643D03*
X141590487Y-106296643D03*
X141090487Y-106296643D03*
X140590487Y-106296643D03*
X140090487Y-106296643D03*
X139590487Y-106296643D03*
X139090487Y-106296643D03*
X138590487Y-106296643D03*
X138090487Y-106296643D03*
X137590487Y-106296643D03*
X137090487Y-106296643D03*
X136590487Y-106296643D03*
X136090487Y-106296643D03*
X135590487Y-106296643D03*
X135090487Y-106296643D03*
X134590487Y-106296643D03*
X134090487Y-106296643D03*
X133590487Y-106296643D03*
X133090487Y-106296643D03*
X132590487Y-106296643D03*
X132090487Y-106296643D03*
X131590487Y-106296643D03*
D29*
X148990487Y-103046643D03*
X139690487Y-103046643D03*
X137690487Y-103046643D03*
X129690487Y-103046643D03*
%TD*%
D30*
%TO.C,C5*%
X148034606Y-115701596D03*
X147074606Y-115701596D03*
%TD*%
D31*
%TO.C,J6*%
X111018512Y-135181463D03*
D32*
X113558512Y-135181463D03*
X116098512Y-135181463D03*
X118638512Y-135181463D03*
%TD*%
D13*
%TO.C,R24*%
X130439999Y-116000000D03*
X131459999Y-116000000D03*
%TD*%
D33*
%TO.C,U9*%
X123055926Y-117851214D03*
X123055926Y-118251214D03*
X123055926Y-118651214D03*
X123055926Y-119051214D03*
X123055926Y-119451214D03*
X123055926Y-119851214D03*
X123055926Y-120251214D03*
X123055926Y-120651214D03*
X123055926Y-121051214D03*
X123055926Y-121451214D03*
X123055926Y-121851214D03*
X123055926Y-122251214D03*
X123055926Y-122651214D03*
X123055926Y-123051214D03*
X123055926Y-123451214D03*
D34*
X123705926Y-124101214D03*
X124105926Y-124101214D03*
X124505926Y-124101214D03*
X124905926Y-124101214D03*
X125305926Y-124101214D03*
X125705926Y-124101214D03*
X126105926Y-124101214D03*
X126505926Y-124101214D03*
X126905926Y-124101214D03*
X127305926Y-124101214D03*
X127705926Y-124101214D03*
X128105926Y-124101214D03*
X128505926Y-124101214D03*
X128905926Y-124101214D03*
X129305926Y-124101214D03*
D33*
X129955926Y-123451214D03*
X129955926Y-123051214D03*
X129955926Y-122651214D03*
X129955926Y-122251214D03*
X129955926Y-121851214D03*
X129955926Y-121451214D03*
X129955926Y-121051214D03*
X129955926Y-120651214D03*
X129955926Y-120251214D03*
X129955926Y-119851214D03*
X129955926Y-119451214D03*
X129955926Y-119051214D03*
X129955926Y-118651214D03*
X129955926Y-118251214D03*
X129955926Y-117851214D03*
D34*
X129305926Y-117201214D03*
X128905926Y-117201214D03*
X128505926Y-117201214D03*
X128105926Y-117201214D03*
X127705926Y-117201214D03*
X127305926Y-117201214D03*
X126905926Y-117201214D03*
X126505926Y-117201214D03*
X126105926Y-117201214D03*
X125705926Y-117201214D03*
X125305926Y-117201214D03*
X124905926Y-117201214D03*
X124505926Y-117201214D03*
X124105926Y-117201214D03*
X123705926Y-117201214D03*
D35*
X126505926Y-120651214D03*
%TD*%
D36*
%TO.C,JP1*%
X121399512Y-135701463D03*
X122699512Y-135701463D03*
%TD*%
D37*
%TO.C,C22*%
X109195714Y-121170578D03*
X109195714Y-119620578D03*
%TD*%
D13*
%TO.C,R27*%
X149106879Y-131238110D03*
X150126879Y-131238110D03*
%TD*%
D20*
%TO.C,R8*%
X158305098Y-121098338D03*
X157285098Y-121098338D03*
%TD*%
D38*
%TO.C,C20*%
X122507075Y-130780000D03*
X122507075Y-129820000D03*
%TD*%
D39*
%TO.C,D3*%
X143212500Y-136101463D03*
X144787500Y-136101463D03*
%TD*%
D40*
%TO.C,U13*%
X131799652Y-125639861D03*
X131799652Y-126039861D03*
D41*
X131924652Y-126664861D03*
X132324652Y-126664861D03*
X132724652Y-126664861D03*
X133124652Y-126664861D03*
D40*
X133249652Y-126039861D03*
X133249652Y-125639861D03*
D41*
X133124652Y-125014861D03*
X132724652Y-125014861D03*
X132324652Y-125014861D03*
X131924652Y-125014861D03*
%TD*%
D20*
%TO.C,R18*%
X105297807Y-123263716D03*
X104277807Y-123263716D03*
%TD*%
%TO.C,R3*%
X119552399Y-120200000D03*
X118532399Y-120200000D03*
%TD*%
D36*
%TO.C,JP2*%
X124690512Y-135675340D03*
X125990512Y-135675340D03*
%TD*%
D27*
%TO.C,C45*%
X134400000Y-120520000D03*
X134400000Y-121480000D03*
%TD*%
D25*
%TO.C,R1*%
X158494244Y-117290000D03*
X158494244Y-118310000D03*
%TD*%
D42*
%TO.C,U2*%
X115345501Y-109767085D03*
X114695501Y-109767085D03*
X114045501Y-109767085D03*
X113395501Y-109767085D03*
X112745501Y-109767085D03*
X112095501Y-109767085D03*
X111445501Y-109767085D03*
X110795501Y-109767085D03*
X110795501Y-115492085D03*
X111445501Y-115492085D03*
X112095501Y-115492085D03*
X112745501Y-115492085D03*
X113395501Y-115492085D03*
X114045501Y-115492085D03*
X114695501Y-115492085D03*
X115345501Y-115492085D03*
%TD*%
D12*
%TO.C,C15*%
X131230000Y-117920000D03*
X131870000Y-117920000D03*
%TD*%
D25*
%TO.C,R35*%
X130415088Y-110985553D03*
X130415088Y-112005553D03*
%TD*%
D43*
%TO.C,D2*%
X151488161Y-134251154D03*
X151488161Y-132151154D03*
%TD*%
D38*
%TO.C,C31*%
X150469271Y-118496730D03*
X150469271Y-117536730D03*
%TD*%
D19*
%TO.C,R32*%
X134876120Y-125265375D03*
X134876120Y-124245375D03*
%TD*%
D20*
%TO.C,R4*%
X119480726Y-119000000D03*
X118460726Y-119000000D03*
%TD*%
D25*
%TO.C,R22*%
X148591555Y-117561977D03*
X148591555Y-118581977D03*
%TD*%
D17*
%TO.C,C33*%
X121939987Y-117919189D03*
X121299987Y-117919189D03*
%TD*%
D12*
%TO.C,C14*%
X131230000Y-120720000D03*
X131870000Y-120720000D03*
%TD*%
D16*
%TO.C,FID3*%
X157839246Y-102649745D03*
%TD*%
D13*
%TO.C,R2*%
X153835246Y-124000000D03*
X154855246Y-124000000D03*
%TD*%
D20*
%TO.C,R31*%
X121360000Y-125600000D03*
X120340000Y-125600000D03*
%TD*%
D38*
%TO.C,C42*%
X143515249Y-125843546D03*
X143515249Y-124883546D03*
%TD*%
D25*
%TO.C,R33*%
X134742292Y-126096375D03*
X134742292Y-127116375D03*
%TD*%
D44*
%TO.C,D5*%
X138250000Y-126537500D03*
D45*
X138325000Y-126000000D03*
D44*
X138250000Y-125462500D03*
X136550000Y-125462500D03*
D45*
X136475000Y-126000000D03*
D44*
X136550000Y-126537500D03*
%TD*%
D46*
%TO.C,C10*%
X151930690Y-128073874D03*
X150030690Y-128073874D03*
%TD*%
D47*
%TO.C,C11*%
X125301625Y-125605851D03*
X125301625Y-126245851D03*
%TD*%
D27*
%TO.C,C8*%
X150647300Y-125712874D03*
X150647300Y-126672874D03*
%TD*%
D20*
%TO.C,R30*%
X121360000Y-124500000D03*
X120340000Y-124500000D03*
%TD*%
D48*
%TO.C,U12*%
X107562214Y-121121716D03*
X107562214Y-120171716D03*
X107562214Y-119221716D03*
X105287214Y-119221716D03*
X105287214Y-121121716D03*
%TD*%
D27*
%TO.C,C1*%
X120451616Y-116920000D03*
X120451616Y-117880000D03*
%TD*%
D49*
%TO.C,U5*%
X156655606Y-116067022D03*
X156655606Y-115417022D03*
X156655606Y-114767022D03*
X156655606Y-114117022D03*
X156655606Y-113467022D03*
X156655606Y-112817022D03*
X156655606Y-112167022D03*
X156655606Y-111517022D03*
X156655606Y-110867022D03*
X156655606Y-110217022D03*
X156655606Y-109567022D03*
X156655606Y-108917022D03*
X149655606Y-108917022D03*
X149655606Y-109567022D03*
X149655606Y-110217022D03*
X149655606Y-110867022D03*
X149655606Y-111517022D03*
X149655606Y-112167022D03*
X149655606Y-112817022D03*
X149655606Y-113467022D03*
X149655606Y-114117022D03*
X149655606Y-114767022D03*
X149655606Y-115417022D03*
X149655606Y-116067022D03*
%TD*%
D19*
%TO.C,R37*%
X111399999Y-125109999D03*
X111399999Y-124089999D03*
%TD*%
D20*
%TO.C,R19*%
X105278867Y-122332716D03*
X104258867Y-122332716D03*
%TD*%
D50*
%TO.C,L2*%
X111496714Y-119505989D03*
X111496714Y-122305989D03*
%TD*%
D26*
%TO.C,C21*%
X128520000Y-129449999D03*
X129480000Y-129449999D03*
%TD*%
D51*
%TO.C,Q1*%
X148387500Y-134350000D03*
X148387500Y-133050000D03*
X146612500Y-133700000D03*
%TD*%
D19*
%TO.C,R29*%
X145000000Y-134510000D03*
X145000000Y-133490000D03*
%TD*%
D13*
%TO.C,R7*%
X156343970Y-119845242D03*
X157363970Y-119845242D03*
%TD*%
D27*
%TO.C,C6*%
X137985070Y-117356162D03*
X137985070Y-118316162D03*
%TD*%
D52*
%TO.C,J5*%
X132702512Y-130201463D03*
X138482512Y-130201463D03*
D53*
X132342512Y-128756463D03*
X133142512Y-128756463D03*
D54*
X134342512Y-128756463D03*
X135342512Y-128756463D03*
X135842512Y-128756463D03*
X136842512Y-128756463D03*
D53*
X138042512Y-128756463D03*
X138842512Y-128756463D03*
X138842512Y-128756463D03*
X138042512Y-128756463D03*
D54*
X137342512Y-128756463D03*
X136342512Y-128756463D03*
X134842512Y-128756463D03*
X133842512Y-128756463D03*
D53*
X133142512Y-128756463D03*
X132342512Y-128756463D03*
D55*
X131272512Y-129671463D03*
D56*
X131272512Y-133851463D03*
D55*
X139912512Y-129671463D03*
D56*
X139912512Y-133851463D03*
%TD*%
D13*
%TO.C,R23*%
X128430000Y-113500000D03*
X129450000Y-113500000D03*
%TD*%
D38*
%TO.C,C28*%
X121762430Y-116080000D03*
X121762430Y-115120000D03*
%TD*%
D20*
%TO.C,R25*%
X126260000Y-105600000D03*
X125240000Y-105600000D03*
%TD*%
D57*
%TO.C,U11*%
X116554746Y-125188512D03*
X115284746Y-125188512D03*
X114014746Y-125188512D03*
X112744746Y-125188512D03*
X112744746Y-130138512D03*
X114014746Y-130138512D03*
X115284746Y-130138512D03*
X116554746Y-130138512D03*
%TD*%
D38*
%TO.C,C38*%
X139430861Y-126930562D03*
X139430861Y-125970562D03*
%TD*%
D58*
%TO.C,C19*%
X124775000Y-115500000D03*
X123225000Y-115500000D03*
%TD*%
D59*
%TO.C,U7*%
X155031354Y-118086616D03*
X154381354Y-118086616D03*
X153731354Y-118086616D03*
X153081354Y-118086616D03*
X153081354Y-122311616D03*
X153731354Y-122311616D03*
X154381354Y-122311616D03*
X155031354Y-122311616D03*
%TD*%
D13*
%TO.C,R34*%
X128828815Y-127568154D03*
X129848815Y-127568154D03*
%TD*%
D47*
%TO.C,C25*%
X126500000Y-125630000D03*
X126500000Y-126270000D03*
%TD*%
D25*
%TO.C,R15*%
X135700000Y-119990000D03*
X135700000Y-121010000D03*
%TD*%
D60*
%TO.C,C18*%
X126500000Y-115920000D03*
X126500000Y-115280000D03*
%TD*%
D61*
%TO.C,J3*%
X154039244Y-134096463D03*
X154039244Y-132846463D03*
X154039244Y-131596463D03*
X154039244Y-130346463D03*
X154039244Y-129096463D03*
X154039244Y-127846463D03*
D62*
X157239244Y-135946463D03*
X157239244Y-125996463D03*
%TD*%
D63*
%TO.C,Y1*%
X124800000Y-130980197D03*
X127000000Y-130980197D03*
X127000000Y-129280197D03*
X124800000Y-129280197D03*
%TD*%
D58*
%TO.C,C44*%
X123864952Y-113400000D03*
X122314952Y-113400000D03*
%TD*%
D15*
%TO.C,R11*%
X106515326Y-132050927D03*
X108165326Y-132050927D03*
%TD*%
D16*
%TO.C,FID2*%
X146750000Y-119750000D03*
%TD*%
D47*
%TO.C,C13*%
X129300000Y-125363536D03*
X129300000Y-126003536D03*
%TD*%
D27*
%TO.C,C27*%
X103540000Y-119740000D03*
X103540000Y-120700000D03*
%TD*%
D37*
%TO.C,C43*%
X130850000Y-114727105D03*
X130850000Y-113177105D03*
%TD*%
D60*
%TO.C,C17*%
X128099001Y-115920065D03*
X128099001Y-115280065D03*
%TD*%
D27*
%TO.C,C40*%
X130400000Y-125203088D03*
X130400000Y-126163088D03*
%TD*%
D57*
%TO.C,U10*%
X109832746Y-124949716D03*
X108562746Y-124949716D03*
X107292746Y-124949716D03*
X106022746Y-124949716D03*
X106022746Y-129899716D03*
X107292746Y-129899716D03*
X108562746Y-129899716D03*
X109832746Y-129899716D03*
%TD*%
D12*
%TO.C,C35*%
X132780000Y-120320000D03*
X133420000Y-120320000D03*
%TD*%
D42*
%TO.C,U4*%
X104363501Y-110066386D03*
X103713501Y-110066386D03*
X103063501Y-110066386D03*
X102413501Y-110066386D03*
X101763501Y-110066386D03*
X101113501Y-110066386D03*
X100463501Y-110066386D03*
X99813501Y-110066386D03*
X99813501Y-115791386D03*
X100463501Y-115791386D03*
X101113501Y-115791386D03*
X101763501Y-115791386D03*
X102413501Y-115791386D03*
X103063501Y-115791386D03*
X103713501Y-115791386D03*
X104363501Y-115791386D03*
%TD*%
D64*
%TO.C,U8*%
X151089364Y-119992977D03*
X150589364Y-119992977D03*
X150089364Y-119992977D03*
X149589364Y-119992977D03*
X149089364Y-119992977D03*
X149089364Y-124192977D03*
X149589364Y-124192977D03*
X150089364Y-124192977D03*
X150589364Y-124192977D03*
X151089364Y-124192977D03*
%TD*%
D65*
%TO.C,SW1*%
X124197874Y-103048495D03*
X127597874Y-103048495D03*
%TD*%
D49*
%TO.C,U6*%
X143978151Y-116160162D03*
X143978151Y-115510162D03*
X143978151Y-114860162D03*
X143978151Y-114210162D03*
X143978151Y-113560162D03*
X143978151Y-112910162D03*
X143978151Y-112260162D03*
X143978151Y-111610162D03*
X143978151Y-110960162D03*
X143978151Y-110310162D03*
X143978151Y-109660162D03*
X143978151Y-109010162D03*
X136978151Y-109010162D03*
X136978151Y-109660162D03*
X136978151Y-110310162D03*
X136978151Y-110960162D03*
X136978151Y-111610162D03*
X136978151Y-112260162D03*
X136978151Y-112910162D03*
X136978151Y-113560162D03*
X136978151Y-114210162D03*
X136978151Y-114860162D03*
X136978151Y-115510162D03*
X136978151Y-116160162D03*
%TD*%
D27*
%TO.C,C4*%
X104007887Y-117226894D03*
X104007887Y-118186894D03*
%TD*%
D66*
%TO.C,C46*%
X144750000Y-125100000D03*
X146650000Y-125100000D03*
%TD*%
D13*
%TO.C,R36*%
X125640000Y-127900000D03*
X126660000Y-127900000D03*
%TD*%
D28*
%TO.C,J1*%
X120206863Y-106296643D03*
X119706863Y-106296643D03*
X119206863Y-106296643D03*
X118706863Y-106296643D03*
X118206863Y-106296643D03*
X117706863Y-106296643D03*
X117206863Y-106296643D03*
X116706863Y-106296643D03*
X116206863Y-106296643D03*
X115706863Y-106296643D03*
X115206863Y-106296643D03*
X114706863Y-106296643D03*
X114206863Y-106296643D03*
X113706863Y-106296643D03*
X113206863Y-106296643D03*
X112706863Y-106296643D03*
X112206863Y-106296643D03*
X111706863Y-106296643D03*
X111206863Y-106296643D03*
X110706863Y-106296643D03*
X110206863Y-106296643D03*
X109706863Y-106296643D03*
X109206863Y-106296643D03*
X108706863Y-106296643D03*
X108206863Y-106296643D03*
X107706863Y-106296643D03*
X107206863Y-106296643D03*
X106706863Y-106296643D03*
X106206863Y-106296643D03*
X105706863Y-106296643D03*
X105206863Y-106296643D03*
X104706863Y-106296643D03*
D29*
X122106863Y-103046643D03*
X112806863Y-103046643D03*
X110806863Y-103046643D03*
X102806863Y-103046643D03*
%TD*%
D60*
%TO.C,C16*%
X129449999Y-115920000D03*
X129449999Y-115280000D03*
%TD*%
D42*
%TO.C,U1*%
X120836430Y-109674814D03*
X120186430Y-109674814D03*
X119536430Y-109674814D03*
X118886430Y-109674814D03*
X118236430Y-109674814D03*
X117586430Y-109674814D03*
X116936430Y-109674814D03*
X116286430Y-109674814D03*
X116286430Y-115399814D03*
X116936430Y-115399814D03*
X117586430Y-115399814D03*
X118236430Y-115399814D03*
X118886430Y-115399814D03*
X119536430Y-115399814D03*
X120186430Y-115399814D03*
X120836430Y-115399814D03*
%TD*%
D20*
%TO.C,R26*%
X134901669Y-116175426D03*
X133881669Y-116175426D03*
%TD*%
D13*
%TO.C,R9*%
X157223037Y-122300255D03*
X158243037Y-122300255D03*
%TD*%
D36*
%TO.C,JP3*%
X127981512Y-135701463D03*
X129281512Y-135701463D03*
%TD*%
D38*
%TO.C,C32*%
X149554138Y-118561977D03*
X149554138Y-117601977D03*
%TD*%
D67*
%TO.C,D1*%
X102367266Y-120010480D03*
X100267266Y-120010480D03*
%TD*%
D26*
%TO.C,C7*%
X157246596Y-123500000D03*
X158206596Y-123500000D03*
%TD*%
%TO.C,C29*%
X110808746Y-130480800D03*
X111768746Y-130480800D03*
%TD*%
D38*
%TO.C,C41*%
X115478714Y-121878845D03*
X115478714Y-120918845D03*
%TD*%
D27*
%TO.C,C3*%
X109465714Y-117301157D03*
X109465714Y-118261157D03*
%TD*%
D13*
%TO.C,R10*%
X149927723Y-129747898D03*
X150947723Y-129747898D03*
%TD*%
D14*
%TO.C,C37*%
X141883512Y-127845423D03*
X141883512Y-125945423D03*
%TD*%
D42*
%TO.C,U3*%
X109854501Y-110167657D03*
X109204501Y-110167657D03*
X108554501Y-110167657D03*
X107904501Y-110167657D03*
X107254501Y-110167657D03*
X106604501Y-110167657D03*
X105954501Y-110167657D03*
X105304501Y-110167657D03*
X105304501Y-115892657D03*
X105954501Y-115892657D03*
X106604501Y-115892657D03*
X107254501Y-115892657D03*
X107904501Y-115892657D03*
X108554501Y-115892657D03*
X109204501Y-115892657D03*
X109854501Y-115892657D03*
%TD*%
D14*
%TO.C,C23*%
X114047714Y-122348427D03*
X114047714Y-120448427D03*
%TD*%
D68*
%TO.C,L1*%
X125250000Y-113600000D03*
X126850000Y-113600000D03*
%TD*%
%LPD*%
M02*
