M48
; DRILL file KiCad 10.0.5 date 2026-09-21T12:59:36
; FORMAT={-:-/ absolute / metric / decimal}
; #@! TF.CreationDate,2026-09-21T12:59:36-04:00
; #@! TF.GenerationSoftware,Kicad,Pcbnew,10.0.5
; #@! TF.FileFunction,Plated,1,4,PTH
FMAT,2
METRIC
; #@! TA.AperFunction,Plated,PTH,ViaDrill
T1C0.300
; #@! TA.AperFunction,Plated,PTH,ComponentDrill
T2C0.600
; #@! TA.AperFunction,Plated,PTH,ComponentDrill
T3C1.000
%
G90
G05
T1
X99.337Y-125.501
X99.337Y-135.451
X99.512Y-123.101
X99.639Y-109.329
X101.789Y-116.079
X101.907Y-101.947
X102.389Y-115.079
X103.037Y-128.801
X103.089Y-115.529
X103.54Y-121.35
X103.738Y-117.957
X104.219Y-122.283
X105.13Y-109.43
X105.13Y-115.63
X105.728Y-128.925
X105.98Y-115.68
X106.42Y-117.494
X107.043Y-132.25
X107.125Y-119.972
X107.176Y-123.29
X107.23Y-116.18
X107.722Y-124.27
X107.761Y-122.377
X107.88Y-115.18
X108.585Y-132.697
X108.705Y-117.262
X108.746Y-119.446
X109.196Y-118.031
X109.578Y-129.175
X109.83Y-115.68
X109.907Y-101.947
X110.197Y-122.056
X110.621Y-109.03
X110.947Y-122.056
X111.471Y-115.73
X111.539Y-130.181
X111.853Y-116.586
X111.907Y-101.947
X112.09Y-107.332
X112.45Y-124.264
X112.45Y-129.164
X112.727Y-132.219
X113.348Y-119.948
X113.371Y-114.78
X113.89Y-127.746
X114.456Y-132.787
X114.802Y-117.65
X114.826Y-133.611
X115.0Y-124.264
X115.179Y-120.649
X115.179Y-121.849
X115.321Y-115.73
X115.549Y-133.562
X115.831Y-117.108
X115.918Y-118.161
X116.111Y-108.937
X116.207Y-107.23
X116.3Y-129.164
X116.404Y-131.589
X116.441Y-119.949
X116.441Y-121.899
X116.585Y-134.029
X116.985Y-126.949
X116.99Y-126.041
X117.154Y-118.999
X117.538Y-117.1
X117.71Y-121.345
X117.89Y-125.001
X118.025Y-118.474
X118.261Y-130.4
X118.376Y-116.537
X118.492Y-121.849
X118.6Y-123.75
X118.861Y-114.687
X118.929Y-117.85
X119.03Y-128.313
X119.097Y-131.231
X119.172Y-130.531
X119.399Y-128.87
X119.438Y-134.215
X119.6Y-123.6
X119.753Y-116.55
X120.1Y-124.2
X120.1Y-125.3
X120.124Y-123.101
X120.142Y-121.849
X120.182Y-117.65
X120.5Y-120.325
X120.575Y-118.62
X120.79Y-114.199
X120.925Y-134.279
X120.999Y-119.895
X121.074Y-123.101
X121.12Y-117.749
X121.123Y-121.9
X121.257Y-101.947
X121.265Y-126.22
X121.462Y-114.85
X121.462Y-115.85
X121.56Y-129.479
X121.584Y-120.649
X121.89Y-112.95
X121.93Y-112.275
X121.955Y-133.851
X121.97Y-117.749
X121.973Y-122.0
X121.999Y-124.05
X122.05Y-125.45
X122.062Y-116.25
X122.207Y-129.55
X122.35Y-134.951
X122.35Y-120.317
X122.556Y-117.731
X122.589Y-116.6
X122.65Y-126.198
X122.65Y-127.104
X122.7Y-114.395
X122.8Y-115.05
X122.891Y-112.6
X122.905Y-128.862
X122.99Y-125.526
X123.44Y-112.95
X123.525Y-129.095
X123.756Y-119.516
X123.756Y-121.917
X123.85Y-126.571
X123.951Y-118.895
X124.025Y-120.475
X124.15Y-128.73
X124.35Y-121.05
X124.454Y-118.1
X124.532Y-133.6
X124.549Y-126.522
X124.625Y-128.279
X124.725Y-127.636
X125.152Y-125.426
X125.152Y-126.276
X125.26Y-122.845
X125.376Y-119.521
X125.376Y-121.781
X125.45Y-116.41
X125.641Y-134.925
X125.665Y-133.581
X125.75Y-115.15
X125.9Y-131.471
X125.95Y-114.45
X126.0Y-118.45
X126.065Y-123.07
X126.156Y-116.581
X126.3Y-115.95
X126.3Y-130.38
X126.506Y-119.521
X126.506Y-120.651
X126.506Y-121.781
X126.574Y-127.004
X126.6Y-125.25
X126.6Y-126.35
X126.906Y-117.881
X127.198Y-102.248
X127.225Y-127.075
X127.25Y-118.55
X127.5Y-123.1
X127.555Y-125.845
X127.606Y-116.431
X127.636Y-120.651
X127.636Y-121.781
X127.75Y-113.25
X127.75Y-118.08
X127.878Y-130.135
X128.1Y-111.65
X128.2Y-113.8
X128.299Y-123.181
X128.45Y-112.725
X128.55Y-118.1
X128.55Y-125.45
X128.55Y-126.177
X128.65Y-120.1
X128.8Y-121.847
X128.84Y-101.947
X128.906Y-123.431
X128.932Y-134.951
X128.95Y-112.2
X129.15Y-118.95
X129.2Y-114.4
X129.2Y-120.65
X129.25Y-122.317
X129.25Y-115.1
X129.25Y-126.034
X129.25Y-129.15
X129.3Y-126.582
X129.4Y-125.184
X129.65Y-112.224
X129.7Y-111.246
X129.806Y-117.731
X129.825Y-116.95
X129.85Y-124.1
X129.95Y-114.7
X130.1Y-125.933
X130.115Y-110.746
X130.2Y-116.3
X130.7Y-112.752
X130.7Y-120.235
X130.75Y-122.1
X130.85Y-123.089
X131.111Y-126.945
X131.121Y-124.674
X131.22Y-112.338
X131.25Y-124.036
X131.4Y-117.25
X131.425Y-126.19
X131.775Y-126.89
X131.825Y-124.64
X131.9Y-117.75
X132.005Y-124.119
X132.093Y-128.161
X132.1Y-120.8
X132.1Y-130.792
X132.35Y-119.0
X132.575Y-124.84
X133.019Y-124.292
X133.177Y-114.086
X133.232Y-107.346
X133.382Y-118.15
X133.45Y-120.45
X133.605Y-111.883
X133.626Y-126.853
X133.724Y-127.597
X134.1Y-121.25
X134.231Y-107.346
X134.238Y-115.323
X134.342Y-127.256
X134.576Y-124.005
X134.577Y-130.28
X134.642Y-115.875
X134.717Y-111.693
X134.912Y-113.328
X134.976Y-125.255
X135.094Y-104.14
X135.175Y-130.017
X135.301Y-109.167
X135.318Y-109.817
X135.325Y-127.625
X135.398Y-117.348
X135.613Y-107.398
X135.645Y-131.085
X135.65Y-122.255
X135.7Y-125.451
X135.84Y-124.144
X135.851Y-124.795
X135.933Y-114.21
X136.0Y-120.25
X136.028Y-110.285
X136.028Y-116.135
X136.625Y-130.346
X136.7Y-122.59
X136.84Y-101.947
X136.85Y-125.0
X137.075Y-126.775
X137.131Y-105.121
X137.498Y-108.082
X137.685Y-118.086
X137.699Y-130.595
X137.968Y-104.964
X138.793Y-128.061
X138.84Y-101.947
X139.078Y-104.598
X139.131Y-125.701
X139.35Y-115.648
X139.498Y-114.6
X139.556Y-128.288
X140.225Y-131.356
X140.245Y-107.352
X140.293Y-104.598
X140.865Y-114.077
X140.898Y-113.022
X140.95Y-131.513
X141.184Y-125.445
X141.304Y-107.816
X141.644Y-112.523
X141.7Y-131.944
X142.119Y-108.217
X142.55Y-114.432
X142.8Y-135.651
X142.875Y-126.594
X142.925Y-130.849
X142.989Y-128.523
X143.028Y-108.835
X143.215Y-124.614
X143.299Y-127.673
X143.59Y-105.447
X143.725Y-130.26
X144.275Y-133.595
X145.283Y-112.573
X145.364Y-128.5
X145.507Y-129.5
X145.625Y-133.49
X145.665Y-125.588
X145.852Y-114.711
X145.854Y-126.221
X146.144Y-109.831
X146.213Y-133.076
X146.349Y-111.186
X146.57Y-113.732
X146.741Y-112.705
X146.805Y-115.402
X146.924Y-109.073
X147.122Y-112.058
X147.276Y-110.55
X147.675Y-111.551
X147.805Y-115.402
X147.947Y-110.851
X148.14Y-101.947
X148.25Y-128.641
X148.513Y-125.3
X148.706Y-110.192
X148.842Y-117.822
X149.139Y-119.943
X149.257Y-129.915
X149.293Y-126.79
X149.304Y-117.332
X149.439Y-119.243
X149.581Y-127.374
X149.601Y-128.074
X150.169Y-117.267
X150.347Y-126.443
X150.647Y-125.193
X150.862Y-130.944
X151.102Y-132.351
X151.189Y-119.243
X151.288Y-134.001
X151.64Y-129.629
X151.98Y-122.391
X152.604Y-119.6
X152.79Y-132.081
X152.832Y-128.074
X152.849Y-126.036
X152.906Y-117.449
X153.102Y-129.697
X153.239Y-132.551
X154.132Y-136.295
X154.595Y-123.9
X154.822Y-109.428
X155.006Y-121.749
X155.306Y-115.092
X155.456Y-109.692
X155.706Y-108.742
X155.889Y-125.501
X155.889Y-135.451
X157.104Y-119.545
X157.977Y-123.2
X158.083Y-122.0
X158.444Y-118.05
T3
X111.019Y-135.181
X113.559Y-135.181
X116.099Y-135.181
X118.639Y-135.181
T2
X131.273Y-129.121G85X131.273Y-130.221
G05
X131.273Y-133.551G85X131.273Y-134.151
G05
X139.913Y-129.121G85X139.913Y-130.221
G05
X139.913Y-133.551G85X139.913Y-134.151
G05
M30
