%TF.GenerationSoftware,KiCad,Pcbnew,10.0.5*%
%TF.CreationDate,2026-09-21T12:59:36-04:00*%
%TF.ProjectId,rev3,72657633-2e6b-4696-9361-645f70636258,rev?*%
%TF.SameCoordinates,Original*%
%TF.FileFunction,Copper,L4,Bot*%
%TF.FilePolarity,Positive*%
%FSLAX46Y46*%
G04 Gerber Fmt 4.6, Leading zero omitted, Abs format (unit mm)*
G04 Created by KiCad (PCBNEW 10.0.5) date 2026-09-21 12:59:36*
%MOMM*%
%LPD*%
G01*
G04 APERTURE LIST*
%TA.AperFunction,ComponentPad*%
%ADD10R,1.700000X1.700000*%
%TD*%
%TA.AperFunction,ComponentPad*%
%ADD11C,1.700000*%
%TD*%
%TA.AperFunction,ComponentPad*%
%ADD12O,1.000000X2.100000*%
%TD*%
%TA.AperFunction,ComponentPad*%
%ADD13O,1.000000X1.600000*%
%TD*%
%TA.AperFunction,ViaPad*%
%ADD14C,0.500000*%
%TD*%
%TA.AperFunction,ViaPad*%
%ADD15C,0.600000*%
%TD*%
%TA.AperFunction,Conductor*%
%ADD16C,0.150000*%
%TD*%
%TA.AperFunction,Conductor*%
%ADD17C,0.300000*%
%TD*%
%TA.AperFunction,Conductor*%
%ADD18C,0.100000*%
%TD*%
%TA.AperFunction,Conductor*%
%ADD19C,0.200000*%
%TD*%
G04 APERTURE END LIST*
D10*
%TO.P,J6,1*%
%TO.N,SWDIO*%
X111018512Y-135181463D03*
D11*
%TO.P,J6,2*%
%TO.N,SWCLK*%
X113558512Y-135181463D03*
%TO.P,J6,3*%
%TO.N,GND*%
X116098512Y-135181463D03*
%TO.P,J6,4*%
%TO.N,RUN*%
X118638512Y-135181463D03*
%TD*%
D12*
%TO.P,J5,SH*%
%TO.N,GND*%
X131272512Y-129671463D03*
D13*
X131272512Y-133851463D03*
D12*
X139912512Y-129671463D03*
D13*
X139912512Y-133851463D03*
%TD*%
D14*
%TO.N,GND*%
X109195714Y-118031157D03*
X158444244Y-118050000D03*
X114999746Y-124263512D03*
X125151625Y-126275851D03*
X118260746Y-130400000D03*
X110620501Y-109029585D03*
X101906863Y-101946643D03*
X122349512Y-134951463D03*
X143028151Y-108835162D03*
X125640512Y-134925340D03*
X113370501Y-114779585D03*
X128950000Y-112200000D03*
X155705606Y-108742022D03*
X127635926Y-121781214D03*
X149580690Y-127373874D03*
X141183512Y-125445423D03*
X104218867Y-122282716D03*
X127635926Y-120651214D03*
X121256863Y-101946643D03*
X132092512Y-128161464D03*
X99511746Y-123101480D03*
X143298690Y-127673039D03*
X128550000Y-118100000D03*
X111538746Y-130180801D03*
X122800000Y-115050000D03*
X145625000Y-133490000D03*
X111906863Y-101946643D03*
X146212500Y-133075912D03*
X120181616Y-117650000D03*
X131774652Y-126889861D03*
X121889952Y-112950000D03*
X126300000Y-130380197D03*
X126505926Y-121781214D03*
X153239244Y-132551463D03*
X129699524Y-111246359D03*
X133382005Y-118150000D03*
X137685070Y-118086162D03*
X125375926Y-119521214D03*
X129250000Y-126033536D03*
X118861430Y-114687314D03*
X108745714Y-119445578D03*
X136028151Y-110285162D03*
X125750000Y-115150000D03*
X128550000Y-126177318D03*
X127197874Y-102248495D03*
X129250000Y-115100000D03*
X125375926Y-121781214D03*
X149304138Y-117331977D03*
X126505926Y-120651214D03*
X146804606Y-115401596D03*
X121119987Y-117749189D03*
X149139364Y-119942977D03*
X129300000Y-126582258D03*
X150347300Y-126442874D03*
X139130861Y-125700562D03*
X99336746Y-135451463D03*
X107879501Y-115180157D03*
X99638501Y-109328886D03*
X155889244Y-125501463D03*
X128840487Y-101946643D03*
X150861756Y-130943755D03*
X130700000Y-112752105D03*
X129649998Y-112223631D03*
X126600000Y-126350000D03*
X124150000Y-128730197D03*
X132574652Y-124839861D03*
X150169271Y-117266730D03*
X116111430Y-108937314D03*
X128931513Y-134951463D03*
X103737887Y-117956894D03*
X155889244Y-135451463D03*
X115178714Y-120648845D03*
X126505926Y-119521214D03*
X103540000Y-121350000D03*
X157976596Y-123200000D03*
X158083037Y-122000255D03*
X149600690Y-128073874D03*
X130100000Y-125933088D03*
X152906354Y-117449116D03*
X122207075Y-129550000D03*
X129200000Y-114400000D03*
X109906863Y-101946643D03*
X120100000Y-124200000D03*
X99336746Y-125501463D03*
X113347714Y-119948427D03*
X131900000Y-117750000D03*
X129250000Y-129150000D03*
X142800000Y-135651463D03*
X133450000Y-120450000D03*
X138840487Y-101946643D03*
X103036746Y-128801463D03*
X134100000Y-121250000D03*
X105129501Y-109430157D03*
X107124714Y-119971716D03*
X157103970Y-119545242D03*
X136840487Y-101946643D03*
X114802132Y-117650000D03*
X121123281Y-121900000D03*
X133019474Y-124291832D03*
X148140487Y-101946643D03*
X149439364Y-119242977D03*
X138792512Y-128061464D03*
X121462430Y-114850000D03*
X116441399Y-119949203D03*
X102388501Y-115078886D03*
X135398296Y-117348198D03*
X112449746Y-124263512D03*
X148705606Y-110192022D03*
X143215249Y-124613546D03*
X132100000Y-120800000D03*
X112449746Y-129163512D03*
X152848996Y-126036242D03*
X154595246Y-123900000D03*
X120999484Y-119894973D03*
X145665200Y-125588500D03*
X105727746Y-128924716D03*
%TO.N,+3.3V*%
X126300000Y-115950000D03*
X123439952Y-112950000D03*
X120100000Y-125300000D03*
X134342292Y-127256375D03*
X121969987Y-117749189D03*
X120123593Y-123100720D03*
X118492399Y-121848782D03*
X136028151Y-116135162D03*
X110946714Y-122055989D03*
X132005127Y-124119315D03*
X115178714Y-121848845D03*
X127250000Y-118550016D03*
X121462430Y-115850000D03*
X109577746Y-129174716D03*
X150647300Y-125192874D03*
X116299746Y-129163512D03*
X110196714Y-122055989D03*
X155006354Y-121749116D03*
X129400000Y-125183536D03*
X125151625Y-125425851D03*
X122588695Y-116600000D03*
X134641669Y-115875426D03*
X122062430Y-116250000D03*
X121973281Y-122000000D03*
X131824652Y-124639861D03*
X147804606Y-115401596D03*
X134576120Y-124005375D03*
X116441399Y-121899203D03*
X129200000Y-120650000D03*
X124453578Y-118100116D03*
X126155926Y-116581214D03*
X130115088Y-110745553D03*
X123756047Y-121916612D03*
X129805926Y-117731214D03*
X122555926Y-117731214D03*
%TO.N,ROW_VCC*%
X115320501Y-115729585D03*
X120142399Y-121848782D03*
X111470501Y-115729585D03*
X105979501Y-115680157D03*
X117538497Y-117100000D03*
X109829501Y-115680157D03*
X148250000Y-128641309D03*
%TO.N,+5V_USB*%
X137699095Y-130595240D03*
X134576692Y-130280427D03*
X135645000Y-131085431D03*
X151102003Y-132351154D03*
%TO.N,SYNC_P*%
X114455713Y-132786707D03*
X153102055Y-129696717D03*
X112727095Y-132219482D03*
X141700000Y-131944453D03*
%TO.N,SYNC_N*%
X140950000Y-131512986D03*
X152831690Y-128074357D03*
%TO.N,USB_BUS_EN*%
X135850863Y-124795306D03*
X135650000Y-122254674D03*
X142989026Y-128523039D03*
X129850000Y-124100000D03*
X121998588Y-124050000D03*
%TO.N,USB_PWR_FAULT*%
X121265000Y-126220000D03*
X126065000Y-123070000D03*
X142875268Y-126593785D03*
X135840000Y-124144396D03*
X145363806Y-128500279D03*
X130750000Y-122100000D03*
%TO.N,USB_ILIM_LOW*%
X145506542Y-129500136D03*
X145854043Y-126220990D03*
X149293168Y-126789923D03*
X152789652Y-132081031D03*
%TO.N,+5V_BUS*%
X143725000Y-130259816D03*
X119171745Y-130530836D03*
X119438253Y-134214773D03*
X149256724Y-129915273D03*
X120924744Y-134278826D03*
X151639838Y-129629091D03*
%TO.N,BUS_P*%
X115549296Y-133561831D03*
X107042572Y-132249665D03*
%TO.N,BUS_N*%
X108584620Y-132696699D03*
X114825821Y-133610685D03*
%TO.N,VCORE*%
X125950000Y-114450000D03*
X123950517Y-118895074D03*
X121583930Y-120649204D03*
X130700000Y-120234529D03*
X126600000Y-125250000D03*
X127605926Y-116431214D03*
X119600000Y-123600000D03*
%TO.N,RUN*%
X121073593Y-123100720D03*
X123849998Y-126570884D03*
X127225000Y-127075000D03*
D15*
%TO.N,STATUS*%
X154132276Y-136295449D03*
D14*
X151980000Y-122391000D03*
%TO.N,COL_7*%
X155305606Y-115092022D03*
X143590487Y-105446643D03*
D15*
%TO.N,COL_11*%
X146348941Y-111186176D03*
X142118666Y-108217126D03*
%TO.N,COL_12*%
X146740930Y-112704845D03*
X140293306Y-104597643D03*
%TO.N,COL_13*%
X147121883Y-112057800D03*
X141304137Y-107816263D03*
%TO.N,COL_14*%
X140244863Y-107352313D03*
X147675298Y-111550606D03*
%TO.N,COL_15*%
X147947456Y-110850728D03*
X139078000Y-104597643D03*
%TO.N,COL_19*%
X137967840Y-104963719D03*
X141644074Y-112523340D03*
%TO.N,COL_20*%
X140898493Y-113022279D03*
X137130584Y-105121209D03*
%TO.N,COL_23*%
X135094430Y-104140000D03*
X145851932Y-114711000D03*
%TO.N,COL_24*%
X140864652Y-114076668D03*
X135613105Y-107397643D03*
%TO.N,COL_26*%
X134231487Y-107345987D03*
X135933185Y-114210162D03*
%TO.N,COL_28*%
X134717447Y-111692744D03*
X133231607Y-107346044D03*
D14*
%TO.N,SWDIO*%
X116585193Y-134029063D03*
X122905000Y-128861901D03*
X119096946Y-131230531D03*
X127555000Y-125845000D03*
%TO.N,SWCLK*%
X116403703Y-131589472D03*
X126574100Y-127004000D03*
X124548952Y-126521797D03*
X121559934Y-129479310D03*
%TO.N,USB_D_N*%
X130200000Y-116300000D03*
X127750000Y-118079980D03*
%TO.N,USBC_D_N*%
X131400000Y-117250000D03*
X136850000Y-125000000D03*
X135325000Y-127625000D03*
%TO.N,USB_ILIM_HI*%
X120575000Y-118620000D03*
X144275000Y-133595000D03*
X119399362Y-128870000D03*
X125899849Y-131470932D03*
X140225000Y-131356017D03*
X123525000Y-129095000D03*
%TO.N,ROW_DATA*%
X119753465Y-116550000D03*
X123755558Y-119516147D03*
%TO.N,MUX_S0*%
X154821694Y-109428305D03*
X126000000Y-118450000D03*
X139350000Y-115648451D03*
X142550000Y-114431852D03*
X134238219Y-115322527D03*
X145282770Y-112572559D03*
X122349742Y-120316612D03*
X129824999Y-116950000D03*
X146144154Y-109830918D03*
%TO.N,MUX_S1*%
X121929875Y-112275000D03*
X128100000Y-111650000D03*
X155455606Y-109692022D03*
X146570202Y-113732291D03*
X133176780Y-114085627D03*
X120790431Y-114198653D03*
X131220468Y-112337823D03*
X120500000Y-120325000D03*
%TO.N,MUX_S2*%
X124025000Y-120475000D03*
X135318329Y-109817381D03*
X134911881Y-113327678D03*
X147275763Y-110549515D03*
X133605230Y-111883325D03*
%TO.N,MUX_S3*%
X135301205Y-109166607D03*
D15*
X146923697Y-109072851D03*
X137498198Y-108082211D03*
D14*
X124350000Y-121050000D03*
X127750000Y-113250000D03*
%TO.N,BUS_DE*%
X117710000Y-121345000D03*
X125260000Y-122845000D03*
X107176432Y-123289504D03*
X107721979Y-124270166D03*
%TO.N,SYNC_OUT*%
X116990387Y-126040692D03*
X116985401Y-126948912D03*
%TO.N,SYNC_DE*%
X122989700Y-125526200D03*
X117889700Y-125001200D03*
%TO.N,ADC_SDO*%
X128650000Y-120100000D03*
X148513365Y-125300000D03*
X128299418Y-123180603D03*
X128799786Y-121846571D03*
%TO.N,ADC_CONV*%
X118600000Y-123750000D03*
X151189364Y-119242977D03*
X118929029Y-117850379D03*
X128449998Y-112725000D03*
X118375823Y-116536862D03*
X122050000Y-125450000D03*
X128550000Y-125450000D03*
X139498487Y-114600209D03*
X122891229Y-112600000D03*
%TO.N,ADC_SCK*%
X128905926Y-123431214D03*
X130850000Y-123088857D03*
%TO.N,ADDR0*%
X121955491Y-133851014D03*
X122650000Y-126197883D03*
X127500000Y-123100000D03*
X122650000Y-127103728D03*
%TO.N,ADDR1*%
X125665348Y-133581268D03*
X136700000Y-122589631D03*
X131120936Y-124674084D03*
%TO.N,ADDR2*%
X122700000Y-114395000D03*
X125450000Y-116410112D03*
X129249742Y-122316654D03*
X124532123Y-133599724D03*
X124625000Y-128279197D03*
X119029691Y-128312675D03*
%TO.N,USB_CC_OUT1*%
X131250000Y-124036026D03*
X134976120Y-125255375D03*
X129150000Y-118950000D03*
%TO.N,USB_CC_OUT2*%
X135700000Y-125450520D03*
X132350000Y-119000000D03*
%TO.N,USB_D_P*%
X128200000Y-113800000D03*
X126905926Y-117881214D03*
%TO.N,+5V*%
X136624856Y-130346426D03*
X124725116Y-127635949D03*
X113889909Y-127746205D03*
X142925000Y-130849350D03*
X151288161Y-134001154D03*
X127877506Y-130134939D03*
X139556231Y-128287973D03*
X107761075Y-122376578D03*
X136000000Y-120250000D03*
%TO.N,AMP_B*%
X148841555Y-117821977D03*
X152603613Y-119600000D03*
%TO.N,USB_CC1*%
X131110968Y-126945266D03*
X133723961Y-127596805D03*
%TO.N,USB_CC2*%
X131424652Y-126189861D03*
X133625652Y-126853224D03*
D15*
%TO.N,ROW_CLK*%
X115831452Y-117108000D03*
X111853005Y-116586265D03*
X106420369Y-117493944D03*
D14*
%TO.N,ROW_LATCH*%
X107229501Y-116180157D03*
X101788501Y-116078886D03*
X118025308Y-118473822D03*
X117154000Y-118999000D03*
D15*
%TO.N,ROW_8*%
X116206863Y-107230227D03*
X115918038Y-118161000D03*
D14*
%TO.N,USBC_D_P*%
X135175000Y-130017000D03*
X129950000Y-114700000D03*
X137075000Y-126775000D03*
X132100000Y-130792000D03*
%TO.N,SR_CHAIN_3*%
X105129501Y-115630157D03*
X103088501Y-115528886D03*
D15*
%TO.N,ROW_16*%
X108704714Y-117261938D03*
X112089581Y-107331773D03*
%TD*%
%TO.N,GND*%
D16*
X145665200Y-125588500D02*
X143215200Y-124613500D01*
%TO.N,+3.3V*%
X134142292Y-127001375D02*
X134142292Y-126996375D01*
X128800000Y-118550000D02*
X128700000Y-118650000D01*
X120600000Y-124000000D02*
X120600000Y-124400000D01*
X120550000Y-123950000D02*
X120600000Y-124000000D01*
X127250000Y-118550016D02*
X128350000Y-118600000D01*
X120400000Y-124650000D02*
X120400000Y-124750000D01*
X128650000Y-119200000D02*
X128850000Y-119400000D01*
X128850000Y-119450000D02*
X128900000Y-119500000D01*
X120400000Y-124750000D02*
X120350000Y-124800000D01*
X132350000Y-125750000D02*
X132200000Y-125600000D01*
X132450000Y-125800000D02*
X132400000Y-125750000D01*
X132150000Y-125500000D02*
X132145535Y-125124274D01*
X132200000Y-125600000D02*
X132200000Y-125550000D01*
X129100000Y-119800000D02*
X129100000Y-119850000D01*
X120800000Y-122650000D02*
X120750000Y-122650000D01*
X128900000Y-119500000D02*
X128900000Y-119550000D01*
X120750000Y-122650000D02*
X120500000Y-122900000D01*
X129100000Y-119850000D02*
X129150000Y-119900000D01*
X128850000Y-119400000D02*
X128850000Y-119450000D01*
X134183218Y-126696180D02*
X133100000Y-125800000D01*
X134192292Y-127051375D02*
X134142292Y-127001375D01*
X128950000Y-119600000D02*
X128950000Y-119650000D01*
X128900000Y-119550000D02*
X128950000Y-119600000D01*
X120600000Y-124400000D02*
X120550000Y-124450000D01*
X128850000Y-118500000D02*
X128850000Y-118550000D01*
X128650000Y-118750000D02*
X128650000Y-119200000D01*
X120500000Y-122900000D02*
X120423593Y-122900720D01*
X120550000Y-123900000D02*
X120550000Y-123950000D01*
X120250000Y-125050000D02*
X120250000Y-125100000D01*
X128400000Y-118650000D02*
X128500000Y-118650000D01*
X120373593Y-122950720D02*
X120323593Y-122950720D01*
X134092292Y-126946375D02*
X134183218Y-126696180D01*
X121250000Y-122600000D02*
X120850000Y-122600000D01*
X128500000Y-118650000D02*
X128550000Y-118700000D01*
X129200000Y-120350000D02*
X129200000Y-120400000D01*
X128950000Y-118450000D02*
X128900000Y-118500000D01*
X120550000Y-124500000D02*
X120400000Y-124650000D01*
X129605926Y-117881214D02*
X129100000Y-118450000D01*
X128950000Y-119650000D02*
X129100000Y-119800000D01*
X134142292Y-126996375D02*
X134092292Y-126946375D01*
X128700000Y-118650000D02*
X128700000Y-118700000D01*
X120300000Y-124900000D02*
X120300000Y-125000000D01*
X121973281Y-122000000D02*
X121250000Y-122600000D01*
X132145535Y-125124274D02*
X131824652Y-124639861D01*
X129150000Y-120300000D02*
X129200000Y-120350000D01*
X120550000Y-124450000D02*
X120550000Y-124500000D01*
X120850000Y-122600000D02*
X120800000Y-122650000D01*
X133100000Y-125800000D02*
X132450000Y-125800000D01*
X128550000Y-118700000D02*
X128600000Y-118700000D01*
X120350000Y-124800000D02*
X120350000Y-124850000D01*
X129150000Y-119900000D02*
X129150000Y-120300000D01*
X120273593Y-123300720D02*
X120250000Y-123600000D01*
X134192292Y-127056375D02*
X134192292Y-127051375D01*
X132400000Y-125750000D02*
X132350000Y-125750000D01*
X128350000Y-118600000D02*
X128400000Y-118650000D01*
X120250000Y-123600000D02*
X120550000Y-123900000D01*
X120350000Y-124850000D02*
X120300000Y-124900000D01*
X128850000Y-118550000D02*
X128800000Y-118550000D01*
X129100000Y-118450000D02*
X128950000Y-118450000D01*
X120300000Y-125000000D02*
X120250000Y-125050000D01*
X128900000Y-118500000D02*
X128850000Y-118500000D01*
X132200000Y-125550000D02*
X132150000Y-125500000D01*
X128700000Y-118700000D02*
X128650000Y-118750000D01*
X120423593Y-122900720D02*
X120373593Y-122950720D01*
%TO.N,ROW_VCC*%
X115320501Y-115729585D02*
X111470501Y-115729585D01*
%TO.N,+5V_USB*%
D17*
X142170200Y-134375000D02*
X150370200Y-133925987D01*
X134576692Y-130280427D02*
X135645000Y-131085431D01*
X140070200Y-132525000D02*
X142170200Y-134375000D01*
X150370200Y-133925987D02*
X151102003Y-132351154D01*
X138395200Y-131152676D02*
X140070200Y-132525000D01*
X137699095Y-130595240D02*
X138395200Y-131152676D01*
%TO.N,SYNC_P*%
D16*
X151889521Y-131677401D02*
X152312359Y-131039739D01*
X142050000Y-131733676D02*
X149798653Y-131329548D01*
X141700000Y-131944453D02*
X142050000Y-131733676D01*
X149798653Y-131329548D02*
X150300000Y-131779743D01*
X152312359Y-131039739D02*
X152817453Y-130894866D01*
X153221267Y-130898478D02*
X153102055Y-129696717D01*
X150300000Y-131779743D02*
X151889521Y-131677401D01*
X152817453Y-130894866D02*
X153221267Y-130898478D01*
X112727095Y-132219482D02*
X114455713Y-132786707D01*
%TO.N,SYNC_N*%
X140950000Y-131512986D02*
X141250000Y-131402996D01*
X152519286Y-130484858D02*
X152831690Y-128074357D01*
X152167055Y-130713769D02*
X152311671Y-130726387D01*
X152311671Y-130726387D02*
X152519286Y-130484858D01*
X149924264Y-131006836D02*
X150425611Y-131457031D01*
X141250000Y-131402996D02*
X149924264Y-131006836D01*
X151744554Y-131350923D02*
X152167055Y-130713769D01*
X150425611Y-131457031D02*
X151744554Y-131350923D01*
%TO.N,USB_BUS_EN*%
X142450000Y-128296156D02*
X142400000Y-128296156D01*
X141350000Y-127930877D02*
X141300000Y-127880875D01*
X137050000Y-123677749D02*
X135850863Y-124795306D01*
X142400000Y-128296156D02*
X142350000Y-128246156D01*
X138828731Y-126099228D02*
X138778731Y-126049228D01*
X142100000Y-128236346D02*
X142050000Y-128186348D01*
X129850000Y-124100000D02*
X122048588Y-124100000D01*
X142250000Y-128196154D02*
X142100000Y-128236346D01*
X142050000Y-128186348D02*
X141550000Y-128190685D01*
X138450000Y-125842155D02*
X138450000Y-125792155D01*
X138778731Y-126049228D02*
X138778731Y-126044228D01*
X138828731Y-126149228D02*
X138828731Y-126099228D01*
X138450000Y-125792155D02*
X138400000Y-125742155D01*
X138400000Y-125050000D02*
X135650000Y-122254674D01*
X142989026Y-128523039D02*
X142780180Y-128643616D01*
X141550000Y-128190685D02*
X141400000Y-127930877D01*
X142780180Y-128643616D02*
X142450000Y-128296156D01*
X141300000Y-127880875D02*
X140550000Y-127679664D01*
X122048588Y-124100000D02*
X121998588Y-124050000D01*
X142350000Y-128246156D02*
X142300000Y-128246156D01*
X138778731Y-126044228D02*
X138450000Y-125842155D01*
X142300000Y-128246156D02*
X142250000Y-128196154D01*
X141400000Y-127930877D02*
X141350000Y-127930877D01*
X140550000Y-127679664D02*
X138828731Y-126149228D01*
X138400000Y-125742155D02*
X138400000Y-125050000D01*
%TO.N,USB_PWR_FAULT*%
D18*
X142875268Y-126593785D02*
X144490000Y-127679188D01*
X126065000Y-123070000D02*
X125465000Y-123320000D01*
X121690000Y-123345000D02*
X121240000Y-123845000D01*
X125465000Y-123320000D02*
X121690000Y-123345000D01*
X144490000Y-127679188D02*
X145363806Y-128500279D01*
X121240000Y-123845000D02*
X121265000Y-126220000D01*
%TO.N,USB_ILIM_LOW*%
D16*
X146107391Y-129003535D02*
X146594713Y-128229999D01*
X149293168Y-126789923D02*
X151125000Y-127139686D01*
X154357849Y-127136399D02*
X154852057Y-128039068D01*
X146594713Y-128229999D02*
X145854043Y-126220990D01*
X155579541Y-131231616D02*
X155107598Y-131636644D01*
X155638725Y-130732128D02*
X155579541Y-131231616D01*
X155107598Y-131636644D02*
X152789652Y-132081031D01*
X154852057Y-128039068D02*
X155638725Y-130732128D01*
X151125000Y-127139686D02*
X154357849Y-127136399D01*
X145506542Y-129500136D02*
X146107391Y-129003535D01*
%TO.N,+5V_BUS*%
D17*
X149256724Y-129915273D02*
X151639838Y-129629091D01*
X140525000Y-128074033D02*
X143725000Y-130259816D01*
X120924744Y-134278826D02*
X121158042Y-134409121D01*
X131475000Y-132750512D02*
X133943662Y-130665446D01*
X130867940Y-132749379D02*
X131475000Y-132750512D01*
X119171745Y-130530836D02*
X119783514Y-131132068D01*
X138702796Y-127362431D02*
X140525000Y-128074033D01*
X134487995Y-129705334D02*
X137743247Y-128293898D01*
X134083755Y-129914053D02*
X134487995Y-129705334D01*
X121158042Y-134409121D02*
X129651826Y-134341696D01*
X119783514Y-131132068D02*
X119438253Y-134214773D01*
X133943662Y-130665446D02*
X134083755Y-129914053D01*
X137743247Y-128293898D02*
X138702796Y-127362431D01*
X129651826Y-134341696D02*
X130867940Y-132749379D01*
%TO.N,BUS_P*%
D16*
X114619864Y-136597429D02*
X115349296Y-133761830D01*
X107042572Y-132249665D02*
X104637445Y-136356588D01*
X115349296Y-133761830D02*
X115549296Y-133561831D01*
X104974612Y-136601360D02*
X114619864Y-136597429D01*
X104637445Y-136356588D02*
X104974612Y-136601360D01*
%TO.N,BUS_N*%
X106958467Y-136299140D02*
X114386183Y-136296113D01*
X115025821Y-133810684D02*
X114825821Y-133610685D01*
X106595225Y-136010519D02*
X106958467Y-136299140D01*
X108584620Y-132696699D02*
X106595225Y-136010519D01*
X114386183Y-136296113D02*
X115025821Y-133810684D01*
%TO.N,VCORE*%
X120683526Y-121650000D02*
X120683526Y-121700000D01*
X120305410Y-122300000D02*
X119689033Y-122850000D01*
X120633526Y-121750000D02*
X120627523Y-122050000D01*
X120627523Y-122050000D02*
X120355410Y-122300000D01*
X119689033Y-122900000D02*
X119639033Y-122950000D01*
X120683526Y-121700000D02*
X120633526Y-121750000D01*
X120355410Y-122300000D02*
X120305410Y-122300000D01*
X119689033Y-122850000D02*
X119689033Y-122900000D01*
X119639033Y-122950000D02*
X119600000Y-123600000D01*
X121583930Y-120649204D02*
X120683526Y-121650000D01*
%TO.N,RUN*%
X120950000Y-125850000D02*
X120550000Y-126250000D01*
D18*
X120550000Y-126300000D02*
X121150000Y-126750000D01*
X120483861Y-134400000D02*
X120158862Y-134750000D01*
D16*
X121073593Y-123100720D02*
X121073593Y-123300720D01*
X121073593Y-123300720D02*
X121023593Y-123350720D01*
D18*
X119947576Y-129600000D02*
X120483861Y-134400000D01*
D16*
X120550000Y-126250000D02*
X120550000Y-126300000D01*
X119980342Y-129400000D02*
X119997576Y-129500000D01*
X121023593Y-123400720D02*
X120973593Y-123450720D01*
D18*
X121150000Y-126750000D02*
X123849998Y-126570884D01*
D16*
X120625187Y-128000000D02*
X119980342Y-129350000D01*
X121023593Y-123350720D02*
X121023593Y-123400720D01*
D18*
X120158862Y-134750000D02*
X119417612Y-135006463D01*
D16*
X119997576Y-129550000D02*
X119947576Y-129600000D01*
X120500000Y-126350000D02*
X120625187Y-128000000D01*
X120550000Y-126300000D02*
X120500000Y-126350000D01*
X119980342Y-129350000D02*
X119980342Y-129400000D01*
X119997576Y-129500000D02*
X119997576Y-129550000D01*
X120973593Y-123450720D02*
X120950000Y-125850000D01*
%TO.N,STATUS*%
X154132276Y-136295449D02*
X157440000Y-133538999D01*
X156289041Y-127121000D02*
X151980000Y-122391000D01*
X157440000Y-133538999D02*
X156289041Y-127121000D01*
%TO.N,COL_11*%
X142118666Y-108217126D02*
X142036897Y-108567748D01*
X146123941Y-110962176D02*
X146348941Y-111186176D01*
X142036897Y-108567748D02*
X144622252Y-110957000D01*
X144622252Y-110957000D02*
X146123941Y-110962176D01*
%TO.N,COL_12*%
X146548930Y-112704845D02*
X146740930Y-112704845D01*
X145551237Y-111571054D02*
X146172694Y-112219301D01*
X146172694Y-112219301D02*
X146191977Y-112219301D01*
X136938278Y-108317859D02*
X141381911Y-111697422D01*
X137005061Y-107777666D02*
X136938278Y-108317859D01*
X141381911Y-111697422D02*
X145551237Y-111571054D01*
X146191977Y-112219301D02*
X146548930Y-112704845D01*
X140293306Y-104597643D02*
X137005061Y-107777666D01*
%TO.N,COL_13*%
X145672146Y-111262032D02*
X146283203Y-111899431D01*
X141304137Y-107816263D02*
X140976967Y-107993635D01*
X146283203Y-111899431D02*
X147121883Y-112057800D01*
X144489207Y-111258463D02*
X145672146Y-111262032D01*
X140976967Y-107993635D02*
X144489207Y-111258463D01*
%TO.N,COL_14*%
X145042551Y-108871000D02*
X142669000Y-106768134D01*
X146202330Y-110662785D02*
X144953294Y-109111000D01*
X140322863Y-107275313D02*
X140244863Y-107352313D01*
X142669000Y-106768134D02*
X140322863Y-107275313D01*
X146503867Y-110639689D02*
X146498867Y-110639689D01*
X147675298Y-111550606D02*
X146503867Y-110639689D01*
X146497867Y-110640689D02*
X146202330Y-110662785D01*
X144953294Y-109111000D02*
X145042551Y-108871000D01*
X146498867Y-110639689D02*
X146497867Y-110640689D01*
%TO.N,COL_15*%
X146041663Y-112658032D02*
X145432489Y-111882330D01*
X135977774Y-108716650D02*
X136382213Y-105489201D01*
X136382213Y-105489201D02*
X136913953Y-104333634D01*
X141926000Y-113549000D02*
X140659657Y-113549000D01*
X145432489Y-111882330D02*
X143614036Y-111931318D01*
X148312596Y-111599891D02*
X146991599Y-113231739D01*
X138552000Y-104015939D02*
X139078000Y-104597643D01*
X137686160Y-110040765D02*
X135977774Y-108716650D01*
X136913953Y-104333634D02*
X138552000Y-104015939D01*
X146484743Y-113259633D02*
X146068663Y-112658032D01*
X146991599Y-113231739D02*
X146484743Y-113259633D01*
X146068663Y-112658032D02*
X146041663Y-112658032D01*
X143614036Y-111931318D02*
X141926000Y-113549000D01*
X140659657Y-113549000D02*
X137843604Y-111076350D01*
X137843604Y-111076350D02*
X137686160Y-110040765D01*
X147947456Y-110850728D02*
X148312596Y-111599891D01*
%TO.N,COL_19*%
X141547874Y-112271626D02*
X136618108Y-108450788D01*
X136618108Y-108450788D02*
X136901155Y-106182676D01*
X141644074Y-112523340D02*
X141547874Y-112271626D01*
X136901155Y-106182676D02*
X137967840Y-104963719D01*
%TO.N,COL_20*%
X140831488Y-112097466D02*
X136297939Y-108583718D01*
X136642181Y-105831691D02*
X137130584Y-105121209D01*
X140898493Y-113022279D02*
X140831488Y-112097466D01*
X136297939Y-108583718D02*
X136642181Y-105831691D01*
%TO.N,COL_23*%
X145851932Y-114711000D02*
X145672865Y-115020000D01*
X140727283Y-115015419D02*
X134821528Y-110021187D01*
X134841430Y-104393000D02*
X135094430Y-104140000D01*
X134821528Y-110021187D02*
X134841430Y-104393000D01*
X145672865Y-115020000D02*
X140727283Y-115015419D01*
%TO.N,COL_24*%
X135441374Y-108664658D02*
X135613105Y-107397643D01*
X140794652Y-114076668D02*
X137082416Y-110818000D01*
X140864652Y-114076668D02*
X140794652Y-114076668D01*
X137154460Y-110077519D02*
X135441374Y-108664658D01*
X137082416Y-110818000D02*
X137154460Y-110077519D01*
%TO.N,COL_26*%
X133877204Y-109428937D02*
X135629450Y-111359049D01*
X134231487Y-107345987D02*
X133877204Y-109428937D01*
X135629450Y-111359049D02*
X135933185Y-114210162D01*
%TO.N,COL_28*%
X134717447Y-111692744D02*
X133371318Y-109117000D01*
X133371318Y-109117000D02*
X133231607Y-107346044D01*
%TO.N,SWDIO*%
D18*
X122905000Y-128861901D02*
X124955000Y-126751550D01*
X126380000Y-125770000D02*
X126855000Y-125695000D01*
X127580000Y-125445000D02*
X127555000Y-125845000D01*
X124955000Y-126751550D02*
X125405000Y-126745000D01*
X126855000Y-125695000D02*
X127580000Y-125445000D01*
X125405000Y-126745000D02*
X126380000Y-125770000D01*
X116585193Y-134029063D02*
X119096946Y-131230531D01*
%TO.N,SWCLK*%
X114706188Y-133170977D02*
X114507557Y-133255138D01*
X121559934Y-129479310D02*
X124548952Y-126521797D01*
X116403703Y-131589472D02*
X114706188Y-133170977D01*
X114187494Y-133628058D02*
X113762612Y-134410463D01*
X114507557Y-133255138D02*
X114187494Y-133628058D01*
%TO.N,USB_D_N*%
X129600000Y-116550000D02*
X129650000Y-116500000D01*
X129550000Y-116550000D02*
X129600000Y-116550000D01*
X129650000Y-116500000D02*
X129700000Y-116500000D01*
X129950000Y-116400000D02*
X130000000Y-116350000D01*
X129450000Y-116600000D02*
X129500000Y-116600000D01*
X129150000Y-116700000D02*
X129300000Y-116700000D01*
X129750000Y-116450000D02*
X129850000Y-116450000D01*
X130100000Y-116350000D02*
X130150000Y-116300000D01*
X129400000Y-116650000D02*
X129450000Y-116600000D01*
X129900000Y-116400000D02*
X129950000Y-116400000D01*
X127750000Y-118079980D02*
X129150000Y-116700000D01*
X129850000Y-116450000D02*
X129900000Y-116400000D01*
X130150000Y-116300000D02*
X130200000Y-116300000D01*
X129500000Y-116600000D02*
X129550000Y-116550000D01*
X130000000Y-116350000D02*
X130100000Y-116350000D01*
X129300000Y-116700000D02*
X129350000Y-116650000D01*
X129350000Y-116650000D02*
X129400000Y-116650000D01*
X129700000Y-116500000D02*
X129750000Y-116450000D01*
%TO.N,USBC_D_N*%
D16*
X134050000Y-124500000D02*
X134525000Y-125550000D01*
X131650000Y-118900000D02*
X131650000Y-118950000D01*
X132950000Y-122300000D02*
X133150000Y-122500000D01*
X131950000Y-119850000D02*
X131950000Y-119900000D01*
X131950000Y-119900000D02*
X132550000Y-120500000D01*
X131400000Y-118350000D02*
X131450000Y-118400000D01*
X131750000Y-119500000D02*
X131850000Y-119600000D01*
X131850000Y-119650000D02*
X131900000Y-119700000D01*
X133500000Y-123350000D02*
X133500000Y-123400000D01*
X133500000Y-123400000D02*
X133600000Y-123500000D01*
X133250000Y-122650000D02*
X133250000Y-122700000D01*
X133950000Y-124374887D02*
X134050000Y-124500000D01*
X133150000Y-122550000D02*
X133250000Y-122650000D01*
X131700000Y-119100000D02*
X131750000Y-119150000D01*
X132900000Y-121950000D02*
X132950000Y-122000000D01*
X133700000Y-123750000D02*
X133750000Y-123800000D01*
X133750000Y-123800000D02*
X133750000Y-123928477D01*
X132550000Y-120500000D02*
X132550000Y-120550000D01*
X133700000Y-123650000D02*
X133700000Y-123750000D01*
X132600000Y-121550000D02*
X132900000Y-121850000D01*
X133300000Y-122850000D02*
X133350000Y-122900000D01*
X134900000Y-125800000D02*
X135850000Y-125975000D01*
X133150000Y-122500000D02*
X133150000Y-122550000D01*
X132900000Y-121850000D02*
X132900000Y-121950000D01*
X134525000Y-125550000D02*
X134900000Y-125800000D01*
X131450000Y-118650000D02*
X131500000Y-118700000D01*
X131850000Y-119600000D02*
X131850000Y-119650000D01*
X132600000Y-120600000D02*
X132600000Y-121550000D01*
X131500000Y-118750000D02*
X131650000Y-118900000D01*
X133850000Y-124101682D02*
X133850000Y-124151682D01*
X131900000Y-119700000D02*
X131900000Y-119800000D01*
X131750000Y-119150000D02*
X131750000Y-119500000D01*
X133600000Y-123500000D02*
X133600000Y-123550000D01*
X131400000Y-117250000D02*
X131400000Y-118350000D01*
X133300000Y-122750000D02*
X133300000Y-122850000D01*
X135850000Y-125975000D02*
X136850000Y-125000000D01*
X131900000Y-119800000D02*
X131950000Y-119850000D01*
X133600000Y-123550000D02*
X133700000Y-123650000D01*
X131500000Y-118700000D02*
X131500000Y-118750000D01*
X133250000Y-122700000D02*
X133300000Y-122750000D01*
X131700000Y-119000000D02*
X131700000Y-119100000D01*
X132950000Y-122000000D02*
X132950000Y-122300000D01*
X135850000Y-125975000D02*
X135325000Y-127625000D01*
X133350000Y-122900000D02*
X133350000Y-123200000D01*
X131650000Y-118950000D02*
X131700000Y-119000000D01*
X132550000Y-120550000D02*
X132600000Y-120600000D01*
X133350000Y-123200000D02*
X133500000Y-123350000D01*
X131450000Y-118400000D02*
X131450000Y-118650000D01*
X133850000Y-124151682D02*
X133950000Y-124324887D01*
X133950000Y-124324887D02*
X133950000Y-124374887D01*
X133750000Y-123928477D02*
X133850000Y-124101682D01*
%TO.N,USB_ILIM_HI*%
D18*
X119399362Y-128870000D02*
X119549362Y-128949999D01*
X119300000Y-122750000D02*
X119300000Y-123200000D01*
X142275000Y-133970000D02*
X140225000Y-131356017D01*
X119300000Y-123200000D02*
X119150000Y-123350000D01*
X119550000Y-121750000D02*
X119500000Y-121800000D01*
X119150000Y-123350000D02*
X119150000Y-123500000D01*
X144275000Y-133595000D02*
X143575000Y-133946072D01*
X143575000Y-133946072D02*
X142275000Y-133970000D01*
X119350000Y-122700000D02*
X119300000Y-122750000D01*
X119550000Y-121600000D02*
X119550000Y-121750000D01*
X119350000Y-122650000D02*
X119350000Y-122700000D01*
X119506916Y-122500000D02*
X119350000Y-122650000D01*
X125500000Y-131070000D02*
X123525000Y-129095000D01*
X119550000Y-121600000D02*
X120575000Y-118620000D01*
X119100000Y-123550000D02*
X119549362Y-128950000D01*
X119150000Y-123500000D02*
X119100000Y-123550000D01*
X125899849Y-131470932D02*
X125500000Y-131070000D01*
X119500000Y-121800000D02*
X119506916Y-122500000D01*
%TO.N,ROW_DATA*%
X120918534Y-118200000D02*
X120625902Y-117875000D01*
X120625902Y-117875000D02*
X120641920Y-117400000D01*
X120641920Y-117400000D02*
X119753465Y-116550000D01*
X123755558Y-119516147D02*
X120918534Y-118200000D01*
%TO.N,MUX_S0*%
X146144154Y-109830918D02*
X149204933Y-109374069D01*
X122349742Y-120316612D02*
X124300000Y-121575000D01*
X124300000Y-121575000D02*
X124600000Y-121500000D01*
X142550000Y-114431852D02*
X145282770Y-112572559D01*
X126000000Y-120800000D02*
X126000000Y-118450000D01*
X124600000Y-121500000D02*
X126000000Y-120800000D01*
X134238219Y-115322527D02*
X138975000Y-115250000D01*
X149204933Y-109374069D02*
X154821694Y-109428305D01*
X138975000Y-115250000D02*
X139350000Y-115648451D01*
%TO.N,MUX_S1*%
D16*
X135482074Y-114857210D02*
X135606186Y-114973643D01*
X134643580Y-114457210D02*
X134693580Y-114457210D01*
X135382074Y-114807210D02*
X135432074Y-114857210D01*
X134443580Y-114357210D02*
X134493580Y-114357210D01*
X140300000Y-115100000D02*
X140500000Y-115300000D01*
X134932074Y-114607210D02*
X134982074Y-114607210D01*
X139118917Y-114900000D02*
X139287028Y-115050000D01*
X135332074Y-114807210D02*
X135382074Y-114807210D01*
X133176780Y-114085627D02*
X134293580Y-114257210D01*
X134843580Y-114557210D02*
X134882074Y-114557210D01*
X134293580Y-114257210D02*
X134343580Y-114307210D01*
X146274987Y-115350000D02*
X146524898Y-114950000D01*
X135182074Y-114707210D02*
X135232074Y-114757210D01*
X134693580Y-114457210D02*
X134743580Y-114507210D01*
X152800000Y-114900000D02*
X155455606Y-109692022D01*
X139287028Y-115050000D02*
X139337028Y-115050000D01*
X134743580Y-114507210D02*
X134793580Y-114507210D01*
X139387028Y-115100000D02*
X140300000Y-115100000D01*
X146524898Y-114950000D02*
X146574898Y-114950000D01*
X140600000Y-115350000D02*
X146274987Y-115350000D01*
X135432074Y-114857210D02*
X135482074Y-114857210D01*
D18*
X121929875Y-112275000D02*
X121396906Y-112800000D01*
D16*
X135706186Y-115023643D02*
X138650000Y-114650000D01*
X146620202Y-113782291D02*
X146570202Y-113732291D01*
X134493580Y-114357210D02*
X134543580Y-114407210D01*
X135232074Y-114757210D02*
X135282074Y-114757210D01*
X135656186Y-114973643D02*
X135706186Y-115023643D01*
X146624898Y-114900000D02*
X146620202Y-113782291D01*
X146624898Y-114900000D02*
X152800000Y-114900000D01*
X138650000Y-114650000D02*
X138700000Y-114700000D01*
X134793580Y-114507210D02*
X134843580Y-114557210D01*
X146574898Y-114950000D02*
X146624898Y-114900000D01*
X138700000Y-114700000D02*
X138750000Y-114700000D01*
X140500000Y-115300000D02*
X140550000Y-115300000D01*
X135282074Y-114757210D02*
X135332074Y-114807210D01*
X140550000Y-115300000D02*
X140600000Y-115350000D01*
X134393580Y-114307210D02*
X134443580Y-114357210D01*
X134343580Y-114307210D02*
X134393580Y-114307210D01*
X138950000Y-114900000D02*
X139118917Y-114900000D01*
X139337028Y-115050000D02*
X139387028Y-115100000D01*
X135132074Y-114707210D02*
X135182074Y-114707210D01*
X135606186Y-114973643D02*
X135656186Y-114973643D01*
X138750000Y-114700000D02*
X138950000Y-114900000D01*
X134543580Y-114407210D02*
X134593580Y-114407210D01*
X135082074Y-114657210D02*
X135132074Y-114707210D01*
D18*
X121396906Y-112800000D02*
X120790431Y-114198653D01*
D16*
X134882074Y-114557210D02*
X134932074Y-114607210D01*
X135032074Y-114657210D02*
X135082074Y-114657210D01*
X134982074Y-114607210D02*
X135032074Y-114657210D01*
X134593580Y-114407210D02*
X134643580Y-114457210D01*
%TO.N,MUX_S2*%
X124350000Y-114550000D02*
X126450000Y-112450000D01*
D18*
X124350000Y-114550000D02*
X123925000Y-118266289D01*
D16*
X128750000Y-111733926D02*
X128800000Y-111683926D01*
D18*
X124400000Y-119200000D02*
X124200000Y-119825000D01*
D16*
X126450000Y-112450000D02*
X126500000Y-112450000D01*
D18*
X124200000Y-119825000D02*
X124025000Y-120475000D01*
D16*
X128800000Y-111683926D02*
X133605230Y-112033325D01*
X128700000Y-111733926D02*
X128750000Y-111733926D01*
X133605230Y-112033325D02*
X134911881Y-113327678D01*
D18*
X123925000Y-118266289D02*
X124451955Y-118738249D01*
D16*
X126500000Y-112450000D02*
X126550000Y-112400000D01*
X128050000Y-112400000D02*
X128700000Y-111733926D01*
D18*
X124451955Y-118738249D02*
X124400000Y-119200000D01*
D16*
X133605230Y-112033325D02*
X133605230Y-111883325D01*
X126550000Y-112400000D02*
X128050000Y-112400000D01*
%TO.N,MUX_S3*%
X125800000Y-113950000D02*
X127050000Y-113950000D01*
X124850000Y-118400000D02*
X124900000Y-118350000D01*
X125000000Y-114700000D02*
X125700000Y-114000000D01*
X124950000Y-118250000D02*
X124950000Y-115050000D01*
X140690000Y-103583819D02*
X141099000Y-103901660D01*
D18*
X124850000Y-120400000D02*
X124350000Y-121050000D01*
D16*
X141252670Y-103991605D02*
X140867000Y-103479464D01*
X140867000Y-103479464D02*
X140690000Y-103578819D01*
X127050000Y-113950000D02*
X127750000Y-113250000D01*
X124950000Y-115050000D02*
X125000000Y-115000000D01*
X141099000Y-104543996D02*
X137498198Y-108082211D01*
X124900000Y-118300000D02*
X124950000Y-118250000D01*
X125000000Y-115000000D02*
X125000000Y-114700000D01*
X124900000Y-118350000D02*
X124900000Y-118300000D01*
X125700000Y-114000000D02*
X125750000Y-114000000D01*
X125750000Y-114000000D02*
X125800000Y-113950000D01*
X140690000Y-103578819D02*
X140690000Y-103583819D01*
X141099000Y-103901660D02*
X141099000Y-104543996D01*
X124850000Y-120400000D02*
X124850000Y-118400000D01*
X146923697Y-109072851D02*
X141252670Y-103991605D01*
%TO.N,BUS_DE*%
D18*
X107176432Y-123289504D02*
X107721979Y-124270166D01*
%TO.N,SYNC_OUT*%
X116985401Y-126948912D02*
X116990387Y-126040692D01*
%TO.N,ADC_CONV*%
X128500000Y-125450000D02*
X128050000Y-125000000D01*
X118350000Y-122800000D02*
X118871765Y-122300000D01*
X134800000Y-113765186D02*
X134850000Y-113787448D01*
X134600000Y-113653926D02*
X134650000Y-113726375D01*
X134850000Y-113787448D02*
X134900000Y-113787448D01*
X134950000Y-113815658D02*
X135000000Y-113815658D01*
X129949998Y-112700000D02*
X128449998Y-112725000D01*
X133949998Y-113300000D02*
X134000000Y-113300000D01*
X134450000Y-113550000D02*
X134500000Y-113550000D01*
X122891229Y-112600000D02*
X121406082Y-114325000D01*
X121406082Y-114325000D02*
X121279963Y-114400000D01*
X128050000Y-125000000D02*
X127900000Y-125000000D01*
X130449998Y-113200000D02*
X130600000Y-113200000D01*
X134250000Y-113450000D02*
X134300000Y-113450000D01*
X134100000Y-113350000D02*
X134150000Y-113400000D01*
X118300000Y-123100000D02*
X118300000Y-123000000D01*
X135424766Y-114412504D02*
X135474766Y-114412504D01*
X134700000Y-113726375D02*
X134750000Y-113765186D01*
X134150000Y-113400000D02*
X134199998Y-113400000D01*
X118350000Y-122950000D02*
X118350000Y-122800000D01*
X118600000Y-123750000D02*
X118600000Y-123550000D01*
X135348278Y-114050000D02*
X135361669Y-114218348D01*
X138750000Y-114350000D02*
X138800000Y-114400000D01*
X118350000Y-123300000D02*
X118350000Y-123150000D01*
X135233518Y-114000000D02*
X135283518Y-114000000D01*
X135154650Y-113950000D02*
X135204650Y-113950000D01*
X130650000Y-113250000D02*
X133900000Y-113250000D01*
X135474766Y-114412504D02*
X135508032Y-114545583D01*
X126700000Y-124800000D02*
X126650000Y-124750000D01*
X134500000Y-113550000D02*
X134550000Y-113653926D01*
X135091915Y-113850000D02*
X135120783Y-113900000D01*
X135361669Y-114218348D02*
X135411669Y-114218348D01*
X121279963Y-114400000D02*
X118375823Y-116536862D01*
X135411669Y-114218348D02*
X135424766Y-114412504D01*
X118929029Y-117850379D02*
X118958368Y-122200000D01*
X118600000Y-123550000D02*
X118350000Y-123300000D01*
X130600000Y-113200000D02*
X130650000Y-113250000D01*
X135125783Y-113900000D02*
X135154650Y-113950000D01*
X134350000Y-113500000D02*
X134400000Y-113500000D01*
X139050000Y-114600000D02*
X139498487Y-114600209D01*
X134300000Y-113450000D02*
X134350000Y-113500000D01*
X135558032Y-114545583D02*
X135695709Y-114675424D01*
X135283518Y-114000000D02*
X135298278Y-114050000D01*
X118871765Y-122300000D02*
X118871765Y-122250000D01*
X126650000Y-124750000D02*
X122750000Y-124750000D01*
X135745709Y-114675424D02*
X135863479Y-114725100D01*
X134900000Y-113787448D02*
X134950000Y-113815658D01*
X135000000Y-113815658D02*
X135041915Y-113850000D01*
X133900000Y-113250000D02*
X133949998Y-113300000D01*
X118350000Y-123150000D02*
X118300000Y-123100000D01*
X135508032Y-114545583D02*
X135558032Y-114545583D01*
X135041915Y-113850000D02*
X135091915Y-113850000D01*
X129949998Y-112700000D02*
X130449998Y-113200000D01*
X127850000Y-124950000D02*
X127000000Y-124950000D01*
X134050000Y-113350000D02*
X134100000Y-113350000D01*
X134750000Y-113765186D02*
X134800000Y-113765186D01*
X126850000Y-124800000D02*
X126700000Y-124800000D01*
X134400000Y-113500000D02*
X134450000Y-113550000D01*
X134199998Y-113400000D02*
X134250000Y-113450000D01*
X118300000Y-123000000D02*
X118350000Y-122950000D01*
X135863479Y-114725100D02*
X138750000Y-114350000D01*
X135120783Y-113900000D02*
X135125783Y-113900000D01*
X135204650Y-113950000D02*
X135233518Y-114000000D01*
X118871765Y-122250000D02*
X118958368Y-122200000D01*
X128550000Y-125450000D02*
X128500000Y-125450000D01*
X138800000Y-114400000D02*
X138850000Y-114400000D01*
X138850000Y-114400000D02*
X139050000Y-114600000D01*
X127900000Y-125000000D02*
X127850000Y-124950000D01*
X127000000Y-124950000D02*
X126850000Y-124800000D01*
X135695709Y-114675424D02*
X135745709Y-114675424D01*
X134000000Y-113300000D02*
X134050000Y-113350000D01*
X134550000Y-113653926D02*
X134600000Y-113653926D01*
X122750000Y-124750000D02*
X122050000Y-125450000D01*
X134650000Y-113726375D02*
X134700000Y-113726375D01*
X135298278Y-114050000D02*
X135348278Y-114050000D01*
%TO.N,ADC_SCK*%
D16*
X128905926Y-123431214D02*
X130500000Y-123500000D01*
X130500000Y-123500000D02*
X130850000Y-123088857D01*
%TO.N,ADDR0*%
D18*
X127500000Y-123100000D02*
X127075000Y-123530000D01*
X121500000Y-123905000D02*
X121475000Y-125580000D01*
X121000000Y-129330000D02*
X121955491Y-133851014D01*
X122650000Y-127103728D02*
X121000000Y-129330000D01*
X122100000Y-126205000D02*
X122650000Y-126197883D01*
X121475000Y-125580000D02*
X122100000Y-126205000D01*
X121800000Y-123580000D02*
X121500000Y-123905000D01*
X127075000Y-123530000D02*
X121800000Y-123580000D01*
%TO.N,ADDR1*%
X128949999Y-127520000D02*
X128400000Y-128044999D01*
X128400000Y-128044999D02*
X128324999Y-130544999D01*
X130550000Y-126495000D02*
X129525000Y-127520000D01*
X129525000Y-127520000D02*
X128949999Y-127520000D01*
X128324999Y-130544999D02*
X125665348Y-133581268D01*
X131120936Y-124674084D02*
X130550000Y-126495000D01*
%TO.N,ADDR2*%
X121750000Y-115345000D02*
X120800000Y-115370000D01*
X126725000Y-118645000D02*
X126375000Y-117995000D01*
X129249742Y-122316654D02*
X129324999Y-121670000D01*
X125175000Y-130120000D02*
X126400000Y-131330681D01*
X127781445Y-120162460D02*
X126725000Y-118645000D01*
X119367646Y-116129412D02*
X119085625Y-116520000D01*
X118150000Y-123995000D02*
X119029691Y-128312675D01*
X118500000Y-119845000D02*
X117200000Y-121220000D01*
X117200000Y-121220000D02*
X117300000Y-121645000D01*
X126425000Y-131617527D02*
X124532123Y-133599724D01*
X126400000Y-131330681D02*
X126425000Y-131617527D01*
X118397835Y-117895000D02*
X118500000Y-118145000D01*
X124625000Y-128279197D02*
X125175000Y-130120000D01*
X120800000Y-115370000D02*
X119367646Y-116129412D01*
X129324999Y-121670000D02*
X127781445Y-120162460D01*
X117300000Y-121645000D02*
X118150000Y-123995000D01*
X126375000Y-117995000D02*
X125450000Y-116410112D01*
X119085625Y-116520000D02*
X118397835Y-117895000D01*
X122700000Y-114395000D02*
X121750000Y-115345000D01*
X118500000Y-118145000D02*
X118500000Y-119845000D01*
%TO.N,USB_CC_OUT1*%
X130199999Y-120000000D02*
X130199999Y-120300000D01*
X130250000Y-120350000D02*
X130250000Y-120500000D01*
X131300000Y-122400000D02*
X131300000Y-122450000D01*
X131350000Y-122500000D02*
X131350000Y-123936026D01*
X131250000Y-121500000D02*
X131250000Y-122350000D01*
X131350000Y-123936026D02*
X131250000Y-124036026D01*
X129150000Y-118950000D02*
X130199999Y-120000000D01*
X130199999Y-120300000D02*
X130250000Y-120350000D01*
X130250000Y-120500000D02*
X131250000Y-121500000D01*
X131300000Y-122450000D02*
X131350000Y-122500000D01*
X131250000Y-122350000D02*
X131300000Y-122400000D01*
%TO.N,USB_CC_OUT2*%
D16*
X133650000Y-121450000D02*
X133600000Y-121400000D01*
X135350000Y-123200000D02*
X133650000Y-121500000D01*
X133000000Y-120700000D02*
X133000000Y-120650000D01*
X133600000Y-121300000D02*
X133000000Y-120700000D01*
X135400000Y-124980399D02*
X135350000Y-124930399D01*
X133000000Y-120650000D02*
X132949999Y-120600000D01*
X133650000Y-121500000D02*
X133650000Y-121450000D01*
X135350000Y-124930399D02*
X135350000Y-123200000D01*
X133600000Y-121400000D02*
X133600000Y-121300000D01*
X135400000Y-125030399D02*
X135400000Y-124980399D01*
X135700000Y-125300520D02*
X135400000Y-125030399D01*
X132949999Y-120600000D02*
X132949999Y-119600000D01*
X135700000Y-125450520D02*
X135700000Y-125300520D01*
X132949999Y-119600000D02*
X132350000Y-119000000D01*
%TO.N,USB_D_P*%
D18*
X127850000Y-114650000D02*
X127850000Y-114600000D01*
X128050000Y-114250000D02*
X128050000Y-114150000D01*
X126900000Y-117000000D02*
X126950000Y-116950000D01*
X127200000Y-116164419D02*
X127300000Y-116073591D01*
X127350000Y-115994723D02*
X127350000Y-115944723D01*
X127950000Y-114450000D02*
X127950000Y-114400000D01*
X127650000Y-115200000D02*
X127650000Y-115150000D01*
X127300000Y-116073591D02*
X127300000Y-116023591D01*
X127700000Y-115100000D02*
X127700000Y-115050000D01*
X128150000Y-114000000D02*
X128150000Y-113900000D01*
X127400000Y-115900000D02*
X127400000Y-115600000D01*
X127750000Y-115000000D02*
X127750000Y-114950000D01*
X127850000Y-114600000D02*
X127900000Y-114550000D01*
X127800000Y-114900000D02*
X127800000Y-114700000D01*
X128150000Y-113900000D02*
X128200000Y-113850000D01*
X128200000Y-113850000D02*
X128200000Y-113800000D01*
X127350000Y-115944723D02*
X127400000Y-115900000D01*
X126950000Y-116900000D02*
X127000000Y-116850000D01*
X127000000Y-116500000D02*
X127150000Y-116309439D01*
X126950000Y-116950000D02*
X126950000Y-116900000D01*
X127550000Y-115350000D02*
X127600000Y-115300000D01*
X128100000Y-114050000D02*
X128150000Y-114000000D01*
X127200000Y-116214419D02*
X127200000Y-116164419D01*
X127150000Y-116259439D02*
X127200000Y-116214419D01*
X128000000Y-114300000D02*
X128050000Y-114250000D01*
X127600000Y-115300000D02*
X127600000Y-115250000D01*
X127650000Y-115150000D02*
X127700000Y-115100000D01*
X127600000Y-115250000D02*
X127650000Y-115200000D01*
X127500000Y-115450000D02*
X127550000Y-115400000D01*
X128050000Y-114150000D02*
X128100000Y-114100000D01*
X127300000Y-116023591D02*
X127350000Y-115994723D01*
X127700000Y-115050000D02*
X127750000Y-115000000D01*
X128000000Y-114350000D02*
X128000000Y-114300000D01*
X126905926Y-117881214D02*
X126900000Y-117000000D01*
X127400000Y-115600000D02*
X127500000Y-115500000D01*
X127950000Y-114400000D02*
X128000000Y-114350000D01*
X128100000Y-114100000D02*
X128100000Y-114050000D01*
X127800000Y-114700000D02*
X127850000Y-114650000D01*
X127900000Y-114500000D02*
X127950000Y-114450000D01*
X127000000Y-116850000D02*
X127000000Y-116500000D01*
X127750000Y-114950000D02*
X127800000Y-114900000D01*
X127900000Y-114550000D02*
X127900000Y-114500000D01*
X127500000Y-115500000D02*
X127500000Y-115450000D01*
X127150000Y-116309439D02*
X127150000Y-116259439D01*
X127550000Y-115400000D02*
X127550000Y-115350000D01*
%TO.N,+5V*%
D19*
X139550000Y-121750000D02*
X139500000Y-121750000D01*
X154484005Y-131362167D02*
X154534005Y-131312167D01*
X139400000Y-121650000D02*
X139350000Y-121650000D01*
X141050000Y-122350000D02*
X140950000Y-122250000D01*
X140550000Y-122250000D02*
X140400000Y-122100000D01*
X140950000Y-122250000D02*
X140550000Y-122250000D01*
X154384005Y-131412167D02*
X154434005Y-131362167D01*
X155138886Y-131107542D02*
X155138886Y-131057542D01*
X140100000Y-121900000D02*
X140050000Y-121900000D01*
X149522638Y-128680734D02*
X149472638Y-128680734D01*
X136250000Y-120350000D02*
X136200000Y-120300000D01*
X139900000Y-121800000D02*
X139600000Y-121800000D01*
X136700000Y-120550000D02*
X136650000Y-120500000D01*
D17*
X151238161Y-134001154D02*
X151288161Y-134001154D01*
D19*
X137300000Y-120750000D02*
X137250000Y-120750000D01*
X151488161Y-133851154D02*
X152576322Y-131303596D01*
X155269271Y-130668311D02*
X155219271Y-130618311D01*
X149572638Y-128730734D02*
X149522638Y-128680734D01*
X140350000Y-122100000D02*
X140250000Y-122000000D01*
X155012199Y-130366239D02*
X154962199Y-130316239D01*
X136100000Y-120300000D02*
X136050000Y-120250000D01*
X137800000Y-121050000D02*
X137700000Y-120950000D01*
X154879010Y-131297548D02*
X154929010Y-131247548D01*
D17*
X142925000Y-130849350D02*
X147144785Y-130742026D01*
D19*
X137100000Y-120650000D02*
X136900000Y-120650000D01*
X138250000Y-121150000D02*
X138200000Y-121100000D01*
X137250000Y-120750000D02*
X137200000Y-120700000D01*
X136900000Y-120650000D02*
X136850000Y-120600000D01*
X140200000Y-122000000D02*
X140100000Y-121900000D01*
X154897857Y-130316239D02*
X154847857Y-130266239D01*
X141950000Y-122700000D02*
X141900000Y-122700000D01*
X138700000Y-121450000D02*
X138550000Y-121300000D01*
X141100000Y-122350000D02*
X141050000Y-122350000D01*
D17*
X149627638Y-128780733D02*
X152867411Y-127464361D01*
D19*
X136350000Y-120400000D02*
X136300000Y-120350000D01*
X152576322Y-131303596D02*
X154284005Y-131462167D01*
X137550000Y-120900000D02*
X137500000Y-120850000D01*
X136450000Y-120400000D02*
X136350000Y-120400000D01*
D17*
X151188161Y-133951154D02*
X151238161Y-134001154D01*
D19*
X154634005Y-131262167D02*
X154879010Y-131297548D01*
X143700000Y-123271773D02*
X143650000Y-123221773D01*
X154284005Y-131462167D02*
X154334005Y-131412167D01*
X137500000Y-120850000D02*
X137450000Y-120850000D01*
X138300000Y-121150000D02*
X138250000Y-121150000D01*
X155279079Y-130787926D02*
X155229079Y-130737926D01*
X142050000Y-122800000D02*
X141950000Y-122700000D01*
X154934010Y-131247548D02*
X154984010Y-131197548D01*
X136200000Y-120300000D02*
X136100000Y-120300000D01*
X138550000Y-121300000D02*
X138500000Y-121300000D01*
X143100000Y-123242350D02*
X143050000Y-123242350D01*
X136600000Y-120500000D02*
X136550000Y-120450000D01*
X154584005Y-131312167D02*
X154634005Y-131262167D01*
X154847857Y-130266239D02*
X154797857Y-130266239D01*
X137450000Y-120850000D02*
X137400000Y-120800000D01*
D17*
X136624856Y-130346426D02*
X137850000Y-129097289D01*
D19*
X140250000Y-122000000D02*
X140200000Y-122000000D01*
X140400000Y-122100000D02*
X140350000Y-122100000D01*
X136550000Y-120450000D02*
X136500000Y-120450000D01*
X141450000Y-122650000D02*
X141250000Y-122450000D01*
D17*
X147144785Y-130742026D02*
X149472638Y-128680734D01*
X124725116Y-127635949D02*
X127877506Y-130134939D01*
D19*
X137150000Y-120700000D02*
X137100000Y-120650000D01*
X137400000Y-120800000D02*
X137350000Y-120800000D01*
X149472638Y-128680734D02*
X144300000Y-123502713D01*
X143250000Y-123328952D02*
X143100000Y-123242350D01*
X141250000Y-122450000D02*
X141200000Y-122450000D01*
X155017199Y-130366239D02*
X155012199Y-130366239D01*
X139250000Y-121600000D02*
X139150000Y-121500000D01*
X138100000Y-121050000D02*
X137800000Y-121050000D01*
D17*
X153449478Y-127784705D02*
X154797857Y-130266239D01*
D19*
X149577638Y-128730734D02*
X149572638Y-128730734D01*
X141850000Y-122650000D02*
X141450000Y-122650000D01*
D17*
X137850000Y-129097289D02*
X139052782Y-128890251D01*
D19*
X141900000Y-122700000D02*
X141850000Y-122650000D01*
X155229079Y-130737926D02*
X155269271Y-130668311D01*
X140050000Y-121900000D02*
X140000000Y-121850000D01*
X139050000Y-121450000D02*
X138700000Y-121450000D01*
X139150000Y-121500000D02*
X139100000Y-121500000D01*
X138500000Y-121300000D02*
X138450000Y-121250000D01*
X138400000Y-121250000D02*
X138300000Y-121150000D01*
X138450000Y-121250000D02*
X138400000Y-121250000D01*
X155279079Y-130887926D02*
X155279079Y-130787926D01*
X136500000Y-120450000D02*
X136450000Y-120400000D01*
X140000000Y-121850000D02*
X139950000Y-121850000D01*
X139300000Y-121600000D02*
X139250000Y-121600000D01*
X136050000Y-120250000D02*
X136000000Y-120250000D01*
X149627638Y-128780734D02*
X149577638Y-128730734D01*
X155138886Y-131057542D02*
X155188886Y-131007542D01*
X154929010Y-131247548D02*
X154934010Y-131247548D01*
X154962199Y-130316239D02*
X154897857Y-130316239D01*
X141200000Y-122450000D02*
X141100000Y-122350000D01*
X136650000Y-120500000D02*
X136600000Y-120500000D01*
X154434005Y-131362167D02*
X154484005Y-131362167D01*
D17*
X152867411Y-127464361D02*
X153449478Y-127784705D01*
D19*
X142900000Y-123150000D02*
X142800000Y-123050000D01*
X143950000Y-123358375D02*
X143900000Y-123358375D01*
X155229079Y-130937926D02*
X155279079Y-130887926D01*
X142100000Y-122800000D02*
X142050000Y-122800000D01*
X139100000Y-121500000D02*
X139050000Y-121450000D01*
X137700000Y-120950000D02*
X137650000Y-120950000D01*
X142800000Y-123050000D02*
X142350000Y-123050000D01*
X136300000Y-120350000D02*
X136250000Y-120350000D01*
X138200000Y-121100000D02*
X138150000Y-121100000D01*
X137350000Y-120800000D02*
X137300000Y-120750000D01*
D17*
X107761075Y-122376578D02*
X113889909Y-127746205D01*
D19*
X142350000Y-123050000D02*
X142100000Y-122800000D01*
X155188886Y-131007542D02*
X155229079Y-130937926D01*
X139350000Y-121650000D02*
X139300000Y-121600000D01*
X155034010Y-131197548D02*
X155138886Y-131107542D01*
D17*
X151038161Y-133901154D02*
X151088161Y-133951154D01*
X151088161Y-133951154D02*
X151188161Y-133951154D01*
D19*
X142950000Y-123150000D02*
X142900000Y-123150000D01*
X155219271Y-130568311D02*
X155017199Y-130366239D01*
D17*
X139052782Y-128890251D02*
X139556231Y-128287973D01*
D19*
X139500000Y-121750000D02*
X139400000Y-121650000D01*
X154334005Y-131412167D02*
X154384005Y-131412167D01*
X144200000Y-123502713D02*
X143950000Y-123358375D01*
X138150000Y-121100000D02*
X138100000Y-121050000D01*
X143750000Y-123271773D02*
X143700000Y-123271773D01*
X144300000Y-123502713D02*
X144200000Y-123502713D01*
X136750000Y-120550000D02*
X136700000Y-120550000D01*
X136800000Y-120600000D02*
X136750000Y-120550000D01*
X137200000Y-120700000D02*
X137150000Y-120700000D01*
X137650000Y-120950000D02*
X137600000Y-120900000D01*
X143050000Y-123242350D02*
X142950000Y-123150000D01*
X143650000Y-123221773D02*
X143250000Y-123328952D01*
X143900000Y-123358375D02*
X143750000Y-123271773D01*
X137600000Y-120900000D02*
X137550000Y-120900000D01*
X139950000Y-121850000D02*
X139900000Y-121800000D01*
X155219271Y-130618311D02*
X155219271Y-130568311D01*
X136850000Y-120600000D02*
X136800000Y-120600000D01*
X154534005Y-131312167D02*
X154584005Y-131312167D01*
X139600000Y-121800000D02*
X139550000Y-121750000D01*
X154984010Y-131197548D02*
X155034010Y-131197548D01*
%TO.N,AMP_B*%
D16*
X149191555Y-117921977D02*
X149141555Y-117921977D01*
X150850000Y-118543508D02*
X150800000Y-118543508D01*
X151800000Y-118981628D02*
X151750000Y-118931628D01*
X150100000Y-118249033D02*
X150050000Y-118249033D01*
X152353613Y-119450000D02*
X152250000Y-119450000D01*
X152403613Y-119500000D02*
X152353613Y-119450000D01*
X152453613Y-119500000D02*
X152403613Y-119500000D01*
X151250000Y-118743508D02*
X151200000Y-118743508D01*
X150900000Y-118593508D02*
X150850000Y-118543508D01*
X151150000Y-118693508D02*
X151100000Y-118693508D01*
X151350000Y-118794271D02*
X151250000Y-118743508D01*
X150050000Y-118249033D02*
X150000000Y-118199033D01*
X151200000Y-118743508D02*
X151150000Y-118693508D01*
X150000000Y-118199033D02*
X149241555Y-117971977D01*
X150800000Y-118543508D02*
X150750000Y-118493508D01*
X152000000Y-119154833D02*
X151950000Y-119154833D01*
X149141555Y-117921977D02*
X149091555Y-117871977D01*
X150700000Y-118493508D02*
X150650000Y-118443508D01*
X151100000Y-118693508D02*
X151050000Y-118643508D01*
X152100000Y-119204833D02*
X152050000Y-119204833D01*
X151850000Y-118981628D02*
X151800000Y-118981628D01*
X148941555Y-117821977D02*
X148841555Y-117821977D01*
X152250000Y-119450000D02*
X152100000Y-119204833D01*
X150400000Y-118399033D02*
X150350000Y-118399033D01*
X150750000Y-118493508D02*
X150700000Y-118493508D01*
X148991555Y-117871977D02*
X148941555Y-117821977D01*
X151750000Y-118931628D02*
X151700000Y-118931628D01*
X152050000Y-119204833D02*
X152000000Y-119154833D01*
X152553613Y-119600000D02*
X152453613Y-119500000D01*
X150250000Y-118349033D02*
X150200000Y-118299033D01*
X150150000Y-118299033D02*
X150100000Y-118249033D01*
X149241555Y-117971977D02*
X149191555Y-117921977D01*
X150450000Y-118449033D02*
X150400000Y-118399033D01*
X149091555Y-117871977D02*
X148991555Y-117871977D01*
X151700000Y-118931628D02*
X151650000Y-118881628D01*
X150350000Y-118399033D02*
X150300000Y-118349033D01*
X152603613Y-119600000D02*
X152553613Y-119600000D01*
X151000000Y-118643508D02*
X150950000Y-118593508D01*
X151950000Y-119154833D02*
X151850000Y-118981628D01*
X151050000Y-118643508D02*
X151000000Y-118643508D01*
X150200000Y-118299033D02*
X150150000Y-118299033D01*
X150650000Y-118443508D02*
X150450000Y-118449033D01*
X150950000Y-118593508D02*
X150900000Y-118593508D01*
X150300000Y-118349033D02*
X150250000Y-118349033D01*
X151650000Y-118881628D02*
X151350000Y-118794271D01*
%TO.N,USB_CC1*%
D18*
X131675000Y-127772141D02*
X132175000Y-127689410D01*
X131110968Y-126945266D02*
X131675000Y-127772141D01*
X133100000Y-127392591D02*
X133723961Y-127596805D01*
X132175000Y-127689410D02*
X132699999Y-127376806D01*
X132699999Y-127376806D02*
X133100000Y-127392591D01*
%TO.N,USB_CC2*%
X133625652Y-126853224D02*
X131424652Y-126189861D01*
%TO.N,ROW_CLK*%
D16*
X109295000Y-118593799D02*
X107126000Y-118156000D01*
X111853005Y-116586265D02*
X114807000Y-116568000D01*
X111853005Y-116586265D02*
X109295000Y-118593799D01*
X107126000Y-118156000D02*
X106420369Y-117493944D01*
X114807000Y-116568000D02*
X115831452Y-117108000D01*
%TO.N,ROW_LATCH*%
X117154000Y-118999000D02*
X118025308Y-118473822D01*
%TO.N,ROW_8*%
X116977204Y-116963984D02*
X116512521Y-107388313D01*
X116512521Y-107388313D02*
X116206863Y-107230227D01*
X115918038Y-118161000D02*
X116977204Y-116963984D01*
%TO.N,USBC_D_P*%
X130250000Y-115300000D02*
X130300000Y-115350000D01*
X132850000Y-122700000D02*
X132850000Y-122750000D01*
X130100000Y-115000000D02*
X130150000Y-115050000D01*
X132600000Y-122450000D02*
X132850000Y-122700000D01*
X130700000Y-117950000D02*
X130900000Y-118150000D01*
X130550000Y-115850000D02*
X130550000Y-115900000D01*
X134250000Y-125700000D02*
X134875000Y-126325000D01*
X134875000Y-126325000D02*
X134850000Y-127475000D01*
X131050000Y-118400000D02*
X131100000Y-118450000D01*
X130400000Y-115600000D02*
X130450000Y-115650000D01*
X131050000Y-118350000D02*
X131050000Y-118400000D01*
X132900000Y-130892000D02*
X132350000Y-130817000D01*
X130700000Y-116100000D02*
X130700000Y-117950000D01*
X135650000Y-128050000D02*
X137075000Y-126775000D01*
X130250000Y-115250000D02*
X130250000Y-115300000D01*
X133650000Y-124367000D02*
X134250000Y-125700000D01*
X130150000Y-115050000D02*
X130150000Y-115100000D01*
X130000000Y-114750000D02*
X130000000Y-114800000D01*
X131400000Y-119200000D02*
X131400000Y-119700000D01*
X130050000Y-114900000D02*
X130100000Y-114950000D01*
X134850000Y-127475000D02*
X134850000Y-127875000D01*
X130900000Y-118150000D02*
X130900000Y-118200000D01*
X131100000Y-118850000D02*
X131250000Y-119000000D01*
X130450000Y-115650000D02*
X130450000Y-115700000D01*
X130050000Y-114850000D02*
X130050000Y-114900000D01*
X133699999Y-129817000D02*
X133625000Y-130267000D01*
X133300000Y-123700000D02*
X133300000Y-123750000D01*
X130200000Y-115150000D02*
X130200000Y-115200000D01*
X130200000Y-115200000D02*
X130250000Y-115250000D01*
X130400000Y-115550000D02*
X130400000Y-115600000D01*
X133550000Y-124093755D02*
X133550000Y-124143755D01*
X133200000Y-123550000D02*
X133200000Y-123600000D01*
X130350000Y-115500000D02*
X130400000Y-115550000D01*
X132600000Y-122050000D02*
X132600000Y-122450000D01*
X131400000Y-119700000D02*
X131600000Y-119900000D01*
X133400000Y-123947942D02*
X133550000Y-124093755D01*
X131650000Y-121100000D02*
X132600000Y-122050000D01*
X133650000Y-124316960D02*
X133650000Y-124366960D01*
X132950000Y-122900000D02*
X133000000Y-122950000D01*
X132350000Y-130817000D02*
X132100000Y-130792000D01*
X132850000Y-122750000D02*
X132950000Y-122850000D01*
X131650000Y-121050000D02*
X131650000Y-121100000D01*
X130000000Y-114800000D02*
X130050000Y-114850000D01*
X130500000Y-115750000D02*
X130500000Y-115800000D01*
X130450000Y-115700000D02*
X130500000Y-115750000D01*
X133000000Y-123350000D02*
X133200000Y-123550000D01*
X130300000Y-115350000D02*
X130300000Y-115400000D01*
X129950000Y-114700000D02*
X130000000Y-114750000D01*
X130100000Y-114950000D02*
X130100000Y-115000000D01*
X130900000Y-118200000D02*
X131050000Y-118350000D01*
X133550000Y-124143755D02*
X133650000Y-124316960D01*
X131250000Y-119000000D02*
X131250000Y-119050000D01*
X130300000Y-115400000D02*
X130350000Y-115450000D01*
X130150000Y-115100000D02*
X130200000Y-115150000D01*
X134850000Y-127875000D02*
X135275000Y-128175000D01*
X135275000Y-128175000D02*
X133699999Y-129817000D01*
X135275000Y-128175000D02*
X135650000Y-128050000D01*
X131600000Y-119900000D02*
X131600000Y-121000000D01*
X131100000Y-118450000D02*
X131100000Y-118850000D01*
X132950000Y-122850000D02*
X132950000Y-122900000D01*
X130350000Y-115450000D02*
X130350000Y-115500000D01*
X133200000Y-123600000D02*
X133300000Y-123700000D01*
X130650000Y-116000000D02*
X130650000Y-116050000D01*
X133400000Y-123850000D02*
X133400000Y-123947942D01*
X131600000Y-121000000D02*
X131650000Y-121050000D01*
X130650000Y-116050000D02*
X130700000Y-116100000D01*
X133000000Y-122950000D02*
X133000000Y-123350000D01*
X131250000Y-119050000D02*
X131400000Y-119200000D01*
X133300000Y-123750000D02*
X133400000Y-123850000D01*
X130550000Y-115900000D02*
X130650000Y-116000000D01*
X130500000Y-115800000D02*
X130550000Y-115850000D01*
X133625000Y-130267000D02*
X132900000Y-130892000D01*
%TO.N,ROW_16*%
X108704714Y-117261938D02*
X113514634Y-113172000D01*
X113514634Y-113172000D02*
X112089581Y-107331773D01*
%TD*%
M02*
