G04 #@! TF.GenerationSoftware,KiCad,Pcbnew,10.0.5*
G04 #@! TF.CreationDate,2026-08-06T14:06:45-04:00*
G04 #@! TF.ProjectId,Flexitac 2.0,466c6578-6974-4616-9320-322e302e6b69,rev?*
G04 #@! TF.SameCoordinates,Original*
G04 #@! TF.FileFunction,Legend,Top*
G04 #@! TF.FilePolarity,Positive*
%FSLAX46Y46*%
G04 Gerber Fmt 4.6, Leading zero omitted, Abs format (unit mm)*
G04 Created by KiCad (PCBNEW 10.0.5) date 2026-08-06 14:06:45*
%MOMM*%
%LPD*%
G01*
G04 APERTURE LIST*
G04 Aperture macros list*
%AMRoundRect*
0 Rectangle with rounded corners*
0 $1 Rounding radius*
0 $2 $3 $4 $5 $6 $7 $8 $9 X,Y pos of 4 corners*
0 Add a 4 corners polygon primitive as box body*
4,1,4,$2,$3,$4,$5,$6,$7,$8,$9,$2,$3,0*
0 Add four circle primitives for the rounded corners*
1,1,$1+$1,$2,$3*
1,1,$1+$1,$4,$5*
1,1,$1+$1,$6,$7*
1,1,$1+$1,$8,$9*
0 Add four rect primitives between the rounded corners*
20,1,$1+$1,$2,$3,$4,$5,0*
20,1,$1+$1,$4,$5,$6,$7,0*
20,1,$1+$1,$6,$7,$8,$9,0*
20,1,$1+$1,$8,$9,$2,$3,0*%
G04 Aperture macros list end*
%ADD10C,0.110000*%
%ADD11C,0.120000*%
%ADD12C,0.300000*%
%ADD13R,0.300000X1.300000*%
%ADD14R,1.800000X2.200000*%
%ADD15RoundRect,0.100000X-0.637500X-0.100000X0.637500X-0.100000X0.637500X0.100000X-0.637500X0.100000X0*%
%ADD16RoundRect,0.225000X-0.225000X-0.250000X0.225000X-0.250000X0.225000X0.250000X-0.225000X0.250000X0*%
%ADD17R,3.000000X1.700000*%
%ADD18O,3.000000X1.700000*%
%ADD19RoundRect,0.225000X0.250000X-0.225000X0.250000X0.225000X-0.250000X0.225000X-0.250000X-0.225000X0*%
%ADD20RoundRect,0.100000X0.850000X0.100000X-0.850000X0.100000X-0.850000X-0.100000X0.850000X-0.100000X0*%
%ADD21C,2.200000*%
%ADD22RoundRect,0.200000X-0.200000X-0.275000X0.200000X-0.275000X0.200000X0.275000X-0.200000X0.275000X0*%
%ADD23RoundRect,0.100000X-0.850000X-0.100000X0.850000X-0.100000X0.850000X0.100000X-0.850000X0.100000X0*%
%ADD24RoundRect,0.100000X-0.712500X-0.100000X0.712500X-0.100000X0.712500X0.100000X-0.712500X0.100000X0*%
%ADD25RoundRect,0.200000X0.275000X-0.200000X0.275000X0.200000X-0.275000X0.200000X-0.275000X-0.200000X0*%
G04 APERTURE END LIST*
D10*
X138233333Y-137864375D02*
X138233333Y-138435803D01*
X138233333Y-138435803D02*
X138195238Y-138550089D01*
X138195238Y-138550089D02*
X138119047Y-138626280D01*
X138119047Y-138626280D02*
X138004762Y-138664375D01*
X138004762Y-138664375D02*
X137928571Y-138664375D01*
X138576190Y-137940565D02*
X138614286Y-137902470D01*
X138614286Y-137902470D02*
X138690476Y-137864375D01*
X138690476Y-137864375D02*
X138880952Y-137864375D01*
X138880952Y-137864375D02*
X138957143Y-137902470D01*
X138957143Y-137902470D02*
X138995238Y-137940565D01*
X138995238Y-137940565D02*
X139033333Y-138016756D01*
X139033333Y-138016756D02*
X139033333Y-138092946D01*
X139033333Y-138092946D02*
X138995238Y-138207232D01*
X138995238Y-138207232D02*
X138538095Y-138664375D01*
X138538095Y-138664375D02*
X139033333Y-138664375D01*
X107390476Y-116564375D02*
X107390476Y-117211994D01*
X107390476Y-117211994D02*
X107428571Y-117288184D01*
X107428571Y-117288184D02*
X107466666Y-117326280D01*
X107466666Y-117326280D02*
X107542857Y-117364375D01*
X107542857Y-117364375D02*
X107695238Y-117364375D01*
X107695238Y-117364375D02*
X107771428Y-117326280D01*
X107771428Y-117326280D02*
X107809523Y-117288184D01*
X107809523Y-117288184D02*
X107847619Y-117211994D01*
X107847619Y-117211994D02*
X107847619Y-116564375D01*
X108152380Y-116564375D02*
X108647618Y-116564375D01*
X108647618Y-116564375D02*
X108380952Y-116869137D01*
X108380952Y-116869137D02*
X108495237Y-116869137D01*
X108495237Y-116869137D02*
X108571428Y-116907232D01*
X108571428Y-116907232D02*
X108609523Y-116945327D01*
X108609523Y-116945327D02*
X108647618Y-117021518D01*
X108647618Y-117021518D02*
X108647618Y-117211994D01*
X108647618Y-117211994D02*
X108609523Y-117288184D01*
X108609523Y-117288184D02*
X108571428Y-117326280D01*
X108571428Y-117326280D02*
X108495237Y-117364375D01*
X108495237Y-117364375D02*
X108266666Y-117364375D01*
X108266666Y-117364375D02*
X108190475Y-117326280D01*
X108190475Y-117326280D02*
X108152380Y-117288184D01*
X113233333Y-137864375D02*
X113233333Y-138435803D01*
X113233333Y-138435803D02*
X113195238Y-138550089D01*
X113195238Y-138550089D02*
X113119047Y-138626280D01*
X113119047Y-138626280D02*
X113004762Y-138664375D01*
X113004762Y-138664375D02*
X112928571Y-138664375D01*
X114033333Y-138664375D02*
X113576190Y-138664375D01*
X113804762Y-138664375D02*
X113804762Y-137864375D01*
X113804762Y-137864375D02*
X113728571Y-137978660D01*
X113728571Y-137978660D02*
X113652381Y-138054851D01*
X113652381Y-138054851D02*
X113576190Y-138092946D01*
X102866667Y-121858184D02*
X102828571Y-121896280D01*
X102828571Y-121896280D02*
X102714286Y-121934375D01*
X102714286Y-121934375D02*
X102638095Y-121934375D01*
X102638095Y-121934375D02*
X102523809Y-121896280D01*
X102523809Y-121896280D02*
X102447619Y-121820089D01*
X102447619Y-121820089D02*
X102409524Y-121743899D01*
X102409524Y-121743899D02*
X102371428Y-121591518D01*
X102371428Y-121591518D02*
X102371428Y-121477232D01*
X102371428Y-121477232D02*
X102409524Y-121324851D01*
X102409524Y-121324851D02*
X102447619Y-121248660D01*
X102447619Y-121248660D02*
X102523809Y-121172470D01*
X102523809Y-121172470D02*
X102638095Y-121134375D01*
X102638095Y-121134375D02*
X102714286Y-121134375D01*
X102714286Y-121134375D02*
X102828571Y-121172470D01*
X102828571Y-121172470D02*
X102866667Y-121210565D01*
X103590476Y-121134375D02*
X103209524Y-121134375D01*
X103209524Y-121134375D02*
X103171428Y-121515327D01*
X103171428Y-121515327D02*
X103209524Y-121477232D01*
X103209524Y-121477232D02*
X103285714Y-121439137D01*
X103285714Y-121439137D02*
X103476190Y-121439137D01*
X103476190Y-121439137D02*
X103552381Y-121477232D01*
X103552381Y-121477232D02*
X103590476Y-121515327D01*
X103590476Y-121515327D02*
X103628571Y-121591518D01*
X103628571Y-121591518D02*
X103628571Y-121781994D01*
X103628571Y-121781994D02*
X103590476Y-121858184D01*
X103590476Y-121858184D02*
X103552381Y-121896280D01*
X103552381Y-121896280D02*
X103476190Y-121934375D01*
X103476190Y-121934375D02*
X103285714Y-121934375D01*
X103285714Y-121934375D02*
X103209524Y-121896280D01*
X103209524Y-121896280D02*
X103171428Y-121858184D01*
X138428571Y-104235803D02*
X138809524Y-104235803D01*
X138352381Y-104464375D02*
X138619048Y-103664375D01*
X138619048Y-103664375D02*
X138885714Y-104464375D01*
X139571428Y-104464375D02*
X139114285Y-104464375D01*
X139342857Y-104464375D02*
X139342857Y-103664375D01*
X139342857Y-103664375D02*
X139266666Y-103778660D01*
X139266666Y-103778660D02*
X139190476Y-103854851D01*
X139190476Y-103854851D02*
X139114285Y-103892946D01*
D11*
X137095238Y-106563855D02*
X137095238Y-107211474D01*
X137095238Y-107211474D02*
X137133333Y-107287664D01*
X137133333Y-107287664D02*
X137171428Y-107325760D01*
X137171428Y-107325760D02*
X137247619Y-107363855D01*
X137247619Y-107363855D02*
X137400000Y-107363855D01*
X137400000Y-107363855D02*
X137476190Y-107325760D01*
X137476190Y-107325760D02*
X137514285Y-107287664D01*
X137514285Y-107287664D02*
X137552381Y-107211474D01*
X137552381Y-107211474D02*
X137552381Y-106563855D01*
X137895237Y-107325760D02*
X138009523Y-107363855D01*
X138009523Y-107363855D02*
X138199999Y-107363855D01*
X138199999Y-107363855D02*
X138276190Y-107325760D01*
X138276190Y-107325760D02*
X138314285Y-107287664D01*
X138314285Y-107287664D02*
X138352380Y-107211474D01*
X138352380Y-107211474D02*
X138352380Y-107135283D01*
X138352380Y-107135283D02*
X138314285Y-107059093D01*
X138314285Y-107059093D02*
X138276190Y-107020998D01*
X138276190Y-107020998D02*
X138199999Y-106982902D01*
X138199999Y-106982902D02*
X138047618Y-106944807D01*
X138047618Y-106944807D02*
X137971428Y-106906712D01*
X137971428Y-106906712D02*
X137933333Y-106868617D01*
X137933333Y-106868617D02*
X137895237Y-106792426D01*
X137895237Y-106792426D02*
X137895237Y-106716236D01*
X137895237Y-106716236D02*
X137933333Y-106640045D01*
X137933333Y-106640045D02*
X137971428Y-106601950D01*
X137971428Y-106601950D02*
X138047618Y-106563855D01*
X138047618Y-106563855D02*
X138238095Y-106563855D01*
X138238095Y-106563855D02*
X138352380Y-106601950D01*
X138961904Y-106944807D02*
X139076190Y-106982902D01*
X139076190Y-106982902D02*
X139114285Y-107020998D01*
X139114285Y-107020998D02*
X139152381Y-107097188D01*
X139152381Y-107097188D02*
X139152381Y-107211474D01*
X139152381Y-107211474D02*
X139114285Y-107287664D01*
X139114285Y-107287664D02*
X139076190Y-107325760D01*
X139076190Y-107325760D02*
X139000000Y-107363855D01*
X139000000Y-107363855D02*
X138695238Y-107363855D01*
X138695238Y-107363855D02*
X138695238Y-106563855D01*
X138695238Y-106563855D02*
X138961904Y-106563855D01*
X138961904Y-106563855D02*
X139038095Y-106601950D01*
X139038095Y-106601950D02*
X139076190Y-106640045D01*
X139076190Y-106640045D02*
X139114285Y-106716236D01*
X139114285Y-106716236D02*
X139114285Y-106792426D01*
X139114285Y-106792426D02*
X139076190Y-106868617D01*
X139076190Y-106868617D02*
X139038095Y-106906712D01*
X139038095Y-106906712D02*
X138961904Y-106944807D01*
X138961904Y-106944807D02*
X138695238Y-106944807D01*
X139495238Y-107059093D02*
X140104762Y-107059093D01*
X140942857Y-107287664D02*
X140904761Y-107325760D01*
X140904761Y-107325760D02*
X140790476Y-107363855D01*
X140790476Y-107363855D02*
X140714285Y-107363855D01*
X140714285Y-107363855D02*
X140599999Y-107325760D01*
X140599999Y-107325760D02*
X140523809Y-107249569D01*
X140523809Y-107249569D02*
X140485714Y-107173379D01*
X140485714Y-107173379D02*
X140447618Y-107020998D01*
X140447618Y-107020998D02*
X140447618Y-106906712D01*
X140447618Y-106906712D02*
X140485714Y-106754331D01*
X140485714Y-106754331D02*
X140523809Y-106678140D01*
X140523809Y-106678140D02*
X140599999Y-106601950D01*
X140599999Y-106601950D02*
X140714285Y-106563855D01*
X140714285Y-106563855D02*
X140790476Y-106563855D01*
X140790476Y-106563855D02*
X140904761Y-106601950D01*
X140904761Y-106601950D02*
X140942857Y-106640045D01*
D10*
X127866667Y-106788184D02*
X127828571Y-106826280D01*
X127828571Y-106826280D02*
X127714286Y-106864375D01*
X127714286Y-106864375D02*
X127638095Y-106864375D01*
X127638095Y-106864375D02*
X127523809Y-106826280D01*
X127523809Y-106826280D02*
X127447619Y-106750089D01*
X127447619Y-106750089D02*
X127409524Y-106673899D01*
X127409524Y-106673899D02*
X127371428Y-106521518D01*
X127371428Y-106521518D02*
X127371428Y-106407232D01*
X127371428Y-106407232D02*
X127409524Y-106254851D01*
X127409524Y-106254851D02*
X127447619Y-106178660D01*
X127447619Y-106178660D02*
X127523809Y-106102470D01*
X127523809Y-106102470D02*
X127638095Y-106064375D01*
X127638095Y-106064375D02*
X127714286Y-106064375D01*
X127714286Y-106064375D02*
X127828571Y-106102470D01*
X127828571Y-106102470D02*
X127866667Y-106140565D01*
X128133333Y-106064375D02*
X128628571Y-106064375D01*
X128628571Y-106064375D02*
X128361905Y-106369137D01*
X128361905Y-106369137D02*
X128476190Y-106369137D01*
X128476190Y-106369137D02*
X128552381Y-106407232D01*
X128552381Y-106407232D02*
X128590476Y-106445327D01*
X128590476Y-106445327D02*
X128628571Y-106521518D01*
X128628571Y-106521518D02*
X128628571Y-106711994D01*
X128628571Y-106711994D02*
X128590476Y-106788184D01*
X128590476Y-106788184D02*
X128552381Y-106826280D01*
X128552381Y-106826280D02*
X128476190Y-106864375D01*
X128476190Y-106864375D02*
X128247619Y-106864375D01*
X128247619Y-106864375D02*
X128171428Y-106826280D01*
X128171428Y-106826280D02*
X128133333Y-106788184D01*
X126366667Y-128858184D02*
X126328571Y-128896280D01*
X126328571Y-128896280D02*
X126214286Y-128934375D01*
X126214286Y-128934375D02*
X126138095Y-128934375D01*
X126138095Y-128934375D02*
X126023809Y-128896280D01*
X126023809Y-128896280D02*
X125947619Y-128820089D01*
X125947619Y-128820089D02*
X125909524Y-128743899D01*
X125909524Y-128743899D02*
X125871428Y-128591518D01*
X125871428Y-128591518D02*
X125871428Y-128477232D01*
X125871428Y-128477232D02*
X125909524Y-128324851D01*
X125909524Y-128324851D02*
X125947619Y-128248660D01*
X125947619Y-128248660D02*
X126023809Y-128172470D01*
X126023809Y-128172470D02*
X126138095Y-128134375D01*
X126138095Y-128134375D02*
X126214286Y-128134375D01*
X126214286Y-128134375D02*
X126328571Y-128172470D01*
X126328571Y-128172470D02*
X126366667Y-128210565D01*
X127052381Y-128134375D02*
X126900000Y-128134375D01*
X126900000Y-128134375D02*
X126823809Y-128172470D01*
X126823809Y-128172470D02*
X126785714Y-128210565D01*
X126785714Y-128210565D02*
X126709524Y-128324851D01*
X126709524Y-128324851D02*
X126671428Y-128477232D01*
X126671428Y-128477232D02*
X126671428Y-128781994D01*
X126671428Y-128781994D02*
X126709524Y-128858184D01*
X126709524Y-128858184D02*
X126747619Y-128896280D01*
X126747619Y-128896280D02*
X126823809Y-128934375D01*
X126823809Y-128934375D02*
X126976190Y-128934375D01*
X126976190Y-128934375D02*
X127052381Y-128896280D01*
X127052381Y-128896280D02*
X127090476Y-128858184D01*
X127090476Y-128858184D02*
X127128571Y-128781994D01*
X127128571Y-128781994D02*
X127128571Y-128591518D01*
X127128571Y-128591518D02*
X127090476Y-128515327D01*
X127090476Y-128515327D02*
X127052381Y-128477232D01*
X127052381Y-128477232D02*
X126976190Y-128439137D01*
X126976190Y-128439137D02*
X126823809Y-128439137D01*
X126823809Y-128439137D02*
X126747619Y-128477232D01*
X126747619Y-128477232D02*
X126709524Y-128515327D01*
X126709524Y-128515327D02*
X126671428Y-128591518D01*
X106390476Y-130064375D02*
X106390476Y-130711994D01*
X106390476Y-130711994D02*
X106428571Y-130788184D01*
X106428571Y-130788184D02*
X106466666Y-130826280D01*
X106466666Y-130826280D02*
X106542857Y-130864375D01*
X106542857Y-130864375D02*
X106695238Y-130864375D01*
X106695238Y-130864375D02*
X106771428Y-130826280D01*
X106771428Y-130826280D02*
X106809523Y-130788184D01*
X106809523Y-130788184D02*
X106847619Y-130711994D01*
X106847619Y-130711994D02*
X106847619Y-130064375D01*
X107609523Y-130064375D02*
X107228571Y-130064375D01*
X107228571Y-130064375D02*
X107190475Y-130445327D01*
X107190475Y-130445327D02*
X107228571Y-130407232D01*
X107228571Y-130407232D02*
X107304761Y-130369137D01*
X107304761Y-130369137D02*
X107495237Y-130369137D01*
X107495237Y-130369137D02*
X107571428Y-130407232D01*
X107571428Y-130407232D02*
X107609523Y-130445327D01*
X107609523Y-130445327D02*
X107647618Y-130521518D01*
X107647618Y-130521518D02*
X107647618Y-130711994D01*
X107647618Y-130711994D02*
X107609523Y-130788184D01*
X107609523Y-130788184D02*
X107571428Y-130826280D01*
X107571428Y-130826280D02*
X107495237Y-130864375D01*
X107495237Y-130864375D02*
X107304761Y-130864375D01*
X107304761Y-130864375D02*
X107228571Y-130826280D01*
X107228571Y-130826280D02*
X107190475Y-130788184D01*
X117890476Y-116564375D02*
X117890476Y-117211994D01*
X117890476Y-117211994D02*
X117928571Y-117288184D01*
X117928571Y-117288184D02*
X117966666Y-117326280D01*
X117966666Y-117326280D02*
X118042857Y-117364375D01*
X118042857Y-117364375D02*
X118195238Y-117364375D01*
X118195238Y-117364375D02*
X118271428Y-117326280D01*
X118271428Y-117326280D02*
X118309523Y-117288184D01*
X118309523Y-117288184D02*
X118347619Y-117211994D01*
X118347619Y-117211994D02*
X118347619Y-116564375D01*
X119071428Y-116831041D02*
X119071428Y-117364375D01*
X118880952Y-116526280D02*
X118690475Y-117097708D01*
X118690475Y-117097708D02*
X119185714Y-117097708D01*
X117866667Y-121288184D02*
X117828571Y-121326280D01*
X117828571Y-121326280D02*
X117714286Y-121364375D01*
X117714286Y-121364375D02*
X117638095Y-121364375D01*
X117638095Y-121364375D02*
X117523809Y-121326280D01*
X117523809Y-121326280D02*
X117447619Y-121250089D01*
X117447619Y-121250089D02*
X117409524Y-121173899D01*
X117409524Y-121173899D02*
X117371428Y-121021518D01*
X117371428Y-121021518D02*
X117371428Y-120907232D01*
X117371428Y-120907232D02*
X117409524Y-120754851D01*
X117409524Y-120754851D02*
X117447619Y-120678660D01*
X117447619Y-120678660D02*
X117523809Y-120602470D01*
X117523809Y-120602470D02*
X117638095Y-120564375D01*
X117638095Y-120564375D02*
X117714286Y-120564375D01*
X117714286Y-120564375D02*
X117828571Y-120602470D01*
X117828571Y-120602470D02*
X117866667Y-120640565D01*
X118247619Y-121364375D02*
X118400000Y-121364375D01*
X118400000Y-121364375D02*
X118476190Y-121326280D01*
X118476190Y-121326280D02*
X118514286Y-121288184D01*
X118514286Y-121288184D02*
X118590476Y-121173899D01*
X118590476Y-121173899D02*
X118628571Y-121021518D01*
X118628571Y-121021518D02*
X118628571Y-120716756D01*
X118628571Y-120716756D02*
X118590476Y-120640565D01*
X118590476Y-120640565D02*
X118552381Y-120602470D01*
X118552381Y-120602470D02*
X118476190Y-120564375D01*
X118476190Y-120564375D02*
X118323809Y-120564375D01*
X118323809Y-120564375D02*
X118247619Y-120602470D01*
X118247619Y-120602470D02*
X118209524Y-120640565D01*
X118209524Y-120640565D02*
X118171428Y-120716756D01*
X118171428Y-120716756D02*
X118171428Y-120907232D01*
X118171428Y-120907232D02*
X118209524Y-120983422D01*
X118209524Y-120983422D02*
X118247619Y-121021518D01*
X118247619Y-121021518D02*
X118323809Y-121059613D01*
X118323809Y-121059613D02*
X118476190Y-121059613D01*
X118476190Y-121059613D02*
X118552381Y-121021518D01*
X118552381Y-121021518D02*
X118590476Y-120983422D01*
X118590476Y-120983422D02*
X118628571Y-120907232D01*
X125866667Y-122934375D02*
X125600000Y-122553422D01*
X125409524Y-122934375D02*
X125409524Y-122134375D01*
X125409524Y-122134375D02*
X125714286Y-122134375D01*
X125714286Y-122134375D02*
X125790476Y-122172470D01*
X125790476Y-122172470D02*
X125828571Y-122210565D01*
X125828571Y-122210565D02*
X125866667Y-122286756D01*
X125866667Y-122286756D02*
X125866667Y-122401041D01*
X125866667Y-122401041D02*
X125828571Y-122477232D01*
X125828571Y-122477232D02*
X125790476Y-122515327D01*
X125790476Y-122515327D02*
X125714286Y-122553422D01*
X125714286Y-122553422D02*
X125409524Y-122553422D01*
X126552381Y-122401041D02*
X126552381Y-122934375D01*
X126361905Y-122096280D02*
X126171428Y-122667708D01*
X126171428Y-122667708D02*
X126666667Y-122667708D01*
X119390476Y-130064375D02*
X119390476Y-130711994D01*
X119390476Y-130711994D02*
X119428571Y-130788184D01*
X119428571Y-130788184D02*
X119466666Y-130826280D01*
X119466666Y-130826280D02*
X119542857Y-130864375D01*
X119542857Y-130864375D02*
X119695238Y-130864375D01*
X119695238Y-130864375D02*
X119771428Y-130826280D01*
X119771428Y-130826280D02*
X119809523Y-130788184D01*
X119809523Y-130788184D02*
X119847619Y-130711994D01*
X119847619Y-130711994D02*
X119847619Y-130064375D01*
X120571428Y-130064375D02*
X120419047Y-130064375D01*
X120419047Y-130064375D02*
X120342856Y-130102470D01*
X120342856Y-130102470D02*
X120304761Y-130140565D01*
X120304761Y-130140565D02*
X120228571Y-130254851D01*
X120228571Y-130254851D02*
X120190475Y-130407232D01*
X120190475Y-130407232D02*
X120190475Y-130711994D01*
X120190475Y-130711994D02*
X120228571Y-130788184D01*
X120228571Y-130788184D02*
X120266666Y-130826280D01*
X120266666Y-130826280D02*
X120342856Y-130864375D01*
X120342856Y-130864375D02*
X120495237Y-130864375D01*
X120495237Y-130864375D02*
X120571428Y-130826280D01*
X120571428Y-130826280D02*
X120609523Y-130788184D01*
X120609523Y-130788184D02*
X120647618Y-130711994D01*
X120647618Y-130711994D02*
X120647618Y-130521518D01*
X120647618Y-130521518D02*
X120609523Y-130445327D01*
X120609523Y-130445327D02*
X120571428Y-130407232D01*
X120571428Y-130407232D02*
X120495237Y-130369137D01*
X120495237Y-130369137D02*
X120342856Y-130369137D01*
X120342856Y-130369137D02*
X120266666Y-130407232D01*
X120266666Y-130407232D02*
X120228571Y-130445327D01*
X120228571Y-130445327D02*
X120190475Y-130521518D01*
X106866667Y-121934375D02*
X106600000Y-121553422D01*
X106409524Y-121934375D02*
X106409524Y-121134375D01*
X106409524Y-121134375D02*
X106714286Y-121134375D01*
X106714286Y-121134375D02*
X106790476Y-121172470D01*
X106790476Y-121172470D02*
X106828571Y-121210565D01*
X106828571Y-121210565D02*
X106866667Y-121286756D01*
X106866667Y-121286756D02*
X106866667Y-121401041D01*
X106866667Y-121401041D02*
X106828571Y-121477232D01*
X106828571Y-121477232D02*
X106790476Y-121515327D01*
X106790476Y-121515327D02*
X106714286Y-121553422D01*
X106714286Y-121553422D02*
X106409524Y-121553422D01*
X107628571Y-121934375D02*
X107171428Y-121934375D01*
X107400000Y-121934375D02*
X107400000Y-121134375D01*
X107400000Y-121134375D02*
X107323809Y-121248660D01*
X107323809Y-121248660D02*
X107247619Y-121324851D01*
X107247619Y-121324851D02*
X107171428Y-121362946D01*
X113390476Y-123564375D02*
X113390476Y-124211994D01*
X113390476Y-124211994D02*
X113428571Y-124288184D01*
X113428571Y-124288184D02*
X113466666Y-124326280D01*
X113466666Y-124326280D02*
X113542857Y-124364375D01*
X113542857Y-124364375D02*
X113695238Y-124364375D01*
X113695238Y-124364375D02*
X113771428Y-124326280D01*
X113771428Y-124326280D02*
X113809523Y-124288184D01*
X113809523Y-124288184D02*
X113847619Y-124211994D01*
X113847619Y-124211994D02*
X113847619Y-123564375D01*
X114152380Y-123564375D02*
X114685714Y-123564375D01*
X114685714Y-123564375D02*
X114342856Y-124364375D01*
X122366667Y-124964375D02*
X122100000Y-124583422D01*
X121909524Y-124964375D02*
X121909524Y-124164375D01*
X121909524Y-124164375D02*
X122214286Y-124164375D01*
X122214286Y-124164375D02*
X122290476Y-124202470D01*
X122290476Y-124202470D02*
X122328571Y-124240565D01*
X122328571Y-124240565D02*
X122366667Y-124316756D01*
X122366667Y-124316756D02*
X122366667Y-124431041D01*
X122366667Y-124431041D02*
X122328571Y-124507232D01*
X122328571Y-124507232D02*
X122290476Y-124545327D01*
X122290476Y-124545327D02*
X122214286Y-124583422D01*
X122214286Y-124583422D02*
X121909524Y-124583422D01*
X122671428Y-124240565D02*
X122709524Y-124202470D01*
X122709524Y-124202470D02*
X122785714Y-124164375D01*
X122785714Y-124164375D02*
X122976190Y-124164375D01*
X122976190Y-124164375D02*
X123052381Y-124202470D01*
X123052381Y-124202470D02*
X123090476Y-124240565D01*
X123090476Y-124240565D02*
X123128571Y-124316756D01*
X123128571Y-124316756D02*
X123128571Y-124392946D01*
X123128571Y-124392946D02*
X123090476Y-124507232D01*
X123090476Y-124507232D02*
X122633333Y-124964375D01*
X122633333Y-124964375D02*
X123128571Y-124964375D01*
X127866667Y-119288184D02*
X127828571Y-119326280D01*
X127828571Y-119326280D02*
X127714286Y-119364375D01*
X127714286Y-119364375D02*
X127638095Y-119364375D01*
X127638095Y-119364375D02*
X127523809Y-119326280D01*
X127523809Y-119326280D02*
X127447619Y-119250089D01*
X127447619Y-119250089D02*
X127409524Y-119173899D01*
X127409524Y-119173899D02*
X127371428Y-119021518D01*
X127371428Y-119021518D02*
X127371428Y-118907232D01*
X127371428Y-118907232D02*
X127409524Y-118754851D01*
X127409524Y-118754851D02*
X127447619Y-118678660D01*
X127447619Y-118678660D02*
X127523809Y-118602470D01*
X127523809Y-118602470D02*
X127638095Y-118564375D01*
X127638095Y-118564375D02*
X127714286Y-118564375D01*
X127714286Y-118564375D02*
X127828571Y-118602470D01*
X127828571Y-118602470D02*
X127866667Y-118640565D01*
X128552381Y-118831041D02*
X128552381Y-119364375D01*
X128361905Y-118526280D02*
X128171428Y-119097708D01*
X128171428Y-119097708D02*
X128666667Y-119097708D01*
X112184375Y-113133332D02*
X111803422Y-113399999D01*
X112184375Y-113590475D02*
X111384375Y-113590475D01*
X111384375Y-113590475D02*
X111384375Y-113285713D01*
X111384375Y-113285713D02*
X111422470Y-113209523D01*
X111422470Y-113209523D02*
X111460565Y-113171428D01*
X111460565Y-113171428D02*
X111536756Y-113133332D01*
X111536756Y-113133332D02*
X111651041Y-113133332D01*
X111651041Y-113133332D02*
X111727232Y-113171428D01*
X111727232Y-113171428D02*
X111765327Y-113209523D01*
X111765327Y-113209523D02*
X111803422Y-113285713D01*
X111803422Y-113285713D02*
X111803422Y-113590475D01*
X111384375Y-112409523D02*
X111384375Y-112790475D01*
X111384375Y-112790475D02*
X111765327Y-112828571D01*
X111765327Y-112828571D02*
X111727232Y-112790475D01*
X111727232Y-112790475D02*
X111689137Y-112714285D01*
X111689137Y-112714285D02*
X111689137Y-112523809D01*
X111689137Y-112523809D02*
X111727232Y-112447618D01*
X111727232Y-112447618D02*
X111765327Y-112409523D01*
X111765327Y-112409523D02*
X111841518Y-112371428D01*
X111841518Y-112371428D02*
X112031994Y-112371428D01*
X112031994Y-112371428D02*
X112108184Y-112409523D01*
X112108184Y-112409523D02*
X112146280Y-112447618D01*
X112146280Y-112447618D02*
X112184375Y-112523809D01*
X112184375Y-112523809D02*
X112184375Y-112714285D01*
X112184375Y-112714285D02*
X112146280Y-112790475D01*
X112146280Y-112790475D02*
X112108184Y-112828571D01*
X109866667Y-121088184D02*
X109828571Y-121126280D01*
X109828571Y-121126280D02*
X109714286Y-121164375D01*
X109714286Y-121164375D02*
X109638095Y-121164375D01*
X109638095Y-121164375D02*
X109523809Y-121126280D01*
X109523809Y-121126280D02*
X109447619Y-121050089D01*
X109447619Y-121050089D02*
X109409524Y-120973899D01*
X109409524Y-120973899D02*
X109371428Y-120821518D01*
X109371428Y-120821518D02*
X109371428Y-120707232D01*
X109371428Y-120707232D02*
X109409524Y-120554851D01*
X109409524Y-120554851D02*
X109447619Y-120478660D01*
X109447619Y-120478660D02*
X109523809Y-120402470D01*
X109523809Y-120402470D02*
X109638095Y-120364375D01*
X109638095Y-120364375D02*
X109714286Y-120364375D01*
X109714286Y-120364375D02*
X109828571Y-120402470D01*
X109828571Y-120402470D02*
X109866667Y-120440565D01*
X110171428Y-120440565D02*
X110209524Y-120402470D01*
X110209524Y-120402470D02*
X110285714Y-120364375D01*
X110285714Y-120364375D02*
X110476190Y-120364375D01*
X110476190Y-120364375D02*
X110552381Y-120402470D01*
X110552381Y-120402470D02*
X110590476Y-120440565D01*
X110590476Y-120440565D02*
X110628571Y-120516756D01*
X110628571Y-120516756D02*
X110628571Y-120592946D01*
X110628571Y-120592946D02*
X110590476Y-120707232D01*
X110590476Y-120707232D02*
X110133333Y-121164375D01*
X110133333Y-121164375D02*
X110628571Y-121164375D01*
X107390476Y-108564375D02*
X107390476Y-109211994D01*
X107390476Y-109211994D02*
X107428571Y-109288184D01*
X107428571Y-109288184D02*
X107466666Y-109326280D01*
X107466666Y-109326280D02*
X107542857Y-109364375D01*
X107542857Y-109364375D02*
X107695238Y-109364375D01*
X107695238Y-109364375D02*
X107771428Y-109326280D01*
X107771428Y-109326280D02*
X107809523Y-109288184D01*
X107809523Y-109288184D02*
X107847619Y-109211994D01*
X107847619Y-109211994D02*
X107847619Y-108564375D01*
X108647618Y-109364375D02*
X108190475Y-109364375D01*
X108419047Y-109364375D02*
X108419047Y-108564375D01*
X108419047Y-108564375D02*
X108342856Y-108678660D01*
X108342856Y-108678660D02*
X108266666Y-108754851D01*
X108266666Y-108754851D02*
X108190475Y-108792946D01*
X108866667Y-104888184D02*
X108828571Y-104926280D01*
X108828571Y-104926280D02*
X108714286Y-104964375D01*
X108714286Y-104964375D02*
X108638095Y-104964375D01*
X108638095Y-104964375D02*
X108523809Y-104926280D01*
X108523809Y-104926280D02*
X108447619Y-104850089D01*
X108447619Y-104850089D02*
X108409524Y-104773899D01*
X108409524Y-104773899D02*
X108371428Y-104621518D01*
X108371428Y-104621518D02*
X108371428Y-104507232D01*
X108371428Y-104507232D02*
X108409524Y-104354851D01*
X108409524Y-104354851D02*
X108447619Y-104278660D01*
X108447619Y-104278660D02*
X108523809Y-104202470D01*
X108523809Y-104202470D02*
X108638095Y-104164375D01*
X108638095Y-104164375D02*
X108714286Y-104164375D01*
X108714286Y-104164375D02*
X108828571Y-104202470D01*
X108828571Y-104202470D02*
X108866667Y-104240565D01*
X109628571Y-104964375D02*
X109171428Y-104964375D01*
X109400000Y-104964375D02*
X109400000Y-104164375D01*
X109400000Y-104164375D02*
X109323809Y-104278660D01*
X109323809Y-104278660D02*
X109247619Y-104354851D01*
X109247619Y-104354851D02*
X109171428Y-104392946D01*
X123866667Y-119934375D02*
X123600000Y-119553422D01*
X123409524Y-119934375D02*
X123409524Y-119134375D01*
X123409524Y-119134375D02*
X123714286Y-119134375D01*
X123714286Y-119134375D02*
X123790476Y-119172470D01*
X123790476Y-119172470D02*
X123828571Y-119210565D01*
X123828571Y-119210565D02*
X123866667Y-119286756D01*
X123866667Y-119286756D02*
X123866667Y-119401041D01*
X123866667Y-119401041D02*
X123828571Y-119477232D01*
X123828571Y-119477232D02*
X123790476Y-119515327D01*
X123790476Y-119515327D02*
X123714286Y-119553422D01*
X123714286Y-119553422D02*
X123409524Y-119553422D01*
X124133333Y-119134375D02*
X124628571Y-119134375D01*
X124628571Y-119134375D02*
X124361905Y-119439137D01*
X124361905Y-119439137D02*
X124476190Y-119439137D01*
X124476190Y-119439137D02*
X124552381Y-119477232D01*
X124552381Y-119477232D02*
X124590476Y-119515327D01*
X124590476Y-119515327D02*
X124628571Y-119591518D01*
X124628571Y-119591518D02*
X124628571Y-119781994D01*
X124628571Y-119781994D02*
X124590476Y-119858184D01*
X124590476Y-119858184D02*
X124552381Y-119896280D01*
X124552381Y-119896280D02*
X124476190Y-119934375D01*
X124476190Y-119934375D02*
X124247619Y-119934375D01*
X124247619Y-119934375D02*
X124171428Y-119896280D01*
X124171428Y-119896280D02*
X124133333Y-119858184D01*
X113866667Y-119858184D02*
X113828571Y-119896280D01*
X113828571Y-119896280D02*
X113714286Y-119934375D01*
X113714286Y-119934375D02*
X113638095Y-119934375D01*
X113638095Y-119934375D02*
X113523809Y-119896280D01*
X113523809Y-119896280D02*
X113447619Y-119820089D01*
X113447619Y-119820089D02*
X113409524Y-119743899D01*
X113409524Y-119743899D02*
X113371428Y-119591518D01*
X113371428Y-119591518D02*
X113371428Y-119477232D01*
X113371428Y-119477232D02*
X113409524Y-119324851D01*
X113409524Y-119324851D02*
X113447619Y-119248660D01*
X113447619Y-119248660D02*
X113523809Y-119172470D01*
X113523809Y-119172470D02*
X113638095Y-119134375D01*
X113638095Y-119134375D02*
X113714286Y-119134375D01*
X113714286Y-119134375D02*
X113828571Y-119172470D01*
X113828571Y-119172470D02*
X113866667Y-119210565D01*
X114133333Y-119134375D02*
X114666667Y-119134375D01*
X114666667Y-119134375D02*
X114323809Y-119934375D01*
X117890476Y-108564375D02*
X117890476Y-109211994D01*
X117890476Y-109211994D02*
X117928571Y-109288184D01*
X117928571Y-109288184D02*
X117966666Y-109326280D01*
X117966666Y-109326280D02*
X118042857Y-109364375D01*
X118042857Y-109364375D02*
X118195238Y-109364375D01*
X118195238Y-109364375D02*
X118271428Y-109326280D01*
X118271428Y-109326280D02*
X118309523Y-109288184D01*
X118309523Y-109288184D02*
X118347619Y-109211994D01*
X118347619Y-109211994D02*
X118347619Y-108564375D01*
X118690475Y-108640565D02*
X118728571Y-108602470D01*
X118728571Y-108602470D02*
X118804761Y-108564375D01*
X118804761Y-108564375D02*
X118995237Y-108564375D01*
X118995237Y-108564375D02*
X119071428Y-108602470D01*
X119071428Y-108602470D02*
X119109523Y-108640565D01*
X119109523Y-108640565D02*
X119147618Y-108716756D01*
X119147618Y-108716756D02*
X119147618Y-108792946D01*
X119147618Y-108792946D02*
X119109523Y-108907232D01*
X119109523Y-108907232D02*
X118652380Y-109364375D01*
X118652380Y-109364375D02*
X119147618Y-109364375D01*
X121866667Y-113788184D02*
X121828571Y-113826280D01*
X121828571Y-113826280D02*
X121714286Y-113864375D01*
X121714286Y-113864375D02*
X121638095Y-113864375D01*
X121638095Y-113864375D02*
X121523809Y-113826280D01*
X121523809Y-113826280D02*
X121447619Y-113750089D01*
X121447619Y-113750089D02*
X121409524Y-113673899D01*
X121409524Y-113673899D02*
X121371428Y-113521518D01*
X121371428Y-113521518D02*
X121371428Y-113407232D01*
X121371428Y-113407232D02*
X121409524Y-113254851D01*
X121409524Y-113254851D02*
X121447619Y-113178660D01*
X121447619Y-113178660D02*
X121523809Y-113102470D01*
X121523809Y-113102470D02*
X121638095Y-113064375D01*
X121638095Y-113064375D02*
X121714286Y-113064375D01*
X121714286Y-113064375D02*
X121828571Y-113102470D01*
X121828571Y-113102470D02*
X121866667Y-113140565D01*
X122323809Y-113407232D02*
X122247619Y-113369137D01*
X122247619Y-113369137D02*
X122209524Y-113331041D01*
X122209524Y-113331041D02*
X122171428Y-113254851D01*
X122171428Y-113254851D02*
X122171428Y-113216756D01*
X122171428Y-113216756D02*
X122209524Y-113140565D01*
X122209524Y-113140565D02*
X122247619Y-113102470D01*
X122247619Y-113102470D02*
X122323809Y-113064375D01*
X122323809Y-113064375D02*
X122476190Y-113064375D01*
X122476190Y-113064375D02*
X122552381Y-113102470D01*
X122552381Y-113102470D02*
X122590476Y-113140565D01*
X122590476Y-113140565D02*
X122628571Y-113216756D01*
X122628571Y-113216756D02*
X122628571Y-113254851D01*
X122628571Y-113254851D02*
X122590476Y-113331041D01*
X122590476Y-113331041D02*
X122552381Y-113369137D01*
X122552381Y-113369137D02*
X122476190Y-113407232D01*
X122476190Y-113407232D02*
X122323809Y-113407232D01*
X122323809Y-113407232D02*
X122247619Y-113445327D01*
X122247619Y-113445327D02*
X122209524Y-113483422D01*
X122209524Y-113483422D02*
X122171428Y-113559613D01*
X122171428Y-113559613D02*
X122171428Y-113711994D01*
X122171428Y-113711994D02*
X122209524Y-113788184D01*
X122209524Y-113788184D02*
X122247619Y-113826280D01*
X122247619Y-113826280D02*
X122323809Y-113864375D01*
X122323809Y-113864375D02*
X122476190Y-113864375D01*
X122476190Y-113864375D02*
X122552381Y-113826280D01*
X122552381Y-113826280D02*
X122590476Y-113788184D01*
X122590476Y-113788184D02*
X122628571Y-113711994D01*
X122628571Y-113711994D02*
X122628571Y-113559613D01*
X122628571Y-113559613D02*
X122590476Y-113483422D01*
X122590476Y-113483422D02*
X122552381Y-113445327D01*
X122552381Y-113445327D02*
X122476190Y-113407232D01*
G04 #@! TO.C,J2*
D11*
X128850000Y-140700000D02*
X128850000Y-142040000D01*
X130340000Y-140700000D02*
X128850000Y-140700000D01*
X130340000Y-140700000D02*
X130340000Y-139500000D01*
X146660000Y-140700000D02*
X148150000Y-140700000D01*
X148150000Y-140700000D02*
X148150000Y-142040000D01*
G04 #@! TO.C,U3*
X105690000Y-114265000D02*
X110310000Y-114265000D01*
X110310000Y-119735000D02*
X105690000Y-119735000D01*
X104140000Y-114720000D02*
X103810000Y-114960000D01*
X103810000Y-114480000D01*
X104140000Y-114720000D01*
G36*
X104140000Y-114720000D02*
G01*
X103810000Y-114960000D01*
X103810000Y-114480000D01*
X104140000Y-114720000D01*
G37*
G04 #@! TO.C,J1*
X103850000Y-140700000D02*
X103850000Y-142040000D01*
X105340000Y-140700000D02*
X103850000Y-140700000D01*
X105340000Y-140700000D02*
X105340000Y-139500000D01*
X121660000Y-140700000D02*
X123150000Y-140700000D01*
X123150000Y-140700000D02*
X123150000Y-142040000D01*
G04 #@! TO.C,C5*
X102859420Y-122490000D02*
X103140580Y-122490000D01*
X102859420Y-123510000D02*
X103140580Y-123510000D01*
G04 #@! TO.C,A1*
X130100000Y-105500000D02*
X147900000Y-105500000D01*
X130100000Y-126500000D02*
X147900000Y-126500000D01*
D12*
X128060000Y-108380000D02*
G75*
G02*
X127760000Y-108380000I-150000J0D01*
G01*
X127760000Y-108380000D02*
G75*
G02*
X128060000Y-108380000I150000J0D01*
G01*
G04 #@! TO.C,C3*
D11*
X124490000Y-109140580D02*
X124490000Y-108859420D01*
X125510000Y-109140580D02*
X125510000Y-108859420D01*
G04 #@! TO.C,C6*
X126359420Y-129490000D02*
X126640580Y-129490000D01*
X126359420Y-130510000D02*
X126640580Y-130510000D01*
G04 #@! TO.C,U5*
X104240000Y-126290000D02*
X109760000Y-126290000D01*
X104240000Y-126465000D02*
X104240000Y-126290000D01*
X104240000Y-134710000D02*
X104240000Y-134535000D01*
X109760000Y-126290000D02*
X109760000Y-126465000D01*
X109760000Y-134535000D02*
X109760000Y-134710000D01*
X109760000Y-134710000D02*
X104240000Y-134710000D01*
X110500000Y-134540000D02*
X110840000Y-135010000D01*
X110160000Y-135010000D01*
X110500000Y-134540000D01*
G36*
X110840000Y-135010000D02*
G01*
X110160000Y-135010000D01*
X110500000Y-134540000D01*
X110840000Y-135010000D01*
G37*
G04 #@! TO.C,U4*
X116190000Y-114265000D02*
X120810000Y-114265000D01*
X120810000Y-119735000D02*
X116190000Y-119735000D01*
X114640000Y-114720000D02*
X114310000Y-114960000D01*
X114310000Y-114480000D01*
X114640000Y-114720000D01*
G36*
X114640000Y-114720000D02*
G01*
X114310000Y-114960000D01*
X114310000Y-114480000D01*
X114640000Y-114720000D01*
G37*
G04 #@! TO.C,C9*
X126490000Y-121140580D02*
X126490000Y-120859420D01*
X127510000Y-121140580D02*
X127510000Y-120859420D01*
G04 #@! TO.C,R4*
X125762742Y-123477500D02*
X126237258Y-123477500D01*
X125762742Y-124522500D02*
X126237258Y-124522500D01*
G04 #@! TO.C,U6*
X117240000Y-126290000D02*
X122760000Y-126290000D01*
X117240000Y-126465000D02*
X117240000Y-126290000D01*
X117240000Y-134710000D02*
X117240000Y-134535000D01*
X122760000Y-126290000D02*
X122760000Y-126465000D01*
X122760000Y-134535000D02*
X122760000Y-134710000D01*
X122760000Y-134710000D02*
X117240000Y-134710000D01*
X116500000Y-126460000D02*
X116160000Y-125990000D01*
X116840000Y-125990000D01*
X116500000Y-126460000D01*
G36*
X116500000Y-126460000D02*
G01*
X116160000Y-125990000D01*
X116840000Y-125990000D01*
X116500000Y-126460000D01*
G37*
G04 #@! TO.C,R1*
X106762742Y-122477500D02*
X107237258Y-122477500D01*
X106762742Y-123522500D02*
X107237258Y-123522500D01*
G04 #@! TO.C,U7*
X112390000Y-122390000D02*
X115610000Y-122390000D01*
X112390000Y-122565000D02*
X112390000Y-122390000D01*
X112390000Y-125610000D02*
X112390000Y-125435000D01*
X115610000Y-122390000D02*
X115610000Y-122565000D01*
X115610000Y-125435000D02*
X115610000Y-125610000D01*
X115610000Y-125610000D02*
X112390000Y-125610000D01*
X111840000Y-122560000D02*
X111600000Y-122230000D01*
X112080000Y-122230000D01*
X111840000Y-122560000D01*
G36*
X111840000Y-122560000D02*
G01*
X111600000Y-122230000D01*
X112080000Y-122230000D01*
X111840000Y-122560000D01*
G37*
G04 #@! TO.C,R2*
X120262742Y-122477500D02*
X120737258Y-122477500D01*
X120262742Y-123522500D02*
X120737258Y-123522500D01*
G04 #@! TO.C,C4*
X124490000Y-117140580D02*
X124490000Y-116859420D01*
X125510000Y-117140580D02*
X125510000Y-116859420D01*
G04 #@! TO.C,R5*
X112727500Y-113237258D02*
X112727500Y-112762742D01*
X113772500Y-113237258D02*
X113772500Y-112762742D01*
G04 #@! TO.C,C2*
X112740000Y-117140580D02*
X112740000Y-116859420D01*
X113760000Y-117140580D02*
X113760000Y-116859420D01*
G04 #@! TO.C,U1*
X105690000Y-106265000D02*
X110310000Y-106265000D01*
X110310000Y-111735000D02*
X105690000Y-111735000D01*
X104140000Y-106720000D02*
X103810000Y-106960000D01*
X103810000Y-106480000D01*
X104140000Y-106720000D01*
G36*
X104140000Y-106720000D02*
G01*
X103810000Y-106960000D01*
X103810000Y-106480000D01*
X104140000Y-106720000D01*
G37*
G04 #@! TO.C,C1*
X112740000Y-109140580D02*
X112740000Y-108859420D01*
X113760000Y-109140580D02*
X113760000Y-108859420D01*
G04 #@! TO.C,R3*
X123762742Y-120477500D02*
X124237258Y-120477500D01*
X123762742Y-121522500D02*
X124237258Y-121522500D01*
G04 #@! TO.C,C7*
X113859420Y-120490000D02*
X114140580Y-120490000D01*
X113859420Y-121510000D02*
X114140580Y-121510000D01*
G04 #@! TO.C,U2*
X116190000Y-106265000D02*
X120810000Y-106265000D01*
X120810000Y-111735000D02*
X116190000Y-111735000D01*
X114640000Y-106720000D02*
X114310000Y-106960000D01*
X114310000Y-106480000D01*
X114640000Y-106720000D01*
G36*
X114640000Y-106720000D02*
G01*
X114310000Y-106960000D01*
X114310000Y-106480000D01*
X114640000Y-106720000D01*
G37*
G04 #@! TO.C,C8*
X124490000Y-113140580D02*
X124490000Y-112859420D01*
X125510000Y-113140580D02*
X125510000Y-112859420D01*
G04 #@! TD*
%LPC*%
D13*
G04 #@! TO.C,J2*
X130750000Y-140150000D03*
X131250000Y-140150000D03*
X131750000Y-140150000D03*
X132250000Y-140150000D03*
X132750000Y-140150000D03*
X133250000Y-140150000D03*
X133750000Y-140150000D03*
X134250000Y-140150000D03*
X134750000Y-140150000D03*
X135250000Y-140150000D03*
X135750000Y-140150000D03*
X136250000Y-140150000D03*
X136750000Y-140150000D03*
X137250000Y-140150000D03*
X137750000Y-140150000D03*
X138250000Y-140150000D03*
X138750000Y-140150000D03*
X139250000Y-140150000D03*
X139750000Y-140150000D03*
X140250000Y-140150000D03*
X140750000Y-140150000D03*
X141250000Y-140150000D03*
X141750000Y-140150000D03*
X142250000Y-140150000D03*
X142750000Y-140150000D03*
X143250000Y-140150000D03*
X143750000Y-140150000D03*
X144250000Y-140150000D03*
X144750000Y-140150000D03*
X145250000Y-140150000D03*
X145750000Y-140150000D03*
X146250000Y-140150000D03*
D14*
X128850000Y-143400000D03*
X138150000Y-143400000D03*
X140150000Y-143400000D03*
X148150000Y-143400000D03*
G04 #@! TD*
D15*
G04 #@! TO.C,U3*
X105137500Y-114725000D03*
X105137500Y-115375000D03*
X105137500Y-116025000D03*
X105137500Y-116675000D03*
X105137500Y-117325000D03*
X105137500Y-117975000D03*
X105137500Y-118625000D03*
X105137500Y-119275000D03*
X110862500Y-119275000D03*
X110862500Y-118625000D03*
X110862500Y-117975000D03*
X110862500Y-117325000D03*
X110862500Y-116675000D03*
X110862500Y-116025000D03*
X110862500Y-115375000D03*
X110862500Y-114725000D03*
G04 #@! TD*
D13*
G04 #@! TO.C,J1*
X105750000Y-140150000D03*
X106250000Y-140150000D03*
X106750000Y-140150000D03*
X107250000Y-140150000D03*
X107750000Y-140150000D03*
X108250000Y-140150000D03*
X108750000Y-140150000D03*
X109250000Y-140150000D03*
X109750000Y-140150000D03*
X110250000Y-140150000D03*
X110750000Y-140150000D03*
X111250000Y-140150000D03*
X111750000Y-140150000D03*
X112250000Y-140150000D03*
X112750000Y-140150000D03*
X113250000Y-140150000D03*
X113750000Y-140150000D03*
X114250000Y-140150000D03*
X114750000Y-140150000D03*
X115250000Y-140150000D03*
X115750000Y-140150000D03*
X116250000Y-140150000D03*
X116750000Y-140150000D03*
X117250000Y-140150000D03*
X117750000Y-140150000D03*
X118250000Y-140150000D03*
X118750000Y-140150000D03*
X119250000Y-140150000D03*
X119750000Y-140150000D03*
X120250000Y-140150000D03*
X120750000Y-140150000D03*
X121250000Y-140150000D03*
D14*
X103850000Y-143400000D03*
X113150000Y-143400000D03*
X115150000Y-143400000D03*
X123150000Y-143400000D03*
G04 #@! TD*
D16*
G04 #@! TO.C,C5*
X102225000Y-123000000D03*
X103775000Y-123000000D03*
G04 #@! TD*
D17*
G04 #@! TO.C,A1*
X130110000Y-108380000D03*
D18*
X130110000Y-110920000D03*
X130110000Y-113460000D03*
X130110000Y-116000000D03*
X130110000Y-118540000D03*
X130110000Y-121080000D03*
X130110000Y-123620000D03*
X147890000Y-123620000D03*
X147890000Y-121080000D03*
X147890000Y-118540000D03*
X147890000Y-116000000D03*
X147890000Y-113460000D03*
X147890000Y-110920000D03*
X147890000Y-108380000D03*
G04 #@! TD*
D19*
G04 #@! TO.C,C3*
X125000000Y-109775000D03*
X125000000Y-108225000D03*
G04 #@! TD*
D16*
G04 #@! TO.C,C6*
X125725000Y-130000000D03*
X127275000Y-130000000D03*
G04 #@! TD*
D20*
G04 #@! TO.C,U5*
X110500000Y-134075000D03*
X110500000Y-133425000D03*
X110500000Y-132775000D03*
X110500000Y-132125000D03*
X110500000Y-131475000D03*
X110500000Y-130825000D03*
X110500000Y-130175000D03*
X110500000Y-129525000D03*
X110500000Y-128875000D03*
X110500000Y-128225000D03*
X110500000Y-127575000D03*
X110500000Y-126925000D03*
X103500000Y-126925000D03*
X103500000Y-127575000D03*
X103500000Y-128225000D03*
X103500000Y-128875000D03*
X103500000Y-129525000D03*
X103500000Y-130175000D03*
X103500000Y-130825000D03*
X103500000Y-131475000D03*
X103500000Y-132125000D03*
X103500000Y-132775000D03*
X103500000Y-133425000D03*
X103500000Y-134075000D03*
G04 #@! TD*
D15*
G04 #@! TO.C,U4*
X115637500Y-114725000D03*
X115637500Y-115375000D03*
X115637500Y-116025000D03*
X115637500Y-116675000D03*
X115637500Y-117325000D03*
X115637500Y-117975000D03*
X115637500Y-118625000D03*
X115637500Y-119275000D03*
X121362500Y-119275000D03*
X121362500Y-118625000D03*
X121362500Y-117975000D03*
X121362500Y-117325000D03*
X121362500Y-116675000D03*
X121362500Y-116025000D03*
X121362500Y-115375000D03*
X121362500Y-114725000D03*
G04 #@! TD*
D21*
G04 #@! TO.C,H3*
X139000000Y-132000000D03*
G04 #@! TD*
D19*
G04 #@! TO.C,C9*
X127000000Y-121775000D03*
X127000000Y-120225000D03*
G04 #@! TD*
D22*
G04 #@! TO.C,R4*
X125175000Y-124000000D03*
X126825000Y-124000000D03*
G04 #@! TD*
D23*
G04 #@! TO.C,U6*
X116500000Y-126925000D03*
X116500000Y-127575000D03*
X116500000Y-128225000D03*
X116500000Y-128875000D03*
X116500000Y-129525000D03*
X116500000Y-130175000D03*
X116500000Y-130825000D03*
X116500000Y-131475000D03*
X116500000Y-132125000D03*
X116500000Y-132775000D03*
X116500000Y-133425000D03*
X116500000Y-134075000D03*
X123500000Y-134075000D03*
X123500000Y-133425000D03*
X123500000Y-132775000D03*
X123500000Y-132125000D03*
X123500000Y-131475000D03*
X123500000Y-130825000D03*
X123500000Y-130175000D03*
X123500000Y-129525000D03*
X123500000Y-128875000D03*
X123500000Y-128225000D03*
X123500000Y-127575000D03*
X123500000Y-126925000D03*
G04 #@! TD*
D21*
G04 #@! TO.C,H1*
X102500000Y-102500000D03*
G04 #@! TD*
G04 #@! TO.C,H2*
X149500000Y-102500000D03*
G04 #@! TD*
D22*
G04 #@! TO.C,R1*
X106175000Y-123000000D03*
X107825000Y-123000000D03*
G04 #@! TD*
D24*
G04 #@! TO.C,U7*
X111887500Y-123025000D03*
X111887500Y-123675000D03*
X111887500Y-124325000D03*
X111887500Y-124975000D03*
X116112500Y-124975000D03*
X116112500Y-124325000D03*
X116112500Y-123675000D03*
X116112500Y-123025000D03*
G04 #@! TD*
D22*
G04 #@! TO.C,R2*
X119675000Y-123000000D03*
X121325000Y-123000000D03*
G04 #@! TD*
D19*
G04 #@! TO.C,C4*
X125000000Y-117775000D03*
X125000000Y-116225000D03*
G04 #@! TD*
D25*
G04 #@! TO.C,R5*
X113250000Y-113825000D03*
X113250000Y-112175000D03*
G04 #@! TD*
D19*
G04 #@! TO.C,C2*
X113250000Y-117775000D03*
X113250000Y-116225000D03*
G04 #@! TD*
D15*
G04 #@! TO.C,U1*
X105137500Y-106725000D03*
X105137500Y-107375000D03*
X105137500Y-108025000D03*
X105137500Y-108675000D03*
X105137500Y-109325000D03*
X105137500Y-109975000D03*
X105137500Y-110625000D03*
X105137500Y-111275000D03*
X110862500Y-111275000D03*
X110862500Y-110625000D03*
X110862500Y-109975000D03*
X110862500Y-109325000D03*
X110862500Y-108675000D03*
X110862500Y-108025000D03*
X110862500Y-107375000D03*
X110862500Y-106725000D03*
G04 #@! TD*
D19*
G04 #@! TO.C,C1*
X113250000Y-109775000D03*
X113250000Y-108225000D03*
G04 #@! TD*
D22*
G04 #@! TO.C,R3*
X123175000Y-121000000D03*
X124825000Y-121000000D03*
G04 #@! TD*
D16*
G04 #@! TO.C,C7*
X113225000Y-121000000D03*
X114775000Y-121000000D03*
G04 #@! TD*
D15*
G04 #@! TO.C,U2*
X115637500Y-106725000D03*
X115637500Y-107375000D03*
X115637500Y-108025000D03*
X115637500Y-108675000D03*
X115637500Y-109325000D03*
X115637500Y-109975000D03*
X115637500Y-110625000D03*
X115637500Y-111275000D03*
X121362500Y-111275000D03*
X121362500Y-110625000D03*
X121362500Y-109975000D03*
X121362500Y-109325000D03*
X121362500Y-108675000D03*
X121362500Y-108025000D03*
X121362500Y-107375000D03*
X121362500Y-106725000D03*
G04 #@! TD*
D19*
G04 #@! TO.C,C8*
X125000000Y-113775000D03*
X125000000Y-112225000D03*
G04 #@! TD*
%LPD*%
M02*
