M48
; DRILL file KiCad 10.0.5 date 2026-08-06T14:06:45
; FORMAT={-:-/ absolute / metric / decimal}
; #@! TF.CreationDate,2026-08-06T14:06:45-04:00
; #@! TF.GenerationSoftware,Kicad,Pcbnew,10.0.5
; #@! TF.FileFunction,Plated,1,4,PTH
FMAT,2
METRIC
; #@! TA.AperFunction,Plated,PTH,ViaDrill
T1C0.300
; #@! TA.AperFunction,Plated,PTH,ComponentDrill
T2C1.000
%
G90
G05
T1
X101.9Y-128.225
X102.225Y-124.0
X102.45Y-108.45
X102.45Y-114.45
X102.45Y-120.45
X102.45Y-138.45
X102.56Y-134.417
X103.6Y-106.75
X103.775Y-124.0
X103.79Y-124.929
X103.85Y-144.4
X104.198Y-111.617
X104.198Y-119.617
X104.319Y-113.882
X104.419Y-113.127
X104.991Y-126.117
X105.055Y-129.263
X105.057Y-112.427
X105.265Y-138.932
X106.148Y-142.133
X106.175Y-124.0
X106.466Y-110.524
X106.578Y-137.594
X106.671Y-141.51
X106.883Y-106.736
X107.318Y-109.87
X107.396Y-109.066
X107.524Y-141.618
X107.653Y-139.04
X107.997Y-127.887
X108.426Y-138.155
X108.45Y-102.45
X108.498Y-138.917
X108.825Y-123.0
X108.993Y-131.083
X109.073Y-131.931
X109.076Y-126.771
X109.083Y-130.238
X109.362Y-106.487
X109.493Y-142.324
X109.989Y-138.048
X110.021Y-139.023
X110.24Y-113.609
X110.288Y-124.325
X110.555Y-141.267
X110.948Y-122.683
X110.948Y-123.333
X110.948Y-125.317
X111.44Y-126.583
X111.44Y-134.417
X111.503Y-138.557
X111.802Y-106.383
X111.802Y-114.383
X111.935Y-141.674
X111.982Y-132.095
X112.162Y-108.675
X112.162Y-110.625
X112.162Y-116.675
X112.162Y-118.625
X112.301Y-138.759
X112.65Y-130.383
X112.702Y-119.164
X112.764Y-131.604
X112.766Y-127.334
X112.796Y-126.412
X112.832Y-114.844
X112.84Y-132.86
X113.003Y-107.231
X113.076Y-138.572
X113.15Y-144.4
X113.219Y-122.926
X113.225Y-122.0
X113.26Y-110.889
X113.443Y-119.675
X114.015Y-106.441
X114.19Y-108.567
X114.19Y-110.117
X114.19Y-116.567
X114.19Y-118.117
X114.25Y-112.175
X114.25Y-113.825
X114.45Y-102.45
X114.512Y-123.675
X114.512Y-124.325
X114.698Y-119.617
X114.775Y-122.0
X114.901Y-133.486
X114.942Y-141.389
X115.079Y-129.165
X115.15Y-144.4
X115.514Y-138.355
X115.56Y-126.583
X115.56Y-134.417
X115.638Y-112.275
X116.15Y-120.295
X116.588Y-141.619
X116.855Y-114.737
X116.927Y-142.58
X116.944Y-109.944
X116.989Y-138.097
X117.008Y-111.045
X117.052Y-122.683
X117.052Y-125.317
X117.497Y-115.662
X117.596Y-108.849
X117.62Y-114.707
X117.728Y-142.897
X117.756Y-138.336
X117.939Y-106.552
X118.081Y-118.263
X118.413Y-142.419
X118.508Y-138.121
X118.55Y-109.258
X118.57Y-119.883
X119.019Y-110.721
X119.04Y-116.072
X119.26Y-137.987
X119.675Y-124.0
X119.728Y-119.26
X119.826Y-142.058
X120.006Y-138.734
X120.45Y-102.45
X121.04Y-121.415
X121.19Y-126.154
X121.247Y-120.587
X121.325Y-124.0
X121.693Y-142.552
X122.302Y-106.383
X122.302Y-114.383
X122.353Y-140.276
X122.662Y-108.675
X122.662Y-110.625
X122.662Y-116.675
X122.662Y-118.625
X122.708Y-122.605
X123.15Y-144.4
X123.812Y-107.865
X124.44Y-126.583
X124.552Y-139.164
X125.1Y-132.775
X125.225Y-127.413
X125.583Y-139.18
X125.725Y-131.0
X126.0Y-108.225
X126.0Y-109.775
X126.0Y-112.225
X126.0Y-113.775
X126.0Y-116.225
X126.0Y-117.775
X126.226Y-132.376
X126.412Y-140.465
X126.45Y-102.45
X127.219Y-133.727
X127.275Y-131.0
X127.766Y-122.418
X127.94Y-119.883
X128.075Y-131.367
X128.85Y-144.4
X129.899Y-139.212
X130.381Y-138.455
X130.441Y-133.227
X131.165Y-138.702
X131.27Y-132.732
X132.45Y-102.45
X133.845Y-141.266
X133.859Y-138.804
X135.294Y-136.251
X135.998Y-127.779
X138.15Y-144.4
X138.209Y-141.55
X138.45Y-102.45
X140.15Y-144.4
X141.145Y-138.597
X142.112Y-142.006
X142.463Y-139.016
X144.45Y-102.45
X145.177Y-138.323
X148.15Y-144.4
T2
X130.11Y-108.38
X130.11Y-110.92
X130.11Y-113.46
X130.11Y-116.0
X130.11Y-118.54
X130.11Y-121.08
X130.11Y-123.62
X147.89Y-108.38
X147.89Y-110.92
X147.89Y-113.46
X147.89Y-116.0
X147.89Y-118.54
X147.89Y-121.08
X147.89Y-123.62
M30
