M48
; DRILL file KiCad 10.0.6-10.0.6~ubuntu24.04.1 date 2026-10-04T22:36:15
; FORMAT={-:-/ absolute / metric / decimal}
; #@! TF.CreationDate,2026-10-04T22:36:15+00:00
; #@! TF.GenerationSoftware,Kicad,Pcbnew,10.0.6-10.0.6~ubuntu24.04.1
; #@! TF.FileFunction,Plated,1,4,PTH
FMAT,2
METRIC
; #@! TA.AperFunction,Plated,PTH,ViaDrill
T1C0.300
; #@! TA.AperFunction,Plated,PTH,ComponentDrill
T2C0.600
; #@! TA.AperFunction,Plated,PTH,ComponentDrill
T3C1.000
%
G90
G05
T1
X99.337Y-125.501
X99.337Y-135.451
X99.512Y-123.101
X99.639Y-109.329
X101.836Y-111.269
X101.907Y-101.947
X102.389Y-115.079
X102.975Y-114.58
X103.037Y-128.801
X103.269Y-113.463
X103.54Y-121.35
X103.738Y-117.957
X104.219Y-122.283
X105.007Y-114.696
X105.13Y-109.43
X105.2Y-131.6
X105.3Y-132.85
X105.3Y-134.1
X105.383Y-105.177
X105.728Y-128.925
X106.403Y-114.386
X106.767Y-111.362
X107.125Y-119.972
X107.181Y-104.556
X107.371Y-117.088
X107.88Y-115.18
X108.12Y-105.185
X108.682Y-117.093
X108.746Y-119.446
X109.196Y-118.031
X109.2Y-131.6
X109.578Y-129.175
X109.907Y-101.947
X110.197Y-122.056
X110.331Y-118.216
X110.621Y-109.03
X110.947Y-122.056
X111.2Y-132.3
X111.539Y-130.181
X111.907Y-101.947
X111.979Y-120.908
X112.167Y-107.513
X112.45Y-124.264
X112.45Y-129.164
X113.0Y-132.3
X113.348Y-119.948
X113.371Y-114.78
X114.046Y-110.98
X114.279Y-117.049
X114.707Y-105.193
X114.802Y-117.65
X114.885Y-114.284
X115.0Y-124.264
X115.179Y-120.649
X115.179Y-121.849
X116.111Y-108.937
X116.207Y-107.423
X116.3Y-129.164
X116.441Y-119.949
X116.441Y-121.899
X117.106Y-131.351
X117.724Y-125.188
X117.901Y-118.396
X118.188Y-128.401
X118.261Y-130.4
X118.492Y-121.849
X118.861Y-114.687
X118.963Y-116.54
X119.186Y-127.293
X119.438Y-118.269
X119.799Y-114.195
X120.1Y-124.2
X120.1Y-125.3
X120.124Y-123.101
X120.16Y-120.798
X120.182Y-117.65
X120.437Y-126.848
X120.819Y-106.869
X120.999Y-119.895
X121.015Y-120.55
X121.038Y-128.901
X121.12Y-117.749
X121.123Y-121.9
X121.257Y-101.947
X121.462Y-114.85
X121.462Y-115.85
X121.89Y-112.95
X121.959Y-123.976
X121.97Y-117.749
X121.973Y-122.0
X122.059Y-126.005
X122.062Y-116.25
X122.084Y-120.524
X122.108Y-127.849
X122.207Y-129.55
X122.35Y-134.951
X122.51Y-125.533
X122.512Y-126.956
X122.556Y-117.731
X122.589Y-116.6
X122.635Y-123.95
X122.8Y-115.05
X123.106Y-124.451
X123.44Y-112.95
X123.481Y-125.501
X123.756Y-121.917
X123.864Y-120.651
X123.875Y-116.4
X123.875Y-118.425
X123.877Y-122.651
X124.15Y-128.73
X124.338Y-120.194
X124.454Y-118.1
X124.498Y-109.66
X124.656Y-124.951
X125.152Y-125.426
X125.152Y-126.276
X125.376Y-119.521
X125.376Y-121.781
X125.641Y-134.925
X125.75Y-115.15
X126.156Y-116.581
X126.3Y-115.95
X126.3Y-130.38
X126.367Y-133.788
X126.506Y-119.521
X126.506Y-120.651
X126.506Y-121.781
X126.6Y-126.35
X126.923Y-133.385
X126.93Y-117.925
X127.056Y-124.901
X127.06Y-134.175
X127.079Y-135.701
X127.198Y-102.248
X127.206Y-122.951
X127.25Y-118.55
X127.281Y-116.376
X127.606Y-118.001
X127.636Y-120.651
X127.636Y-121.781
X127.706Y-124.907
X128.006Y-123.301
X128.405Y-114.15
X128.55Y-118.1
X128.55Y-126.177
X128.84Y-101.947
X128.932Y-134.951
X128.95Y-112.2
X128.999Y-128.487
X129.143Y-121.889
X129.153Y-123.016
X129.2Y-114.4
X129.2Y-120.65
X129.25Y-115.1
X129.25Y-126.034
X129.25Y-129.15
X129.3Y-126.582
X129.4Y-125.184
X129.531Y-109.142
X129.65Y-112.224
X129.7Y-111.246
X129.806Y-117.731
X129.806Y-116.601
X130.1Y-125.933
X130.115Y-110.746
X130.312Y-131.364
X130.6Y-126.865
X130.681Y-120.226
X130.7Y-112.752
X130.805Y-123.201
X130.872Y-122.499
X131.175Y-127.215
X131.342Y-107.401
X131.744Y-115.278
X131.775Y-126.89
X131.825Y-124.64
X131.9Y-117.75
X131.935Y-111.485
X132.005Y-124.119
X132.08Y-107.867
X132.093Y-128.161
X132.1Y-120.8
X132.108Y-116.445
X132.165Y-122.079
X132.575Y-124.84
X132.575Y-127.44
X132.609Y-108.41
X133.019Y-124.292
X133.382Y-118.15
X133.45Y-120.45
X133.47Y-110.959
X133.471Y-112.012
X133.471Y-121.35
X133.58Y-105.191
X133.692Y-127.481
X133.789Y-123.04
X133.799Y-112.91
X134.108Y-107.914
X134.153Y-125.478
X134.342Y-127.256
X134.476Y-105.177
X134.5Y-117.42
X134.5Y-121.48
X134.576Y-124.005
X134.642Y-115.875
X134.707Y-113.56
X134.812Y-115.158
X134.902Y-114.323
X135.09Y-107.403
X135.493Y-127.056
X135.59Y-105.159
X135.692Y-126.106
X136.028Y-110.285
X136.028Y-116.135
X136.277Y-107.41
X136.3Y-127.712
X136.806Y-133.795
X136.831Y-105.18
X136.84Y-101.947
X136.889Y-121.922
X136.925Y-126.962
X136.95Y-130.787
X137.365Y-134.982
X137.386Y-107.554
X137.59Y-125.904
X137.685Y-118.086
X137.745Y-108.266
X137.875Y-130.787
X137.906Y-121.387
X138.551Y-105.192
X138.793Y-128.061
X138.84Y-101.947
X138.98Y-119.8
X139.01Y-120.8
X139.127Y-104.694
X139.131Y-125.701
X139.431Y-120.287
X139.604Y-107.418
X139.879Y-104.864
X139.887Y-114.21
X139.959Y-112.687
X139.975Y-113.448
X140.049Y-115.51
X140.668Y-107.473
X140.731Y-108.496
X141.184Y-125.445
X141.2Y-131.35
X141.272Y-114.86
X141.421Y-107.746
X141.427Y-110.553
X141.481Y-133.987
X141.543Y-128.935
X141.677Y-130.817
X141.746Y-112.26
X141.809Y-113.024
X141.972Y-111.506
X142.0Y-131.85
X142.443Y-104.674
X142.59Y-107.425
X142.8Y-135.651
X143.028Y-108.835
X143.113Y-105.194
X143.215Y-124.614
X143.285Y-118.03
X143.299Y-127.673
X144.26Y-119.005
X144.926Y-107.75
X145.06Y-128.289
X145.114Y-104.125
X145.385Y-110.504
X145.39Y-113.956
X145.625Y-133.49
X145.665Y-125.588
X145.814Y-111.892
X146.213Y-133.076
X146.456Y-108.155
X146.805Y-115.402
X146.929Y-116.473
X146.946Y-113.467
X146.995Y-110.118
X147.288Y-134.951
X147.589Y-103.468
X147.677Y-114.696
X147.73Y-112.686
X147.805Y-115.402
X147.931Y-118.512
X148.14Y-101.947
X148.205Y-106.549
X148.285Y-109.66
X148.631Y-117.812
X148.706Y-110.192
X149.084Y-128.78
X149.139Y-119.943
X149.601Y-128.074
X150.127Y-131.238
X150.305Y-104.576
X150.511Y-134.35
X151.058Y-115.417
X151.457Y-130.838
X151.586Y-112.167
X151.601Y-114.866
X152.01Y-114.117
X152.3Y-129.1
X152.35Y-127.85
X152.528Y-111.984
X152.599Y-105.118
X152.715Y-110.162
X152.832Y-127.363
X152.906Y-117.449
X153.239Y-132.551
X153.692Y-105.674
X153.933Y-114.157
X154.41Y-113.467
X154.595Y-123.9
X154.78Y-112.773
X155.006Y-121.749
X155.706Y-108.742
X155.889Y-125.501
X155.889Y-135.451
X157.104Y-119.545
X157.977Y-123.2
X158.083Y-122.0
X158.444Y-118.05
T3
X111.019Y-135.181
X113.559Y-135.181
X116.099Y-135.181
X118.639Y-135.181
T2
X131.273Y-129.121G85X131.273Y-130.221
G05
X131.273Y-133.551G85X131.273Y-134.151
G05
X139.913Y-129.121G85X139.913Y-130.221
G05
X139.913Y-133.551G85X139.913Y-134.151
G05
M30
