%TF.GenerationSoftware,KiCad,Pcbnew,10.0.6-10.0.6~ubuntu24.04.1*%
%TF.CreationDate,2026-10-04T22:36:15+00:00*%
%TF.ProjectId,rev4,72657634-2e6b-4696-9361-645f70636258,rev?*%
%TF.SameCoordinates,Original*%
%TF.FileFunction,Copper,L1,Top*%
%TF.FilePolarity,Positive*%
%FSLAX46Y46*%
G04 Gerber Fmt 4.6, Leading zero omitted, Abs format (unit mm)*
G04 Created by KiCad (PCBNEW 10.0.6-10.0.6~ubuntu24.04.1) date 2026-10-04 22:36:15*
%MOMM*%
%LPD*%
G01*
G04 APERTURE LIST*
G04 Aperture macros list*
%AMRoundRect*
0 Rectangle with rounded corners*
0 $1 Rounding radius*
0 $2 $3 $4 $5 $6 $7 $8 $9 X,Y pos of 4 corners*
0 Add a 4 corners polygon primitive as box body*
4,1,4,$2,$3,$4,$5,$6,$7,$8,$9,$2,$3,0*
0 Add four circle primitives for the rounded corners*
1,1,$1+$1,$2,$3*
1,1,$1+$1,$4,$5*
1,1,$1+$1,$6,$7*
1,1,$1+$1,$8,$9*
0 Add four rect primitives between the rounded corners*
20,1,$1+$1,$2,$3,$4,$5,0*
20,1,$1+$1,$4,$5,$6,$7,0*
20,1,$1+$1,$6,$7,$8,$9,0*
20,1,$1+$1,$8,$9,$2,$3,0*%
G04 Aperture macros list end*
%TA.AperFunction,EtchedComponent*%
%ADD10C,0.000000*%
%TD*%
%TA.AperFunction,SMDPad,CuDef*%
%ADD11RoundRect,0.100000X-0.130000X-0.100000X0.130000X-0.100000X0.130000X0.100000X-0.130000X0.100000X0*%
%TD*%
%TA.AperFunction,SMDPad,CuDef*%
%ADD12RoundRect,0.135000X-0.135000X-0.185000X0.135000X-0.185000X0.135000X0.185000X-0.135000X0.185000X0*%
%TD*%
%TA.AperFunction,SMDPad,CuDef*%
%ADD13RoundRect,0.250000X0.475000X-0.250000X0.475000X0.250000X-0.475000X0.250000X-0.475000X-0.250000X0*%
%TD*%
%TA.AperFunction,SMDPad,CuDef*%
%ADD14RoundRect,0.200000X-0.200000X-0.275000X0.200000X-0.275000X0.200000X0.275000X-0.200000X0.275000X0*%
%TD*%
%TA.AperFunction,SMDPad,CuDef*%
%ADD15C,1.000000*%
%TD*%
%TA.AperFunction,SMDPad,CuDef*%
%ADD16RoundRect,0.100000X0.130000X0.100000X-0.130000X0.100000X-0.130000X-0.100000X0.130000X-0.100000X0*%
%TD*%
%TA.AperFunction,SMDPad,CuDef*%
%ADD17RoundRect,0.150000X-0.512500X-0.150000X0.512500X-0.150000X0.512500X0.150000X-0.512500X0.150000X0*%
%TD*%
%TA.AperFunction,SMDPad,CuDef*%
%ADD18RoundRect,0.135000X0.135000X0.185000X-0.135000X0.185000X-0.135000X-0.185000X0.135000X-0.185000X0*%
%TD*%
%TA.AperFunction,SMDPad,CuDef*%
%ADD19RoundRect,0.150000X-0.700000X0.150000X-0.700000X-0.150000X0.700000X-0.150000X0.700000X0.150000X0*%
%TD*%
%TA.AperFunction,SMDPad,CuDef*%
%ADD20RoundRect,0.250000X-1.100000X0.250000X-1.100000X-0.250000X1.100000X-0.250000X1.100000X0.250000X0*%
%TD*%
%TA.AperFunction,SMDPad,CuDef*%
%ADD21RoundRect,0.250000X-0.475000X0.250000X-0.475000X-0.250000X0.475000X-0.250000X0.475000X0.250000X0*%
%TD*%
%TA.AperFunction,SMDPad,CuDef*%
%ADD22R,1.200000X1.200000*%
%TD*%
%TA.AperFunction,SMDPad,CuDef*%
%ADD23RoundRect,0.140000X-0.170000X0.140000X-0.170000X-0.140000X0.170000X-0.140000X0.170000X0.140000X0*%
%TD*%
%TA.AperFunction,SMDPad,CuDef*%
%ADD24RoundRect,0.140000X-0.140000X-0.170000X0.140000X-0.170000X0.140000X0.170000X-0.140000X0.170000X0*%
%TD*%
%TA.AperFunction,SMDPad,CuDef*%
%ADD25R,0.300000X1.300000*%
%TD*%
%TA.AperFunction,SMDPad,CuDef*%
%ADD26R,1.800000X2.200000*%
%TD*%
%TA.AperFunction,SMDPad,CuDef*%
%ADD27RoundRect,0.140000X0.140000X0.170000X-0.140000X0.170000X-0.140000X-0.170000X0.140000X-0.170000X0*%
%TD*%
%TA.AperFunction,ComponentPad*%
%ADD28R,1.700000X1.700000*%
%TD*%
%TA.AperFunction,ComponentPad*%
%ADD29C,1.700000*%
%TD*%
%TA.AperFunction,SMDPad,CuDef*%
%ADD30RoundRect,0.050000X-0.350000X-0.050000X0.350000X-0.050000X0.350000X0.050000X-0.350000X0.050000X0*%
%TD*%
%TA.AperFunction,SMDPad,CuDef*%
%ADD31RoundRect,0.050000X-0.050000X-0.350000X0.050000X-0.350000X0.050000X0.350000X-0.050000X0.350000X0*%
%TD*%
%TA.AperFunction,HeatsinkPad*%
%ADD32R,3.400000X3.400000*%
%TD*%
%TA.AperFunction,SMDPad,CuDef*%
%ADD33R,1.000000X1.500000*%
%TD*%
%TA.AperFunction,SMDPad,CuDef*%
%ADD34RoundRect,0.225000X0.250000X-0.225000X0.250000X0.225000X-0.250000X0.225000X-0.250000X-0.225000X0*%
%TD*%
%TA.AperFunction,SMDPad,CuDef*%
%ADD35RoundRect,0.140000X0.170000X-0.140000X0.170000X0.140000X-0.170000X0.140000X-0.170000X-0.140000X0*%
%TD*%
%TA.AperFunction,SMDPad,CuDef*%
%ADD36RoundRect,0.218750X-0.218750X-0.256250X0.218750X-0.256250X0.218750X0.256250X-0.218750X0.256250X0*%
%TD*%
%TA.AperFunction,SMDPad,CuDef*%
%ADD37RoundRect,0.050000X-0.375000X-0.050000X0.375000X-0.050000X0.375000X0.050000X-0.375000X0.050000X0*%
%TD*%
%TA.AperFunction,SMDPad,CuDef*%
%ADD38RoundRect,0.050000X-0.050000X-0.275000X0.050000X-0.275000X0.050000X0.275000X-0.050000X0.275000X0*%
%TD*%
%TA.AperFunction,SMDPad,CuDef*%
%ADD39RoundRect,0.135000X-0.185000X0.135000X-0.185000X-0.135000X0.185000X-0.135000X0.185000X0.135000X0*%
%TD*%
%TA.AperFunction,SMDPad,CuDef*%
%ADD40RoundRect,0.100000X-0.100000X0.637500X-0.100000X-0.637500X0.100000X-0.637500X0.100000X0.637500X0*%
%TD*%
%TA.AperFunction,SMDPad,CuDef*%
%ADD41RoundRect,0.112500X0.112500X-0.187500X0.112500X0.187500X-0.112500X0.187500X-0.112500X-0.187500X0*%
%TD*%
%TA.AperFunction,SMDPad,CuDef*%
%ADD42RoundRect,0.135000X0.185000X-0.135000X0.185000X0.135000X-0.185000X0.135000X-0.185000X-0.135000X0*%
%TD*%
%TA.AperFunction,SMDPad,CuDef*%
%ADD43RoundRect,0.093750X0.156250X0.093750X-0.156250X0.093750X-0.156250X-0.093750X0.156250X-0.093750X0*%
%TD*%
%TA.AperFunction,SMDPad,CuDef*%
%ADD44RoundRect,0.075000X0.250000X0.075000X-0.250000X0.075000X-0.250000X-0.075000X0.250000X-0.075000X0*%
%TD*%
%TA.AperFunction,SMDPad,CuDef*%
%ADD45RoundRect,0.100000X-0.100000X0.130000X-0.100000X-0.130000X0.100000X-0.130000X0.100000X0.130000X0*%
%TD*%
%TA.AperFunction,SMDPad,CuDef*%
%ADD46RoundRect,0.150000X0.512500X0.150000X-0.512500X0.150000X-0.512500X-0.150000X0.512500X-0.150000X0*%
%TD*%
%TA.AperFunction,SMDPad,CuDef*%
%ADD47RoundRect,0.100000X0.850000X0.100000X-0.850000X0.100000X-0.850000X-0.100000X0.850000X-0.100000X0*%
%TD*%
%TA.AperFunction,SMDPad,CuDef*%
%ADD48RoundRect,0.250000X-1.075000X0.375000X-1.075000X-0.375000X1.075000X-0.375000X1.075000X0.375000X0*%
%TD*%
%TA.AperFunction,SMDPad,CuDef*%
%ADD49RoundRect,0.112500X0.350000X0.112500X-0.350000X0.112500X-0.350000X-0.112500X0.350000X-0.112500X0*%
%TD*%
%TA.AperFunction,SMDPad,CuDef*%
%ADD50RoundRect,0.150000X-0.150000X-0.575000X0.150000X-0.575000X0.150000X0.575000X-0.150000X0.575000X0*%
%TD*%
%TA.AperFunction,SMDPad,CuDef*%
%ADD51RoundRect,0.075000X-0.075000X-0.650000X0.075000X-0.650000X0.075000X0.650000X-0.075000X0.650000X0*%
%TD*%
%TA.AperFunction,ComponentPad*%
%ADD52O,1.000000X2.100000*%
%TD*%
%TA.AperFunction,ComponentPad*%
%ADD53O,1.000000X1.600000*%
%TD*%
%TA.AperFunction,SMDPad,CuDef*%
%ADD54RoundRect,0.150000X-0.150000X0.825000X-0.150000X-0.825000X0.150000X-0.825000X0.150000X0.825000X0*%
%TD*%
%TA.AperFunction,SMDPad,CuDef*%
%ADD55RoundRect,0.225000X0.225000X0.250000X-0.225000X0.250000X-0.225000X-0.250000X0.225000X-0.250000X0*%
%TD*%
%TA.AperFunction,SMDPad,CuDef*%
%ADD56RoundRect,0.100000X-0.100000X0.712500X-0.100000X-0.712500X0.100000X-0.712500X0.100000X0.712500X0*%
%TD*%
%TA.AperFunction,SMDPad,CuDef*%
%ADD57RoundRect,0.100000X0.100000X-0.130000X0.100000X0.130000X-0.100000X0.130000X-0.100000X-0.130000X0*%
%TD*%
%TA.AperFunction,SMDPad,CuDef*%
%ADD58RoundRect,0.150000X0.700000X-0.150000X0.700000X0.150000X-0.700000X0.150000X-0.700000X-0.150000X0*%
%TD*%
%TA.AperFunction,SMDPad,CuDef*%
%ADD59RoundRect,0.250000X1.100000X-0.250000X1.100000X0.250000X-1.100000X0.250000X-1.100000X-0.250000X0*%
%TD*%
%TA.AperFunction,SMDPad,CuDef*%
%ADD60RoundRect,0.250000X-0.450000X-0.350000X0.450000X-0.350000X0.450000X0.350000X-0.450000X0.350000X0*%
%TD*%
%TA.AperFunction,SMDPad,CuDef*%
%ADD61R,0.900000X1.700000*%
%TD*%
%TA.AperFunction,SMDPad,CuDef*%
%ADD62RoundRect,0.250000X-0.250000X-0.475000X0.250000X-0.475000X0.250000X0.475000X-0.250000X0.475000X0*%
%TD*%
%TA.AperFunction,SMDPad,CuDef*%
%ADD63RoundRect,0.112500X0.187500X0.112500X-0.187500X0.112500X-0.187500X-0.112500X0.187500X-0.112500X0*%
%TD*%
%TA.AperFunction,SMDPad,CuDef*%
%ADD64RoundRect,0.225000X-0.225000X-0.625000X0.225000X-0.625000X0.225000X0.625000X-0.225000X0.625000X0*%
%TD*%
%TA.AperFunction,ViaPad*%
%ADD65C,0.500000*%
%TD*%
%TA.AperFunction,ViaPad*%
%ADD66C,0.600000*%
%TD*%
%TA.AperFunction,Conductor*%
%ADD67C,0.150000*%
%TD*%
%TA.AperFunction,Conductor*%
%ADD68C,0.100000*%
%TD*%
%TA.AperFunction,Conductor*%
%ADD69C,0.300000*%
%TD*%
%TA.AperFunction,Conductor*%
%ADD70C,0.400000*%
%TD*%
%TA.AperFunction,Conductor*%
%ADD71C,0.200000*%
%TD*%
G04 APERTURE END LIST*
D10*
%TA.AperFunction,EtchedComponent*%
%TO.C,JP1*%
G36*
X122299512Y-136001463D02*
G01*
X121799512Y-136001463D01*
X121799512Y-135401463D01*
X122299512Y-135401463D01*
X122299512Y-136001463D01*
G37*
%TD.AperFunction*%
%TA.AperFunction,EtchedComponent*%
%TO.C,JP2*%
G36*
X125590512Y-135975340D02*
G01*
X125090512Y-135975340D01*
X125090512Y-135375340D01*
X125590512Y-135375340D01*
X125590512Y-135975340D01*
G37*
%TD.AperFunction*%
%TA.AperFunction,EtchedComponent*%
%TO.C,JP3*%
G36*
X128881512Y-136001463D02*
G01*
X128381512Y-136001463D01*
X128381512Y-135401463D01*
X128881512Y-135401463D01*
X128881512Y-136001463D01*
G37*
%TD.AperFunction*%
%TD*%
D11*
%TO.P,C36,1*%
%TO.N,ADC_AVDD*%
X132662005Y-118320000D03*
%TO.P,C36,2*%
%TO.N,GND*%
X133302005Y-118320000D03*
%TD*%
D12*
%TO.P,R5,1*%
%TO.N,+3.3V*%
X118532399Y-121398782D03*
%TO.P,R5,2*%
%TO.N,ROW_VCC*%
X119552399Y-121398782D03*
%TD*%
D13*
%TO.P,C9,1*%
%TO.N,+3.3V*%
X117141399Y-122349203D03*
%TO.P,C9,2*%
%TO.N,GND*%
X117141399Y-120449203D03*
%TD*%
D14*
%TO.P,R38,1*%
%TO.N,+5V_USB*%
X140725000Y-124300000D03*
%TO.P,R38,2*%
%TO.N,USB_SNUB*%
X142375000Y-124300000D03*
%TD*%
%TO.P,R12,1*%
%TO.N,SYNC_P*%
X112173196Y-132089721D03*
%TO.P,R12,2*%
%TO.N,SYNC_N*%
X113823196Y-132089721D03*
%TD*%
D15*
%TO.P,FID1,*%
%TO.N,*%
X102616809Y-122995540D03*
%TD*%
D16*
%TO.P,C34,1*%
%TO.N,+3.3V*%
X121943281Y-121920000D03*
%TO.P,C34,2*%
%TO.N,GND*%
X121303281Y-121920000D03*
%TD*%
D17*
%TO.P,U14,1*%
%TO.N,+5V_USB*%
X143911190Y-126923039D03*
%TO.P,U14,2*%
%TO.N,GND*%
X143911190Y-127873039D03*
%TO.P,U14,3*%
%TO.N,USB_BUS_EN*%
X143911190Y-128823039D03*
%TO.P,U14,4*%
%TO.N,USB_PWR_FAULT*%
X146186190Y-128823039D03*
%TO.P,U14,5*%
%TO.N,USB_ILIM*%
X146186190Y-127873039D03*
%TO.P,U14,6*%
%TO.N,USB_BUS_SW*%
X146186190Y-126923039D03*
%TD*%
D12*
%TO.P,R16,1*%
%TO.N,RAIL_MON*%
X137390000Y-120800000D03*
%TO.P,R16,2*%
%TO.N,GND*%
X138410000Y-120800000D03*
%TD*%
D18*
%TO.P,R28,1*%
%TO.N,USB_ILIM*%
X147023393Y-131322740D03*
%TO.P,R28,2*%
%TO.N,USB_ILIM_LOW*%
X146003393Y-131322740D03*
%TD*%
D19*
%TO.P,J4,1*%
%TO.N,+5V_BUS*%
X103886746Y-127846463D03*
%TO.P,J4,2*%
%TO.N,GND*%
X103886746Y-129096463D03*
%TO.P,J4,3*%
%TO.N,BUS_P*%
X103886746Y-130346463D03*
%TO.P,J4,4*%
%TO.N,BUS_N*%
X103886746Y-131596463D03*
%TO.P,J4,5*%
%TO.N,SYNC_P*%
X103886746Y-132846463D03*
%TO.P,J4,6*%
%TO.N,SYNC_N*%
X103886746Y-134096463D03*
D20*
%TO.P,J4,MP*%
%TO.N,GND*%
X100686746Y-125996463D03*
X100686746Y-135946463D03*
%TD*%
D16*
%TO.P,C24,1*%
%TO.N,VCORE*%
X121819484Y-119914973D03*
%TO.P,C24,2*%
%TO.N,GND*%
X121179484Y-119914973D03*
%TD*%
D21*
%TO.P,C39,1*%
%TO.N,+5V_BUS*%
X99811746Y-121701480D03*
%TO.P,C39,2*%
%TO.N,GND*%
X99811746Y-123601480D03*
%TD*%
D22*
%TO.P,D4,1*%
%TO.N,+5V_BUS*%
X148189690Y-129733463D03*
%TO.P,D4,2*%
%TO.N,USB_BUS_SW*%
X148189690Y-126933463D03*
%TD*%
D18*
%TO.P,R20,1*%
%TO.N,RUN*%
X121383593Y-123400720D03*
%TO.P,R20,2*%
%TO.N,+3.3V*%
X120363593Y-123400720D03*
%TD*%
%TO.P,R17,1*%
%TO.N,STATUS*%
X148010000Y-136356463D03*
%TO.P,R17,2*%
%TO.N,LED_A*%
X146990000Y-136356463D03*
%TD*%
%TO.P,R21,1*%
%TO.N,AMP_A*%
X136510000Y-120920000D03*
%TO.P,R21,2*%
%TO.N,ADC_A*%
X135490000Y-120920000D03*
%TD*%
D23*
%TO.P,C2,1*%
%TO.N,ROW_VCC*%
X115072132Y-116920000D03*
%TO.P,C2,2*%
%TO.N,GND*%
X115072132Y-117880000D03*
%TD*%
D18*
%TO.P,R6,1*%
%TO.N,GAIN_A*%
X157237354Y-118731295D03*
%TO.P,R6,2*%
%TO.N,AMP_A*%
X156217354Y-118731295D03*
%TD*%
D24*
%TO.P,C12,1*%
%TO.N,+3.3V*%
X117530746Y-130699999D03*
%TO.P,C12,2*%
%TO.N,GND*%
X118490746Y-130699999D03*
%TD*%
D25*
%TO.P,J2,1*%
%TO.N,COL_0*%
X147090487Y-106296643D03*
%TO.P,J2,2*%
%TO.N,COL_1*%
X146590487Y-106296643D03*
%TO.P,J2,3*%
%TO.N,COL_2*%
X146090487Y-106296643D03*
%TO.P,J2,4*%
%TO.N,COL_3*%
X145590487Y-106296643D03*
%TO.P,J2,5*%
%TO.N,COL_4*%
X145090487Y-106296643D03*
%TO.P,J2,6*%
%TO.N,COL_5*%
X144590487Y-106296643D03*
%TO.P,J2,7*%
%TO.N,COL_6*%
X144090487Y-106296643D03*
%TO.P,J2,8*%
%TO.N,COL_7*%
X143590487Y-106296643D03*
%TO.P,J2,9*%
%TO.N,COL_8*%
X143090487Y-106296643D03*
%TO.P,J2,10*%
%TO.N,COL_9*%
X142590487Y-106296643D03*
%TO.P,J2,11*%
%TO.N,COL_10*%
X142090487Y-106296643D03*
%TO.P,J2,12*%
%TO.N,COL_11*%
X141590487Y-106296643D03*
%TO.P,J2,13*%
%TO.N,COL_12*%
X141090487Y-106296643D03*
%TO.P,J2,14*%
%TO.N,COL_13*%
X140590487Y-106296643D03*
%TO.P,J2,15*%
%TO.N,COL_14*%
X140090487Y-106296643D03*
%TO.P,J2,16*%
%TO.N,COL_15*%
X139590487Y-106296643D03*
%TO.P,J2,17*%
%TO.N,COL_16*%
X139090487Y-106296643D03*
%TO.P,J2,18*%
%TO.N,COL_17*%
X138590487Y-106296643D03*
%TO.P,J2,19*%
%TO.N,COL_18*%
X138090487Y-106296643D03*
%TO.P,J2,20*%
%TO.N,COL_19*%
X137590487Y-106296643D03*
%TO.P,J2,21*%
%TO.N,COL_20*%
X137090487Y-106296643D03*
%TO.P,J2,22*%
%TO.N,COL_21*%
X136590487Y-106296643D03*
%TO.P,J2,23*%
%TO.N,COL_22*%
X136090487Y-106296643D03*
%TO.P,J2,24*%
%TO.N,COL_23*%
X135590487Y-106296643D03*
%TO.P,J2,25*%
%TO.N,COL_24*%
X135090487Y-106296643D03*
%TO.P,J2,26*%
%TO.N,COL_25*%
X134590487Y-106296643D03*
%TO.P,J2,27*%
%TO.N,COL_26*%
X134090487Y-106296643D03*
%TO.P,J2,28*%
%TO.N,COL_27*%
X133590487Y-106296643D03*
%TO.P,J2,29*%
%TO.N,COL_28*%
X133090487Y-106296643D03*
%TO.P,J2,30*%
%TO.N,COL_29*%
X132590487Y-106296643D03*
%TO.P,J2,31*%
%TO.N,COL_30*%
X132090487Y-106296643D03*
%TO.P,J2,32*%
%TO.N,COL_31*%
X131590487Y-106296643D03*
D26*
%TO.P,J2,MP*%
%TO.N,GND*%
X148990487Y-103046643D03*
X139690487Y-103046643D03*
X137690487Y-103046643D03*
X129690487Y-103046643D03*
%TD*%
D27*
%TO.P,C5,1*%
%TO.N,+3.3V*%
X148034606Y-115701596D03*
%TO.P,C5,2*%
%TO.N,GND*%
X147074606Y-115701596D03*
%TD*%
D28*
%TO.P,J6,1*%
%TO.N,SWDIO*%
X111018512Y-135181463D03*
D29*
%TO.P,J6,2*%
%TO.N,SWCLK*%
X113558512Y-135181463D03*
%TO.P,J6,3*%
%TO.N,GND*%
X116098512Y-135181463D03*
%TO.P,J6,4*%
%TO.N,RUN*%
X118638512Y-135181463D03*
%TD*%
D12*
%TO.P,R24,1*%
%TO.N,USB_D_N*%
X130439999Y-116000000D03*
%TO.P,R24,2*%
%TO.N,USBC_D_N*%
X131459999Y-116000000D03*
%TD*%
D30*
%TO.P,U9,1*%
%TO.N,+3.3V*%
X123055926Y-117851214D03*
%TO.P,U9,2*%
%TO.N,USB_ILIM_HI*%
X123055926Y-118251214D03*
%TO.P,U9,3*%
%TO.N,ROW_LATCH_MCU*%
X123055926Y-118651214D03*
%TO.P,U9,4*%
%TO.N,ROW_CLK_MCU*%
X123055926Y-119051214D03*
%TO.P,U9,5*%
%TO.N,ROW_DATA*%
X123055926Y-119451214D03*
%TO.P,U9,6*%
%TO.N,VCORE*%
X123055926Y-119851214D03*
%TO.P,U9,7*%
%TO.N,MUX_S0*%
X123055926Y-120251214D03*
%TO.P,U9,8*%
%TO.N,MUX_S1*%
X123055926Y-120651214D03*
%TO.P,U9,9*%
%TO.N,MUX_S2*%
X123055926Y-121051214D03*
%TO.P,U9,10*%
%TO.N,MUX_S3*%
X123055926Y-121451214D03*
%TO.P,U9,11*%
%TO.N,+3.3V*%
X123055926Y-121851214D03*
%TO.P,U9,12*%
%TO.N,BUS_DI*%
X123055926Y-122251214D03*
%TO.P,U9,13*%
%TO.N,BUS_RO*%
X123055926Y-122651214D03*
%TO.P,U9,14*%
%TO.N,BUS_DE*%
X123055926Y-123051214D03*
%TO.P,U9,15*%
%TO.N,SYNC_OUT*%
X123055926Y-123451214D03*
D31*
%TO.P,U9,16*%
%TO.N,N/C*%
X123705926Y-124101214D03*
%TO.P,U9,17*%
%TO.N,SYNC_DE*%
X124105926Y-124101214D03*
%TO.P,U9,18*%
%TO.N,N/C*%
X124505926Y-124101214D03*
%TO.P,U9,19*%
X124905926Y-124101214D03*
%TO.P,U9,20*%
%TO.N,+3.3V*%
X125305926Y-124101214D03*
%TO.P,U9,21*%
%TO.N,XIN*%
X125705926Y-124101214D03*
%TO.P,U9,22*%
%TO.N,XOUT_MCU*%
X126105926Y-124101214D03*
%TO.P,U9,23*%
%TO.N,VCORE*%
X126505926Y-124101214D03*
%TO.P,U9,24*%
%TO.N,SWCLK*%
X126905926Y-124101214D03*
%TO.P,U9,25*%
%TO.N,SWDIO*%
X127305926Y-124101214D03*
%TO.P,U9,26*%
%TO.N,RUN*%
X127705926Y-124101214D03*
%TO.P,U9,27*%
%TO.N,N/C*%
X128105926Y-124101214D03*
%TO.P,U9,28*%
X128505926Y-124101214D03*
%TO.P,U9,29*%
%TO.N,USB_CC_OUT1*%
X128905926Y-124101214D03*
%TO.P,U9,30*%
%TO.N,+3.3V*%
X129305926Y-124101214D03*
D30*
%TO.P,U9,31*%
%TO.N,USB_CC_OUT2*%
X129955926Y-123451214D03*
%TO.P,U9,32*%
%TO.N,ADDR0*%
X129955926Y-123051214D03*
%TO.P,U9,33*%
%TO.N,ADDR1*%
X129955926Y-122651214D03*
%TO.P,U9,34*%
%TO.N,ADDR2*%
X129955926Y-122251214D03*
%TO.P,U9,35*%
%TO.N,USB_PWR_FAULT*%
X129955926Y-121851214D03*
%TO.P,U9,36*%
%TO.N,USB_BUS_EN*%
X129955926Y-121451214D03*
%TO.P,U9,37*%
%TO.N,STATUS*%
X129955926Y-121051214D03*
%TO.P,U9,38*%
%TO.N,+3.3V*%
X129955926Y-120651214D03*
%TO.P,U9,39*%
%TO.N,VCORE*%
X129955926Y-120251214D03*
%TO.P,U9,40*%
%TO.N,N/C*%
X129955926Y-119851214D03*
%TO.P,U9,41*%
%TO.N,ADC_A*%
X129955926Y-119451214D03*
%TO.P,U9,42*%
%TO.N,RAIL_MON*%
X129955926Y-119051214D03*
%TO.P,U9,43*%
%TO.N,ADC_B*%
X129955926Y-118651214D03*
%TO.P,U9,44*%
%TO.N,ADC_AVDD*%
X129955926Y-118251214D03*
%TO.P,U9,45*%
%TO.N,+3.3V*%
X129955926Y-117851214D03*
D31*
%TO.P,U9,46*%
%TO.N,VREG_AVDD*%
X129305926Y-117201214D03*
%TO.P,U9,47*%
%TO.N,GND*%
X128905926Y-117201214D03*
%TO.P,U9,48*%
%TO.N,VREG_LX*%
X128505926Y-117201214D03*
%TO.P,U9,49*%
%TO.N,+3.3V*%
X128105926Y-117201214D03*
%TO.P,U9,50*%
%TO.N,VCORE*%
X127705926Y-117201214D03*
%TO.P,U9,51*%
%TO.N,USB_D_N*%
X127305926Y-117201214D03*
%TO.P,U9,52*%
%TO.N,USB_D_P*%
X126905926Y-117201214D03*
%TO.P,U9,53*%
%TO.N,+3.3V*%
X126505926Y-117201214D03*
%TO.P,U9,54*%
X126105926Y-117201214D03*
%TO.P,U9,55*%
%TO.N,N/C*%
X125705926Y-117201214D03*
%TO.P,U9,56*%
X125305926Y-117201214D03*
%TO.P,U9,57*%
X124905926Y-117201214D03*
%TO.P,U9,58*%
X124505926Y-117201214D03*
%TO.P,U9,59*%
X124105926Y-117201214D03*
%TO.P,U9,60*%
%TO.N,BOOTSEL*%
X123705926Y-117201214D03*
D32*
%TO.P,U9,61*%
%TO.N,GND*%
X126505926Y-120651214D03*
%TD*%
D33*
%TO.P,JP1,1*%
%TO.N,ADDR0*%
X121399512Y-135701463D03*
%TO.P,JP1,2*%
%TO.N,GND*%
X122699512Y-135701463D03*
%TD*%
D34*
%TO.P,C22,1*%
%TO.N,+5V*%
X109195714Y-121170578D03*
%TO.P,C22,2*%
%TO.N,GND*%
X109195714Y-119620578D03*
%TD*%
D12*
%TO.P,R27,1*%
%TO.N,USB_ILIM*%
X149106879Y-131238110D03*
%TO.P,R27,2*%
%TO.N,GND*%
X150126879Y-131238110D03*
%TD*%
D18*
%TO.P,R8,1*%
%TO.N,GAIN_B*%
X158305098Y-121098338D03*
%TO.P,R8,2*%
%TO.N,AMP_B*%
X157285098Y-121098338D03*
%TD*%
D35*
%TO.P,C20,1*%
%TO.N,XIN*%
X122507075Y-130780000D03*
%TO.P,C20,2*%
%TO.N,GND*%
X122507075Y-129820000D03*
%TD*%
D36*
%TO.P,D3,1*%
%TO.N,GND*%
X143212500Y-136101463D03*
%TO.P,D3,2*%
%TO.N,LED_A*%
X144787500Y-136101463D03*
%TD*%
D37*
%TO.P,U13,1*%
%TO.N,USB_CC1*%
X131799652Y-125639861D03*
%TO.P,U13,2*%
%TO.N,USB_CC2*%
X131799652Y-126039861D03*
D38*
%TO.P,U13,3*%
%TO.N,GND*%
X131924652Y-126664861D03*
%TO.P,U13,4*%
%TO.N,USB_VBUS_DET*%
X132324652Y-126664861D03*
%TO.P,U13,5*%
%TO.N,N/C*%
X132724652Y-126664861D03*
%TO.P,U13,6*%
X133124652Y-126664861D03*
D37*
%TO.P,U13,7*%
%TO.N,USB_CC_OUT1*%
X133249652Y-126039861D03*
%TO.P,U13,8*%
%TO.N,USB_CC_OUT2*%
X133249652Y-125639861D03*
D38*
%TO.P,U13,9*%
%TO.N,N/C*%
X133124652Y-125014861D03*
%TO.P,U13,10*%
%TO.N,GND*%
X132724652Y-125014861D03*
%TO.P,U13,11*%
X132324652Y-125014861D03*
%TO.P,U13,12*%
%TO.N,+3.3V*%
X131924652Y-125014861D03*
%TD*%
D18*
%TO.P,R18,1*%
%TO.N,+3.3V*%
X105297807Y-123263716D03*
%TO.P,R18,2*%
%TO.N,FB*%
X104277807Y-123263716D03*
%TD*%
%TO.P,R3,1*%
%TO.N,ROW_CLK_MCU*%
X119552399Y-120200000D03*
%TO.P,R3,2*%
%TO.N,ROW_CLK*%
X118532399Y-120200000D03*
%TD*%
D33*
%TO.P,JP2,1*%
%TO.N,ADDR1*%
X124690512Y-135675340D03*
%TO.P,JP2,2*%
%TO.N,GND*%
X125990512Y-135675340D03*
%TD*%
D24*
%TO.P,C45,1*%
%TO.N,RAIL_MON*%
X137420000Y-119800000D03*
%TO.P,C45,2*%
%TO.N,GND*%
X138380000Y-119800000D03*
%TD*%
D39*
%TO.P,R1,1*%
%TO.N,SENSE_A*%
X158494244Y-117290000D03*
%TO.P,R1,2*%
%TO.N,GND*%
X158494244Y-118310000D03*
%TD*%
D40*
%TO.P,U2,1*%
%TO.N,ROW_9*%
X115345501Y-109767085D03*
%TO.P,U2,2*%
%TO.N,ROW_10*%
X114695501Y-109767085D03*
%TO.P,U2,3*%
%TO.N,ROW_11*%
X114045501Y-109767085D03*
%TO.P,U2,4*%
%TO.N,ROW_12*%
X113395501Y-109767085D03*
%TO.P,U2,5*%
%TO.N,ROW_13*%
X112745501Y-109767085D03*
%TO.P,U2,6*%
%TO.N,ROW_14*%
X112095501Y-109767085D03*
%TO.P,U2,7*%
%TO.N,ROW_15*%
X111445501Y-109767085D03*
%TO.P,U2,8*%
%TO.N,GND*%
X110795501Y-109767085D03*
%TO.P,U2,9*%
%TO.N,SR_CHAIN_2*%
X110795501Y-115492085D03*
%TO.P,U2,10*%
%TO.N,ROW_VCC*%
X111445501Y-115492085D03*
%TO.P,U2,11*%
%TO.N,ROW_CLK*%
X112095501Y-115492085D03*
%TO.P,U2,12*%
%TO.N,ROW_LATCH*%
X112745501Y-115492085D03*
%TO.P,U2,13*%
%TO.N,GND*%
X113395501Y-115492085D03*
%TO.P,U2,14*%
%TO.N,SR_CHAIN_1*%
X114045501Y-115492085D03*
%TO.P,U2,15*%
%TO.N,ROW_8*%
X114695501Y-115492085D03*
%TO.P,U2,16*%
%TO.N,ROW_VCC*%
X115345501Y-115492085D03*
%TD*%
D11*
%TO.P,C15,1*%
%TO.N,+3.3V*%
X131230000Y-117920000D03*
%TO.P,C15,2*%
%TO.N,GND*%
X131870000Y-117920000D03*
%TD*%
D39*
%TO.P,R35,1*%
%TO.N,+3.3V*%
X130415088Y-110985553D03*
%TO.P,R35,2*%
%TO.N,VREG_AVDD*%
X130415088Y-112005553D03*
%TD*%
D41*
%TO.P,D2,1*%
%TO.N,+5V*%
X151488161Y-134251154D03*
%TO.P,D2,2*%
%TO.N,+5V_USB*%
X151488161Y-132151154D03*
%TD*%
D23*
%TO.P,C31,1*%
%TO.N,ADC_A*%
X134500000Y-119920000D03*
%TO.P,C31,2*%
%TO.N,GND*%
X134500000Y-120880000D03*
%TD*%
D42*
%TO.P,R32,1*%
%TO.N,USB_CC_OUT1*%
X134876120Y-125265375D03*
%TO.P,R32,2*%
%TO.N,+3.3V*%
X134876120Y-124245375D03*
%TD*%
D18*
%TO.P,R4,1*%
%TO.N,ROW_LATCH_MCU*%
X119480726Y-119000000D03*
%TO.P,R4,2*%
%TO.N,ROW_LATCH*%
X118460726Y-119000000D03*
%TD*%
%TO.P,R22,1*%
%TO.N,AMP_B*%
X136510000Y-119280000D03*
%TO.P,R22,2*%
%TO.N,ADC_B*%
X135490000Y-119280000D03*
%TD*%
D16*
%TO.P,C33,1*%
%TO.N,+3.3V*%
X121939987Y-117919189D03*
%TO.P,C33,2*%
%TO.N,GND*%
X121299987Y-117919189D03*
%TD*%
D11*
%TO.P,C14,1*%
%TO.N,+3.3V*%
X131230000Y-120720000D03*
%TO.P,C14,2*%
%TO.N,GND*%
X131870000Y-120720000D03*
%TD*%
D15*
%TO.P,FID3,*%
%TO.N,*%
X157839246Y-102649745D03*
%TD*%
D12*
%TO.P,R2,1*%
%TO.N,SENSE_B*%
X153835246Y-124000000D03*
%TO.P,R2,2*%
%TO.N,GND*%
X154855246Y-124000000D03*
%TD*%
D18*
%TO.P,R31,1*%
%TO.N,USB_PWR_FAULT*%
X121360000Y-125600000D03*
%TO.P,R31,2*%
%TO.N,+3.3V*%
X120340000Y-125600000D03*
%TD*%
D35*
%TO.P,C42,1*%
%TO.N,+5V_USB*%
X143515249Y-125843546D03*
%TO.P,C42,2*%
%TO.N,GND*%
X143515249Y-124883546D03*
%TD*%
D39*
%TO.P,R33,1*%
%TO.N,USB_CC_OUT2*%
X134742292Y-126096375D03*
%TO.P,R33,2*%
%TO.N,+3.3V*%
X134742292Y-127116375D03*
%TD*%
D43*
%TO.P,D5,1*%
%TO.N,USBC_D_P*%
X138250000Y-126537500D03*
D44*
%TO.P,D5,2*%
%TO.N,GND*%
X138325000Y-126000000D03*
D43*
%TO.P,D5,3*%
%TO.N,USBC_D_N*%
X138250000Y-125462500D03*
%TO.P,D5,4*%
X136550000Y-125462500D03*
D44*
%TO.P,D5,5*%
%TO.N,+5V_USB*%
X136475000Y-126000000D03*
D43*
%TO.P,D5,6*%
%TO.N,USBC_D_P*%
X136550000Y-126537500D03*
%TD*%
D45*
%TO.P,C11,1*%
%TO.N,+3.3V*%
X125301625Y-125605851D03*
%TO.P,C11,2*%
%TO.N,GND*%
X125301625Y-126245851D03*
%TD*%
D18*
%TO.P,R30,1*%
%TO.N,USB_BUS_EN*%
X121360000Y-124500000D03*
%TO.P,R30,2*%
%TO.N,GND*%
X120340000Y-124500000D03*
%TD*%
D46*
%TO.P,U12,1*%
%TO.N,+5V*%
X107562214Y-121121716D03*
%TO.P,U12,2*%
%TO.N,GND*%
X107562214Y-120171716D03*
%TO.P,U12,3*%
%TO.N,SW_NODE*%
X107562214Y-119221716D03*
%TO.P,U12,4*%
%TO.N,+5V*%
X105287214Y-119221716D03*
%TO.P,U12,5*%
%TO.N,FB*%
X105287214Y-121121716D03*
%TD*%
D23*
%TO.P,C1,1*%
%TO.N,ROW_VCC*%
X120451616Y-116920000D03*
%TO.P,C1,2*%
%TO.N,GND*%
X120451616Y-117880000D03*
%TD*%
D47*
%TO.P,U5,1*%
%TO.N,SENSE_A*%
X156655606Y-116067022D03*
%TO.P,U5,2*%
%TO.N,COL_7*%
X156655606Y-115417022D03*
%TO.P,U5,3*%
%TO.N,COL_6*%
X156655606Y-114767022D03*
%TO.P,U5,4*%
%TO.N,COL_5*%
X156655606Y-114117022D03*
%TO.P,U5,5*%
%TO.N,COL_4*%
X156655606Y-113467022D03*
%TO.P,U5,6*%
%TO.N,COL_3*%
X156655606Y-112817022D03*
%TO.P,U5,7*%
%TO.N,COL_2*%
X156655606Y-112167022D03*
%TO.P,U5,8*%
%TO.N,COL_1*%
X156655606Y-111517022D03*
%TO.P,U5,9*%
%TO.N,COL_0*%
X156655606Y-110867022D03*
%TO.P,U5,10*%
%TO.N,MUX_S0*%
X156655606Y-110217022D03*
%TO.P,U5,11*%
%TO.N,MUX_S1*%
X156655606Y-109567022D03*
%TO.P,U5,12*%
%TO.N,GND*%
X156655606Y-108917022D03*
%TO.P,U5,13*%
%TO.N,MUX_S3*%
X149655606Y-108917022D03*
%TO.P,U5,14*%
%TO.N,MUX_S2*%
X149655606Y-109567022D03*
%TO.P,U5,15*%
%TO.N,GND*%
X149655606Y-110217022D03*
%TO.P,U5,16*%
%TO.N,COL_15*%
X149655606Y-110867022D03*
%TO.P,U5,17*%
%TO.N,COL_14*%
X149655606Y-111517022D03*
%TO.P,U5,18*%
%TO.N,COL_13*%
X149655606Y-112167022D03*
%TO.P,U5,19*%
%TO.N,COL_12*%
X149655606Y-112817022D03*
%TO.P,U5,20*%
%TO.N,COL_11*%
X149655606Y-113467022D03*
%TO.P,U5,21*%
%TO.N,COL_10*%
X149655606Y-114117022D03*
%TO.P,U5,22*%
%TO.N,COL_9*%
X149655606Y-114767022D03*
%TO.P,U5,23*%
%TO.N,COL_8*%
X149655606Y-115417022D03*
%TO.P,U5,24*%
%TO.N,+3.3V*%
X149655606Y-116067022D03*
%TD*%
D42*
%TO.P,R37,1*%
%TO.N,SYNC_DE*%
X111399999Y-125109999D03*
%TO.P,R37,2*%
%TO.N,GND*%
X111399999Y-124089999D03*
%TD*%
D18*
%TO.P,R19,1*%
%TO.N,FB*%
X105278867Y-122332716D03*
%TO.P,R19,2*%
%TO.N,GND*%
X104258867Y-122332716D03*
%TD*%
D48*
%TO.P,L2,1*%
%TO.N,SW_NODE*%
X111496714Y-119505989D03*
%TO.P,L2,2*%
%TO.N,+3.3V*%
X111496714Y-122305989D03*
%TD*%
D24*
%TO.P,C21,1*%
%TO.N,XOUT*%
X128520000Y-129449999D03*
%TO.P,C21,2*%
%TO.N,GND*%
X129480000Y-129449999D03*
%TD*%
D49*
%TO.P,Q1,1*%
%TO.N,USB_ILIM_HI*%
X148387500Y-134350000D03*
%TO.P,Q1,2*%
%TO.N,GND*%
X148387500Y-133050000D03*
%TO.P,Q1,3*%
%TO.N,USB_ILIM_LOW*%
X146612500Y-133700000D03*
%TD*%
D42*
%TO.P,R29,1*%
%TO.N,USB_ILIM_HI*%
X145000000Y-134510000D03*
%TO.P,R29,2*%
%TO.N,GND*%
X145000000Y-133490000D03*
%TD*%
D12*
%TO.P,R7,1*%
%TO.N,GAIN_A*%
X156343970Y-119845242D03*
%TO.P,R7,2*%
%TO.N,GND*%
X157363970Y-119845242D03*
%TD*%
D23*
%TO.P,C6,1*%
%TO.N,+3.3V*%
X137985070Y-117356162D03*
%TO.P,C6,2*%
%TO.N,GND*%
X137985070Y-118316162D03*
%TD*%
D50*
%TO.P,J5,A1*%
%TO.N,GND*%
X132342512Y-128756463D03*
%TO.P,J5,A4*%
%TO.N,+5V_USB*%
X133142512Y-128756463D03*
D51*
%TO.P,J5,A5*%
%TO.N,USB_CC1*%
X134342512Y-128756463D03*
%TO.P,J5,A6*%
%TO.N,USBC_D_P*%
X135342512Y-128756463D03*
%TO.P,J5,A7*%
%TO.N,USBC_D_N*%
X135842512Y-128756463D03*
%TO.P,J5,A8*%
%TO.N,N/C*%
X136842512Y-128756463D03*
D50*
%TO.P,J5,A9*%
%TO.N,+5V_USB*%
X138042512Y-128756463D03*
%TO.P,J5,A12*%
%TO.N,GND*%
X138842512Y-128756463D03*
%TO.P,J5,B1*%
X138842512Y-128756463D03*
%TO.P,J5,B4*%
%TO.N,+5V_USB*%
X138042512Y-128756463D03*
D51*
%TO.P,J5,B5*%
%TO.N,USB_CC2*%
X137342512Y-128756463D03*
%TO.P,J5,B6*%
%TO.N,USBC_D_P*%
X136342512Y-128756463D03*
%TO.P,J5,B7*%
%TO.N,USBC_D_N*%
X134842512Y-128756463D03*
%TO.P,J5,B8*%
%TO.N,N/C*%
X133842512Y-128756463D03*
D50*
%TO.P,J5,B9*%
%TO.N,+5V_USB*%
X133142512Y-128756463D03*
%TO.P,J5,B12*%
%TO.N,GND*%
X132342512Y-128756463D03*
D52*
%TO.P,J5,SH*%
X131272512Y-129671463D03*
D53*
X131272512Y-133851463D03*
D52*
X139912512Y-129671463D03*
D53*
X139912512Y-133851463D03*
%TD*%
D12*
%TO.P,R23,1*%
%TO.N,USB_D_P*%
X128430000Y-113500000D03*
%TO.P,R23,2*%
%TO.N,USBC_D_P*%
X129450000Y-113500000D03*
%TD*%
D35*
%TO.P,C28,1*%
%TO.N,+3.3V*%
X121762430Y-116080000D03*
%TO.P,C28,2*%
%TO.N,GND*%
X121762430Y-115120000D03*
%TD*%
D18*
%TO.P,R25,1*%
%TO.N,BOOTSEL*%
X126260000Y-105600000D03*
%TO.P,R25,2*%
%TO.N,BOOTSEL_SW*%
X125240000Y-105600000D03*
%TD*%
D54*
%TO.P,U11,1*%
%TO.N,SYNC_OUT*%
X116554746Y-125188512D03*
%TO.P,U11,2*%
%TO.N,GND*%
X115284746Y-125188512D03*
%TO.P,U11,3*%
%TO.N,SYNC_DE*%
X114014746Y-125188512D03*
%TO.P,U11,4*%
%TO.N,GND*%
X112744746Y-125188512D03*
%TO.P,U11,5*%
X112744746Y-130138512D03*
%TO.P,U11,6*%
%TO.N,SYNC_P*%
X114014746Y-130138512D03*
%TO.P,U11,7*%
%TO.N,SYNC_N*%
X115284746Y-130138512D03*
%TO.P,U11,8*%
%TO.N,+3.3V*%
X116554746Y-130138512D03*
%TD*%
D35*
%TO.P,C38,1*%
%TO.N,+5V_USB*%
X139430861Y-126930562D03*
%TO.P,C38,2*%
%TO.N,GND*%
X139430861Y-125970562D03*
%TD*%
D55*
%TO.P,C19,1*%
%TO.N,VCORE*%
X124775000Y-115500000D03*
%TO.P,C19,2*%
%TO.N,GND*%
X123225000Y-115500000D03*
%TD*%
D56*
%TO.P,U7,1*%
%TO.N,AMP_A*%
X155031354Y-118086616D03*
%TO.P,U7,2*%
%TO.N,GAIN_A*%
X154381354Y-118086616D03*
%TO.P,U7,3*%
%TO.N,SENSE_A*%
X153731354Y-118086616D03*
%TO.P,U7,4*%
%TO.N,GND*%
X153081354Y-118086616D03*
%TO.P,U7,5*%
%TO.N,SENSE_B*%
X153081354Y-122311616D03*
%TO.P,U7,6*%
%TO.N,GAIN_B*%
X153731354Y-122311616D03*
%TO.P,U7,7*%
%TO.N,AMP_B*%
X154381354Y-122311616D03*
%TO.P,U7,8*%
%TO.N,+3.3V*%
X155031354Y-122311616D03*
%TD*%
D12*
%TO.P,R34,1*%
%TO.N,+5V_USB*%
X128828815Y-127568154D03*
%TO.P,R34,2*%
%TO.N,USB_VBUS_DET*%
X129848815Y-127568154D03*
%TD*%
D45*
%TO.P,C25,1*%
%TO.N,VCORE*%
X126500000Y-125630000D03*
%TO.P,C25,2*%
%TO.N,GND*%
X126500000Y-126270000D03*
%TD*%
D18*
%TO.P,R15,1*%
%TO.N,+5V*%
X140410000Y-119100000D03*
%TO.P,R15,2*%
%TO.N,RAIL_MON*%
X139390000Y-119100000D03*
%TD*%
D57*
%TO.P,C18,1*%
%TO.N,+3.3V*%
X126500000Y-115920000D03*
%TO.P,C18,2*%
%TO.N,GND*%
X126500000Y-115280000D03*
%TD*%
D58*
%TO.P,J3,1*%
%TO.N,+5V_BUS*%
X154039244Y-134096463D03*
%TO.P,J3,2*%
%TO.N,GND*%
X154039244Y-132846463D03*
%TO.P,J3,3*%
%TO.N,BUS_P*%
X154039244Y-131596463D03*
%TO.P,J3,4*%
%TO.N,BUS_N*%
X154039244Y-130346463D03*
%TO.P,J3,5*%
%TO.N,SYNC_P*%
X154039244Y-129096463D03*
%TO.P,J3,6*%
%TO.N,SYNC_N*%
X154039244Y-127846463D03*
D59*
%TO.P,J3,MP*%
%TO.N,GND*%
X157239244Y-135946463D03*
X157239244Y-125996463D03*
%TD*%
D60*
%TO.P,Y1,1*%
%TO.N,XIN*%
X124800000Y-130980197D03*
%TO.P,Y1,2*%
%TO.N,GND*%
X127000000Y-130980197D03*
%TO.P,Y1,3*%
%TO.N,XOUT*%
X127000000Y-129280197D03*
%TO.P,Y1,4*%
%TO.N,GND*%
X124800000Y-129280197D03*
%TD*%
D55*
%TO.P,C44,1*%
%TO.N,+3.3V*%
X123864952Y-113400000D03*
%TO.P,C44,2*%
%TO.N,GND*%
X122314952Y-113400000D03*
%TD*%
D14*
%TO.P,R11,1*%
%TO.N,BUS_P*%
X106515326Y-132050927D03*
%TO.P,R11,2*%
%TO.N,BUS_N*%
X108165326Y-132050927D03*
%TD*%
D15*
%TO.P,FID2,*%
%TO.N,*%
X146650000Y-119700000D03*
%TD*%
D45*
%TO.P,C13,1*%
%TO.N,+3.3V*%
X129300000Y-125363536D03*
%TO.P,C13,2*%
%TO.N,GND*%
X129300000Y-126003536D03*
%TD*%
D23*
%TO.P,C27,1*%
%TO.N,+5V*%
X103540000Y-119740000D03*
%TO.P,C27,2*%
%TO.N,GND*%
X103540000Y-120700000D03*
%TD*%
D34*
%TO.P,C43,1*%
%TO.N,VREG_AVDD*%
X130850000Y-114727105D03*
%TO.P,C43,2*%
%TO.N,GND*%
X130850000Y-113177105D03*
%TD*%
D57*
%TO.P,C17,1*%
%TO.N,+3.3V*%
X128099001Y-115920065D03*
%TO.P,C17,2*%
%TO.N,GND*%
X128099001Y-115280065D03*
%TD*%
D23*
%TO.P,C40,1*%
%TO.N,+3.3V*%
X130400000Y-125203088D03*
%TO.P,C40,2*%
%TO.N,GND*%
X130400000Y-126163088D03*
%TD*%
D54*
%TO.P,U10,1*%
%TO.N,BUS_RO*%
X109832746Y-124949716D03*
%TO.P,U10,2*%
%TO.N,BUS_DE*%
X108562746Y-124949716D03*
%TO.P,U10,3*%
X107292746Y-124949716D03*
%TO.P,U10,4*%
%TO.N,BUS_DI*%
X106022746Y-124949716D03*
%TO.P,U10,5*%
%TO.N,GND*%
X106022746Y-129899716D03*
%TO.P,U10,6*%
%TO.N,BUS_P*%
X107292746Y-129899716D03*
%TO.P,U10,7*%
%TO.N,BUS_N*%
X108562746Y-129899716D03*
%TO.P,U10,8*%
%TO.N,+3.3V*%
X109832746Y-129899716D03*
%TD*%
D11*
%TO.P,C35,1*%
%TO.N,VCORE*%
X132780000Y-120320000D03*
%TO.P,C35,2*%
%TO.N,GND*%
X133420000Y-120320000D03*
%TD*%
D40*
%TO.P,U4,1*%
%TO.N,ROW_25*%
X104363501Y-110066386D03*
%TO.P,U4,2*%
%TO.N,ROW_26*%
X103713501Y-110066386D03*
%TO.P,U4,3*%
%TO.N,ROW_27*%
X103063501Y-110066386D03*
%TO.P,U4,4*%
%TO.N,ROW_28*%
X102413501Y-110066386D03*
%TO.P,U4,5*%
%TO.N,ROW_29*%
X101763501Y-110066386D03*
%TO.P,U4,6*%
%TO.N,ROW_30*%
X101113501Y-110066386D03*
%TO.P,U4,7*%
%TO.N,ROW_31*%
X100463501Y-110066386D03*
%TO.P,U4,8*%
%TO.N,GND*%
X99813501Y-110066386D03*
%TO.P,U4,9*%
%TO.N,N/C*%
X99813501Y-115791386D03*
%TO.P,U4,10*%
%TO.N,ROW_VCC*%
X100463501Y-115791386D03*
%TO.P,U4,11*%
%TO.N,ROW_CLK*%
X101113501Y-115791386D03*
%TO.P,U4,12*%
%TO.N,ROW_LATCH*%
X101763501Y-115791386D03*
%TO.P,U4,13*%
%TO.N,GND*%
X102413501Y-115791386D03*
%TO.P,U4,14*%
%TO.N,SR_CHAIN_3*%
X103063501Y-115791386D03*
%TO.P,U4,15*%
%TO.N,ROW_24*%
X103713501Y-115791386D03*
%TO.P,U4,16*%
%TO.N,ROW_VCC*%
X104363501Y-115791386D03*
%TD*%
D61*
%TO.P,SW1,1*%
%TO.N,BOOTSEL_SW*%
X124197874Y-103048495D03*
%TO.P,SW1,2*%
%TO.N,GND*%
X127597874Y-103048495D03*
%TD*%
D47*
%TO.P,U6,1*%
%TO.N,SENSE_B*%
X143978151Y-116160162D03*
%TO.P,U6,2*%
%TO.N,COL_23*%
X143978151Y-115510162D03*
%TO.P,U6,3*%
%TO.N,COL_22*%
X143978151Y-114860162D03*
%TO.P,U6,4*%
%TO.N,COL_21*%
X143978151Y-114210162D03*
%TO.P,U6,5*%
%TO.N,COL_20*%
X143978151Y-113560162D03*
%TO.P,U6,6*%
%TO.N,COL_19*%
X143978151Y-112910162D03*
%TO.P,U6,7*%
%TO.N,COL_18*%
X143978151Y-112260162D03*
%TO.P,U6,8*%
%TO.N,COL_17*%
X143978151Y-111610162D03*
%TO.P,U6,9*%
%TO.N,COL_16*%
X143978151Y-110960162D03*
%TO.P,U6,10*%
%TO.N,MUX_S0*%
X143978151Y-110310162D03*
%TO.P,U6,11*%
%TO.N,MUX_S1*%
X143978151Y-109660162D03*
%TO.P,U6,12*%
%TO.N,GND*%
X143978151Y-109010162D03*
%TO.P,U6,13*%
%TO.N,MUX_S3*%
X136978151Y-109010162D03*
%TO.P,U6,14*%
%TO.N,MUX_S2*%
X136978151Y-109660162D03*
%TO.P,U6,15*%
%TO.N,GND*%
X136978151Y-110310162D03*
%TO.P,U6,16*%
%TO.N,COL_31*%
X136978151Y-110960162D03*
%TO.P,U6,17*%
%TO.N,COL_30*%
X136978151Y-111610162D03*
%TO.P,U6,18*%
%TO.N,COL_29*%
X136978151Y-112260162D03*
%TO.P,U6,19*%
%TO.N,COL_28*%
X136978151Y-112910162D03*
%TO.P,U6,20*%
%TO.N,COL_27*%
X136978151Y-113560162D03*
%TO.P,U6,21*%
%TO.N,COL_26*%
X136978151Y-114210162D03*
%TO.P,U6,22*%
%TO.N,COL_25*%
X136978151Y-114860162D03*
%TO.P,U6,23*%
%TO.N,COL_24*%
X136978151Y-115510162D03*
%TO.P,U6,24*%
%TO.N,+3.3V*%
X136978151Y-116160162D03*
%TD*%
D23*
%TO.P,C4,1*%
%TO.N,ROW_VCC*%
X104007887Y-117226894D03*
%TO.P,C4,2*%
%TO.N,GND*%
X104007887Y-118186894D03*
%TD*%
D62*
%TO.P,C46,1*%
%TO.N,USB_SNUB*%
X144750000Y-125100000D03*
%TO.P,C46,2*%
%TO.N,GND*%
X146650000Y-125100000D03*
%TD*%
D12*
%TO.P,R36,1*%
%TO.N,XOUT_MCU*%
X125640000Y-127900000D03*
%TO.P,R36,2*%
%TO.N,XOUT*%
X126660000Y-127900000D03*
%TD*%
D25*
%TO.P,J1,1*%
%TO.N,ROW_0*%
X120206863Y-106296643D03*
%TO.P,J1,2*%
%TO.N,ROW_1*%
X119706863Y-106296643D03*
%TO.P,J1,3*%
%TO.N,ROW_2*%
X119206863Y-106296643D03*
%TO.P,J1,4*%
%TO.N,ROW_3*%
X118706863Y-106296643D03*
%TO.P,J1,5*%
%TO.N,ROW_4*%
X118206863Y-106296643D03*
%TO.P,J1,6*%
%TO.N,ROW_5*%
X117706863Y-106296643D03*
%TO.P,J1,7*%
%TO.N,ROW_6*%
X117206863Y-106296643D03*
%TO.P,J1,8*%
%TO.N,ROW_7*%
X116706863Y-106296643D03*
%TO.P,J1,9*%
%TO.N,ROW_8*%
X116206863Y-106296643D03*
%TO.P,J1,10*%
%TO.N,ROW_9*%
X115706863Y-106296643D03*
%TO.P,J1,11*%
%TO.N,ROW_10*%
X115206863Y-106296643D03*
%TO.P,J1,12*%
%TO.N,ROW_11*%
X114706863Y-106296643D03*
%TO.P,J1,13*%
%TO.N,ROW_12*%
X114206863Y-106296643D03*
%TO.P,J1,14*%
%TO.N,ROW_13*%
X113706863Y-106296643D03*
%TO.P,J1,15*%
%TO.N,ROW_14*%
X113206863Y-106296643D03*
%TO.P,J1,16*%
%TO.N,ROW_15*%
X112706863Y-106296643D03*
%TO.P,J1,17*%
%TO.N,ROW_16*%
X112206863Y-106296643D03*
%TO.P,J1,18*%
%TO.N,ROW_17*%
X111706863Y-106296643D03*
%TO.P,J1,19*%
%TO.N,ROW_18*%
X111206863Y-106296643D03*
%TO.P,J1,20*%
%TO.N,ROW_19*%
X110706863Y-106296643D03*
%TO.P,J1,21*%
%TO.N,ROW_20*%
X110206863Y-106296643D03*
%TO.P,J1,22*%
%TO.N,ROW_21*%
X109706863Y-106296643D03*
%TO.P,J1,23*%
%TO.N,ROW_22*%
X109206863Y-106296643D03*
%TO.P,J1,24*%
%TO.N,ROW_23*%
X108706863Y-106296643D03*
%TO.P,J1,25*%
%TO.N,ROW_24*%
X108206863Y-106296643D03*
%TO.P,J1,26*%
%TO.N,ROW_25*%
X107706863Y-106296643D03*
%TO.P,J1,27*%
%TO.N,ROW_26*%
X107206863Y-106296643D03*
%TO.P,J1,28*%
%TO.N,ROW_27*%
X106706863Y-106296643D03*
%TO.P,J1,29*%
%TO.N,ROW_28*%
X106206863Y-106296643D03*
%TO.P,J1,30*%
%TO.N,ROW_29*%
X105706863Y-106296643D03*
%TO.P,J1,31*%
%TO.N,ROW_30*%
X105206863Y-106296643D03*
%TO.P,J1,32*%
%TO.N,ROW_31*%
X104706863Y-106296643D03*
D26*
%TO.P,J1,MP*%
%TO.N,GND*%
X122106863Y-103046643D03*
X112806863Y-103046643D03*
X110806863Y-103046643D03*
X102806863Y-103046643D03*
%TD*%
D57*
%TO.P,C16,1*%
%TO.N,VREG_AVDD*%
X129449999Y-115920000D03*
%TO.P,C16,2*%
%TO.N,GND*%
X129449999Y-115280000D03*
%TD*%
D40*
%TO.P,U1,1*%
%TO.N,ROW_1*%
X120836430Y-109674814D03*
%TO.P,U1,2*%
%TO.N,ROW_2*%
X120186430Y-109674814D03*
%TO.P,U1,3*%
%TO.N,ROW_3*%
X119536430Y-109674814D03*
%TO.P,U1,4*%
%TO.N,ROW_4*%
X118886430Y-109674814D03*
%TO.P,U1,5*%
%TO.N,ROW_5*%
X118236430Y-109674814D03*
%TO.P,U1,6*%
%TO.N,ROW_6*%
X117586430Y-109674814D03*
%TO.P,U1,7*%
%TO.N,ROW_7*%
X116936430Y-109674814D03*
%TO.P,U1,8*%
%TO.N,GND*%
X116286430Y-109674814D03*
%TO.P,U1,9*%
%TO.N,SR_CHAIN_1*%
X116286430Y-115399814D03*
%TO.P,U1,10*%
%TO.N,ROW_VCC*%
X116936430Y-115399814D03*
%TO.P,U1,11*%
%TO.N,ROW_CLK*%
X117586430Y-115399814D03*
%TO.P,U1,12*%
%TO.N,ROW_LATCH*%
X118236430Y-115399814D03*
%TO.P,U1,13*%
%TO.N,GND*%
X118886430Y-115399814D03*
%TO.P,U1,14*%
%TO.N,ROW_DATA*%
X119536430Y-115399814D03*
%TO.P,U1,15*%
%TO.N,ROW_0*%
X120186430Y-115399814D03*
%TO.P,U1,16*%
%TO.N,ROW_VCC*%
X120836430Y-115399814D03*
%TD*%
D18*
%TO.P,R26,1*%
%TO.N,+3.3V*%
X134901669Y-116175426D03*
%TO.P,R26,2*%
%TO.N,ADC_AVDD*%
X133881669Y-116175426D03*
%TD*%
D12*
%TO.P,R9,1*%
%TO.N,GAIN_B*%
X157223037Y-122300255D03*
%TO.P,R9,2*%
%TO.N,GND*%
X158243037Y-122300255D03*
%TD*%
D33*
%TO.P,JP3,1*%
%TO.N,ADDR2*%
X127981512Y-135701463D03*
%TO.P,JP3,2*%
%TO.N,GND*%
X129281512Y-135701463D03*
%TD*%
D35*
%TO.P,C32,1*%
%TO.N,ADC_B*%
X134500000Y-118980000D03*
%TO.P,C32,2*%
%TO.N,GND*%
X134500000Y-118020000D03*
%TD*%
D63*
%TO.P,D1,1*%
%TO.N,+5V*%
X102367266Y-120010480D03*
%TO.P,D1,2*%
%TO.N,+5V_BUS*%
X100267266Y-120010480D03*
%TD*%
D24*
%TO.P,C7,1*%
%TO.N,+3.3V*%
X157246596Y-123500000D03*
%TO.P,C7,2*%
%TO.N,GND*%
X158206596Y-123500000D03*
%TD*%
%TO.P,C29,1*%
%TO.N,+3.3V*%
X110808746Y-130480800D03*
%TO.P,C29,2*%
%TO.N,GND*%
X111768746Y-130480800D03*
%TD*%
D35*
%TO.P,C41,1*%
%TO.N,+3.3V*%
X115478714Y-121878845D03*
%TO.P,C41,2*%
%TO.N,GND*%
X115478714Y-120918845D03*
%TD*%
D23*
%TO.P,C3,1*%
%TO.N,ROW_VCC*%
X109465714Y-117301157D03*
%TO.P,C3,2*%
%TO.N,GND*%
X109465714Y-118261157D03*
%TD*%
D13*
%TO.P,C37,1*%
%TO.N,+5V_USB*%
X141883512Y-127845423D03*
%TO.P,C37,2*%
%TO.N,GND*%
X141883512Y-125945423D03*
%TD*%
D40*
%TO.P,U3,1*%
%TO.N,ROW_17*%
X109854501Y-110167657D03*
%TO.P,U3,2*%
%TO.N,ROW_18*%
X109204501Y-110167657D03*
%TO.P,U3,3*%
%TO.N,ROW_19*%
X108554501Y-110167657D03*
%TO.P,U3,4*%
%TO.N,ROW_20*%
X107904501Y-110167657D03*
%TO.P,U3,5*%
%TO.N,ROW_21*%
X107254501Y-110167657D03*
%TO.P,U3,6*%
%TO.N,ROW_22*%
X106604501Y-110167657D03*
%TO.P,U3,7*%
%TO.N,ROW_23*%
X105954501Y-110167657D03*
%TO.P,U3,8*%
%TO.N,GND*%
X105304501Y-110167657D03*
%TO.P,U3,9*%
%TO.N,SR_CHAIN_3*%
X105304501Y-115892657D03*
%TO.P,U3,10*%
%TO.N,ROW_VCC*%
X105954501Y-115892657D03*
%TO.P,U3,11*%
%TO.N,ROW_CLK*%
X106604501Y-115892657D03*
%TO.P,U3,12*%
%TO.N,ROW_LATCH*%
X107254501Y-115892657D03*
%TO.P,U3,13*%
%TO.N,GND*%
X107904501Y-115892657D03*
%TO.P,U3,14*%
%TO.N,SR_CHAIN_2*%
X108554501Y-115892657D03*
%TO.P,U3,15*%
%TO.N,ROW_16*%
X109204501Y-115892657D03*
%TO.P,U3,16*%
%TO.N,ROW_VCC*%
X109854501Y-115892657D03*
%TD*%
D13*
%TO.P,C23,1*%
%TO.N,+3.3V*%
X114047714Y-122348427D03*
%TO.P,C23,2*%
%TO.N,GND*%
X114047714Y-120448427D03*
%TD*%
D64*
%TO.P,L1,1*%
%TO.N,VCORE*%
X125250000Y-113600000D03*
%TO.P,L1,2*%
%TO.N,VREG_LX*%
X126850000Y-113600000D03*
%TD*%
D65*
%TO.N,GND*%
X128931513Y-134951463D03*
X143028151Y-108835162D03*
X146212500Y-133075912D03*
X122800000Y-115050000D03*
X133382005Y-118150000D03*
X148705606Y-110192022D03*
X128840487Y-101946643D03*
X125750000Y-115150000D03*
X145625000Y-133490000D03*
X134500000Y-121480000D03*
X157103970Y-119545242D03*
X129250000Y-129150000D03*
X113370501Y-114779585D03*
X105129501Y-109430157D03*
X127197874Y-102248495D03*
X132100000Y-120800000D03*
X128950000Y-112200000D03*
X142800000Y-135651463D03*
X126505926Y-119521214D03*
X150126879Y-131238110D03*
X128550000Y-126177318D03*
X118861430Y-114687314D03*
X120999484Y-119894973D03*
X148140487Y-101946643D03*
X121256863Y-101946643D03*
X149139364Y-119942977D03*
X132092512Y-128161464D03*
X126505926Y-120651214D03*
X141183512Y-125445423D03*
X152906354Y-117449116D03*
X112449746Y-129163512D03*
X125375926Y-121781214D03*
X154595246Y-123900000D03*
X145665200Y-125588500D03*
X138840487Y-101946643D03*
X125151625Y-126275851D03*
X121462430Y-114850000D03*
X99336746Y-135451463D03*
X103737887Y-117956894D03*
X158083037Y-122000255D03*
X129300000Y-126582258D03*
X129649998Y-112223631D03*
X101906863Y-101946643D03*
X134500000Y-117420000D03*
X103036746Y-128801463D03*
X108745714Y-119445578D03*
X111538746Y-130180801D03*
X107124714Y-119971716D03*
X126600000Y-126350000D03*
X138792512Y-128061464D03*
X105727746Y-128924716D03*
X153239244Y-132551463D03*
X122349512Y-134951463D03*
X155889244Y-125501463D03*
X139010000Y-120800000D03*
X130700000Y-112752105D03*
X124150000Y-128730197D03*
X102388501Y-115078886D03*
X133450000Y-120450000D03*
X116111430Y-108937314D03*
X113347714Y-119948427D03*
X112449746Y-124263512D03*
X155705606Y-108742022D03*
X121123281Y-121900000D03*
X143298690Y-127673039D03*
X107879501Y-115180157D03*
X121889952Y-112950000D03*
X99511746Y-123101480D03*
X121119987Y-117749189D03*
X127635926Y-120651214D03*
X129200000Y-114400000D03*
X146804606Y-115401596D03*
X129250000Y-126033536D03*
X110620501Y-109029585D03*
X118260746Y-130400000D03*
X138980000Y-119800000D03*
X158444244Y-118050000D03*
X125375926Y-119521214D03*
X131774652Y-126889861D03*
X131900000Y-117750000D03*
X127635926Y-121781214D03*
X109195714Y-118031157D03*
X122207075Y-129550000D03*
X115178714Y-120648845D03*
X104218867Y-122282716D03*
X126300000Y-130380197D03*
X114802132Y-117650000D03*
X99336746Y-125501463D03*
X133019474Y-124291832D03*
X109906863Y-101946643D03*
X149600690Y-128073874D03*
X137685070Y-118086162D03*
X129250000Y-115100000D03*
X114999746Y-124263512D03*
X155889244Y-135451463D03*
X116441399Y-119949203D03*
X125640512Y-134925340D03*
X139130861Y-125700562D03*
X157976596Y-123200000D03*
X143215249Y-124613546D03*
X126505926Y-121781214D03*
X120181616Y-117650000D03*
X129699524Y-111246359D03*
X130100000Y-125933088D03*
X132574652Y-124839861D03*
X128550000Y-118100000D03*
X120100000Y-124200000D03*
X103540000Y-121350000D03*
X136840487Y-101946643D03*
X99638501Y-109328886D03*
X111906863Y-101946643D03*
X136028151Y-110285162D03*
%TO.N,+3.3V*%
X127250000Y-118550016D03*
X129805926Y-117731214D03*
X129200000Y-120650000D03*
X134641669Y-115875426D03*
X122062430Y-116250000D03*
X110196714Y-122055989D03*
X130115088Y-110745553D03*
X120123593Y-123100720D03*
X120100000Y-125300000D03*
X118492399Y-121848782D03*
X134342292Y-127256375D03*
X123756047Y-121916612D03*
X123439952Y-112950000D03*
X125151625Y-125425851D03*
X132005127Y-124119315D03*
X121973281Y-122000000D03*
X121969987Y-117749189D03*
X131824652Y-124639861D03*
X122588695Y-116600000D03*
X147804606Y-115401596D03*
X126300000Y-115950000D03*
X136028151Y-116135162D03*
X110946714Y-122055989D03*
X109577746Y-129174716D03*
X122555926Y-117731214D03*
X115178714Y-121848845D03*
X124453578Y-118100116D03*
X155006354Y-121749116D03*
X116441399Y-121899203D03*
X134576120Y-124005375D03*
X126155926Y-116581214D03*
X121462430Y-115850000D03*
X116299746Y-129163512D03*
X129400000Y-125183536D03*
%TO.N,SYNC_P*%
X142000000Y-131850000D03*
X152300000Y-129100000D03*
X111200000Y-132300000D03*
X105300000Y-132850000D03*
%TO.N,SYNC_N*%
X105300000Y-134100000D03*
X152350000Y-127850000D03*
X141200000Y-131350000D03*
X113000000Y-132300000D03*
%TO.N,USB_BUS_EN*%
X129143000Y-121888700D03*
X145060500Y-128289100D03*
X122635000Y-123950000D03*
%TO.N,USB_PWR_FAULT*%
X136889400Y-121922400D03*
X141542900Y-128935100D03*
X130312100Y-131364200D03*
X122058600Y-126005300D03*
%TO.N,USB_ILIM*%
X151456900Y-130838100D03*
X152831900Y-127363100D03*
D66*
%TO.N,USB_ILIM_LOW*%
X141677200Y-130816600D03*
X141481000Y-133987200D03*
%TO.N,+5V_BUS*%
X137364800Y-134982500D03*
X149084000Y-128780200D03*
X122108200Y-127849200D03*
X127060400Y-134175100D03*
D65*
%TO.N,BUS_N*%
X105200000Y-131600000D03*
X109200000Y-131600000D03*
%TO.N,VCORE*%
X127205930Y-122951210D03*
X127280930Y-116376210D03*
X123875000Y-116400000D03*
X130680929Y-120226210D03*
X123875000Y-118425000D03*
%TO.N,RUN*%
X123480900Y-125501200D03*
X121958600Y-123975700D03*
X122510400Y-125532700D03*
X127705900Y-124906900D03*
%TO.N,STATUS*%
X133470700Y-121350100D03*
X136806500Y-133795100D03*
%TO.N,AMP_A*%
X137906350Y-121386620D03*
X147931350Y-118511620D03*
X139431350Y-120286620D03*
X148631350Y-117811620D03*
D66*
%TO.N,COL_3*%
X154779600Y-112773000D03*
X153692100Y-105674300D03*
%TO.N,COL_4*%
X154410400Y-113467000D03*
X152599400Y-105117800D03*
%TO.N,COL_5*%
X153933500Y-114157500D03*
X150305400Y-104575900D03*
%TO.N,COL_6*%
X146456400Y-108155300D03*
X151601500Y-114865900D03*
%TO.N,COL_7*%
X145390300Y-113955900D03*
X145384600Y-110504200D03*
X142443300Y-104674000D03*
X146929300Y-116472600D03*
%TO.N,COL_8*%
X144925900Y-107750300D03*
X151058300Y-115417000D03*
%TO.N,COL_9*%
X142590500Y-107425300D03*
X147677300Y-114695700D03*
%TO.N,COL_10*%
X141421000Y-107745700D03*
X152009700Y-114117000D03*
%TO.N,COL_11*%
X140667700Y-107472800D03*
X146945900Y-113467000D03*
%TO.N,COL_12*%
X147730100Y-112686300D03*
X143113100Y-105194200D03*
%TO.N,COL_13*%
X145114300Y-104124800D03*
X151585900Y-112167000D03*
%TO.N,COL_14*%
X152527500Y-111984300D03*
X147589200Y-103468200D03*
%TO.N,COL_15*%
X145813700Y-111892300D03*
X139878600Y-104864000D03*
%TO.N,COL_16*%
X139604300Y-107418400D03*
X141427500Y-110552600D03*
%TO.N,COL_17*%
X141972200Y-111506100D03*
X140731000Y-108496000D03*
%TO.N,COL_18*%
X141745700Y-112260200D03*
X138550900Y-105191600D03*
%TO.N,COL_19*%
X141809200Y-113024500D03*
X139126800Y-104694000D03*
%TO.N,COL_20*%
X137386300Y-107554000D03*
X139975000Y-113447700D03*
%TO.N,COL_21*%
X136277000Y-107409900D03*
X139887400Y-114210200D03*
%TO.N,COL_22*%
X141271500Y-114860200D03*
X136830900Y-105180400D03*
%TO.N,COL_23*%
X135590500Y-105158900D03*
X140049000Y-115510200D03*
%TO.N,COL_24*%
X134811700Y-115157700D03*
X135090500Y-107403500D03*
%TO.N,COL_25*%
X134476500Y-105177200D03*
X134901600Y-114322900D03*
%TO.N,COL_26*%
X139958700Y-112686600D03*
X137745100Y-108266100D03*
%TO.N,COL_27*%
X134107700Y-107913600D03*
X134706700Y-113560200D03*
%TO.N,COL_28*%
X133799300Y-112910200D03*
X133580200Y-105190700D03*
%TO.N,COL_29*%
X132608900Y-108410200D03*
X133470600Y-112012000D03*
%TO.N,COL_30*%
X131935300Y-111485200D03*
X132080000Y-107867200D03*
%TO.N,COL_31*%
X131342400Y-107401200D03*
X133469700Y-110958500D03*
D65*
%TO.N,SWDIO*%
X128005900Y-123301200D03*
%TO.N,SWCLK*%
X127055900Y-124901200D03*
X117105900Y-131351200D03*
X124655900Y-124951200D03*
%TO.N,USB_D_N*%
X129805929Y-116601210D03*
X127605930Y-118001210D03*
%TO.N,USBC_D_N*%
X132108400Y-116445000D03*
X135492500Y-127056500D03*
X135692500Y-126106500D03*
X133789400Y-123040000D03*
%TO.N,USB_ILIM_HI*%
X119438200Y-118269200D03*
X150510900Y-134350000D03*
%TO.N,ROW_DATA*%
X118962900Y-116540500D03*
X121015300Y-120550000D03*
%TO.N,MUX_S0*%
X122083800Y-120524200D03*
X146994900Y-110117600D03*
X152714600Y-110162400D03*
%TO.N,MUX_S1*%
X148285200Y-109660200D03*
X123864300Y-120651200D03*
X148205400Y-106549500D03*
%TO.N,MUX_S2*%
X124498300Y-109660200D03*
X120160200Y-120798200D03*
%TO.N,MUX_S3*%
X124338300Y-120194300D03*
X129530800Y-109141900D03*
%TO.N,BUS_RO*%
X123876900Y-122651200D03*
X120437400Y-126847900D03*
%TO.N,SYNC_OUT*%
X123105900Y-124451200D03*
X122511800Y-126955800D03*
X117724100Y-125188500D03*
X119186100Y-127293400D03*
%TO.N,USB_CC_OUT1*%
X134153100Y-125478500D03*
X128998600Y-128486700D03*
%TO.N,ADDR0*%
X126922900Y-133384900D03*
X129152900Y-123016000D03*
%TO.N,ADDR1*%
X130805100Y-123200900D03*
X126367100Y-133788500D03*
%TO.N,ADDR2*%
X127078800Y-135701500D03*
X132165000Y-122078600D03*
%TO.N,USB_D_P*%
X126930000Y-117925000D03*
X128405000Y-114150000D03*
%TO.N,+5V*%
X121038200Y-128901199D03*
D66*
X130872000Y-122499100D03*
X111978600Y-120907600D03*
D65*
X118188200Y-128401199D03*
X147288200Y-134951200D03*
%TO.N,AMP_B*%
X143285000Y-118030000D03*
X144260000Y-119005000D03*
%TO.N,USB_CC1*%
X133692500Y-127481500D03*
X130599700Y-126864900D03*
%TO.N,USB_CC2*%
X131174700Y-127214900D03*
X132574700Y-127439900D03*
D66*
%TO.N,ROW_CLK*%
X110330500Y-118216300D03*
X107371300Y-117088000D03*
X103269300Y-113463300D03*
%TO.N,ROW_11*%
X114706900Y-105193300D03*
X114045600Y-110979900D03*
%TO.N,ROW_LATCH*%
X114279100Y-117049100D03*
X117901300Y-118396400D03*
%TO.N,ROW_8*%
X116206900Y-107423200D03*
X114884600Y-114283900D03*
D65*
%TO.N,USBC_D_P*%
X137875000Y-130787500D03*
X136300000Y-127712500D03*
X131744400Y-115277700D03*
X136925000Y-126962500D03*
X136950000Y-130787500D03*
X137590500Y-125904400D03*
D66*
%TO.N,ROW_29*%
X101836200Y-111268700D03*
X105383300Y-105177100D03*
%TO.N,SR_CHAIN_3*%
X105006600Y-114696400D03*
X102974800Y-114580000D03*
%TO.N,ROW_24*%
X108119500Y-105184700D03*
X106403200Y-114386200D03*
%TO.N,ROW_0*%
X120819300Y-106868800D03*
X119799500Y-114195000D03*
%TO.N,ROW_16*%
X108682500Y-117093100D03*
X112167400Y-107513200D03*
%TO.N,ROW_22*%
X107181500Y-104556500D03*
X106766800Y-111361900D03*
%TD*%
%TO.N,ADC_AVDD*%
D67*
X132608200Y-118373800D02*
X132662000Y-118320000D01*
X130676000Y-118373800D02*
X132608200Y-118373800D01*
X129955900Y-118251200D02*
X130553400Y-118251200D01*
X132662000Y-118320000D02*
X132662000Y-117395100D01*
X130553400Y-118251200D02*
X130676000Y-118373800D01*
X132662000Y-117395100D02*
X133881700Y-116175400D01*
%TO.N,GND*%
X107149710Y-119996720D02*
X107324710Y-120171720D01*
X109931860Y-101971650D02*
X110781860Y-102821650D01*
X131940000Y-120795000D02*
X131889999Y-120745000D01*
X109220710Y-118056160D02*
X109445710Y-118281160D01*
X155914240Y-125526460D02*
X156364240Y-125976460D01*
X126400000Y-115175000D02*
X126475000Y-115250000D01*
X157128970Y-119570240D02*
X157378970Y-119820240D01*
X101931860Y-101971650D02*
X102781860Y-102821650D01*
X143323690Y-127698040D02*
X143698690Y-127698040D01*
X105154500Y-109980160D02*
X105304500Y-110130160D01*
X121914950Y-112975000D02*
X122314950Y-113375000D01*
X130725000Y-113052100D02*
X130824999Y-113152100D01*
X146829610Y-115426600D02*
X147079610Y-115676600D01*
X149605690Y-128073874D02*
X149600690Y-128073874D01*
D68*
X128880930Y-117776210D02*
X128880930Y-117226210D01*
D67*
X155914240Y-135476460D02*
X156364240Y-135926460D01*
X103061750Y-128826460D02*
X103311750Y-129076460D01*
X129050000Y-114100000D02*
X128950000Y-114000000D01*
X122825000Y-115075000D02*
X123225000Y-115475000D01*
X125775000Y-115175000D02*
X126400000Y-115175000D01*
X102413500Y-115103890D02*
X102413500Y-115753890D01*
X105154500Y-109455160D02*
X105154500Y-109980160D01*
X121024480Y-119894970D02*
X121149480Y-119894970D01*
X129256509Y-135276460D02*
X129256509Y-135676460D01*
X99365750Y-135476460D02*
X99815750Y-135926460D01*
X143828150Y-108860160D02*
X143953150Y-108985160D01*
X114827130Y-117675000D02*
X115052130Y-117900000D01*
X158108040Y-122025250D02*
X158233040Y-122150250D01*
D68*
X132599650Y-124864860D02*
X132724650Y-124989860D01*
D67*
X129125000Y-126158540D02*
X129225000Y-126058540D01*
X156364240Y-135926460D02*
X157214240Y-135926460D01*
X133440000Y-120420000D02*
X133440000Y-120345000D01*
X134500000Y-118020000D02*
X134500000Y-117420000D01*
X138817510Y-128086459D02*
X138817510Y-128736460D01*
X112719750Y-125163510D02*
X111669750Y-124113510D01*
X113395500Y-114804580D02*
X113395500Y-115454580D01*
X134500000Y-120880000D02*
X134500000Y-121480000D01*
X130125000Y-125908090D02*
X130375000Y-126158090D01*
X137665490Y-102771650D02*
X137665490Y-103021650D01*
X106002750Y-129199720D02*
X106002750Y-129874720D01*
X125176620Y-126265850D02*
X125276620Y-126265850D01*
X154745250Y-123925000D02*
X154820250Y-124000000D01*
X132117510Y-128186460D02*
X132117510Y-128536460D01*
X139665490Y-102771650D02*
X139665490Y-103021650D01*
X110781860Y-102821650D02*
X110781860Y-103021650D01*
X141208510Y-125470420D02*
X141658510Y-125920420D01*
X129675000Y-112196360D02*
X129675000Y-111271360D01*
X118886430Y-114712310D02*
X118886430Y-115362310D01*
X129050000Y-114200000D02*
X129050000Y-114100000D01*
X121281860Y-101971650D02*
X122081860Y-102771650D01*
X111931860Y-101971650D02*
X112781860Y-102821650D01*
D68*
X128880930Y-118276210D02*
X128880930Y-117226210D01*
D67*
X115024750Y-124288510D02*
X115274750Y-124538510D01*
X120206620Y-117675000D02*
X120431620Y-117900000D01*
X111513750Y-130205800D02*
X111763750Y-130455800D01*
X137710070Y-118061160D02*
X137960070Y-118311160D01*
X112474750Y-129188510D02*
X112724750Y-129438510D01*
X143240250Y-124638550D02*
X143490250Y-124888550D01*
X145225000Y-133490000D02*
X145625000Y-133490000D01*
X110645500Y-109054580D02*
X110645500Y-109579580D01*
X121148280Y-121900000D02*
X121273280Y-121900000D01*
X107324710Y-120171720D02*
X107524710Y-120171720D01*
X131889999Y-117775000D02*
X131889999Y-117900000D01*
X146240200Y-125588500D02*
X145665200Y-125588500D01*
X103540000Y-120700000D02*
X103540000Y-121350000D01*
X121487430Y-114875000D02*
X121737430Y-115125000D01*
X112781860Y-102821650D02*
X112781860Y-103021650D01*
X103311750Y-129076460D02*
X103861750Y-129076460D01*
X126575000Y-126340000D02*
X126525000Y-126290000D01*
X99790750Y-123376480D02*
X99790750Y-123576480D01*
X130375000Y-126138090D02*
X129449999Y-126138090D01*
X103762890Y-117981890D02*
X103987890Y-118206890D01*
X129449999Y-126138090D02*
X129324999Y-126013090D01*
X108770710Y-119470580D02*
X109045710Y-119470580D01*
X128574999Y-126158540D02*
X129125000Y-126158540D01*
X136865490Y-101971650D02*
X137665490Y-102771650D01*
X122674510Y-135276460D02*
X122674510Y-135676460D01*
X112455000Y-124295000D02*
X112730000Y-124570000D01*
X122374510Y-134976460D02*
X122674510Y-135276460D01*
X128865490Y-101971650D02*
X129665490Y-102771650D01*
X112730000Y-124570000D02*
X112730000Y-125170000D01*
X110645500Y-109579580D02*
X110795500Y-109729590D01*
X116466400Y-119974200D02*
X116916400Y-120424200D01*
X116916400Y-120424200D02*
X117116400Y-120424200D01*
X116136430Y-109487310D02*
X116286430Y-109637310D01*
X153514240Y-132826460D02*
X154014240Y-132826460D01*
X107904500Y-115205160D02*
X107904500Y-115855160D01*
X141658510Y-125920420D02*
X141858510Y-125920420D01*
D68*
X132724652Y-124589861D02*
X133019474Y-124341832D01*
D67*
X129225000Y-129175000D02*
X129475000Y-129425000D01*
X139155860Y-125725560D02*
X139405860Y-125975560D01*
X148965490Y-102771650D02*
X148965490Y-103021650D01*
X124175000Y-128705199D02*
X124775000Y-129305200D01*
X125665510Y-134950340D02*
X125965510Y-135250340D01*
X116136430Y-108962310D02*
X116136430Y-109487310D01*
X132065000Y-120795000D02*
X131940000Y-120795000D01*
X129665490Y-102771650D02*
X129665490Y-103021650D01*
X143698690Y-127698040D02*
X143873690Y-127873040D01*
X122081860Y-102771650D02*
X122081860Y-103021650D01*
X138380000Y-119800000D02*
X138980000Y-119800000D01*
X102781860Y-102821650D02*
X102781860Y-103021650D01*
X128956510Y-134976460D02*
X129256509Y-135276460D01*
X129275000Y-126558540D02*
X129275000Y-126058540D01*
X115203710Y-120673840D02*
X115453710Y-120923840D01*
X136053150Y-110285160D02*
X136953150Y-110285160D01*
X153264240Y-132576460D02*
X153514240Y-132826460D01*
X122232070Y-129574999D02*
X122482070Y-129824999D01*
X158474240Y-118075000D02*
X158474240Y-118300000D01*
X129225000Y-114425000D02*
X129225000Y-115075000D01*
X157951600Y-123225000D02*
X158201600Y-123475000D01*
X99665750Y-109353890D02*
X99665750Y-109878890D01*
X154620250Y-123925000D02*
X154745250Y-123925000D01*
X156364240Y-125976460D02*
X157214240Y-125976460D01*
X105752750Y-128949720D02*
X106002750Y-129199720D01*
X148165490Y-101971650D02*
X148965490Y-102771650D01*
D68*
X131749650Y-126864860D02*
X131924650Y-126689860D01*
D67*
X145000000Y-133490000D02*
X144700000Y-133250000D01*
X143053150Y-108860160D02*
X143828150Y-108860160D01*
X156505610Y-108767020D02*
X156630610Y-108892020D01*
X109045710Y-119470580D02*
X109170710Y-119595580D01*
X112724750Y-129438510D02*
X112724750Y-130113509D01*
X148730610Y-110192020D02*
X149630610Y-110192020D01*
X99665750Y-109878890D02*
X99815750Y-110028890D01*
X129275000Y-115125000D02*
X129425000Y-115275000D01*
X158233040Y-122150250D02*
X158233040Y-122275250D01*
D68*
X133019474Y-124341832D02*
X133019474Y-124291832D01*
D67*
X125965510Y-135250340D02*
X125965510Y-135650340D01*
X130725000Y-112777100D02*
X130725000Y-113052100D01*
X115274750Y-124538510D02*
X115274750Y-125163510D01*
X155730610Y-108767020D02*
X156505610Y-108767020D01*
X152931350Y-117474120D02*
X152931350Y-117899120D01*
X113372710Y-119973430D02*
X113822710Y-120423430D01*
D68*
X126530930Y-120626210D02*
X128880930Y-118276210D01*
D67*
X121144990Y-117774190D02*
X121269990Y-117899190D01*
X99815750Y-125976460D02*
X100665750Y-125976460D01*
D68*
X128580930Y-118076210D02*
X128880930Y-117776210D01*
D67*
X99815750Y-135926460D02*
X100665750Y-135926460D01*
X152931350Y-117899120D02*
X153081350Y-118049120D01*
X146237500Y-133050000D02*
X148362500Y-133050000D01*
X132117510Y-128536460D02*
X132317510Y-128736460D01*
X138410000Y-120800000D02*
X139010000Y-120800000D01*
D68*
X128074000Y-115255070D02*
X126524000Y-115255070D01*
D67*
X118235750Y-130425000D02*
X118485750Y-130675000D01*
X129625000Y-112200000D02*
X128975000Y-112200000D01*
X113822710Y-120423430D02*
X114022710Y-120423430D01*
X128950000Y-114000000D02*
X128950000Y-112200000D01*
X127572870Y-102621650D02*
X127572870Y-103021650D01*
X111669750Y-124113510D02*
X111419750Y-124113510D01*
X99365750Y-125526460D02*
X99815750Y-125976460D01*
X142825000Y-135676460D02*
X143225000Y-136076460D01*
D68*
X149089364Y-119992977D02*
X149139364Y-119942977D01*
D67*
X138865490Y-101971650D02*
X139665490Y-102771650D01*
X127222870Y-102271650D02*
X127572870Y-102621650D01*
X133397010Y-118175000D02*
X133272010Y-118300000D01*
X138575000Y-125925600D02*
X139200000Y-125925600D01*
X99540750Y-123126480D02*
X99790750Y-123376480D01*
X126325000Y-130355200D02*
X126975000Y-131005200D01*
X120100000Y-124225000D02*
X120350000Y-124475000D01*
%TO.N,+3.3V*%
X110783750Y-130455800D02*
X110233750Y-129905800D01*
D68*
X123014990Y-117894190D02*
X123039990Y-117869190D01*
D67*
X120123590Y-123125720D02*
X120373590Y-123375720D01*
X126430930Y-118151210D02*
X126430930Y-117276210D01*
X123462430Y-117780000D02*
X125887430Y-117780000D01*
X137953150Y-117135160D02*
X137953150Y-117335160D01*
X124487430Y-118100000D02*
X125562430Y-118100000D01*
X134617290Y-127246370D02*
X134717290Y-127146370D01*
X137003150Y-116185160D02*
X137953150Y-117135160D01*
X105646522Y-122811687D02*
X105462807Y-123038716D01*
X129830930Y-117756210D02*
X129930929Y-117856210D01*
X131850000Y-124669310D02*
X131850000Y-124944320D01*
D68*
X130005000Y-117895000D02*
X129979999Y-117870000D01*
D67*
X130140089Y-110745550D02*
X130390089Y-110995550D01*
X109787926Y-123004142D02*
X105734982Y-122705268D01*
X126087430Y-117580000D02*
X126087430Y-117230000D01*
X156071600Y-122325000D02*
X155046600Y-122325000D01*
X116866400Y-122324200D02*
X117116400Y-122324200D01*
X134375000Y-123805370D02*
X132324999Y-123805370D01*
X125176620Y-125451210D02*
X125301620Y-125576210D01*
X129425000Y-125201210D02*
X129300000Y-125326210D01*
D68*
X130005000Y-120695000D02*
X129979999Y-120670000D01*
X122030930Y-121876210D02*
X121980930Y-121926210D01*
D67*
X123730930Y-121891610D02*
X123105930Y-121891610D01*
X129300000Y-125338540D02*
X129300000Y-124138540D01*
X131750000Y-125178090D02*
X131900000Y-125028090D01*
X121487430Y-115825000D02*
X121737430Y-116075000D01*
X118517400Y-121828780D02*
X118517400Y-121428780D01*
X126805930Y-118526210D02*
X126430930Y-118151210D01*
X122037430Y-116225000D02*
X121912430Y-116100000D01*
X134666670Y-115900430D02*
X134916670Y-116150430D01*
D68*
X121963280Y-121970000D02*
X121963280Y-121945000D01*
D67*
X131990000Y-124144310D02*
X131990000Y-124944320D01*
X127055930Y-115876210D02*
X127505930Y-115876210D01*
X110233750Y-129905800D02*
X109858750Y-129905800D01*
X128098999Y-115945060D02*
X128098999Y-117170060D01*
D68*
X121964990Y-117894190D02*
X123014990Y-117894190D01*
D67*
X122555926Y-117781214D02*
X122555926Y-117731214D01*
X130425000Y-125178090D02*
X131750000Y-125178090D01*
X117104750Y-130688510D02*
X117504750Y-130688510D01*
X122562430Y-116575000D02*
X122087430Y-116100000D01*
X131850000Y-124944320D02*
X131900000Y-124994320D01*
X121787430Y-116105000D02*
X123462430Y-117780000D01*
X121912430Y-116100000D02*
X121787430Y-116100000D01*
D68*
X131205000Y-117895000D02*
X130005000Y-117895000D01*
D67*
X131990000Y-124944320D02*
X131940000Y-124994320D01*
X110196714Y-122905989D02*
X110191714Y-122905989D01*
X127230930Y-118526210D02*
X126805930Y-118526210D01*
X134550000Y-123980370D02*
X134375000Y-123805370D01*
X147779610Y-115426600D02*
X148029610Y-115676600D01*
X115203710Y-121848840D02*
X115453710Y-121848840D01*
X126325000Y-115940000D02*
X126475000Y-115940000D01*
X127505930Y-115876210D02*
X128080930Y-116451210D01*
D68*
X121959990Y-117774190D02*
X121959990Y-117899190D01*
X129830930Y-117756210D02*
X129930929Y-117856210D01*
D67*
X129225000Y-120650000D02*
X129925000Y-120650000D01*
X123105930Y-121891610D02*
X123080930Y-121866610D01*
X126087430Y-117575000D02*
X126087430Y-117225000D01*
X126530930Y-116401210D02*
X127055930Y-115876210D01*
X116579750Y-130163510D02*
X117104750Y-130688510D01*
X126530930Y-117176210D02*
X126530930Y-116401210D01*
X110191714Y-122905989D02*
X109787926Y-123004142D01*
D68*
X123030930Y-121876210D02*
X122030930Y-121876210D01*
D67*
X126500000Y-115945000D02*
X126500000Y-117170000D01*
X125326620Y-125580850D02*
X125326620Y-124130850D01*
X129425000Y-125194320D02*
X130375000Y-125194320D01*
X122087430Y-116100000D02*
X121787430Y-116100000D01*
X105734982Y-122705268D02*
X105646522Y-122811687D01*
D69*
X114022710Y-122323430D02*
X111522710Y-122323430D01*
D67*
X134367290Y-127246370D02*
X134617290Y-127246370D01*
X120100000Y-125325000D02*
X120350000Y-125575000D01*
X125562430Y-118100000D02*
X126087430Y-117575000D01*
X125887430Y-117780000D02*
X126087430Y-117580000D01*
D68*
X131205000Y-120695000D02*
X130005000Y-120695000D01*
D67*
X123464950Y-112975000D02*
X123864950Y-113375000D01*
X126430930Y-117276210D02*
X126480930Y-117226210D01*
X149630610Y-116042020D02*
X148380610Y-116042020D01*
X148380610Y-116042020D02*
X148055610Y-115717020D01*
X157221600Y-123475000D02*
X156071600Y-122325000D01*
X128080930Y-116451210D02*
X128080930Y-117176210D01*
X132324999Y-123805370D02*
X132025000Y-124105370D01*
X134601120Y-124005380D02*
X134851120Y-124255380D01*
X116466400Y-121924200D02*
X116866400Y-122324200D01*
%TO.N,ROW_VCC*%
X101336200Y-117226900D02*
X104007900Y-117226900D01*
X100463500Y-115217800D02*
X100463500Y-115791400D01*
X120836400Y-114475400D02*
X120836400Y-115399800D01*
X119042400Y-120888800D02*
X119552400Y-121398800D01*
X104110900Y-117226900D02*
X104007900Y-117226900D01*
X118790600Y-112936600D02*
X102744700Y-112936600D01*
X120836400Y-116535200D02*
X120451600Y-116920000D01*
X105535200Y-116879400D02*
X104458400Y-116879400D01*
X120451600Y-116920000D02*
X120078200Y-116920000D01*
X108900900Y-117652000D02*
X109251700Y-117301200D01*
X119297700Y-112936700D02*
X120836400Y-114475400D01*
X102744700Y-112936600D02*
X100463500Y-115217800D01*
X116409300Y-116494300D02*
X116936400Y-115967200D01*
X100463500Y-115791400D02*
X100463500Y-116354200D01*
X120836400Y-115399800D02*
X120836400Y-116535200D01*
X116936400Y-115967200D02*
X116936400Y-115399800D01*
X109854500Y-115892700D02*
X109854500Y-116485900D01*
X109251700Y-117301200D02*
X109465700Y-117301200D01*
X104363500Y-115791400D02*
X104458400Y-115886300D01*
X105954500Y-116460100D02*
X107146400Y-117652000D01*
X111019000Y-116485900D02*
X109854500Y-116485900D01*
X104458400Y-115886300D02*
X104458400Y-116879400D01*
X120078200Y-116920000D02*
X118894600Y-118103600D01*
X118894600Y-118103600D02*
X118894600Y-118399700D01*
X116936400Y-114790900D02*
X118790600Y-112936700D01*
X104458400Y-116879400D02*
X104110900Y-117226900D01*
X111445500Y-115492100D02*
X111445500Y-116059400D01*
X111445500Y-116059400D02*
X111019000Y-116485900D01*
X118790600Y-112936700D02*
X119297700Y-112936700D01*
X116936400Y-115399800D02*
X116936400Y-114790900D01*
X118980600Y-119423800D02*
X119042400Y-119485600D01*
X118980600Y-118485700D02*
X118980600Y-119423800D01*
X105954500Y-116460100D02*
X105535200Y-116879400D01*
X100463500Y-116354200D02*
X101336200Y-117226900D01*
X107146400Y-117652000D02*
X108900900Y-117652000D01*
X119042400Y-119485600D02*
X119042400Y-120888800D01*
X115345500Y-115492100D02*
X115345500Y-116341900D01*
X109854500Y-116485900D02*
X109854500Y-116912400D01*
X115497900Y-116494300D02*
X116409300Y-116494300D01*
X115497900Y-116494200D02*
X115497900Y-116494300D01*
X105954500Y-115892700D02*
X105954500Y-116460100D01*
X115345500Y-116341900D02*
X115497900Y-116494200D01*
X118790600Y-112936700D02*
X118790600Y-112936600D01*
X115497900Y-116494200D02*
X115072100Y-116920000D01*
X118894600Y-118399700D02*
X118980600Y-118485700D01*
X109854500Y-116912400D02*
X109465700Y-117301200D01*
%TO.N,+5V_USB*%
D69*
X155687500Y-133978000D02*
X154962400Y-134703100D01*
X155687500Y-127983700D02*
X155687500Y-133978000D01*
X133109700Y-131101400D02*
X130956200Y-131101400D01*
X138042500Y-128756500D02*
X138042500Y-129346800D01*
X141883500Y-127845400D02*
X140968700Y-126930600D01*
X141930000Y-123471800D02*
X151175600Y-123471800D01*
X143515200Y-125843500D02*
X143911200Y-126239500D01*
X128860300Y-127568200D02*
X128828800Y-127568200D01*
X138042500Y-127228000D02*
X138078100Y-127192400D01*
X139430900Y-126930600D02*
X139169100Y-127192400D01*
X142805900Y-126923000D02*
X141883500Y-127845400D01*
X139169100Y-127192400D02*
X138078100Y-127192400D01*
X141101800Y-124300000D02*
X141930000Y-123471800D01*
X140725000Y-124300000D02*
X141101800Y-124300000D01*
X151175600Y-123471800D02*
X155687500Y-127983700D01*
X154962400Y-134703100D02*
X153148200Y-134703100D01*
X141901000Y-125099200D02*
X142770900Y-125099200D01*
X133142500Y-129358100D02*
X133142500Y-128756500D01*
X133938400Y-130154000D02*
X133938400Y-130272700D01*
X140968700Y-126930600D02*
X139430900Y-126930600D01*
X143911200Y-126239500D02*
X143911200Y-126923000D01*
X130183700Y-128891600D02*
X128860300Y-127568200D01*
X136475000Y-126000000D02*
X136885700Y-126000000D01*
X138042500Y-128756500D02*
X138042500Y-127228000D01*
X142770900Y-125099200D02*
X143515200Y-125843500D01*
X133938400Y-130272700D02*
X133109700Y-131101400D01*
X136885700Y-126000000D02*
X138078100Y-127192400D01*
X153148200Y-134703100D02*
X151488200Y-133043100D01*
X141101800Y-124300000D02*
X141901000Y-125099200D01*
X133938400Y-130154000D02*
X133142500Y-129358100D01*
X151488200Y-133043100D02*
X151488200Y-132151200D01*
X130183700Y-130328900D02*
X130183700Y-128891600D01*
X143911200Y-126923000D02*
X142805900Y-126923000D01*
X130956200Y-131101400D02*
X130183700Y-130328900D01*
X138042500Y-129346800D02*
X137235300Y-130154000D01*
X137235300Y-130154000D02*
X133938400Y-130154000D01*
%TO.N,USB_SNUB*%
D67*
X143737000Y-124087000D02*
X142588000Y-124087000D01*
X142588000Y-124087000D02*
X142375000Y-124300000D01*
X144750000Y-125100000D02*
X143737000Y-124087000D01*
%TO.N,SYNC_P*%
X115000000Y-132150000D02*
X141300000Y-132150000D01*
X152300000Y-129100000D02*
X153600000Y-129100000D01*
X114010000Y-130900000D02*
X114010000Y-131360000D01*
X104400000Y-132850000D02*
X105300000Y-132850000D01*
X114010000Y-131360000D02*
X112170000Y-131360000D01*
X111200000Y-132300000D02*
X112000000Y-132300000D01*
X112170000Y-132850000D02*
X114300000Y-132850000D01*
X141600000Y-131850000D02*
X142000000Y-131850000D01*
X141300000Y-132150000D02*
X141600000Y-131850000D01*
X114300000Y-132850000D02*
X115000000Y-132150000D01*
X112170000Y-131360000D02*
X112170000Y-132850000D01*
%TO.N,SYNC_N*%
X152350000Y-127850000D02*
X153600000Y-127850000D01*
X113820000Y-131850000D02*
X140700000Y-131850000D01*
X104400000Y-134100000D02*
X105300000Y-134100000D01*
X115280000Y-130900000D02*
X115280000Y-131850000D01*
X113000000Y-132300000D02*
X113600000Y-132300000D01*
X140700000Y-131850000D02*
X141200000Y-131350000D01*
%TO.N,USB_BUS_EN*%
X121385000Y-124475000D02*
X122110000Y-124475000D01*
X129955900Y-121451200D02*
X129580500Y-121451200D01*
D68*
X122110000Y-124475000D02*
X122635000Y-123950000D01*
D67*
X144526600Y-128823000D02*
X145060500Y-128289100D01*
X143911200Y-128823000D02*
X144526600Y-128823000D01*
X129580500Y-121451200D02*
X129143000Y-121888700D01*
%TO.N,USB_PWR_FAULT*%
X130622400Y-121626900D02*
X130398100Y-121851200D01*
X145676600Y-129332600D02*
X146186200Y-128823000D01*
X121765300Y-126005300D02*
X121360000Y-125600000D01*
D68*
X132720500Y-121995300D02*
X132352100Y-121626900D01*
X141542900Y-129332600D02*
X145676600Y-129332600D01*
D67*
X130398100Y-121851200D02*
X129955900Y-121851200D01*
D68*
X141542900Y-129596500D02*
X139608400Y-131531000D01*
D67*
X136889400Y-121922400D02*
X136816500Y-121995300D01*
X136816500Y-121995300D02*
X132720500Y-121995300D01*
D68*
X132352100Y-121626900D02*
X130622400Y-121626900D01*
D67*
X141542900Y-128935100D02*
X141542900Y-129332600D01*
X141542900Y-129332600D02*
X141542900Y-129596500D01*
X139608400Y-131531000D02*
X130478900Y-131531000D01*
X122058600Y-126005300D02*
X121765300Y-126005300D01*
X130478900Y-131531000D02*
X130312100Y-131364200D01*
%TO.N,USB_ILIM*%
X149131900Y-131263100D02*
X149656900Y-131788099D01*
X149306900Y-127363100D02*
X148231900Y-128438099D01*
X149656900Y-131788099D02*
X150506900Y-131788099D01*
X147092000Y-131254100D02*
X147023400Y-131322700D01*
X148231900Y-128438099D02*
X147056900Y-128438099D01*
X146186200Y-127873000D02*
X146490700Y-127873000D01*
X147092000Y-128474300D02*
X147092000Y-131254100D01*
X146490700Y-127873000D02*
X147092000Y-128474300D01*
X152831900Y-127363100D02*
X149306900Y-127363100D01*
X150506900Y-131788099D02*
X151456900Y-130838100D01*
%TO.N,USB_BUS_SW*%
D70*
X148189700Y-126933500D02*
X146196700Y-126933500D01*
X146196700Y-126933500D02*
X146186200Y-126923000D01*
%TO.N,RAIL_MON*%
D68*
X138090000Y-119125000D02*
X137440000Y-119775000D01*
X134970000Y-119820000D02*
X137420000Y-119820000D01*
X139365000Y-119125000D02*
X138090000Y-119125000D01*
X131399000Y-119450000D02*
X134970000Y-119450000D01*
X131000000Y-119051000D02*
X131399000Y-119450000D01*
X134970000Y-119450000D02*
X134970000Y-119820000D01*
X137415000Y-120775000D02*
X137415000Y-119825000D01*
X129955999Y-119051000D02*
X131000000Y-119051000D01*
%TO.N,USB_ILIM_LOW*%
D67*
X142183300Y-131322700D02*
X141677200Y-130816600D01*
X146003400Y-131322700D02*
X142183300Y-131322700D01*
X146612500Y-133700000D02*
X146325300Y-133987200D01*
X146325300Y-133987200D02*
X141481000Y-133987200D01*
%TO.N,+5V_BUS*%
D69*
X137364800Y-134982500D02*
X130457400Y-134982500D01*
X151142400Y-128494200D02*
X149903100Y-129733500D01*
X148189700Y-128831800D02*
X149032400Y-128831800D01*
X154039200Y-134096500D02*
X154352900Y-134096500D01*
X148189700Y-129733500D02*
X148189700Y-128831800D01*
X103886700Y-127846500D02*
X122105500Y-127846500D01*
X155191500Y-128759100D02*
X154926600Y-128494200D01*
X154352900Y-134096500D02*
X155191500Y-133257900D01*
X130457400Y-134982500D02*
X129650000Y-134175100D01*
X103886700Y-126589000D02*
X103886700Y-127846500D01*
X149903100Y-129733500D02*
X148189700Y-129733500D01*
X99811700Y-121701500D02*
X101203500Y-123093300D01*
X101203500Y-123093300D02*
X101203500Y-123905800D01*
X129650000Y-134175100D02*
X127060400Y-134175100D01*
X122105500Y-127846500D02*
X122108200Y-127849200D01*
X101203500Y-123905800D02*
X103886700Y-126589000D01*
X99811700Y-120466100D02*
X99811700Y-121701500D01*
X100267300Y-120010500D02*
X99811700Y-120466100D01*
X149032400Y-128831800D02*
X149084000Y-128780200D01*
X155191500Y-133257900D02*
X155191500Y-128759100D01*
X154926600Y-128494200D02*
X151142400Y-128494200D01*
%TO.N,BUS_P*%
D67*
X105675000Y-131225000D02*
X107290000Y-131225000D01*
X151150000Y-131600000D02*
X153600000Y-131600000D01*
X150450000Y-132300000D02*
X151150000Y-131600000D01*
X107290000Y-131225000D02*
X107290000Y-130699999D01*
X106520000Y-133449999D02*
X114750000Y-133449999D01*
X106520000Y-131225000D02*
X106520000Y-133449999D01*
X115400000Y-132800000D02*
X142925000Y-132800000D01*
X114750000Y-133449999D02*
X115400000Y-132800000D01*
X104800000Y-130350000D02*
X105675000Y-131225000D01*
X104400000Y-130350000D02*
X104800000Y-130350000D01*
X142925000Y-132800000D02*
X143425000Y-132300000D01*
X143425000Y-132300000D02*
X150450000Y-132300000D01*
%TO.N,BUS_N*%
X142800000Y-132500000D02*
X143300000Y-132000000D01*
X108170000Y-133150000D02*
X114600000Y-133150000D01*
X115250000Y-132500000D02*
X142800000Y-132500000D01*
X151250000Y-130350000D02*
X153600000Y-130350000D01*
X108170000Y-132300000D02*
X108170000Y-133150000D01*
X143300000Y-132000000D02*
X147600000Y-132000000D01*
X104400000Y-131600000D02*
X105200000Y-131600000D01*
X148050000Y-131550000D02*
X148050000Y-130850000D01*
X148300000Y-130600000D02*
X151000000Y-130600000D01*
X108560000Y-130750000D02*
X108560000Y-131600000D01*
X109200000Y-131600000D02*
X108300000Y-131600000D01*
X151000000Y-130600000D02*
X151250000Y-130350000D01*
X147600000Y-132000000D02*
X148050000Y-131550000D01*
X114600000Y-133150000D02*
X115250000Y-132500000D01*
X148050000Y-130850000D02*
X148300000Y-130600000D01*
%TO.N,VCORE*%
D71*
X121880930Y-119876210D02*
X121855930Y-119901210D01*
X126525000Y-125605000D02*
X126525000Y-124130000D01*
X123875000Y-119425000D02*
X123475000Y-119825000D01*
X123875000Y-118425000D02*
X123875000Y-119425000D01*
X127680930Y-117176210D02*
X127680930Y-116776210D01*
X126530930Y-124076210D02*
X126530930Y-123626210D01*
X123475000Y-119825000D02*
X123075000Y-119825000D01*
X126530930Y-123626210D02*
X127205930Y-122951210D01*
X125225000Y-113625000D02*
X124800000Y-114050000D01*
X129980930Y-120226210D02*
X130680929Y-120226210D01*
X132755000Y-120295000D02*
X130755000Y-120295000D01*
X124750000Y-115525000D02*
X123875000Y-116400000D01*
X130755000Y-120295000D02*
X130705000Y-120245000D01*
X124800000Y-114050000D02*
X124800000Y-115475000D01*
X123030930Y-119876210D02*
X121880930Y-119876210D01*
X127680930Y-116776210D02*
X127280930Y-116376210D01*
%TO.N,RUN*%
D67*
X121383600Y-123400700D02*
X121634700Y-123651800D01*
X127705900Y-124101200D02*
X127705900Y-124906900D01*
X121633600Y-123650700D02*
X121958600Y-123975700D01*
X123480900Y-125501200D02*
X122530900Y-125501200D01*
%TO.N,STATUS*%
X131042100Y-121122100D02*
X130026800Y-121122100D01*
X137970000Y-133795100D02*
X139304300Y-135129400D01*
X136806500Y-133795100D02*
X137970000Y-133795100D01*
X133470700Y-121350100D02*
X131270100Y-121350100D01*
X146782900Y-135129400D02*
X148010000Y-136356500D01*
X130026800Y-121122100D02*
X129955900Y-121051200D01*
X139304300Y-135129400D02*
X146782900Y-135129400D01*
X131270100Y-121350100D02*
X131042100Y-121122100D01*
%TO.N,LED_A*%
X144787500Y-136101500D02*
X146735000Y-136101500D01*
X146735000Y-136101500D02*
X146990000Y-136356500D01*
%TO.N,AMP_A*%
X155006350Y-118111620D02*
X155006350Y-118786620D01*
X139906350Y-118736620D02*
X139906350Y-119811620D01*
X155567350Y-118081290D02*
X155067350Y-118081290D01*
X139906350Y-119811620D02*
X139431350Y-120286620D01*
X149956350Y-119136620D02*
X148631350Y-117811620D01*
X140131350Y-118511620D02*
X139906350Y-118736620D01*
X156192350Y-118706290D02*
X155567350Y-118081290D01*
X136981350Y-121386620D02*
X136531350Y-120936620D01*
X155006350Y-118786620D02*
X154656350Y-119136620D01*
X137906350Y-121386620D02*
X136981350Y-121386620D01*
X154656350Y-119136620D02*
X149956350Y-119136620D01*
X147931350Y-118511620D02*
X140131350Y-118511620D01*
%TO.N,ADC_A*%
D68*
X134500000Y-119920000D02*
X135490000Y-120910000D01*
X134150000Y-119920000D02*
X134500000Y-119920000D01*
X129955999Y-119451000D02*
X130600000Y-119451000D01*
X133900000Y-119670000D02*
X134150000Y-119920000D01*
X130818999Y-119670000D02*
X133900000Y-119670000D01*
X130600000Y-119451000D02*
X130818999Y-119670000D01*
%TO.N,GAIN_A*%
D67*
X156344000Y-119624700D02*
X156344000Y-119845200D01*
X154775800Y-117014000D02*
X154381400Y-117408400D01*
X155520100Y-117014000D02*
X154775800Y-117014000D01*
X157237400Y-118731300D02*
X156344000Y-119624700D01*
X154381400Y-117408400D02*
X154381400Y-118086600D01*
X157237400Y-118731300D02*
X155520100Y-117014000D01*
%TO.N,COL_0*%
X152495100Y-110639100D02*
X152801100Y-110639100D01*
X147090500Y-107173300D02*
X150235600Y-107173300D01*
X152215800Y-109153500D02*
X152215800Y-110359800D01*
X147090500Y-106296600D02*
X147090500Y-107173300D01*
X152801100Y-110639100D02*
X153029000Y-110867000D01*
X150235600Y-107173300D02*
X152215800Y-109153500D01*
X152215800Y-110359800D02*
X152495100Y-110639100D01*
X153029000Y-110867000D02*
X156655600Y-110867000D01*
%TO.N,COL_1*%
X151914100Y-109287900D02*
X150419300Y-107793100D01*
X146646000Y-107173300D02*
X146590500Y-107173300D01*
X147265800Y-107793100D02*
X146646000Y-107173300D01*
X146590500Y-106296600D02*
X146590500Y-107173300D01*
X150419300Y-107793100D02*
X147265800Y-107793100D01*
X152370100Y-110940800D02*
X151914100Y-110484800D01*
X156655600Y-111517000D02*
X153252300Y-111517000D01*
X153252300Y-111517000D02*
X152676100Y-110940800D01*
X151914100Y-110484800D02*
X151914100Y-109287900D01*
X152676100Y-110940800D02*
X152370100Y-110940800D01*
%TO.N,COL_2*%
X150286100Y-108094800D02*
X147140800Y-108094800D01*
X146545800Y-107628600D02*
X146090500Y-107173300D01*
X156655600Y-112167000D02*
X153475600Y-112167000D01*
X151612400Y-110609800D02*
X151612400Y-109421100D01*
X153475600Y-112167000D02*
X152551100Y-111242500D01*
X146674600Y-107628600D02*
X146545800Y-107628600D01*
X146090500Y-106296600D02*
X146090500Y-107173300D01*
X152245100Y-111242500D02*
X151612400Y-110609800D01*
X147140800Y-108094800D02*
X146674600Y-107628600D01*
X151612400Y-109421100D02*
X150286100Y-108094800D01*
X152551100Y-111242500D02*
X152245100Y-111242500D01*
%TO.N,COL_3*%
X145590500Y-106296600D02*
X145590500Y-105419900D01*
X152156700Y-105419900D02*
X152411100Y-105674300D01*
X154823600Y-112817000D02*
X154779600Y-112773000D01*
X145590500Y-105419900D02*
X152156700Y-105419900D01*
X152411100Y-105674300D02*
X153692100Y-105674300D01*
X156655600Y-112817000D02*
X154823600Y-112817000D01*
%TO.N,COL_4*%
X145090500Y-106296600D02*
X145090500Y-105419900D01*
X145392600Y-105117800D02*
X152599400Y-105117800D01*
X156655600Y-113467000D02*
X154410400Y-113467000D01*
X145090500Y-105419900D02*
X145392600Y-105117800D01*
%TO.N,COL_5*%
X156655600Y-114117000D02*
X156615100Y-114157500D01*
X144590500Y-105419300D02*
X145433900Y-104575900D01*
X145433900Y-104575900D02*
X150305400Y-104575900D01*
X156615100Y-114157500D02*
X153933500Y-114157500D01*
X144590500Y-106296600D02*
X144590500Y-105419300D01*
%TO.N,COL_6*%
X145474400Y-107173300D02*
X144090500Y-107173300D01*
X144090500Y-106296600D02*
X144090500Y-107173300D01*
X156556700Y-114865900D02*
X151601500Y-114865900D01*
X156655600Y-114767000D02*
X156556700Y-114865900D01*
X146456400Y-108155300D02*
X145474400Y-107173300D01*
%TO.N,COL_7*%
X142506900Y-104610400D02*
X143296700Y-104610400D01*
X143652900Y-104966600D02*
X143652900Y-106234200D01*
X145384600Y-110504200D02*
X145286900Y-110601900D01*
X142443300Y-104674000D02*
X142506900Y-104610400D01*
X152358700Y-115417000D02*
X151206500Y-116569200D01*
X151206500Y-116569200D02*
X147025900Y-116569200D01*
X147025900Y-116569200D02*
X146929300Y-116472600D01*
X143296700Y-104610400D02*
X143652900Y-104966600D01*
X156655600Y-115417000D02*
X152358700Y-115417000D01*
X145286900Y-113852500D02*
X145390300Y-113955900D01*
X143652900Y-106234200D02*
X143590500Y-106296600D01*
X145286900Y-110601900D02*
X145286900Y-113852500D01*
%TO.N,COL_8*%
X143667500Y-107750300D02*
X143090500Y-107173300D01*
X149655600Y-115417000D02*
X151058300Y-115417000D01*
X144925900Y-107750300D02*
X143667500Y-107750300D01*
X143090500Y-106296600D02*
X143090500Y-107173300D01*
%TO.N,COL_9*%
X149655600Y-114767000D02*
X147748600Y-114767000D01*
X142590500Y-106296600D02*
X142590500Y-107425300D01*
X147748600Y-114767000D02*
X147677300Y-114695700D01*
%TO.N,COL_10*%
X141518100Y-107745700D02*
X141421000Y-107745700D01*
X142090500Y-107173300D02*
X141518100Y-107745700D01*
X149655600Y-114117000D02*
X152009700Y-114117000D01*
X142090500Y-106296600D02*
X142090500Y-107173300D01*
%TO.N,COL_11*%
X140667700Y-107472800D02*
X140967200Y-107173300D01*
X149655600Y-113467000D02*
X146945900Y-113467000D01*
X141590500Y-106296600D02*
X141590500Y-107173300D01*
X140967200Y-107173300D02*
X141590500Y-107173300D01*
%TO.N,COL_12*%
X149655600Y-112817000D02*
X149524900Y-112686300D01*
X141090500Y-106296600D02*
X141090500Y-105419900D01*
X142887400Y-105419900D02*
X143113100Y-105194200D01*
X149524900Y-112686300D02*
X147730100Y-112686300D01*
X141090500Y-105419900D02*
X142887400Y-105419900D01*
%TO.N,COL_13*%
X149655600Y-112167000D02*
X151585900Y-112167000D01*
X141885600Y-104124800D02*
X145114300Y-104124800D01*
X140590500Y-105419900D02*
X141885600Y-104124800D01*
X140590500Y-106296600D02*
X140590500Y-105419900D01*
%TO.N,COL_14*%
X152060200Y-111517000D02*
X152527500Y-111984300D01*
X140090500Y-105419900D02*
X142042200Y-103468200D01*
X142042200Y-103468200D02*
X147589200Y-103468200D01*
X149655600Y-111517000D02*
X152060200Y-111517000D01*
X140090500Y-106296600D02*
X140090500Y-105419900D01*
%TO.N,COL_15*%
X149655600Y-110867000D02*
X146839000Y-110867000D01*
X139878600Y-104864000D02*
X139590500Y-105152100D01*
X146839000Y-110867000D02*
X145813700Y-111892300D01*
X139590500Y-105152100D02*
X139590500Y-106296600D01*
%TO.N,COL_16*%
X141835100Y-110960200D02*
X141427500Y-110552600D01*
X139090500Y-107173300D02*
X139335600Y-107418400D01*
X143978200Y-110960200D02*
X141835100Y-110960200D01*
X139090500Y-106296600D02*
X139090500Y-107173300D01*
X139335600Y-107418400D02*
X139604300Y-107418400D01*
%TO.N,COL_17*%
X138590500Y-107209200D02*
X139877300Y-108496000D01*
X139877300Y-108496000D02*
X140731000Y-108496000D01*
X138590500Y-106296600D02*
X138590500Y-107209200D01*
X143874100Y-111506100D02*
X141972200Y-111506100D01*
X143978200Y-111610200D02*
X143874100Y-111506100D01*
%TO.N,COL_18*%
X138322600Y-105419900D02*
X138550900Y-105191600D01*
X143978200Y-112260200D02*
X141745700Y-112260200D01*
X138090500Y-105419900D02*
X138322600Y-105419900D01*
X138090500Y-106296600D02*
X138090500Y-105419900D01*
%TO.N,COL_19*%
X143978200Y-112910200D02*
X141923500Y-112910200D01*
X137590500Y-106296600D02*
X137590500Y-105405300D01*
X141923500Y-112910200D02*
X141809200Y-113024500D01*
X138331000Y-104664800D02*
X139097600Y-104664800D01*
X137590500Y-105405300D02*
X138331000Y-104664800D01*
X139097600Y-104664800D02*
X139126800Y-104694000D01*
%TO.N,COL_20*%
X143978200Y-113560200D02*
X140087500Y-113560200D01*
X137090500Y-107173300D02*
X137386300Y-107469100D01*
X137386300Y-107469100D02*
X137386300Y-107554000D01*
X137090500Y-106296600D02*
X137090500Y-107173300D01*
X140087500Y-113560200D02*
X139975000Y-113447700D01*
%TO.N,COL_21*%
X136590500Y-107173300D02*
X136513600Y-107173300D01*
X136513600Y-107173300D02*
X136277000Y-107409900D01*
X143978200Y-114210200D02*
X139887400Y-114210200D01*
X136590500Y-106296600D02*
X136590500Y-107173300D01*
%TO.N,COL_22*%
X136090500Y-105419900D02*
X136591400Y-105419900D01*
X143978200Y-114860200D02*
X141271500Y-114860200D01*
X136090500Y-106296600D02*
X136090500Y-105419900D01*
X136591400Y-105419900D02*
X136830900Y-105180400D01*
%TO.N,COL_23*%
X135590500Y-105158900D02*
X135590500Y-106296600D01*
X143978200Y-115510200D02*
X140049000Y-115510200D01*
%TO.N,COL_24*%
X135090500Y-107403500D02*
X135090500Y-106296600D01*
X135164200Y-115510200D02*
X134811700Y-115157700D01*
X136978200Y-115510200D02*
X135164200Y-115510200D01*
%TO.N,COL_25*%
X134476500Y-105305900D02*
X134476500Y-105177200D01*
X135438900Y-114860200D02*
X136978200Y-114860200D01*
X134590500Y-105419900D02*
X134476500Y-105305900D01*
X134901600Y-114322900D02*
X135438900Y-114860200D01*
X134590500Y-106296600D02*
X134590500Y-105419900D01*
%TO.N,COL_26*%
X134090500Y-106296600D02*
X134090500Y-107173300D01*
X135205100Y-108266100D02*
X137745100Y-108266100D01*
X138435100Y-114210200D02*
X136978200Y-114210200D01*
X139958700Y-112686600D02*
X138435100Y-114210200D01*
X134090500Y-107173300D02*
X134112300Y-107173300D01*
X134112300Y-107173300D02*
X135205100Y-108266100D01*
%TO.N,COL_27*%
X136978200Y-113560200D02*
X134706700Y-113560200D01*
X133590600Y-107396500D02*
X133590600Y-107173300D01*
X134107700Y-107913600D02*
X133590600Y-107396500D01*
X133590600Y-107173300D02*
X133590500Y-107173300D01*
X133590500Y-106296600D02*
X133590500Y-107173300D01*
%TO.N,COL_28*%
X136978200Y-112910200D02*
X133799300Y-112910200D01*
X133351000Y-105419900D02*
X133580200Y-105190700D01*
X133090500Y-106296600D02*
X133090500Y-105419900D01*
X133090500Y-105419900D02*
X133351000Y-105419900D01*
%TO.N,COL_29*%
X132590500Y-107173300D02*
X132608900Y-107191700D01*
X136978200Y-112260200D02*
X133718800Y-112260200D01*
X133718800Y-112260200D02*
X133470600Y-112012000D01*
X132608900Y-107191700D02*
X132608900Y-108410200D01*
X132590500Y-106296600D02*
X132590500Y-107173300D01*
%TO.N,COL_30*%
X136853200Y-111485200D02*
X136978200Y-111610200D01*
X132090500Y-107856700D02*
X132080000Y-107867200D01*
X132090500Y-106296600D02*
X132090500Y-107856700D01*
X131935300Y-111485200D02*
X136853200Y-111485200D01*
%TO.N,COL_31*%
X136978200Y-110960200D02*
X133471400Y-110960200D01*
X131590500Y-106296600D02*
X131590500Y-107173300D01*
X133471400Y-110960200D02*
X133469700Y-110958500D01*
X131570300Y-107173300D02*
X131342400Y-107401200D01*
X131590500Y-107173300D02*
X131570300Y-107173300D01*
%TO.N,SWDIO*%
X127305900Y-123751200D02*
X127755900Y-123301200D01*
X127755900Y-123301200D02*
X128005900Y-123301200D01*
X127305900Y-124101200D02*
X127305900Y-123751200D01*
%TO.N,SWCLK*%
X126905900Y-124101200D02*
X126805900Y-124201200D01*
D68*
X124655900Y-125951200D02*
X119255900Y-131351200D01*
D67*
X126805900Y-124651200D02*
X127055900Y-124901200D01*
X126805900Y-124201200D02*
X126805900Y-124651200D01*
X124655900Y-124951200D02*
X124655900Y-125951200D01*
X119255900Y-131351200D02*
X117105900Y-131351200D01*
%TO.N,USB_D_N*%
X129805929Y-116601210D02*
X130405930Y-116001210D01*
X127605930Y-117876210D02*
X127605930Y-118001210D01*
X127280930Y-117551210D02*
X127605930Y-117876210D01*
X127280930Y-117226210D02*
X127280930Y-117551210D01*
%TO.N,USBC_D_N*%
X132108400Y-116445000D02*
X131663400Y-116000000D01*
X135392500Y-127156500D02*
X135492500Y-127056500D01*
X134842500Y-128756500D02*
X134842500Y-127916800D01*
X136205700Y-125462500D02*
X136205700Y-124315000D01*
X134930700Y-123040000D02*
X133789400Y-123040000D01*
X131663400Y-116000000D02*
X131460000Y-116000000D01*
X135842500Y-128756500D02*
X135842500Y-129439200D01*
X135164700Y-129747400D02*
X134842500Y-129425200D01*
X136550000Y-125462500D02*
X136630700Y-125381800D01*
X134842500Y-127931500D02*
X135292500Y-127481500D01*
X135534300Y-129747400D02*
X135164700Y-129747400D01*
X138169300Y-125381800D02*
X138250000Y-125462500D01*
X136550000Y-125462500D02*
X136205700Y-125462500D01*
X135842500Y-129439200D02*
X135534300Y-129747400D01*
X136192500Y-125481500D02*
X136517500Y-125481500D01*
X135567500Y-126106500D02*
X136192500Y-125481500D01*
X135292500Y-127481500D02*
X135392500Y-127381500D01*
X135692500Y-126106500D02*
X135567500Y-126106500D01*
X136205700Y-124315000D02*
X134930700Y-123040000D01*
X134842500Y-129425200D02*
X134842500Y-128756500D01*
X136630700Y-125381800D02*
X138169300Y-125381800D01*
X134842500Y-127916800D02*
X135365300Y-127394000D01*
X135392500Y-127381500D02*
X135392500Y-127156500D01*
%TO.N,USB_ILIM_HI*%
X119438200Y-118269200D02*
X119549800Y-118380800D01*
X122672600Y-118251200D02*
X123055900Y-118251200D01*
X122543000Y-118380800D02*
X122672600Y-118251200D01*
X148387500Y-134350000D02*
X150510900Y-134350000D01*
X145160000Y-134350000D02*
X145000000Y-134510000D01*
X119549800Y-118380800D02*
X122543000Y-118380800D01*
X148387500Y-134350000D02*
X145160000Y-134350000D01*
%TO.N,ROW_LATCH_MCU*%
X119829500Y-118651200D02*
X123055900Y-118651200D01*
X119480700Y-119000000D02*
X119829500Y-118651200D01*
%TO.N,ROW_CLK_MCU*%
X123055900Y-119051200D02*
X120701200Y-119051200D01*
X120701200Y-119051200D02*
X119552400Y-120200000D01*
%TO.N,ROW_DATA*%
X121911300Y-119351600D02*
X122010900Y-119451200D01*
D68*
X121015300Y-120550000D02*
X120544800Y-120079500D01*
D67*
X120830100Y-119351600D02*
X121911300Y-119351600D01*
X122010900Y-119451200D02*
X123055900Y-119451200D01*
X119536400Y-115399800D02*
X119536400Y-115967000D01*
X119536400Y-115967000D02*
X118962900Y-116540500D01*
D68*
X120544800Y-120079500D02*
X120544800Y-119636900D01*
D67*
X120544800Y-119636900D02*
X120830100Y-119351600D01*
%TO.N,MUX_S0*%
X146994900Y-110117600D02*
X146879800Y-110002500D01*
X122356800Y-120251200D02*
X123055900Y-120251200D01*
X144869300Y-110310100D02*
X144869300Y-110310200D01*
X122083800Y-120524200D02*
X122356800Y-120251200D01*
X156655600Y-110217000D02*
X152769200Y-110217000D01*
X144869300Y-110310200D02*
X143978200Y-110310200D01*
D68*
X146879800Y-110002500D02*
X145176900Y-110002500D01*
X145176900Y-110002500D02*
X144869300Y-110310100D01*
D67*
X152769200Y-110217000D02*
X152714600Y-110162400D01*
%TO.N,MUX_S1*%
X123055900Y-120651200D02*
X123864300Y-120651200D01*
X151800700Y-106549500D02*
X154818200Y-109567000D01*
D68*
X143978200Y-109660200D02*
X148285200Y-109660200D01*
D67*
X154818200Y-109567000D02*
X156655600Y-109567000D01*
X148205400Y-106549500D02*
X151800700Y-106549500D01*
%TO.N,MUX_S2*%
D68*
X148222300Y-108908700D02*
X148880600Y-109567000D01*
X142537600Y-108380000D02*
X144490300Y-108380000D01*
D67*
X136978200Y-109660200D02*
X141257400Y-109660200D01*
X136978200Y-109660200D02*
X124498300Y-109660200D01*
D68*
X145739500Y-108503700D02*
X146144500Y-108908700D01*
X144490300Y-108380000D02*
X144614000Y-108503700D01*
D67*
X120160200Y-120798200D02*
X120413200Y-121051200D01*
D68*
X146144500Y-108908700D02*
X148222300Y-108908700D01*
X141257400Y-109660200D02*
X142537600Y-108380000D01*
D67*
X120413200Y-121051200D02*
X123055900Y-121051200D01*
X148880600Y-109567000D02*
X149655600Y-109567000D01*
D68*
X144614000Y-108503700D02*
X145739500Y-108503700D01*
%TO.N,MUX_S3*%
X124338300Y-120857600D02*
X124338300Y-120194300D01*
D67*
X136978200Y-109010200D02*
X136846500Y-109141900D01*
D68*
X146248700Y-108657000D02*
X149395600Y-108657000D01*
D67*
X136846500Y-109141900D02*
X129530800Y-109141900D01*
D68*
X141551500Y-109010200D02*
X142433400Y-108128300D01*
X144594500Y-108128300D02*
X144718200Y-108252000D01*
X144718200Y-108252000D02*
X145843700Y-108252000D01*
X123055900Y-121451200D02*
X123744700Y-121451200D01*
X123744700Y-121451200D02*
X124338300Y-120857600D01*
D67*
X149395600Y-108657000D02*
X149655600Y-108917000D01*
D68*
X136978200Y-109010200D02*
X141551500Y-109010200D01*
X142433400Y-108128300D02*
X144594500Y-108128300D01*
X145843700Y-108252000D02*
X146248700Y-108657000D01*
%TO.N,BUS_DI*%
D67*
X120553400Y-122359800D02*
X120678500Y-122484900D01*
X122625700Y-122251200D02*
X123055900Y-122251200D01*
X122392000Y-122484900D02*
X122625700Y-122251200D01*
D68*
X106022700Y-124726900D02*
X107420000Y-123329600D01*
D67*
X106022700Y-124949700D02*
X106022700Y-124726900D01*
D68*
X118799600Y-123329600D02*
X119769400Y-122359800D01*
D67*
X119769400Y-122359800D02*
X120553400Y-122359800D01*
D68*
X107420000Y-123329600D02*
X118799600Y-123329600D01*
D67*
X120678500Y-122484900D02*
X122392000Y-122484900D01*
%TO.N,BUS_RO*%
X120437400Y-126847900D02*
X120341300Y-126751800D01*
X123055900Y-122651200D02*
X123876900Y-122651200D01*
X120341300Y-126751800D02*
X111634800Y-126751800D01*
X111634800Y-126751800D02*
X109832700Y-124949700D01*
%TO.N,BUS_DE*%
X122397800Y-122749300D02*
X122699700Y-123051200D01*
X119883800Y-122611500D02*
X120324000Y-122611500D01*
X122699700Y-123051200D02*
X123055900Y-123051200D01*
X120461800Y-122749300D02*
X122397800Y-122749300D01*
D68*
X118907000Y-123588300D02*
X119883800Y-122611500D01*
X109702000Y-123588300D02*
X118907000Y-123588300D01*
D67*
X107292700Y-124949700D02*
X108562700Y-124949700D01*
X120324000Y-122611500D02*
X120461800Y-122749300D01*
D68*
X108562700Y-124727600D02*
X109702000Y-123588300D01*
D67*
X108562700Y-124949700D02*
X108562700Y-124727600D01*
%TO.N,SYNC_OUT*%
X123080900Y-123476200D02*
X123105900Y-123501200D01*
X116554700Y-125188500D02*
X117724100Y-125188500D01*
X119240100Y-127347400D02*
X122120200Y-127347400D01*
D68*
X123105900Y-123501200D02*
X123105900Y-124451200D01*
D67*
X119186100Y-127293400D02*
X119240100Y-127347400D01*
X122120200Y-127347400D02*
X122511800Y-126955800D01*
%TO.N,SYNC_DE*%
X114014700Y-125188500D02*
X114014700Y-126385900D01*
X111400000Y-125391200D02*
X111400000Y-125110000D01*
D68*
X120419800Y-126385900D02*
X114014700Y-126385900D01*
D67*
X120850000Y-125274700D02*
X120850000Y-125955700D01*
X121077300Y-125047400D02*
X120850000Y-125274700D01*
D68*
X123529700Y-125047400D02*
X121077300Y-125047400D01*
X114014700Y-126385900D02*
X112394700Y-126385900D01*
D67*
X124105900Y-124101200D02*
X124105900Y-124471200D01*
D68*
X124105900Y-124471200D02*
X123529700Y-125047400D01*
X120850000Y-125955700D02*
X120419800Y-126385900D01*
D67*
X112394700Y-126385900D02*
X111400000Y-125391200D01*
%TO.N,XIN*%
X125350000Y-128380200D02*
X125325000Y-128380200D01*
X122532080Y-130805000D02*
X124632080Y-130805000D01*
X125700000Y-128730200D02*
X125350000Y-128380200D01*
X124825000Y-130955199D02*
X125700000Y-130080199D01*
X125175000Y-127030200D02*
X125700000Y-126505200D01*
X125175000Y-128230200D02*
X125175000Y-127030200D01*
X124632080Y-130805000D02*
X124782080Y-130955000D01*
X125700000Y-126505200D02*
X125700000Y-124130200D01*
X125700000Y-130080199D02*
X125700000Y-128730200D01*
X125325000Y-128380200D02*
X125175000Y-128230200D01*
%TO.N,XOUT_MCU*%
X126090000Y-127450000D02*
X126090000Y-124125000D01*
X125665000Y-127875000D02*
X126090000Y-127450000D01*
%TO.N,USB_CC_OUT1*%
X128998600Y-128486700D02*
X128887200Y-128486700D01*
X134425400Y-125265400D02*
X134876100Y-125265400D01*
X133249700Y-126039900D02*
X133650900Y-126039900D01*
X128095200Y-125852100D02*
X128905900Y-125041400D01*
X134182700Y-125508100D02*
X134153100Y-125478500D01*
X128887200Y-128486700D02*
X128095200Y-127694700D01*
X133650900Y-126039900D02*
X134182700Y-125508100D01*
X128905900Y-125041400D02*
X128905900Y-124101200D01*
D68*
X128095200Y-127694700D02*
X128095200Y-125852100D01*
D67*
X134182700Y-125508100D02*
X134425400Y-125265400D01*
%TO.N,USB_CC_OUT2*%
D68*
X130157300Y-123652600D02*
X131033900Y-123652600D01*
D67*
X129955900Y-123451200D02*
X130157300Y-123652600D01*
X134956400Y-123505700D02*
X135417000Y-123966300D01*
X134096400Y-124793200D02*
X133249700Y-125639900D01*
X134742300Y-126096400D02*
X134841900Y-126096400D01*
X135417000Y-124646300D02*
X135270100Y-124793200D01*
D68*
X135417000Y-123966300D02*
X135417000Y-124646300D01*
D67*
X134841900Y-126096400D02*
X135398300Y-125540000D01*
D68*
X131180800Y-123505700D02*
X134956400Y-123505700D01*
D67*
X131033900Y-123652600D02*
X131180800Y-123505700D01*
X135398300Y-124921400D02*
X135270100Y-124793200D01*
X135270100Y-124793200D02*
X134096400Y-124793200D01*
D68*
X135398300Y-125540000D02*
X135398300Y-124921400D01*
%TO.N,ADDR0*%
D67*
X121399500Y-135701500D02*
X121399500Y-134749800D01*
X121399500Y-134749800D02*
X122824000Y-133325300D01*
X129920700Y-123016000D02*
X129152900Y-123016000D01*
D68*
X122824000Y-133325300D02*
X126863300Y-133325300D01*
D67*
X129955900Y-123051200D02*
X129920700Y-123016000D01*
X126863300Y-133325300D02*
X126922900Y-133384900D01*
%TO.N,ADDR1*%
X130805100Y-123141700D02*
X130805100Y-123200900D01*
X129955900Y-122651200D02*
X130314600Y-122651200D01*
X124690500Y-135675300D02*
X124690500Y-134723600D01*
X124690500Y-134723600D02*
X125625600Y-133788500D01*
X125625600Y-133788500D02*
X126367100Y-133788500D01*
X130314600Y-122651200D02*
X130805100Y-123141700D01*
%TO.N,ADDR2*%
X130360700Y-122251200D02*
X130635700Y-121976200D01*
X129955900Y-122251200D02*
X130360700Y-122251200D01*
X130635700Y-121976200D02*
X132062600Y-121976200D01*
X132062600Y-121976200D02*
X132165000Y-122078600D01*
X127981500Y-135701500D02*
X127078800Y-135701500D01*
%TO.N,ADC_B*%
D68*
X134500000Y-118980000D02*
X135190000Y-118980000D01*
X130600000Y-118651000D02*
X130729000Y-118780000D01*
X135190000Y-118980000D02*
X135490000Y-119280000D01*
X130729000Y-118780000D02*
X134400000Y-118780000D01*
X129955999Y-118651000D02*
X130600000Y-118651000D01*
%TO.N,VREG_AVDD*%
D67*
X129305900Y-117063600D02*
X129305900Y-117201200D01*
D68*
X129305900Y-117063600D02*
X132149300Y-117063600D01*
D67*
X130165300Y-114042400D02*
X130850000Y-114727100D01*
D68*
X132576900Y-116636000D02*
X132576900Y-115412800D01*
D67*
X131891200Y-114727100D02*
X130850000Y-114727100D01*
X129305900Y-116064100D02*
X129305900Y-117063600D01*
X130165300Y-112255400D02*
X130165300Y-114042400D01*
X129450000Y-115920000D02*
X129305900Y-116064100D01*
D68*
X132149300Y-117063600D02*
X132576900Y-116636000D01*
D67*
X130415100Y-112005600D02*
X130165300Y-112255400D01*
X132576900Y-115412800D02*
X131891200Y-114727100D01*
%TO.N,VREG_LX*%
D71*
X128525000Y-115000000D02*
X128525000Y-117175000D01*
X126875000Y-113625000D02*
X127150000Y-113625000D01*
X127150000Y-113625000D02*
X128525000Y-115000000D01*
%TO.N,USB_D_P*%
D67*
X126930000Y-117925000D02*
X126930000Y-117225000D01*
X128405000Y-113525000D02*
X128405000Y-114150000D01*
%TO.N,BOOTSEL*%
D68*
X122335000Y-115675000D02*
X123685000Y-117025000D01*
D67*
X123685000Y-117025000D02*
X123685000Y-117175000D01*
D68*
X122935000Y-108925000D02*
X122935000Y-114225000D01*
X122335000Y-114825000D02*
X122335000Y-115675000D01*
D67*
X122935000Y-114225000D02*
X122335000Y-114825000D01*
X126235000Y-105625000D02*
X122935000Y-108925000D01*
%TO.N,+5V*%
D69*
X107611100Y-121170600D02*
X109195700Y-121170600D01*
X102367300Y-120010500D02*
X103269500Y-120010500D01*
X107000900Y-121121700D02*
X105998500Y-120119300D01*
X151488200Y-134251200D02*
X150788200Y-134951200D01*
X140964700Y-119654700D02*
X140410000Y-119100000D01*
X109458700Y-120907600D02*
X111978600Y-120907600D01*
X121038200Y-128901199D02*
X120538200Y-128401199D01*
X143026700Y-121716700D02*
X140964700Y-119654700D01*
X107562200Y-121121700D02*
X107000900Y-121121700D01*
X132393500Y-122630300D02*
X132549400Y-122474400D01*
X131003200Y-122630300D02*
X132393500Y-122630300D01*
X105998500Y-120119300D02*
X103919300Y-120119300D01*
X130872000Y-122499100D02*
X131003200Y-122630300D01*
X107562200Y-121121700D02*
X107611100Y-121170600D01*
X156139200Y-134235000D02*
X156139200Y-127744900D01*
X156139200Y-127744900D02*
X150111000Y-121716700D01*
X105287200Y-119221700D02*
X104058300Y-119221700D01*
X103269500Y-120010500D02*
X103540000Y-119740000D01*
X138145000Y-122474400D02*
X140964700Y-119654700D01*
X120538200Y-128401199D02*
X118188200Y-128401199D01*
X152413900Y-135176900D02*
X155197300Y-135176900D01*
X103919300Y-120119300D02*
X103540000Y-119740000D01*
X132549400Y-122474400D02*
X138145000Y-122474400D01*
X150111000Y-121716700D02*
X143026700Y-121716700D01*
X104058300Y-119221700D02*
X103540000Y-119740000D01*
X109195700Y-121170600D02*
X109458700Y-120907600D01*
X155197300Y-135176900D02*
X156139200Y-134235000D01*
X150788200Y-134951200D02*
X147288200Y-134951200D01*
X151488200Y-134251200D02*
X152413900Y-135176900D01*
%TO.N,GAIN_B*%
D67*
X158305100Y-121098300D02*
X157223000Y-122180400D01*
X158305100Y-121098300D02*
X157755700Y-120548900D01*
X157223000Y-122180400D02*
X157223000Y-122300300D01*
X153565200Y-122145400D02*
X153731400Y-122311600D01*
X153565200Y-120886700D02*
X153565200Y-122145400D01*
X157755700Y-120548900D02*
X153903000Y-120548900D01*
X153903000Y-120548900D02*
X153565200Y-120886700D01*
%TO.N,AMP_B*%
X155360000Y-123630000D02*
X155085000Y-123355000D01*
X155085000Y-123355000D02*
X154760000Y-123355000D01*
X146585000Y-121330000D02*
X150285000Y-121330000D01*
X144260000Y-119005000D02*
X146585000Y-121330000D01*
X136535000Y-119255000D02*
X136960000Y-118830000D01*
X138785000Y-118830000D02*
X139585000Y-118030000D01*
X150285000Y-121330000D02*
X153510000Y-124555000D01*
X155160000Y-124555000D02*
X155360000Y-124355000D01*
X154406350Y-122286620D02*
X154406350Y-121611620D01*
X136960000Y-118830000D02*
X138785000Y-118830000D01*
X154410000Y-123005000D02*
X154410000Y-122330000D01*
X153510000Y-124555000D02*
X155160000Y-124555000D01*
X155360000Y-124355000D02*
X155360000Y-123630000D01*
X154906350Y-121111620D02*
X157256350Y-121111620D01*
X139585000Y-118030000D02*
X143285000Y-118030000D01*
X154406350Y-121611620D02*
X154906350Y-121111620D01*
X154760000Y-123355000D02*
X154410000Y-123005000D01*
%TO.N,USB_CC1*%
X131388700Y-125639900D02*
X131799700Y-125639900D01*
X130699800Y-126848700D02*
X131042500Y-126506000D01*
X134342500Y-128131000D02*
X133712100Y-127500600D01*
X133717500Y-127506500D02*
X133692500Y-127481500D01*
X130874699Y-126589900D02*
X130599700Y-126864900D01*
X131042500Y-126506000D02*
X131042500Y-125986100D01*
X131042500Y-125986100D02*
X131388700Y-125639900D01*
D68*
X130874699Y-126164900D02*
X130874699Y-126589900D01*
D67*
X134342500Y-128756500D02*
X134342500Y-128131000D01*
D68*
X131399700Y-125639900D02*
X130874699Y-126164900D01*
%TO.N,USB_CC2*%
X133924700Y-126589900D02*
X135824700Y-126589900D01*
D67*
X131774700Y-126064900D02*
X131299700Y-126539900D01*
X132574700Y-127439900D02*
X132824700Y-127689900D01*
X137324700Y-128089900D02*
X137324700Y-128739900D01*
X131299700Y-127089900D02*
X131174700Y-127214900D01*
D68*
X132824700Y-127689900D02*
X133924700Y-126589900D01*
D67*
X137317500Y-128731500D02*
X137317500Y-128081500D01*
D68*
X135824700Y-126589900D02*
X137324700Y-128089900D01*
D67*
X131299700Y-126539900D02*
X131299700Y-127089900D01*
%TO.N,USB_VBUS_DET*%
X132324700Y-127014900D02*
X131624699Y-127714900D01*
X129948800Y-127668200D02*
X129998799Y-127718200D01*
X129998799Y-127718200D02*
X131623799Y-127718200D01*
X132324700Y-127027700D02*
X132324700Y-126664900D01*
X129873799Y-127593200D02*
X129948800Y-127668200D01*
%TO.N,FB*%
X105278900Y-122332700D02*
X104347900Y-123263700D01*
X105278900Y-121130000D02*
X105278900Y-122332700D01*
X105287200Y-121121700D02*
X105278900Y-121130000D01*
X104347900Y-123263700D02*
X104277800Y-123263700D01*
%TO.N,ROW_CLK*%
X117374600Y-115611600D02*
X117374600Y-118396400D01*
X103269300Y-113463300D02*
X102769100Y-113463300D01*
X101113500Y-115118900D02*
X101113500Y-115791400D01*
X110330500Y-118216300D02*
X112095500Y-118216300D01*
X106604500Y-115892700D02*
X106604500Y-116442800D01*
X112095500Y-118216300D02*
X112275600Y-118396400D01*
X117586400Y-115399800D02*
X117374600Y-115611600D01*
X117374600Y-118396400D02*
X117374600Y-119042200D01*
X112095500Y-118216300D02*
X112095500Y-115492100D01*
X106604500Y-116442800D02*
X107249700Y-117088000D01*
X102769100Y-113463300D02*
X101113500Y-115118900D01*
X117374600Y-119042200D02*
X118532400Y-120200000D01*
X112275600Y-118396400D02*
X117374600Y-118396400D01*
X107249700Y-117088000D02*
X107371300Y-117088000D01*
%TO.N,SENSE_A*%
X153731400Y-118086600D02*
X153731400Y-117405600D01*
X155070000Y-116067000D02*
X156655600Y-116067000D01*
X156655600Y-116067000D02*
X157271200Y-116067000D01*
X157271200Y-116067000D02*
X158494200Y-117290000D01*
X153731400Y-117405600D02*
X155070000Y-116067000D01*
%TO.N,ROW_9*%
X115680200Y-108363700D02*
X115345500Y-108698400D01*
X115680200Y-107200000D02*
X115680200Y-108363700D01*
X115706900Y-106296600D02*
X115706900Y-107173300D01*
X115706900Y-107173300D02*
X115680200Y-107200000D01*
X115345500Y-108698400D02*
X115345500Y-109767100D01*
%TO.N,ROW_10*%
X115206900Y-107893300D02*
X115206900Y-106296600D01*
X114695500Y-109767100D02*
X114695500Y-108404700D01*
X114695500Y-108404700D02*
X115206900Y-107893300D01*
%TO.N,ROW_11*%
X114706900Y-105193300D02*
X114706900Y-106296600D01*
X114045500Y-109767100D02*
X114045500Y-110979900D01*
X114045500Y-110979900D02*
X114045600Y-110979900D01*
%TO.N,ROW_12*%
X114206900Y-108401900D02*
X114206900Y-106296600D01*
X113395500Y-109213300D02*
X114206900Y-108401900D01*
X113395500Y-109767100D02*
X113395500Y-109213300D01*
%TO.N,ROW_13*%
X113706900Y-108183000D02*
X113706900Y-106296600D01*
X112745500Y-109767100D02*
X112745500Y-109144400D01*
X112745500Y-109144400D02*
X113706900Y-108183000D01*
%TO.N,ROW_14*%
X112095500Y-109767100D02*
X112095500Y-109010900D01*
X113206900Y-107899500D02*
X113206900Y-106296600D01*
X112095500Y-109010900D02*
X113206900Y-107899500D01*
%TO.N,ROW_15*%
X112706900Y-106296600D02*
X112706900Y-107878600D01*
X112706900Y-107878600D02*
X111445500Y-109140000D01*
X111445500Y-109140000D02*
X111445500Y-109767100D01*
%TO.N,SR_CHAIN_2*%
X108554500Y-115331600D02*
X108993600Y-114892500D01*
X110195900Y-114892500D02*
X110795500Y-115492100D01*
X108554500Y-115892700D02*
X108554500Y-115331600D01*
X108993600Y-114892500D02*
X110195900Y-114892500D01*
%TO.N,ROW_LATCH*%
X106713400Y-113859400D02*
X107323800Y-114469800D01*
X112745500Y-116045800D02*
X113748800Y-117049100D01*
X118236400Y-118775700D02*
X118460700Y-119000000D01*
X113748800Y-117049100D02*
X114279100Y-117049100D01*
X112745500Y-114888900D02*
X112326400Y-114469800D01*
X101763500Y-115020100D02*
X102793600Y-113990000D01*
X112745500Y-115492100D02*
X112745500Y-116045800D01*
X101763500Y-115791400D02*
X101763500Y-115020100D01*
X107254500Y-114539100D02*
X107254500Y-115892700D01*
X117901300Y-118396400D02*
X118236400Y-118396400D01*
X112745500Y-115492100D02*
X112745500Y-114888900D01*
X103487500Y-113990000D02*
X103618100Y-113859400D01*
X107323800Y-114469800D02*
X107254500Y-114539100D01*
X102793600Y-113990000D02*
X103487500Y-113990000D01*
X118236400Y-118396400D02*
X118236400Y-118775700D01*
X103618100Y-113859400D02*
X106713400Y-113859400D01*
X118236400Y-115399800D02*
X118236400Y-118396400D01*
X112326400Y-114469800D02*
X107323800Y-114469800D01*
%TO.N,SR_CHAIN_1*%
X115088500Y-113742900D02*
X116286400Y-114940800D01*
X114621600Y-113742900D02*
X115088500Y-113742900D01*
X114045500Y-115492100D02*
X114045500Y-114319000D01*
X116286400Y-114940800D02*
X116286400Y-115399800D01*
X114045500Y-114319000D02*
X114621600Y-113742900D01*
%TO.N,ROW_8*%
X114695500Y-114473000D02*
X114884600Y-114283900D01*
X114695500Y-115492100D02*
X114695500Y-114473000D01*
X116206900Y-106296600D02*
X116206900Y-107423200D01*
%TO.N,SENSE_B*%
X152447900Y-122311600D02*
X153081400Y-122311600D01*
X153081400Y-122311600D02*
X153081400Y-123246200D01*
X147135600Y-116999300D02*
X152447900Y-122311600D01*
X144817300Y-116999300D02*
X147135600Y-116999300D01*
X153081400Y-123246200D02*
X153835200Y-124000000D01*
X143978200Y-116160200D02*
X144817300Y-116999300D01*
%TO.N,USBC_D_P*%
X129676700Y-114691200D02*
X130438300Y-115452800D01*
X137590500Y-126017500D02*
X137590500Y-125904400D01*
X135342500Y-128104500D02*
X135654900Y-127792100D01*
X135654900Y-127792100D02*
X136342500Y-127792100D01*
X136525000Y-126562500D02*
X136925000Y-126962500D01*
X130438300Y-115452800D02*
X131567700Y-115452800D01*
X136342500Y-126577100D02*
X136510400Y-126577100D01*
X138250000Y-126537500D02*
X138110500Y-126537500D01*
X129450000Y-113500000D02*
X129676700Y-113726700D01*
X136300000Y-128712500D02*
X136325000Y-128737500D01*
X138110500Y-126537500D02*
X137590500Y-126017500D01*
X135342500Y-128756500D02*
X135342500Y-128104500D01*
X136510400Y-126577100D02*
X136550000Y-126537500D01*
X129676700Y-113726700D02*
X129676700Y-114691200D01*
X136342500Y-128756500D02*
X136342500Y-127792100D01*
X131742800Y-115277700D02*
X131744400Y-115277700D01*
X136300000Y-127712500D02*
X136300000Y-128712500D01*
X131567700Y-115452800D02*
X131742800Y-115277700D01*
X137875000Y-130787500D02*
X136950000Y-130787500D01*
%TO.N,SW_NODE*%
D69*
X110846400Y-118855700D02*
X111496700Y-119506000D01*
X107928200Y-118855700D02*
X110846400Y-118855700D01*
X107562200Y-119221700D02*
X107928200Y-118855700D01*
%TO.N,XOUT*%
D67*
X127000000Y-129280200D02*
X128350200Y-129280200D01*
X127000000Y-129280200D02*
X126660000Y-128940200D01*
X128350200Y-129280200D02*
X128520000Y-129450000D01*
X126660000Y-128940200D02*
X126660000Y-127900000D01*
%TO.N,BOOTSEL_SW*%
X124197900Y-103048500D02*
X124874600Y-103048500D01*
X124874600Y-103048500D02*
X124874600Y-105234600D01*
X124874600Y-105234600D02*
X125240000Y-105600000D01*
%TO.N,ROW_25*%
X104987500Y-108892700D02*
X106014700Y-108892700D01*
X107706900Y-107200500D02*
X107706900Y-106296600D01*
X106014700Y-108892700D02*
X107706900Y-107200500D01*
X104363500Y-110066400D02*
X104363500Y-109516700D01*
X104363500Y-109516700D02*
X104987500Y-108892700D01*
%TO.N,ROW_26*%
X105976400Y-108426400D02*
X104780600Y-108426400D01*
X103713500Y-109493500D02*
X103713500Y-110066400D01*
X107206900Y-106296600D02*
X107206900Y-107195900D01*
X107206900Y-107195900D02*
X105976400Y-108426400D01*
X104780600Y-108426400D02*
X103713500Y-109493500D01*
%TO.N,ROW_27*%
X106706900Y-106296600D02*
X106706900Y-107173300D01*
X104436100Y-108124700D02*
X103063500Y-109497300D01*
X103063500Y-109497300D02*
X103063500Y-110066400D01*
X106706900Y-107173300D02*
X105755500Y-108124700D01*
X105755500Y-108124700D02*
X104436100Y-108124700D01*
%TO.N,ROW_28*%
X106206900Y-106296600D02*
X106206900Y-107173300D01*
X102413500Y-109461300D02*
X102413500Y-110066400D01*
X105557200Y-107823000D02*
X104051800Y-107823000D01*
X106206900Y-107173300D02*
X105557200Y-107823000D01*
X104051800Y-107823000D02*
X102413500Y-109461300D01*
%TO.N,ROW_29*%
X105706900Y-106296600D02*
X105706900Y-105419900D01*
X101763500Y-110066400D02*
X101763500Y-111196000D01*
X105626100Y-105419900D02*
X105706900Y-105419900D01*
X105383300Y-105177100D02*
X105626100Y-105419900D01*
X101763500Y-111196000D02*
X101836200Y-111268700D01*
%TO.N,ROW_30*%
X105206900Y-107173300D02*
X104858900Y-107521300D01*
X101113500Y-109516300D02*
X101113500Y-110066400D01*
X105206900Y-106296600D02*
X105206900Y-107173300D01*
X103108500Y-107521300D02*
X101113500Y-109516300D01*
X104858900Y-107521300D02*
X103108500Y-107521300D01*
%TO.N,ROW_31*%
X100463500Y-109462300D02*
X100463500Y-110066400D01*
X102752500Y-107173300D02*
X100463500Y-109462300D01*
X104706900Y-107173300D02*
X102752500Y-107173300D01*
X104706900Y-106296600D02*
X104706900Y-107173300D01*
%TO.N,SR_CHAIN_3*%
X103063500Y-115791400D02*
X103063500Y-114668700D01*
X105304500Y-114994300D02*
X105006600Y-114696400D01*
X103063500Y-114668700D02*
X102974800Y-114580000D01*
X105304500Y-115892700D02*
X105304500Y-114994300D01*
%TO.N,ROW_24*%
X104789700Y-114161100D02*
X106178100Y-114161100D01*
X103713500Y-115237300D02*
X104789700Y-114161100D01*
X106178100Y-114161100D02*
X106403200Y-114386200D01*
X103713500Y-115791400D02*
X103713500Y-115237300D01*
X108206900Y-105272100D02*
X108119500Y-105184700D01*
X108206900Y-106296600D02*
X108206900Y-105272100D01*
%TO.N,ROW_0*%
X120206900Y-107173300D02*
X120514800Y-107173300D01*
X120186400Y-114581900D02*
X120186400Y-115399800D01*
X120514800Y-107173300D02*
X120819300Y-106868800D01*
X120206900Y-106296600D02*
X120206900Y-107173300D01*
X119799500Y-114195000D02*
X120186400Y-114581900D01*
%TO.N,ROW_1*%
X119706900Y-107686500D02*
X119706900Y-106296600D01*
X120836400Y-109674800D02*
X120836400Y-108816000D01*
X120836400Y-108816000D02*
X119706900Y-107686500D01*
%TO.N,ROW_2*%
X120186400Y-108804700D02*
X120186400Y-109674800D01*
X119206900Y-107825200D02*
X120186400Y-108804700D01*
X119206900Y-106296600D02*
X119206900Y-107825200D01*
%TO.N,ROW_3*%
X118706900Y-106296600D02*
X118706900Y-107752000D01*
X119536400Y-108581500D02*
X119536400Y-109674800D01*
X118706900Y-107752000D02*
X119536400Y-108581500D01*
%TO.N,ROW_4*%
X118206900Y-107678700D02*
X118886400Y-108358200D01*
X118886400Y-108358200D02*
X118886400Y-109674800D01*
X118206900Y-106296600D02*
X118206900Y-107678700D01*
%TO.N,ROW_5*%
X117706900Y-107844800D02*
X117706900Y-106296600D01*
X118236400Y-108374300D02*
X117706900Y-107844800D01*
X118236400Y-109674800D02*
X118236400Y-108374300D01*
%TO.N,ROW_6*%
X117206900Y-108586900D02*
X117206900Y-106296600D01*
X117586400Y-109674800D02*
X117586400Y-108966400D01*
X117586400Y-108966400D02*
X117206900Y-108586900D01*
%TO.N,ROW_7*%
X116733600Y-107200000D02*
X116706900Y-107173300D01*
X116936400Y-109674800D02*
X116733600Y-109472000D01*
X116706900Y-106296600D02*
X116706900Y-107173300D01*
X116733600Y-109472000D02*
X116733600Y-107200000D01*
%TO.N,ROW_16*%
X112206900Y-106296600D02*
X112206900Y-107473700D01*
X112206900Y-107473700D02*
X112167400Y-107513200D01*
X109204500Y-116571100D02*
X109204500Y-115892700D01*
X108682500Y-117093100D02*
X109204500Y-116571100D01*
%TO.N,ROW_17*%
X109854500Y-109062100D02*
X109854500Y-110167700D01*
X111706900Y-106296600D02*
X111706900Y-107209700D01*
X111706900Y-107209700D02*
X109854500Y-109062100D01*
%TO.N,ROW_18*%
X109204500Y-109277500D02*
X109204500Y-110167700D01*
X111206900Y-107275100D02*
X109204500Y-109277500D01*
X111206900Y-106296600D02*
X111206900Y-107275100D01*
%TO.N,ROW_19*%
X108554500Y-109402600D02*
X108554500Y-110167700D01*
X110706900Y-106296600D02*
X110706900Y-107250200D01*
X110706900Y-107250200D02*
X108554500Y-109402600D01*
%TO.N,ROW_20*%
X107904500Y-109545000D02*
X107904500Y-110167700D01*
X110206900Y-107242600D02*
X107904500Y-109545000D01*
X110206900Y-106296600D02*
X110206900Y-107242600D01*
%TO.N,ROW_21*%
X107254500Y-109563700D02*
X107254500Y-110167700D01*
X109706900Y-106296600D02*
X109706900Y-107173300D01*
X109706900Y-107173300D02*
X109644900Y-107173300D01*
X109644900Y-107173300D02*
X107254500Y-109563700D01*
%TO.N,ROW_22*%
X109206900Y-105419900D02*
X108343500Y-104556500D01*
X108343500Y-104556500D02*
X107181500Y-104556500D01*
X109206900Y-106296600D02*
X109206900Y-105419900D01*
X106604500Y-110167700D02*
X106604500Y-111199600D01*
X106604500Y-111199600D02*
X106766800Y-111361900D01*
%TO.N,ROW_23*%
X108347000Y-107173300D02*
X108706900Y-107173300D01*
X108706900Y-106296600D02*
X108706900Y-107173300D01*
X105954500Y-110167700D02*
X105954500Y-109565800D01*
X105954500Y-109565800D02*
X108347000Y-107173300D01*
%TD*%
M02*
