%TF.GenerationSoftware,KiCad,Pcbnew,10.0.6-10.0.6~ubuntu24.04.1*%
%TF.CreationDate,2026-10-05T07:26:41+00:00*%
%TF.ProjectId,rev4,72657634-2e6b-4696-9361-645f70636258,rev?*%
%TF.SameCoordinates,Original*%
%TF.FileFunction,Copper,L4,Bot*%
%TF.FilePolarity,Positive*%
%FSLAX46Y46*%
G04 Gerber Fmt 4.6, Leading zero omitted, Abs format (unit mm)*
G04 Created by KiCad (PCBNEW 10.0.6-10.0.6~ubuntu24.04.1) date 2026-10-05 07:26:41*
%MOMM*%
%LPD*%
G01*
G04 APERTURE LIST*
%TA.AperFunction,ComponentPad*%
%ADD10R,1.700000X1.700000*%
%TD*%
%TA.AperFunction,ComponentPad*%
%ADD11C,1.700000*%
%TD*%
%TA.AperFunction,ComponentPad*%
%ADD12O,1.000000X2.100000*%
%TD*%
%TA.AperFunction,ComponentPad*%
%ADD13O,1.000000X1.600000*%
%TD*%
%TA.AperFunction,ViaPad*%
%ADD14C,0.500000*%
%TD*%
%TA.AperFunction,ViaPad*%
%ADD15C,0.600000*%
%TD*%
%TA.AperFunction,Conductor*%
%ADD16C,0.150000*%
%TD*%
%TA.AperFunction,Conductor*%
%ADD17C,0.300000*%
%TD*%
%TA.AperFunction,Conductor*%
%ADD18C,0.100000*%
%TD*%
%TA.AperFunction,Conductor*%
%ADD19C,0.200000*%
%TD*%
G04 APERTURE END LIST*
D10*
%TO.P,J6,1*%
%TO.N,SWDIO*%
X111018512Y-135181463D03*
D11*
%TO.P,J6,2*%
%TO.N,SWCLK*%
X113558512Y-135181463D03*
%TO.P,J6,3*%
%TO.N,GND*%
X116098512Y-135181463D03*
%TO.P,J6,4*%
%TO.N,RUN*%
X118638512Y-135181463D03*
%TD*%
D12*
%TO.P,J5,SH*%
%TO.N,GND*%
X131272512Y-129671463D03*
D13*
X131272512Y-133851463D03*
D12*
X139912512Y-129671463D03*
D13*
X139912512Y-133851463D03*
%TD*%
D14*
%TO.N,GND*%
X99336746Y-125501463D03*
X125640512Y-134925340D03*
X146212500Y-133075912D03*
X111906863Y-101946643D03*
X121889952Y-112950000D03*
X129649998Y-112223631D03*
X153239244Y-132551463D03*
X111538746Y-130180801D03*
X132574652Y-124839861D03*
X99336746Y-135451463D03*
X158083037Y-122000255D03*
X157976596Y-123200000D03*
X129250000Y-129150000D03*
X109906863Y-101946643D03*
X114999746Y-124263512D03*
X139130861Y-125700562D03*
X131900000Y-117750000D03*
X148140487Y-101946643D03*
X125375926Y-121781214D03*
X130700000Y-112752105D03*
X138980000Y-119800000D03*
X134500000Y-121480000D03*
X126300000Y-130380197D03*
X118861430Y-114687314D03*
X121462430Y-114850000D03*
X116111430Y-108937314D03*
X118260746Y-130400000D03*
X149600690Y-128073874D03*
X105727746Y-128924716D03*
X157103970Y-119545242D03*
X138840487Y-101946643D03*
X127635926Y-121781214D03*
X114802132Y-117650000D03*
X110620501Y-109029585D03*
X115178714Y-120648845D03*
X133382005Y-118150000D03*
X113347714Y-119948427D03*
X128950000Y-112200000D03*
X138792512Y-128061464D03*
X122800000Y-115050000D03*
X136028151Y-110285162D03*
X143215249Y-124613546D03*
X130100000Y-125933088D03*
X109195714Y-118031157D03*
X141183512Y-125445423D03*
X148705606Y-110192022D03*
X103737887Y-117956894D03*
X132092512Y-128161464D03*
X127197874Y-102248495D03*
X99511746Y-123101480D03*
X129200000Y-114400000D03*
X99638501Y-109328886D03*
X121119987Y-117749189D03*
X105129501Y-109430157D03*
X121256863Y-101946643D03*
X103540000Y-121350000D03*
X120181616Y-117650000D03*
X120999484Y-119894973D03*
X129699524Y-111246359D03*
X113370501Y-114779585D03*
X154595246Y-123900000D03*
X143028151Y-108835162D03*
X128840487Y-101946643D03*
X133019474Y-124291832D03*
X125151625Y-126275851D03*
X104218867Y-122282716D03*
X137685070Y-118086162D03*
X101906863Y-101946643D03*
X149139364Y-119942977D03*
X120100000Y-124200000D03*
X129300000Y-126582258D03*
X112449746Y-129163512D03*
X128550000Y-126177318D03*
X122349512Y-134951463D03*
X112449746Y-124263512D03*
X121123281Y-121900000D03*
X107124714Y-119971716D03*
X150126879Y-131238110D03*
X129250000Y-126033536D03*
X116441399Y-119949203D03*
X145625000Y-133490000D03*
X136840487Y-101946643D03*
X126505926Y-119521214D03*
X143298690Y-127673039D03*
X125375926Y-119521214D03*
X124150000Y-128730197D03*
X128931513Y-134951463D03*
X155889244Y-135451463D03*
X152906354Y-117449116D03*
X129250000Y-115100000D03*
X126505926Y-121781214D03*
X126505926Y-120651214D03*
X125750000Y-115150000D03*
X122207075Y-129550000D03*
X139010000Y-120800000D03*
X142800000Y-135651463D03*
X128550000Y-118100000D03*
X134500000Y-117420000D03*
X133450000Y-120450000D03*
X155889244Y-125501463D03*
X131774652Y-126889861D03*
X103036746Y-128801463D03*
X127635926Y-120651214D03*
X155705606Y-108742022D03*
X146804606Y-115401596D03*
X126600000Y-126350000D03*
X102388501Y-115078886D03*
X132100000Y-120800000D03*
X145665200Y-125588500D03*
X108745714Y-119445578D03*
X107879501Y-115180157D03*
X158444244Y-118050000D03*
%TO.N,+3.3V*%
X122555926Y-117731214D03*
X127250000Y-118550016D03*
X116441399Y-121899203D03*
X126300000Y-115950000D03*
X120123593Y-123100720D03*
X123439952Y-112950000D03*
X131824652Y-124639861D03*
X122588695Y-116600000D03*
X110196714Y-122055989D03*
X125151625Y-125425851D03*
X116299746Y-129163512D03*
X122062430Y-116250000D03*
X121969987Y-117749189D03*
X132005127Y-124119315D03*
X121973281Y-122000000D03*
X115178714Y-121848845D03*
X109577746Y-129174716D03*
X134342292Y-127256375D03*
X147804606Y-115401596D03*
X126155926Y-116581214D03*
X129805926Y-117731214D03*
X129200000Y-120650000D03*
X130115088Y-110745553D03*
X118492399Y-121848782D03*
X134641669Y-115875426D03*
X155006354Y-121749116D03*
X136028151Y-116135162D03*
X134576120Y-124005375D03*
X123756047Y-121916612D03*
X121462430Y-115850000D03*
X120100000Y-125300000D03*
X110946714Y-122055989D03*
X129400000Y-125183536D03*
X124453578Y-118100116D03*
D15*
%TO.N,ROW_VCC*%
X119072000Y-122283100D03*
X117080100Y-117131600D03*
D14*
%TO.N,+5V_USB*%
X138800000Y-126950000D03*
D15*
X151059900Y-132868700D03*
D14*
X137400000Y-126000000D03*
%TO.N,SYNC_P*%
X111200000Y-132300000D03*
X142000000Y-131850000D03*
X105300000Y-132850000D03*
X152300000Y-129100000D03*
%TO.N,SYNC_N*%
X105300000Y-134100000D03*
X141200000Y-131350000D03*
X113000000Y-132300000D03*
X152350000Y-127850000D03*
%TO.N,USB_BUS_EN*%
X127960000Y-123250000D03*
X122819100Y-124460000D03*
X141646700Y-129240800D03*
X137778700Y-121950600D03*
%TO.N,USB_PWR_FAULT*%
X125310000Y-123250000D03*
X126410000Y-122800000D03*
X129160000Y-121950000D03*
X122410000Y-125000000D03*
%TO.N,USB_ILIM*%
X151456880Y-130838110D03*
X149606880Y-129863110D03*
X151456880Y-129863110D03*
X147556880Y-130788108D03*
D15*
%TO.N,USB_ILIM_LOW*%
X145387100Y-130706400D03*
X152421700Y-132554800D03*
D14*
%TO.N,+5V_BUS*%
X120489240Y-136346460D03*
X152139240Y-134096460D03*
%TO.N,BUS_N*%
X105200000Y-131600000D03*
X109200000Y-131600000D03*
%TO.N,VCORE*%
X123875000Y-116400000D03*
X127280930Y-116376210D03*
X127205930Y-122951210D03*
X130680929Y-120226210D03*
X123875000Y-118425000D03*
%TO.N,RUN*%
X122061900Y-123403200D03*
X126391500Y-127072600D03*
%TO.N,STATUS*%
X143405930Y-135001210D03*
X130905930Y-121301210D03*
%TO.N,AMP_A*%
X152156350Y-120911620D03*
X150331350Y-122736620D03*
D15*
%TO.N,COL_0*%
X151484800Y-106296600D03*
X154105500Y-110774400D03*
%TO.N,COL_4*%
X154651800Y-113467000D03*
X151328400Y-105369900D03*
%TO.N,COL_6*%
X154262300Y-114658500D03*
X144165300Y-105068900D03*
%TO.N,COL_7*%
X143803900Y-107482800D03*
X154075200Y-115417000D03*
%TO.N,COL_8*%
X143052100Y-107477000D03*
X151113400Y-115417000D03*
D14*
%TO.N,COL_9*%
X151005610Y-114267020D03*
X143480610Y-105242020D03*
%TO.N,COL_10*%
X142080610Y-105192020D03*
X145580610Y-115792020D03*
D15*
%TO.N,COL_11*%
X145017300Y-108222900D03*
X147053700Y-113468600D03*
%TO.N,COL_12*%
X140644500Y-105140000D03*
X145584300Y-115005000D03*
%TO.N,COL_13*%
X146993500Y-112345500D03*
X142342100Y-108256900D03*
%TO.N,COL_14*%
X140551800Y-107754000D03*
X145431100Y-114253200D03*
D14*
%TO.N,COL_15*%
X139930610Y-105067020D03*
X146055610Y-110442020D03*
D15*
%TO.N,COL_17*%
X140204200Y-111624100D03*
X137593200Y-105138800D03*
%TO.N,COL_18*%
X138338600Y-107448500D03*
X140889600Y-112260200D03*
%TO.N,COL_19*%
X141668100Y-112910200D03*
X138754000Y-108116900D03*
%TO.N,COL_20*%
X139298300Y-111007200D03*
X136831000Y-105121700D03*
%TO.N,COL_22*%
X135834200Y-105143400D03*
X140849500Y-114860200D03*
%TO.N,COL_23*%
X139994100Y-115510200D03*
X136455300Y-107761700D03*
%TO.N,COL_24*%
X134869100Y-108022300D03*
X138436000Y-115510200D03*
%TO.N,COL_25*%
X133550800Y-109028000D03*
X133607700Y-112380200D03*
%TO.N,COL_26*%
X134655600Y-105139700D03*
X138446000Y-114069200D03*
%TO.N,COL_27*%
X135126800Y-113560200D03*
X133591700Y-107475300D03*
%TO.N,COL_28*%
X134595200Y-112910200D03*
X134393600Y-110582600D03*
%TO.N,COL_29*%
X134660700Y-104384900D03*
X138436200Y-112260200D03*
%TO.N,COL_30*%
X132984800Y-111610200D03*
X131988200Y-107601500D03*
D14*
%TO.N,SWDIO*%
X124455930Y-125401210D03*
X127355930Y-124951210D03*
X117205930Y-128951210D03*
%TO.N,SWCLK*%
X127105930Y-125901210D03*
X120705930Y-133801210D03*
%TO.N,USB_D_N*%
X129805929Y-116601210D03*
X127605930Y-118001210D03*
%TO.N,USBC_D_N*%
X131925000Y-116512500D03*
X136100000Y-125012500D03*
%TO.N,USB_ILIM_HI*%
X129405930Y-134201210D03*
X119292000Y-133332400D03*
X122005930Y-133301210D03*
X118451300Y-118173900D03*
%TO.N,ROW_DATA*%
X119084800Y-116590400D03*
X120254200Y-120160200D03*
%TO.N,MUX_S0*%
X123805610Y-120217020D03*
X153478150Y-110210160D03*
X148078150Y-109960160D03*
X155405610Y-110217020D03*
%TO.N,MUX_S1*%
X152721300Y-109258700D03*
X147510700Y-109412500D03*
X120700900Y-120651200D03*
X120077900Y-111013000D03*
%TO.N,MUX_S2*%
X148235200Y-116939600D03*
X150477600Y-119186700D03*
X135516500Y-109660800D03*
X124106000Y-121059100D03*
%TO.N,MUX_S3*%
X134320200Y-109010200D03*
X122216900Y-121257000D03*
X148279000Y-108976200D03*
X120620700Y-111776600D03*
X132334700Y-110016600D03*
%TO.N,BUS_RO*%
X122401700Y-126737100D03*
X124684400Y-123058200D03*
%TO.N,USB_CC_OUT1*%
X134099650Y-125614860D03*
X128799650Y-124839860D03*
%TO.N,ADDR0*%
X129155930Y-123301210D03*
X122705930Y-133301210D03*
%TO.N,ADDR1*%
X129215510Y-122625340D03*
X124715510Y-133300340D03*
%TO.N,ADDR2*%
X130756509Y-123151460D03*
X128006509Y-133301459D03*
%TO.N,USB_D_P*%
X126930000Y-117925000D03*
X128405000Y-114150000D03*
%TO.N,BOOTSEL*%
X122935000Y-110475000D03*
X122935000Y-108925000D03*
D15*
%TO.N,+5V*%
X139128000Y-118165000D03*
X110427600Y-120904000D03*
D14*
%TO.N,USB_CC1*%
X132717510Y-127406460D03*
X130667510Y-128431457D03*
%TO.N,USB_CC2*%
X131317510Y-127356460D03*
X136867510Y-127606460D03*
D15*
%TO.N,ROW_CLK*%
X106742500Y-114643000D03*
X107181500Y-113592200D03*
%TO.N,ROW_LATCH*%
X117261400Y-114137800D03*
X107303800Y-117146500D03*
X107973700Y-113970300D03*
%TO.N,ROW_8*%
X116158900Y-107471200D03*
X114979500Y-114244300D03*
D14*
%TO.N,USBC_D_P*%
X137100000Y-126600000D03*
X130000000Y-113875000D03*
%TO.N,ROW_25*%
X106831860Y-108296640D03*
X104731860Y-111021640D03*
D15*
%TO.N,SR_CHAIN_3*%
X104885700Y-114722400D03*
X103194800Y-114550300D03*
%TO.N,ROW_24*%
X107766100Y-105141100D03*
X105722300Y-114420700D03*
%TO.N,ROW_0*%
X120956500Y-107223300D03*
X120186400Y-114142000D03*
%TO.N,ROW_16*%
X108629600Y-117146000D03*
X112175400Y-107555900D03*
%TO.N,ROW_22*%
X108978100Y-105141100D03*
X106820900Y-111416000D03*
%TD*%
%TO.N,GND*%
D16*
X144165250Y-125563550D02*
X143240250Y-124638550D01*
X145640250Y-125563550D02*
X144165250Y-125563550D01*
%TO.N,+3.3V*%
X120150000Y-123125720D02*
X120600000Y-123575720D01*
X134249650Y-127239860D02*
X134324650Y-127239860D01*
X129175000Y-120475020D02*
X127275000Y-118575020D01*
X120600000Y-124800720D02*
X120125000Y-125275720D01*
X129175000Y-120625020D02*
X129175000Y-120475020D01*
X120898590Y-123075000D02*
X120148590Y-123075000D01*
X131849650Y-124839860D02*
X134249650Y-127239860D01*
X120600000Y-123575720D02*
X120600000Y-124800720D01*
X129775000Y-117756210D02*
X128949999Y-118581210D01*
X131849650Y-124664860D02*
X131849650Y-124839860D01*
X128949999Y-118581210D02*
X127275000Y-118581210D01*
X121948590Y-122025000D02*
X120898590Y-123075000D01*
%TO.N,ROW_VCC*%
X117080100Y-119636900D02*
X119072000Y-121628800D01*
X119072000Y-121628800D02*
X119072000Y-122283100D01*
X117080100Y-117131600D02*
X117080100Y-119636900D01*
%TO.N,+5V_USB*%
D17*
X138521900Y-128677700D02*
X138140200Y-128296000D01*
X140595200Y-130743300D02*
X140764200Y-130574300D01*
X140265300Y-128269800D02*
X139559700Y-128269800D01*
X137400000Y-126000000D02*
X137425000Y-126025000D01*
X151059900Y-132868700D02*
X150604900Y-132413700D01*
X140595200Y-131634700D02*
X140595200Y-130743300D01*
X138140200Y-128296000D02*
X138140200Y-127609800D01*
X140764200Y-128768700D02*
X140265300Y-128269800D01*
X140764200Y-130574300D02*
X140764200Y-128768700D01*
X139559700Y-128269800D02*
X139151800Y-128677700D01*
D16*
X137875000Y-126025000D02*
X138800000Y-126950000D01*
D17*
X139151800Y-128677700D02*
X138521900Y-128677700D01*
D16*
X137425000Y-126025000D02*
X137875000Y-126025000D01*
D17*
X138140200Y-127609800D02*
X138800000Y-126950000D01*
X142314900Y-132503000D02*
X141463500Y-132503000D01*
X142404200Y-132413700D02*
X142314900Y-132503000D01*
X141463500Y-132503000D02*
X140595200Y-131634700D01*
X150604900Y-132413700D02*
X142404200Y-132413700D01*
%TO.N,SYNC_P*%
D16*
X110650000Y-132850000D02*
X111200000Y-132300000D01*
X151525000Y-129100000D02*
X152300000Y-129100000D01*
X148975000Y-131650000D02*
X151525000Y-129100000D01*
X105300000Y-132850000D02*
X110650000Y-132850000D01*
X142200000Y-131650000D02*
X148975000Y-131650000D01*
X142000000Y-131850000D02*
X142200000Y-131650000D01*
%TO.N,SYNC_N*%
X106250000Y-133150000D02*
X112150000Y-133150000D01*
X141200000Y-131350000D02*
X148850000Y-131350000D01*
X148850000Y-131350000D02*
X152350000Y-127850000D01*
X105300000Y-134100000D02*
X106250000Y-133150000D01*
X112150000Y-133150000D02*
X113000000Y-132300000D01*
%TO.N,USB_BUS_EN*%
D18*
X124460000Y-122600000D02*
X125485000Y-122600000D01*
D16*
X141646700Y-126683500D02*
X137778700Y-122815500D01*
X122835000Y-124225000D02*
X124460000Y-122600000D01*
X141646700Y-129240800D02*
X141646700Y-126683500D01*
D18*
X127897500Y-123705400D02*
X126425900Y-123705400D01*
D16*
X122939800Y-124106200D02*
X122939800Y-124339300D01*
X122939800Y-124339300D02*
X122819100Y-124460000D01*
D18*
X125326800Y-122606300D02*
X124439700Y-122606300D01*
X126425900Y-123705400D02*
X125326800Y-122606300D01*
D16*
X137778700Y-122815500D02*
X137778700Y-121950600D01*
X122835000Y-124425000D02*
X122835000Y-124225000D01*
X124439700Y-122606300D02*
X122939800Y-124106200D01*
X126560000Y-123675000D02*
X127935000Y-123675000D01*
X127935000Y-123675000D02*
X127935000Y-123375000D01*
X125485000Y-122600000D02*
X126560000Y-123675000D01*
X127935000Y-123375000D02*
X128009999Y-123300000D01*
X128009999Y-123300000D02*
X127960000Y-123250000D01*
%TO.N,USB_PWR_FAULT*%
D18*
X122360000Y-124950000D02*
X122360000Y-124200000D01*
D16*
X125960000Y-122350000D02*
X126410000Y-122800000D01*
X128060000Y-123950000D02*
X128660000Y-123350000D01*
X126010000Y-123950000D02*
X128060000Y-123950000D01*
X122410000Y-125000000D02*
X122360000Y-124950000D01*
X122360000Y-124200000D02*
X124210000Y-122350000D01*
X128660000Y-123350000D02*
X128660000Y-122450000D01*
X128660000Y-122450000D02*
X129160000Y-121950000D01*
X124210000Y-122350000D02*
X125960000Y-122350000D01*
X125310000Y-123250000D02*
X126010000Y-123950000D01*
%TO.N,USB_ILIM*%
X148681880Y-130788108D02*
X147556880Y-130788108D01*
X149606880Y-129863110D02*
X148681880Y-130788108D01*
X151456880Y-130838110D02*
X151456880Y-129863110D01*
%TO.N,USB_ILIM_LOW*%
X153171800Y-131804700D02*
X153171800Y-127462500D01*
X152421700Y-132554800D02*
X153171800Y-131804700D01*
X153171800Y-127462500D02*
X152720900Y-127011600D01*
X149081900Y-127011600D02*
X145387100Y-130706400D01*
X152720900Y-127011600D02*
X149081900Y-127011600D01*
%TO.N,+5V_BUS*%
D17*
X152139240Y-134096460D02*
X149889240Y-136346460D01*
X149889240Y-136346460D02*
X120489240Y-136346460D01*
%TO.N,BUS_N*%
D16*
X105200000Y-131600000D02*
X109200000Y-131600000D01*
%TO.N,VCORE*%
D19*
X124605930Y-117101210D02*
X123905930Y-116401210D01*
X126405930Y-118601210D02*
X126405930Y-117101210D01*
X128980930Y-121176210D02*
X126405930Y-118601210D01*
X127205930Y-122951210D02*
X128980930Y-121176210D01*
X130680929Y-120226210D02*
X129730930Y-121176210D01*
X126555930Y-117101210D02*
X124605930Y-117101210D01*
X123875000Y-116400000D02*
X123875000Y-118425000D01*
X127280930Y-116376210D02*
X126555930Y-117101210D01*
X129730930Y-121176210D02*
X128980930Y-121176210D01*
%TO.N,RUN*%
D16*
X122743800Y-131076200D02*
X118638500Y-135181500D01*
X122743800Y-127724500D02*
X122743800Y-131076200D01*
X122061900Y-123403200D02*
X121930700Y-123534400D01*
X125739600Y-127724500D02*
X122743800Y-127724500D01*
D18*
X121930700Y-123534400D02*
X121930700Y-126911400D01*
D16*
X126391500Y-127072600D02*
X125739600Y-127724500D01*
D18*
X121930700Y-126911400D02*
X122743800Y-127724500D01*
%TO.N,STATUS*%
D16*
X137755930Y-127801210D02*
X137755930Y-128501209D01*
X137105930Y-127151210D02*
X137755930Y-127801210D01*
D18*
X139205930Y-129951210D02*
X139205930Y-130801210D01*
X131105930Y-121301210D02*
X136955930Y-127151210D01*
X136955930Y-127151210D02*
X137105930Y-127151210D01*
X137755930Y-128501209D02*
X139205930Y-129951210D01*
D16*
X130905930Y-121301210D02*
X131105930Y-121301210D01*
X139205930Y-130801210D02*
X143405930Y-135001210D01*
%TO.N,AMP_A*%
X152156350Y-120911620D02*
X150331350Y-122736620D01*
%TO.N,COL_0*%
X151484800Y-106296600D02*
X154105500Y-108917300D01*
X154105500Y-108917300D02*
X154105500Y-110774400D01*
%TO.N,COL_4*%
X151328400Y-105369900D02*
X154648500Y-108690000D01*
X154648600Y-113463800D02*
X154651800Y-113467000D01*
X154648500Y-113463800D02*
X154648600Y-113463800D01*
X154648500Y-108690000D02*
X154648500Y-113463800D01*
%TO.N,COL_6*%
X153371100Y-113767300D02*
X154262300Y-114658500D01*
X146983900Y-107537500D02*
X146983900Y-109676000D01*
X151119000Y-113767300D02*
X153371100Y-113767300D01*
X144370300Y-105273900D02*
X144720300Y-105273900D01*
X147777300Y-110469400D02*
X147821100Y-110469400D01*
X144720300Y-105273900D02*
X146983900Y-107537500D01*
X146983900Y-109676000D02*
X147777300Y-110469400D01*
X147821100Y-110469400D02*
X151119000Y-113767300D01*
X144165300Y-105068900D02*
X144370300Y-105273900D01*
%TO.N,COL_7*%
X147329500Y-114553100D02*
X148875300Y-114553100D01*
X143806400Y-107485300D02*
X143806400Y-111030000D01*
X148875300Y-114553100D02*
X149177000Y-114854800D01*
X143806400Y-111030000D02*
X147329500Y-114553100D01*
X153513000Y-114854800D02*
X154075200Y-115417000D01*
X143803900Y-107482800D02*
X143806400Y-107485300D01*
X149177000Y-114854800D02*
X153513000Y-114854800D01*
%TO.N,COL_8*%
X147204400Y-114854700D02*
X147204400Y-114854800D01*
X143504700Y-111155000D02*
X147204400Y-114854700D01*
X143504700Y-107929600D02*
X143504700Y-111155000D01*
X147204400Y-114854800D02*
X148600400Y-114854800D01*
X149162600Y-115417000D02*
X151113400Y-115417000D01*
X143052100Y-107477000D02*
X143504700Y-107929600D01*
X148600400Y-114854800D02*
X149162600Y-115417000D01*
%TO.N,COL_9*%
X151005610Y-114267020D02*
X146380610Y-109642020D01*
X146380610Y-109642020D02*
X146380610Y-107892020D01*
X146380610Y-107892020D02*
X144105610Y-105617020D01*
X143855610Y-105617020D02*
X143480610Y-105242020D01*
X144105610Y-105617020D02*
X143855610Y-105617020D01*
%TO.N,COL_10*%
X141980610Y-111267020D02*
X139430610Y-108717020D01*
X141980610Y-112192020D02*
X141980610Y-111267020D01*
X140005610Y-104267020D02*
X141155610Y-104267020D01*
X139430610Y-108717020D02*
X139430610Y-104842020D01*
X139430610Y-104842020D02*
X140005610Y-104267020D01*
X141155610Y-104267020D02*
X142080610Y-105192020D01*
X145580610Y-115792020D02*
X141980610Y-112192020D01*
%TO.N,COL_11*%
X145017300Y-111733200D02*
X146752700Y-113468600D01*
X145017300Y-108222900D02*
X145017300Y-111733200D01*
X146752700Y-113468600D02*
X147053700Y-113468600D01*
%TO.N,COL_12*%
X141428100Y-109505100D02*
X141428100Y-105923600D01*
X145975900Y-114613400D02*
X145975900Y-114052900D01*
X141428100Y-105923600D02*
X140644500Y-105140000D01*
X145584300Y-115005000D02*
X145975900Y-114613400D01*
X145975900Y-114052900D02*
X141428100Y-109505100D01*
%TO.N,COL_13*%
X142342100Y-107431500D02*
X142890300Y-106883300D01*
X142342100Y-108256900D02*
X142342100Y-107431500D01*
X142890300Y-106883300D02*
X144442500Y-106883300D01*
X145575800Y-108016600D02*
X145575800Y-110802000D01*
X146993500Y-112219700D02*
X146993500Y-112345500D01*
X144442500Y-106883300D02*
X145575800Y-108016600D01*
X145575800Y-110802000D02*
X146993500Y-112219700D01*
%TO.N,COL_14*%
X145431100Y-114253200D02*
X140551800Y-109373900D01*
X140551800Y-109373900D02*
X140551800Y-107754000D01*
%TO.N,COL_15*%
X146055610Y-110442020D02*
X146055610Y-108042020D01*
X140880610Y-104592020D02*
X140405610Y-104592020D01*
X142405610Y-106217020D02*
X141155610Y-104967020D01*
X141155610Y-104967020D02*
X141155610Y-104867020D01*
X146055610Y-108042020D02*
X144230610Y-106217020D01*
X144230610Y-106217020D02*
X142405610Y-106217020D01*
X140405610Y-104592020D02*
X139930610Y-105067020D01*
X141155610Y-104867020D02*
X140880610Y-104592020D01*
%TO.N,COL_17*%
X138776100Y-109732500D02*
X140204200Y-111160600D01*
X137662700Y-105208300D02*
X137662700Y-108197500D01*
X137662700Y-108197500D02*
X137662800Y-108197500D01*
X137593200Y-105138800D02*
X137662700Y-105208300D01*
X138776100Y-109493700D02*
X138776100Y-109732500D01*
X137662800Y-108197500D02*
X138302200Y-108836900D01*
X138302200Y-108836900D02*
X138302200Y-109019800D01*
X140204200Y-111160600D02*
X140204200Y-111624100D01*
X138302200Y-109019800D02*
X138776100Y-109493700D01*
%TO.N,COL_18*%
X138603900Y-108894800D02*
X139077800Y-109368700D01*
X138150000Y-107637100D02*
X138150000Y-108258000D01*
X139077800Y-109607400D02*
X140889600Y-111419200D01*
X138603900Y-108711900D02*
X138603900Y-108894800D01*
X138150000Y-108258000D02*
X138603900Y-108711900D01*
X138338600Y-107448500D02*
X138150000Y-107637100D01*
X140889600Y-111419200D02*
X140889600Y-112260200D01*
X139077800Y-109368700D02*
X139077800Y-109607400D01*
%TO.N,COL_19*%
X138905600Y-108268500D02*
X138905600Y-108769800D01*
X138754000Y-108116900D02*
X138905600Y-108268500D01*
X139379500Y-109362200D02*
X141668100Y-111650800D01*
X138905600Y-108769800D02*
X139379500Y-109243700D01*
X139379500Y-109243700D02*
X139379500Y-109362200D01*
X141668100Y-111650800D02*
X141668100Y-112910200D01*
%TO.N,COL_20*%
X137345100Y-105635800D02*
X137345100Y-108306600D01*
X138000500Y-108961900D02*
X138000500Y-109144800D01*
X138474400Y-109618700D02*
X138474400Y-110183300D01*
X138000400Y-108961900D02*
X138000500Y-108961900D01*
X138000500Y-109144800D02*
X138474400Y-109618700D01*
X136831000Y-105121700D02*
X137345100Y-105635800D01*
X138474400Y-110183300D02*
X139298300Y-111007200D01*
X137345100Y-108306600D02*
X138000400Y-108961900D01*
%TO.N,COL_22*%
X137030100Y-106339300D02*
X137030100Y-108601100D01*
X137907900Y-110361600D02*
X140849500Y-113303200D01*
X140849500Y-113303200D02*
X140849500Y-114860200D01*
X135834200Y-105143400D02*
X137030100Y-106339300D01*
X137030100Y-108601100D02*
X137907900Y-109478900D01*
X137907900Y-109478900D02*
X137907900Y-110361600D01*
%TO.N,COL_23*%
X136455300Y-108453000D02*
X137606200Y-109603900D01*
X136455300Y-107761700D02*
X136455300Y-108453000D01*
X137606200Y-109603900D02*
X137606200Y-110486700D01*
X139994100Y-112874600D02*
X139994100Y-115510200D01*
X137606200Y-110486700D02*
X139994100Y-112874600D01*
%TO.N,COL_24*%
X134869100Y-108268500D02*
X134869100Y-108022300D01*
X138436000Y-115510200D02*
X136552600Y-113626800D01*
X136552600Y-109952000D02*
X134869100Y-108268500D01*
X136552600Y-113626800D02*
X136552600Y-109952000D01*
%TO.N,COL_25*%
X133607700Y-109084900D02*
X133550800Y-109028000D01*
X133607700Y-112380200D02*
X133607700Y-109084900D01*
%TO.N,COL_26*%
X134655600Y-107063900D02*
X135395800Y-107804100D01*
X135395800Y-108246900D02*
X137002800Y-109853900D01*
X137002800Y-109853900D02*
X137002800Y-112626000D01*
X137002800Y-112626000D02*
X138446000Y-114069200D01*
X134655600Y-105139700D02*
X134655600Y-107063900D01*
X135395800Y-107804100D02*
X135395800Y-108246900D01*
%TO.N,COL_27*%
X134989800Y-109878900D02*
X135126800Y-110015900D01*
X133591700Y-107489700D02*
X134989800Y-108887800D01*
X134989800Y-108887800D02*
X134989800Y-109878900D01*
X135126800Y-110015900D02*
X135126800Y-113560200D01*
X133591700Y-107475300D02*
X133591700Y-107489700D01*
%TO.N,COL_28*%
X134393600Y-110582600D02*
X134595200Y-110784200D01*
X134595200Y-110784200D02*
X134595200Y-112910200D01*
%TO.N,COL_29*%
X137304500Y-109728900D02*
X137304500Y-111128500D01*
X135215100Y-107196700D02*
X135697500Y-107679100D01*
X137304500Y-111128500D02*
X138436200Y-112260200D01*
X134660700Y-104384900D02*
X135215100Y-104939300D01*
X135215100Y-104939300D02*
X135215100Y-107196700D01*
X135697500Y-108121900D02*
X137304500Y-109728900D01*
X135697500Y-107679100D02*
X135697500Y-108121900D01*
%TO.N,COL_30*%
X131808000Y-110433400D02*
X132984800Y-111610200D01*
X131808000Y-107781700D02*
X131808000Y-110433400D01*
X131988200Y-107601500D02*
X131808000Y-107781700D01*
%TO.N,SWDIO*%
X124905930Y-124951210D02*
X124455930Y-125401210D01*
D18*
X127355930Y-124951210D02*
X124905930Y-124951210D01*
D16*
X117205930Y-128951210D02*
X111005930Y-135151210D01*
%TO.N,SWCLK*%
X127105930Y-127401210D02*
X120705930Y-133801210D01*
X127105930Y-125901210D02*
X127105930Y-127401210D01*
%TO.N,USB_D_N*%
X128730930Y-116601210D02*
X129805929Y-116601210D01*
X127480930Y-117851210D02*
X128730930Y-116601210D01*
X127480930Y-117876210D02*
X127480930Y-117851210D01*
X127605930Y-118001210D02*
X127480930Y-117876210D01*
%TO.N,USBC_D_N*%
X132400000Y-116987500D02*
X131925000Y-116512500D01*
X136100000Y-125012500D02*
X136100000Y-121587500D01*
X132400000Y-117887500D02*
X132400000Y-116987500D01*
X136100000Y-121587500D02*
X132400000Y-117887500D01*
%TO.N,USB_ILIM_HI*%
X118451300Y-118173900D02*
X118451300Y-119860000D01*
X122905930Y-134201210D02*
X129405930Y-134201210D01*
X122005930Y-133301210D02*
X122905930Y-134201210D01*
X119623800Y-122740400D02*
X119292000Y-123072200D01*
X119292000Y-123072200D02*
X119292000Y-133332400D01*
X118451300Y-119860000D02*
X119623800Y-121032500D01*
X119623800Y-121032500D02*
X119623800Y-122740400D01*
%TO.N,ROW_DATA*%
D18*
X119154700Y-119060700D02*
X119154700Y-116660300D01*
D16*
X119154700Y-116660300D02*
X119084800Y-116590400D01*
D18*
X120254200Y-120160200D02*
X119154700Y-119060700D01*
%TO.N,MUX_S0*%
X131405610Y-111617020D02*
X131405610Y-111567020D01*
X131555610Y-111767020D02*
X131555610Y-111717020D01*
X131505609Y-111717020D02*
X131505609Y-111667020D01*
D16*
X131305610Y-111567020D02*
X131255609Y-111517020D01*
D18*
X148328150Y-109710160D02*
X152628150Y-109710160D01*
X131505609Y-111667020D02*
X131455610Y-111667020D01*
D16*
X123105610Y-119517020D02*
X123805610Y-120217020D01*
X135105610Y-115317020D02*
X131555610Y-111767020D01*
X155405610Y-110217020D02*
X155405610Y-114867020D01*
X147155610Y-118717020D02*
X137605610Y-118717020D01*
X137605610Y-118717020D02*
X135105610Y-116217020D01*
X123105610Y-116017020D02*
X123105610Y-119517020D01*
D18*
X152628150Y-109710160D02*
X153128150Y-110210160D01*
D16*
X148078150Y-109960160D02*
X148328150Y-109710160D01*
D18*
X129955610Y-111717020D02*
X127405610Y-111717020D01*
D16*
X127405610Y-111717020D02*
X123105610Y-116017020D01*
D18*
X131455610Y-111667020D02*
X131455610Y-111617020D01*
D16*
X130155610Y-111517020D02*
X129955610Y-111717020D01*
D18*
X131455610Y-111617020D02*
X131405610Y-111617020D01*
D16*
X153305610Y-116967020D02*
X148905610Y-116967020D01*
X131255609Y-111517020D02*
X130155610Y-111517020D01*
D18*
X131405610Y-111567020D02*
X131305610Y-111567020D01*
D16*
X148905610Y-116967020D02*
X147155610Y-118717020D01*
D18*
X135105610Y-116217020D02*
X135105610Y-115317020D01*
D16*
X153128150Y-110210160D02*
X153478150Y-110210160D01*
D18*
X131555610Y-111717020D02*
X131505609Y-111717020D01*
D16*
X155405610Y-114867020D02*
X153305610Y-116967020D01*
%TO.N,MUX_S1*%
X120073200Y-120651200D02*
X118903000Y-119481000D01*
D18*
X147526800Y-109428600D02*
X152551400Y-109428600D01*
X119365100Y-115190900D02*
X119365100Y-111725800D01*
D16*
X152551400Y-109428600D02*
X152721300Y-109258700D01*
D18*
X118903000Y-119481000D02*
X118903000Y-117986800D01*
D16*
X120700900Y-120651200D02*
X120073200Y-120651200D01*
D18*
X118591200Y-115964800D02*
X119365100Y-115190900D01*
X118903000Y-117986800D02*
X118591200Y-117675000D01*
D16*
X118591200Y-117675000D02*
X118591200Y-115964800D01*
X119365100Y-111725800D02*
X120077900Y-111013000D01*
X147510700Y-109412500D02*
X147526800Y-109428600D01*
%TO.N,MUX_S2*%
X135001700Y-117354200D02*
X135001700Y-117212100D01*
X150477600Y-119186700D02*
X137925200Y-119186700D01*
X133750800Y-116918300D02*
X130615400Y-113782900D01*
X134707900Y-116918300D02*
X133750800Y-116918300D01*
X130306500Y-113372500D02*
X126126400Y-113372500D01*
X137925200Y-119186700D02*
X137721500Y-119390400D01*
X124311600Y-120853500D02*
X124106000Y-121059100D01*
X130615400Y-113681400D02*
X130306500Y-113372500D01*
X136225900Y-114127200D02*
X139038300Y-116939600D01*
X126126400Y-113372500D02*
X123371300Y-116127600D01*
X135001700Y-117212100D02*
X134707900Y-116918300D01*
X137721500Y-119390400D02*
X137037900Y-119390400D01*
X139038300Y-116939600D02*
X148235200Y-116939600D01*
X130615400Y-113782900D02*
X130615400Y-113681400D01*
X135516500Y-109660800D02*
X135516500Y-111485700D01*
X135516500Y-111485700D02*
X136225900Y-112195100D01*
X136225900Y-112195100D02*
X136225900Y-114127200D01*
X123371300Y-118674900D02*
X124311600Y-119615200D01*
X123371300Y-116127600D02*
X123371300Y-118674900D01*
X137037900Y-119390400D02*
X135001700Y-117354200D01*
X124311600Y-119615200D02*
X124311600Y-120853500D01*
%TO.N,MUX_S3*%
X122216900Y-120402600D02*
X119619000Y-117804700D01*
D18*
X119619000Y-112778300D02*
X120620700Y-111776600D01*
D16*
X122216900Y-121257000D02*
X122216900Y-120402600D01*
X134377900Y-103820400D02*
X143697200Y-103820400D01*
X143697200Y-103820400D02*
X144824000Y-104947200D01*
X133518400Y-108208300D02*
X133019399Y-107709400D01*
D18*
X119619000Y-117804700D02*
X119619000Y-112778300D01*
D16*
X144913000Y-104947200D02*
X148279000Y-108313200D01*
X132334700Y-109392000D02*
X132334700Y-110016600D01*
X133518400Y-108208300D02*
X132334700Y-109392000D01*
X144824000Y-104947200D02*
X144913000Y-104947200D01*
X148279000Y-108313200D02*
X148279000Y-108976200D01*
X133019399Y-107709400D02*
X133019399Y-105178900D01*
X133019399Y-105178900D02*
X134377900Y-103820400D01*
X134320200Y-109010200D02*
X133518400Y-108208300D01*
%TO.N,BUS_RO*%
X122401700Y-125854000D02*
X122401700Y-126737100D01*
X124684400Y-123058200D02*
X124684400Y-123571300D01*
X124684400Y-123571300D02*
X122401700Y-125854000D01*
%TO.N,USB_CC_OUT1*%
X134099650Y-124689860D02*
X132099650Y-122689860D01*
D18*
X130549650Y-122689860D02*
X129824649Y-123414860D01*
D16*
X134099650Y-125614860D02*
X134099650Y-124689860D01*
X129824649Y-123814860D02*
X128799650Y-124839860D01*
D18*
X132099650Y-122689860D02*
X130549650Y-122689860D01*
X129824649Y-123414860D02*
X129824649Y-123814860D01*
%TO.N,ADDR0*%
D16*
X129155930Y-123301210D02*
X127830930Y-124626210D01*
X127830930Y-128176210D02*
X122705930Y-133301210D01*
X127830930Y-124626210D02*
X127830930Y-128176210D01*
%TO.N,ADDR1*%
D18*
X129390510Y-123750340D02*
X129615510Y-123525340D01*
D16*
X129615510Y-123025340D02*
X129215510Y-122625340D01*
X124715510Y-133300340D02*
X128090510Y-129925340D01*
D18*
X129240510Y-123750340D02*
X129390510Y-123750340D01*
X128090510Y-124900340D02*
X129240510Y-123750340D01*
X128090510Y-129925340D02*
X128090510Y-124900340D01*
X129615510Y-123525340D02*
X129615510Y-123025340D01*
%TO.N,ADDR2*%
D16*
X130681510Y-126026460D02*
X130681510Y-123226460D01*
X130681510Y-123226460D02*
X130756509Y-123151460D01*
X130206510Y-126501460D02*
X130681510Y-126026460D01*
X128006509Y-133301459D02*
X130206510Y-131101460D01*
D18*
X130206510Y-131101460D02*
X130206510Y-126501460D01*
%TO.N,USB_D_P*%
D16*
X128405000Y-116450000D02*
X126930000Y-117925000D01*
X128405000Y-114150000D02*
X128405000Y-116450000D01*
%TO.N,BOOTSEL*%
X122935000Y-108925000D02*
X122935000Y-110475000D01*
%TO.N,+5V*%
D17*
X110427600Y-116789100D02*
X110427600Y-120904000D01*
X134590200Y-114293100D02*
X126831500Y-106534400D01*
X115236000Y-114923600D02*
X114736400Y-114923600D01*
X120696500Y-106534400D02*
X118260800Y-108970100D01*
X113990100Y-114177300D02*
X113039400Y-114177300D01*
X113039400Y-114177300D02*
X110427600Y-116789100D01*
X126831500Y-106534400D02*
X120696500Y-106534400D01*
X118260800Y-108970100D02*
X118260800Y-111898800D01*
X139128000Y-118165000D02*
X135256100Y-114293100D01*
X118260800Y-111898800D02*
X115236000Y-114923600D01*
X135256100Y-114293100D02*
X134590200Y-114293100D01*
X114736400Y-114923600D02*
X113990100Y-114177300D01*
%TO.N,USB_CC1*%
D16*
X130667510Y-127331460D02*
X130667510Y-128431457D01*
X132717510Y-127406460D02*
X132717510Y-127156460D01*
D18*
X131992510Y-126431460D02*
X131567510Y-126431460D01*
X131567510Y-126431460D02*
X130667510Y-127331460D01*
D16*
X132717510Y-127156460D02*
X131992510Y-126431460D01*
%TO.N,USB_CC2*%
X136592510Y-127881460D02*
X132492510Y-127881460D01*
X136867510Y-127606460D02*
X136592510Y-127881460D01*
X132492510Y-127881460D02*
X131967510Y-127356460D01*
D18*
X131967510Y-127356460D02*
X131317510Y-127356460D01*
%TO.N,ROW_CLK*%
D16*
X106742500Y-114031200D02*
X106742500Y-114643000D01*
X107181500Y-113592200D02*
X106742500Y-114031200D01*
%TO.N,ROW_LATCH*%
X113677400Y-116185600D02*
X112872800Y-116990200D01*
X107303800Y-118696200D02*
X107303800Y-117146500D01*
X107973700Y-113970300D02*
X107303800Y-114640200D01*
X112872800Y-116990200D02*
X112872800Y-119328400D01*
X107303800Y-114640200D02*
X107303800Y-117146500D01*
X117261400Y-114137800D02*
X115213600Y-116185600D01*
X112872800Y-119328400D02*
X110692200Y-121509000D01*
X110116600Y-121509000D02*
X107303800Y-118696200D01*
X115213600Y-116185600D02*
X113677400Y-116185600D01*
X110692200Y-121509000D02*
X110116600Y-121509000D01*
%TO.N,ROW_8*%
X116158900Y-107471200D02*
X114979500Y-108650600D01*
X114979500Y-108650600D02*
X114979500Y-114244300D01*
%TO.N,USBC_D_P*%
X130000000Y-113875000D02*
X132425000Y-116300000D01*
X136425000Y-124625000D02*
X136900000Y-125100000D01*
X136425000Y-121450000D02*
X136425000Y-124625000D01*
X133500000Y-117675000D02*
X133625000Y-117675000D01*
X133625000Y-117675000D02*
X133875000Y-117925000D01*
X133625000Y-118650000D02*
X136425000Y-121450000D01*
X136900000Y-125100000D02*
X136900000Y-126400000D01*
X132425000Y-116600000D02*
X133500000Y-117675000D01*
X133875000Y-117925000D02*
X133875000Y-118375000D01*
X132425000Y-116300000D02*
X132425000Y-116600000D01*
X133875000Y-118375000D02*
X133625000Y-118625000D01*
X136900000Y-126400000D02*
X137100000Y-126600000D01*
X133625000Y-118625000D02*
X133625000Y-118650000D01*
%TO.N,ROW_25*%
X106831860Y-108646640D02*
X104731860Y-110746640D01*
X106831860Y-108296640D02*
X106831860Y-108646640D01*
X104731860Y-110746640D02*
X104731860Y-111021640D01*
%TO.N,SR_CHAIN_3*%
X103194800Y-114550300D02*
X103366900Y-114722400D01*
X103366900Y-114722400D02*
X104885700Y-114722400D01*
%TO.N,ROW_24*%
X105722300Y-110217300D02*
X105722300Y-114420700D01*
X108232100Y-107707500D02*
X105722300Y-110217300D01*
X107766100Y-105141100D02*
X108232100Y-105607100D01*
X108232100Y-105607100D02*
X108232100Y-107707500D01*
%TO.N,ROW_0*%
X120186400Y-114142000D02*
X121147400Y-113181000D01*
X121147400Y-107414200D02*
X120956500Y-107223300D01*
X121147400Y-113181000D02*
X121147400Y-107414200D01*
%TO.N,ROW_16*%
X108629600Y-117146000D02*
X112175400Y-113600200D01*
X112175400Y-113600200D02*
X112175400Y-107555900D01*
%TO.N,ROW_22*%
X108978100Y-109258800D02*
X106820900Y-111416000D01*
X108978100Y-105141100D02*
X108978100Y-109258800D01*
%TD*%
M02*
