M48
; DRILL file KiCad 10.0.6-10.0.6~ubuntu24.04.1 date 2026-10-05T07:26:42
; FORMAT={-:-/ absolute / metric / decimal}
; #@! TF.CreationDate,2026-10-05T07:26:42+00:00
; #@! TF.GenerationSoftware,Kicad,Pcbnew,10.0.6-10.0.6~ubuntu24.04.1
; #@! TF.FileFunction,Plated,1,4,PTH
FMAT,2
METRIC
; #@! TA.AperFunction,Plated,PTH,ViaDrill
T1C0.300
; #@! TA.AperFunction,Plated,PTH,ComponentDrill
T2C0.600
; #@! TA.AperFunction,Plated,PTH,ComponentDrill
T3C1.000
%
G90
G05
T1
X99.337Y-125.501
X99.337Y-135.451
X99.512Y-123.101
X99.639Y-109.329
X101.907Y-101.947
X102.389Y-115.079
X103.037Y-128.801
X103.195Y-114.55
X103.54Y-121.35
X103.738Y-117.957
X104.219Y-122.283
X104.732Y-111.022
X104.886Y-114.722
X105.13Y-109.43
X105.2Y-131.6
X105.3Y-132.85
X105.3Y-134.1
X105.722Y-114.421
X105.728Y-128.925
X106.742Y-114.643
X106.821Y-111.416
X106.832Y-108.297
X107.125Y-119.972
X107.181Y-113.592
X107.304Y-117.146
X107.766Y-105.141
X107.88Y-115.18
X107.974Y-113.97
X108.63Y-117.146
X108.746Y-119.446
X108.978Y-105.141
X109.196Y-118.031
X109.2Y-131.6
X109.578Y-129.175
X109.907Y-101.947
X110.197Y-122.056
X110.428Y-120.904
X110.621Y-109.03
X110.947Y-122.056
X111.2Y-132.3
X111.539Y-130.181
X111.907Y-101.947
X112.175Y-107.556
X112.45Y-124.264
X112.45Y-129.164
X113.0Y-132.3
X113.348Y-119.948
X113.371Y-114.78
X114.802Y-117.65
X114.98Y-114.244
X115.0Y-124.264
X115.179Y-120.649
X115.179Y-121.849
X116.111Y-108.937
X116.159Y-107.471
X116.3Y-129.164
X116.441Y-119.949
X116.441Y-121.899
X117.08Y-117.132
X117.206Y-128.951
X117.261Y-114.138
X118.261Y-130.4
X118.451Y-118.174
X118.492Y-121.849
X118.861Y-114.687
X119.072Y-122.283
X119.085Y-116.59
X119.292Y-133.332
X120.078Y-111.013
X120.1Y-124.2
X120.1Y-125.3
X120.124Y-123.101
X120.182Y-117.65
X120.186Y-114.142
X120.254Y-120.16
X120.489Y-136.346
X120.621Y-111.777
X120.701Y-120.651
X120.706Y-133.801
X120.956Y-107.223
X120.999Y-119.895
X121.12Y-117.749
X121.123Y-121.9
X121.257Y-101.947
X121.462Y-114.85
X121.462Y-115.85
X121.89Y-112.95
X121.97Y-117.749
X121.973Y-122.0
X122.006Y-133.301
X122.062Y-123.403
X122.062Y-116.25
X122.207Y-129.55
X122.217Y-121.257
X122.35Y-134.951
X122.402Y-126.737
X122.41Y-125.0
X122.556Y-117.731
X122.589Y-116.6
X122.706Y-133.301
X122.8Y-115.05
X122.819Y-124.46
X122.935Y-108.925
X122.935Y-110.475
X123.44Y-112.95
X123.756Y-121.917
X123.806Y-120.217
X123.875Y-116.4
X123.875Y-118.425
X124.106Y-121.059
X124.15Y-128.73
X124.454Y-118.1
X124.456Y-125.401
X124.684Y-123.058
X124.716Y-133.3
X125.152Y-125.426
X125.152Y-126.276
X125.31Y-123.25
X125.376Y-119.521
X125.376Y-121.781
X125.641Y-134.925
X125.75Y-115.15
X126.156Y-116.581
X126.3Y-115.95
X126.3Y-130.38
X126.391Y-127.073
X126.41Y-122.8
X126.506Y-119.521
X126.506Y-120.651
X126.506Y-121.781
X126.6Y-126.35
X126.93Y-117.925
X127.106Y-125.901
X127.198Y-102.248
X127.206Y-122.951
X127.25Y-118.55
X127.281Y-116.376
X127.356Y-124.951
X127.606Y-118.001
X127.636Y-120.651
X127.636Y-121.781
X127.96Y-123.25
X128.007Y-133.301
X128.405Y-114.15
X128.55Y-118.1
X128.55Y-126.177
X128.8Y-124.84
X128.84Y-101.947
X128.932Y-134.951
X128.95Y-112.2
X129.156Y-123.301
X129.16Y-121.95
X129.2Y-114.4
X129.2Y-120.65
X129.216Y-122.625
X129.25Y-115.1
X129.25Y-126.034
X129.25Y-129.15
X129.3Y-126.582
X129.4Y-125.184
X129.406Y-134.201
X129.65Y-112.224
X129.7Y-111.246
X129.806Y-117.731
X129.806Y-116.601
X130.0Y-113.875
X130.1Y-125.933
X130.115Y-110.746
X130.668Y-128.431
X130.681Y-120.226
X130.7Y-112.752
X130.757Y-123.151
X130.906Y-121.301
X131.318Y-127.356
X131.775Y-126.89
X131.825Y-124.64
X131.9Y-117.75
X131.925Y-116.512
X131.988Y-107.602
X132.005Y-124.119
X132.093Y-128.161
X132.1Y-120.8
X132.335Y-110.017
X132.575Y-124.84
X132.718Y-127.406
X132.985Y-111.61
X133.019Y-124.292
X133.382Y-118.15
X133.45Y-120.45
X133.551Y-109.028
X133.592Y-107.475
X133.608Y-112.38
X134.1Y-125.615
X134.32Y-109.01
X134.342Y-127.256
X134.394Y-110.583
X134.5Y-117.42
X134.5Y-121.48
X134.576Y-124.005
X134.595Y-112.91
X134.642Y-115.875
X134.656Y-105.14
X134.661Y-104.385
X134.869Y-108.022
X135.127Y-113.56
X135.517Y-109.661
X135.834Y-105.143
X136.028Y-110.285
X136.028Y-116.135
X136.1Y-125.012
X136.455Y-107.762
X136.831Y-105.122
X136.84Y-101.947
X136.868Y-127.606
X137.1Y-126.6
X137.4Y-126.0
X137.593Y-105.139
X137.685Y-118.086
X137.779Y-121.951
X138.339Y-107.448
X138.436Y-115.51
X138.436Y-112.26
X138.446Y-114.069
X138.754Y-108.117
X138.793Y-128.061
X138.8Y-126.95
X138.84Y-101.947
X138.98Y-119.8
X139.01Y-120.8
X139.128Y-118.165
X139.131Y-125.701
X139.298Y-111.007
X139.931Y-105.067
X139.994Y-115.51
X140.204Y-111.624
X140.552Y-107.754
X140.644Y-105.14
X140.85Y-114.86
X140.89Y-112.26
X141.184Y-125.445
X141.2Y-131.35
X141.647Y-129.241
X141.668Y-112.91
X142.0Y-131.85
X142.081Y-105.192
X142.342Y-108.257
X142.8Y-135.651
X143.028Y-108.835
X143.052Y-107.477
X143.215Y-124.614
X143.299Y-127.673
X143.406Y-135.001
X143.481Y-105.242
X143.804Y-107.483
X144.165Y-105.069
X145.017Y-108.223
X145.387Y-130.706
X145.431Y-114.253
X145.581Y-115.792
X145.584Y-115.005
X145.625Y-133.49
X145.665Y-125.588
X146.056Y-110.442
X146.213Y-133.076
X146.805Y-115.402
X146.993Y-112.346
X147.054Y-113.469
X147.511Y-109.412
X147.557Y-130.788
X147.805Y-115.402
X148.078Y-109.96
X148.14Y-101.947
X148.235Y-116.94
X148.279Y-108.976
X148.706Y-110.192
X149.139Y-119.943
X149.601Y-128.074
X149.607Y-129.863
X150.127Y-131.238
X150.331Y-122.737
X150.478Y-119.187
X151.006Y-114.267
X151.06Y-132.869
X151.113Y-115.417
X151.328Y-105.37
X151.457Y-129.863
X151.457Y-130.838
X151.485Y-106.297
X152.139Y-134.096
X152.156Y-120.912
X152.3Y-129.1
X152.35Y-127.85
X152.422Y-132.555
X152.721Y-109.259
X152.906Y-117.449
X153.239Y-132.551
X153.478Y-110.21
X154.075Y-115.417
X154.106Y-110.774
X154.262Y-114.658
X154.595Y-123.9
X154.652Y-113.467
X155.006Y-121.749
X155.406Y-110.217
X155.706Y-108.742
X155.889Y-125.501
X155.889Y-135.451
X157.104Y-119.545
X157.977Y-123.2
X158.083Y-122.0
X158.444Y-118.05
T3
X111.019Y-135.181
X113.559Y-135.181
X116.099Y-135.181
X118.639Y-135.181
T2
X131.273Y-129.121G85X131.273Y-130.221
G05
X131.273Y-133.551G85X131.273Y-134.151
G05
X139.913Y-129.121G85X139.913Y-130.221
G05
X139.913Y-133.551G85X139.913Y-134.151
G05
M30
