M48
; DRILL file KiCad 10.0.6-10.0.6~ubuntu24.04.1 date 2026-10-08T01:51:57
; FORMAT={-:-/ absolute / metric / decimal}
; #@! TF.CreationDate,2026-10-08T01:51:57+00:00
; #@! TF.GenerationSoftware,Kicad,Pcbnew,10.0.6-10.0.6~ubuntu24.04.1
; #@! TF.FileFunction,Plated,1,4,PTH
FMAT,2
METRIC
; #@! TA.AperFunction,Plated,PTH,ViaDrill
T1C0.300
; #@! TA.AperFunction,Plated,PTH,ComponentDrill
T2C0.600
; #@! TA.AperFunction,Plated,PTH,ComponentDrill
T3C1.000
%
G90
G05
T1
X99.337Y-125.501
X99.337Y-135.451
X99.512Y-123.101
X99.639Y-109.329
X101.907Y-101.947
X102.389Y-115.079
X102.886Y-108.855
X103.037Y-128.801
X103.713Y-114.601
X103.738Y-117.957
X104.242Y-111.256
X104.294Y-126.653
X105.13Y-109.43
X105.2Y-131.6
X105.3Y-132.85
X105.3Y-134.1
X105.526Y-113.369
X105.728Y-128.925
X106.28Y-105.187
X106.4Y-120.35
X106.4Y-121.15
X106.724Y-114.687
X107.207Y-105.171
X107.579Y-111.268
X107.88Y-115.18
X108.152Y-105.184
X108.227Y-114.45
X108.28Y-118.768
X108.682Y-117.093
X109.179Y-105.343
X109.196Y-118.031
X109.2Y-131.6
X109.578Y-129.175
X109.907Y-101.947
X110.621Y-109.03
X110.698Y-123.75
X111.2Y-132.3
X111.24Y-122.55
X111.24Y-123.25
X111.539Y-130.181
X111.907Y-101.947
X112.207Y-107.403
X112.45Y-124.264
X112.45Y-129.164
X113.0Y-132.3
X113.371Y-114.78
X114.057Y-110.822
X114.695Y-114.266
X114.707Y-107.697
X114.75Y-122.95
X114.75Y-123.65
X114.802Y-117.65
X115.0Y-124.264
X115.179Y-120.649
X115.179Y-121.849
X115.548Y-123.075
X116.111Y-108.937
X116.207Y-107.423
X116.3Y-129.164
X116.441Y-119.949
X116.441Y-121.899
X117.247Y-128.26
X117.395Y-126.669
X118.261Y-130.4
X118.409Y-124.727
X118.492Y-121.849
X118.691Y-113.671
X118.861Y-114.687
X119.186Y-122.075
X119.415Y-118.266
X119.561Y-116.75
X120.005Y-124.514
X120.124Y-123.101
X120.182Y-117.65
X120.435Y-107.402
X120.488Y-136.351
X120.999Y-119.895
X121.12Y-117.749
X121.123Y-121.9
X121.257Y-101.947
X121.462Y-114.85
X121.462Y-115.85
X121.97Y-117.749
X121.973Y-122.0
X122.021Y-120.527
X122.062Y-116.25
X122.207Y-129.55
X122.246Y-121.275
X122.254Y-123.473
X122.35Y-134.951
X122.556Y-117.731
X122.589Y-116.6
X122.706Y-133.301
X123.098Y-109.66
X123.133Y-131.368
X123.756Y-121.917
X123.83Y-123.289
X123.864Y-122.604
X123.872Y-120.688
X124.15Y-128.73
X124.206Y-119.826
X124.241Y-121.253
X124.681Y-128.176
X124.716Y-133.3
X124.78Y-115.35
X125.152Y-125.426
X125.152Y-126.276
X125.376Y-119.521
X125.376Y-121.781
X125.641Y-134.925
X126.3Y-130.38
X126.306Y-118.45
X126.506Y-119.521
X126.506Y-120.651
X126.506Y-121.781
X126.581Y-127.076
X126.6Y-126.35
X126.806Y-111.34
X126.875Y-112.137
X127.006Y-114.851
X127.006Y-115.451
X127.056Y-124.901
X127.181Y-122.976
X127.198Y-102.248
X127.25Y-118.55
X127.636Y-120.651
X127.636Y-121.781
X127.784Y-109.01
X127.806Y-123.201
X128.006Y-133.301
X128.106Y-118.276
X128.484Y-133.818
X128.55Y-126.177
X128.806Y-124.84
X128.84Y-101.947
X128.932Y-134.951
X129.142Y-121.828
X129.156Y-123.301
X129.2Y-120.65
X129.216Y-122.601
X129.25Y-126.034
X129.25Y-129.15
X129.3Y-126.582
X129.4Y-125.184
X129.606Y-115.151
X129.606Y-115.751
X129.806Y-117.731
X130.1Y-125.933
X130.356Y-116.801
X130.681Y-120.226
X130.756Y-123.151
X131.268Y-126.406
X131.418Y-125.231
X131.45Y-113.95
X131.603Y-107.26
X131.775Y-126.89
X131.825Y-124.64
X131.9Y-117.75
X132.005Y-124.119
X132.093Y-128.161
X132.1Y-120.8
X132.103Y-108.535
X132.103Y-110.26
X132.27Y-113.95
X132.504Y-105.184
X132.575Y-124.84
X132.737Y-107.415
X133.019Y-124.292
X133.382Y-118.15
X133.45Y-120.45
X133.543Y-127.256
X133.553Y-110.135
X133.574Y-105.189
X133.757Y-112.89
X133.834Y-107.606
X134.106Y-125.615
X134.342Y-127.256
X134.415Y-105.183
X134.5Y-117.42
X134.5Y-121.48
X134.576Y-124.005
X134.642Y-115.875
X134.664Y-112.26
X134.687Y-114.86
X135.025Y-113.56
X135.558Y-114.129
X135.703Y-108.535
X135.728Y-115.36
X136.028Y-110.285
X136.028Y-116.135
X136.1Y-125.012
X136.219Y-105.188
X136.613Y-107.459
X136.84Y-101.947
X136.893Y-127.606
X136.971Y-105.194
X137.103Y-108.31
X137.106Y-126.59
X137.4Y-126.0
X137.685Y-118.086
X137.693Y-129.806
X137.846Y-127.414
X137.953Y-105.285
X138.661Y-105.189
X138.793Y-128.061
X138.8Y-126.95
X138.834Y-107.421
X138.84Y-101.947
X138.98Y-119.8
X139.01Y-120.8
X139.029Y-114.86
X139.131Y-125.701
X139.455Y-105.183
X139.518Y-110.89
X140.242Y-107.972
X140.289Y-131.175
X140.379Y-110.962
X140.722Y-105.193
X141.16Y-114.21
X141.184Y-125.445
X141.2Y-131.35
X141.412Y-134.0
X141.433Y-108.407
X141.445Y-110.026
X141.519Y-111.292
X141.594Y-113.56
X141.653Y-115.485
X141.803Y-112.235
X142.0Y-131.85
X142.11Y-107.4
X142.322Y-111.614
X142.49Y-130.65
X142.678Y-104.911
X142.8Y-135.651
X143.028Y-108.835
X143.215Y-124.614
X143.285Y-118.03
X143.299Y-127.673
X143.429Y-105.037
X143.888Y-135.401
X144.206Y-105.187
X144.26Y-119.005
X144.634Y-104.384
X145.19Y-130.85
X145.335Y-109.66
X145.338Y-105.169
X145.625Y-133.49
X145.658Y-114.225
X145.665Y-125.588
X145.905Y-112.69
X146.09Y-105.174
X146.13Y-109.95
X146.2Y-114.767
X146.213Y-133.076
X146.236Y-110.707
X146.453Y-112.167
X146.805Y-115.402
X147.115Y-104.173
X147.708Y-108.787
X147.805Y-115.402
X147.875Y-113.554
X148.043Y-110.056
X148.14Y-101.947
X148.706Y-110.192
X149.256Y-129.733
X149.639Y-108.196
X149.756Y-119.837
X150.127Y-131.238
X150.456Y-119.137
X150.878Y-127.237
X151.059Y-115.216
X151.256Y-113.35
X151.418Y-108.678
X151.457Y-129.863
X151.457Y-130.838
X151.545Y-114.616
X151.667Y-110.836
X152.3Y-129.1
X152.35Y-127.85
X152.465Y-112.054
X152.477Y-112.817
X152.639Y-134.092
X152.906Y-117.449
X153.139Y-135.719
X153.185Y-115.149
X153.239Y-132.551
X153.895Y-126.685
X154.223Y-114.117
X154.562Y-113.35
X154.567Y-110.229
X154.595Y-123.9
X155.006Y-121.749
X155.071Y-109.56
X155.706Y-108.742
X155.889Y-125.501
X155.889Y-135.451
X157.104Y-119.545
X157.977Y-123.2
X158.083Y-122.0
X158.444Y-118.05
T3
X111.019Y-135.181
X113.559Y-135.181
X116.099Y-135.181
X118.639Y-135.181
T2
X131.273Y-129.121G85X131.273Y-130.221
G05
X131.273Y-133.551G85X131.273Y-134.151
G05
X139.913Y-129.121G85X139.913Y-130.221
G05
X139.913Y-133.551G85X139.913Y-134.151
G05
M30
