%TF.GenerationSoftware,KiCad,Pcbnew,10.0.6-10.0.6~ubuntu24.04.1*%
%TF.CreationDate,2026-10-08T01:51:57+00:00*%
%TF.ProjectId,rev4,72657634-2e6b-4696-9361-645f70636258,rev?*%
%TF.SameCoordinates,Original*%
%TF.FileFunction,Paste,Top*%
%TF.FilePolarity,Positive*%
%FSLAX46Y46*%
G04 Gerber Fmt 4.6, Leading zero omitted, Abs format (unit mm)*
G04 Created by KiCad (PCBNEW 10.0.6-10.0.6~ubuntu24.04.1) date 2026-10-08 01:51:57*
%MOMM*%
%LPD*%
G01*
G04 APERTURE LIST*
G04 Aperture macros list*
%AMRoundRect*
0 Rectangle with rounded corners*
0 $1 Rounding radius*
0 $2 $3 $4 $5 $6 $7 $8 $9 X,Y pos of 4 corners*
0 Add a 4 corners polygon primitive as box body*
4,1,4,$2,$3,$4,$5,$6,$7,$8,$9,$2,$3,0*
0 Add four circle primitives for the rounded corners*
1,1,$1+$1,$2,$3*
1,1,$1+$1,$4,$5*
1,1,$1+$1,$6,$7*
1,1,$1+$1,$8,$9*
0 Add four rect primitives between the rounded corners*
20,1,$1+$1,$2,$3,$4,$5,0*
20,1,$1+$1,$4,$5,$6,$7,0*
20,1,$1+$1,$6,$7,$8,$9,0*
20,1,$1+$1,$8,$9,$2,$3,0*%
G04 Aperture macros list end*
%ADD10RoundRect,0.079500X-0.079500X-0.100500X0.079500X-0.100500X0.079500X0.100500X-0.079500X0.100500X0*%
%ADD11RoundRect,0.135000X-0.135000X-0.185000X0.135000X-0.185000X0.135000X0.185000X-0.135000X0.185000X0*%
%ADD12RoundRect,0.250000X0.475000X-0.250000X0.475000X0.250000X-0.475000X0.250000X-0.475000X-0.250000X0*%
%ADD13RoundRect,0.200000X-0.200000X-0.275000X0.200000X-0.275000X0.200000X0.275000X-0.200000X0.275000X0*%
%ADD14RoundRect,0.079500X0.079500X0.100500X-0.079500X0.100500X-0.079500X-0.100500X0.079500X-0.100500X0*%
%ADD15RoundRect,0.150000X-0.512500X-0.150000X0.512500X-0.150000X0.512500X0.150000X-0.512500X0.150000X0*%
%ADD16RoundRect,0.135000X0.135000X0.185000X-0.135000X0.185000X-0.135000X-0.185000X0.135000X-0.185000X0*%
%ADD17RoundRect,0.150000X-0.700000X0.150000X-0.700000X-0.150000X0.700000X-0.150000X0.700000X0.150000X0*%
%ADD18RoundRect,0.250000X-1.100000X0.250000X-1.100000X-0.250000X1.100000X-0.250000X1.100000X0.250000X0*%
%ADD19RoundRect,0.250000X-0.475000X0.250000X-0.475000X-0.250000X0.475000X-0.250000X0.475000X0.250000X0*%
%ADD20R,1.200000X1.200000*%
%ADD21RoundRect,0.140000X-0.170000X0.140000X-0.170000X-0.140000X0.170000X-0.140000X0.170000X0.140000X0*%
%ADD22RoundRect,0.140000X-0.140000X-0.170000X0.140000X-0.170000X0.140000X0.170000X-0.140000X0.170000X0*%
%ADD23R,0.300000X1.300000*%
%ADD24R,1.800000X2.200000*%
%ADD25RoundRect,0.140000X0.140000X0.170000X-0.140000X0.170000X-0.140000X-0.170000X0.140000X-0.170000X0*%
%ADD26RoundRect,0.135000X0.185000X-0.135000X0.185000X0.135000X-0.185000X0.135000X-0.185000X-0.135000X0*%
%ADD27RoundRect,0.227500X-0.227500X-0.227500X0.227500X-0.227500X0.227500X0.227500X-0.227500X0.227500X0*%
%ADD28RoundRect,0.050000X-0.350000X-0.050000X0.350000X-0.050000X0.350000X0.050000X-0.350000X0.050000X0*%
%ADD29RoundRect,0.050000X-0.050000X-0.350000X0.050000X-0.350000X0.050000X0.350000X-0.050000X0.350000X0*%
%ADD30RoundRect,0.225000X-0.225000X-0.250000X0.225000X-0.250000X0.225000X0.250000X-0.225000X0.250000X0*%
%ADD31RoundRect,0.140000X0.170000X-0.140000X0.170000X0.140000X-0.170000X0.140000X-0.170000X-0.140000X0*%
%ADD32RoundRect,0.218750X-0.218750X-0.256250X0.218750X-0.256250X0.218750X0.256250X-0.218750X0.256250X0*%
%ADD33RoundRect,0.050000X-0.375000X-0.050000X0.375000X-0.050000X0.375000X0.050000X-0.375000X0.050000X0*%
%ADD34RoundRect,0.050000X-0.050000X-0.275000X0.050000X-0.275000X0.050000X0.275000X-0.050000X0.275000X0*%
%ADD35RoundRect,0.135000X-0.185000X0.135000X-0.185000X-0.135000X0.185000X-0.135000X0.185000X0.135000X0*%
%ADD36RoundRect,0.100000X-0.100000X0.637500X-0.100000X-0.637500X0.100000X-0.637500X0.100000X0.637500X0*%
%ADD37RoundRect,0.112500X0.112500X-0.187500X0.112500X0.187500X-0.112500X0.187500X-0.112500X-0.187500X0*%
%ADD38RoundRect,0.117500X-0.117500X-0.157500X0.117500X-0.157500X0.117500X0.157500X-0.117500X0.157500X0*%
%ADD39RoundRect,0.093750X0.156250X0.093750X-0.156250X0.093750X-0.156250X-0.093750X0.156250X-0.093750X0*%
%ADD40RoundRect,0.075000X0.250000X0.075000X-0.250000X0.075000X-0.250000X-0.075000X0.250000X-0.075000X0*%
%ADD41RoundRect,0.079500X-0.100500X0.079500X-0.100500X-0.079500X0.100500X-0.079500X0.100500X0.079500X0*%
%ADD42RoundRect,0.100000X0.850000X0.100000X-0.850000X0.100000X-0.850000X-0.100000X0.850000X-0.100000X0*%
%ADD43RoundRect,0.250000X-1.075000X0.375000X-1.075000X-0.375000X1.075000X-0.375000X1.075000X0.375000X0*%
%ADD44RoundRect,0.112500X0.350000X0.112500X-0.350000X0.112500X-0.350000X-0.112500X0.350000X-0.112500X0*%
%ADD45RoundRect,0.150000X-0.150000X-0.575000X0.150000X-0.575000X0.150000X0.575000X-0.150000X0.575000X0*%
%ADD46RoundRect,0.075000X-0.075000X-0.650000X0.075000X-0.650000X0.075000X0.650000X-0.075000X0.650000X0*%
%ADD47RoundRect,0.150000X-0.150000X0.825000X-0.150000X-0.825000X0.150000X-0.825000X0.150000X0.825000X0*%
%ADD48RoundRect,0.100000X-0.100000X0.712500X-0.100000X-0.712500X0.100000X-0.712500X0.100000X0.712500X0*%
%ADD49RoundRect,0.150000X0.700000X-0.150000X0.700000X0.150000X-0.700000X0.150000X-0.700000X-0.150000X0*%
%ADD50RoundRect,0.250000X1.100000X-0.250000X1.100000X0.250000X-1.100000X0.250000X-1.100000X-0.250000X0*%
%ADD51RoundRect,0.250000X-0.450000X-0.350000X0.450000X-0.350000X0.450000X0.350000X-0.450000X0.350000X0*%
%ADD52RoundRect,0.160000X-0.205000X-0.160000X0.205000X-0.160000X0.205000X0.160000X-0.205000X0.160000X0*%
%ADD53RoundRect,0.062500X-0.237500X-0.062500X0.237500X-0.062500X0.237500X0.062500X-0.237500X0.062500X0*%
%ADD54R,0.900000X1.700000*%
%ADD55RoundRect,0.250000X-0.250000X-0.475000X0.250000X-0.475000X0.250000X0.475000X-0.250000X0.475000X0*%
%ADD56RoundRect,0.112500X0.187500X0.112500X-0.187500X0.112500X-0.187500X-0.112500X0.187500X-0.112500X0*%
%ADD57RoundRect,0.225000X-0.225000X-0.625000X0.225000X-0.625000X0.225000X0.625000X-0.225000X0.625000X0*%
G04 APERTURE END LIST*
D10*
%TO.C,C36*%
X132637005Y-118320000D03*
X133327005Y-118320000D03*
%TD*%
D11*
%TO.C,R5*%
X118532399Y-121398782D03*
X119552399Y-121398782D03*
%TD*%
D12*
%TO.C,C9*%
X117141399Y-122349203D03*
X117141399Y-120449203D03*
%TD*%
D13*
%TO.C,R38*%
X140725000Y-124300000D03*
X142375000Y-124300000D03*
%TD*%
%TO.C,R12*%
X112173196Y-132089721D03*
X113823196Y-132089721D03*
%TD*%
D14*
%TO.C,C34*%
X121968281Y-121920000D03*
X121278281Y-121920000D03*
%TD*%
D15*
%TO.C,U14*%
X143911190Y-126923039D03*
X143911190Y-127873039D03*
X143911190Y-128823039D03*
X146186190Y-128823039D03*
X146186190Y-127873039D03*
X146186190Y-126923039D03*
%TD*%
D11*
%TO.C,R16*%
X137390000Y-120800000D03*
X138410000Y-120800000D03*
%TD*%
D16*
%TO.C,R28*%
X147023393Y-131322740D03*
X146003393Y-131322740D03*
%TD*%
D17*
%TO.C,J4*%
X103886746Y-127846463D03*
X103886746Y-129096463D03*
X103886746Y-130346463D03*
X103886746Y-131596463D03*
X103886746Y-132846463D03*
X103886746Y-134096463D03*
D18*
X100686746Y-125996463D03*
X100686746Y-135946463D03*
%TD*%
D14*
%TO.C,C24*%
X121844484Y-119914973D03*
X121154484Y-119914973D03*
%TD*%
D19*
%TO.C,C39*%
X99811746Y-121701480D03*
X99811746Y-123601480D03*
%TD*%
D20*
%TO.C,D4*%
X148189690Y-129733463D03*
X148189690Y-126933463D03*
%TD*%
D16*
%TO.C,R20*%
X121383593Y-123400720D03*
X120363593Y-123400720D03*
%TD*%
%TO.C,R17*%
X148010000Y-136356463D03*
X146990000Y-136356463D03*
%TD*%
%TO.C,R21*%
X136510000Y-120920000D03*
X135490000Y-120920000D03*
%TD*%
D21*
%TO.C,C2*%
X115072132Y-116920000D03*
X115072132Y-117880000D03*
%TD*%
D16*
%TO.C,R6*%
X157237354Y-118731295D03*
X156217354Y-118731295D03*
%TD*%
D22*
%TO.C,C12*%
X117530746Y-130699999D03*
X118490746Y-130699999D03*
%TD*%
D23*
%TO.C,J2*%
X147090487Y-106296643D03*
X146590487Y-106296643D03*
X146090487Y-106296643D03*
X145590487Y-106296643D03*
X145090487Y-106296643D03*
X144590487Y-106296643D03*
X144090487Y-106296643D03*
X143590487Y-106296643D03*
X143090487Y-106296643D03*
X142590487Y-106296643D03*
X142090487Y-106296643D03*
X141590487Y-106296643D03*
X141090487Y-106296643D03*
X140590487Y-106296643D03*
X140090487Y-106296643D03*
X139590487Y-106296643D03*
X139090487Y-106296643D03*
X138590487Y-106296643D03*
X138090487Y-106296643D03*
X137590487Y-106296643D03*
X137090487Y-106296643D03*
X136590487Y-106296643D03*
X136090487Y-106296643D03*
X135590487Y-106296643D03*
X135090487Y-106296643D03*
X134590487Y-106296643D03*
X134090487Y-106296643D03*
X133590487Y-106296643D03*
X133090487Y-106296643D03*
X132590487Y-106296643D03*
X132090487Y-106296643D03*
X131590487Y-106296643D03*
D24*
X148990487Y-103046643D03*
X129690487Y-103046643D03*
%TD*%
D25*
%TO.C,C5*%
X148034606Y-115701596D03*
X147074606Y-115701596D03*
%TD*%
D26*
%TO.C,R24*%
X126406000Y-113760000D03*
X126406000Y-112740000D03*
%TD*%
D27*
%TO.C,U9*%
X125375926Y-119521214D03*
X125375926Y-120651214D03*
X125375926Y-121781214D03*
X126505926Y-119521214D03*
X126505926Y-120651214D03*
X126505926Y-121781214D03*
X127635926Y-119521214D03*
X127635926Y-120651214D03*
X127635926Y-121781214D03*
D28*
X123055926Y-117851214D03*
X123055926Y-118251214D03*
X123055926Y-118651214D03*
X123055926Y-119051214D03*
X123055926Y-119451214D03*
X123055926Y-119851214D03*
X123055926Y-120251214D03*
X123055926Y-120651214D03*
X123055926Y-121051214D03*
X123055926Y-121451214D03*
X123055926Y-121851214D03*
X123055926Y-122251214D03*
X123055926Y-122651214D03*
X123055926Y-123051214D03*
X123055926Y-123451214D03*
D29*
X123705926Y-124101214D03*
X124105926Y-124101214D03*
X124505926Y-124101214D03*
X124905926Y-124101214D03*
X125305926Y-124101214D03*
X125705926Y-124101214D03*
X126105926Y-124101214D03*
X126505926Y-124101214D03*
X126905926Y-124101214D03*
X127305926Y-124101214D03*
X127705926Y-124101214D03*
X128105926Y-124101214D03*
X128505926Y-124101214D03*
X128905926Y-124101214D03*
X129305926Y-124101214D03*
D28*
X129955926Y-123451214D03*
X129955926Y-123051214D03*
X129955926Y-122651214D03*
X129955926Y-122251214D03*
X129955926Y-121851214D03*
X129955926Y-121451214D03*
X129955926Y-121051214D03*
X129955926Y-120651214D03*
X129955926Y-120251214D03*
X129955926Y-119851214D03*
X129955926Y-119451214D03*
X129955926Y-119051214D03*
X129955926Y-118651214D03*
X129955926Y-118251214D03*
X129955926Y-117851214D03*
D29*
X129305926Y-117201214D03*
X128905926Y-117201214D03*
X128505926Y-117201214D03*
X128105926Y-117201214D03*
X127705926Y-117201214D03*
X127305926Y-117201214D03*
X126905926Y-117201214D03*
X126505926Y-117201214D03*
X126105926Y-117201214D03*
X125705926Y-117201214D03*
X125305926Y-117201214D03*
X124905926Y-117201214D03*
X124505926Y-117201214D03*
X124105926Y-117201214D03*
X123705926Y-117201214D03*
%TD*%
D30*
%TO.C,C22*%
X104825000Y-122850000D03*
X106375000Y-122850000D03*
%TD*%
D11*
%TO.C,R27*%
X149106879Y-131238110D03*
X150126879Y-131238110D03*
%TD*%
D16*
%TO.C,R8*%
X158305098Y-121098338D03*
X157285098Y-121098338D03*
%TD*%
D31*
%TO.C,C20*%
X122507075Y-130780000D03*
X122507075Y-129820000D03*
%TD*%
D32*
%TO.C,D3*%
X143212500Y-136101463D03*
X144787500Y-136101463D03*
%TD*%
D33*
%TO.C,U13*%
X131799652Y-125639861D03*
X131799652Y-126039861D03*
D34*
X131924652Y-126664861D03*
X132324652Y-126664861D03*
X132724652Y-126664861D03*
X133124652Y-126664861D03*
D33*
X133249652Y-126039861D03*
X133249652Y-125639861D03*
D34*
X133124652Y-125014861D03*
X132724652Y-125014861D03*
X132324652Y-125014861D03*
X131924652Y-125014861D03*
%TD*%
D16*
%TO.C,R3*%
X119552399Y-120200000D03*
X118532399Y-120200000D03*
%TD*%
D22*
%TO.C,C45*%
X137420000Y-119800000D03*
X138380000Y-119800000D03*
%TD*%
D35*
%TO.C,R1*%
X158494244Y-117290000D03*
X158494244Y-118310000D03*
%TD*%
D36*
%TO.C,U2*%
X115345501Y-109767085D03*
X114695501Y-109767085D03*
X114045501Y-109767085D03*
X113395501Y-109767085D03*
X112745501Y-109767085D03*
X112095501Y-109767085D03*
X111445501Y-109767085D03*
X110795501Y-109767085D03*
X110795501Y-115492085D03*
X111445501Y-115492085D03*
X112095501Y-115492085D03*
X112745501Y-115492085D03*
X113395501Y-115492085D03*
X114045501Y-115492085D03*
X114695501Y-115492085D03*
X115345501Y-115492085D03*
%TD*%
D10*
%TO.C,C15*%
X131205000Y-117920000D03*
X131895000Y-117920000D03*
%TD*%
D35*
%TO.C,R35*%
X130705999Y-113210000D03*
X130705999Y-114230000D03*
%TD*%
D37*
%TO.C,D2*%
X151488161Y-134251154D03*
X151488161Y-132151154D03*
%TD*%
D21*
%TO.C,C31*%
X134500000Y-119920000D03*
X134500000Y-120880000D03*
%TD*%
D26*
%TO.C,R32*%
X134876120Y-125265375D03*
X134876120Y-124245375D03*
%TD*%
D16*
%TO.C,R4*%
X119480726Y-119000000D03*
X118460726Y-119000000D03*
%TD*%
%TO.C,R22*%
X136510000Y-119280000D03*
X135490000Y-119280000D03*
%TD*%
D38*
%TO.C,C44*%
X127991000Y-116041000D03*
X129021000Y-116041000D03*
%TD*%
D14*
%TO.C,C33*%
X121964987Y-117919189D03*
X121274987Y-117919189D03*
%TD*%
D10*
%TO.C,C14*%
X131205000Y-120720000D03*
X131895000Y-120720000D03*
%TD*%
D11*
%TO.C,R2*%
X153835246Y-124000000D03*
X154855246Y-124000000D03*
%TD*%
D16*
%TO.C,R31*%
X146210000Y-130150000D03*
X145190000Y-130150000D03*
%TD*%
D31*
%TO.C,C42*%
X143515249Y-125843546D03*
X143515249Y-124883546D03*
%TD*%
D35*
%TO.C,R33*%
X134742292Y-126096375D03*
X134742292Y-127116375D03*
%TD*%
D39*
%TO.C,D5*%
X138250000Y-126537500D03*
D40*
X138325000Y-126000000D03*
D39*
X138250000Y-125462500D03*
X136550000Y-125462500D03*
D40*
X136475000Y-126000000D03*
D39*
X136550000Y-126537500D03*
%TD*%
D41*
%TO.C,C11*%
X125301625Y-125580851D03*
X125301625Y-126270851D03*
%TD*%
D16*
%TO.C,R30*%
X143510000Y-129949999D03*
X142490000Y-129949999D03*
%TD*%
D21*
%TO.C,C1*%
X120451616Y-116920000D03*
X120451616Y-117880000D03*
%TD*%
D42*
%TO.C,U5*%
X156655606Y-116067022D03*
X156655606Y-115417022D03*
X156655606Y-114767022D03*
X156655606Y-114117022D03*
X156655606Y-113467022D03*
X156655606Y-112817022D03*
X156655606Y-112167022D03*
X156655606Y-111517022D03*
X156655606Y-110867022D03*
X156655606Y-110217022D03*
X156655606Y-109567022D03*
X156655606Y-108917022D03*
X149655606Y-108917022D03*
X149655606Y-109567022D03*
X149655606Y-110217022D03*
X149655606Y-110867022D03*
X149655606Y-111517022D03*
X149655606Y-112167022D03*
X149655606Y-112817022D03*
X149655606Y-113467022D03*
X149655606Y-114117022D03*
X149655606Y-114767022D03*
X149655606Y-115417022D03*
X149655606Y-116067022D03*
%TD*%
D26*
%TO.C,R37*%
X111399999Y-125109999D03*
X111399999Y-124089999D03*
%TD*%
D43*
%TO.C,L2*%
X109600000Y-119900000D03*
X109600000Y-122700000D03*
%TD*%
D22*
%TO.C,C21*%
X128520000Y-129449999D03*
X129480000Y-129449999D03*
%TD*%
D44*
%TO.C,Q1*%
X148387500Y-134350000D03*
X148387500Y-133050000D03*
X146612500Y-133700000D03*
%TD*%
D26*
%TO.C,R29*%
X145000000Y-134510000D03*
X145000000Y-133490000D03*
%TD*%
D11*
%TO.C,R7*%
X156343970Y-119845242D03*
X157363970Y-119845242D03*
%TD*%
D21*
%TO.C,C6*%
X137985070Y-117356162D03*
X137985070Y-118316162D03*
%TD*%
D45*
%TO.C,J5*%
X132342512Y-128756463D03*
X133142512Y-128756463D03*
D46*
X134342512Y-128756463D03*
X135342512Y-128756463D03*
X135842512Y-128756463D03*
X136842512Y-128756463D03*
D45*
X138042512Y-128756463D03*
X138842512Y-128756463D03*
X138842512Y-128756463D03*
X138042512Y-128756463D03*
D46*
X137342512Y-128756463D03*
X136342512Y-128756463D03*
X134842512Y-128756463D03*
X133842512Y-128756463D03*
D45*
X133142512Y-128756463D03*
X132342512Y-128756463D03*
%TD*%
D26*
%TO.C,R23*%
X125406000Y-113760000D03*
X125406000Y-112740000D03*
%TD*%
D31*
%TO.C,C28*%
X121762430Y-116080000D03*
X121762430Y-115120000D03*
%TD*%
D16*
%TO.C,R25*%
X126260000Y-105600000D03*
X125240000Y-105600000D03*
%TD*%
D47*
%TO.C,U11*%
X116554746Y-125188512D03*
X115284746Y-125188512D03*
X114014746Y-125188512D03*
X112744746Y-125188512D03*
X112744746Y-130138512D03*
X114014746Y-130138512D03*
X115284746Y-130138512D03*
X116554746Y-130138512D03*
%TD*%
D31*
%TO.C,C38*%
X139430861Y-126930562D03*
X139430861Y-125970562D03*
%TD*%
D48*
%TO.C,U7*%
X155031354Y-118086616D03*
X154381354Y-118086616D03*
X153731354Y-118086616D03*
X153081354Y-118086616D03*
X153081354Y-122311616D03*
X153731354Y-122311616D03*
X154381354Y-122311616D03*
X155031354Y-122311616D03*
%TD*%
D11*
%TO.C,R34*%
X128828815Y-127568154D03*
X129848815Y-127568154D03*
%TD*%
D41*
%TO.C,C25*%
X126500000Y-125605000D03*
X126500000Y-126295000D03*
%TD*%
D16*
%TO.C,R15*%
X140410000Y-119100000D03*
X139390000Y-119100000D03*
%TD*%
D14*
%TO.C,C18*%
X125445000Y-116100000D03*
X124755000Y-116100000D03*
%TD*%
D49*
%TO.C,J3*%
X154039244Y-134096463D03*
X154039244Y-132846463D03*
X154039244Y-131596463D03*
X154039244Y-130346463D03*
X154039244Y-129096463D03*
X154039244Y-127846463D03*
D50*
X157239244Y-135946463D03*
X157239244Y-125996463D03*
%TD*%
D51*
%TO.C,Y1*%
X124800000Y-130980197D03*
X127000000Y-130980197D03*
X127000000Y-129280197D03*
X124800000Y-129280197D03*
%TD*%
D52*
%TO.C,U12*%
X106400000Y-120350000D03*
X106400000Y-121150000D03*
D53*
X105450000Y-120000000D03*
X105450000Y-120500000D03*
X105450000Y-121000000D03*
X105450000Y-121500000D03*
X107350000Y-121500000D03*
X107350000Y-121000000D03*
X107350000Y-120500000D03*
X107350000Y-120000000D03*
%TD*%
D13*
%TO.C,R11*%
X106515326Y-132050927D03*
X108165326Y-132050927D03*
%TD*%
D41*
%TO.C,C13*%
X129300000Y-125338536D03*
X129300000Y-126028536D03*
%TD*%
D31*
%TO.C,C27*%
X104420000Y-120780000D03*
X104420000Y-119820000D03*
%TD*%
D10*
%TO.C,C17*%
X131604999Y-113210000D03*
X132294999Y-113210000D03*
%TD*%
D21*
%TO.C,C40*%
X130400000Y-125203088D03*
X130400000Y-126163088D03*
%TD*%
D47*
%TO.C,U10*%
X109832746Y-124949716D03*
X108562746Y-124949716D03*
X107292746Y-124949716D03*
X106022746Y-124949716D03*
X106022746Y-129899716D03*
X107292746Y-129899716D03*
X108562746Y-129899716D03*
X109832746Y-129899716D03*
%TD*%
D10*
%TO.C,C35*%
X132755000Y-120320000D03*
X133445000Y-120320000D03*
%TD*%
D36*
%TO.C,U4*%
X104363501Y-110066386D03*
X103713501Y-110066386D03*
X103063501Y-110066386D03*
X102413501Y-110066386D03*
X101763501Y-110066386D03*
X101113501Y-110066386D03*
X100463501Y-110066386D03*
X99813501Y-110066386D03*
X99813501Y-115791386D03*
X100463501Y-115791386D03*
X101113501Y-115791386D03*
X101763501Y-115791386D03*
X102413501Y-115791386D03*
X103063501Y-115791386D03*
X103713501Y-115791386D03*
X104363501Y-115791386D03*
%TD*%
D54*
%TO.C,SW1*%
X124197874Y-103048495D03*
X127597874Y-103048495D03*
%TD*%
D42*
%TO.C,U6*%
X143978151Y-116160162D03*
X143978151Y-115510162D03*
X143978151Y-114860162D03*
X143978151Y-114210162D03*
X143978151Y-113560162D03*
X143978151Y-112910162D03*
X143978151Y-112260162D03*
X143978151Y-111610162D03*
X143978151Y-110960162D03*
X143978151Y-110310162D03*
X143978151Y-109660162D03*
X143978151Y-109010162D03*
X136978151Y-109010162D03*
X136978151Y-109660162D03*
X136978151Y-110310162D03*
X136978151Y-110960162D03*
X136978151Y-111610162D03*
X136978151Y-112260162D03*
X136978151Y-112910162D03*
X136978151Y-113560162D03*
X136978151Y-114210162D03*
X136978151Y-114860162D03*
X136978151Y-115510162D03*
X136978151Y-116160162D03*
%TD*%
D21*
%TO.C,C4*%
X104007887Y-117226894D03*
X104007887Y-118186894D03*
%TD*%
%TO.C,C43*%
X130705999Y-115100000D03*
X130705999Y-116060000D03*
%TD*%
D55*
%TO.C,C46*%
X144750000Y-125100000D03*
X146650000Y-125100000D03*
%TD*%
D11*
%TO.C,R36*%
X125640000Y-127900000D03*
X126660000Y-127900000D03*
%TD*%
D23*
%TO.C,J1*%
X120206863Y-106296643D03*
X119706863Y-106296643D03*
X119206863Y-106296643D03*
X118706863Y-106296643D03*
X118206863Y-106296643D03*
X117706863Y-106296643D03*
X117206863Y-106296643D03*
X116706863Y-106296643D03*
X116206863Y-106296643D03*
X115706863Y-106296643D03*
X115206863Y-106296643D03*
X114706863Y-106296643D03*
X114206863Y-106296643D03*
X113706863Y-106296643D03*
X113206863Y-106296643D03*
X112706863Y-106296643D03*
X112206863Y-106296643D03*
X111706863Y-106296643D03*
X111206863Y-106296643D03*
X110706863Y-106296643D03*
X110206863Y-106296643D03*
X109706863Y-106296643D03*
X109206863Y-106296643D03*
X108706863Y-106296643D03*
X108206863Y-106296643D03*
X107706863Y-106296643D03*
X107206863Y-106296643D03*
X106706863Y-106296643D03*
X106206863Y-106296643D03*
X105706863Y-106296643D03*
X105206863Y-106296643D03*
X104706863Y-106296643D03*
D24*
X122106863Y-103046643D03*
X102806863Y-103046643D03*
%TD*%
D38*
%TO.C,C19*%
X127991000Y-115101000D03*
X129021000Y-115101000D03*
%TD*%
D41*
%TO.C,C16*%
X131600000Y-115235000D03*
X131600000Y-115925000D03*
%TD*%
D36*
%TO.C,U1*%
X120836430Y-109674814D03*
X120186430Y-109674814D03*
X119536430Y-109674814D03*
X118886430Y-109674814D03*
X118236430Y-109674814D03*
X117586430Y-109674814D03*
X116936430Y-109674814D03*
X116286430Y-109674814D03*
X116286430Y-115399814D03*
X116936430Y-115399814D03*
X117586430Y-115399814D03*
X118236430Y-115399814D03*
X118886430Y-115399814D03*
X119536430Y-115399814D03*
X120186430Y-115399814D03*
X120836430Y-115399814D03*
%TD*%
D16*
%TO.C,R26*%
X134901669Y-116175426D03*
X133881669Y-116175426D03*
%TD*%
D11*
%TO.C,R9*%
X157223037Y-122300255D03*
X158243037Y-122300255D03*
%TD*%
D31*
%TO.C,C32*%
X134500000Y-118980000D03*
X134500000Y-118020000D03*
%TD*%
D56*
%TO.C,D1*%
X102367266Y-120010480D03*
X100267266Y-120010480D03*
%TD*%
D22*
%TO.C,C7*%
X157246596Y-123500000D03*
X158206596Y-123500000D03*
%TD*%
%TO.C,C29*%
X110808746Y-130480800D03*
X111768746Y-130480800D03*
%TD*%
D31*
%TO.C,C41*%
X115478714Y-121878845D03*
X115478714Y-120918845D03*
%TD*%
D21*
%TO.C,C3*%
X109465714Y-117301157D03*
X109465714Y-118261157D03*
%TD*%
D12*
%TO.C,C37*%
X141883512Y-127845423D03*
X141883512Y-125945423D03*
%TD*%
D36*
%TO.C,U3*%
X109854501Y-110167657D03*
X109204501Y-110167657D03*
X108554501Y-110167657D03*
X107904501Y-110167657D03*
X107254501Y-110167657D03*
X106604501Y-110167657D03*
X105954501Y-110167657D03*
X105304501Y-110167657D03*
X105304501Y-115892657D03*
X105954501Y-115892657D03*
X106604501Y-115892657D03*
X107254501Y-115892657D03*
X107904501Y-115892657D03*
X108554501Y-115892657D03*
X109204501Y-115892657D03*
X109854501Y-115892657D03*
%TD*%
D55*
%TO.C,C23*%
X112050000Y-122550000D03*
X113950000Y-122550000D03*
%TD*%
D57*
%TO.C,L1*%
X127706000Y-113451000D03*
X129306000Y-113451000D03*
%TD*%
M02*
