%TF.GenerationSoftware,KiCad,Pcbnew,10.0.6-10.0.6~ubuntu24.04.1*%
%TF.CreationDate,2026-10-05T07:26:41+00:00*%
%TF.ProjectId,rev4,72657634-2e6b-4696-9361-645f70636258,rev?*%
%TF.SameCoordinates,Original*%
%TF.FileFunction,Copper,L1,Top*%
%TF.FilePolarity,Positive*%
%FSLAX46Y46*%
G04 Gerber Fmt 4.6, Leading zero omitted, Abs format (unit mm)*
G04 Created by KiCad (PCBNEW 10.0.6-10.0.6~ubuntu24.04.1) date 2026-10-05 07:26:41*
%MOMM*%
%LPD*%
G01*
G04 APERTURE LIST*
G04 Aperture macros list*
%AMRoundRect*
0 Rectangle with rounded corners*
0 $1 Rounding radius*
0 $2 $3 $4 $5 $6 $7 $8 $9 X,Y pos of 4 corners*
0 Add a 4 corners polygon primitive as box body*
4,1,4,$2,$3,$4,$5,$6,$7,$8,$9,$2,$3,0*
0 Add four circle primitives for the rounded corners*
1,1,$1+$1,$2,$3*
1,1,$1+$1,$4,$5*
1,1,$1+$1,$6,$7*
1,1,$1+$1,$8,$9*
0 Add four rect primitives between the rounded corners*
20,1,$1+$1,$2,$3,$4,$5,0*
20,1,$1+$1,$4,$5,$6,$7,0*
20,1,$1+$1,$6,$7,$8,$9,0*
20,1,$1+$1,$8,$9,$2,$3,0*%
G04 Aperture macros list end*
%TA.AperFunction,EtchedComponent*%
%ADD10C,0.000000*%
%TD*%
%TA.AperFunction,SMDPad,CuDef*%
%ADD11RoundRect,0.100000X-0.130000X-0.100000X0.130000X-0.100000X0.130000X0.100000X-0.130000X0.100000X0*%
%TD*%
%TA.AperFunction,SMDPad,CuDef*%
%ADD12RoundRect,0.135000X-0.135000X-0.185000X0.135000X-0.185000X0.135000X0.185000X-0.135000X0.185000X0*%
%TD*%
%TA.AperFunction,SMDPad,CuDef*%
%ADD13RoundRect,0.250000X0.475000X-0.250000X0.475000X0.250000X-0.475000X0.250000X-0.475000X-0.250000X0*%
%TD*%
%TA.AperFunction,SMDPad,CuDef*%
%ADD14RoundRect,0.200000X-0.200000X-0.275000X0.200000X-0.275000X0.200000X0.275000X-0.200000X0.275000X0*%
%TD*%
%TA.AperFunction,SMDPad,CuDef*%
%ADD15C,1.000000*%
%TD*%
%TA.AperFunction,SMDPad,CuDef*%
%ADD16RoundRect,0.100000X0.130000X0.100000X-0.130000X0.100000X-0.130000X-0.100000X0.130000X-0.100000X0*%
%TD*%
%TA.AperFunction,SMDPad,CuDef*%
%ADD17RoundRect,0.150000X-0.512500X-0.150000X0.512500X-0.150000X0.512500X0.150000X-0.512500X0.150000X0*%
%TD*%
%TA.AperFunction,SMDPad,CuDef*%
%ADD18RoundRect,0.135000X0.135000X0.185000X-0.135000X0.185000X-0.135000X-0.185000X0.135000X-0.185000X0*%
%TD*%
%TA.AperFunction,SMDPad,CuDef*%
%ADD19RoundRect,0.150000X-0.700000X0.150000X-0.700000X-0.150000X0.700000X-0.150000X0.700000X0.150000X0*%
%TD*%
%TA.AperFunction,SMDPad,CuDef*%
%ADD20RoundRect,0.250000X-1.100000X0.250000X-1.100000X-0.250000X1.100000X-0.250000X1.100000X0.250000X0*%
%TD*%
%TA.AperFunction,SMDPad,CuDef*%
%ADD21RoundRect,0.250000X-0.475000X0.250000X-0.475000X-0.250000X0.475000X-0.250000X0.475000X0.250000X0*%
%TD*%
%TA.AperFunction,SMDPad,CuDef*%
%ADD22R,1.200000X1.200000*%
%TD*%
%TA.AperFunction,SMDPad,CuDef*%
%ADD23RoundRect,0.140000X-0.170000X0.140000X-0.170000X-0.140000X0.170000X-0.140000X0.170000X0.140000X0*%
%TD*%
%TA.AperFunction,SMDPad,CuDef*%
%ADD24RoundRect,0.140000X-0.140000X-0.170000X0.140000X-0.170000X0.140000X0.170000X-0.140000X0.170000X0*%
%TD*%
%TA.AperFunction,SMDPad,CuDef*%
%ADD25R,0.300000X1.300000*%
%TD*%
%TA.AperFunction,SMDPad,CuDef*%
%ADD26R,1.800000X2.200000*%
%TD*%
%TA.AperFunction,SMDPad,CuDef*%
%ADD27RoundRect,0.140000X0.140000X0.170000X-0.140000X0.170000X-0.140000X-0.170000X0.140000X-0.170000X0*%
%TD*%
%TA.AperFunction,ComponentPad*%
%ADD28R,1.700000X1.700000*%
%TD*%
%TA.AperFunction,ComponentPad*%
%ADD29C,1.700000*%
%TD*%
%TA.AperFunction,SMDPad,CuDef*%
%ADD30RoundRect,0.050000X-0.350000X-0.050000X0.350000X-0.050000X0.350000X0.050000X-0.350000X0.050000X0*%
%TD*%
%TA.AperFunction,SMDPad,CuDef*%
%ADD31RoundRect,0.050000X-0.050000X-0.350000X0.050000X-0.350000X0.050000X0.350000X-0.050000X0.350000X0*%
%TD*%
%TA.AperFunction,HeatsinkPad*%
%ADD32R,3.400000X3.400000*%
%TD*%
%TA.AperFunction,SMDPad,CuDef*%
%ADD33R,1.000000X1.500000*%
%TD*%
%TA.AperFunction,SMDPad,CuDef*%
%ADD34RoundRect,0.225000X0.250000X-0.225000X0.250000X0.225000X-0.250000X0.225000X-0.250000X-0.225000X0*%
%TD*%
%TA.AperFunction,SMDPad,CuDef*%
%ADD35RoundRect,0.140000X0.170000X-0.140000X0.170000X0.140000X-0.170000X0.140000X-0.170000X-0.140000X0*%
%TD*%
%TA.AperFunction,SMDPad,CuDef*%
%ADD36RoundRect,0.218750X-0.218750X-0.256250X0.218750X-0.256250X0.218750X0.256250X-0.218750X0.256250X0*%
%TD*%
%TA.AperFunction,SMDPad,CuDef*%
%ADD37RoundRect,0.050000X-0.375000X-0.050000X0.375000X-0.050000X0.375000X0.050000X-0.375000X0.050000X0*%
%TD*%
%TA.AperFunction,SMDPad,CuDef*%
%ADD38RoundRect,0.050000X-0.050000X-0.275000X0.050000X-0.275000X0.050000X0.275000X-0.050000X0.275000X0*%
%TD*%
%TA.AperFunction,SMDPad,CuDef*%
%ADD39RoundRect,0.135000X-0.185000X0.135000X-0.185000X-0.135000X0.185000X-0.135000X0.185000X0.135000X0*%
%TD*%
%TA.AperFunction,SMDPad,CuDef*%
%ADD40RoundRect,0.100000X-0.100000X0.637500X-0.100000X-0.637500X0.100000X-0.637500X0.100000X0.637500X0*%
%TD*%
%TA.AperFunction,SMDPad,CuDef*%
%ADD41RoundRect,0.112500X0.112500X-0.187500X0.112500X0.187500X-0.112500X0.187500X-0.112500X-0.187500X0*%
%TD*%
%TA.AperFunction,SMDPad,CuDef*%
%ADD42RoundRect,0.135000X0.185000X-0.135000X0.185000X0.135000X-0.185000X0.135000X-0.185000X-0.135000X0*%
%TD*%
%TA.AperFunction,SMDPad,CuDef*%
%ADD43RoundRect,0.093750X0.156250X0.093750X-0.156250X0.093750X-0.156250X-0.093750X0.156250X-0.093750X0*%
%TD*%
%TA.AperFunction,SMDPad,CuDef*%
%ADD44RoundRect,0.075000X0.250000X0.075000X-0.250000X0.075000X-0.250000X-0.075000X0.250000X-0.075000X0*%
%TD*%
%TA.AperFunction,SMDPad,CuDef*%
%ADD45RoundRect,0.100000X-0.100000X0.130000X-0.100000X-0.130000X0.100000X-0.130000X0.100000X0.130000X0*%
%TD*%
%TA.AperFunction,SMDPad,CuDef*%
%ADD46RoundRect,0.150000X0.512500X0.150000X-0.512500X0.150000X-0.512500X-0.150000X0.512500X-0.150000X0*%
%TD*%
%TA.AperFunction,SMDPad,CuDef*%
%ADD47RoundRect,0.100000X0.850000X0.100000X-0.850000X0.100000X-0.850000X-0.100000X0.850000X-0.100000X0*%
%TD*%
%TA.AperFunction,SMDPad,CuDef*%
%ADD48RoundRect,0.250000X-1.075000X0.375000X-1.075000X-0.375000X1.075000X-0.375000X1.075000X0.375000X0*%
%TD*%
%TA.AperFunction,SMDPad,CuDef*%
%ADD49RoundRect,0.112500X0.350000X0.112500X-0.350000X0.112500X-0.350000X-0.112500X0.350000X-0.112500X0*%
%TD*%
%TA.AperFunction,SMDPad,CuDef*%
%ADD50RoundRect,0.150000X-0.150000X-0.575000X0.150000X-0.575000X0.150000X0.575000X-0.150000X0.575000X0*%
%TD*%
%TA.AperFunction,SMDPad,CuDef*%
%ADD51RoundRect,0.075000X-0.075000X-0.650000X0.075000X-0.650000X0.075000X0.650000X-0.075000X0.650000X0*%
%TD*%
%TA.AperFunction,ComponentPad*%
%ADD52O,1.000000X2.100000*%
%TD*%
%TA.AperFunction,ComponentPad*%
%ADD53O,1.000000X1.600000*%
%TD*%
%TA.AperFunction,SMDPad,CuDef*%
%ADD54RoundRect,0.150000X-0.150000X0.825000X-0.150000X-0.825000X0.150000X-0.825000X0.150000X0.825000X0*%
%TD*%
%TA.AperFunction,SMDPad,CuDef*%
%ADD55RoundRect,0.225000X0.225000X0.250000X-0.225000X0.250000X-0.225000X-0.250000X0.225000X-0.250000X0*%
%TD*%
%TA.AperFunction,SMDPad,CuDef*%
%ADD56RoundRect,0.100000X-0.100000X0.712500X-0.100000X-0.712500X0.100000X-0.712500X0.100000X0.712500X0*%
%TD*%
%TA.AperFunction,SMDPad,CuDef*%
%ADD57RoundRect,0.100000X0.100000X-0.130000X0.100000X0.130000X-0.100000X0.130000X-0.100000X-0.130000X0*%
%TD*%
%TA.AperFunction,SMDPad,CuDef*%
%ADD58RoundRect,0.150000X0.700000X-0.150000X0.700000X0.150000X-0.700000X0.150000X-0.700000X-0.150000X0*%
%TD*%
%TA.AperFunction,SMDPad,CuDef*%
%ADD59RoundRect,0.250000X1.100000X-0.250000X1.100000X0.250000X-1.100000X0.250000X-1.100000X-0.250000X0*%
%TD*%
%TA.AperFunction,SMDPad,CuDef*%
%ADD60RoundRect,0.250000X-0.450000X-0.350000X0.450000X-0.350000X0.450000X0.350000X-0.450000X0.350000X0*%
%TD*%
%TA.AperFunction,SMDPad,CuDef*%
%ADD61R,0.900000X1.700000*%
%TD*%
%TA.AperFunction,SMDPad,CuDef*%
%ADD62RoundRect,0.250000X-0.250000X-0.475000X0.250000X-0.475000X0.250000X0.475000X-0.250000X0.475000X0*%
%TD*%
%TA.AperFunction,SMDPad,CuDef*%
%ADD63RoundRect,0.112500X0.187500X0.112500X-0.187500X0.112500X-0.187500X-0.112500X0.187500X-0.112500X0*%
%TD*%
%TA.AperFunction,SMDPad,CuDef*%
%ADD64RoundRect,0.225000X-0.225000X-0.625000X0.225000X-0.625000X0.225000X0.625000X-0.225000X0.625000X0*%
%TD*%
%TA.AperFunction,ViaPad*%
%ADD65C,0.500000*%
%TD*%
%TA.AperFunction,ViaPad*%
%ADD66C,0.600000*%
%TD*%
%TA.AperFunction,Conductor*%
%ADD67C,0.100000*%
%TD*%
%TA.AperFunction,Conductor*%
%ADD68C,0.150000*%
%TD*%
%TA.AperFunction,Conductor*%
%ADD69C,0.300000*%
%TD*%
%TA.AperFunction,Conductor*%
%ADD70C,0.400000*%
%TD*%
%TA.AperFunction,Conductor*%
%ADD71C,0.200000*%
%TD*%
G04 APERTURE END LIST*
D10*
%TA.AperFunction,EtchedComponent*%
%TO.C,JP1*%
G36*
X122299512Y-136001463D02*
G01*
X121799512Y-136001463D01*
X121799512Y-135401463D01*
X122299512Y-135401463D01*
X122299512Y-136001463D01*
G37*
%TD.AperFunction*%
%TA.AperFunction,EtchedComponent*%
%TO.C,JP2*%
G36*
X125590512Y-135975340D02*
G01*
X125090512Y-135975340D01*
X125090512Y-135375340D01*
X125590512Y-135375340D01*
X125590512Y-135975340D01*
G37*
%TD.AperFunction*%
%TA.AperFunction,EtchedComponent*%
%TO.C,JP3*%
G36*
X128881512Y-136001463D02*
G01*
X128381512Y-136001463D01*
X128381512Y-135401463D01*
X128881512Y-135401463D01*
X128881512Y-136001463D01*
G37*
%TD.AperFunction*%
%TD*%
D11*
%TO.P,C36,1*%
%TO.N,ADC_AVDD*%
X132662005Y-118320000D03*
%TO.P,C36,2*%
%TO.N,GND*%
X133302005Y-118320000D03*
%TD*%
D12*
%TO.P,R5,1*%
%TO.N,+3.3V*%
X118532399Y-121398782D03*
%TO.P,R5,2*%
%TO.N,ROW_VCC*%
X119552399Y-121398782D03*
%TD*%
D13*
%TO.P,C9,1*%
%TO.N,+3.3V*%
X117141399Y-122349203D03*
%TO.P,C9,2*%
%TO.N,GND*%
X117141399Y-120449203D03*
%TD*%
D14*
%TO.P,R38,1*%
%TO.N,+5V_USB*%
X140725000Y-124300000D03*
%TO.P,R38,2*%
%TO.N,USB_SNUB*%
X142375000Y-124300000D03*
%TD*%
%TO.P,R12,1*%
%TO.N,SYNC_P*%
X112173196Y-132089721D03*
%TO.P,R12,2*%
%TO.N,SYNC_N*%
X113823196Y-132089721D03*
%TD*%
D15*
%TO.P,FID1,*%
%TO.N,*%
X102616809Y-122995540D03*
%TD*%
D16*
%TO.P,C34,1*%
%TO.N,+3.3V*%
X121943281Y-121920000D03*
%TO.P,C34,2*%
%TO.N,GND*%
X121303281Y-121920000D03*
%TD*%
D17*
%TO.P,U14,1*%
%TO.N,+5V_USB*%
X143911190Y-126923039D03*
%TO.P,U14,2*%
%TO.N,GND*%
X143911190Y-127873039D03*
%TO.P,U14,3*%
%TO.N,USB_BUS_EN*%
X143911190Y-128823039D03*
%TO.P,U14,4*%
%TO.N,USB_PWR_FAULT*%
X146186190Y-128823039D03*
%TO.P,U14,5*%
%TO.N,USB_ILIM*%
X146186190Y-127873039D03*
%TO.P,U14,6*%
%TO.N,USB_BUS_SW*%
X146186190Y-126923039D03*
%TD*%
D12*
%TO.P,R16,1*%
%TO.N,RAIL_MON*%
X137390000Y-120800000D03*
%TO.P,R16,2*%
%TO.N,GND*%
X138410000Y-120800000D03*
%TD*%
D18*
%TO.P,R28,1*%
%TO.N,USB_ILIM*%
X147023393Y-131322740D03*
%TO.P,R28,2*%
%TO.N,USB_ILIM_LOW*%
X146003393Y-131322740D03*
%TD*%
D19*
%TO.P,J4,1*%
%TO.N,+5V_BUS*%
X103886746Y-127846463D03*
%TO.P,J4,2*%
%TO.N,GND*%
X103886746Y-129096463D03*
%TO.P,J4,3*%
%TO.N,BUS_P*%
X103886746Y-130346463D03*
%TO.P,J4,4*%
%TO.N,BUS_N*%
X103886746Y-131596463D03*
%TO.P,J4,5*%
%TO.N,SYNC_P*%
X103886746Y-132846463D03*
%TO.P,J4,6*%
%TO.N,SYNC_N*%
X103886746Y-134096463D03*
D20*
%TO.P,J4,MP*%
%TO.N,GND*%
X100686746Y-125996463D03*
X100686746Y-135946463D03*
%TD*%
D16*
%TO.P,C24,1*%
%TO.N,VCORE*%
X121819484Y-119914973D03*
%TO.P,C24,2*%
%TO.N,GND*%
X121179484Y-119914973D03*
%TD*%
D21*
%TO.P,C39,1*%
%TO.N,+5V_BUS*%
X99811746Y-121701480D03*
%TO.P,C39,2*%
%TO.N,GND*%
X99811746Y-123601480D03*
%TD*%
D22*
%TO.P,D4,1*%
%TO.N,+5V_BUS*%
X148189690Y-129733463D03*
%TO.P,D4,2*%
%TO.N,USB_BUS_SW*%
X148189690Y-126933463D03*
%TD*%
D18*
%TO.P,R20,1*%
%TO.N,RUN*%
X121383593Y-123400720D03*
%TO.P,R20,2*%
%TO.N,+3.3V*%
X120363593Y-123400720D03*
%TD*%
%TO.P,R17,1*%
%TO.N,STATUS*%
X148010000Y-136356463D03*
%TO.P,R17,2*%
%TO.N,LED_A*%
X146990000Y-136356463D03*
%TD*%
%TO.P,R21,1*%
%TO.N,AMP_A*%
X136510000Y-120920000D03*
%TO.P,R21,2*%
%TO.N,ADC_A*%
X135490000Y-120920000D03*
%TD*%
D23*
%TO.P,C2,1*%
%TO.N,ROW_VCC*%
X115072132Y-116920000D03*
%TO.P,C2,2*%
%TO.N,GND*%
X115072132Y-117880000D03*
%TD*%
D18*
%TO.P,R6,1*%
%TO.N,GAIN_A*%
X157237354Y-118731295D03*
%TO.P,R6,2*%
%TO.N,AMP_A*%
X156217354Y-118731295D03*
%TD*%
D24*
%TO.P,C12,1*%
%TO.N,+3.3V*%
X117530746Y-130699999D03*
%TO.P,C12,2*%
%TO.N,GND*%
X118490746Y-130699999D03*
%TD*%
D25*
%TO.P,J2,1*%
%TO.N,COL_0*%
X147090487Y-106296643D03*
%TO.P,J2,2*%
%TO.N,COL_1*%
X146590487Y-106296643D03*
%TO.P,J2,3*%
%TO.N,COL_2*%
X146090487Y-106296643D03*
%TO.P,J2,4*%
%TO.N,COL_3*%
X145590487Y-106296643D03*
%TO.P,J2,5*%
%TO.N,COL_4*%
X145090487Y-106296643D03*
%TO.P,J2,6*%
%TO.N,COL_5*%
X144590487Y-106296643D03*
%TO.P,J2,7*%
%TO.N,COL_6*%
X144090487Y-106296643D03*
%TO.P,J2,8*%
%TO.N,COL_7*%
X143590487Y-106296643D03*
%TO.P,J2,9*%
%TO.N,COL_8*%
X143090487Y-106296643D03*
%TO.P,J2,10*%
%TO.N,COL_9*%
X142590487Y-106296643D03*
%TO.P,J2,11*%
%TO.N,COL_10*%
X142090487Y-106296643D03*
%TO.P,J2,12*%
%TO.N,COL_11*%
X141590487Y-106296643D03*
%TO.P,J2,13*%
%TO.N,COL_12*%
X141090487Y-106296643D03*
%TO.P,J2,14*%
%TO.N,COL_13*%
X140590487Y-106296643D03*
%TO.P,J2,15*%
%TO.N,COL_14*%
X140090487Y-106296643D03*
%TO.P,J2,16*%
%TO.N,COL_15*%
X139590487Y-106296643D03*
%TO.P,J2,17*%
%TO.N,COL_16*%
X139090487Y-106296643D03*
%TO.P,J2,18*%
%TO.N,COL_17*%
X138590487Y-106296643D03*
%TO.P,J2,19*%
%TO.N,COL_18*%
X138090487Y-106296643D03*
%TO.P,J2,20*%
%TO.N,COL_19*%
X137590487Y-106296643D03*
%TO.P,J2,21*%
%TO.N,COL_20*%
X137090487Y-106296643D03*
%TO.P,J2,22*%
%TO.N,COL_21*%
X136590487Y-106296643D03*
%TO.P,J2,23*%
%TO.N,COL_22*%
X136090487Y-106296643D03*
%TO.P,J2,24*%
%TO.N,COL_23*%
X135590487Y-106296643D03*
%TO.P,J2,25*%
%TO.N,COL_24*%
X135090487Y-106296643D03*
%TO.P,J2,26*%
%TO.N,COL_25*%
X134590487Y-106296643D03*
%TO.P,J2,27*%
%TO.N,COL_26*%
X134090487Y-106296643D03*
%TO.P,J2,28*%
%TO.N,COL_27*%
X133590487Y-106296643D03*
%TO.P,J2,29*%
%TO.N,COL_28*%
X133090487Y-106296643D03*
%TO.P,J2,30*%
%TO.N,COL_29*%
X132590487Y-106296643D03*
%TO.P,J2,31*%
%TO.N,COL_30*%
X132090487Y-106296643D03*
%TO.P,J2,32*%
%TO.N,COL_31*%
X131590487Y-106296643D03*
D26*
%TO.P,J2,MP*%
%TO.N,GND*%
X148990487Y-103046643D03*
X139690487Y-103046643D03*
X137690487Y-103046643D03*
X129690487Y-103046643D03*
%TD*%
D27*
%TO.P,C5,1*%
%TO.N,+3.3V*%
X148034606Y-115701596D03*
%TO.P,C5,2*%
%TO.N,GND*%
X147074606Y-115701596D03*
%TD*%
D28*
%TO.P,J6,1*%
%TO.N,SWDIO*%
X111018512Y-135181463D03*
D29*
%TO.P,J6,2*%
%TO.N,SWCLK*%
X113558512Y-135181463D03*
%TO.P,J6,3*%
%TO.N,GND*%
X116098512Y-135181463D03*
%TO.P,J6,4*%
%TO.N,RUN*%
X118638512Y-135181463D03*
%TD*%
D12*
%TO.P,R24,1*%
%TO.N,USB_D_N*%
X130439999Y-116000000D03*
%TO.P,R24,2*%
%TO.N,USBC_D_N*%
X131459999Y-116000000D03*
%TD*%
D30*
%TO.P,U9,1*%
%TO.N,+3.3V*%
X123055926Y-117851214D03*
%TO.P,U9,2*%
%TO.N,USB_ILIM_HI*%
X123055926Y-118251214D03*
%TO.P,U9,3*%
%TO.N,ROW_LATCH_MCU*%
X123055926Y-118651214D03*
%TO.P,U9,4*%
%TO.N,ROW_CLK_MCU*%
X123055926Y-119051214D03*
%TO.P,U9,5*%
%TO.N,ROW_DATA*%
X123055926Y-119451214D03*
%TO.P,U9,6*%
%TO.N,VCORE*%
X123055926Y-119851214D03*
%TO.P,U9,7*%
%TO.N,MUX_S0*%
X123055926Y-120251214D03*
%TO.P,U9,8*%
%TO.N,MUX_S1*%
X123055926Y-120651214D03*
%TO.P,U9,9*%
%TO.N,MUX_S2*%
X123055926Y-121051214D03*
%TO.P,U9,10*%
%TO.N,MUX_S3*%
X123055926Y-121451214D03*
%TO.P,U9,11*%
%TO.N,+3.3V*%
X123055926Y-121851214D03*
%TO.P,U9,12*%
%TO.N,BUS_DI*%
X123055926Y-122251214D03*
%TO.P,U9,13*%
%TO.N,BUS_RO*%
X123055926Y-122651214D03*
%TO.P,U9,14*%
%TO.N,BUS_DE*%
X123055926Y-123051214D03*
%TO.P,U9,15*%
%TO.N,SYNC_OUT*%
X123055926Y-123451214D03*
D31*
%TO.P,U9,16*%
%TO.N,N/C*%
X123705926Y-124101214D03*
%TO.P,U9,17*%
%TO.N,SYNC_DE*%
X124105926Y-124101214D03*
%TO.P,U9,18*%
%TO.N,N/C*%
X124505926Y-124101214D03*
%TO.P,U9,19*%
X124905926Y-124101214D03*
%TO.P,U9,20*%
%TO.N,+3.3V*%
X125305926Y-124101214D03*
%TO.P,U9,21*%
%TO.N,XIN*%
X125705926Y-124101214D03*
%TO.P,U9,22*%
%TO.N,XOUT_MCU*%
X126105926Y-124101214D03*
%TO.P,U9,23*%
%TO.N,VCORE*%
X126505926Y-124101214D03*
%TO.P,U9,24*%
%TO.N,SWCLK*%
X126905926Y-124101214D03*
%TO.P,U9,25*%
%TO.N,SWDIO*%
X127305926Y-124101214D03*
%TO.P,U9,26*%
%TO.N,RUN*%
X127705926Y-124101214D03*
%TO.P,U9,27*%
%TO.N,N/C*%
X128105926Y-124101214D03*
%TO.P,U9,28*%
X128505926Y-124101214D03*
%TO.P,U9,29*%
%TO.N,USB_CC_OUT1*%
X128905926Y-124101214D03*
%TO.P,U9,30*%
%TO.N,+3.3V*%
X129305926Y-124101214D03*
D30*
%TO.P,U9,31*%
%TO.N,USB_CC_OUT2*%
X129955926Y-123451214D03*
%TO.P,U9,32*%
%TO.N,ADDR0*%
X129955926Y-123051214D03*
%TO.P,U9,33*%
%TO.N,ADDR1*%
X129955926Y-122651214D03*
%TO.P,U9,34*%
%TO.N,ADDR2*%
X129955926Y-122251214D03*
%TO.P,U9,35*%
%TO.N,USB_PWR_FAULT*%
X129955926Y-121851214D03*
%TO.P,U9,36*%
%TO.N,USB_BUS_EN*%
X129955926Y-121451214D03*
%TO.P,U9,37*%
%TO.N,STATUS*%
X129955926Y-121051214D03*
%TO.P,U9,38*%
%TO.N,+3.3V*%
X129955926Y-120651214D03*
%TO.P,U9,39*%
%TO.N,VCORE*%
X129955926Y-120251214D03*
%TO.P,U9,40*%
%TO.N,N/C*%
X129955926Y-119851214D03*
%TO.P,U9,41*%
%TO.N,ADC_A*%
X129955926Y-119451214D03*
%TO.P,U9,42*%
%TO.N,RAIL_MON*%
X129955926Y-119051214D03*
%TO.P,U9,43*%
%TO.N,ADC_B*%
X129955926Y-118651214D03*
%TO.P,U9,44*%
%TO.N,ADC_AVDD*%
X129955926Y-118251214D03*
%TO.P,U9,45*%
%TO.N,+3.3V*%
X129955926Y-117851214D03*
D31*
%TO.P,U9,46*%
%TO.N,VREG_AVDD*%
X129305926Y-117201214D03*
%TO.P,U9,47*%
%TO.N,GND*%
X128905926Y-117201214D03*
%TO.P,U9,48*%
%TO.N,VREG_LX*%
X128505926Y-117201214D03*
%TO.P,U9,49*%
%TO.N,+3.3V*%
X128105926Y-117201214D03*
%TO.P,U9,50*%
%TO.N,VCORE*%
X127705926Y-117201214D03*
%TO.P,U9,51*%
%TO.N,USB_D_N*%
X127305926Y-117201214D03*
%TO.P,U9,52*%
%TO.N,USB_D_P*%
X126905926Y-117201214D03*
%TO.P,U9,53*%
%TO.N,+3.3V*%
X126505926Y-117201214D03*
%TO.P,U9,54*%
X126105926Y-117201214D03*
%TO.P,U9,55*%
%TO.N,N/C*%
X125705926Y-117201214D03*
%TO.P,U9,56*%
X125305926Y-117201214D03*
%TO.P,U9,57*%
X124905926Y-117201214D03*
%TO.P,U9,58*%
X124505926Y-117201214D03*
%TO.P,U9,59*%
X124105926Y-117201214D03*
%TO.P,U9,60*%
%TO.N,BOOTSEL*%
X123705926Y-117201214D03*
D32*
%TO.P,U9,61*%
%TO.N,GND*%
X126505926Y-120651214D03*
%TD*%
D33*
%TO.P,JP1,1*%
%TO.N,ADDR0*%
X121399512Y-135701463D03*
%TO.P,JP1,2*%
%TO.N,GND*%
X122699512Y-135701463D03*
%TD*%
D34*
%TO.P,C22,1*%
%TO.N,+5V*%
X109195714Y-121170578D03*
%TO.P,C22,2*%
%TO.N,GND*%
X109195714Y-119620578D03*
%TD*%
D12*
%TO.P,R27,1*%
%TO.N,USB_ILIM*%
X149106879Y-131238110D03*
%TO.P,R27,2*%
%TO.N,GND*%
X150126879Y-131238110D03*
%TD*%
D18*
%TO.P,R8,1*%
%TO.N,GAIN_B*%
X158305098Y-121098338D03*
%TO.P,R8,2*%
%TO.N,AMP_B*%
X157285098Y-121098338D03*
%TD*%
D35*
%TO.P,C20,1*%
%TO.N,XIN*%
X122507075Y-130780000D03*
%TO.P,C20,2*%
%TO.N,GND*%
X122507075Y-129820000D03*
%TD*%
D36*
%TO.P,D3,1*%
%TO.N,GND*%
X143212500Y-136101463D03*
%TO.P,D3,2*%
%TO.N,LED_A*%
X144787500Y-136101463D03*
%TD*%
D37*
%TO.P,U13,1*%
%TO.N,USB_CC1*%
X131799652Y-125639861D03*
%TO.P,U13,2*%
%TO.N,USB_CC2*%
X131799652Y-126039861D03*
D38*
%TO.P,U13,3*%
%TO.N,GND*%
X131924652Y-126664861D03*
%TO.P,U13,4*%
%TO.N,USB_VBUS_DET*%
X132324652Y-126664861D03*
%TO.P,U13,5*%
%TO.N,N/C*%
X132724652Y-126664861D03*
%TO.P,U13,6*%
X133124652Y-126664861D03*
D37*
%TO.P,U13,7*%
%TO.N,USB_CC_OUT1*%
X133249652Y-126039861D03*
%TO.P,U13,8*%
%TO.N,USB_CC_OUT2*%
X133249652Y-125639861D03*
D38*
%TO.P,U13,9*%
%TO.N,N/C*%
X133124652Y-125014861D03*
%TO.P,U13,10*%
%TO.N,GND*%
X132724652Y-125014861D03*
%TO.P,U13,11*%
X132324652Y-125014861D03*
%TO.P,U13,12*%
%TO.N,+3.3V*%
X131924652Y-125014861D03*
%TD*%
D18*
%TO.P,R18,1*%
%TO.N,+3.3V*%
X105297807Y-123263716D03*
%TO.P,R18,2*%
%TO.N,FB*%
X104277807Y-123263716D03*
%TD*%
%TO.P,R3,1*%
%TO.N,ROW_CLK_MCU*%
X119552399Y-120200000D03*
%TO.P,R3,2*%
%TO.N,ROW_CLK*%
X118532399Y-120200000D03*
%TD*%
D33*
%TO.P,JP2,1*%
%TO.N,ADDR1*%
X124690512Y-135675340D03*
%TO.P,JP2,2*%
%TO.N,GND*%
X125990512Y-135675340D03*
%TD*%
D24*
%TO.P,C45,1*%
%TO.N,RAIL_MON*%
X137420000Y-119800000D03*
%TO.P,C45,2*%
%TO.N,GND*%
X138380000Y-119800000D03*
%TD*%
D39*
%TO.P,R1,1*%
%TO.N,SENSE_A*%
X158494244Y-117290000D03*
%TO.P,R1,2*%
%TO.N,GND*%
X158494244Y-118310000D03*
%TD*%
D40*
%TO.P,U2,1*%
%TO.N,ROW_9*%
X115345501Y-109767085D03*
%TO.P,U2,2*%
%TO.N,ROW_10*%
X114695501Y-109767085D03*
%TO.P,U2,3*%
%TO.N,ROW_11*%
X114045501Y-109767085D03*
%TO.P,U2,4*%
%TO.N,ROW_12*%
X113395501Y-109767085D03*
%TO.P,U2,5*%
%TO.N,ROW_13*%
X112745501Y-109767085D03*
%TO.P,U2,6*%
%TO.N,ROW_14*%
X112095501Y-109767085D03*
%TO.P,U2,7*%
%TO.N,ROW_15*%
X111445501Y-109767085D03*
%TO.P,U2,8*%
%TO.N,GND*%
X110795501Y-109767085D03*
%TO.P,U2,9*%
%TO.N,SR_CHAIN_2*%
X110795501Y-115492085D03*
%TO.P,U2,10*%
%TO.N,ROW_VCC*%
X111445501Y-115492085D03*
%TO.P,U2,11*%
%TO.N,ROW_CLK*%
X112095501Y-115492085D03*
%TO.P,U2,12*%
%TO.N,ROW_LATCH*%
X112745501Y-115492085D03*
%TO.P,U2,13*%
%TO.N,GND*%
X113395501Y-115492085D03*
%TO.P,U2,14*%
%TO.N,SR_CHAIN_1*%
X114045501Y-115492085D03*
%TO.P,U2,15*%
%TO.N,ROW_8*%
X114695501Y-115492085D03*
%TO.P,U2,16*%
%TO.N,ROW_VCC*%
X115345501Y-115492085D03*
%TD*%
D11*
%TO.P,C15,1*%
%TO.N,+3.3V*%
X131230000Y-117920000D03*
%TO.P,C15,2*%
%TO.N,GND*%
X131870000Y-117920000D03*
%TD*%
D39*
%TO.P,R35,1*%
%TO.N,+3.3V*%
X130415088Y-110985553D03*
%TO.P,R35,2*%
%TO.N,VREG_AVDD*%
X130415088Y-112005553D03*
%TD*%
D41*
%TO.P,D2,1*%
%TO.N,+5V*%
X151488161Y-134251154D03*
%TO.P,D2,2*%
%TO.N,+5V_USB*%
X151488161Y-132151154D03*
%TD*%
D23*
%TO.P,C31,1*%
%TO.N,ADC_A*%
X134500000Y-119920000D03*
%TO.P,C31,2*%
%TO.N,GND*%
X134500000Y-120880000D03*
%TD*%
D42*
%TO.P,R32,1*%
%TO.N,USB_CC_OUT1*%
X134876120Y-125265375D03*
%TO.P,R32,2*%
%TO.N,+3.3V*%
X134876120Y-124245375D03*
%TD*%
D18*
%TO.P,R4,1*%
%TO.N,ROW_LATCH_MCU*%
X119480726Y-119000000D03*
%TO.P,R4,2*%
%TO.N,ROW_LATCH*%
X118460726Y-119000000D03*
%TD*%
%TO.P,R22,1*%
%TO.N,AMP_B*%
X136510000Y-119280000D03*
%TO.P,R22,2*%
%TO.N,ADC_B*%
X135490000Y-119280000D03*
%TD*%
D16*
%TO.P,C33,1*%
%TO.N,+3.3V*%
X121939987Y-117919189D03*
%TO.P,C33,2*%
%TO.N,GND*%
X121299987Y-117919189D03*
%TD*%
D11*
%TO.P,C14,1*%
%TO.N,+3.3V*%
X131230000Y-120720000D03*
%TO.P,C14,2*%
%TO.N,GND*%
X131870000Y-120720000D03*
%TD*%
D15*
%TO.P,FID3,*%
%TO.N,*%
X157839246Y-102649745D03*
%TD*%
D12*
%TO.P,R2,1*%
%TO.N,SENSE_B*%
X153835246Y-124000000D03*
%TO.P,R2,2*%
%TO.N,GND*%
X154855246Y-124000000D03*
%TD*%
D18*
%TO.P,R31,1*%
%TO.N,USB_PWR_FAULT*%
X121360000Y-125600000D03*
%TO.P,R31,2*%
%TO.N,+3.3V*%
X120340000Y-125600000D03*
%TD*%
D35*
%TO.P,C42,1*%
%TO.N,+5V_USB*%
X143515249Y-125843546D03*
%TO.P,C42,2*%
%TO.N,GND*%
X143515249Y-124883546D03*
%TD*%
D39*
%TO.P,R33,1*%
%TO.N,USB_CC_OUT2*%
X134742292Y-126096375D03*
%TO.P,R33,2*%
%TO.N,+3.3V*%
X134742292Y-127116375D03*
%TD*%
D43*
%TO.P,D5,1*%
%TO.N,USBC_D_P*%
X138250000Y-126537500D03*
D44*
%TO.P,D5,2*%
%TO.N,GND*%
X138325000Y-126000000D03*
D43*
%TO.P,D5,3*%
%TO.N,USBC_D_N*%
X138250000Y-125462500D03*
%TO.P,D5,4*%
X136550000Y-125462500D03*
D44*
%TO.P,D5,5*%
%TO.N,+5V_USB*%
X136475000Y-126000000D03*
D43*
%TO.P,D5,6*%
%TO.N,USBC_D_P*%
X136550000Y-126537500D03*
%TD*%
D45*
%TO.P,C11,1*%
%TO.N,+3.3V*%
X125301625Y-125605851D03*
%TO.P,C11,2*%
%TO.N,GND*%
X125301625Y-126245851D03*
%TD*%
D18*
%TO.P,R30,1*%
%TO.N,USB_BUS_EN*%
X121360000Y-124500000D03*
%TO.P,R30,2*%
%TO.N,GND*%
X120340000Y-124500000D03*
%TD*%
D46*
%TO.P,U12,1*%
%TO.N,+5V*%
X107562214Y-121121716D03*
%TO.P,U12,2*%
%TO.N,GND*%
X107562214Y-120171716D03*
%TO.P,U12,3*%
%TO.N,SW_NODE*%
X107562214Y-119221716D03*
%TO.P,U12,4*%
%TO.N,+5V*%
X105287214Y-119221716D03*
%TO.P,U12,5*%
%TO.N,FB*%
X105287214Y-121121716D03*
%TD*%
D23*
%TO.P,C1,1*%
%TO.N,ROW_VCC*%
X120451616Y-116920000D03*
%TO.P,C1,2*%
%TO.N,GND*%
X120451616Y-117880000D03*
%TD*%
D47*
%TO.P,U5,1*%
%TO.N,SENSE_A*%
X156655606Y-116067022D03*
%TO.P,U5,2*%
%TO.N,COL_7*%
X156655606Y-115417022D03*
%TO.P,U5,3*%
%TO.N,COL_6*%
X156655606Y-114767022D03*
%TO.P,U5,4*%
%TO.N,COL_5*%
X156655606Y-114117022D03*
%TO.P,U5,5*%
%TO.N,COL_4*%
X156655606Y-113467022D03*
%TO.P,U5,6*%
%TO.N,COL_3*%
X156655606Y-112817022D03*
%TO.P,U5,7*%
%TO.N,COL_2*%
X156655606Y-112167022D03*
%TO.P,U5,8*%
%TO.N,COL_1*%
X156655606Y-111517022D03*
%TO.P,U5,9*%
%TO.N,COL_0*%
X156655606Y-110867022D03*
%TO.P,U5,10*%
%TO.N,MUX_S0*%
X156655606Y-110217022D03*
%TO.P,U5,11*%
%TO.N,MUX_S1*%
X156655606Y-109567022D03*
%TO.P,U5,12*%
%TO.N,GND*%
X156655606Y-108917022D03*
%TO.P,U5,13*%
%TO.N,MUX_S3*%
X149655606Y-108917022D03*
%TO.P,U5,14*%
%TO.N,MUX_S2*%
X149655606Y-109567022D03*
%TO.P,U5,15*%
%TO.N,GND*%
X149655606Y-110217022D03*
%TO.P,U5,16*%
%TO.N,COL_15*%
X149655606Y-110867022D03*
%TO.P,U5,17*%
%TO.N,COL_14*%
X149655606Y-111517022D03*
%TO.P,U5,18*%
%TO.N,COL_13*%
X149655606Y-112167022D03*
%TO.P,U5,19*%
%TO.N,COL_12*%
X149655606Y-112817022D03*
%TO.P,U5,20*%
%TO.N,COL_11*%
X149655606Y-113467022D03*
%TO.P,U5,21*%
%TO.N,COL_10*%
X149655606Y-114117022D03*
%TO.P,U5,22*%
%TO.N,COL_9*%
X149655606Y-114767022D03*
%TO.P,U5,23*%
%TO.N,COL_8*%
X149655606Y-115417022D03*
%TO.P,U5,24*%
%TO.N,+3.3V*%
X149655606Y-116067022D03*
%TD*%
D42*
%TO.P,R37,1*%
%TO.N,SYNC_DE*%
X111399999Y-125109999D03*
%TO.P,R37,2*%
%TO.N,GND*%
X111399999Y-124089999D03*
%TD*%
D18*
%TO.P,R19,1*%
%TO.N,FB*%
X105278867Y-122332716D03*
%TO.P,R19,2*%
%TO.N,GND*%
X104258867Y-122332716D03*
%TD*%
D48*
%TO.P,L2,1*%
%TO.N,SW_NODE*%
X111496714Y-119505989D03*
%TO.P,L2,2*%
%TO.N,+3.3V*%
X111496714Y-122305989D03*
%TD*%
D24*
%TO.P,C21,1*%
%TO.N,XOUT*%
X128520000Y-129449999D03*
%TO.P,C21,2*%
%TO.N,GND*%
X129480000Y-129449999D03*
%TD*%
D49*
%TO.P,Q1,1*%
%TO.N,USB_ILIM_HI*%
X148387500Y-134350000D03*
%TO.P,Q1,2*%
%TO.N,GND*%
X148387500Y-133050000D03*
%TO.P,Q1,3*%
%TO.N,USB_ILIM_LOW*%
X146612500Y-133700000D03*
%TD*%
D42*
%TO.P,R29,1*%
%TO.N,USB_ILIM_HI*%
X145000000Y-134510000D03*
%TO.P,R29,2*%
%TO.N,GND*%
X145000000Y-133490000D03*
%TD*%
D12*
%TO.P,R7,1*%
%TO.N,GAIN_A*%
X156343970Y-119845242D03*
%TO.P,R7,2*%
%TO.N,GND*%
X157363970Y-119845242D03*
%TD*%
D23*
%TO.P,C6,1*%
%TO.N,+3.3V*%
X137985070Y-117356162D03*
%TO.P,C6,2*%
%TO.N,GND*%
X137985070Y-118316162D03*
%TD*%
D50*
%TO.P,J5,A1*%
%TO.N,GND*%
X132342512Y-128756463D03*
%TO.P,J5,A4*%
%TO.N,+5V_USB*%
X133142512Y-128756463D03*
D51*
%TO.P,J5,A5*%
%TO.N,USB_CC1*%
X134342512Y-128756463D03*
%TO.P,J5,A6*%
%TO.N,USBC_D_P*%
X135342512Y-128756463D03*
%TO.P,J5,A7*%
%TO.N,USBC_D_N*%
X135842512Y-128756463D03*
%TO.P,J5,A8*%
%TO.N,N/C*%
X136842512Y-128756463D03*
D50*
%TO.P,J5,A9*%
%TO.N,+5V_USB*%
X138042512Y-128756463D03*
%TO.P,J5,A12*%
%TO.N,GND*%
X138842512Y-128756463D03*
%TO.P,J5,B1*%
X138842512Y-128756463D03*
%TO.P,J5,B4*%
%TO.N,+5V_USB*%
X138042512Y-128756463D03*
D51*
%TO.P,J5,B5*%
%TO.N,USB_CC2*%
X137342512Y-128756463D03*
%TO.P,J5,B6*%
%TO.N,USBC_D_P*%
X136342512Y-128756463D03*
%TO.P,J5,B7*%
%TO.N,USBC_D_N*%
X134842512Y-128756463D03*
%TO.P,J5,B8*%
%TO.N,N/C*%
X133842512Y-128756463D03*
D50*
%TO.P,J5,B9*%
%TO.N,+5V_USB*%
X133142512Y-128756463D03*
%TO.P,J5,B12*%
%TO.N,GND*%
X132342512Y-128756463D03*
D52*
%TO.P,J5,SH*%
X131272512Y-129671463D03*
D53*
X131272512Y-133851463D03*
D52*
X139912512Y-129671463D03*
D53*
X139912512Y-133851463D03*
%TD*%
D12*
%TO.P,R23,1*%
%TO.N,USB_D_P*%
X128430000Y-113500000D03*
%TO.P,R23,2*%
%TO.N,USBC_D_P*%
X129450000Y-113500000D03*
%TD*%
D35*
%TO.P,C28,1*%
%TO.N,+3.3V*%
X121762430Y-116080000D03*
%TO.P,C28,2*%
%TO.N,GND*%
X121762430Y-115120000D03*
%TD*%
D18*
%TO.P,R25,1*%
%TO.N,BOOTSEL*%
X126260000Y-105600000D03*
%TO.P,R25,2*%
%TO.N,BOOTSEL_SW*%
X125240000Y-105600000D03*
%TD*%
D54*
%TO.P,U11,1*%
%TO.N,SYNC_OUT*%
X116554746Y-125188512D03*
%TO.P,U11,2*%
%TO.N,GND*%
X115284746Y-125188512D03*
%TO.P,U11,3*%
%TO.N,SYNC_DE*%
X114014746Y-125188512D03*
%TO.P,U11,4*%
%TO.N,GND*%
X112744746Y-125188512D03*
%TO.P,U11,5*%
X112744746Y-130138512D03*
%TO.P,U11,6*%
%TO.N,SYNC_P*%
X114014746Y-130138512D03*
%TO.P,U11,7*%
%TO.N,SYNC_N*%
X115284746Y-130138512D03*
%TO.P,U11,8*%
%TO.N,+3.3V*%
X116554746Y-130138512D03*
%TD*%
D35*
%TO.P,C38,1*%
%TO.N,+5V_USB*%
X139430861Y-126930562D03*
%TO.P,C38,2*%
%TO.N,GND*%
X139430861Y-125970562D03*
%TD*%
D55*
%TO.P,C19,1*%
%TO.N,VCORE*%
X124775000Y-115500000D03*
%TO.P,C19,2*%
%TO.N,GND*%
X123225000Y-115500000D03*
%TD*%
D56*
%TO.P,U7,1*%
%TO.N,AMP_A*%
X155031354Y-118086616D03*
%TO.P,U7,2*%
%TO.N,GAIN_A*%
X154381354Y-118086616D03*
%TO.P,U7,3*%
%TO.N,SENSE_A*%
X153731354Y-118086616D03*
%TO.P,U7,4*%
%TO.N,GND*%
X153081354Y-118086616D03*
%TO.P,U7,5*%
%TO.N,SENSE_B*%
X153081354Y-122311616D03*
%TO.P,U7,6*%
%TO.N,GAIN_B*%
X153731354Y-122311616D03*
%TO.P,U7,7*%
%TO.N,AMP_B*%
X154381354Y-122311616D03*
%TO.P,U7,8*%
%TO.N,+3.3V*%
X155031354Y-122311616D03*
%TD*%
D12*
%TO.P,R34,1*%
%TO.N,+5V_USB*%
X128828815Y-127568154D03*
%TO.P,R34,2*%
%TO.N,USB_VBUS_DET*%
X129848815Y-127568154D03*
%TD*%
D45*
%TO.P,C25,1*%
%TO.N,VCORE*%
X126500000Y-125630000D03*
%TO.P,C25,2*%
%TO.N,GND*%
X126500000Y-126270000D03*
%TD*%
D18*
%TO.P,R15,1*%
%TO.N,+5V*%
X140410000Y-119100000D03*
%TO.P,R15,2*%
%TO.N,RAIL_MON*%
X139390000Y-119100000D03*
%TD*%
D57*
%TO.P,C18,1*%
%TO.N,+3.3V*%
X126500000Y-115920000D03*
%TO.P,C18,2*%
%TO.N,GND*%
X126500000Y-115280000D03*
%TD*%
D58*
%TO.P,J3,1*%
%TO.N,+5V_BUS*%
X154039244Y-134096463D03*
%TO.P,J3,2*%
%TO.N,GND*%
X154039244Y-132846463D03*
%TO.P,J3,3*%
%TO.N,BUS_P*%
X154039244Y-131596463D03*
%TO.P,J3,4*%
%TO.N,BUS_N*%
X154039244Y-130346463D03*
%TO.P,J3,5*%
%TO.N,SYNC_P*%
X154039244Y-129096463D03*
%TO.P,J3,6*%
%TO.N,SYNC_N*%
X154039244Y-127846463D03*
D59*
%TO.P,J3,MP*%
%TO.N,GND*%
X157239244Y-135946463D03*
X157239244Y-125996463D03*
%TD*%
D60*
%TO.P,Y1,1*%
%TO.N,XIN*%
X124800000Y-130980197D03*
%TO.P,Y1,2*%
%TO.N,GND*%
X127000000Y-130980197D03*
%TO.P,Y1,3*%
%TO.N,XOUT*%
X127000000Y-129280197D03*
%TO.P,Y1,4*%
%TO.N,GND*%
X124800000Y-129280197D03*
%TD*%
D55*
%TO.P,C44,1*%
%TO.N,+3.3V*%
X123864952Y-113400000D03*
%TO.P,C44,2*%
%TO.N,GND*%
X122314952Y-113400000D03*
%TD*%
D14*
%TO.P,R11,1*%
%TO.N,BUS_P*%
X106515326Y-132050927D03*
%TO.P,R11,2*%
%TO.N,BUS_N*%
X108165326Y-132050927D03*
%TD*%
D15*
%TO.P,FID2,*%
%TO.N,*%
X146650000Y-119700000D03*
%TD*%
D45*
%TO.P,C13,1*%
%TO.N,+3.3V*%
X129300000Y-125363536D03*
%TO.P,C13,2*%
%TO.N,GND*%
X129300000Y-126003536D03*
%TD*%
D23*
%TO.P,C27,1*%
%TO.N,+5V*%
X103540000Y-119740000D03*
%TO.P,C27,2*%
%TO.N,GND*%
X103540000Y-120700000D03*
%TD*%
D34*
%TO.P,C43,1*%
%TO.N,VREG_AVDD*%
X130850000Y-114727105D03*
%TO.P,C43,2*%
%TO.N,GND*%
X130850000Y-113177105D03*
%TD*%
D57*
%TO.P,C17,1*%
%TO.N,+3.3V*%
X128099001Y-115920065D03*
%TO.P,C17,2*%
%TO.N,GND*%
X128099001Y-115280065D03*
%TD*%
D23*
%TO.P,C40,1*%
%TO.N,+3.3V*%
X130400000Y-125203088D03*
%TO.P,C40,2*%
%TO.N,GND*%
X130400000Y-126163088D03*
%TD*%
D54*
%TO.P,U10,1*%
%TO.N,BUS_RO*%
X109832746Y-124949716D03*
%TO.P,U10,2*%
%TO.N,BUS_DE*%
X108562746Y-124949716D03*
%TO.P,U10,3*%
X107292746Y-124949716D03*
%TO.P,U10,4*%
%TO.N,BUS_DI*%
X106022746Y-124949716D03*
%TO.P,U10,5*%
%TO.N,GND*%
X106022746Y-129899716D03*
%TO.P,U10,6*%
%TO.N,BUS_P*%
X107292746Y-129899716D03*
%TO.P,U10,7*%
%TO.N,BUS_N*%
X108562746Y-129899716D03*
%TO.P,U10,8*%
%TO.N,+3.3V*%
X109832746Y-129899716D03*
%TD*%
D11*
%TO.P,C35,1*%
%TO.N,VCORE*%
X132780000Y-120320000D03*
%TO.P,C35,2*%
%TO.N,GND*%
X133420000Y-120320000D03*
%TD*%
D40*
%TO.P,U4,1*%
%TO.N,ROW_25*%
X104363501Y-110066386D03*
%TO.P,U4,2*%
%TO.N,ROW_26*%
X103713501Y-110066386D03*
%TO.P,U4,3*%
%TO.N,ROW_27*%
X103063501Y-110066386D03*
%TO.P,U4,4*%
%TO.N,ROW_28*%
X102413501Y-110066386D03*
%TO.P,U4,5*%
%TO.N,ROW_29*%
X101763501Y-110066386D03*
%TO.P,U4,6*%
%TO.N,ROW_30*%
X101113501Y-110066386D03*
%TO.P,U4,7*%
%TO.N,ROW_31*%
X100463501Y-110066386D03*
%TO.P,U4,8*%
%TO.N,GND*%
X99813501Y-110066386D03*
%TO.P,U4,9*%
%TO.N,N/C*%
X99813501Y-115791386D03*
%TO.P,U4,10*%
%TO.N,ROW_VCC*%
X100463501Y-115791386D03*
%TO.P,U4,11*%
%TO.N,ROW_CLK*%
X101113501Y-115791386D03*
%TO.P,U4,12*%
%TO.N,ROW_LATCH*%
X101763501Y-115791386D03*
%TO.P,U4,13*%
%TO.N,GND*%
X102413501Y-115791386D03*
%TO.P,U4,14*%
%TO.N,SR_CHAIN_3*%
X103063501Y-115791386D03*
%TO.P,U4,15*%
%TO.N,ROW_24*%
X103713501Y-115791386D03*
%TO.P,U4,16*%
%TO.N,ROW_VCC*%
X104363501Y-115791386D03*
%TD*%
D61*
%TO.P,SW1,1*%
%TO.N,BOOTSEL_SW*%
X124197874Y-103048495D03*
%TO.P,SW1,2*%
%TO.N,GND*%
X127597874Y-103048495D03*
%TD*%
D47*
%TO.P,U6,1*%
%TO.N,SENSE_B*%
X143978151Y-116160162D03*
%TO.P,U6,2*%
%TO.N,COL_23*%
X143978151Y-115510162D03*
%TO.P,U6,3*%
%TO.N,COL_22*%
X143978151Y-114860162D03*
%TO.P,U6,4*%
%TO.N,COL_21*%
X143978151Y-114210162D03*
%TO.P,U6,5*%
%TO.N,COL_20*%
X143978151Y-113560162D03*
%TO.P,U6,6*%
%TO.N,COL_19*%
X143978151Y-112910162D03*
%TO.P,U6,7*%
%TO.N,COL_18*%
X143978151Y-112260162D03*
%TO.P,U6,8*%
%TO.N,COL_17*%
X143978151Y-111610162D03*
%TO.P,U6,9*%
%TO.N,COL_16*%
X143978151Y-110960162D03*
%TO.P,U6,10*%
%TO.N,MUX_S0*%
X143978151Y-110310162D03*
%TO.P,U6,11*%
%TO.N,MUX_S1*%
X143978151Y-109660162D03*
%TO.P,U6,12*%
%TO.N,GND*%
X143978151Y-109010162D03*
%TO.P,U6,13*%
%TO.N,MUX_S3*%
X136978151Y-109010162D03*
%TO.P,U6,14*%
%TO.N,MUX_S2*%
X136978151Y-109660162D03*
%TO.P,U6,15*%
%TO.N,GND*%
X136978151Y-110310162D03*
%TO.P,U6,16*%
%TO.N,COL_31*%
X136978151Y-110960162D03*
%TO.P,U6,17*%
%TO.N,COL_30*%
X136978151Y-111610162D03*
%TO.P,U6,18*%
%TO.N,COL_29*%
X136978151Y-112260162D03*
%TO.P,U6,19*%
%TO.N,COL_28*%
X136978151Y-112910162D03*
%TO.P,U6,20*%
%TO.N,COL_27*%
X136978151Y-113560162D03*
%TO.P,U6,21*%
%TO.N,COL_26*%
X136978151Y-114210162D03*
%TO.P,U6,22*%
%TO.N,COL_25*%
X136978151Y-114860162D03*
%TO.P,U6,23*%
%TO.N,COL_24*%
X136978151Y-115510162D03*
%TO.P,U6,24*%
%TO.N,+3.3V*%
X136978151Y-116160162D03*
%TD*%
D23*
%TO.P,C4,1*%
%TO.N,ROW_VCC*%
X104007887Y-117226894D03*
%TO.P,C4,2*%
%TO.N,GND*%
X104007887Y-118186894D03*
%TD*%
D62*
%TO.P,C46,1*%
%TO.N,USB_SNUB*%
X144750000Y-125100000D03*
%TO.P,C46,2*%
%TO.N,GND*%
X146650000Y-125100000D03*
%TD*%
D12*
%TO.P,R36,1*%
%TO.N,XOUT_MCU*%
X125640000Y-127900000D03*
%TO.P,R36,2*%
%TO.N,XOUT*%
X126660000Y-127900000D03*
%TD*%
D25*
%TO.P,J1,1*%
%TO.N,ROW_0*%
X120206863Y-106296643D03*
%TO.P,J1,2*%
%TO.N,ROW_1*%
X119706863Y-106296643D03*
%TO.P,J1,3*%
%TO.N,ROW_2*%
X119206863Y-106296643D03*
%TO.P,J1,4*%
%TO.N,ROW_3*%
X118706863Y-106296643D03*
%TO.P,J1,5*%
%TO.N,ROW_4*%
X118206863Y-106296643D03*
%TO.P,J1,6*%
%TO.N,ROW_5*%
X117706863Y-106296643D03*
%TO.P,J1,7*%
%TO.N,ROW_6*%
X117206863Y-106296643D03*
%TO.P,J1,8*%
%TO.N,ROW_7*%
X116706863Y-106296643D03*
%TO.P,J1,9*%
%TO.N,ROW_8*%
X116206863Y-106296643D03*
%TO.P,J1,10*%
%TO.N,ROW_9*%
X115706863Y-106296643D03*
%TO.P,J1,11*%
%TO.N,ROW_10*%
X115206863Y-106296643D03*
%TO.P,J1,12*%
%TO.N,ROW_11*%
X114706863Y-106296643D03*
%TO.P,J1,13*%
%TO.N,ROW_12*%
X114206863Y-106296643D03*
%TO.P,J1,14*%
%TO.N,ROW_13*%
X113706863Y-106296643D03*
%TO.P,J1,15*%
%TO.N,ROW_14*%
X113206863Y-106296643D03*
%TO.P,J1,16*%
%TO.N,ROW_15*%
X112706863Y-106296643D03*
%TO.P,J1,17*%
%TO.N,ROW_16*%
X112206863Y-106296643D03*
%TO.P,J1,18*%
%TO.N,ROW_17*%
X111706863Y-106296643D03*
%TO.P,J1,19*%
%TO.N,ROW_18*%
X111206863Y-106296643D03*
%TO.P,J1,20*%
%TO.N,ROW_19*%
X110706863Y-106296643D03*
%TO.P,J1,21*%
%TO.N,ROW_20*%
X110206863Y-106296643D03*
%TO.P,J1,22*%
%TO.N,ROW_21*%
X109706863Y-106296643D03*
%TO.P,J1,23*%
%TO.N,ROW_22*%
X109206863Y-106296643D03*
%TO.P,J1,24*%
%TO.N,ROW_23*%
X108706863Y-106296643D03*
%TO.P,J1,25*%
%TO.N,ROW_24*%
X108206863Y-106296643D03*
%TO.P,J1,26*%
%TO.N,ROW_25*%
X107706863Y-106296643D03*
%TO.P,J1,27*%
%TO.N,ROW_26*%
X107206863Y-106296643D03*
%TO.P,J1,28*%
%TO.N,ROW_27*%
X106706863Y-106296643D03*
%TO.P,J1,29*%
%TO.N,ROW_28*%
X106206863Y-106296643D03*
%TO.P,J1,30*%
%TO.N,ROW_29*%
X105706863Y-106296643D03*
%TO.P,J1,31*%
%TO.N,ROW_30*%
X105206863Y-106296643D03*
%TO.P,J1,32*%
%TO.N,ROW_31*%
X104706863Y-106296643D03*
D26*
%TO.P,J1,MP*%
%TO.N,GND*%
X122106863Y-103046643D03*
X112806863Y-103046643D03*
X110806863Y-103046643D03*
X102806863Y-103046643D03*
%TD*%
D57*
%TO.P,C16,1*%
%TO.N,VREG_AVDD*%
X129449999Y-115920000D03*
%TO.P,C16,2*%
%TO.N,GND*%
X129449999Y-115280000D03*
%TD*%
D40*
%TO.P,U1,1*%
%TO.N,ROW_1*%
X120836430Y-109674814D03*
%TO.P,U1,2*%
%TO.N,ROW_2*%
X120186430Y-109674814D03*
%TO.P,U1,3*%
%TO.N,ROW_3*%
X119536430Y-109674814D03*
%TO.P,U1,4*%
%TO.N,ROW_4*%
X118886430Y-109674814D03*
%TO.P,U1,5*%
%TO.N,ROW_5*%
X118236430Y-109674814D03*
%TO.P,U1,6*%
%TO.N,ROW_6*%
X117586430Y-109674814D03*
%TO.P,U1,7*%
%TO.N,ROW_7*%
X116936430Y-109674814D03*
%TO.P,U1,8*%
%TO.N,GND*%
X116286430Y-109674814D03*
%TO.P,U1,9*%
%TO.N,SR_CHAIN_1*%
X116286430Y-115399814D03*
%TO.P,U1,10*%
%TO.N,ROW_VCC*%
X116936430Y-115399814D03*
%TO.P,U1,11*%
%TO.N,ROW_CLK*%
X117586430Y-115399814D03*
%TO.P,U1,12*%
%TO.N,ROW_LATCH*%
X118236430Y-115399814D03*
%TO.P,U1,13*%
%TO.N,GND*%
X118886430Y-115399814D03*
%TO.P,U1,14*%
%TO.N,ROW_DATA*%
X119536430Y-115399814D03*
%TO.P,U1,15*%
%TO.N,ROW_0*%
X120186430Y-115399814D03*
%TO.P,U1,16*%
%TO.N,ROW_VCC*%
X120836430Y-115399814D03*
%TD*%
D18*
%TO.P,R26,1*%
%TO.N,+3.3V*%
X134901669Y-116175426D03*
%TO.P,R26,2*%
%TO.N,ADC_AVDD*%
X133881669Y-116175426D03*
%TD*%
D12*
%TO.P,R9,1*%
%TO.N,GAIN_B*%
X157223037Y-122300255D03*
%TO.P,R9,2*%
%TO.N,GND*%
X158243037Y-122300255D03*
%TD*%
D33*
%TO.P,JP3,1*%
%TO.N,ADDR2*%
X127981512Y-135701463D03*
%TO.P,JP3,2*%
%TO.N,GND*%
X129281512Y-135701463D03*
%TD*%
D35*
%TO.P,C32,1*%
%TO.N,ADC_B*%
X134500000Y-118980000D03*
%TO.P,C32,2*%
%TO.N,GND*%
X134500000Y-118020000D03*
%TD*%
D63*
%TO.P,D1,1*%
%TO.N,+5V*%
X102367266Y-120010480D03*
%TO.P,D1,2*%
%TO.N,+5V_BUS*%
X100267266Y-120010480D03*
%TD*%
D24*
%TO.P,C7,1*%
%TO.N,+3.3V*%
X157246596Y-123500000D03*
%TO.P,C7,2*%
%TO.N,GND*%
X158206596Y-123500000D03*
%TD*%
%TO.P,C29,1*%
%TO.N,+3.3V*%
X110808746Y-130480800D03*
%TO.P,C29,2*%
%TO.N,GND*%
X111768746Y-130480800D03*
%TD*%
D35*
%TO.P,C41,1*%
%TO.N,+3.3V*%
X115478714Y-121878845D03*
%TO.P,C41,2*%
%TO.N,GND*%
X115478714Y-120918845D03*
%TD*%
D23*
%TO.P,C3,1*%
%TO.N,ROW_VCC*%
X109465714Y-117301157D03*
%TO.P,C3,2*%
%TO.N,GND*%
X109465714Y-118261157D03*
%TD*%
D13*
%TO.P,C37,1*%
%TO.N,+5V_USB*%
X141883512Y-127845423D03*
%TO.P,C37,2*%
%TO.N,GND*%
X141883512Y-125945423D03*
%TD*%
D40*
%TO.P,U3,1*%
%TO.N,ROW_17*%
X109854501Y-110167657D03*
%TO.P,U3,2*%
%TO.N,ROW_18*%
X109204501Y-110167657D03*
%TO.P,U3,3*%
%TO.N,ROW_19*%
X108554501Y-110167657D03*
%TO.P,U3,4*%
%TO.N,ROW_20*%
X107904501Y-110167657D03*
%TO.P,U3,5*%
%TO.N,ROW_21*%
X107254501Y-110167657D03*
%TO.P,U3,6*%
%TO.N,ROW_22*%
X106604501Y-110167657D03*
%TO.P,U3,7*%
%TO.N,ROW_23*%
X105954501Y-110167657D03*
%TO.P,U3,8*%
%TO.N,GND*%
X105304501Y-110167657D03*
%TO.P,U3,9*%
%TO.N,SR_CHAIN_3*%
X105304501Y-115892657D03*
%TO.P,U3,10*%
%TO.N,ROW_VCC*%
X105954501Y-115892657D03*
%TO.P,U3,11*%
%TO.N,ROW_CLK*%
X106604501Y-115892657D03*
%TO.P,U3,12*%
%TO.N,ROW_LATCH*%
X107254501Y-115892657D03*
%TO.P,U3,13*%
%TO.N,GND*%
X107904501Y-115892657D03*
%TO.P,U3,14*%
%TO.N,SR_CHAIN_2*%
X108554501Y-115892657D03*
%TO.P,U3,15*%
%TO.N,ROW_16*%
X109204501Y-115892657D03*
%TO.P,U3,16*%
%TO.N,ROW_VCC*%
X109854501Y-115892657D03*
%TD*%
D13*
%TO.P,C23,1*%
%TO.N,+3.3V*%
X114047714Y-122348427D03*
%TO.P,C23,2*%
%TO.N,GND*%
X114047714Y-120448427D03*
%TD*%
D64*
%TO.P,L1,1*%
%TO.N,VCORE*%
X125250000Y-113600000D03*
%TO.P,L1,2*%
%TO.N,VREG_LX*%
X126850000Y-113600000D03*
%TD*%
D65*
%TO.N,GND*%
X99336746Y-125501463D03*
X125640512Y-134925340D03*
X146212500Y-133075912D03*
X111906863Y-101946643D03*
X121889952Y-112950000D03*
X129649998Y-112223631D03*
X153239244Y-132551463D03*
X111538746Y-130180801D03*
X132574652Y-124839861D03*
X99336746Y-135451463D03*
X158083037Y-122000255D03*
X157976596Y-123200000D03*
X129250000Y-129150000D03*
X109906863Y-101946643D03*
X114999746Y-124263512D03*
X139130861Y-125700562D03*
X131900000Y-117750000D03*
X148140487Y-101946643D03*
X125375926Y-121781214D03*
X130700000Y-112752105D03*
X138980000Y-119800000D03*
X134500000Y-121480000D03*
X126300000Y-130380197D03*
X118861430Y-114687314D03*
X121462430Y-114850000D03*
X116111430Y-108937314D03*
X118260746Y-130400000D03*
X149600690Y-128073874D03*
X105727746Y-128924716D03*
X157103970Y-119545242D03*
X138840487Y-101946643D03*
X127635926Y-121781214D03*
X114802132Y-117650000D03*
X110620501Y-109029585D03*
X115178714Y-120648845D03*
X133382005Y-118150000D03*
X113347714Y-119948427D03*
X128950000Y-112200000D03*
X138792512Y-128061464D03*
X122800000Y-115050000D03*
X136028151Y-110285162D03*
X143215249Y-124613546D03*
X130100000Y-125933088D03*
X109195714Y-118031157D03*
X141183512Y-125445423D03*
X148705606Y-110192022D03*
X103737887Y-117956894D03*
X132092512Y-128161464D03*
X127197874Y-102248495D03*
X99511746Y-123101480D03*
X129200000Y-114400000D03*
X99638501Y-109328886D03*
X121119987Y-117749189D03*
X105129501Y-109430157D03*
X121256863Y-101946643D03*
X103540000Y-121350000D03*
X120181616Y-117650000D03*
X120999484Y-119894973D03*
X129699524Y-111246359D03*
X113370501Y-114779585D03*
X154595246Y-123900000D03*
X143028151Y-108835162D03*
X128840487Y-101946643D03*
X133019474Y-124291832D03*
X125151625Y-126275851D03*
X104218867Y-122282716D03*
X137685070Y-118086162D03*
X101906863Y-101946643D03*
X149139364Y-119942977D03*
X120100000Y-124200000D03*
X129300000Y-126582258D03*
X112449746Y-129163512D03*
X128550000Y-126177318D03*
X122349512Y-134951463D03*
X112449746Y-124263512D03*
X121123281Y-121900000D03*
X107124714Y-119971716D03*
X150126879Y-131238110D03*
X129250000Y-126033536D03*
X116441399Y-119949203D03*
X145625000Y-133490000D03*
X136840487Y-101946643D03*
X126505926Y-119521214D03*
X143298690Y-127673039D03*
X125375926Y-119521214D03*
X124150000Y-128730197D03*
X128931513Y-134951463D03*
X155889244Y-135451463D03*
X152906354Y-117449116D03*
X129250000Y-115100000D03*
X126505926Y-121781214D03*
X126505926Y-120651214D03*
X125750000Y-115150000D03*
X122207075Y-129550000D03*
X139010000Y-120800000D03*
X142800000Y-135651463D03*
X128550000Y-118100000D03*
X134500000Y-117420000D03*
X133450000Y-120450000D03*
X155889244Y-125501463D03*
X131774652Y-126889861D03*
X103036746Y-128801463D03*
X127635926Y-120651214D03*
X155705606Y-108742022D03*
X146804606Y-115401596D03*
X126600000Y-126350000D03*
X102388501Y-115078886D03*
X132100000Y-120800000D03*
X145665200Y-125588500D03*
X108745714Y-119445578D03*
X107879501Y-115180157D03*
X158444244Y-118050000D03*
%TO.N,+3.3V*%
X122555926Y-117731214D03*
X127250000Y-118550016D03*
X116441399Y-121899203D03*
X126300000Y-115950000D03*
X120123593Y-123100720D03*
X123439952Y-112950000D03*
X131824652Y-124639861D03*
X122588695Y-116600000D03*
X110196714Y-122055989D03*
X125151625Y-125425851D03*
X116299746Y-129163512D03*
X122062430Y-116250000D03*
X121969987Y-117749189D03*
X132005127Y-124119315D03*
X121973281Y-122000000D03*
X115178714Y-121848845D03*
X109577746Y-129174716D03*
X134342292Y-127256375D03*
X147804606Y-115401596D03*
X126155926Y-116581214D03*
X129805926Y-117731214D03*
X129200000Y-120650000D03*
X130115088Y-110745553D03*
X118492399Y-121848782D03*
X134641669Y-115875426D03*
X155006354Y-121749116D03*
X136028151Y-116135162D03*
X134576120Y-124005375D03*
X123756047Y-121916612D03*
X121462430Y-115850000D03*
X120100000Y-125300000D03*
X110946714Y-122055989D03*
X129400000Y-125183536D03*
X124453578Y-118100116D03*
D66*
%TO.N,ROW_VCC*%
X119072000Y-122283100D03*
X117080100Y-117131600D03*
D65*
%TO.N,+5V_USB*%
X138800000Y-126950000D03*
D66*
X151059900Y-132868700D03*
D65*
X137400000Y-126000000D03*
%TO.N,SYNC_P*%
X111200000Y-132300000D03*
X142000000Y-131850000D03*
X105300000Y-132850000D03*
X152300000Y-129100000D03*
%TO.N,SYNC_N*%
X105300000Y-134100000D03*
X141200000Y-131350000D03*
X113000000Y-132300000D03*
X152350000Y-127850000D03*
%TO.N,USB_BUS_EN*%
X127960000Y-123250000D03*
X122819100Y-124460000D03*
X141646700Y-129240800D03*
X137778700Y-121950600D03*
%TO.N,USB_PWR_FAULT*%
X125310000Y-123250000D03*
X126410000Y-122800000D03*
X129160000Y-121950000D03*
X122410000Y-125000000D03*
%TO.N,USB_ILIM*%
X151456880Y-130838110D03*
X149606880Y-129863110D03*
X151456880Y-129863110D03*
X147556880Y-130788108D03*
D66*
%TO.N,USB_ILIM_LOW*%
X145387100Y-130706400D03*
X152421700Y-132554800D03*
D65*
%TO.N,+5V_BUS*%
X120489240Y-136346460D03*
X152139240Y-134096460D03*
%TO.N,BUS_N*%
X105200000Y-131600000D03*
X109200000Y-131600000D03*
%TO.N,VCORE*%
X123875000Y-116400000D03*
X127280930Y-116376210D03*
X127205930Y-122951210D03*
X130680929Y-120226210D03*
X123875000Y-118425000D03*
%TO.N,RUN*%
X122061900Y-123403200D03*
X126391500Y-127072600D03*
%TO.N,STATUS*%
X143405930Y-135001210D03*
X130905930Y-121301210D03*
%TO.N,AMP_A*%
X152156350Y-120911620D03*
X150331350Y-122736620D03*
D66*
%TO.N,COL_0*%
X151484800Y-106296600D03*
X154105500Y-110774400D03*
%TO.N,COL_4*%
X154651800Y-113467000D03*
X151328400Y-105369900D03*
%TO.N,COL_6*%
X154262300Y-114658500D03*
X144165300Y-105068900D03*
%TO.N,COL_7*%
X143803900Y-107482800D03*
X154075200Y-115417000D03*
%TO.N,COL_8*%
X143052100Y-107477000D03*
X151113400Y-115417000D03*
D65*
%TO.N,COL_9*%
X151005610Y-114267020D03*
X143480610Y-105242020D03*
%TO.N,COL_10*%
X142080610Y-105192020D03*
X145580610Y-115792020D03*
D66*
%TO.N,COL_11*%
X145017300Y-108222900D03*
X147053700Y-113468600D03*
%TO.N,COL_12*%
X140644500Y-105140000D03*
X145584300Y-115005000D03*
%TO.N,COL_13*%
X146993500Y-112345500D03*
X142342100Y-108256900D03*
%TO.N,COL_14*%
X140551800Y-107754000D03*
X145431100Y-114253200D03*
D65*
%TO.N,COL_15*%
X139930610Y-105067020D03*
X146055610Y-110442020D03*
D66*
%TO.N,COL_17*%
X140204200Y-111624100D03*
X137593200Y-105138800D03*
%TO.N,COL_18*%
X138338600Y-107448500D03*
X140889600Y-112260200D03*
%TO.N,COL_19*%
X141668100Y-112910200D03*
X138754000Y-108116900D03*
%TO.N,COL_20*%
X139298300Y-111007200D03*
X136831000Y-105121700D03*
%TO.N,COL_22*%
X135834200Y-105143400D03*
X140849500Y-114860200D03*
%TO.N,COL_23*%
X139994100Y-115510200D03*
X136455300Y-107761700D03*
%TO.N,COL_24*%
X134869100Y-108022300D03*
X138436000Y-115510200D03*
%TO.N,COL_25*%
X133550800Y-109028000D03*
X133607700Y-112380200D03*
%TO.N,COL_26*%
X134655600Y-105139700D03*
X138446000Y-114069200D03*
%TO.N,COL_27*%
X135126800Y-113560200D03*
X133591700Y-107475300D03*
%TO.N,COL_28*%
X134595200Y-112910200D03*
X134393600Y-110582600D03*
%TO.N,COL_29*%
X134660700Y-104384900D03*
X138436200Y-112260200D03*
%TO.N,COL_30*%
X132984800Y-111610200D03*
X131988200Y-107601500D03*
D65*
%TO.N,SWDIO*%
X124455930Y-125401210D03*
X127355930Y-124951210D03*
X117205930Y-128951210D03*
%TO.N,SWCLK*%
X127105930Y-125901210D03*
X120705930Y-133801210D03*
%TO.N,USB_D_N*%
X129805929Y-116601210D03*
X127605930Y-118001210D03*
%TO.N,USBC_D_N*%
X131925000Y-116512500D03*
X136100000Y-125012500D03*
%TO.N,USB_ILIM_HI*%
X129405930Y-134201210D03*
X119292000Y-133332400D03*
X122005930Y-133301210D03*
X118451300Y-118173900D03*
%TO.N,ROW_DATA*%
X119084800Y-116590400D03*
X120254200Y-120160200D03*
%TO.N,MUX_S0*%
X123805610Y-120217020D03*
X153478150Y-110210160D03*
X148078150Y-109960160D03*
X155405610Y-110217020D03*
%TO.N,MUX_S1*%
X152721300Y-109258700D03*
X147510700Y-109412500D03*
X120700900Y-120651200D03*
X120077900Y-111013000D03*
%TO.N,MUX_S2*%
X148235200Y-116939600D03*
X150477600Y-119186700D03*
X135516500Y-109660800D03*
X124106000Y-121059100D03*
%TO.N,MUX_S3*%
X134320200Y-109010200D03*
X122216900Y-121257000D03*
X148279000Y-108976200D03*
X120620700Y-111776600D03*
X132334700Y-110016600D03*
%TO.N,BUS_RO*%
X122401700Y-126737100D03*
X124684400Y-123058200D03*
%TO.N,USB_CC_OUT1*%
X134099650Y-125614860D03*
X128799650Y-124839860D03*
%TO.N,ADDR0*%
X129155930Y-123301210D03*
X122705930Y-133301210D03*
%TO.N,ADDR1*%
X129215510Y-122625340D03*
X124715510Y-133300340D03*
%TO.N,ADDR2*%
X130756509Y-123151460D03*
X128006509Y-133301459D03*
%TO.N,USB_D_P*%
X126930000Y-117925000D03*
X128405000Y-114150000D03*
%TO.N,BOOTSEL*%
X122935000Y-110475000D03*
X122935000Y-108925000D03*
D66*
%TO.N,+5V*%
X139128000Y-118165000D03*
X110427600Y-120904000D03*
D65*
%TO.N,USB_CC1*%
X132717510Y-127406460D03*
X130667510Y-128431457D03*
%TO.N,USB_CC2*%
X131317510Y-127356460D03*
X136867510Y-127606460D03*
D66*
%TO.N,ROW_CLK*%
X106742500Y-114643000D03*
X107181500Y-113592200D03*
%TO.N,ROW_LATCH*%
X117261400Y-114137800D03*
X107303800Y-117146500D03*
X107973700Y-113970300D03*
%TO.N,ROW_8*%
X116158900Y-107471200D03*
X114979500Y-114244300D03*
D65*
%TO.N,USBC_D_P*%
X137100000Y-126600000D03*
X130000000Y-113875000D03*
%TO.N,ROW_25*%
X106831860Y-108296640D03*
X104731860Y-111021640D03*
D66*
%TO.N,SR_CHAIN_3*%
X104885700Y-114722400D03*
X103194800Y-114550300D03*
%TO.N,ROW_24*%
X107766100Y-105141100D03*
X105722300Y-114420700D03*
%TO.N,ROW_0*%
X120956500Y-107223300D03*
X120186400Y-114142000D03*
%TO.N,ROW_16*%
X108629600Y-117146000D03*
X112175400Y-107555900D03*
%TO.N,ROW_22*%
X108978100Y-105141100D03*
X106820900Y-111416000D03*
%TD*%
%TO.N,ADC_AVDD*%
D67*
X129980930Y-118276210D02*
X132605930Y-118276210D01*
D68*
X132662000Y-117395100D02*
X132662000Y-118320000D01*
X132605930Y-118276210D02*
X132630930Y-118301210D01*
X133881700Y-116175400D02*
X132662000Y-117395100D01*
%TO.N,GND*%
X129256509Y-135276460D02*
X129256509Y-135676460D01*
X129275000Y-126558540D02*
X129275000Y-126058540D01*
X116466400Y-119974200D02*
X116916400Y-120424200D01*
D67*
X126530930Y-120626210D02*
X128880930Y-118276210D01*
D68*
X131889999Y-117775000D02*
X131889999Y-117900000D01*
X143698690Y-127698040D02*
X143873690Y-127873040D01*
X156505610Y-108767020D02*
X156630610Y-108892020D01*
D67*
X128580930Y-118076210D02*
X128880930Y-117776210D01*
D68*
X114827130Y-117675000D02*
X115052130Y-117900000D01*
X99665750Y-109353890D02*
X99665750Y-109878890D01*
X125176620Y-126265850D02*
X125276620Y-126265850D01*
X103311750Y-129076460D02*
X103861750Y-129076460D01*
X129225000Y-129175000D02*
X129475000Y-129425000D01*
X133440000Y-120420000D02*
X133440000Y-120345000D01*
X120100000Y-124225000D02*
X120350000Y-124475000D01*
X158474240Y-118075000D02*
X158474240Y-118300000D01*
X146829610Y-115426600D02*
X147079610Y-115676600D01*
X121914950Y-112975000D02*
X122314950Y-113375000D01*
X103540000Y-120700000D02*
X103540000Y-121350000D01*
X138410000Y-120800000D02*
X139010000Y-120800000D01*
X122374510Y-134976460D02*
X122674510Y-135276460D01*
X102413500Y-115103890D02*
X102413500Y-115753890D01*
X116916400Y-120424200D02*
X117116400Y-120424200D01*
X138575000Y-125925600D02*
X139200000Y-125925600D01*
X121024480Y-119894970D02*
X121149480Y-119894970D01*
X121148280Y-121900000D02*
X121273280Y-121900000D01*
X113395500Y-114804580D02*
X113395500Y-115454580D01*
X112724750Y-129438510D02*
X112724750Y-130113509D01*
X142825000Y-135676460D02*
X143225000Y-136076460D01*
X112474750Y-129188510D02*
X112724750Y-129438510D01*
X107904500Y-115205160D02*
X107904500Y-115855160D01*
X109220710Y-118056160D02*
X109445710Y-118281160D01*
X112730000Y-124570000D02*
X112730000Y-125170000D01*
D67*
X132724652Y-124589861D02*
X133019474Y-124341832D01*
D68*
X129625000Y-112200000D02*
X128975000Y-112200000D01*
X125775000Y-115175000D02*
X126400000Y-115175000D01*
X110645500Y-109054580D02*
X110645500Y-109579580D01*
X158108040Y-122025250D02*
X158233040Y-122150250D01*
X128865490Y-101971650D02*
X129665490Y-102771650D01*
X130725000Y-113052100D02*
X130824999Y-113152100D01*
X116136430Y-108962310D02*
X116136430Y-109487310D01*
X141208510Y-125470420D02*
X141658510Y-125920420D01*
X115203710Y-120673840D02*
X115453710Y-120923840D01*
X125665510Y-134950340D02*
X125965510Y-135250340D01*
D67*
X128074000Y-115255070D02*
X126524000Y-115255070D01*
D68*
X105752750Y-128949720D02*
X106002750Y-129199720D01*
X115024750Y-124288510D02*
X115274750Y-124538510D01*
X127572870Y-102621650D02*
X127572870Y-103021650D01*
X152931350Y-117474120D02*
X152931350Y-117899120D01*
X132117510Y-128536460D02*
X132317510Y-128736460D01*
X156364240Y-125976460D02*
X157214240Y-125976460D01*
X148965490Y-102771650D02*
X148965490Y-103021650D01*
X157128970Y-119570240D02*
X157378970Y-119820240D01*
X129125000Y-126158540D02*
X129225000Y-126058540D01*
X155730610Y-108767020D02*
X156505610Y-108767020D01*
X137665490Y-102771650D02*
X137665490Y-103021650D01*
X143323690Y-127698040D02*
X143698690Y-127698040D01*
X122081860Y-102771650D02*
X122081860Y-103021650D01*
X121281860Y-101971650D02*
X122081860Y-102771650D01*
D67*
X149089364Y-119992977D02*
X149139364Y-119942977D01*
D68*
X109045710Y-119470580D02*
X109170710Y-119595580D01*
X137710070Y-118061160D02*
X137960070Y-118311160D01*
X126400000Y-115175000D02*
X126475000Y-115250000D01*
X116136430Y-109487310D02*
X116286430Y-109637310D01*
X152931350Y-117899120D02*
X153081350Y-118049120D01*
X99815750Y-125976460D02*
X100665750Y-125976460D01*
X146240200Y-125588500D02*
X145665200Y-125588500D01*
X130125000Y-125908090D02*
X130375000Y-126158090D01*
X120206620Y-117675000D02*
X120431620Y-117900000D01*
X107324710Y-120171720D02*
X107524710Y-120171720D01*
D67*
X128880930Y-118276210D02*
X128880930Y-117226210D01*
D68*
X105154500Y-109980160D02*
X105304500Y-110130160D01*
X110781860Y-102821650D02*
X110781860Y-103021650D01*
X130375000Y-126138090D02*
X129449999Y-126138090D01*
X105154500Y-109455160D02*
X105154500Y-109980160D01*
X111513750Y-130205800D02*
X111763750Y-130455800D01*
X107149710Y-119996720D02*
X107324710Y-120171720D01*
X101931860Y-101971650D02*
X102781860Y-102821650D01*
X149605690Y-128073874D02*
X149600690Y-128073874D01*
X129665490Y-102771650D02*
X129665490Y-103021650D01*
X131940000Y-120795000D02*
X131889999Y-120745000D01*
X99365750Y-125526460D02*
X99815750Y-125976460D01*
X108770710Y-119470580D02*
X109045710Y-119470580D01*
X143240250Y-124638550D02*
X143490250Y-124888550D01*
X113822710Y-120423430D02*
X114022710Y-120423430D01*
X132117510Y-128186460D02*
X132117510Y-128536460D01*
X130725000Y-112777100D02*
X130725000Y-113052100D01*
X145225000Y-133490000D02*
X145625000Y-133490000D01*
X153264240Y-132576460D02*
X153514240Y-132826460D01*
X103061750Y-128826460D02*
X103311750Y-129076460D01*
X138817510Y-128086459D02*
X138817510Y-128736460D01*
X121144990Y-117774190D02*
X121269990Y-117899190D01*
X112455000Y-124295000D02*
X112730000Y-124570000D01*
X99540750Y-123126480D02*
X99790750Y-123376480D01*
X111669750Y-124113510D02*
X111419750Y-124113510D01*
X110645500Y-109579580D02*
X110795500Y-109729590D01*
X99790750Y-123376480D02*
X99790750Y-123576480D01*
D67*
X131749650Y-126864860D02*
X131924650Y-126689860D01*
D68*
X143828150Y-108860160D02*
X143953150Y-108985160D01*
X155914240Y-135476460D02*
X156364240Y-135926460D01*
D67*
X132599650Y-124864860D02*
X132724650Y-124989860D01*
D68*
X124175000Y-128705199D02*
X124775000Y-129305200D01*
X128574999Y-126158540D02*
X129125000Y-126158540D01*
D67*
X128880930Y-117776210D02*
X128880930Y-117226210D01*
D68*
X111931860Y-101971650D02*
X112781860Y-102821650D01*
X134500000Y-120880000D02*
X134500000Y-121480000D01*
X128956510Y-134976460D02*
X129256509Y-135276460D01*
X132065000Y-120795000D02*
X131940000Y-120795000D01*
X118886430Y-114712310D02*
X118886430Y-115362310D01*
X156364240Y-135926460D02*
X157214240Y-135926460D01*
X122825000Y-115075000D02*
X123225000Y-115475000D01*
X129050000Y-114100000D02*
X128950000Y-114000000D01*
X112781860Y-102821650D02*
X112781860Y-103021650D01*
X125965510Y-135250340D02*
X125965510Y-135650340D01*
X129449999Y-126138090D02*
X129324999Y-126013090D01*
X145000000Y-133490000D02*
X144700000Y-133250000D01*
X102781860Y-102821650D02*
X102781860Y-103021650D01*
X129675000Y-112196360D02*
X129675000Y-111271360D01*
X126325000Y-130355200D02*
X126975000Y-131005200D01*
X122232070Y-129574999D02*
X122482070Y-129824999D01*
X113372710Y-119973430D02*
X113822710Y-120423430D01*
X133397010Y-118175000D02*
X133272010Y-118300000D01*
X139665490Y-102771650D02*
X139665490Y-103021650D01*
X121487430Y-114875000D02*
X121737430Y-115125000D01*
X103762890Y-117981890D02*
X103987890Y-118206890D01*
X158233040Y-122150250D02*
X158233040Y-122275250D01*
X136865490Y-101971650D02*
X137665490Y-102771650D01*
X129225000Y-114425000D02*
X129225000Y-115075000D01*
X129275000Y-115125000D02*
X129425000Y-115275000D01*
X138865490Y-101971650D02*
X139665490Y-102771650D01*
X129050000Y-114200000D02*
X129050000Y-114100000D01*
X118235750Y-130425000D02*
X118485750Y-130675000D01*
X99815750Y-135926460D02*
X100665750Y-135926460D01*
X157951600Y-123225000D02*
X158201600Y-123475000D01*
X153514240Y-132826460D02*
X154014240Y-132826460D01*
X128950000Y-114000000D02*
X128950000Y-112200000D01*
X154620250Y-123925000D02*
X154745250Y-123925000D01*
X155914240Y-125526460D02*
X156364240Y-125976460D01*
X126575000Y-126340000D02*
X126525000Y-126290000D01*
X154745250Y-123925000D02*
X154820250Y-124000000D01*
X99365750Y-135476460D02*
X99815750Y-135926460D01*
X106002750Y-129199720D02*
X106002750Y-129874720D01*
X134500000Y-118020000D02*
X134500000Y-117420000D01*
X138380000Y-119800000D02*
X138980000Y-119800000D01*
D67*
X133019474Y-124341832D02*
X133019474Y-124291832D01*
D68*
X109931860Y-101971650D02*
X110781860Y-102821650D01*
X122674510Y-135276460D02*
X122674510Y-135676460D01*
X136053150Y-110285160D02*
X136953150Y-110285160D01*
X139155860Y-125725560D02*
X139405860Y-125975560D01*
X148165490Y-101971650D02*
X148965490Y-102771650D01*
X99665750Y-109878890D02*
X99815750Y-110028890D01*
X148730610Y-110192020D02*
X149630610Y-110192020D01*
X146237500Y-133050000D02*
X148362500Y-133050000D01*
X127222870Y-102271650D02*
X127572870Y-102621650D01*
X141658510Y-125920420D02*
X141858510Y-125920420D01*
X143053150Y-108860160D02*
X143828150Y-108860160D01*
X112719750Y-125163510D02*
X111669750Y-124113510D01*
X115274750Y-124538510D02*
X115274750Y-125163510D01*
%TO.N,+3.3V*%
X148380610Y-116042020D02*
X148055610Y-115717020D01*
D67*
X131205000Y-120695000D02*
X130005000Y-120695000D01*
D68*
X127055930Y-115876210D02*
X127505930Y-115876210D01*
X131850000Y-124944320D02*
X131900000Y-124994320D01*
X126087430Y-117580000D02*
X126087430Y-117230000D01*
X127505930Y-115876210D02*
X128080930Y-116451210D01*
X110191714Y-122905989D02*
X109787926Y-123004142D01*
X130140089Y-110745550D02*
X130390089Y-110995550D01*
X122562430Y-116575000D02*
X122087430Y-116100000D01*
X105734982Y-122705268D02*
X105646522Y-122811687D01*
X130425000Y-125178090D02*
X131750000Y-125178090D01*
X134367290Y-127246370D02*
X134617290Y-127246370D01*
X123464950Y-112975000D02*
X123864950Y-113375000D01*
X120123590Y-123125720D02*
X120373590Y-123375720D01*
X134375000Y-123805370D02*
X132324999Y-123805370D01*
X131990000Y-124944320D02*
X131940000Y-124994320D01*
D67*
X121959990Y-117774190D02*
X121959990Y-117899190D01*
D68*
X116579750Y-130163510D02*
X117104750Y-130688510D01*
X126325000Y-115940000D02*
X126475000Y-115940000D01*
X149630610Y-116042020D02*
X148380610Y-116042020D01*
D67*
X130005000Y-120695000D02*
X129979999Y-120670000D01*
D68*
X131990000Y-124144310D02*
X131990000Y-124944320D01*
X126805930Y-118526210D02*
X126430930Y-118151210D01*
X132324999Y-123805370D02*
X132025000Y-124105370D01*
X110783750Y-130455800D02*
X110233750Y-129905800D01*
X123730930Y-121891610D02*
X123105930Y-121891610D01*
D67*
X129830930Y-117756210D02*
X129930929Y-117856210D01*
D68*
X122087430Y-116100000D02*
X121787430Y-116100000D01*
X126530930Y-116401210D02*
X127055930Y-115876210D01*
X126430930Y-118151210D02*
X126430930Y-117276210D01*
X129425000Y-125201210D02*
X129300000Y-125326210D01*
X126500000Y-115945000D02*
X126500000Y-117170000D01*
X109787926Y-123004142D02*
X105734982Y-122705268D01*
X127230930Y-118526210D02*
X126805930Y-118526210D01*
X122037430Y-116225000D02*
X121912430Y-116100000D01*
X105646522Y-122811687D02*
X105462807Y-123038716D01*
X147779610Y-115426600D02*
X148029610Y-115676600D01*
X134601120Y-124005380D02*
X134851120Y-124255380D01*
X131850000Y-124669310D02*
X131850000Y-124944320D01*
X117104750Y-130688510D02*
X117504750Y-130688510D01*
X125887430Y-117780000D02*
X126087430Y-117580000D01*
D67*
X121963280Y-121970000D02*
X121963280Y-121945000D01*
X130005000Y-117895000D02*
X129979999Y-117870000D01*
D68*
X125326620Y-125580850D02*
X125326620Y-124130850D01*
X121487430Y-115825000D02*
X121737430Y-116075000D01*
X126530930Y-117176210D02*
X126530930Y-116401210D01*
X126087430Y-117575000D02*
X126087430Y-117225000D01*
X124487430Y-118100000D02*
X125562430Y-118100000D01*
X129300000Y-125338540D02*
X129300000Y-124138540D01*
X125176620Y-125451210D02*
X125301620Y-125576210D01*
D69*
X114022710Y-122323430D02*
X111522710Y-122323430D01*
D68*
X110233750Y-129905800D02*
X109858750Y-129905800D01*
D67*
X123030930Y-121876210D02*
X122030930Y-121876210D01*
D68*
X120100000Y-125325000D02*
X120350000Y-125575000D01*
D67*
X131205000Y-117895000D02*
X130005000Y-117895000D01*
D68*
X156071600Y-122325000D02*
X155046600Y-122325000D01*
X137953150Y-117135160D02*
X137953150Y-117335160D01*
D67*
X121964990Y-117894190D02*
X123014990Y-117894190D01*
D68*
X116866400Y-122324200D02*
X117116400Y-122324200D01*
X125562430Y-118100000D02*
X126087430Y-117575000D01*
X129225000Y-120650000D02*
X129925000Y-120650000D01*
X126430930Y-117276210D02*
X126480930Y-117226210D01*
X128080930Y-116451210D02*
X128080930Y-117176210D01*
X122555926Y-117781214D02*
X122555926Y-117731214D01*
D67*
X123014990Y-117894190D02*
X123039990Y-117869190D01*
D68*
X129425000Y-125194320D02*
X130375000Y-125194320D01*
X131750000Y-125178090D02*
X131900000Y-125028090D01*
X134666670Y-115900430D02*
X134916670Y-116150430D01*
X121787430Y-116105000D02*
X123462430Y-117780000D01*
X157221600Y-123475000D02*
X156071600Y-122325000D01*
X118517400Y-121828780D02*
X118517400Y-121428780D01*
X137003150Y-116185160D02*
X137953150Y-117135160D01*
X123462430Y-117780000D02*
X125887430Y-117780000D01*
X115203710Y-121848840D02*
X115453710Y-121848840D01*
X134550000Y-123980370D02*
X134375000Y-123805370D01*
X110196714Y-122905989D02*
X110191714Y-122905989D01*
X121912430Y-116100000D02*
X121787430Y-116100000D01*
X129830930Y-117756210D02*
X129930929Y-117856210D01*
D67*
X122030930Y-121876210D02*
X121980930Y-121926210D01*
D68*
X116466400Y-121924200D02*
X116866400Y-122324200D01*
X128098999Y-115945060D02*
X128098999Y-117170060D01*
X123105930Y-121891610D02*
X123080930Y-121866610D01*
X134617290Y-127246370D02*
X134717290Y-127146370D01*
%TO.N,ROW_VCC*%
X104363500Y-115791400D02*
X104363500Y-116871300D01*
X106750500Y-117720300D02*
X108816400Y-117720300D01*
X111073700Y-116540600D02*
X109854500Y-116540600D01*
X105954500Y-116924300D02*
X106750500Y-117720300D01*
X116734700Y-113790500D02*
X116009700Y-113065500D01*
X104416500Y-116924300D02*
X104363500Y-116871300D01*
X116880000Y-117188000D02*
X116936400Y-117131600D01*
X119552400Y-121802700D02*
X119072000Y-122283100D01*
X105954500Y-116924300D02*
X104416500Y-116924300D01*
X101261800Y-117226900D02*
X104007900Y-117226900D01*
X109854500Y-115892700D02*
X109854500Y-116540600D01*
X116936400Y-117131600D02*
X117080100Y-117131600D01*
X116936400Y-113588800D02*
X116734700Y-113790500D01*
X115345500Y-116920000D02*
X115613500Y-117188000D01*
X102524100Y-113065500D02*
X100463500Y-115126100D01*
X100463500Y-115126100D02*
X100463500Y-115791400D01*
X116009700Y-113065500D02*
X102524100Y-113065500D01*
X111445500Y-115492100D02*
X111445500Y-116168800D01*
X100463500Y-116428600D02*
X101261800Y-117226900D01*
X116734700Y-114355900D02*
X116936400Y-114557600D01*
X105954500Y-116924300D02*
X105954500Y-115892700D01*
X116936400Y-114557600D02*
X116936400Y-115399800D01*
X111445500Y-116168800D02*
X111073700Y-116540600D01*
X115345500Y-116920000D02*
X115072100Y-116920000D01*
X100463500Y-115791400D02*
X100463500Y-116428600D01*
X119552400Y-121398800D02*
X119552400Y-121802700D01*
X120836400Y-114007600D02*
X120417600Y-113588800D01*
X109854500Y-116540600D02*
X109854500Y-116912400D01*
X116734700Y-113790500D02*
X116734700Y-114355900D01*
X115613500Y-117188000D02*
X116880000Y-117188000D01*
X120417600Y-113588800D02*
X116936400Y-113588800D01*
X109235500Y-117301200D02*
X109465700Y-117301200D01*
X115345500Y-115492100D02*
X115345500Y-116920000D01*
X109854500Y-116912400D02*
X109465700Y-117301200D01*
X116936400Y-115399800D02*
X116936400Y-117131600D01*
X120836400Y-115399800D02*
X120836400Y-116535200D01*
X108816400Y-117720300D02*
X109235500Y-117301200D01*
X120836400Y-116535200D02*
X120451600Y-116920000D01*
X120836400Y-115399800D02*
X120836400Y-114007600D01*
X104363500Y-116871300D02*
X104007900Y-117226900D01*
%TO.N,+5V_USB*%
D69*
X138018000Y-129381000D02*
X138018000Y-128781000D01*
X128850000Y-128075000D02*
X128850000Y-127600000D01*
X133993000Y-130131000D02*
X137268000Y-130131000D01*
X151488200Y-132151200D02*
X151488200Y-132440400D01*
X128850000Y-127589400D02*
X128850000Y-127600000D01*
X130925000Y-130975000D02*
X130025000Y-130075000D01*
X139411500Y-126950000D02*
X139430900Y-126930600D01*
X143048900Y-126993300D02*
X141883500Y-126993300D01*
D68*
X136475000Y-126000000D02*
X137400000Y-126000000D01*
D69*
X133900000Y-130075000D02*
X133000000Y-130975000D01*
D68*
X138800000Y-126950000D02*
X139400000Y-126950000D01*
D69*
X137268000Y-130131000D02*
X138018000Y-129381000D01*
X133168000Y-129306000D02*
X133993000Y-130131000D01*
X138042500Y-127885900D02*
X138800000Y-127128400D01*
X130025000Y-130075000D02*
X130025000Y-129100000D01*
X143515200Y-126527000D02*
X143911200Y-126923000D01*
X140384300Y-124640700D02*
X140725000Y-124300000D01*
X133993000Y-130131000D02*
X133956000Y-130131000D01*
X138042500Y-128756500D02*
X138042500Y-127885900D01*
X138042500Y-128756500D02*
X138018000Y-128781000D01*
X141883500Y-126993300D02*
X140749200Y-126993300D01*
X140384300Y-126628400D02*
X140384300Y-124640700D01*
X139733100Y-126628400D02*
X139430900Y-126930600D01*
X143515200Y-126527000D02*
X143048900Y-126993300D01*
X151488200Y-132440400D02*
X151059900Y-132868700D01*
X133000000Y-130975000D02*
X130925000Y-130975000D01*
X143515200Y-125843500D02*
X143515200Y-126527000D01*
X129300000Y-128525000D02*
X128850000Y-128075000D01*
X128828800Y-127568200D02*
X128850000Y-127589400D01*
X140749200Y-126993300D02*
X140384300Y-126628400D01*
X130025000Y-129100000D02*
X129450000Y-128525000D01*
X138800000Y-127128400D02*
X138800000Y-126950000D01*
X133956000Y-130131000D02*
X133900000Y-130075000D01*
X133142500Y-128756500D02*
X133143500Y-128756500D01*
X129450000Y-128525000D02*
X129300000Y-128525000D01*
X140384300Y-126628400D02*
X139733100Y-126628400D01*
X133168000Y-128781000D02*
X133168000Y-129306000D01*
X141883500Y-126993300D02*
X141883500Y-127845400D01*
X133143500Y-128756500D02*
X133168000Y-128781000D01*
X139400000Y-126950000D02*
X139411500Y-126950000D01*
%TO.N,USB_SNUB*%
D68*
X142585900Y-124089100D02*
X142375000Y-124300000D01*
X143739100Y-124089100D02*
X142585900Y-124089100D01*
X144750000Y-125100000D02*
X143739100Y-124089100D01*
%TO.N,SYNC_P*%
X114010000Y-130900000D02*
X114010000Y-131360000D01*
X104400000Y-132850000D02*
X105300000Y-132850000D01*
X111200000Y-132300000D02*
X112000000Y-132300000D01*
X114300000Y-132850000D02*
X115000000Y-132150000D01*
X112170000Y-131360000D02*
X112170000Y-132850000D01*
X114010000Y-131360000D02*
X112170000Y-131360000D01*
X115000000Y-132150000D02*
X141300000Y-132150000D01*
X141300000Y-132150000D02*
X141600000Y-131850000D01*
X141600000Y-131850000D02*
X142000000Y-131850000D01*
X112170000Y-132850000D02*
X114300000Y-132850000D01*
X152300000Y-129100000D02*
X153600000Y-129100000D01*
%TO.N,SYNC_N*%
X115280000Y-130900000D02*
X115280000Y-131850000D01*
X140700000Y-131850000D02*
X141200000Y-131350000D01*
X113000000Y-132300000D02*
X113600000Y-132300000D01*
X152350000Y-127850000D02*
X153600000Y-127850000D01*
X104400000Y-134100000D02*
X105300000Y-134100000D01*
X113820000Y-131850000D02*
X140700000Y-131850000D01*
%TO.N,USB_BUS_EN*%
X128435000Y-123175000D02*
X128435000Y-121875000D01*
X135753200Y-121917300D02*
X135665700Y-122004800D01*
X130644700Y-121783800D02*
X130312098Y-121451200D01*
X127960000Y-123250000D02*
X128009999Y-123300000D01*
X128310000Y-123300000D02*
X128435000Y-123175000D01*
X128907800Y-121401000D02*
X128647900Y-121660900D01*
X130312098Y-121451200D02*
X129955900Y-121451200D01*
X128009999Y-123300000D02*
X128310000Y-123300000D01*
X137778700Y-121950600D02*
X137745400Y-121917300D01*
X128435000Y-121875000D02*
X128660000Y-121650000D01*
X132200099Y-122004800D02*
X131979098Y-121783800D01*
X137745400Y-121917300D02*
X135753200Y-121917300D01*
X135665700Y-122004800D02*
X132200099Y-122004800D01*
X143911200Y-128823000D02*
X143493400Y-129240800D01*
X121400000Y-124460000D02*
X121360000Y-124500000D01*
X129905700Y-121401000D02*
X128907800Y-121401000D01*
X129955900Y-121451200D02*
X129905700Y-121401000D01*
X143493400Y-129240800D02*
X141646700Y-129240800D01*
X122819100Y-124460000D02*
X121400000Y-124460000D01*
X131979098Y-121783800D02*
X130644700Y-121783800D01*
%TO.N,USB_PWR_FAULT*%
X145455930Y-126401210D02*
X145305930Y-126551210D01*
X125960000Y-123250000D02*
X125310000Y-123250000D01*
X129955930Y-121851210D02*
X130305929Y-121851210D01*
X147355930Y-125851210D02*
X146805930Y-126401210D01*
X130305929Y-121851210D02*
X131705930Y-123251210D01*
X145305930Y-128251209D02*
X145855930Y-128801210D01*
D67*
X146805930Y-126401210D02*
X145455930Y-126401210D01*
D68*
X121810000Y-125600000D02*
X122410000Y-125000000D01*
X129160000Y-121950000D02*
X129860000Y-121950000D01*
X129860000Y-121950000D02*
X129960000Y-121850000D01*
X145855930Y-128801210D02*
X146155930Y-128801210D01*
D67*
X145305930Y-126551210D02*
X145305930Y-128251209D01*
D68*
X121360000Y-125600000D02*
X121810000Y-125600000D01*
X146255930Y-123251210D02*
X147355930Y-124351210D01*
X131705930Y-123251210D02*
X146255930Y-123251210D01*
D67*
X147355930Y-124351210D02*
X147355930Y-125851210D01*
D68*
X126410000Y-122800000D02*
X125960000Y-123250000D01*
%TO.N,USB_ILIM*%
X151456880Y-129863110D02*
X149606880Y-129863110D01*
X150506880Y-131788108D02*
X151456880Y-130838110D01*
X147556880Y-130788108D02*
X147081880Y-131263110D01*
X147098390Y-128497740D02*
X146473390Y-127872740D01*
X147098390Y-131247740D02*
X147098390Y-128497740D01*
X149131880Y-131263110D02*
X149656880Y-131788108D01*
X147048390Y-131297740D02*
X147098390Y-131247740D01*
X146473390Y-127872740D02*
X146223390Y-127872740D01*
X149656880Y-131788108D02*
X150506880Y-131788108D01*
%TO.N,USB_BUS_SW*%
D70*
X146196700Y-126933500D02*
X146186200Y-126923000D01*
X148189700Y-126933500D02*
X146196700Y-126933500D01*
%TO.N,RAIL_MON*%
D67*
X138090000Y-119125000D02*
X137440000Y-119775000D01*
X131399000Y-119450000D02*
X134970000Y-119450000D01*
X134970000Y-119450000D02*
X134970000Y-119820000D01*
X137415000Y-120775000D02*
X137415000Y-119825000D01*
X139365000Y-119125000D02*
X138090000Y-119125000D01*
X129955999Y-119051000D02*
X131000000Y-119051000D01*
X131000000Y-119051000D02*
X131399000Y-119450000D01*
X134970000Y-119820000D02*
X137420000Y-119820000D01*
%TO.N,USB_ILIM_LOW*%
D68*
X146612500Y-133699998D02*
X151044500Y-133699998D01*
X145387100Y-130706400D02*
X146003400Y-131322700D01*
X152189700Y-132554800D02*
X152421700Y-132554800D01*
X151044500Y-133699998D02*
X152189700Y-132554800D01*
%TO.N,+5V_BUS*%
D69*
X155239690Y-128733460D02*
X155239690Y-133233460D01*
X155239690Y-133233460D02*
X154389690Y-134083460D01*
X154389690Y-134083460D02*
X154039690Y-134083460D01*
X102439240Y-128546460D02*
X103139240Y-127846460D01*
X99836750Y-122076480D02*
X103861750Y-126101480D01*
X99836750Y-121726480D02*
X99836750Y-122076480D01*
X99842270Y-120435480D02*
X99842270Y-121685480D01*
X102439240Y-134196460D02*
X102439240Y-128546460D01*
X104589240Y-136346460D02*
X102439240Y-134196460D01*
X100242270Y-120035480D02*
X99842270Y-120435480D01*
X120489240Y-136346460D02*
X104589240Y-136346460D01*
X148939690Y-129733460D02*
X150839690Y-127833460D01*
X148189690Y-129733460D02*
X148939690Y-129733460D01*
X151489690Y-127833460D02*
X152139690Y-128483460D01*
X103861750Y-126101480D02*
X103861750Y-127826480D01*
X103139240Y-127846460D02*
X103889240Y-127846460D01*
X154039240Y-134096460D02*
X152139240Y-134096460D01*
X152139690Y-128483460D02*
X154989690Y-128483460D01*
X154989690Y-128483460D02*
X155239690Y-128733460D01*
X150839690Y-127833460D02*
X151489690Y-127833460D01*
%TO.N,BUS_P*%
D68*
X104400000Y-130350000D02*
X104800000Y-130350000D01*
X115400000Y-132800000D02*
X142925000Y-132800000D01*
X106520000Y-133449999D02*
X114750000Y-133449999D01*
X105675000Y-131225000D02*
X107290000Y-131225000D01*
X151150000Y-131600000D02*
X153600000Y-131600000D01*
X107290000Y-131225000D02*
X107290000Y-130699999D01*
X143425000Y-132300000D02*
X150450000Y-132300000D01*
X142925000Y-132800000D02*
X143425000Y-132300000D01*
X150450000Y-132300000D02*
X151150000Y-131600000D01*
X106520000Y-131225000D02*
X106520000Y-133449999D01*
X104800000Y-130350000D02*
X105675000Y-131225000D01*
X114750000Y-133449999D02*
X115400000Y-132800000D01*
%TO.N,BUS_N*%
X151250000Y-130350000D02*
X153600000Y-130350000D01*
X147600000Y-132000000D02*
X148050000Y-131550000D01*
X148050000Y-130850000D02*
X148300000Y-130600000D01*
X142800000Y-132500000D02*
X143300000Y-132000000D01*
X108560000Y-130750000D02*
X108560000Y-131600000D01*
X114600000Y-133150000D02*
X115250000Y-132500000D01*
X151000000Y-130600000D02*
X151250000Y-130350000D01*
X109200000Y-131600000D02*
X108300000Y-131600000D01*
X148300000Y-130600000D02*
X151000000Y-130600000D01*
X108170000Y-133150000D02*
X114600000Y-133150000D01*
X108170000Y-132300000D02*
X108170000Y-133150000D01*
X148050000Y-131550000D02*
X148050000Y-130850000D01*
X143300000Y-132000000D02*
X147600000Y-132000000D01*
X104400000Y-131600000D02*
X105200000Y-131600000D01*
X115250000Y-132500000D02*
X142800000Y-132500000D01*
%TO.N,VCORE*%
D71*
X129980930Y-120226210D02*
X130680929Y-120226210D01*
X123475000Y-119825000D02*
X123075000Y-119825000D01*
X127680930Y-117176210D02*
X127680930Y-116776210D01*
X123875000Y-119425000D02*
X123475000Y-119825000D01*
X130755000Y-120295000D02*
X130705000Y-120245000D01*
X125225000Y-113625000D02*
X124800000Y-114050000D01*
X123875000Y-118425000D02*
X123875000Y-119425000D01*
X124800000Y-114050000D02*
X124800000Y-115475000D01*
X132755000Y-120295000D02*
X130755000Y-120295000D01*
X126530930Y-123626210D02*
X127205930Y-122951210D01*
X121880930Y-119876210D02*
X121855930Y-119901210D01*
X124750000Y-115525000D02*
X123875000Y-116400000D01*
X123030930Y-119876210D02*
X121880930Y-119876210D01*
X126530930Y-124076210D02*
X126530930Y-123626210D01*
X127680930Y-116776210D02*
X127280930Y-116376210D01*
X126525000Y-125605000D02*
X126525000Y-124130000D01*
%TO.N,RUN*%
D68*
X121383600Y-123400700D02*
X121386100Y-123403200D01*
X127705900Y-124622900D02*
X127705900Y-124101200D01*
X126614800Y-127072600D02*
X127809400Y-125878000D01*
X126391500Y-127072600D02*
X126614800Y-127072600D01*
X121386100Y-123403200D02*
X122061900Y-123403200D01*
D67*
X127809400Y-125878000D02*
X127809400Y-124726400D01*
D68*
X127809400Y-124726400D02*
X127705900Y-124622900D01*
%TO.N,STATUS*%
X146655930Y-135001210D02*
X148005930Y-136351210D01*
X129955930Y-121051210D02*
X130655930Y-121051210D01*
X130655930Y-121051210D02*
X130905930Y-121301210D01*
D67*
X143405930Y-135001210D02*
X146655930Y-135001210D01*
%TO.N,LED_A*%
D68*
X145042500Y-136356500D02*
X146990000Y-136356500D01*
X144787500Y-136101500D02*
X145042500Y-136356500D01*
%TO.N,AMP_A*%
X136956350Y-121361620D02*
X136531350Y-120936620D01*
X155006350Y-118786620D02*
X152881350Y-120911620D01*
X150331350Y-122736620D02*
X139281350Y-122736620D01*
X155006350Y-118111620D02*
X155006350Y-118786620D01*
X156192350Y-118706290D02*
X155567350Y-118081290D01*
X155567350Y-118081290D02*
X155067350Y-118081290D01*
X137906350Y-121361620D02*
X136956350Y-121361620D01*
X139281350Y-122736620D02*
X137906350Y-121361620D01*
X152881350Y-120911620D02*
X152156350Y-120911620D01*
%TO.N,ADC_A*%
D67*
X134150000Y-119920000D02*
X134500000Y-119920000D01*
X130818999Y-119670000D02*
X133900000Y-119670000D01*
X129955999Y-119451000D02*
X130600000Y-119451000D01*
X134500000Y-119920000D02*
X135490000Y-120910000D01*
X130600000Y-119451000D02*
X130818999Y-119670000D01*
X133900000Y-119670000D02*
X134150000Y-119920000D01*
%TO.N,GAIN_A*%
D68*
X154381400Y-117381700D02*
X154381400Y-118086600D01*
X155375100Y-116959800D02*
X154803300Y-116959800D01*
X157146600Y-118731300D02*
X156344000Y-119533900D01*
X154803300Y-116959800D02*
X154381400Y-117381700D01*
X156344000Y-119533900D02*
X156344000Y-119845200D01*
X157146600Y-118731300D02*
X155375100Y-116959800D01*
X157237400Y-118731300D02*
X157146600Y-118731300D01*
%TO.N,COL_0*%
X147090500Y-106296600D02*
X151484800Y-106296600D01*
X156655600Y-110867000D02*
X154198100Y-110867000D01*
X154198100Y-110867000D02*
X154105500Y-110774400D01*
%TO.N,COL_1*%
X152194500Y-108667300D02*
X150750500Y-107223300D01*
X154103000Y-111517000D02*
X152194500Y-109608500D01*
X146590500Y-106296600D02*
X146590500Y-107223300D01*
X150750500Y-107223300D02*
X146590500Y-107223300D01*
X156655600Y-111517000D02*
X154103000Y-111517000D01*
X152194500Y-109608500D02*
X152194500Y-108667300D01*
%TO.N,COL_2*%
X150889400Y-107788900D02*
X146656100Y-107788900D01*
X146090500Y-106296600D02*
X146090500Y-107223300D01*
X151892800Y-108792300D02*
X150889400Y-107788900D01*
X146656100Y-107788900D02*
X146090500Y-107223300D01*
X154326300Y-112167000D02*
X151892800Y-109733500D01*
X156655600Y-112167000D02*
X154326300Y-112167000D01*
X151892800Y-109733500D02*
X151892800Y-108792300D01*
%TO.N,COL_3*%
X156655600Y-112817000D02*
X154549600Y-112817000D01*
X150764400Y-108090600D02*
X146457800Y-108090600D01*
X146457800Y-108090600D02*
X145590500Y-107223300D01*
X151591100Y-109858500D02*
X151591100Y-108917300D01*
X151591100Y-108917300D02*
X150764400Y-108090600D01*
X154549600Y-112817000D02*
X151591100Y-109858500D01*
X145590500Y-106296600D02*
X145590500Y-107223300D01*
%TO.N,COL_4*%
X145090500Y-106296600D02*
X145090500Y-105369900D01*
X156655600Y-113467000D02*
X154651800Y-113467000D01*
X145090500Y-105369900D02*
X151328400Y-105369900D01*
%TO.N,COL_5*%
X145942100Y-108392400D02*
X144773000Y-107223300D01*
X152577900Y-111272000D02*
X151289400Y-109983500D01*
X154477500Y-114117000D02*
X152577900Y-112217400D01*
X151289400Y-109042300D02*
X150639500Y-108392400D01*
X150639500Y-108392400D02*
X145942100Y-108392400D01*
X151289400Y-109983500D02*
X151289400Y-109042300D01*
X144773000Y-107223300D02*
X144590500Y-107223300D01*
X144590500Y-106296600D02*
X144590500Y-107223300D01*
X152577900Y-112217400D02*
X152577900Y-111272000D01*
X156655600Y-114117000D02*
X154477500Y-114117000D01*
%TO.N,COL_6*%
X144090500Y-105369900D02*
X144165300Y-105295100D01*
X154370800Y-114767000D02*
X154262300Y-114658500D01*
X156655600Y-114767000D02*
X154370800Y-114767000D01*
X144165300Y-105295100D02*
X144165300Y-105068900D01*
X144090500Y-106296600D02*
X144090500Y-105369900D01*
%TO.N,COL_7*%
X143590500Y-107269400D02*
X143803900Y-107482800D01*
X143590500Y-106296600D02*
X143590500Y-107269400D01*
X154075200Y-115417000D02*
X156655600Y-115417000D01*
%TO.N,COL_8*%
X143052100Y-107477000D02*
X143052100Y-107261700D01*
X149655600Y-115417000D02*
X151113400Y-115417000D01*
X143052100Y-107261700D02*
X143090500Y-107223300D01*
X143090500Y-106296600D02*
X143090500Y-107223300D01*
%TO.N,COL_9*%
X150530610Y-114742020D02*
X151005610Y-114267020D01*
X143480610Y-105242020D02*
X142980610Y-105242020D01*
X142605610Y-105617020D02*
X142605610Y-106267020D01*
X142980610Y-105242020D02*
X142605610Y-105617020D01*
X149680610Y-114742020D02*
X150530610Y-114742020D01*
%TO.N,COL_10*%
X142080610Y-105192020D02*
X142080610Y-106267020D01*
X149630610Y-114142020D02*
X147230610Y-114142020D01*
X147230610Y-114142020D02*
X145580610Y-115792020D01*
%TO.N,COL_11*%
X149655600Y-113467000D02*
X147055300Y-113467000D01*
X147055300Y-113467000D02*
X147053700Y-113468600D01*
X141590500Y-106296600D02*
X141590500Y-107223300D01*
X142053400Y-107223300D02*
X143053000Y-108222900D01*
X143053000Y-108222900D02*
X145017300Y-108222900D01*
X141590500Y-107223300D02*
X142053400Y-107223300D01*
%TO.N,COL_12*%
X149600400Y-112872200D02*
X149655600Y-112817000D01*
X146876900Y-112872200D02*
X149600400Y-112872200D01*
X146015600Y-113733500D02*
X146876900Y-112872200D01*
X146015600Y-114573700D02*
X146015600Y-113733500D01*
X140874400Y-105369900D02*
X140644500Y-105140000D01*
X141090500Y-105369900D02*
X140874400Y-105369900D01*
X141090500Y-106296600D02*
X141090500Y-105369900D01*
X145584300Y-115005000D02*
X146015600Y-114573700D01*
%TO.N,COL_13*%
X140790300Y-107223300D02*
X140590500Y-107223300D01*
X141823900Y-108256900D02*
X140790300Y-107223300D01*
X147172000Y-112167000D02*
X146993500Y-112345500D01*
X149655600Y-112167000D02*
X147172000Y-112167000D01*
X140590500Y-106296600D02*
X140590500Y-107223300D01*
X142342100Y-108256900D02*
X141823900Y-108256900D01*
%TO.N,COL_14*%
X145434300Y-113151300D02*
X146766900Y-111818700D01*
X148185100Y-111517000D02*
X149655600Y-111517000D01*
X140090500Y-107292700D02*
X140551800Y-107754000D01*
X145434200Y-114250100D02*
X145434300Y-114250100D01*
X140090500Y-106296600D02*
X140090500Y-107292700D01*
X145431100Y-114253200D02*
X145434200Y-114250100D01*
X146766900Y-111818700D02*
X147883400Y-111818700D01*
X145434300Y-114250100D02*
X145434300Y-113151300D01*
X147883400Y-111818700D02*
X148185100Y-111517000D01*
%TO.N,COL_15*%
X149630610Y-110842020D02*
X148205610Y-110842020D01*
X139605610Y-105392020D02*
X139605610Y-106267020D01*
X139930610Y-105067020D02*
X139605610Y-105392020D01*
X148205610Y-110842020D02*
X147805610Y-110442020D01*
X147805610Y-110442020D02*
X146055610Y-110442020D01*
%TO.N,COL_16*%
X139090500Y-106296600D02*
X139090500Y-107223300D01*
X139090500Y-107464200D02*
X139090500Y-107223300D01*
X143978200Y-110960200D02*
X142586500Y-110960200D01*
X142586500Y-110960200D02*
X139090500Y-107464200D01*
%TO.N,COL_17*%
X143964300Y-111624100D02*
X143978200Y-111610200D01*
X140204200Y-111624100D02*
X143964300Y-111624100D01*
X138590500Y-106296600D02*
X138590500Y-105369900D01*
X138590500Y-105369900D02*
X137824300Y-105369900D01*
X137824300Y-105369900D02*
X137593200Y-105138800D01*
%TO.N,COL_18*%
X140889600Y-112260200D02*
X143978200Y-112260200D01*
X138113400Y-107223300D02*
X138338600Y-107448500D01*
X138090500Y-106296600D02*
X138090500Y-107223300D01*
X138090500Y-107223300D02*
X138113400Y-107223300D01*
%TO.N,COL_19*%
X137590500Y-107452500D02*
X138254900Y-108116900D01*
X143978200Y-112910200D02*
X141668100Y-112910200D01*
X137590500Y-106296600D02*
X137590500Y-107452500D01*
X138254900Y-108116900D02*
X138754000Y-108116900D01*
%TO.N,COL_20*%
X141389300Y-113560200D02*
X139298300Y-111469200D01*
X139298300Y-111469200D02*
X139298300Y-111007200D01*
X136831000Y-105121700D02*
X137090500Y-105381200D01*
X137090500Y-105381200D02*
X137090500Y-106296600D01*
X143978200Y-113560200D02*
X141389300Y-113560200D01*
%TO.N,COL_21*%
X141553150Y-114185160D02*
X138178150Y-110810160D01*
X143953150Y-114185160D02*
X141553150Y-114185160D01*
X138178150Y-110810160D02*
X138178150Y-108535160D01*
X136603150Y-106960160D02*
X136603150Y-106310160D01*
X138178150Y-108535160D02*
X136603150Y-106960160D01*
%TO.N,COL_22*%
X136090500Y-105369900D02*
X136060700Y-105369900D01*
X143978200Y-114860200D02*
X140849500Y-114860200D01*
X136060700Y-105369900D02*
X135834200Y-105143400D01*
X136090500Y-106296600D02*
X136090500Y-105369900D01*
%TO.N,COL_23*%
X135590500Y-107223300D02*
X135916900Y-107223300D01*
X135590500Y-106296600D02*
X135590500Y-107223300D01*
X135916900Y-107223300D02*
X136455300Y-107761700D01*
X139994100Y-115510200D02*
X143978200Y-115510200D01*
%TO.N,COL_24*%
X134869100Y-108022300D02*
X135090500Y-107800900D01*
X135090500Y-107800900D02*
X135090500Y-106296600D01*
X136978200Y-115510200D02*
X138436000Y-115510200D01*
%TO.N,COL_25*%
X135588100Y-114860200D02*
X133607700Y-112879800D01*
X134590500Y-107556100D02*
X133550800Y-108595800D01*
X136978200Y-114860200D02*
X135588100Y-114860200D01*
X133550800Y-108595800D02*
X133550800Y-109028000D01*
X133607700Y-112879800D02*
X133607700Y-112380200D01*
X134590500Y-106296600D02*
X134590500Y-107556100D01*
%TO.N,COL_26*%
X134425400Y-105369900D02*
X134655600Y-105139700D01*
X137119200Y-114069200D02*
X138446000Y-114069200D01*
X134090499Y-106296600D02*
X134090499Y-105369900D01*
X136978200Y-114210200D02*
X137119200Y-114069200D01*
X134090499Y-105369900D02*
X134425400Y-105369900D01*
%TO.N,COL_27*%
X133590499Y-106296600D02*
X133590499Y-107474100D01*
X136978200Y-113560200D02*
X135126800Y-113560200D01*
X133590499Y-107474100D02*
X133591700Y-107475300D01*
%TO.N,COL_28*%
X133015700Y-109316900D02*
X133015700Y-107306200D01*
X134393600Y-110582600D02*
X134281400Y-110582600D01*
X133015700Y-107306200D02*
X133090499Y-107231400D01*
X133090499Y-107231400D02*
X133090499Y-106296600D01*
X136978200Y-112910200D02*
X134595200Y-112910200D01*
X134281400Y-110582600D02*
X133015700Y-109316900D01*
%TO.N,COL_29*%
X136978200Y-112260200D02*
X138436200Y-112260200D01*
X133575500Y-104384900D02*
X134660700Y-104384900D01*
X132590499Y-106296600D02*
X132590499Y-105369900D01*
X132590499Y-105369900D02*
X133575500Y-104384900D01*
%TO.N,COL_30*%
X132090499Y-107223300D02*
X131988200Y-107325600D01*
X131988200Y-107325600D02*
X131988200Y-107601500D01*
X136978200Y-111610200D02*
X132984800Y-111610200D01*
X132090499Y-106296600D02*
X132090499Y-107223300D01*
%TO.N,COL_31*%
X134175500Y-111109300D02*
X131432300Y-108366100D01*
X136829100Y-111109300D02*
X134175500Y-111109300D01*
X131590500Y-106296600D02*
X131590500Y-107223300D01*
X131432300Y-108366100D02*
X131432300Y-107381500D01*
X131432300Y-107381500D02*
X131590500Y-107223300D01*
X136978200Y-110960200D02*
X136829100Y-111109300D01*
%TO.N,SWDIO*%
X127305930Y-124101210D02*
X127305930Y-124901210D01*
X127305930Y-124901210D02*
X127355930Y-124951210D01*
X120905930Y-128951210D02*
X117205930Y-128951210D01*
X124455930Y-125401210D02*
X120905930Y-128951210D01*
%TO.N,SWCLK*%
X126905930Y-124101210D02*
X126855930Y-124151210D01*
X114905930Y-133801210D02*
X113555930Y-135151210D01*
D67*
X126855930Y-124151210D02*
X126855930Y-125651210D01*
X126855930Y-125651210D02*
X127105930Y-125901210D01*
X120705930Y-133801210D02*
X114905930Y-133801210D01*
%TO.N,USB_D_N*%
D68*
X127280930Y-117226210D02*
X127280930Y-117551210D01*
X127605930Y-117876210D02*
X127605930Y-118001210D01*
X127280930Y-117551210D02*
X127605930Y-117876210D01*
X129805929Y-116601210D02*
X130405930Y-116001210D01*
%TO.N,USBC_D_N*%
X134867510Y-128731460D02*
X134867510Y-128031460D01*
X136525000Y-125437500D02*
X136100000Y-125012500D01*
X135867510Y-128731460D02*
X135867510Y-125781460D01*
X135867510Y-125781460D02*
X136367510Y-125281460D01*
X134867510Y-128031460D02*
X135117510Y-127781460D01*
X135117510Y-127781460D02*
X135867510Y-127781460D01*
X131925000Y-116512500D02*
X131449999Y-116037500D01*
X138225000Y-125437500D02*
X136575000Y-125437500D01*
%TO.N,USB_ILIM_HI*%
X141605930Y-134501210D02*
X145005930Y-134501210D01*
X122414000Y-118251200D02*
X122217200Y-118448000D01*
X119401600Y-133222800D02*
X119292000Y-133332400D01*
X129405930Y-134201210D02*
X130105930Y-134901210D01*
X119661500Y-118173900D02*
X118451300Y-118173900D01*
X145160000Y-134350000D02*
X145000000Y-134510000D01*
X119305930Y-133301210D02*
X122005930Y-133301210D01*
X119935600Y-118448000D02*
X119661500Y-118173900D01*
X141205930Y-134901210D02*
X141605930Y-134501210D01*
X122217200Y-118448000D02*
X119935600Y-118448000D01*
X130105930Y-134901210D02*
X141205930Y-134901210D01*
X148387500Y-134350000D02*
X145160000Y-134350000D01*
X123055900Y-118251200D02*
X122414000Y-118251200D01*
%TO.N,ROW_LATCH_MCU*%
X119731400Y-118749300D02*
X122957800Y-118749300D01*
X119480700Y-119000000D02*
X119731400Y-118749300D01*
X122957800Y-118749300D02*
X123055900Y-118651200D01*
%TO.N,ROW_CLK_MCU*%
X120701200Y-119051200D02*
X123055900Y-119051200D01*
D67*
X119552400Y-120200000D02*
X120701200Y-119051200D01*
%TO.N,ROW_DATA*%
D68*
X123055900Y-119451200D02*
X122081600Y-119451200D01*
X121982000Y-119351600D02*
X120783800Y-119351600D01*
X120254300Y-119881100D02*
X120254300Y-120160200D01*
X122081600Y-119451200D02*
X121982000Y-119351600D01*
X120783800Y-119351600D02*
X120254300Y-119881100D01*
X119536400Y-115399800D02*
X119536400Y-116138800D01*
X119536400Y-116138800D02*
X119084800Y-116590400D01*
X120254300Y-120160200D02*
X120254200Y-120160200D01*
%TO.N,MUX_S0*%
X123805610Y-120217020D02*
X123055610Y-120217020D01*
X153478150Y-110210160D02*
X155378150Y-110210160D01*
X145828150Y-109960160D02*
X148078150Y-109960160D01*
X145478150Y-110310160D02*
X145828150Y-109960160D01*
X143978150Y-110310160D02*
X145478150Y-110310160D01*
X156655610Y-110217020D02*
X155405610Y-110217020D01*
%TO.N,MUX_S1*%
X120733700Y-111013000D02*
X120077900Y-111013000D01*
X122055100Y-109691600D02*
X120733700Y-111013000D01*
X153228600Y-109258700D02*
X152721300Y-109258700D01*
X152721300Y-109258700D02*
X152721300Y-105939800D01*
X152721300Y-105939800D02*
X151179800Y-104398300D01*
X153536900Y-109567000D02*
X153228600Y-109258700D01*
X147510700Y-109412500D02*
X147263000Y-109660200D01*
X156655600Y-109567000D02*
X153536900Y-109567000D01*
X135548100Y-104398300D02*
X134931300Y-103781500D01*
X123055900Y-120651200D02*
X120700900Y-120651200D01*
X151179800Y-104398300D02*
X135548100Y-104398300D01*
X131703100Y-103781500D02*
X125793000Y-109691600D01*
X134931300Y-103781500D02*
X131703100Y-103781500D01*
X125793000Y-109691600D02*
X122055100Y-109691600D01*
X147263000Y-109660200D02*
X143978200Y-109660200D01*
%TO.N,MUX_S2*%
X151684400Y-115732800D02*
X150477600Y-116939600D01*
X150455100Y-109567000D02*
X150962700Y-110074600D01*
X150962700Y-110074600D02*
X150962700Y-110615100D01*
X150477600Y-116939600D02*
X150477600Y-119186700D01*
X135516500Y-109660800D02*
X136977600Y-109660800D01*
X124106000Y-121059100D02*
X123063800Y-121059100D01*
X149655600Y-109567000D02*
X150455100Y-109567000D01*
X123063800Y-121059100D02*
X123055900Y-121051200D01*
X150962700Y-110615100D02*
X151684400Y-111336800D01*
X151684400Y-111336800D02*
X151684400Y-115732800D01*
X150477600Y-116939600D02*
X148235200Y-116939600D01*
X136977600Y-109660800D02*
X136978200Y-109660200D01*
%TO.N,MUX_S3*%
X136978200Y-109010200D02*
X134320200Y-109010200D01*
X122411100Y-121451200D02*
X122216900Y-121257000D01*
X123055900Y-121451200D02*
X122411100Y-121451200D01*
X148279000Y-108976200D02*
X149596400Y-108976200D01*
X122380700Y-110016600D02*
X120620700Y-111776600D01*
D67*
X132334700Y-110016600D02*
X122380700Y-110016600D01*
D68*
X149596400Y-108976200D02*
X149655600Y-108917000D01*
%TO.N,BUS_DI*%
X122445900Y-122251200D02*
X122133200Y-122563900D01*
X106022700Y-124673800D02*
X106022700Y-124949700D01*
X118795100Y-123345800D02*
X118795100Y-123345900D01*
X120795500Y-122313600D02*
X119827300Y-122313600D01*
X107350600Y-123345900D02*
X106022700Y-124673800D01*
X122133200Y-122563900D02*
X121045800Y-122563900D01*
D67*
X118795100Y-123345900D02*
X107350600Y-123345900D01*
D68*
X119827300Y-122313600D02*
X118795100Y-123345800D01*
X123055900Y-122251200D02*
X122445900Y-122251200D01*
X121045800Y-122563900D02*
X120795500Y-122313600D01*
%TO.N,BUS_RO*%
X109832700Y-124949700D02*
X111620100Y-126737100D01*
X123055900Y-122651200D02*
X124277400Y-122651200D01*
D67*
X111620100Y-126737100D02*
X122401700Y-126737100D01*
D68*
X124277400Y-122651200D02*
X124684400Y-123058200D01*
%TO.N,BUS_DE*%
X119762750Y-122774720D02*
X119912750Y-122624720D01*
D67*
X119762750Y-122799720D02*
X119762750Y-122774720D01*
D68*
X119912750Y-122624720D02*
X120737750Y-122624720D01*
D67*
X109662750Y-123599720D02*
X118637750Y-123599720D01*
X118937750Y-123624720D02*
X119762750Y-122799720D01*
X121037750Y-122924720D02*
X122937750Y-122924720D01*
D68*
X107317750Y-124924720D02*
X108542750Y-124924720D01*
D67*
X118637750Y-123599720D02*
X118662750Y-123624720D01*
D68*
X120737750Y-122624720D02*
X121037750Y-122924720D01*
D67*
X118662750Y-123624720D02*
X118937750Y-123624720D01*
X108587750Y-124674720D02*
X109662750Y-123599720D01*
X122937750Y-122924720D02*
X123037750Y-123024720D01*
D68*
X108587750Y-124924720D02*
X108587750Y-124674720D01*
%TO.N,SYNC_OUT*%
X116554700Y-125188500D02*
X117548600Y-126182400D01*
X123270800Y-123666100D02*
X123055900Y-123451200D01*
X122384900Y-125619000D02*
X122636700Y-125619000D01*
X117548600Y-126182400D02*
X121821500Y-126182400D01*
X122636700Y-125619000D02*
X123270800Y-124984900D01*
D67*
X123270800Y-124984900D02*
X123270800Y-123666100D01*
D68*
X121821500Y-126182400D02*
X122384900Y-125619000D01*
%TO.N,SYNC_DE*%
D67*
X114014700Y-126414300D02*
X114082600Y-126482200D01*
X114082600Y-126482200D02*
X122016600Y-126482200D01*
X122016600Y-126482200D02*
X122552900Y-125945900D01*
D68*
X124105900Y-124578800D02*
X124105900Y-124101200D01*
X114014700Y-126414300D02*
X114014700Y-125188500D01*
X111400000Y-125398200D02*
X111400000Y-125110000D01*
X114014700Y-126414300D02*
X113997000Y-126432000D01*
X113997000Y-126432000D02*
X112433800Y-126432000D01*
X112433800Y-126432000D02*
X111400000Y-125398200D01*
X122552900Y-125945900D02*
X122738800Y-125945900D01*
X122738800Y-125945900D02*
X124105900Y-124578800D01*
%TO.N,XIN*%
X122707300Y-130980200D02*
X122507100Y-130780000D01*
X123229600Y-128905900D02*
X124796400Y-127339100D01*
X124800000Y-130980200D02*
X122707300Y-130980200D01*
X122507100Y-130780000D02*
X123229600Y-130057500D01*
X124796400Y-127339100D02*
X124999900Y-127339100D01*
X125774400Y-126564600D02*
X125774400Y-124169700D01*
X125774400Y-124169700D02*
X125705900Y-124101200D01*
X124999900Y-127339100D02*
X125774400Y-126564600D01*
X123229600Y-130057500D02*
X123229600Y-128905900D01*
%TO.N,XOUT_MCU*%
D67*
X126046700Y-124160400D02*
X126046700Y-126752500D01*
D68*
X126105900Y-124101200D02*
X126046700Y-124160400D01*
X125640000Y-127159200D02*
X125640000Y-127900000D01*
D67*
X126046700Y-126752500D02*
X125640000Y-127159200D01*
%TO.N,USB_CC_OUT1*%
D68*
X133699649Y-126014860D02*
X134099650Y-125614860D01*
X134851120Y-125290380D02*
X134426120Y-125290380D01*
X128799650Y-124239860D02*
X128899650Y-124139860D01*
X133274650Y-126014860D02*
X133699649Y-126014860D01*
X134426120Y-125290380D02*
X134126117Y-125590380D01*
X128799650Y-124839860D02*
X128799650Y-124239860D01*
%TO.N,USB_CC_OUT2*%
X134882900Y-126096400D02*
X135400200Y-125579100D01*
X134742300Y-126096400D02*
X134882900Y-126096400D01*
X135030930Y-123551210D02*
X135405930Y-123926210D01*
D67*
X135405930Y-123926210D02*
X135405930Y-124626210D01*
X132155930Y-123626210D02*
X132230930Y-123551210D01*
D68*
X135214800Y-124780400D02*
X134248500Y-124780400D01*
X133389000Y-125639900D02*
X133249699Y-125639900D01*
D67*
X135400200Y-125579100D02*
X135400200Y-124965800D01*
X130130930Y-123626210D02*
X132155930Y-123626210D01*
X132230930Y-123551210D02*
X135030930Y-123551210D01*
X135400200Y-124965800D02*
X135214800Y-124780400D01*
D68*
X134248500Y-124780400D02*
X133389000Y-125639900D01*
X129980930Y-123476210D02*
X130130930Y-123626210D01*
X135405930Y-124626210D02*
X135230930Y-124801210D01*
%TO.N,ADDR0*%
X121405930Y-134601210D02*
X121405930Y-135676210D01*
X129930928Y-123076210D02*
X129380930Y-123076210D01*
X122705930Y-133301210D02*
X121405930Y-134601210D01*
X129380930Y-123076210D02*
X129155930Y-123301210D01*
X121424510Y-135676460D02*
X121424510Y-135201460D01*
%TO.N,ADDR1*%
X124715510Y-135650340D02*
X124715510Y-133300340D01*
X129215510Y-122625340D02*
X129940508Y-122625340D01*
%TO.N,ADDR2*%
X130756509Y-123151460D02*
X130756509Y-122726460D01*
X128006509Y-135676460D02*
X128006509Y-133301459D01*
X130756509Y-122726460D02*
X130306510Y-122276460D01*
X130306510Y-122276460D02*
X129981508Y-122276460D01*
%TO.N,ADC_B*%
D67*
X129955999Y-118651000D02*
X130600000Y-118651000D01*
X130729000Y-118780000D02*
X134400000Y-118780000D01*
X135190000Y-118980000D02*
X135490000Y-119280000D01*
X130600000Y-118651000D02*
X130729000Y-118780000D01*
X134500000Y-118980000D02*
X135190000Y-118980000D01*
%TO.N,VREG_AVDD*%
D68*
X129425000Y-115945000D02*
X129324999Y-116045000D01*
X130765089Y-112030550D02*
X131490090Y-112755550D01*
X130824999Y-114752110D02*
X129675000Y-115902100D01*
D67*
X131490090Y-112755550D02*
X131490090Y-114080550D01*
D68*
X129675000Y-115902100D02*
X129475000Y-115902100D01*
X131490090Y-114080550D02*
X130865090Y-114705550D01*
X130440090Y-112030550D02*
X130765089Y-112030550D01*
X129324999Y-116045000D02*
X129324999Y-117170000D01*
%TO.N,VREG_LX*%
D71*
X127150000Y-113625000D02*
X128525000Y-115000000D01*
X128525000Y-115000000D02*
X128525000Y-117175000D01*
X126875000Y-113625000D02*
X127150000Y-113625000D01*
%TO.N,USB_D_P*%
D68*
X128405000Y-113525000D02*
X128405000Y-114150000D01*
X126930000Y-117925000D02*
X126930000Y-117225000D01*
%TO.N,BOOTSEL*%
D67*
X122335000Y-115675000D02*
X123685000Y-117025000D01*
D68*
X123685000Y-117025000D02*
X123685000Y-117175000D01*
D67*
X122935000Y-110475000D02*
X122935000Y-114225000D01*
D68*
X126235000Y-105625000D02*
X122935000Y-108925000D01*
X122935000Y-114225000D02*
X122335000Y-114825000D01*
D67*
X122335000Y-114825000D02*
X122335000Y-115675000D01*
%TO.N,+5V*%
D69*
X146310700Y-122174800D02*
X143235900Y-119100000D01*
X104058300Y-119221700D02*
X103540000Y-119740000D01*
X107562200Y-121121700D02*
X107611100Y-121170600D01*
X154938400Y-134703300D02*
X155750800Y-133890898D01*
X155750800Y-133890898D02*
X155750800Y-127347700D01*
X151488200Y-134251200D02*
X151940300Y-134703300D01*
X107611100Y-121170600D02*
X109195700Y-121170600D01*
X140410000Y-119100000D02*
X139475000Y-118165000D01*
X139475000Y-118165000D02*
X139128000Y-118165000D01*
X103269500Y-120010500D02*
X103540000Y-119740000D01*
X155750800Y-127347700D02*
X150577900Y-122174800D01*
X103867800Y-120067800D02*
X103540000Y-119740000D01*
X150577900Y-122174800D02*
X146310700Y-122174800D01*
X107027400Y-121121700D02*
X105973500Y-120067800D01*
X151940300Y-134703300D02*
X154938400Y-134703300D01*
X102367300Y-120010500D02*
X103269500Y-120010500D01*
X105287200Y-119221700D02*
X104058300Y-119221700D01*
X109195700Y-121170600D02*
X109462300Y-120904000D01*
X105973500Y-120067800D02*
X103867800Y-120067800D01*
X109462300Y-120904000D02*
X110427600Y-120904000D01*
X143235900Y-119100000D02*
X140410000Y-119100000D01*
X107562200Y-121121700D02*
X107027400Y-121121700D01*
%TO.N,GAIN_B*%
D68*
X153731400Y-121607200D02*
X154866900Y-120471700D01*
X153731400Y-122311600D02*
X153731400Y-121607200D01*
X157223000Y-122082600D02*
X158207300Y-121098300D01*
X158207300Y-121098300D02*
X158305100Y-121098300D01*
X157580700Y-120471700D02*
X158207300Y-121098300D01*
X157223000Y-122300300D02*
X157223000Y-122082600D01*
X154866900Y-120471700D02*
X157580700Y-120471700D01*
%TO.N,AMP_B*%
X153410000Y-124430000D02*
X153410000Y-124455000D01*
X154410000Y-123005000D02*
X154410000Y-122330000D01*
X153435000Y-124480000D02*
X153460000Y-124480000D01*
X154760000Y-123355000D02*
X154410000Y-123005000D01*
X138335000Y-118830000D02*
X138585000Y-118580000D01*
X155360000Y-123630000D02*
X155085000Y-123355000D01*
X138585000Y-117930000D02*
X138885000Y-117630000D01*
X138885000Y-117630000D02*
X142885000Y-117630000D01*
X142885000Y-117630000D02*
X147035000Y-121780000D01*
X155160000Y-124555000D02*
X155360000Y-124355000D01*
X155085000Y-123355000D02*
X154760000Y-123355000D01*
X136535000Y-119255000D02*
X136960000Y-118830000D01*
X153435000Y-124455000D02*
X153435000Y-124480000D01*
X136960000Y-118830000D02*
X138335000Y-118830000D01*
X154906350Y-121111620D02*
X157256350Y-121111620D01*
X154406350Y-122286620D02*
X154406350Y-121611620D01*
X150760000Y-121780000D02*
X153410000Y-124430000D01*
X153535000Y-124555000D02*
X155160000Y-124555000D01*
X154406350Y-121611620D02*
X154906350Y-121111620D01*
X138585000Y-118580000D02*
X138585000Y-117930000D01*
X155360000Y-124355000D02*
X155360000Y-123630000D01*
X147035000Y-121780000D02*
X150760000Y-121780000D01*
X153410000Y-124455000D02*
X153435000Y-124455000D01*
X153460000Y-124480000D02*
X153535000Y-124555000D01*
%TO.N,USB_CC1*%
D67*
X134317510Y-128156460D02*
X133967510Y-127806460D01*
D68*
X129942510Y-128431457D02*
X129417510Y-127906460D01*
D67*
X131217510Y-125881460D02*
X131442510Y-125656460D01*
D68*
X133967510Y-127806460D02*
X133117510Y-127806460D01*
D67*
X131217510Y-126106460D02*
X131217510Y-125881460D01*
D68*
X133117510Y-127806460D02*
X132717510Y-127406460D01*
X130667510Y-128431457D02*
X129942510Y-128431457D01*
X129417510Y-127231460D02*
X130042510Y-126606460D01*
X131442510Y-125656460D02*
X131767507Y-125656460D01*
D67*
X130042510Y-126606460D02*
X130717510Y-126606460D01*
D68*
X134317510Y-128731460D02*
X134317510Y-128156460D01*
D67*
X129417510Y-127906460D02*
X129417510Y-127231460D01*
X130717510Y-126606460D02*
X131217510Y-126106460D01*
%TO.N,USB_CC2*%
D68*
X137317510Y-128731460D02*
X137317510Y-128056459D01*
X137317510Y-128056459D02*
X136867510Y-127606460D01*
D67*
X131317510Y-127356460D02*
X131317510Y-126506460D01*
D68*
X131317510Y-126506460D02*
X131767509Y-126056460D01*
%TO.N,USB_VBUS_DET*%
D67*
X130245200Y-127964600D02*
X131417900Y-127964600D01*
D68*
X132324700Y-127057800D02*
X132324700Y-126664900D01*
X131417900Y-127964600D02*
X132324700Y-127057800D01*
X129848800Y-127568200D02*
X130245200Y-127964600D01*
%TO.N,FB*%
X105278900Y-121130000D02*
X105278900Y-122332700D01*
X105278900Y-122332700D02*
X104347900Y-123263700D01*
X104347900Y-123263700D02*
X104277800Y-123263700D01*
X105287200Y-121121700D02*
X105278900Y-121130000D01*
%TO.N,ROW_CLK*%
X117405600Y-119073200D02*
X118532400Y-120200000D01*
X112095500Y-114835800D02*
X112095500Y-115492100D01*
X102653200Y-113592200D02*
X101113500Y-115131900D01*
X112095500Y-116116900D02*
X114468700Y-118490100D01*
X108252600Y-114436300D02*
X111696000Y-114436300D01*
X111696000Y-114436300D02*
X112095500Y-114835800D01*
X114468700Y-118490100D02*
X117405600Y-118490100D01*
X101113500Y-115131900D02*
X101113500Y-115791400D01*
X107329600Y-114497000D02*
X108191900Y-114497000D01*
X106963100Y-114863500D02*
X107329600Y-114497000D01*
X106604500Y-115892700D02*
X106604500Y-115222100D01*
X112095500Y-115492100D02*
X112095500Y-116116900D01*
X108191900Y-114497000D02*
X108252600Y-114436300D01*
X117622900Y-118272800D02*
X117405600Y-118490100D01*
X106963100Y-114863500D02*
X106742500Y-114643000D01*
X106604500Y-115222100D02*
X106963100Y-114863500D01*
X117586400Y-115399800D02*
X117622900Y-115436300D01*
X117405600Y-118490100D02*
X117405600Y-119073200D01*
X107181500Y-113592200D02*
X102653200Y-113592200D01*
X117622900Y-115436300D02*
X117622900Y-118272800D01*
%TO.N,SENSE_A*%
X157271200Y-116067000D02*
X158494200Y-117290000D01*
X156655600Y-116067000D02*
X157271200Y-116067000D01*
X155063600Y-116067000D02*
X153731400Y-117399200D01*
X153731400Y-117399200D02*
X153731400Y-118086600D01*
X156655600Y-116067000D02*
X155063600Y-116067000D01*
%TO.N,ROW_9*%
X115706900Y-107176100D02*
X115706900Y-106296600D01*
X115632100Y-109480500D02*
X115632100Y-107250900D01*
X115632100Y-107250900D02*
X115706900Y-107176100D01*
X115345500Y-109767100D02*
X115632100Y-109480500D01*
%TO.N,ROW_10*%
X115280200Y-106369900D02*
X115280200Y-108555700D01*
X114695500Y-109140400D02*
X114695500Y-109767100D01*
X115280200Y-108555700D02*
X114695500Y-109140400D01*
X115206900Y-106296600D02*
X115280200Y-106369900D01*
%TO.N,ROW_11*%
X114056860Y-109171640D02*
X114056860Y-109746640D01*
X114681860Y-106321640D02*
X114681860Y-108546640D01*
X114681860Y-108546640D02*
X114056860Y-109171640D01*
%TO.N,ROW_12*%
X114172500Y-108344400D02*
X113395500Y-109121400D01*
X113395500Y-109121400D02*
X113395500Y-109767100D01*
X114206900Y-106296600D02*
X114172500Y-106331000D01*
X114172500Y-106331000D02*
X114172500Y-108344400D01*
%TO.N,ROW_13*%
X113706900Y-106296600D02*
X113706900Y-108101400D01*
X113706900Y-108101400D02*
X112745500Y-109062800D01*
X112745500Y-109062800D02*
X112745500Y-109767100D01*
%TO.N,ROW_14*%
X113206900Y-106296600D02*
X113206900Y-107938500D01*
X113206900Y-107938500D02*
X112095500Y-109049900D01*
X112095500Y-109049900D02*
X112095500Y-109767100D01*
%TO.N,ROW_15*%
X112706900Y-107895300D02*
X112706900Y-106296600D01*
X112173400Y-108428800D02*
X112706900Y-107895300D01*
X111445500Y-109137200D02*
X112153900Y-108428800D01*
X111445500Y-109767100D02*
X111445500Y-109137200D01*
X112153900Y-108428800D02*
X112173400Y-108428800D01*
%TO.N,SR_CHAIN_2*%
X108955200Y-114864600D02*
X110168000Y-114864600D01*
X108554500Y-115892700D02*
X108554500Y-115265300D01*
X110168000Y-114864600D02*
X110795500Y-115492100D01*
X108554500Y-115265300D02*
X108955200Y-114864600D01*
%TO.N,ROW_LATCH*%
X106738400Y-113893900D02*
X106963400Y-114118900D01*
X117924600Y-117955800D02*
X117924600Y-118392000D01*
X118236400Y-117644000D02*
X117924600Y-117955800D01*
X112037900Y-114118900D02*
X112745500Y-114826500D01*
X118236400Y-118703700D02*
X118236400Y-118775700D01*
X107254500Y-115892700D02*
X107254500Y-117097200D01*
X106963400Y-114118900D02*
X107973700Y-114118900D01*
X107254500Y-117097200D02*
X107303800Y-117146500D01*
X107973700Y-113970300D02*
X107973700Y-114118900D01*
X118236400Y-115399800D02*
X118236400Y-117644000D01*
X117924600Y-118392000D02*
X118236300Y-118703700D01*
X112745500Y-114826500D02*
X112745500Y-115492100D01*
X101763500Y-114936300D02*
X102805900Y-113893900D01*
X118236400Y-118775700D02*
X118460700Y-119000000D01*
X118236400Y-114778900D02*
X117595300Y-114137800D01*
X102805900Y-113893900D02*
X106738400Y-113893900D01*
X118236300Y-118703700D02*
X118236400Y-118703700D01*
X117595300Y-114137800D02*
X117261400Y-114137800D01*
X118236400Y-115399800D02*
X118236400Y-114778900D01*
X101763500Y-115791400D02*
X101763500Y-114936300D01*
X107973700Y-114118900D02*
X112037900Y-114118900D01*
%TO.N,SR_CHAIN_1*%
X116261430Y-114749810D02*
X115211430Y-113699810D01*
X115211430Y-113699810D02*
X114736430Y-113699810D01*
X114061430Y-114374810D02*
X114061430Y-115474810D01*
X116261430Y-115374810D02*
X116261430Y-114749810D01*
X114736430Y-113699810D02*
X114061430Y-114374810D01*
%TO.N,ROW_8*%
X116206900Y-107423200D02*
X116158900Y-107471200D01*
X114695500Y-114528300D02*
X114979500Y-114244300D01*
X114695500Y-115492100D02*
X114695500Y-114528300D01*
X116206900Y-106296600D02*
X116206900Y-107423200D01*
%TO.N,SENSE_B*%
X144584900Y-116766900D02*
X147313000Y-116766900D01*
X152857700Y-122311600D02*
X153081400Y-122311600D01*
X147313000Y-116766900D02*
X152857700Y-122311600D01*
X153081400Y-123246200D02*
X153835200Y-124000000D01*
X153081400Y-122311600D02*
X153081400Y-123246200D01*
X143978200Y-116160200D02*
X144584900Y-116766900D01*
%TO.N,USBC_D_P*%
X136575000Y-126512500D02*
X138225000Y-126512500D01*
X129475000Y-113525000D02*
X129650000Y-113525000D01*
X136317510Y-129481460D02*
X136317510Y-128781460D01*
X136367510Y-126706460D02*
X136517510Y-126556460D01*
X137100000Y-126600000D02*
X136475000Y-126600000D01*
X135367510Y-129481460D02*
X135617510Y-129731460D01*
X135617510Y-129731460D02*
X136067510Y-129731460D01*
X129650000Y-113525000D02*
X130000000Y-113875000D01*
X136067510Y-129731460D02*
X136317510Y-129481460D01*
X135367510Y-128781460D02*
X135367510Y-129481460D01*
X136367510Y-128731460D02*
X136367510Y-126706460D01*
%TO.N,SW_NODE*%
D69*
X107946710Y-118855990D02*
X107596710Y-119205990D01*
X111471710Y-119480990D02*
X110846710Y-118855990D01*
X110846710Y-118855990D02*
X107946710Y-118855990D01*
%TO.N,XOUT*%
D68*
X127000000Y-129280200D02*
X126660000Y-128940200D01*
X127000000Y-129280200D02*
X128350200Y-129280200D01*
X126660000Y-128940200D02*
X126660000Y-127900000D01*
X128350200Y-129280200D02*
X128520000Y-129450000D01*
%TO.N,BOOTSEL_SW*%
X124924600Y-105284600D02*
X125240000Y-105600000D01*
X124197900Y-103048500D02*
X124924600Y-103048500D01*
X124924600Y-103048500D02*
X124924600Y-105284600D01*
%TO.N,ROW_25*%
X104731860Y-111021640D02*
X104381860Y-110671640D01*
X107681860Y-107446640D02*
X106831860Y-108296640D01*
X107681860Y-106321640D02*
X107681860Y-107446640D01*
X104381860Y-110671640D02*
X104381860Y-110096640D01*
%TO.N,ROW_26*%
X103713500Y-109418200D02*
X103713500Y-110066400D01*
X107206900Y-107223300D02*
X105532200Y-108898000D01*
X104233700Y-108898000D02*
X103713500Y-109418200D01*
X107206900Y-106296600D02*
X107206900Y-107223300D01*
X105532200Y-108898000D02*
X104233700Y-108898000D01*
%TO.N,ROW_27*%
X106706900Y-107223300D02*
X105483900Y-108446300D01*
X105483900Y-108446300D02*
X104057000Y-108446300D01*
X106706900Y-106296600D02*
X106706900Y-107223300D01*
X103063500Y-109439800D02*
X103063500Y-110066400D01*
X104057000Y-108446300D02*
X103063500Y-109439800D01*
%TO.N,ROW_28*%
X105285600Y-108144600D02*
X103674700Y-108144600D01*
X102413500Y-109405800D02*
X102413500Y-110066400D01*
X106206900Y-107223300D02*
X105285600Y-108144600D01*
X106206900Y-106296600D02*
X106206900Y-107223300D01*
X103674700Y-108144600D02*
X102413500Y-109405800D01*
%TO.N,ROW_29*%
X103339100Y-107842900D02*
X101763500Y-109418500D01*
X105706900Y-107223300D02*
X105087300Y-107842900D01*
X101763500Y-109418500D02*
X101763500Y-110066400D01*
X105087300Y-107842900D02*
X103339100Y-107842900D01*
X105706900Y-106296600D02*
X105706900Y-107223300D01*
%TO.N,ROW_30*%
X105206900Y-106296600D02*
X105206900Y-107223300D01*
X102998100Y-107541200D02*
X101113500Y-109425800D01*
X105206900Y-107223300D02*
X104889000Y-107541200D01*
X104889000Y-107541200D02*
X102998100Y-107541200D01*
X101113500Y-109425800D02*
X101113500Y-110066400D01*
%TO.N,ROW_31*%
X104706900Y-107223300D02*
X102671200Y-107223300D01*
X100463500Y-109431000D02*
X100463500Y-110066400D01*
X104706900Y-106296600D02*
X104706900Y-107223300D01*
X102671200Y-107223300D02*
X100463500Y-109431000D01*
%TO.N,SR_CHAIN_3*%
X105304500Y-115892700D02*
X105304500Y-115141200D01*
X105304500Y-115141200D02*
X104885700Y-114722400D01*
X103194800Y-114550300D02*
X103063500Y-114681600D01*
X103063500Y-114681600D02*
X103063500Y-115791400D01*
%TO.N,ROW_24*%
X103713500Y-115083500D02*
X104601400Y-114195600D01*
X104601400Y-114195600D02*
X105497200Y-114195600D01*
X107994900Y-105369900D02*
X108206900Y-105369900D01*
X103713500Y-115791400D02*
X103713500Y-115083500D01*
X107766100Y-105141100D02*
X107994900Y-105369900D01*
X105497200Y-114195600D02*
X105722300Y-114420700D01*
X108206900Y-106296600D02*
X108206900Y-105369900D01*
%TO.N,ROW_0*%
X120956500Y-107223300D02*
X120206900Y-107223300D01*
X120206900Y-106296600D02*
X120206900Y-107223300D01*
X120186400Y-115399800D02*
X120186400Y-114142000D01*
%TO.N,ROW_1*%
X120243000Y-108605700D02*
X120466100Y-108605700D01*
X120836400Y-108976000D02*
X120836400Y-109674800D01*
X119706900Y-108069600D02*
X120243000Y-108605700D01*
X120466100Y-108605700D02*
X120836400Y-108976000D01*
X119706900Y-106296600D02*
X119706900Y-108069600D01*
%TO.N,ROW_2*%
X119206900Y-107996300D02*
X120186400Y-108975800D01*
X119206900Y-106296600D02*
X119206900Y-107996300D01*
X120186400Y-108975800D02*
X120186400Y-109674800D01*
%TO.N,ROW_3*%
X118706900Y-107974300D02*
X119536400Y-108803800D01*
X119536400Y-108803800D02*
X119536400Y-109674800D01*
X118706900Y-106296600D02*
X118706900Y-107974300D01*
%TO.N,ROW_4*%
X118206900Y-106296600D02*
X118206900Y-107901100D01*
X118886400Y-108580600D02*
X118886400Y-109674800D01*
X118206900Y-107901100D02*
X118886400Y-108580600D01*
%TO.N,ROW_5*%
X117706900Y-107886000D02*
X117706900Y-106296600D01*
X118236400Y-109674800D02*
X118236400Y-108415500D01*
X118236400Y-108415500D02*
X117706900Y-107886000D01*
%TO.N,ROW_6*%
X117206900Y-108586900D02*
X117206900Y-106296600D01*
X117586400Y-109674800D02*
X117586400Y-108966400D01*
X117586400Y-108966400D02*
X117206900Y-108586900D01*
%TO.N,ROW_7*%
X116936400Y-109674800D02*
X116936400Y-109053900D01*
X116936400Y-109053900D02*
X116706900Y-108824400D01*
X116706900Y-108824400D02*
X116706900Y-106296600D01*
%TO.N,ROW_16*%
X112206900Y-107524400D02*
X112175400Y-107555900D01*
X109204500Y-115892700D02*
X109204500Y-116571100D01*
X112206900Y-106296600D02*
X112206900Y-107524400D01*
X109204500Y-116571100D02*
X108629600Y-117146000D01*
%TO.N,ROW_17*%
X111706900Y-106296600D02*
X111706900Y-107248500D01*
X109854500Y-109100900D02*
X109854500Y-110167700D01*
X111706900Y-107248500D02*
X109854500Y-109100900D01*
%TO.N,ROW_18*%
X111206900Y-107223300D02*
X109204500Y-109225700D01*
X111206900Y-106296600D02*
X111206900Y-107223300D01*
X109204500Y-109225700D02*
X109204500Y-110167700D01*
%TO.N,ROW_19*%
X110706900Y-106296600D02*
X110706900Y-107223300D01*
X110706900Y-107223300D02*
X108554500Y-109375700D01*
X108554500Y-109375700D02*
X108554500Y-110167700D01*
%TO.N,ROW_20*%
X110206900Y-106296600D02*
X110206900Y-107230000D01*
X107904500Y-109532400D02*
X107904500Y-110167700D01*
X110206900Y-107230000D02*
X107904500Y-109532400D01*
%TO.N,ROW_21*%
X109706900Y-107223300D02*
X109525500Y-107223300D01*
X109706900Y-106296600D02*
X109706900Y-107223300D01*
X107254500Y-109494300D02*
X107254500Y-110167700D01*
X109525500Y-107223300D02*
X107254500Y-109494300D01*
%TO.N,ROW_22*%
X109206900Y-106296600D02*
X109206900Y-105369900D01*
X106604500Y-110167700D02*
X106604500Y-111199600D01*
X108978100Y-105141100D02*
X109206900Y-105369900D01*
X106604500Y-111199600D02*
X106820900Y-111416000D01*
%TO.N,ROW_23*%
X105954500Y-110167700D02*
X105954500Y-109532300D01*
X105954500Y-109532300D02*
X106689800Y-108797000D01*
X106689800Y-108797000D02*
X107133200Y-108797000D01*
X107133200Y-108797000D02*
X108706900Y-107223300D01*
X108706900Y-106296600D02*
X108706900Y-107223300D01*
%TD*%
M02*
