G04 Layer: TopPasteMaskLayer*
G04 EasyEDA v6.5.51, 2026-04-03 00:14:50*
G04 a4df5f88f84b4b4294378062c1a919bc,c4e0d51c5373445db20b00b071a3b2d8,10*
G04 Gerber Generator version 0.2*
G04 Scale: 100 percent, Rotated: No, Reflected: No *
G04 Dimensions in millimeters *
G04 leading zeros omitted , absolute positions ,4 integer and 5 decimal *
%FSLAX45Y45*%
%MOMM*%

%ADD10R,0.3000X1.3000*%
%ADD11R,2.4000X3.0000*%
%ADD12R,0.3000X1.2000*%
%ADD13R,1.5000X1.8000*%
%ADD14O,0.602005X2.231009*%
%ADD15O,2.388006X0.573989*%
%ADD16O,0.0155X0.573989*%

%LPD*%
G36*
X3767785Y10079939D02*
G01*
X3757777Y10069931D01*
X3757777Y10033812D01*
X3767785Y10023805D01*
X3788867Y10023805D01*
X3798874Y10013797D01*
X3798874Y9976002D01*
X3788867Y9965994D01*
X3767785Y9965994D01*
X3757777Y9955987D01*
X3757777Y9919868D01*
X3767785Y9909860D01*
X3868572Y9909860D01*
X3878529Y9919868D01*
X3878529Y10069931D01*
X3868572Y10079939D01*
G37*
G36*
X3472027Y10079939D02*
G01*
X3462070Y10069931D01*
X3462070Y9919868D01*
X3472027Y9909860D01*
X3572814Y9909860D01*
X3582822Y9919868D01*
X3582822Y9955987D01*
X3572814Y9965994D01*
X3551732Y9965994D01*
X3541725Y9976002D01*
X3541725Y10013797D01*
X3551732Y10023805D01*
X3572814Y10023805D01*
X3582822Y10033812D01*
X3582822Y10069931D01*
X3572814Y10079939D01*
G37*
D10*
G01*
X5924905Y12997865D03*
G01*
X5874893Y12997865D03*
G01*
X5824905Y12997865D03*
G01*
X5774893Y12997865D03*
G01*
X5724906Y12997865D03*
G01*
X5674893Y12997865D03*
G01*
X5624906Y12997865D03*
G01*
X5574918Y12997865D03*
G01*
X5524906Y12997865D03*
G01*
X5474919Y12997865D03*
G01*
X5424906Y12997865D03*
G01*
X5374893Y12997865D03*
G01*
X5324906Y12997865D03*
G01*
X5274894Y12997865D03*
G01*
X5224906Y12997865D03*
G01*
X5174894Y12997865D03*
D11*
G01*
X4977384Y13240359D03*
G01*
X6122390Y13232866D03*
D12*
G01*
X4445304Y13060299D03*
G01*
X4395317Y13060299D03*
G01*
X4345304Y13060299D03*
G01*
X4295317Y13060299D03*
G01*
X4245305Y13060299D03*
G01*
X4195318Y13060299D03*
G01*
X4145305Y13060299D03*
G01*
X4095318Y13060299D03*
G01*
X4045305Y13060299D03*
G01*
X3995318Y13060299D03*
G01*
X3945305Y13060299D03*
G01*
X3895318Y13060299D03*
G01*
X3845306Y13060299D03*
G01*
X3795318Y13060299D03*
G01*
X3745306Y13060299D03*
G01*
X3695318Y13060299D03*
G01*
X3645306Y13060299D03*
G01*
X3595319Y13060299D03*
G01*
X3545306Y13060299D03*
G01*
X3495319Y13060299D03*
G01*
X3445306Y13060299D03*
G01*
X3395319Y13060299D03*
G01*
X3345306Y13060299D03*
G01*
X3295319Y13060299D03*
G01*
X3245307Y13060299D03*
G01*
X3195294Y13060299D03*
G01*
X3145307Y13060299D03*
G01*
X3095294Y13060299D03*
G01*
X3045307Y13060299D03*
G01*
X2995295Y13060299D03*
G01*
X2945307Y13060299D03*
G01*
X2895295Y13060299D03*
D13*
G01*
X2680309Y13330301D03*
G01*
X4660315Y13330301D03*
D14*
G01*
X4902200Y12218339D03*
G01*
X4775200Y12218339D03*
G01*
X4648200Y12218339D03*
G01*
X4521200Y12218339D03*
G01*
X4394200Y12218339D03*
G01*
X4267200Y12218339D03*
G01*
X4140200Y12218339D03*
G01*
X4013200Y12218339D03*
G01*
X4902200Y11505260D03*
G01*
X4775200Y11505260D03*
G01*
X4648200Y11505260D03*
G01*
X4521200Y11505260D03*
G01*
X4394200Y11505260D03*
G01*
X4267200Y11505260D03*
G01*
X4140200Y11505260D03*
G01*
X4013200Y11505260D03*
G01*
X3644900Y11100739D03*
G01*
X3517900Y11100739D03*
G01*
X3390900Y11100739D03*
G01*
X3263900Y11100739D03*
G01*
X3136900Y11100739D03*
G01*
X3009900Y11100739D03*
G01*
X2882900Y11100739D03*
G01*
X2755900Y11100739D03*
G01*
X3644900Y10387660D03*
G01*
X3517900Y10387660D03*
G01*
X3390900Y10387660D03*
G01*
X3263900Y10387660D03*
G01*
X3136900Y10387660D03*
G01*
X3009900Y10387660D03*
G01*
X2882900Y10387660D03*
G01*
X2755900Y10387660D03*
G01*
X2070100Y10643539D03*
G01*
X1943100Y10643539D03*
G01*
X1816100Y10643539D03*
G01*
X1689100Y10643539D03*
G01*
X1562100Y10643539D03*
G01*
X1435100Y10643539D03*
G01*
X1308100Y10643539D03*
G01*
X1181100Y10643539D03*
G01*
X2070100Y9930460D03*
G01*
X1943100Y9930460D03*
G01*
X1816100Y9930460D03*
G01*
X1689100Y9930460D03*
G01*
X1562100Y9930460D03*
G01*
X1435100Y9930460D03*
G01*
X1308100Y9930460D03*
G01*
X1181100Y9930460D03*
G01*
X2032000Y12218339D03*
G01*
X1905000Y12218339D03*
G01*
X1778000Y12218339D03*
G01*
X1651000Y12218339D03*
G01*
X1524000Y12218339D03*
G01*
X1397000Y12218339D03*
G01*
X1270000Y12218339D03*
G01*
X1143000Y12218339D03*
G01*
X2032000Y11505260D03*
G01*
X1905000Y11505260D03*
G01*
X1778000Y11505260D03*
G01*
X1651000Y11505260D03*
G01*
X1524000Y11505260D03*
G01*
X1397000Y11505260D03*
G01*
X1270000Y11505260D03*
G01*
X1143000Y11505260D03*
D15*
G01*
X6049695Y9855200D03*
G01*
X6049695Y9982200D03*
G01*
X6049695Y10109200D03*
G01*
X6049695Y10236200D03*
G01*
X6049695Y10363200D03*
G01*
X6049695Y10490200D03*
G01*
X6049695Y10617200D03*
G01*
X6049695Y10744200D03*
G01*
X6049695Y10871200D03*
G01*
X6049695Y10998200D03*
G01*
X6049695Y11125200D03*
G01*
X6049695Y11252200D03*
G01*
X5100904Y9855200D03*
G01*
X5100904Y9982200D03*
G01*
X5100904Y10109200D03*
G01*
X5100904Y10236200D03*
G01*
X5100904Y10363200D03*
G01*
X5100904Y10490200D03*
G01*
X5100904Y10617200D03*
G01*
X5100904Y10744200D03*
G01*
X5100904Y10871200D03*
G01*
X5100904Y10998200D03*
G01*
X5100904Y11125200D03*
G01*
X5100904Y11252200D03*
M02*
