G04 Layer: BottomLayer*
G04 EasyEDA v6.5.51, 2026-04-03 00:14:50*
G04 a4df5f88f84b4b4294378062c1a919bc,c4e0d51c5373445db20b00b071a3b2d8,10*
G04 Gerber Generator version 0.2*
G04 Scale: 100 percent, Rotated: No, Reflected: No *
G04 Dimensions in millimeters *
G04 leading zeros omitted , absolute positions ,4 integer and 5 decimal *
%FSLAX45Y45*%
%MOMM*%

%ADD10C,0.2540*%
%ADD11R,1.6000X1.6000*%
%ADD12C,1.6000*%
%ADD13C,0.6096*%
%ADD14C,0.0144*%

%LPD*%
G36*
X2923540Y10606227D02*
G01*
X2919679Y10606989D01*
X2916377Y10609224D01*
X2613304Y10912246D01*
X2611120Y10915548D01*
X2610358Y10919460D01*
X2610358Y11325910D01*
X2609545Y11333937D01*
X2607360Y11341150D01*
X2603804Y11347805D01*
X2598674Y11354054D01*
X2434285Y11518442D01*
X2431897Y11522202D01*
X2431389Y11526621D01*
X2432761Y11530838D01*
X2435809Y11534038D01*
X2439416Y11536426D01*
X2449830Y11545570D01*
X2458974Y11555984D01*
X2466644Y11567515D01*
X2472791Y11579910D01*
X2477211Y11593017D01*
X2479903Y11606631D01*
X2480818Y11620449D01*
X2479903Y11634266D01*
X2477211Y11647830D01*
X2472791Y11660987D01*
X2466644Y11673382D01*
X2458974Y11684914D01*
X2449830Y11695328D01*
X2439416Y11704472D01*
X2427884Y11712143D01*
X2415489Y11718290D01*
X2402332Y11722709D01*
X2388768Y11725402D01*
X2374950Y11726316D01*
X2361133Y11725402D01*
X2347518Y11722709D01*
X2334412Y11718290D01*
X2322017Y11712143D01*
X2310485Y11704472D01*
X2300071Y11695328D01*
X2290927Y11684914D01*
X2283256Y11673382D01*
X2277110Y11660987D01*
X2272690Y11647830D01*
X2269947Y11634266D01*
X2269083Y11620449D01*
X2269947Y11606631D01*
X2272690Y11593017D01*
X2277110Y11579910D01*
X2283256Y11567515D01*
X2290927Y11555984D01*
X2297074Y11548973D01*
X2299055Y11545620D01*
X2299614Y11541810D01*
X2298700Y11538051D01*
X2296464Y11534902D01*
X2293264Y11532819D01*
X2289454Y11532108D01*
X1506118Y11532108D01*
X1502206Y11532870D01*
X1498904Y11535105D01*
X952500Y12081510D01*
X950366Y12084608D01*
X949553Y12088215D01*
X950061Y12091924D01*
X953160Y12101118D01*
X955852Y12114682D01*
X956767Y12128500D01*
X955852Y12142317D01*
X953160Y12155881D01*
X948740Y12169038D01*
X942594Y12181433D01*
X934923Y12192965D01*
X925779Y12203379D01*
X915365Y12212523D01*
X903833Y12220194D01*
X891438Y12226340D01*
X878281Y12230760D01*
X864717Y12233503D01*
X850900Y12234367D01*
X837082Y12233503D01*
X823468Y12230760D01*
X810361Y12226340D01*
X797966Y12220194D01*
X793140Y12218111D01*
X788822Y12218365D01*
X784961Y12220448D01*
X782320Y12223902D01*
X781405Y12228169D01*
X781405Y12282932D01*
X782320Y12287199D01*
X784961Y12290653D01*
X788822Y12292685D01*
X793140Y12292990D01*
X798017Y12290856D01*
X810412Y12284710D01*
X823518Y12280290D01*
X837133Y12277547D01*
X850950Y12276683D01*
X864768Y12277547D01*
X878332Y12280290D01*
X891489Y12284710D01*
X903884Y12290856D01*
X915416Y12298527D01*
X925830Y12307671D01*
X934974Y12318085D01*
X942644Y12329617D01*
X948791Y12342012D01*
X953211Y12355169D01*
X955903Y12368733D01*
X956818Y12382550D01*
X955903Y12396368D01*
X953211Y12409932D01*
X950112Y12419076D01*
X949604Y12422835D01*
X950417Y12426442D01*
X952550Y12429540D01*
X1747469Y13224459D01*
X1750771Y13226643D01*
X1754632Y13227405D01*
X2284679Y13227405D01*
X2288438Y13226694D01*
X2291689Y13224611D01*
X2293924Y13221462D01*
X2294839Y13217702D01*
X2294229Y13213892D01*
X2292299Y13210590D01*
X2290876Y13208965D01*
X2283206Y13197433D01*
X2279954Y13190829D01*
X2328570Y13190829D01*
X2328570Y13217245D01*
X2329332Y13221157D01*
X2331516Y13224459D01*
X2334818Y13226643D01*
X2338730Y13227405D01*
X2411069Y13227405D01*
X2414981Y13226643D01*
X2418283Y13224459D01*
X2420467Y13221157D01*
X2421229Y13217245D01*
X2421229Y13190829D01*
X2469845Y13190829D01*
X2466594Y13197433D01*
X2458923Y13208965D01*
X2457500Y13210590D01*
X2455570Y13213892D01*
X2454960Y13217702D01*
X2455875Y13221462D01*
X2458110Y13224611D01*
X2461361Y13226694D01*
X2465120Y13227405D01*
X2957626Y13227405D01*
X2961589Y13226643D01*
X2964942Y13224306D01*
X2967075Y13220903D01*
X2967786Y13216890D01*
X2966821Y13212978D01*
X2964332Y13207644D01*
X2961792Y13198195D01*
X2961081Y13190169D01*
X2960166Y13186765D01*
X2958185Y13183869D01*
X2789428Y13015163D01*
X2786278Y13012978D01*
X2782570Y13012165D01*
X2778810Y13012775D01*
X2775508Y13014756D01*
X2773172Y13017754D01*
X2772156Y13021462D01*
X2771698Y13026288D01*
X2769158Y13035788D01*
X2765044Y13044678D01*
X2759405Y13052704D01*
X2752445Y13059663D01*
X2744419Y13065302D01*
X2735478Y13069468D01*
X2726029Y13072008D01*
X2716225Y13072871D01*
X2706420Y13072008D01*
X2696972Y13069468D01*
X2688031Y13065302D01*
X2680004Y13059663D01*
X2678430Y13058089D01*
X2675128Y13055904D01*
X2671216Y13055092D01*
X2459482Y13055092D01*
X2455672Y13055854D01*
X2452420Y13057936D01*
X2450236Y13061086D01*
X2449322Y13064845D01*
X2449880Y13068655D01*
X2451811Y13071957D01*
X2458923Y13080034D01*
X2466594Y13091566D01*
X2469845Y13098170D01*
X2421229Y13098170D01*
X2421229Y13065252D01*
X2420467Y13061391D01*
X2418283Y13058089D01*
X2414981Y13055904D01*
X2411069Y13055092D01*
X2338730Y13055092D01*
X2334818Y13055904D01*
X2331516Y13058089D01*
X2329332Y13061391D01*
X2328570Y13065252D01*
X2328570Y13098170D01*
X2279954Y13098170D01*
X2283206Y13091566D01*
X2290876Y13080034D01*
X2297988Y13071957D01*
X2299919Y13068655D01*
X2300478Y13064845D01*
X2299563Y13061086D01*
X2297379Y13057936D01*
X2294128Y13055854D01*
X2290318Y13055092D01*
X2180386Y13055092D01*
X2177186Y13055650D01*
X2174290Y13057124D01*
X2172055Y13059460D01*
X2165908Y13068198D01*
X2159000Y13075158D01*
X2150922Y13080796D01*
X2142032Y13084911D01*
X2132533Y13087451D01*
X2122779Y13088315D01*
X2112975Y13087451D01*
X2103475Y13084911D01*
X2094585Y13080796D01*
X2086559Y13075158D01*
X2079599Y13068198D01*
X2073960Y13060171D01*
X2069795Y13051231D01*
X2067255Y13041782D01*
X2066391Y13031978D01*
X2067255Y13022173D01*
X2069795Y13012724D01*
X2073960Y13003784D01*
X2079599Y12995757D01*
X2086559Y12988798D01*
X2094585Y12983159D01*
X2103475Y12979044D01*
X2112975Y12976504D01*
X2122779Y12975640D01*
X2132533Y12976504D01*
X2136546Y12977571D01*
X2139188Y12977876D01*
X2288590Y12977876D01*
X2292400Y12977164D01*
X2295601Y12975082D01*
X2297836Y12971932D01*
X2298750Y12968173D01*
X2298192Y12964363D01*
X2296210Y12961061D01*
X2290876Y12954965D01*
X2283206Y12943433D01*
X2277059Y12931038D01*
X2272639Y12917881D01*
X2269896Y12904317D01*
X2269032Y12890500D01*
X2269896Y12876682D01*
X2272639Y12863068D01*
X2277059Y12849961D01*
X2283206Y12837566D01*
X2290876Y12826034D01*
X2297074Y12818973D01*
X2299055Y12815620D01*
X2299614Y12811810D01*
X2298700Y12808051D01*
X2296464Y12804902D01*
X2293213Y12802819D01*
X2289454Y12802108D01*
X2096922Y12802108D01*
X2088896Y12801295D01*
X2081682Y12799110D01*
X2075027Y12795554D01*
X2068779Y12790424D01*
X1728673Y12450318D01*
X1725777Y12448336D01*
X1722374Y12447422D01*
X1714347Y12446711D01*
X1704898Y12444171D01*
X1695957Y12440005D01*
X1687931Y12434366D01*
X1680972Y12427407D01*
X1675333Y12419380D01*
X1671218Y12410490D01*
X1668678Y12400991D01*
X1667814Y12391186D01*
X1668678Y12381433D01*
X1671218Y12371933D01*
X1675333Y12363043D01*
X1680972Y12354966D01*
X1687931Y12348057D01*
X1695957Y12342418D01*
X1704898Y12338253D01*
X1714347Y12335713D01*
X1724152Y12334849D01*
X1733956Y12335713D01*
X1743405Y12338253D01*
X1752346Y12342418D01*
X1760372Y12348057D01*
X1767332Y12354966D01*
X1772970Y12363043D01*
X1777085Y12371933D01*
X1779625Y12381433D01*
X1780336Y12389459D01*
X1781251Y12392863D01*
X1783283Y12395758D01*
X1839417Y12451892D01*
X1842566Y12454026D01*
X1846325Y12454839D01*
X1850085Y12454229D01*
X1853336Y12452299D01*
X1855673Y12449251D01*
X1856739Y12445593D01*
X1857044Y12441732D01*
X1859584Y12432284D01*
X1863750Y12423343D01*
X1869389Y12415316D01*
X1876348Y12408357D01*
X1884375Y12402718D01*
X1893265Y12398603D01*
X1902764Y12396063D01*
X1912569Y12395200D01*
X1922322Y12396063D01*
X1931822Y12398603D01*
X1940712Y12402718D01*
X1948789Y12408357D01*
X1955698Y12415316D01*
X1961337Y12423343D01*
X1965502Y12432284D01*
X1968042Y12441732D01*
X1968754Y12449759D01*
X1969668Y12453162D01*
X1971700Y12456058D01*
X1993950Y12478359D01*
X1997252Y12480544D01*
X2001164Y12481306D01*
X2300376Y12481306D01*
X2304338Y12480493D01*
X2307691Y12478207D01*
X2309876Y12474752D01*
X2310485Y12470739D01*
X2309520Y12466777D01*
X2307031Y12463526D01*
X2300020Y12457379D01*
X2290876Y12446965D01*
X2283206Y12435433D01*
X2277059Y12423038D01*
X2272639Y12409881D01*
X2269896Y12396317D01*
X2269032Y12382500D01*
X2269896Y12368682D01*
X2272639Y12355068D01*
X2277059Y12341961D01*
X2283206Y12329566D01*
X2290876Y12318034D01*
X2300020Y12307620D01*
X2310434Y12298476D01*
X2321966Y12290806D01*
X2334361Y12284659D01*
X2347468Y12280239D01*
X2361082Y12277496D01*
X2374900Y12276632D01*
X2388717Y12277496D01*
X2402281Y12280239D01*
X2415438Y12284659D01*
X2427833Y12290806D01*
X2439365Y12298476D01*
X2449779Y12307620D01*
X2458923Y12318034D01*
X2466594Y12329566D01*
X2472740Y12341961D01*
X2477160Y12355068D01*
X2479852Y12368682D01*
X2480767Y12382500D01*
X2479852Y12396317D01*
X2477160Y12409881D01*
X2472740Y12423038D01*
X2466594Y12435433D01*
X2458923Y12446965D01*
X2449779Y12457379D01*
X2442718Y12463526D01*
X2440279Y12466777D01*
X2439314Y12470739D01*
X2439924Y12474752D01*
X2442108Y12478207D01*
X2445461Y12480493D01*
X2449423Y12481306D01*
X2504795Y12481306D01*
X2508707Y12480544D01*
X2512009Y12478359D01*
X2513584Y12476784D01*
X2521610Y12471146D01*
X2530551Y12466980D01*
X2540000Y12464440D01*
X2549804Y12463576D01*
X2559608Y12464440D01*
X2569057Y12466980D01*
X2573782Y12469164D01*
X2577185Y12470079D01*
X2580690Y12469774D01*
X2583891Y12468301D01*
X2586380Y12465812D01*
X2590495Y12459868D01*
X2597454Y12452959D01*
X2605481Y12447320D01*
X2614422Y12443155D01*
X2623870Y12440615D01*
X2633675Y12439751D01*
X2643479Y12440615D01*
X2652928Y12443155D01*
X2661869Y12447320D01*
X2669895Y12452959D01*
X2671470Y12454534D01*
X2674772Y12456718D01*
X2678684Y12457480D01*
X2716123Y12457480D01*
X2724150Y12458293D01*
X2731363Y12460478D01*
X2738018Y12464034D01*
X2744266Y12469164D01*
X3134055Y12858953D01*
X3139186Y12865201D01*
X3142742Y12871856D01*
X3144926Y12879070D01*
X3145739Y12887096D01*
X3145739Y13123113D01*
X3146501Y13126974D01*
X3148685Y13130276D01*
X3150260Y13131850D01*
X3155899Y13139928D01*
X3160064Y13148818D01*
X3162604Y13158317D01*
X3163468Y13168071D01*
X3162604Y13177875D01*
X3160064Y13187375D01*
X3155899Y13196265D01*
X3150260Y13204291D01*
X3144520Y13210082D01*
X3142284Y13213384D01*
X3141522Y13217245D01*
X3142284Y13221157D01*
X3144520Y13224459D01*
X3147822Y13226643D01*
X3151682Y13227405D01*
X3319373Y13227405D01*
X3323285Y13226643D01*
X3326587Y13224459D01*
X3328771Y13221157D01*
X3329533Y13217245D01*
X3328771Y13213384D01*
X3326587Y13210082D01*
X3322523Y13206018D01*
X3316884Y13197992D01*
X3312769Y13189102D01*
X3310229Y13179602D01*
X3309365Y13169798D01*
X3310229Y13160044D01*
X3312769Y13150545D01*
X3316884Y13141655D01*
X3322523Y13133578D01*
X3324098Y13132003D01*
X3326333Y13128701D01*
X3327095Y13124840D01*
X3327095Y12926618D01*
X3326434Y12923012D01*
X3324504Y12919862D01*
X3321558Y12917576D01*
X3318001Y12916509D01*
X3314293Y12916814D01*
X3305098Y12919303D01*
X3295294Y12920167D01*
X3285490Y12919303D01*
X3276041Y12916763D01*
X3267100Y12912598D01*
X3259074Y12906959D01*
X3252114Y12899999D01*
X3246475Y12891973D01*
X3242360Y12883083D01*
X3239820Y12873583D01*
X3238957Y12863779D01*
X3239820Y12854025D01*
X3242360Y12844526D01*
X3246475Y12835636D01*
X3252114Y12827558D01*
X3253689Y12825984D01*
X3255924Y12822682D01*
X3256686Y12818821D01*
X3256686Y11424513D01*
X3257499Y11416487D01*
X3259683Y11409222D01*
X3263239Y11402568D01*
X3268370Y11396370D01*
X3521557Y11143132D01*
X3527755Y11138052D01*
X3534460Y11134496D01*
X3541674Y11132261D01*
X3549700Y11131499D01*
X3588461Y11131499D01*
X3596487Y11132261D01*
X3603701Y11134496D01*
X3610356Y11138052D01*
X3616604Y11143132D01*
X4167682Y11694210D01*
X4170984Y11696446D01*
X4174845Y11697208D01*
X4192422Y11697208D01*
X4196384Y11696395D01*
X4199737Y11694109D01*
X4201922Y11690705D01*
X4202582Y11686692D01*
X4198772Y11672620D01*
X4198061Y11664594D01*
X4197146Y11661190D01*
X4195165Y11658295D01*
X3146044Y10609224D01*
X3142742Y10606989D01*
X3138830Y10606227D01*
G37*

%LPC*%
G36*
X2374900Y11768632D02*
G01*
X2388717Y11769496D01*
X2402281Y11772239D01*
X2415438Y11776659D01*
X2427833Y11782806D01*
X2439365Y11790476D01*
X2449779Y11799620D01*
X2458923Y11810034D01*
X2466594Y11821566D01*
X2472740Y11833961D01*
X2477160Y11847068D01*
X2479852Y11860682D01*
X2480767Y11874500D01*
X2479852Y11888317D01*
X2477160Y11901881D01*
X2472740Y11915038D01*
X2466594Y11927433D01*
X2458923Y11938965D01*
X2449779Y11949379D01*
X2439365Y11958523D01*
X2427833Y11966194D01*
X2415438Y11972340D01*
X2402281Y11976760D01*
X2388717Y11979452D01*
X2374900Y11980367D01*
X2361082Y11979452D01*
X2347468Y11976760D01*
X2334361Y11972340D01*
X2321966Y11966194D01*
X2310434Y11958523D01*
X2300020Y11949379D01*
X2290876Y11938965D01*
X2283206Y11927433D01*
X2277059Y11915038D01*
X2272639Y11901881D01*
X2269896Y11888317D01*
X2269032Y11874500D01*
X2269896Y11860682D01*
X2272639Y11847068D01*
X2277059Y11833961D01*
X2283206Y11821566D01*
X2290876Y11810034D01*
X2300020Y11799620D01*
X2310434Y11790476D01*
X2321966Y11782806D01*
X2334361Y11776659D01*
X2347468Y11772239D01*
X2361082Y11769496D01*
G37*
G36*
X2374950Y12022582D02*
G01*
X2388768Y12023445D01*
X2402332Y12026188D01*
X2415489Y12030608D01*
X2427884Y12036755D01*
X2439416Y12044426D01*
X2449830Y12053570D01*
X2458974Y12063984D01*
X2466644Y12075515D01*
X2472791Y12087910D01*
X2477211Y12101017D01*
X2479903Y12114631D01*
X2480818Y12128449D01*
X2479903Y12142266D01*
X2477211Y12155830D01*
X2472791Y12168987D01*
X2466644Y12181382D01*
X2458974Y12192914D01*
X2449830Y12203328D01*
X2439416Y12212472D01*
X2427884Y12220143D01*
X2415489Y12226290D01*
X2402332Y12230709D01*
X2388768Y12233402D01*
X2374950Y12234316D01*
X2361133Y12233402D01*
X2347518Y12230709D01*
X2334412Y12226290D01*
X2322017Y12220143D01*
X2310485Y12212472D01*
X2300071Y12203328D01*
X2290927Y12192914D01*
X2283256Y12181382D01*
X2277110Y12168987D01*
X2272690Y12155830D01*
X2269947Y12142266D01*
X2269083Y12128449D01*
X2269947Y12114631D01*
X2272690Y12101017D01*
X2277110Y12087910D01*
X2283256Y12075515D01*
X2290927Y12063984D01*
X2300071Y12053570D01*
X2310485Y12044426D01*
X2322017Y12036755D01*
X2334412Y12030608D01*
X2347518Y12026188D01*
X2361133Y12023445D01*
G37*

%LPD*%
G36*
X736092Y9639808D02*
G01*
X732180Y9640570D01*
X728929Y9642805D01*
X726694Y9646056D01*
X725932Y9649968D01*
X725932Y9825990D01*
X726795Y9830155D01*
X729335Y9833559D01*
X732993Y9835692D01*
X737209Y9836099D01*
X741273Y9834778D01*
X744372Y9831882D01*
X746048Y9827971D01*
X748639Y9815118D01*
X753059Y9801961D01*
X759206Y9789566D01*
X766876Y9778034D01*
X776020Y9767620D01*
X786434Y9758476D01*
X797966Y9750806D01*
X810361Y9744659D01*
X823518Y9740239D01*
X837082Y9737496D01*
X850900Y9736632D01*
X864717Y9737496D01*
X878281Y9740239D01*
X891438Y9744659D01*
X903833Y9750806D01*
X915365Y9758476D01*
X925779Y9767620D01*
X934923Y9778034D01*
X942594Y9789566D01*
X948740Y9801961D01*
X953160Y9815118D01*
X955903Y9828682D01*
X956767Y9842500D01*
X955903Y9856317D01*
X953160Y9869881D01*
X948740Y9883038D01*
X942594Y9895433D01*
X934923Y9906965D01*
X925779Y9917379D01*
X915365Y9926523D01*
X903833Y9934194D01*
X891438Y9940340D01*
X878281Y9944760D01*
X864717Y9947503D01*
X850900Y9948367D01*
X837082Y9947503D01*
X823518Y9944760D01*
X810361Y9940340D01*
X797966Y9934194D01*
X786434Y9926523D01*
X776020Y9917379D01*
X766876Y9906965D01*
X759206Y9895433D01*
X753059Y9883038D01*
X748639Y9869881D01*
X746048Y9857028D01*
X744372Y9853117D01*
X741273Y9850221D01*
X737209Y9848900D01*
X732993Y9849307D01*
X729335Y9851440D01*
X726795Y9854844D01*
X725932Y9859010D01*
X725932Y10079990D01*
X726795Y10084155D01*
X729335Y10087559D01*
X732993Y10089692D01*
X737209Y10090099D01*
X741273Y10088727D01*
X744372Y10085882D01*
X746048Y10081971D01*
X748639Y10069118D01*
X753059Y10055961D01*
X759206Y10043566D01*
X766876Y10032034D01*
X776020Y10021620D01*
X786434Y10012476D01*
X797966Y10004806D01*
X810361Y9998659D01*
X823468Y9994239D01*
X837082Y9991547D01*
X850900Y9990632D01*
X864717Y9991547D01*
X878281Y9994239D01*
X891438Y9998659D01*
X903833Y10004806D01*
X915365Y10012476D01*
X925779Y10021620D01*
X934923Y10032034D01*
X942594Y10043566D01*
X948740Y10055961D01*
X953160Y10069118D01*
X955852Y10082682D01*
X956767Y10096500D01*
X955852Y10110317D01*
X953160Y10123932D01*
X948740Y10137038D01*
X942594Y10149433D01*
X934923Y10160965D01*
X925779Y10171379D01*
X915365Y10180523D01*
X903833Y10188194D01*
X891438Y10194340D01*
X878281Y10198760D01*
X864717Y10201503D01*
X850900Y10202367D01*
X837082Y10201503D01*
X823468Y10198760D01*
X810361Y10194340D01*
X797966Y10188194D01*
X786434Y10180523D01*
X776020Y10171379D01*
X766876Y10160965D01*
X759206Y10149433D01*
X753059Y10137038D01*
X748639Y10123932D01*
X746048Y10111028D01*
X744372Y10107117D01*
X741273Y10104272D01*
X737209Y10102900D01*
X732993Y10103307D01*
X729335Y10105440D01*
X726795Y10108844D01*
X725932Y10113010D01*
X725932Y10334294D01*
X726795Y10338460D01*
X729335Y10341864D01*
X732993Y10343946D01*
X737209Y10344404D01*
X741273Y10343032D01*
X744372Y10340187D01*
X746048Y10336276D01*
X748690Y10323169D01*
X753110Y10310012D01*
X759256Y10297617D01*
X766927Y10286085D01*
X776071Y10275671D01*
X786485Y10266527D01*
X798017Y10258856D01*
X810412Y10252710D01*
X823518Y10248290D01*
X837133Y10245547D01*
X850950Y10244683D01*
X864768Y10245547D01*
X878332Y10248290D01*
X891489Y10252710D01*
X903884Y10258856D01*
X915416Y10266527D01*
X925830Y10275671D01*
X934974Y10286085D01*
X942644Y10297617D01*
X948791Y10310012D01*
X953211Y10323169D01*
X955903Y10336733D01*
X956818Y10350550D01*
X955903Y10364368D01*
X953211Y10377932D01*
X948791Y10391089D01*
X942644Y10403484D01*
X940612Y10408259D01*
X940866Y10412577D01*
X942898Y10416438D01*
X946353Y10419080D01*
X950620Y10419994D01*
X1070254Y10419994D01*
X1074166Y10419232D01*
X1077468Y10416997D01*
X1212037Y10282428D01*
X1218285Y10277297D01*
X1224940Y10273741D01*
X1232154Y10271556D01*
X1240180Y10270744D01*
X1496974Y10270744D01*
X1501241Y10269829D01*
X1504746Y10267137D01*
X1506778Y10263225D01*
X1506982Y10258856D01*
X1505254Y10254792D01*
X1502359Y10250627D01*
X1498193Y10241686D01*
X1495653Y10232237D01*
X1494942Y10224211D01*
X1494028Y10220807D01*
X1492046Y10217912D01*
X1419301Y10145217D01*
X1415999Y10142982D01*
X1412138Y10142220D01*
X1259230Y10142220D01*
X1255318Y10142982D01*
X1252016Y10145217D01*
X1250442Y10146792D01*
X1242415Y10152430D01*
X1233474Y10156545D01*
X1224026Y10159085D01*
X1214221Y10159949D01*
X1204417Y10159085D01*
X1194968Y10156545D01*
X1186027Y10152430D01*
X1178001Y10146792D01*
X1171041Y10139832D01*
X1165402Y10131806D01*
X1161288Y10122865D01*
X1158748Y10113416D01*
X1157884Y10103612D01*
X1158748Y10093807D01*
X1161288Y10084358D01*
X1165402Y10075418D01*
X1171041Y10067391D01*
X1178001Y10060432D01*
X1186027Y10054793D01*
X1194968Y10050678D01*
X1204417Y10048138D01*
X1214221Y10047274D01*
X1224026Y10048138D01*
X1233474Y10050678D01*
X1242415Y10054793D01*
X1250442Y10060432D01*
X1252016Y10062006D01*
X1255318Y10064242D01*
X1259230Y10065004D01*
X1431848Y10065004D01*
X1439875Y10065766D01*
X1447088Y10068001D01*
X1453743Y10071557D01*
X1459992Y10076637D01*
X1546606Y10163302D01*
X1549501Y10165334D01*
X1552905Y10166248D01*
X1560931Y10166959D01*
X1570431Y10169499D01*
X1579321Y10173614D01*
X1587398Y10179253D01*
X1594307Y10186212D01*
X1599946Y10194239D01*
X1604111Y10203180D01*
X1606651Y10212628D01*
X1607870Y10227614D01*
X1609953Y10231170D01*
X1613255Y10233660D01*
X1617218Y10234574D01*
X1621282Y10233863D01*
X1624736Y10231628D01*
X1913788Y9942525D01*
X1919986Y9937445D01*
X1926691Y9933889D01*
X1933905Y9931654D01*
X1941931Y9930892D01*
X2289454Y9930892D01*
X2293264Y9930180D01*
X2296464Y9928047D01*
X2298700Y9924897D01*
X2299614Y9921189D01*
X2299055Y9917379D01*
X2297074Y9914026D01*
X2290876Y9906965D01*
X2283206Y9895433D01*
X2277059Y9883038D01*
X2272639Y9869881D01*
X2269896Y9856317D01*
X2269032Y9842500D01*
X2269896Y9828682D01*
X2272639Y9815068D01*
X2277059Y9801961D01*
X2283206Y9789566D01*
X2290876Y9778034D01*
X2295702Y9772548D01*
X2297684Y9769195D01*
X2298242Y9765385D01*
X2297328Y9761626D01*
X2295093Y9758476D01*
X2291842Y9756394D01*
X2288082Y9755682D01*
X2227072Y9755682D01*
X2223160Y9756444D01*
X2219858Y9758680D01*
X2193442Y9785096D01*
X2191410Y9787991D01*
X2190496Y9791395D01*
X2189784Y9799421D01*
X2187244Y9808870D01*
X2183130Y9817811D01*
X2177491Y9825837D01*
X2170531Y9832797D01*
X2162505Y9838436D01*
X2153564Y9842550D01*
X2144115Y9845090D01*
X2134311Y9845954D01*
X2124506Y9845090D01*
X2115058Y9842550D01*
X2106117Y9838436D01*
X2098090Y9832797D01*
X2091131Y9825837D01*
X2085492Y9817811D01*
X2081377Y9808870D01*
X2078837Y9799421D01*
X2077974Y9789617D01*
X2078837Y9779812D01*
X2081377Y9770364D01*
X2085492Y9761423D01*
X2091131Y9753396D01*
X2098090Y9746437D01*
X2106117Y9740798D01*
X2115058Y9736683D01*
X2124506Y9734143D01*
X2132533Y9733432D01*
X2135936Y9732518D01*
X2138832Y9730486D01*
X2179218Y9690100D01*
X2185416Y9685020D01*
X2192121Y9681464D01*
X2199335Y9679228D01*
X2207361Y9678466D01*
X3662324Y9678466D01*
X3670350Y9679228D01*
X3677615Y9681464D01*
X3684270Y9685020D01*
X3690467Y9690100D01*
X5023408Y11023041D01*
X5028488Y11029238D01*
X5032044Y11035893D01*
X5034280Y11043158D01*
X5035042Y11051184D01*
X5035042Y11434318D01*
X5034280Y11442344D01*
X5032044Y11449558D01*
X5028488Y11456212D01*
X5023408Y11462461D01*
X4781448Y11704370D01*
X4779416Y11707266D01*
X4778502Y11710670D01*
X4777790Y11718696D01*
X4775250Y11728196D01*
X4771136Y11737086D01*
X4765497Y11745112D01*
X4758537Y11752072D01*
X4750511Y11757710D01*
X4741570Y11761876D01*
X4732121Y11764416D01*
X4722317Y11765280D01*
X4712512Y11764416D01*
X4703064Y11761876D01*
X4694123Y11757710D01*
X4686096Y11752072D01*
X4679137Y11745112D01*
X4677359Y11742572D01*
X4674108Y11739575D01*
X4669891Y11738254D01*
X4665522Y11738813D01*
X4661814Y11741200D01*
X4441088Y11961977D01*
X4438853Y11965279D01*
X4438091Y11969140D01*
X4438091Y12486132D01*
X4437329Y12494158D01*
X4435094Y12501372D01*
X4431538Y12508026D01*
X4426458Y12514275D01*
X4094987Y12845745D01*
X4092956Y12848640D01*
X4092041Y12852044D01*
X4091330Y12860070D01*
X4088790Y12869519D01*
X4084624Y12878460D01*
X4078986Y12886486D01*
X4072077Y12893446D01*
X4064000Y12899085D01*
X4055110Y12903200D01*
X4045610Y12905740D01*
X4035856Y12906603D01*
X4026052Y12905740D01*
X4016552Y12903200D01*
X4007662Y12899085D01*
X3999636Y12893446D01*
X3992676Y12886486D01*
X3987037Y12878460D01*
X3982872Y12869519D01*
X3980332Y12860070D01*
X3979468Y12850266D01*
X3980332Y12840462D01*
X3982872Y12831013D01*
X3987037Y12822072D01*
X3992676Y12814046D01*
X3999636Y12807086D01*
X4007662Y12801447D01*
X4016552Y12797332D01*
X4026052Y12794792D01*
X4034078Y12794081D01*
X4037482Y12793167D01*
X4040378Y12791135D01*
X4357878Y12473584D01*
X4360113Y12470282D01*
X4360875Y12466421D01*
X4360875Y12334697D01*
X4359910Y12330430D01*
X4357268Y12326975D01*
X4353407Y12324943D01*
X4349038Y12324689D01*
X4344974Y12326366D01*
X4341977Y12329566D01*
X4340606Y12333732D01*
X4339945Y12340437D01*
X4337761Y12347651D01*
X4334205Y12354356D01*
X4329074Y12360554D01*
X3396640Y13292988D01*
X3390442Y13298119D01*
X3383787Y13301675D01*
X3376523Y13303859D01*
X3368497Y13304621D01*
X2490571Y13304621D01*
X2486406Y13305536D01*
X2482951Y13308025D01*
X2480868Y13311733D01*
X2480462Y13315950D01*
X2480818Y13319048D01*
X2480818Y13457834D01*
X2481580Y13461695D01*
X2483764Y13464997D01*
X2487066Y13467232D01*
X2490978Y13467994D01*
X3880459Y13467994D01*
X3884320Y13467232D01*
X3887622Y13464997D01*
X5876036Y11476634D01*
X5878220Y11473332D01*
X5879033Y11469420D01*
X5879033Y11355781D01*
X5878271Y11352022D01*
X5876239Y11348821D01*
X5873140Y11346586D01*
X5865012Y11342776D01*
X5856986Y11337137D01*
X5850026Y11330178D01*
X5844387Y11322151D01*
X5840272Y11313261D01*
X5837732Y11303762D01*
X5836869Y11293957D01*
X5837732Y11284204D01*
X5840272Y11274704D01*
X5844387Y11265814D01*
X5850026Y11257737D01*
X5856986Y11250828D01*
X5865012Y11245189D01*
X5873953Y11241024D01*
X5883402Y11238484D01*
X5893206Y11237620D01*
X5903010Y11238484D01*
X5909665Y11240262D01*
X5913374Y11240566D01*
X5916930Y11239500D01*
X5919876Y11237264D01*
X5921806Y11234115D01*
X5922467Y11230457D01*
X5922467Y10999012D01*
X5921603Y10994948D01*
X5919165Y10991545D01*
X5915558Y10989411D01*
X5911443Y10988903D01*
X5902553Y10989665D01*
X5892749Y10988802D01*
X5883249Y10986262D01*
X5874359Y10982147D01*
X5866333Y10976508D01*
X5859373Y10969548D01*
X5853734Y10961522D01*
X5849569Y10952581D01*
X5847029Y10943132D01*
X5846318Y10935106D01*
X5845403Y10931702D01*
X5843422Y10928807D01*
X5319318Y10404703D01*
X5314188Y10398506D01*
X5310632Y10391800D01*
X5308447Y10384586D01*
X5307685Y10376560D01*
X5307685Y9714077D01*
X5306872Y9710166D01*
X5304688Y9706864D01*
X5303113Y9705289D01*
X5297474Y9697262D01*
X5293309Y9688322D01*
X5290769Y9678873D01*
X5289905Y9669068D01*
X5290769Y9659264D01*
X5292547Y9652609D01*
X5292852Y9648901D01*
X5291785Y9645345D01*
X5289550Y9642398D01*
X5286400Y9640468D01*
X5282742Y9639808D01*
G37*

%LPD*%
D10*
X1319608Y10417147D02*
G01*
X1551459Y10417147D01*
X1727304Y10241302D01*
X3918079Y10241302D01*
X4641420Y10964644D01*
X4641420Y11359588D01*
X4265195Y11735813D01*
X4154655Y11735813D01*
X3588946Y11170104D01*
X3549195Y11170104D01*
X3295296Y11424003D01*
X3295296Y12863802D01*
X5859071Y11457708D02*
G01*
X5409719Y11907060D01*
X4562858Y11907060D01*
X1207874Y11638861D02*
G01*
X1469849Y11376886D01*
X1841375Y11376886D01*
X5346270Y9669066D02*
G01*
X5346270Y10377065D01*
X5902530Y10933325D01*
X2571727Y10899239D02*
G01*
X2571727Y11326390D01*
X2404620Y11493497D01*
X1485902Y11493497D01*
X850902Y12128497D01*
X2227379Y10536273D02*
G01*
X2227379Y10613438D01*
X2344168Y10730227D01*
X2402715Y10730227D01*
X2571727Y10899239D01*
X3136902Y10567616D02*
G01*
X2903349Y10567616D01*
X2571727Y10899239D01*
X4254273Y11662839D02*
G01*
X3159051Y10567616D01*
X3136902Y10567616D01*
X3136902Y10545467D02*
G01*
X3136902Y10567616D01*
X1724154Y12391209D02*
G01*
X2096442Y12763497D01*
X2592402Y12763497D01*
X3017293Y13188388D01*
X4036773Y12034898D02*
G01*
X4036773Y12515441D01*
X3645308Y12906905D01*
X2134313Y9789614D02*
G01*
X2206856Y9717072D01*
X3662834Y9717072D01*
X4996436Y11050673D01*
X4996436Y11434798D01*
X4722319Y11708914D01*
X3107108Y13168094D02*
G01*
X3107108Y12886611D01*
X2716608Y12496111D01*
X2633677Y12496111D01*
X4035833Y12850263D02*
G01*
X4399485Y12486612D01*
X4399485Y11948944D01*
X4682289Y11666141D01*
X4682289Y10922683D01*
X3709443Y9949837D01*
X850902Y10858497D02*
G01*
X1231902Y10477497D01*
X4062072Y10477497D01*
X4582772Y10998197D01*
X2716227Y13016506D02*
G01*
X2138225Y13016506D01*
X2122756Y13031975D01*
X3365705Y13169821D02*
G01*
X3365705Y11443865D01*
X3572309Y11237262D01*
X5586630Y13108886D02*
G01*
X5961077Y12734439D01*
X5961077Y10061115D01*
X5882159Y9982197D01*
X2511503Y11164796D02*
G01*
X2511503Y11080290D01*
X2427048Y10995835D01*
X2210691Y10995835D01*
X2013841Y10798985D01*
X2513180Y11268529D02*
G01*
X2484147Y11239497D01*
X2327175Y11239497D01*
X1935152Y10847473D01*
X1935152Y10803252D01*
X1912546Y12451534D02*
G01*
X1980948Y12519936D01*
X2549806Y12519936D01*
X4302127Y11815188D02*
G01*
X4302127Y12332916D01*
X3369007Y13266036D01*
X1734441Y13266036D01*
X850902Y12382497D01*
X5893208Y11293980D02*
G01*
X5917618Y11318389D01*
X5917618Y11489636D01*
X3900655Y13506599D01*
X1915975Y13506599D01*
X918872Y12509497D01*
X808814Y12509497D01*
X742800Y12443482D01*
X742800Y11728599D01*
X850902Y11620497D01*
X4937864Y11080391D02*
G01*
X3747366Y9889893D01*
X3102434Y9889893D01*
X3022831Y9969497D01*
X1941426Y9969497D01*
X1601548Y10309374D01*
X1239700Y10309374D01*
X1090475Y10458599D01*
X829718Y10458599D01*
X742800Y10545518D01*
X742800Y11004395D01*
X850902Y11112497D01*
X1551155Y10222430D02*
G01*
X1432333Y10103609D01*
X1214224Y10103609D01*
D11*
G01*
X850900Y13398500D03*
D12*
G01*
X2374900Y13144500D03*
G01*
X2374900Y12636500D03*
G01*
X2374900Y12128500D03*
G01*
X2374900Y11620500D03*
G01*
X2374900Y11112500D03*
G01*
X2374900Y10604500D03*
G01*
X2374900Y10096500D03*
G01*
X850900Y9842500D03*
G01*
X850900Y10350500D03*
G01*
X850900Y10858500D03*
G01*
X850900Y11366500D03*
G01*
X850900Y11874500D03*
G01*
X850900Y12382500D03*
G01*
X850900Y12890500D03*
G01*
X850900Y13144500D03*
G01*
X850900Y12636500D03*
G01*
X850900Y12128500D03*
G01*
X850900Y11620500D03*
G01*
X850900Y11112500D03*
G01*
X850900Y10604500D03*
G01*
X850900Y10096500D03*
G01*
X2374900Y9842500D03*
G01*
X2374900Y10350500D03*
G01*
X2374900Y10858500D03*
G01*
X2374900Y11366500D03*
G01*
X2374900Y11874500D03*
G01*
X2374900Y12382500D03*
G01*
X2374900Y12890500D03*
D11*
G01*
X2374900Y13398500D03*
D13*
G01*
X3295294Y12863804D03*
G01*
X1319606Y10417149D03*
G01*
X5859068Y11457711D03*
G01*
X4562856Y11907062D03*
G01*
X1841372Y11376888D03*
G01*
X1207871Y11638864D03*
G01*
X5346268Y9669068D03*
G01*
X5902528Y10933328D03*
G01*
X2227376Y10536275D03*
G01*
X3136900Y10545470D03*
G01*
X4254271Y11662841D03*
G01*
X3017291Y13188391D03*
G01*
X1724152Y12391212D03*
G01*
X3645306Y12906908D03*
G01*
X4036771Y12034901D03*
G01*
X4722317Y11708917D03*
G01*
X2134311Y9789617D03*
G01*
X3107105Y13168096D03*
G01*
X2633675Y12496114D03*
G01*
X4035831Y12850266D03*
G01*
X3709441Y9949840D03*
G01*
X4582769Y10998200D03*
G01*
X2122754Y13031978D03*
G01*
X2716225Y13016509D03*
G01*
X3365703Y13169823D03*
G01*
X3572306Y11237264D03*
G01*
X5586628Y13108889D03*
G01*
X5882157Y9982200D03*
G01*
X2511501Y11164798D03*
G01*
X2013838Y10798987D03*
G01*
X1935149Y10803254D03*
G01*
X2513177Y11268532D03*
G01*
X2549804Y12519939D03*
G01*
X1912543Y12451537D03*
G01*
X4302125Y11815190D03*
G01*
X5893206Y11293983D03*
G01*
X4937861Y11080394D03*
G01*
X1214221Y10103612D03*
G01*
X1551152Y10222433D03*
M02*
