G04 Layer: TopSolderMaskLayer*
G04 EasyEDA v6.5.51, 2026-04-03 00:14:50*
G04 a4df5f88f84b4b4294378062c1a919bc,c4e0d51c5373445db20b00b071a3b2d8,10*
G04 Gerber Generator version 0.2*
G04 Scale: 100 percent, Rotated: No, Reflected: No *
G04 Dimensions in millimeters *
G04 leading zeros omitted , absolute positions ,4 integer and 5 decimal *
%FSLAX45Y45*%
%MOMM*%

%AMMACRO1*4,1,8,-0.1711,-0.7008,-0.2008,-0.671,-0.2008,0.6711,-0.1711,0.7008,0.171,0.7008,0.2008,0.6711,0.2008,-0.671,0.171,-0.7008,-0.1711,-0.7008,0*%
%AMMACRO2*4,1,8,-1.2211,-1.5508,-1.2508,-1.521,-1.2508,1.5211,-1.2211,1.5508,1.221,1.5508,1.2508,1.5211,1.2508,-1.521,1.221,-1.5508,-1.2211,-1.5508,0*%
%AMMACRO3*4,1,8,-0.1711,-0.6508,-0.2008,-0.621,-0.2008,0.6211,-0.1711,0.6508,0.171,0.6508,0.2008,0.6211,0.2008,-0.621,0.171,-0.6508,-0.1711,-0.6508,0*%
%AMMACRO4*4,1,8,-0.7711,-0.9508,-0.8008,-0.921,-0.8008,0.9211,-0.7711,0.9508,0.771,0.9508,0.8008,0.9211,0.8008,-0.921,0.771,-0.9508,-0.7711,-0.9508,0*%
%AMMACRO5*4,1,8,-0.6248,-0.9013,-0.6546,-0.8715,-0.6546,0.8716,-0.6248,0.9013,0.6248,0.9013,0.6546,0.8716,0.6546,-0.8715,0.6248,-0.9013,-0.6248,-0.9013,0*%
%AMMACRO6*4,1,8,-0.8211,-0.8508,-0.8508,-0.821,-0.8508,0.8211,-0.8211,0.8508,0.821,0.8508,0.8508,0.8211,0.8508,-0.821,0.821,-0.8508,-0.8211,-0.8508,0*%
%ADD10MACRO1*%
%ADD11MACRO2*%
%ADD12MACRO3*%
%ADD13MACRO4*%
%ADD14MACRO5*%
%ADD15MACRO6*%
%ADD16C,1.7016*%
%ADD17O,0.703605X2.332609*%
%ADD18O,2.489606X0.675589*%
%ADD19O,0.0112X0.675589*%

%LPD*%
D10*
G01*
X5924894Y12997854D03*
G01*
X5874881Y12997854D03*
G01*
X5824894Y12997854D03*
G01*
X5774881Y12997854D03*
G01*
X5724894Y12997854D03*
G01*
X5674881Y12997854D03*
G01*
X5624894Y12997854D03*
G01*
X5574907Y12997854D03*
G01*
X5524894Y12997854D03*
G01*
X5474907Y12997854D03*
G01*
X5424895Y12997854D03*
G01*
X5374882Y12997854D03*
G01*
X5324895Y12997854D03*
G01*
X5274882Y12997854D03*
G01*
X5224895Y12997854D03*
G01*
X5174882Y12997854D03*
D11*
G01*
X4977389Y13240354D03*
G01*
X6122398Y13232856D03*
D12*
G01*
X4445307Y13060301D03*
G01*
X4395307Y13060301D03*
G01*
X4345307Y13060301D03*
G01*
X4295307Y13060301D03*
G01*
X4245307Y13060301D03*
G01*
X4195307Y13060301D03*
G01*
X4145307Y13060301D03*
G01*
X4095308Y13060301D03*
G01*
X4045308Y13060301D03*
G01*
X3995308Y13060301D03*
G01*
X3945308Y13060301D03*
G01*
X3895308Y13060301D03*
G01*
X3845308Y13060301D03*
G01*
X3795308Y13060301D03*
G01*
X3745308Y13060301D03*
G01*
X3695308Y13060301D03*
G01*
X3645308Y13060301D03*
G01*
X3595309Y13060301D03*
G01*
X3545309Y13060301D03*
G01*
X3495306Y13060301D03*
G01*
X3445306Y13060301D03*
G01*
X3395306Y13060301D03*
G01*
X3345306Y13060301D03*
G01*
X3295307Y13060301D03*
G01*
X3245307Y13060301D03*
G01*
X3195307Y13060301D03*
G01*
X3145307Y13060301D03*
G01*
X3095307Y13060301D03*
G01*
X3045307Y13060301D03*
G01*
X2995307Y13060301D03*
G01*
X2945307Y13060301D03*
G01*
X2895307Y13060301D03*
D13*
G01*
X2680309Y13330301D03*
G01*
X4660308Y13330301D03*
D14*
G01*
X3818176Y9994900D03*
G01*
X3522423Y9994900D03*
D15*
G01*
X850900Y13398500D03*
D16*
G01*
X2374900Y13144500D03*
G01*
X2374900Y12636500D03*
G01*
X2374900Y12128500D03*
G01*
X2374900Y11620500D03*
G01*
X2374900Y11112500D03*
G01*
X2374900Y10604500D03*
G01*
X2374900Y10096500D03*
G01*
X850900Y9842500D03*
G01*
X850900Y10350500D03*
G01*
X850900Y10858500D03*
G01*
X850900Y11366500D03*
G01*
X850900Y11874500D03*
G01*
X850900Y12382500D03*
G01*
X850900Y12890500D03*
G01*
X850900Y13144500D03*
G01*
X850900Y12636500D03*
G01*
X850900Y12128500D03*
G01*
X850900Y11620500D03*
G01*
X850900Y11112500D03*
G01*
X850900Y10604500D03*
G01*
X850900Y10096500D03*
G01*
X2374900Y9842500D03*
G01*
X2374900Y10350500D03*
G01*
X2374900Y10858500D03*
G01*
X2374900Y11366500D03*
G01*
X2374900Y11874500D03*
G01*
X2374900Y12382500D03*
G01*
X2374900Y12890500D03*
D15*
G01*
X2374900Y13398500D03*
D17*
G01*
X4902200Y12218339D03*
G01*
X4775200Y12218339D03*
G01*
X4648200Y12218339D03*
G01*
X4521200Y12218339D03*
G01*
X4394200Y12218339D03*
G01*
X4267200Y12218339D03*
G01*
X4140200Y12218339D03*
G01*
X4013200Y12218339D03*
G01*
X4902200Y11505260D03*
G01*
X4775200Y11505260D03*
G01*
X4648200Y11505260D03*
G01*
X4521200Y11505260D03*
G01*
X4394200Y11505260D03*
G01*
X4267200Y11505260D03*
G01*
X4140200Y11505260D03*
G01*
X4013200Y11505260D03*
G01*
X3644900Y11100739D03*
G01*
X3517900Y11100739D03*
G01*
X3390900Y11100739D03*
G01*
X3263900Y11100739D03*
G01*
X3136900Y11100739D03*
G01*
X3009900Y11100739D03*
G01*
X2882900Y11100739D03*
G01*
X2755900Y11100739D03*
G01*
X3644900Y10387660D03*
G01*
X3517900Y10387660D03*
G01*
X3390900Y10387660D03*
G01*
X3263900Y10387660D03*
G01*
X3136900Y10387660D03*
G01*
X3009900Y10387660D03*
G01*
X2882900Y10387660D03*
G01*
X2755900Y10387660D03*
G01*
X2070100Y10643539D03*
G01*
X1943100Y10643539D03*
G01*
X1816100Y10643539D03*
G01*
X1689100Y10643539D03*
G01*
X1562100Y10643539D03*
G01*
X1435100Y10643539D03*
G01*
X1308100Y10643539D03*
G01*
X1181100Y10643539D03*
G01*
X2070100Y9930460D03*
G01*
X1943100Y9930460D03*
G01*
X1816100Y9930460D03*
G01*
X1689100Y9930460D03*
G01*
X1562100Y9930460D03*
G01*
X1435100Y9930460D03*
G01*
X1308100Y9930460D03*
G01*
X1181100Y9930460D03*
G01*
X2032000Y12218339D03*
G01*
X1905000Y12218339D03*
G01*
X1778000Y12218339D03*
G01*
X1651000Y12218339D03*
G01*
X1524000Y12218339D03*
G01*
X1397000Y12218339D03*
G01*
X1270000Y12218339D03*
G01*
X1143000Y12218339D03*
G01*
X2032000Y11505260D03*
G01*
X1905000Y11505260D03*
G01*
X1778000Y11505260D03*
G01*
X1651000Y11505260D03*
G01*
X1524000Y11505260D03*
G01*
X1397000Y11505260D03*
G01*
X1270000Y11505260D03*
G01*
X1143000Y11505260D03*
D18*
G01*
X6049695Y9855200D03*
G01*
X6049695Y9982200D03*
G01*
X6049695Y10109200D03*
G01*
X6049695Y10236200D03*
G01*
X6049695Y10363200D03*
G01*
X6049695Y10490200D03*
G01*
X6049695Y10617200D03*
G01*
X6049695Y10744200D03*
G01*
X6049695Y10871200D03*
G01*
X6049695Y10998200D03*
G01*
X6049695Y11125200D03*
G01*
X6049695Y11252200D03*
G01*
X5100904Y9855200D03*
G01*
X5100904Y9982200D03*
G01*
X5100904Y10109200D03*
G01*
X5100904Y10236200D03*
G01*
X5100904Y10363200D03*
G01*
X5100904Y10490200D03*
G01*
X5100904Y10617200D03*
G01*
X5100904Y10744200D03*
G01*
X5100904Y10871200D03*
G01*
X5100904Y10998200D03*
G01*
X5100904Y11125200D03*
G01*
X5100904Y11252200D03*
M02*
